<svg xmlns="http://www.w3.org/2000/svg" version="1.1" xmlns:xlink="http://www.w3.org/1999/xlink" xmlns:svgjs="http://svgjs.dev/svgjs" viewBox="0 0 1920 1080" id="0eb0e563-5679-45c5-af42-3bd48922c7a7"><g><rect width="1920" height="1080" fill="#8d451a"/></g><g fill="#352fba"><path d="M745.478 668.096L1087.28 1009.97L1200.88 896.347L859.076 554.473L745.478 668.096Z"/><path d="M858.951 554.294L517.152 896.168L630.75 1009.79L972.549 667.917L858.951 554.294Z"/><path d="M289.239 668.391L631.038 1010.27L744.636 896.643L402.837 554.769L289.239 668.391Z"/><path d="M402.706 554L60.907 895.874L174.505 1009.5L516.304 667.623L402.706 554Z"/><path d="M-166 667.682L175.799 1009.56L289.397 895.933L-52.4021 554.059L-166 667.682Z"/></g><g fill="#ffffff" opacity="0.2"><path d="M1134 160C1540.91 160 1872 491.086 1872 898C1872 1304.91 1540.91 1636 1134 1636C727.086 1635.56 396 1304.91 396 898C396 491.086 727.086 160 1134 160ZM1134 1611.31C1527.25 1611.31 1847.31 1291.25 1847.31 898C1847.31 504.753 1527.25 184.247 1134 184.247C740.753 184.247 420.247 504.312 420.247 898C420.247 1291.69 740.312 1611.31 1134 1611.31Z"/><path d="M1134 251.699C1490.22 251.699 1780.3 541.785 1780.3 898C1780.3 1254.22 1490.22 1544.3 1134 1544.3C777.785 1544.3 487.699 1254.22 487.699 898C487.699 541.785 777.344 251.699 1134 251.699ZM1134 1519.61C1476.99 1519.61 1756.05 1240.55 1756.05 897.559C1756.05 554.57 1476.99 275.947 1134 275.947C791.011 275.947 511.946 555.011 511.946 898C511.946 1240.99 791.011 1519.61 1134 1519.61Z"/><path d="M1134 342.957C1439.96 342.957 1688.6 592.043 1688.6 897.559C1688.6 1203.52 1439.52 1452.16 1134 1452.16C828.043 1452.16 579.398 1203.08 579.398 897.559C578.957 592.043 828.043 342.957 1134 342.957ZM1134 1428.35C1426.29 1428.35 1664.35 1190.29 1664.35 898C1664.35 605.71 1426.29 367.645 1134 367.645C841.71 367.645 603.645 605.71 603.645 898C603.645 1190.29 841.269 1428.35 1134 1428.35Z"/><path d="M1134 434.656C1389.26 434.656 1597.34 642.301 1597.34 898C1597.34 1153.7 1389.7 1361.34 1134 1361.34C878.742 1361.34 670.656 1153.7 670.656 898C670.656 642.301 878.301 434.656 1134 434.656ZM1134 1336.66C1376.03 1336.66 1572.66 1139.59 1572.66 898C1572.66 656.408 1375.59 459.344 1134 459.344C891.968 459.344 695.344 656.408 695.344 898C695.344 1139.59 891.968 1336.66 1134 1336.66Z"/><path d="M1134 526.354C1339 526.354 1505.65 693 1505.65 898C1505.65 1103 1339 1269.64 1134 1269.64C929 1269.64 762.355 1103 762.355 898C762.355 693 929 526.354 1134 526.354ZM1134 1244.96C1325.33 1244.96 1481.4 1089.33 1481.4 897.559C1481.4 706.225 1325.77 550.161 1134 550.161C942.667 550.161 786.602 705.785 786.602 897.559C786.602 1089.33 942.226 1244.96 1134 1244.96Z"/><path d="M1134 617.613C1288.3 617.613 1414.39 743.258 1414.39 898C1414.39 1052.74 1288.74 1178.39 1134 1178.39C979.699 1178.39 853.613 1052.74 853.613 898C853.613 743.258 979.258 617.613 1134 617.613ZM1134 1153.7C1275.08 1153.7 1389.7 1039.08 1389.7 898C1389.7 756.925 1275.08 642.301 1134 642.301C992.925 642.301 878.301 756.925 878.301 898C878.301 1039.08 992.925 1153.7 1134 1153.7Z"/><path d="M1134 709.312C1238.04 709.312 1322.69 793.957 1322.69 898C1322.69 1002.04 1238.04 1086.69 1134 1086.69C1029.96 1086.69 945.312 1002.04 945.312 898C945.312 793.957 1029.96 709.312 1134 709.312ZM1134 1062C1224.38 1062 1298.44 988.377 1298.44 897.559C1298.44 807.183 1224.82 733.118 1134 733.118C1043.62 733.118 969.559 806.742 969.559 897.559C969.559 988.377 1043.18 1062 1134 1062Z"/><path d="M1134 800.57C1187.34 800.57 1230.99 844.215 1230.99 897.56C1230.99 950.904 1187.34 994.549 1134 994.549C1080.66 994.549 1037.01 950.904 1037.01 897.56C1036.57 844.215 1080.22 800.57 1134 800.57ZM1134 970.742C1174.12 970.742 1206.74 938.119 1206.74 898C1206.74 857.882 1174.12 825.258 1134 825.258C1093.88 825.258 1061.26 857.882 1061.26 898C1061.26 938.119 1093.88 970.742 1134 970.742Z"/></g><g><path d="M178.635 139.281L184.422 144.246V166.626H215.704L219.958 172.147L215.69 177.397H184.422V198.795L178.635 203.747L173 198.795V144.232L178.635 139.281ZM195.554 195.68H219.406L223.397 200.915L219.143 206.45H195.554L191.7 201.342L195.554 195.68ZM196.382 138H219.129L223.383 143.52L219.129 148.77H196.659L192.115 143.677L196.382 138ZM323.155 148.628L328.251 154.291L323.155 159.968H246.13L241.172 154.291L246.13 148.628H323.155ZM237.043 172.147L241.849 167.893L246.669 172.147V178.393C246.669 188.879 249.417 197.515 261.668 197.515H264.14C275.147 197.515 281.197 189.86 281.197 177.952V172.005L285.879 167.75L290.699 171.862V178.379C290.699 189.007 293.723 196.946 305.56 196.946H307.618C319.178 196.946 321.235 187.869 321.373 177.952V171.578L326.056 167.608L331 171.72V178.094C330.862 191.838 327.285 207.574 308.032 207.574H305.974C294.552 207.574 288.365 202.324 285.892 195.808C283.006 202.466 275.299 208.286 264.844 208.286H262.358C242.553 208.286 237.194 195.964 237.056 178.663V172.147H237.043ZM276.391 274.744L273.642 267.089L280.796 264.969L305.974 276.721V252.491L311.07 248.095L316.291 252.491V281.829L325.641 286.226L328.251 293.311L320.959 296L276.391 274.744ZM321.235 223.011L328.113 226.27L325.917 233.497L264.002 263.119L256.571 260.146L259.596 252.776L321.235 223.011ZM231.905 263.404L237.954 268.512C237.402 286.51 222.403 296 204.669 296H202.874C194.062 296 183.759 292.6 177.157 286.083L177.834 278.855L184.298 278.002C189.118 282.256 195.858 285.229 202.183 285.229H204.117C216.091 285.229 225.303 280.136 226.27 268.085L231.905 263.404ZM226.256 251.638C225.704 239.16 216.629 234.209 204.103 234.209H202.169C194.739 234.209 189.104 237.182 184.284 241.436L177.834 240.583L177.143 233.355C183.745 226.696 192.957 223.58 202.597 223.58H204.517C222.403 223.58 237.402 232.942 237.94 251.211L231.891 256.176L226.256 251.638Z" fill="#ffffff"/></g><path d="M1171 781L1171 339L1187 339L1187 781L1171 781Z" fill="#ffffff"/><g fill="#ffffff" id="info-group"><path d="M181.2300 555.9000L181.2300 555.9000Q173.2200 555.9000 167.4600 553.2450Q161.7000 550.5900 158.4600 545.0550Q155.2200 539.5200 154.9500 531.2400L154.9500 531.2400Q154.8600 527.3700 154.8600 523.5900Q154.8600 519.8100 154.9500 515.8500L154.9500 515.8500Q155.2200 507.6600 158.5500 502.1700Q161.8800 496.6800 167.6850 493.8900Q173.4900 491.1000 181.2300 491.1000L181.2300 491.1000Q188.9700 491.1000 194.8200 493.8900Q200.6700 496.6800 204 502.1700Q207.3300 507.6600 207.6000 515.8500L207.6000 515.8500Q207.7800 519.8100 207.7800 523.5900Q207.7800 527.3700 207.6000 531.2400L207.6000 531.2400Q207.3300 539.5200 204.0900 545.0550Q200.8500 550.5900 195.0450 553.2450Q189.2400 555.9000 181.2300 555.9000ZM181.2300 545.5500L181.2300 545.5500Q187.0800 545.5500 190.7700 542.0850Q194.4600 538.6200 194.7300 530.7900L194.7300 530.7900Q194.9100 526.8300 194.9100 523.4550Q194.9100 520.0800 194.7300 516.2100L194.7300 516.2100Q194.5500 510.9900 192.7950 507.7050Q191.0400 504.4200 188.0700 502.9350Q185.1000 501.4500 181.2300 501.4500L181.2300 501.4500Q177.4500 501.4500 174.4800 502.9350Q171.5100 504.4200 169.7550 507.7050Q168 510.9900 167.8200 516.2100L167.8200 516.2100Q167.7300 520.0800 167.7300 523.4550Q167.7300 526.8300 167.8200 530.7900L167.8200 530.7900Q168.0900 538.6200 171.7800 542.0850Q175.4700 545.5500 181.2300 545.5500ZM228.4800 555L220.6500 555Q219.7500 555 219.1200 554.3700Q218.4900 553.7400 218.4900 552.8400L218.4900 552.8400L218.4900 510.4500Q218.4900 509.4600 219.1200 508.8300Q219.7500 508.2000 220.6500 508.2000L220.6500 508.2000L227.9400 508.2000Q228.8400 508.2000 229.5150 508.8300Q230.1900 509.4600 230.1900 510.4500L230.1900 510.4500L230.1900 514.1400Q232.2600 511.2600 235.5450 509.7300Q238.8300 508.2000 243.1500 508.2000L243.1500 508.2000L246.8400 508.2000Q247.8300 508.2000 248.4150 508.8300Q249 509.4600 249 510.3600L249 510.3600L249 516.8400Q249 517.7400 248.4150 518.3700Q247.8300 519 246.8400 519L246.8400 519L239.8200 519Q235.5000 519 233.1150 521.3850Q230.7300 523.7700 230.7300 528.0900L230.7300 528.0900L230.7300 552.8400Q230.7300 553.7400 230.1000 554.3700Q229.4700 555 228.4800 555L228.4800 555ZM265.6500 555L258.1800 555Q257.2800 555 256.6500 554.3700Q256.0200 553.7400 256.0200 552.8400L256.0200 552.8400L256.0200 510.3600Q256.0200 509.4600 256.6500 508.8300Q257.2800 508.2000 258.1800 508.2000L258.1800 508.2000L265.6500 508.2000Q266.6400 508.2000 267.2250 508.8300Q267.8100 509.4600 267.8100 510.3600L267.8100 510.3600L267.8100 552.8400Q267.8100 553.7400 267.2250 554.3700Q266.6400 555 265.6500 555L265.6500 555ZM266.0100 500.4600L257.8200 500.4600Q256.9200 500.4600 256.2900 499.8300Q255.6600 499.2000 255.6600 498.3000L255.6600 498.3000L255.6600 491.8200Q255.6600 490.9200 256.2900 490.2900Q256.9200 489.6600 257.8200 489.6600L257.8200 489.6600L266.0100 489.6600Q267 489.6600 267.6300 490.2900Q268.2600 490.9200 268.2600 491.8200L268.2600 491.8200L268.2600 498.3000Q268.2600 499.2000 267.6300 499.8300Q267 500.4600 266.0100 500.4600L266.0100 500.4600ZM299.9400 555.9000L299.9400 555.9000Q289.9500 555.9000 284.1000 550.1400Q278.2500 544.3800 277.8000 533.7600L277.8000 533.7600Q277.7100 532.8600 277.7100 531.4650Q277.7100 530.0700 277.8000 529.2600L277.8000 529.2600Q278.1600 522.4200 280.9050 517.5150Q283.6500 512.6100 288.5100 509.9550Q293.3700 507.3000 299.9400 507.3000L299.9400 507.3000Q307.2300 507.3000 312.1800 510.3150Q317.1300 513.3300 319.6500 518.6850Q322.1700 524.0400 322.1700 531.0600L322.1700 531.0600L322.1700 532.9500Q322.1700 533.8500 321.5400 534.4800Q320.9100 535.1100 319.9200 535.1100L319.9200 535.1100L290.0400 535.1100Q290.0400 535.1100 290.0400 535.3800Q290.0400 535.6500 290.0400 535.8300L290.0400 535.8300Q290.1300 538.9800 291.2550 541.6350Q292.3800 544.2900 294.5850 545.9100Q296.7900 547.5300 299.8500 547.5300L299.8500 547.5300Q302.3700 547.5300 304.0800 546.7650Q305.7900 546 306.8700 545.0100Q307.9500 544.0200 308.4000 543.3900L308.4000 543.3900Q309.2100 542.3100 309.7050 542.0850Q310.2000 541.8600 311.1900 541.8600L311.1900 541.8600L318.9300 541.8600Q319.8300 541.8600 320.4150 542.4000Q321 542.9400 320.9100 543.7500L320.9100 543.7500Q320.8200 545.1900 319.4250 547.2600Q318.0300 549.3300 315.4200 551.3100Q312.8100 553.2900 308.8950 554.5950Q304.9800 555.9000 299.9400 555.9000ZM290.0400 527.2800L290.0400 527.5500L309.9300 527.5500L309.9300 527.2800Q309.9300 523.7700 308.7600 521.1150Q307.5900 518.4600 305.3400 516.9750Q303.0900 515.4900 299.9400 515.4900L299.9400 515.4900Q296.7900 515.4900 294.5400 516.9750Q292.2900 518.4600 291.1650 521.1150Q290.0400 523.7700 290.0400 527.2800L290.0400 527.2800ZM341.7900 555L333.8700 555Q332.9700 555 332.3400 554.3700Q331.7100 553.7400 331.7100 552.8400L331.7100 552.8400L331.7100 510.3600Q331.7100 509.4600 332.3400 508.8300Q332.9700 508.2000 333.8700 508.2000L333.8700 508.2000L341.2500 508.2000Q342.1500 508.2000 342.7800 508.8300Q343.4100 509.4600 343.4100 510.3600L343.4100 510.3600L343.4100 514.0500Q345.7500 511.1700 349.3950 509.2350Q353.0400 507.3000 358.4400 507.3000L358.4400 507.3000Q363.9300 507.3000 367.9800 509.7750Q372.0300 512.2500 374.2350 516.7500Q376.4400 521.2500 376.4400 527.5500L376.4400 527.5500L376.4400 552.8400Q376.4400 553.7400 375.8100 554.3700Q375.1800 555 374.2800 555L374.2800 555L366.3600 555Q365.4600 555 364.8300 554.3700Q364.2000 553.7400 364.2000 552.8400L364.2000 552.8400L364.2000 528.0900Q364.2000 522.8700 361.6350 519.9000Q359.0700 516.9300 354.2100 516.9300L354.2100 516.9300Q349.5300 516.9300 346.7400 519.9000Q343.9500 522.8700 343.9500 528.0900L343.9500 528.0900L343.9500 552.8400Q343.9500 553.7400 343.3200 554.3700Q342.6900 555 341.7900 555L341.7900 555ZM416.3100 555L409.0200 555Q403.6200 555 399.9300 553.1100Q396.2400 551.2200 394.4400 547.4850Q392.6400 543.7500 392.6400 538.1700L392.6400 538.1700L392.6400 517.7400L385.5300 517.7400Q384.6300 517.7400 384.0000 517.1100Q383.3700 516.4800 383.3700 515.4900L383.3700 515.4900L383.3700 510.3600Q383.3700 509.4600 384.0000 508.8300Q384.6300 508.2000 385.5300 508.2000L385.5300 508.2000L392.6400 508.2000L392.6400 493.2600Q392.6400 492.3600 393.2250 491.7300Q393.8100 491.1000 394.8000 491.1000L394.8000 491.1000L402.0900 491.1000Q402.9900 491.1000 403.6200 491.7300Q404.2500 492.3600 404.2500 493.2600L404.2500 493.2600L404.2500 508.2000L415.5000 508.2000Q416.4000 508.2000 417.0300 508.8300Q417.6600 509.4600 417.6600 510.3600L417.6600 510.3600L417.6600 515.4900Q417.6600 516.4800 417.0300 517.1100Q416.4000 517.7400 415.5000 517.7400L415.5000 517.7400L404.2500 517.7400L404.2500 537.2700Q404.2500 540.9600 405.5550 543.0300Q406.8600 545.1000 410.1000 545.1000L410.1000 545.1000L416.3100 545.1000Q417.2100 545.1000 417.8400 545.7300Q418.4700 546.3600 418.4700 547.2600L418.4700 547.2600L418.4700 552.8400Q418.4700 553.7400 417.8400 554.3700Q417.2100 555 416.3100 555L416.3100 555ZM440.0700 555.9000L440.0700 555.9000Q435.3900 555.9000 431.6100 554.0550Q427.8300 552.2100 425.6250 549.1050Q423.4200 546 423.4200 542.1300L423.4200 542.1300Q423.4200 535.8300 428.5500 532.0950Q433.6800 528.3600 441.9600 527.1000L441.9600 527.1000L454.2900 525.3000L454.2900 523.4100Q454.2900 519.6300 452.4000 517.5600Q450.5100 515.4900 445.9200 515.4900L445.9200 515.4900Q442.6800 515.4900 440.6550 516.7950Q438.6300 518.1000 437.6400 520.2600L437.6400 520.2600Q436.9200 521.4300 435.5700 521.4300L435.5700 521.4300L428.4600 521.4300Q427.4700 521.4300 426.9750 520.8900Q426.4800 520.3500 426.4800 519.4500L426.4800 519.4500Q426.5700 518.0100 427.6950 515.9400Q428.8200 513.8700 431.1150 511.9350Q433.4100 510 437.1000 508.6500Q440.7900 507.3000 446.0100 507.3000L446.0100 507.3000Q451.6800 507.3000 455.5950 508.6950Q459.5100 510.0900 461.8500 512.4300Q464.1900 514.7700 465.2700 517.9200Q466.3500 521.0700 466.3500 524.5800L466.3500 524.5800L466.3500 552.8400Q466.3500 553.7400 465.7200 554.3700Q465.0900 555 464.1900 555L464.1900 555L456.9000 555Q455.9100 555 455.3250 554.3700Q454.7400 553.7400 454.7400 552.8400L454.7400 552.8400L454.7400 549.3300Q453.5700 550.9500 451.5900 552.4800Q449.6100 554.0100 446.7750 554.9550Q443.9400 555.9000 440.0700 555.9000ZM443.1300 547.3500L443.1300 547.3500Q446.2800 547.3500 448.8450 546Q451.4100 544.6500 452.8950 541.8150Q454.3800 538.9800 454.3800 534.6600L454.3800 534.6600L454.3800 532.7700L445.3800 534.2100Q440.0700 535.0200 437.4600 536.8200Q434.8500 538.6200 434.8500 541.2300L434.8500 541.2300Q434.8500 543.2100 436.0650 544.6050Q437.2800 546 439.1700 546.6750Q441.0600 547.3500 443.1300 547.3500ZM498.0300 574.8000L498.0300 574.8000Q495.5100 574.7100 493.5750 573.9000Q491.6400 573.0900 490.7850 572.0100Q489.9300 570.9300 490.8300 570.2100L490.8300 570.2100L492.3600 568.8600Q493.1700 568.1400 493.7550 568.4550Q494.3400 568.7700 495.2850 569.3550Q496.2300 569.9400 498.0300 569.9400L498.0300 569.9400Q499.3800 569.9400 500.3700 569.0850Q501.3600 568.2300 501.3600 566.8800L501.3600 566.8800Q501.3600 565.6200 500.4150 564.8100Q499.4700 564 498.0300 564L498.0300 564Q496.7700 564 495.8700 564.3150Q494.9700 564.6300 494.2500 564.7650Q493.5300 564.9000 492.8100 564.1800L492.8100 564.1800L491.1900 562.5600Q490.6500 561.9300 490.8300 561.2550Q491.0100 560.5800 491.3700 559.7700L491.3700 559.7700L493.2600 555.4500Q485.5200 554.2800 480.9300 549.0150Q476.3400 543.7500 476.0700 535.2000L476.0700 535.2000Q475.9800 533.8500 475.9800 531.6450Q475.9800 529.4400 476.0700 528L476.0700 528Q476.3400 521.4300 479.0850 516.7950Q481.8300 512.1600 486.7350 509.7300Q491.6400 507.3000 498.1200 507.3000L498.1200 507.3000Q503.8800 507.3000 507.9300 508.8750Q511.9800 510.4500 514.5900 512.9250Q517.2000 515.4000 518.5050 518.0550Q519.8100 520.7100 519.9000 522.8700L519.9000 522.8700Q519.9900 523.8600 519.3150 524.4450Q518.6400 525.0300 517.7400 525.0300L517.7400 525.0300L509.8200 525.0300Q508.9200 525.0300 508.4250 524.5800Q507.9300 524.1300 507.4800 523.2300L507.4800 523.2300Q506.1300 519.6300 503.9250 518.1450Q501.7200 516.6600 498.3000 516.6600L498.3000 516.6600Q493.8000 516.6600 491.1450 519.4950Q488.4900 522.3300 488.3100 528.4500L488.3100 528.4500Q488.1300 531.8700 488.3100 534.7500L488.3100 534.7500Q488.4900 540.9600 491.1450 543.7500Q493.8000 546.5400 498.3000 546.5400L498.3000 546.5400Q501.8100 546.5400 503.9700 545.0550Q506.1300 543.5700 507.4800 539.9700L507.4800 539.9700Q507.9300 539.0700 508.4250 538.6200Q508.9200 538.1700 509.8200 538.1700L509.8200 538.1700L517.7400 538.1700Q518.6400 538.1700 519.3150 538.7550Q519.9900 539.3400 519.9000 540.3300L519.9000 540.3300Q519.8100 542.3100 518.5500 544.9650Q517.2900 547.6200 514.7700 550.0950Q512.2500 552.5700 508.2000 554.2350Q504.1500 555.9000 498.3900 555.9000L498.3900 555.9000L496.5000 559.7700Q497.0400 559.5000 497.9850 559.3200Q498.9300 559.1400 499.6500 559.1400L499.6500 559.1400Q502.8000 559.1400 504.7350 561.3000Q506.6700 563.4600 506.6700 566.7900L506.6700 566.7900Q506.6700 570.2100 504.4200 572.5500Q502.1700 574.8900 498.0300 574.8000ZM542.8500 555.9000L542.8500 555.9000Q538.1700 555.9000 534.3900 554.0550Q530.6100 552.2100 528.4050 549.1050Q526.2000 546 526.2000 542.1300L526.2000 542.1300Q526.2000 535.8300 531.3300 532.0950Q536.4600 528.3600 544.7400 527.1000L544.7400 527.1000L557.0700 525.3000L557.0700 523.4100Q557.0700 519.6300 555.1800 517.5600Q553.2900 515.4900 548.7000 515.4900L548.7000 515.4900Q545.4600 515.4900 543.4350 516.7950Q541.4100 518.1000 540.4200 520.2600L540.4200 520.2600Q539.7000 521.4300 538.3500 521.4300L538.3500 521.4300L531.2400 521.4300Q530.2500 521.4300 529.7550 520.8900Q529.2600 520.3500 529.2600 519.4500L529.2600 519.4500Q529.3500 518.0100 530.4750 515.9400Q531.6000 513.8700 533.8950 511.9350Q536.1900 510 539.8800 508.6500Q543.5700 507.3000 548.7900 507.3000L548.7900 507.3000Q554.4600 507.3000 558.3750 508.6950Q562.2900 510.0900 564.6300 512.4300Q566.9700 514.7700 568.0500 517.9200Q569.1300 521.0700 569.1300 524.5800L569.1300 524.5800L569.1300 552.8400Q569.1300 553.7400 568.5000 554.3700Q567.8700 555 566.9700 555L566.9700 555L559.6800 555Q558.6900 555 558.1050 554.3700Q557.5200 553.7400 557.5200 552.8400L557.5200 552.8400L557.5200 549.3300Q556.3500 550.9500 554.3700 552.4800Q552.3900 554.0100 549.5550 554.9550Q546.7200 555.9000 542.8500 555.9000ZM545.9100 547.3500L545.9100 547.3500Q549.0600 547.3500 551.6250 546Q554.1900 544.6500 555.6750 541.8150Q557.1600 538.9800 557.1600 534.6600L557.1600 534.6600L557.1600 532.7700L548.1600 534.2100Q542.8500 535.0200 540.2400 536.8200Q537.6300 538.6200 537.6300 541.2300L537.6300 541.2300Q537.6300 543.2100 538.8450 544.6050Q540.0600 546 541.9500 546.6750Q543.8400 547.3500 545.9100 547.3500ZM553.7400 501.9000L553.7400 501.9000Q551.4000 501.9000 549.9600 501.1350Q548.5200 500.3700 547.3050 499.5600Q546.0900 498.7500 544.6500 498.7500L544.6500 498.7500Q543.4800 498.7500 542.9850 499.4250Q542.4900 500.1000 542.0400 500.7750Q541.5900 501.4500 540.6000 501.4500L540.6000 501.4500L536.4600 501.4500Q535.8300 501.4500 535.3800 501Q534.9300 500.5500 534.9300 499.9200L534.9300 499.9200Q534.9300 498.5700 535.4250 496.9050Q535.9200 495.2400 537 493.7100Q538.0800 492.1800 539.7450 491.2350Q541.4100 490.2900 543.6600 490.2900L543.6600 490.2900Q546.0900 490.2900 547.5300 491.0550Q548.9700 491.8200 550.1850 492.6300Q551.4000 493.4400 552.8400 493.4400L552.8400 493.4400Q554.0100 493.4400 554.5050 492.7200Q555 492 555.4500 491.3250Q555.9000 490.6500 556.8900 490.6500L556.8900 490.6500L561.0300 490.6500Q561.7500 490.6500 562.1550 491.1450Q562.5600 491.6400 562.5600 492.2700L562.5600 492.2700Q562.5600 493.6200 562.0650 495.2850Q561.5700 496.9500 560.4900 498.4800Q559.4100 500.0100 557.7450 500.9550Q556.0800 501.9000 553.7400 501.9000ZM601.3500 555.9000L601.3500 555.9000Q594.1500 555.9000 589.2450 553.3800Q584.3400 550.8600 581.7750 546.2700Q579.2100 541.6800 578.8500 535.5600L578.8500 535.5600Q578.7600 533.9400 578.7600 531.6000Q578.7600 529.2600 578.8500 527.6400L578.8500 527.6400Q579.2100 521.4300 581.8650 516.8850Q584.5200 512.3400 589.4250 509.8200Q594.3300 507.3000 601.3500 507.3000L601.3500 507.3000Q608.3700 507.3000 613.2750 509.8200Q618.1800 512.3400 620.8350 516.8850Q623.4900 521.4300 623.8500 527.6400L623.8500 527.6400Q623.9400 529.2600 623.9400 531.6000Q623.9400 533.9400 623.8500 535.5600L623.8500 535.5600Q623.4900 541.6800 620.9250 546.2700Q618.3600 550.8600 613.4550 553.3800Q608.5500 555.9000 601.3500 555.9000ZM601.3500 546.9900L601.3500 546.9900Q606.1200 546.9900 608.7300 543.9750Q611.3400 540.9600 611.6100 535.1100L611.6100 535.1100Q611.7000 533.7600 611.7000 531.6000Q611.7000 529.4400 611.6100 528.0900L611.6100 528.0900Q611.3400 522.2400 608.7300 519.2250Q606.1200 516.2100 601.3500 516.2100L601.3500 516.2100Q596.5800 516.2100 593.9700 519.2250Q591.3600 522.2400 591.0900 528.0900L591.0900 528.0900Q591 529.4400 591 531.6000Q591 533.7600 591.0900 535.1100L591.0900 535.1100Q591.3600 540.9600 593.9700 543.9750Q596.5800 546.9900 601.3500 546.9900ZM668.1300 555.9000L668.1300 555.9000Q663.4500 555.9000 659.6700 554.0550Q655.8900 552.2100 653.6850 549.1050Q651.4800 546 651.4800 542.1300L651.4800 542.1300Q651.4800 535.8300 656.6100 532.0950Q661.7400 528.3600 670.0200 527.1000L670.0200 527.1000L682.3500 525.3000L682.3500 523.4100Q682.3500 519.6300 680.4600 517.5600Q678.5700 515.4900 673.9800 515.4900L673.9800 515.4900Q670.7400 515.4900 668.7150 516.7950Q666.6900 518.1000 665.7000 520.2600L665.7000 520.2600Q664.9800 521.4300 663.6300 521.4300L663.6300 521.4300L656.5200 521.4300Q655.5300 521.4300 655.0350 520.8900Q654.5400 520.3500 654.5400 519.4500L654.5400 519.4500Q654.6300 518.0100 655.7550 515.9400Q656.8800 513.8700 659.1750 511.9350Q661.4700 510 665.1600 508.6500Q668.8500 507.3000 674.0700 507.3000L674.0700 507.3000Q679.7400 507.3000 683.6550 508.6950Q687.5700 510.0900 689.9100 512.4300Q692.2500 514.7700 693.3300 517.9200Q694.4100 521.0700 694.4100 524.5800L694.4100 524.5800L694.4100 552.8400Q694.4100 553.7400 693.7800 554.3700Q693.1500 555 692.2500 555L692.2500 555L684.9600 555Q683.9700 555 683.3850 554.3700Q682.8000 553.7400 682.8000 552.8400L682.8000 552.8400L682.8000 549.3300Q681.6300 550.9500 679.6500 552.4800Q677.6700 554.0100 674.8350 554.9550Q672 555.9000 668.1300 555.9000ZM671.1900 547.3500L671.1900 547.3500Q674.3400 547.3500 676.9050 546Q679.4700 544.6500 680.9550 541.8150Q682.4400 538.9800 682.4400 534.6600L682.4400 534.6600L682.4400 532.7700L673.4400 534.2100Q668.1300 535.0200 665.5200 536.8200Q662.9100 538.6200 662.9100 541.2300L662.9100 541.2300Q662.9100 543.2100 664.1250 544.6050Q665.3400 546 667.2300 546.6750Q669.1200 547.3500 671.1900 547.3500ZM751.8300 555.9000L751.8300 555.9000Q743.8200 555.9000 738.0600 553.2450Q732.3000 550.5900 729.0600 545.0550Q725.8200 539.5200 725.5500 531.2400L725.5500 531.2400Q725.4600 527.3700 725.4600 523.5900Q725.4600 519.8100 725.5500 515.8500L725.5500 515.8500Q725.8200 507.6600 729.1500 502.1700Q732.4800 496.6800 738.2850 493.8900Q744.0900 491.1000 751.8300 491.1000L751.8300 491.1000Q759.5700 491.1000 765.4200 493.8900Q771.2700 496.6800 774.6000 502.1700Q777.9300 507.6600 778.2000 515.8500L778.2000 515.8500Q778.3800 519.8100 778.3800 523.5900Q778.3800 527.3700 778.2000 531.2400L778.2000 531.2400Q777.9300 539.5200 774.6900 545.0550Q771.4500 550.5900 765.6450 553.2450Q759.8400 555.9000 751.8300 555.9000ZM751.8300 545.5500L751.8300 545.5500Q757.6800 545.5500 761.3700 542.0850Q765.0600 538.6200 765.3300 530.7900L765.3300 530.7900Q765.5100 526.8300 765.5100 523.4550Q765.5100 520.0800 765.3300 516.2100L765.3300 516.2100Q765.1500 510.9900 763.3950 507.7050Q761.6400 504.4200 758.6700 502.9350Q755.7000 501.4500 751.8300 501.4500L751.8300 501.4500Q748.0500 501.4500 745.0800 502.9350Q742.1100 504.4200 740.3550 507.7050Q738.6000 510.9900 738.4200 516.2100L738.4200 516.2100Q738.3300 520.0800 738.3300 523.4550Q738.3300 526.8300 738.4200 530.7900L738.4200 530.7900Q738.6900 538.6200 742.3800 542.0850Q746.0700 545.5500 751.8300 545.5500ZM815.0100 555.9000L815.0100 555.9000Q809.7900 555.9000 806.3250 554.1000Q802.8600 552.3000 800.6100 549.5100L800.6100 549.5100L800.6100 552.8400Q800.6100 553.7400 800.0250 554.3700Q799.4400 555 798.4500 555L798.4500 555L791.3400 555Q790.4400 555 789.8100 554.3700Q789.1800 553.7400 789.1800 552.8400L789.1800 552.8400L789.1800 493.2600Q789.1800 492.3600 789.8100 491.7300Q790.4400 491.1000 791.3400 491.1000L791.3400 491.1000L798.9900 491.1000Q799.9800 491.1000 800.5650 491.7300Q801.1500 492.3600 801.1500 493.2600L801.1500 493.2600L801.1500 513.2400Q803.4000 510.6300 806.7750 508.9650Q810.1500 507.3000 815.0100 507.3000L815.0100 507.3000Q819.7800 507.3000 823.2900 508.9200Q826.8000 510.5400 829.1850 513.4650Q831.5700 516.3900 832.8300 520.2600Q834.0900 524.1300 834.1800 528.6300L834.1800 528.6300Q834.2700 530.2500 834.2700 531.5550Q834.2700 532.8600 834.1800 534.4800L834.1800 534.4800Q834 539.1600 832.7400 543.0750Q831.4800 546.9900 829.1400 549.8700Q826.8000 552.7500 823.2900 554.3250Q819.7800 555.9000 815.0100 555.9000ZM811.6800 546.2700L811.6800 546.2700Q815.5500 546.2700 817.7100 544.6050Q819.8700 542.9400 820.8600 540.2400Q821.8500 537.5400 822.0300 534.3000L822.0300 534.3000Q822.1200 531.6000 822.0300 528.9000L822.0300 528.9000Q821.8500 525.6600 820.8600 522.9600Q819.8700 520.2600 817.7100 518.5950Q815.5500 516.9300 811.6800 516.9300L811.6800 516.9300Q808.0800 516.9300 805.8300 518.5500Q803.5800 520.1700 802.4100 522.6450Q801.2400 525.1200 801.1500 527.8200L801.1500 527.8200Q801.0600 529.4400 801.0600 531.2850Q801.0600 533.1300 801.1500 534.7500L801.1500 534.7500Q801.3300 537.5400 802.3650 540.1950Q803.4000 542.8500 805.6950 544.5600Q807.9900 546.2700 811.6800 546.2700ZM839.9400 572.1000L836.5200 572.1000Q835.6200 572.1000 834.9900 571.4700Q834.3600 570.8400 834.3600 569.9400L834.3600 569.9400L834.3600 564.7200Q834.3600 563.8200 834.9900 563.1900Q835.6200 562.5600 836.5200 562.5600L836.5200 562.5600L838.8600 562.5600Q841.6500 562.5600 843.0000 561.5700Q844.3500 560.5800 844.8000 558.8250Q845.2500 557.0700 845.2500 554.9100L845.2500 554.9100L845.2500 510.3600Q845.2500 509.4600 845.8800 508.8300Q846.5100 508.2000 847.4100 508.2000L847.4100 508.2000L855.2400 508.2000Q856.1400 508.2000 856.7700 508.8300Q857.4000 509.4600 857.4000 510.3600L857.4000 510.3600L857.4000 555.0900Q857.4000 560.4000 855.4650 564.1800Q853.5300 567.9600 849.7050 570.0300Q845.8800 572.1000 839.9400 572.1000L839.9400 572.1000ZM855.5100 500.4600L847.0500 500.4600Q846.0600 500.4600 845.4750 499.8300Q844.8900 499.2000 844.8900 498.3000L844.8900 498.3000L844.8900 491.8200Q844.8900 490.9200 845.4750 490.2900Q846.0600 489.6600 847.0500 489.6600L847.0500 489.6600L855.5100 489.6600Q856.5000 489.6600 857.1300 490.2900Q857.7600 490.9200 857.7600 491.8200L857.7600 491.8200L857.7600 498.3000Q857.7600 499.2000 857.1300 499.8300Q856.5000 500.4600 855.5100 500.4600L855.5100 500.4600ZM889.5300 555.9000L889.5300 555.9000Q879.5400 555.9000 873.6900 550.1400Q867.8400 544.3800 867.3900 533.7600L867.3900 533.7600Q867.3000 532.8600 867.3000 531.4650Q867.3000 530.0700 867.3900 529.2600L867.3900 529.2600Q867.7500 522.4200 870.4950 517.5150Q873.2400 512.6100 878.1000 509.9550Q882.9600 507.3000 889.5300 507.3000L889.5300 507.3000Q896.8200 507.3000 901.7700 510.3150Q906.7200 513.3300 909.2400 518.6850Q911.7600 524.0400 911.7600 531.0600L911.7600 531.0600L911.7600 532.9500Q911.7600 533.8500 911.1300 534.4800Q910.5000 535.1100 909.5100 535.1100L909.5100 535.1100L879.6300 535.1100Q879.6300 535.1100 879.6300 535.3800Q879.6300 535.6500 879.6300 535.8300L879.6300 535.8300Q879.7200 538.9800 880.8450 541.6350Q881.9700 544.2900 884.1750 545.9100Q886.3800 547.5300 889.4400 547.5300L889.4400 547.5300Q891.9600 547.5300 893.6700 546.7650Q895.3800 546 896.4600 545.0100Q897.5400 544.0200 897.9900 543.3900L897.9900 543.3900Q898.8000 542.3100 899.2950 542.0850Q899.7900 541.8600 900.7800 541.8600L900.7800 541.8600L908.5200 541.8600Q909.4200 541.8600 910.0050 542.4000Q910.5900 542.9400 910.5000 543.7500L910.5000 543.7500Q910.4100 545.1900 909.0150 547.2600Q907.6200 549.3300 905.0100 551.3100Q902.4000 553.2900 898.4850 554.5950Q894.5700 555.9000 889.5300 555.9000ZM879.6300 527.2800L879.6300 527.5500L899.5200 527.5500L899.5200 527.2800Q899.5200 523.7700 898.3500 521.1150Q897.1800 518.4600 894.9300 516.9750Q892.6800 515.4900 889.5300 515.4900L889.5300 515.4900Q886.3800 515.4900 884.1300 516.9750Q881.8800 518.4600 880.7550 521.1150Q879.6300 523.7700 879.6300 527.2800L879.6300 527.2800ZM949.7400 555L942.4500 555Q937.0500 555 933.3600 553.1100Q929.6700 551.2200 927.8700 547.4850Q926.0700 543.7500 926.0700 538.1700L926.0700 538.1700L926.0700 517.7400L918.9600 517.7400Q918.0600 517.7400 917.4300 517.1100Q916.8000 516.4800 916.8000 515.4900L916.8000 515.4900L916.8000 510.3600Q916.8000 509.4600 917.4300 508.8300Q918.0600 508.2000 918.9600 508.2000L918.9600 508.2000L926.0700 508.2000L926.0700 493.2600Q926.0700 492.3600 926.6550 491.7300Q927.2400 491.1000 928.2300 491.1000L928.2300 491.1000L935.5200 491.1000Q936.4200 491.1000 937.0500 491.7300Q937.6800 492.3600 937.6800 493.2600L937.6800 493.2600L937.6800 508.2000L948.9300 508.2000Q949.8300 508.2000 950.4600 508.8300Q951.0900 509.4600 951.0900 510.3600L951.0900 510.3600L951.0900 515.4900Q951.0900 516.4800 950.4600 517.1100Q949.8300 517.7400 948.9300 517.7400L948.9300 517.7400L937.6800 517.7400L937.6800 537.2700Q937.6800 540.9600 938.9850 543.0300Q940.2900 545.1000 943.5300 545.1000L943.5300 545.1000L949.7400 545.1000Q950.6400 545.1000 951.2700 545.7300Q951.9000 546.3600 951.9000 547.2600L951.9000 547.2600L951.9000 552.8400Q951.9000 553.7400 951.2700 554.3700Q950.6400 555 949.7400 555L949.7400 555ZM980.6100 555.9000L980.6100 555.9000Q973.4100 555.9000 968.5050 553.3800Q963.6000 550.8600 961.0350 546.2700Q958.4700 541.6800 958.1100 535.5600L958.1100 535.5600Q958.0200 533.9400 958.0200 531.6000Q958.0200 529.2600 958.1100 527.6400L958.1100 527.6400Q958.4700 521.4300 961.1250 516.8850Q963.7800 512.3400 968.6850 509.8200Q973.5900 507.3000 980.6100 507.3000L980.6100 507.3000Q987.6300 507.3000 992.5350 509.8200Q997.4400 512.3400 1000.0950 516.8850Q1002.7500 521.4300 1003.1100 527.6400L1003.1100 527.6400Q1003.2000 529.2600 1003.2000 531.6000Q1003.2000 533.9400 1003.1100 535.5600L1003.1100 535.5600Q1002.7500 541.6800 1000.1850 546.2700Q997.6200 550.8600 992.7150 553.3800Q987.8100 555.9000 980.6100 555.9000ZM980.6100 546.9900L980.6100 546.9900Q985.3800 546.9900 987.9900 543.9750Q990.6000 540.9600 990.8700 535.1100L990.8700 535.1100Q990.9600 533.7600 990.9600 531.6000Q990.9600 529.4400 990.8700 528.0900L990.8700 528.0900Q990.6000 522.2400 987.9900 519.2250Q985.3800 516.2100 980.6100 516.2100L980.6100 516.2100Q975.8400 516.2100 973.2300 519.2250Q970.6200 522.2400 970.3500 528.0900L970.3500 528.0900Q970.2600 529.4400 970.2600 531.6000Q970.2600 533.7600 970.3500 535.1100L970.3500 535.1100Q970.6200 540.9600 973.2300 543.9750Q975.8400 546.9900 980.6100 546.9900ZM1030.9200 555.9000L1030.9200 555.9000Q1025.5200 555.9000 1021.6950 554.6400Q1017.8700 553.3800 1015.4400 551.4900Q1013.0100 549.6000 1011.8400 547.7100Q1010.6700 545.8200 1010.5800 544.5600L1010.5800 544.5600Q1010.4900 543.5700 1011.1650 542.9850Q1011.8400 542.4000 1012.6500 542.4000L1012.6500 542.4000L1019.7600 542.4000Q1020.1200 542.4000 1020.3900 542.4900Q1020.6600 542.5800 1021.1100 543.0300L1021.1100 543.0300Q1022.2800 544.0200 1023.5850 545.1000Q1024.8900 546.1800 1026.6900 546.9450Q1028.4900 547.7100 1031.1900 547.7100L1031.1900 547.7100Q1034.7000 547.7100 1037.0850 546.3150Q1039.4700 544.9200 1039.4700 542.3100L1039.4700 542.3100Q1039.4700 540.4200 1038.4350 539.2500Q1037.4000 538.0800 1034.6100 537.1350Q1031.8200 536.1900 1026.6900 535.1100L1026.6900 535.1100Q1021.6500 533.9400 1018.3200 532.1400Q1014.9900 530.3400 1013.3700 527.6400Q1011.7500 524.9400 1011.7500 521.3400L1011.7500 521.3400Q1011.7500 517.8300 1013.8650 514.6350Q1015.9800 511.4400 1020.1650 509.3700Q1024.3500 507.3000 1030.5600 507.3000L1030.5600 507.3000Q1035.4200 507.3000 1039.0200 508.5150Q1042.6200 509.7300 1045.0050 511.5300Q1047.3900 513.3300 1048.6500 515.1750Q1049.9100 517.0200 1050 518.3700L1050 518.3700Q1050.0900 519.3600 1049.4600 519.9450Q1048.8300 520.5300 1048.0200 520.5300L1048.0200 520.5300L1041.3600 520.5300Q1040.9100 520.5300 1040.5500 520.3500Q1040.1900 520.1700 1039.8300 519.9000L1039.8300 519.9000Q1038.8400 519 1037.6700 517.9650Q1036.5000 516.9300 1034.8350 516.2100Q1033.1700 515.4900 1030.4700 515.4900L1030.4700 515.4900Q1027.0500 515.4900 1025.2500 516.9750Q1023.4500 518.4600 1023.4500 520.7100L1023.4500 520.7100Q1023.4500 522.2400 1024.3050 523.3650Q1025.1600 524.4900 1027.7700 525.4800Q1030.3800 526.4700 1035.6900 527.5500L1035.6900 527.5500Q1041.7200 528.6300 1045.2750 530.7450Q1048.8300 532.8600 1050.3150 535.6050Q1051.8000 538.3500 1051.8000 541.6800L1051.8000 541.6800Q1051.8000 545.7300 1049.4150 548.9700Q1047.0300 552.2100 1042.3950 554.0550Q1037.7600 555.9000 1030.9200 555.9000ZM176.1900 645.9000L176.1900 645.9000Q169.7100 645.9000 164.8050 643.4700Q159.9000 641.0400 157.1550 636.4050Q154.4100 631.7700 154.1400 625.2000L154.1400 625.2000Q154.0500 623.8500 154.0500 621.6450Q154.0500 619.4400 154.1400 618L154.1400 618Q154.4100 611.4300 157.1550 606.7950Q159.9000 602.1600 164.8050 599.7300Q169.7100 597.3000 176.1900 597.3000L176.1900 597.3000Q181.9500 597.3000 186 598.8750Q190.0500 600.4500 192.6600 602.9250Q195.2700 605.4000 196.5750 608.0550Q197.8800 610.7100 197.9700 612.8700L197.9700 612.8700Q198.0600 613.8600 197.3850 614.4450Q196.7100 615.0300 195.8100 615.0300L195.8100 615.0300L187.8900 615.0300Q186.9900 615.0300 186.4950 614.5800Q186 614.1300 185.5500 613.2300L185.5500 613.2300Q184.2000 609.6300 181.9950 608.1450Q179.7900 606.6600 176.3700 606.6600L176.3700 606.6600Q171.8700 606.6600 169.2150 609.4950Q166.5600 612.3300 166.3800 618.4500L166.3800 618.4500Q166.2000 621.8700 166.3800 624.7500L166.3800 624.7500Q166.5600 630.9600 169.2150 633.7500Q171.8700 636.5400 176.3700 636.5400L176.3700 636.5400Q179.8800 636.5400 182.0400 635.0550Q184.2000 633.5700 185.5500 629.9700L185.5500 629.9700Q186 629.0700 186.4950 628.6200Q186.9900 628.1700 187.8900 628.1700L187.8900 628.1700L195.8100 628.1700Q196.7100 628.1700 197.3850 628.7550Q198.0600 629.3400 197.9700 630.3300L197.9700 630.3300Q197.8800 631.9500 197.1150 633.9750Q196.3500 636 194.6850 638.1150Q193.0200 640.2300 190.5000 641.9850Q187.9800 643.7400 184.4250 644.8200Q180.8700 645.9000 176.1900 645.9000ZM228.0300 645.9000L228.0300 645.9000Q220.8300 645.9000 215.9250 643.3800Q211.0200 640.8600 208.4550 636.2700Q205.8900 631.6800 205.5300 625.5600L205.5300 625.5600Q205.4400 623.9400 205.4400 621.6000Q205.4400 619.2600 205.5300 617.6400L205.5300 617.6400Q205.8900 611.4300 208.5450 606.8850Q211.2000 602.3400 216.1050 599.8200Q221.0100 597.3000 228.0300 597.3000L228.0300 597.3000Q235.0500 597.3000 239.9550 599.8200Q244.8600 602.3400 247.5150 606.8850Q250.1700 611.4300 250.5300 617.6400L250.5300 617.6400Q250.6200 619.2600 250.6200 621.6000Q250.6200 623.9400 250.5300 625.5600L250.5300 625.5600Q250.1700 631.6800 247.6050 636.2700Q245.0400 640.8600 240.1350 643.3800Q235.2300 645.9000 228.0300 645.9000ZM228.0300 636.9900L228.0300 636.9900Q232.8000 636.9900 235.4100 633.9750Q238.0200 630.9600 238.2900 625.1100L238.2900 625.1100Q238.3800 623.7600 238.3800 621.6000Q238.3800 619.4400 238.2900 618.0900L238.2900 618.0900Q238.0200 612.2400 235.4100 609.2250Q232.8000 606.2100 228.0300 606.2100L228.0300 606.2100Q223.2600 606.2100 220.6500 609.2250Q218.0400 612.2400 217.7700 618.0900L217.7700 618.0900Q217.6800 619.4400 217.6800 621.6000Q217.6800 623.7600 217.7700 625.1100L217.7700 625.1100Q218.0400 630.9600 220.6500 633.9750Q223.2600 636.9900 228.0300 636.9900ZM270.3300 645L262.7700 645Q261.8700 645 261.2400 644.3700Q260.6100 643.7400 260.6100 642.8400L260.6100 642.8400L260.6100 600.3600Q260.6100 599.4600 261.2400 598.8300Q261.8700 598.2000 262.7700 598.2000L262.7700 598.2000L269.7900 598.2000Q270.6900 598.2000 271.3200 598.8300Q271.9500 599.4600 271.9500 600.3600L271.9500 600.3600L271.9500 603.4200Q273.8400 600.9000 277.0350 599.1450Q280.2300 597.3900 284.6400 597.3000L284.6400 597.3000Q294.9000 597.1200 298.9500 605.3100L298.9500 605.3100Q301.0200 601.7100 304.9350 599.5050Q308.8500 597.3000 313.6200 597.3000L313.6200 597.3000Q318.3000 597.3000 322.1250 599.4600Q325.9500 601.6200 328.1550 605.9850Q330.3600 610.3500 330.3600 617.0100L330.3600 617.0100L330.3600 642.8400Q330.3600 643.7400 329.7300 644.3700Q329.1000 645 328.2000 645L328.2000 645L320.8200 645Q319.9200 645 319.2900 644.3700Q318.6600 643.7400 318.6600 642.8400L318.6600 642.8400L318.6600 617.7300Q318.6600 613.6800 317.4900 611.2950Q316.3200 608.9100 314.3400 607.9200Q312.3600 606.9300 309.9300 606.9300L309.9300 606.9300Q307.9500 606.9300 305.9700 607.9200Q303.9900 608.9100 302.7300 611.2950Q301.4700 613.6800 301.4700 617.7300L301.4700 617.7300L301.4700 642.8400Q301.4700 643.7400 300.8400 644.3700Q300.2100 645 299.3100 645L299.3100 645L291.9300 645Q291.0300 645 290.4000 644.3700Q289.7700 643.7400 289.7700 642.8400L289.7700 642.8400L289.7700 617.7300Q289.7700 613.6800 288.5100 611.2950Q287.2500 608.9100 285.2700 607.9200Q283.2900 606.9300 281.0400 606.9300L281.0400 606.9300Q278.9700 606.9300 276.9900 607.9650Q275.0100 609 273.7500 611.3400Q272.4900 613.6800 272.4900 617.7300L272.4900 617.7300L272.4900 642.8400Q272.4900 643.7400 271.8600 644.3700Q271.2300 645 270.3300 645L270.3300 645ZM383.8200 645.9000L383.8200 645.9000Q378.9600 645.9000 374.5950 644.6850Q370.2300 643.4700 366.8100 640.9500Q363.3900 638.4300 361.3650 634.7400Q359.3400 631.0500 359.2500 626.0100L359.2500 626.0100Q359.2500 625.2000 359.7900 624.6150Q360.3300 624.0300 361.1400 624.0300L361.1400 624.0300L369.6900 624.0300Q370.8600 624.0300 371.4450 624.6600Q372.0300 625.2900 372.3900 626.3700L372.3900 626.3700Q372.8400 629.6100 374.4600 631.6350Q376.0800 633.6600 378.5550 634.6050Q381.0300 635.5500 384.0900 635.5500L384.0900 635.5500Q389.7600 635.5500 392.7750 631.8600Q395.7900 628.1700 395.7900 621.6000L395.7900 621.6000L395.7900 592.6200L365.2800 592.6200Q364.2900 592.6200 363.7050 591.9900Q363.1200 591.3600 363.1200 590.4600L363.1200 590.4600L363.1200 584.1600Q363.1200 583.2600 363.7050 582.6300Q364.2900 582 365.2800 582L365.2800 582L406.4100 582Q407.4000 582 408.0300 582.6300Q408.6600 583.2600 408.6600 584.2500L408.6600 584.2500L408.6600 621.9600Q408.6600 629.4300 405.5550 634.8300Q402.4500 640.2300 396.9150 643.0650Q391.3800 645.9000 383.8200 645.9000ZM434.6700 645.9000L434.6700 645.9000Q429.9900 645.9000 426.2100 644.0550Q422.4300 642.2100 420.2250 639.1050Q418.0200 636 418.0200 632.1300L418.0200 632.1300Q418.0200 625.8300 423.1500 622.0950Q428.2800 618.3600 436.5600 617.1000L436.5600 617.1000L448.8900 615.3000L448.8900 613.4100Q448.8900 609.6300 447 607.5600Q445.1100 605.4900 440.5200 605.4900L440.5200 605.4900Q437.2800 605.4900 435.2550 606.7950Q433.2300 608.1000 432.2400 610.2600L432.2400 610.2600Q431.5200 611.4300 430.1700 611.4300L430.1700 611.4300L423.0600 611.4300Q422.0700 611.4300 421.5750 610.8900Q421.0800 610.3500 421.0800 609.4500L421.0800 609.4500Q421.1700 608.0100 422.2950 605.9400Q423.4200 603.8700 425.7150 601.9350Q428.0100 600 431.7000 598.6500Q435.3900 597.3000 440.6100 597.3000L440.6100 597.3000Q446.2800 597.3000 450.1950 598.6950Q454.1100 600.0900 456.4500 602.4300Q458.7900 604.7700 459.8700 607.9200Q460.9500 611.0700 460.9500 614.5800L460.9500 614.5800L460.9500 642.8400Q460.9500 643.7400 460.3200 644.3700Q459.6900 645 458.7900 645L458.7900 645L451.5000 645Q450.5100 645 449.9250 644.3700Q449.3400 643.7400 449.3400 642.8400L449.3400 642.8400L449.3400 639.3300Q448.1700 640.9500 446.1900 642.4800Q444.2100 644.0100 441.3750 644.9550Q438.5400 645.9000 434.6700 645.9000ZM437.7300 637.3500L437.7300 637.3500Q440.8800 637.3500 443.4450 636Q446.0100 634.6500 447.4950 631.8150Q448.9800 628.9800 448.9800 624.6600L448.9800 624.6600L448.9800 622.7700L439.9800 624.2100Q434.6700 625.0200 432.0600 626.8200Q429.4500 628.6200 429.4500 631.2300L429.4500 631.2300Q429.4500 633.2100 430.6650 634.6050Q431.8800 636 433.7700 636.6750Q435.6600 637.3500 437.7300 637.3500ZM495.6900 645L489.0300 645Q487.5900 645 486.9150 644.3250Q486.2400 643.6500 485.7900 642.7500L485.7900 642.7500L468.9600 600.9900Q468.7800 600.5400 468.7800 600.1800L468.7800 600.1800Q468.7800 599.3700 469.3650 598.7850Q469.9500 598.2000 470.7600 598.2000L470.7600 598.2000L478.0500 598.2000Q479.1300 598.2000 479.6700 598.7850Q480.2100 599.3700 480.3900 599.9100L480.3900 599.9100L492.3600 631.5000L504.3300 599.9100Q504.5100 599.3700 505.0500 598.7850Q505.5900 598.2000 506.6700 598.2000L506.6700 598.2000L514.0500 598.2000Q514.7700 598.2000 515.3550 598.7850Q515.9400 599.3700 515.9400 600.1800L515.9400 600.1800Q515.9400 600.5400 515.8500 600.9900L515.8500 600.9900L498.9300 642.7500Q498.5700 643.6500 497.8500 644.3250Q497.1300 645 495.6900 645L495.6900 645ZM537.7200 645.9000L537.7200 645.9000Q533.0400 645.9000 529.2600 644.0550Q525.4800 642.2100 523.2750 639.1050Q521.0700 636 521.0700 632.1300L521.0700 632.1300Q521.0700 625.8300 526.2000 622.0950Q531.3300 618.3600 539.6100 617.1000L539.6100 617.1000L551.9400 615.3000L551.9400 613.4100Q551.9400 609.6300 550.0500 607.5600Q548.1600 605.4900 543.5700 605.4900L543.5700 605.4900Q540.3300 605.4900 538.3050 606.7950Q536.2800 608.1000 535.2900 610.2600L535.2900 610.2600Q534.5700 611.4300 533.2200 611.4300L533.2200 611.4300L526.1100 611.4300Q525.1200 611.4300 524.6250 610.8900Q524.1300 610.3500 524.1300 609.4500L524.1300 609.4500Q524.2200 608.0100 525.3450 605.9400Q526.4700 603.8700 528.7650 601.9350Q531.0600 600 534.7500 598.6500Q538.4400 597.3000 543.6600 597.3000L543.6600 597.3000Q549.3300 597.3000 553.2450 598.6950Q557.1600 600.0900 559.5000 602.4300Q561.8400 604.7700 562.9200 607.9200Q564.0000 611.0700 564.0000 614.5800L564.0000 614.5800L564.0000 642.8400Q564.0000 643.7400 563.3700 644.3700Q562.7400 645 561.8400 645L561.8400 645L554.5500 645Q553.5600 645 552.9750 644.3700Q552.3900 643.7400 552.3900 642.8400L552.3900 642.8400L552.3900 639.3300Q551.2200 640.9500 549.2400 642.4800Q547.2600 644.0100 544.4250 644.9550Q541.5900 645.9000 537.7200 645.9000ZM540.7800 637.3500L540.7800 637.3500Q543.9300 637.3500 546.4950 636Q549.0600 634.6500 550.5450 631.8150Q552.0300 628.9800 552.0300 624.6600L552.0300 624.6600L552.0300 622.7700L543.0300 624.2100Q537.7200 625.0200 535.1100 626.8200Q532.5000 628.6200 532.5000 631.2300L532.5000 631.2300Q532.5000 633.2100 533.7150 634.6050Q534.9300 636 536.8200 636.6750Q538.7100 637.3500 540.7800 637.3500ZM598.4700 645.9000L598.4700 645.9000Q590.1000 645.9000 584.4750 643.4250Q578.8500 640.9500 575.9250 636.9450Q573.0000 632.9400 572.8200 628.5300L572.8200 628.5300Q572.8200 627.7200 573.3600 627.1800Q573.9000 626.6400 574.7100 626.6400L574.7100 626.6400L582.7200 626.6400Q583.8900 626.6400 584.4750 627.1350Q585.0600 627.6300 585.5100 628.3500L585.5100 628.3500Q586.0500 630.0600 587.5800 631.7250Q589.1100 633.3900 591.7650 634.4700Q594.4200 635.5500 598.4700 635.5500L598.4700 635.5500Q604.9500 635.5500 608.1450 633.3900Q611.3400 631.2300 611.3400 627.5400L611.3400 627.5400Q611.3400 624.9300 609.6300 623.3550Q607.9200 621.7800 604.3650 620.4750Q600.8100 619.1700 594.9600 617.7300L594.9600 617.7300Q588.2100 616.1100 583.6650 613.8150Q579.1200 611.5200 576.8250 608.0100Q574.5300 604.5000 574.5300 599.1000L574.5300 599.1000Q574.5300 593.8800 577.3650 589.8300Q580.2000 585.7800 585.4650 583.4400Q590.7300 581.1000 598.0200 581.1000L598.0200 581.1000Q603.8700 581.1000 608.3700 582.6750Q612.8700 584.2500 615.8400 586.8150Q618.8100 589.3800 620.3850 592.3050Q621.9600 595.2300 622.0500 598.0200L622.0500 598.0200Q622.0500 598.7400 621.5550 599.3250Q621.0600 599.9100 620.1600 599.9100L620.1600 599.9100L611.7900 599.9100Q611.0700 599.9100 610.3500 599.5500Q609.6300 599.1900 609.1800 598.2000L609.1800 598.2000Q608.6400 595.4100 605.6700 593.4300Q602.7000 591.4500 598.0200 591.4500L598.0200 591.4500Q593.1600 591.4500 590.1900 593.2500Q587.2200 595.0500 587.2200 598.8300L587.2200 598.8300Q587.2200 601.3500 588.7050 603.0150Q590.1900 604.6800 593.4750 605.9400Q596.7600 607.2000 602.1600 608.6400L602.1600 608.6400Q609.8100 610.3500 614.6700 612.6000Q619.5300 614.8500 621.7800 618.3150Q624.0300 621.7800 624.0300 627.0900L624.0300 627.0900Q624.0300 633.0300 620.8350 637.2150Q617.6400 641.4000 611.8800 643.6500Q606.1200 645.9000 598.4700 645.9000ZM653.5500 645.9000L653.5500 645.9000Q647.0700 645.9000 642.1650 643.4700Q637.2600 641.0400 634.5150 636.4050Q631.7700 631.7700 631.5000 625.2000L631.5000 625.2000Q631.4100 623.8500 631.4100 621.6450Q631.4100 619.4400 631.5000 618L631.5000 618Q631.7700 611.4300 634.5150 606.7950Q637.2600 602.1600 642.1650 599.7300Q647.0700 597.3000 653.5500 597.3000L653.5500 597.3000Q659.3100 597.3000 663.3600 598.8750Q667.4100 600.4500 670.0200 602.9250Q672.6300 605.4000 673.9350 608.0550Q675.2400 610.7100 675.3300 612.8700L675.3300 612.8700Q675.4200 613.8600 674.7450 614.4450Q674.0700 615.0300 673.1700 615.0300L673.1700 615.0300L665.2500 615.0300Q664.3500 615.0300 663.8550 614.5800Q663.3600 614.1300 662.9100 613.2300L662.9100 613.2300Q661.5600 609.6300 659.3550 608.1450Q657.1500 606.6600 653.7300 606.6600L653.7300 606.6600Q649.2300 606.6600 646.5750 609.4950Q643.9200 612.3300 643.7400 618.4500L643.7400 618.4500Q643.5600 621.8700 643.7400 624.7500L643.7400 624.7500Q643.9200 630.9600 646.5750 633.7500Q649.2300 636.5400 653.7300 636.5400L653.7300 636.5400Q657.2400 636.5400 659.4000 635.0550Q661.5600 633.5700 662.9100 629.9700L662.9100 629.9700Q663.3600 629.0700 663.8550 628.6200Q664.3500 628.1700 665.2500 628.1700L665.2500 628.1700L673.1700 628.1700Q674.0700 628.1700 674.7450 628.7550Q675.4200 629.3400 675.3300 630.3300L675.3300 630.3300Q675.2400 631.9500 674.4750 633.9750Q673.7100 636 672.0450 638.1150Q670.3800 640.2300 667.8600 641.9850Q665.3400 643.7400 661.7850 644.8200Q658.2300 645.9000 653.5500 645.9000ZM694.6800 645L686.8500 645Q685.9500 645 685.3200 644.3700Q684.6900 643.7400 684.6900 642.8400L684.6900 642.8400L684.6900 600.4500Q684.6900 599.4600 685.3200 598.8300Q685.9500 598.2000 686.8500 598.2000L686.8500 598.2000L694.1400 598.2000Q695.0400 598.2000 695.7150 598.8300Q696.3900 599.4600 696.3900 600.4500L696.3900 600.4500L696.3900 604.1400Q698.4600 601.2600 701.7450 599.7300Q705.0300 598.2000 709.3500 598.2000L709.3500 598.2000L713.0400 598.2000Q714.0300 598.2000 714.6150 598.8300Q715.2000 599.4600 715.2000 600.3600L715.2000 600.3600L715.2000 606.8400Q715.2000 607.7400 714.6150 608.3700Q714.0300 609 713.0400 609L713.0400 609L706.0200 609Q701.7000 609 699.3150 611.3850Q696.9300 613.7700 696.9300 618.0900L696.9300 618.0900L696.9300 642.8400Q696.9300 643.7400 696.3000 644.3700Q695.6700 645 694.6800 645L694.6800 645ZM731.8500 645L724.3800 645Q723.4800 645 722.8500 644.3700Q722.2200 643.7400 722.2200 642.8400L722.2200 642.8400L722.2200 600.3600Q722.2200 599.4600 722.8500 598.8300Q723.4800 598.2000 724.3800 598.2000L724.3800 598.2000L731.8500 598.2000Q732.8400 598.2000 733.4250 598.8300Q734.0100 599.4600 734.0100 600.3600L734.0100 600.3600L734.0100 642.8400Q734.0100 643.7400 733.4250 644.3700Q732.8400 645 731.8500 645L731.8500 645ZM732.2100 590.4600L724.0200 590.4600Q723.1200 590.4600 722.4900 589.8300Q721.8600 589.2000 721.8600 588.3000L721.8600 588.3000L721.8600 581.8200Q721.8600 580.9200 722.4900 580.2900Q723.1200 579.6600 724.0200 579.6600L724.0200 579.6600L732.2100 579.6600Q733.2000 579.6600 733.8300 580.2900Q734.4600 580.9200 734.4600 581.8200L734.4600 581.8200L734.4600 588.3000Q734.4600 589.2000 733.8300 589.8300Q733.2000 590.4600 732.2100 590.4600L732.2100 590.4600ZM755.8800 662.1000L748.2300 662.1000Q747.3300 662.1000 746.7000 661.4700Q746.0700 660.8400 746.0700 659.9400L746.0700 659.9400L746.0700 600.3600Q746.0700 599.4600 746.7000 598.8300Q747.3300 598.2000 748.2300 598.2000L748.2300 598.2000L755.3400 598.2000Q756.3300 598.2000 756.9150 598.8300Q757.5000 599.4600 757.5000 600.3600L757.5000 600.3600L757.5000 603.9600Q759.6600 601.0800 763.1700 599.1900Q766.6800 597.3000 771.9000 597.3000L771.9000 597.3000Q776.6700 597.3000 780.1800 598.8300Q783.6900 600.3600 786.0300 603.1950Q788.3700 606.0300 789.6300 609.9000Q790.8900 613.7700 791.0700 618.4500L791.0700 618.4500Q791.1600 619.9800 791.1600 621.6000Q791.1600 623.2200 791.0700 624.8400L791.0700 624.8400Q790.9800 629.3400 789.7200 633.1650Q788.4600 636.9900 786.0750 639.8250Q783.6900 642.6600 780.1800 644.2800Q776.6700 645.9000 771.9000 645.9000L771.9000 645.9000Q767.0400 645.9000 763.6200 644.1450Q760.2000 642.3900 758.0400 639.5100L758.0400 639.5100L758.0400 659.9400Q758.0400 660.8400 757.4550 661.4700Q756.8700 662.1000 755.8800 662.1000L755.8800 662.1000ZM768.5700 636.2700L768.5700 636.2700Q772.4400 636.2700 774.6000 634.6050Q776.7600 632.9400 777.7500 630.2400Q778.7400 627.5400 778.9200 624.3000L778.9200 624.3000Q779.0100 621.6000 778.9200 618.9000L778.9200 618.9000Q778.7400 615.6600 777.7500 612.9600Q776.7600 610.2600 774.6000 608.5950Q772.4400 606.9300 768.5700 606.9300L768.5700 606.9300Q764.8800 606.9300 762.5850 608.6400Q760.2900 610.3500 759.2550 613.0050Q758.2200 615.6600 758.0400 618.4500L758.0400 618.4500Q757.9500 620.0700 757.9500 621.8700Q757.9500 623.6700 758.0400 625.3800L758.0400 625.3800Q758.1300 628.0800 759.3000 630.5550Q760.4700 633.0300 762.7200 634.6500Q764.9700 636.2700 768.5700 636.2700ZM829.6800 645L822.3900 645Q816.9900 645 813.3000 643.1100Q809.6100 641.2200 807.8100 637.4850Q806.0100 633.7500 806.0100 628.1700L806.0100 628.1700L806.0100 607.7400L798.9000 607.7400Q798.0000 607.7400 797.3700 607.1100Q796.7400 606.4800 796.7400 605.4900L796.7400 605.4900L796.7400 600.3600Q796.7400 599.4600 797.3700 598.8300Q798.0000 598.2000 798.9000 598.2000L798.9000 598.2000L806.0100 598.2000L806.0100 583.2600Q806.0100 582.3600 806.5950 581.7300Q807.1800 581.1000 808.1700 581.1000L808.1700 581.1000L815.4600 581.1000Q816.3600 581.1000 816.9900 581.7300Q817.6200 582.3600 817.6200 583.2600L817.6200 583.2600L817.6200 598.2000L828.8700 598.2000Q829.7700 598.2000 830.4000 598.8300Q831.0300 599.4600 831.0300 600.3600L831.0300 600.3600L831.0300 605.4900Q831.0300 606.4800 830.4000 607.1100Q829.7700 607.7400 828.8700 607.7400L828.8700 607.7400L817.6200 607.7400L817.6200 627.2700Q817.6200 630.9600 818.9250 633.0300Q820.2300 635.1000 823.4700 635.1000L823.4700 635.1000L829.6800 635.1000Q830.5800 635.1000 831.2100 635.7300Q831.8400 636.3600 831.8400 637.2600L831.8400 637.2600L831.8400 642.8400Q831.8400 643.7400 831.2100 644.3700Q830.5800 645 829.6800 645L829.6800 645Z" id="title"/><path d="M1448.3400 640L1343.1800 640Q1340.9800 640 1339.4400 638.4600Q1337.9000 636.9200 1337.9000 634.7200L1337.9000 634.7200L1337.9000 623.5000Q1337.9000 621.5200 1338.8900 618.7700Q1339.8800 616.0200 1343.4000 613.1600L1343.4000 613.1600L1378.1600 578.6200Q1392.6800 567.1800 1401.5900 559.1500Q1410.5000 551.1200 1414.5700 544.4100Q1418.6400 537.7000 1418.6400 531.1000L1418.6400 531.1000Q1418.6400 521.2000 1413.2500 515.0400Q1407.8600 508.8800 1396.2000 508.8800L1396.2000 508.8800Q1388.5000 508.8800 1383.2200 512.0700Q1377.9400 515.2600 1374.9700 520.5400Q1372 525.8200 1370.9000 532.2000L1370.9000 532.2000Q1370.4600 535.0600 1368.4800 536.1600Q1366.5000 537.2600 1364.5200 537.2600L1364.5200 537.2600L1344.9400 537.2600Q1342.9600 537.2600 1341.6400 535.9400Q1340.3200 534.6200 1340.3200 532.8600L1340.3200 532.8600Q1340.5400 523.4000 1344.2800 514.4900Q1348.0200 505.5800 1355.1700 498.6500Q1362.3200 491.7200 1372.6600 487.5400Q1383 483.3600 1395.9800 483.3600L1395.9800 483.3600Q1414.2400 483.3600 1426.2300 489.5200Q1438.2200 495.6800 1444.2700 506.2400Q1450.3200 516.8000 1450.3200 530L1450.3200 530Q1450.3200 540.3400 1446.3600 549.0300Q1442.4000 557.7200 1434.9200 565.7500Q1427.4400 573.7800 1416.8800 582.1400L1416.8800 582.1400L1385.6400 613.8200L1448.3400 613.8200Q1450.7600 613.8200 1452.1900 615.2500Q1453.6200 616.6800 1453.6200 619.1000L1453.6200 619.1000L1453.6200 634.7200Q1453.6200 636.9200 1452.1900 638.4600Q1450.7600 640 1448.3400 640L1448.3400 640ZM1568.6800 640L1549.5400 640Q1547.3400 640 1545.8000 638.4600Q1544.2600 636.9200 1544.2600 634.7200L1544.2600 634.7200L1544.2600 606.5600L1474.5200 606.5600Q1472.1000 606.5600 1470.6700 605.0200Q1469.2400 603.4800 1469.2400 601.2800L1469.2400 601.2800L1469.2400 586.3200Q1469.2400 585 1469.7900 583.1300Q1470.3400 581.2600 1471.6600 579.7200L1471.6600 579.7200L1536.5600 489.7400Q1539.4200 486 1544.7000 486L1544.7000 486L1568.6800 486Q1570.8800 486 1572.4200 487.5400Q1573.9600 489.0800 1573.9600 491.2800L1573.9600 491.2800L1573.9600 580.6000L1593.5400 580.6000Q1596.1800 580.6000 1597.6100 582.0300Q1599.0400 583.4600 1599.0400 585.8800L1599.0400 585.8800L1599.0400 601.2800Q1599.0400 603.4800 1597.5000 605.0200Q1595.9600 606.5600 1593.7600 606.5600L1593.7600 606.5600L1573.9600 606.5600L1573.9600 634.7200Q1573.9600 636.9200 1572.4200 638.4600Q1570.8800 640 1568.6800 640L1568.6800 640ZM1544.9200 517.9000L1499.8200 581.4800L1544.9200 581.4800L1544.9200 517.9000ZM1644.1400 640L1622.1400 640Q1619.9400 640 1618.4000 638.4600Q1616.8600 636.9200 1616.8600 634.7200L1616.8600 634.7200L1616.8600 612.9400Q1616.8600 610.5200 1618.4000 608.9800Q1619.9400 607.4400 1622.1400 607.4400L1622.1400 607.4400L1644.1400 607.4400Q1646.3400 607.4400 1647.8800 608.9800Q1649.4200 610.5200 1649.4200 612.9400L1649.4200 612.9400L1649.4200 634.7200Q1649.4200 636.9200 1647.8800 638.4600Q1646.3400 640 1644.1400 640L1644.1400 640ZM1729.9400 642.4200L1729.9400 642.4200Q1711.0200 642.4200 1698.0400 636.1500Q1685.0600 629.8800 1678.3500 619.7600Q1671.6400 609.6400 1671.2000 598.2000L1671.2000 598.2000Q1670.9800 596.2200 1672.4100 595.0100Q1673.8400 593.8000 1675.8200 593.8000L1675.8200 593.8000L1696.2800 593.8000Q1698.7000 593.8000 1700.3500 594.7900Q1702.0000 595.7800 1702.8800 598.2000L1702.8800 598.2000Q1705.0800 604.8000 1709.1500 608.9800Q1713.2200 613.1600 1718.6100 615.1400Q1724.0000 617.1200 1729.9400 617.1200L1729.9400 617.1200Q1737.8600 617.1200 1744.3500 613.9300Q1750.8400 610.7400 1754.8000 604.3600Q1758.7600 597.9800 1758.7600 588.7400L1758.7600 588.7400Q1758.7600 580.6000 1755.0200 574.6600Q1751.2800 568.7200 1744.7900 565.3100Q1738.3000 561.9000 1729.9400 561.9000L1729.9400 561.9000Q1723.7800 561.9000 1719.8200 563.4400Q1715.8600 564.9800 1713.1100 566.9600Q1710.3600 568.9400 1708.2700 570.4800Q1706.1800 572.0200 1703.5400 572.0200L1703.5400 572.0200L1683.3000 572.0200Q1681.3200 572.0200 1679.8900 570.5900Q1678.4600 569.1600 1678.4600 567.1800L1678.4600 567.1800L1686.1600 491.9400Q1686.3800 489.0800 1688.1400 487.5400Q1689.9000 486 1692.3200 486L1692.3200 486L1775.0400 486Q1777.2400 486 1778.7800 487.5400Q1780.3200 489.0800 1780.3200 491.2800L1780.3200 491.2800L1780.3200 506.0200Q1780.3200 508.2200 1778.7800 509.7600Q1777.2400 511.3000 1775.0400 511.3000L1775.0400 511.3000L1711.4600 511.3000L1707.9400 547.1600Q1711.9000 544.5200 1718.5000 542.1000Q1725.1000 539.6800 1736.7600 539.6800L1736.7600 539.6800Q1747.3200 539.6800 1756.8900 543.0900Q1766.4600 546.5000 1773.9400 552.9900Q1781.4200 559.4800 1785.7100 568.6100Q1790 577.7400 1790 589.4000L1790 589.4000Q1790 605.4600 1782.5200 617.3400Q1775.0400 629.2200 1761.6200 635.8200Q1748.2000 642.4200 1729.9400 642.4200Z" id="lecture-full-number"/></g></svg>