<svg xmlns="http://www.w3.org/2000/svg" version="1.1" xmlns:xlink="http://www.w3.org/1999/xlink" xmlns:svgjs="http://svgjs.dev/svgjs" viewBox="0 0 1920 1080" id="952ae9ce-b6dc-4552-8a0f-ebdea95de71e"><g><rect width="1920" height="1080" fill="#a53860"/></g><g fill="#288da6"><path d="M745.478 668.096L1087.28 1009.97L1200.88 896.347L859.076 554.473L745.478 668.096Z"/><path d="M858.951 554.294L517.152 896.168L630.75 1009.79L972.549 667.917L858.951 554.294Z"/><path d="M289.239 668.391L631.038 1010.27L744.636 896.643L402.837 554.769L289.239 668.391Z"/><path d="M402.706 554L60.907 895.874L174.505 1009.5L516.304 667.623L402.706 554Z"/><path d="M-166 667.682L175.799 1009.56L289.397 895.933L-52.4021 554.059L-166 667.682Z"/></g><g fill="#ffffff" opacity="0.2"><path d="M1134 160C1540.91 160 1872 491.086 1872 898C1872 1304.91 1540.91 1636 1134 1636C727.086 1635.56 396 1304.91 396 898C396 491.086 727.086 160 1134 160ZM1134 1611.31C1527.25 1611.31 1847.31 1291.25 1847.31 898C1847.31 504.753 1527.25 184.247 1134 184.247C740.753 184.247 420.247 504.312 420.247 898C420.247 1291.69 740.312 1611.31 1134 1611.31Z"/><path d="M1134 251.699C1490.22 251.699 1780.3 541.785 1780.3 898C1780.3 1254.22 1490.22 1544.3 1134 1544.3C777.785 1544.3 487.699 1254.22 487.699 898C487.699 541.785 777.344 251.699 1134 251.699ZM1134 1519.61C1476.99 1519.61 1756.05 1240.55 1756.05 897.559C1756.05 554.57 1476.99 275.947 1134 275.947C791.011 275.947 511.946 555.011 511.946 898C511.946 1240.99 791.011 1519.61 1134 1519.61Z"/><path d="M1134 342.957C1439.96 342.957 1688.6 592.043 1688.6 897.559C1688.6 1203.52 1439.52 1452.16 1134 1452.16C828.043 1452.16 579.398 1203.08 579.398 897.559C578.957 592.043 828.043 342.957 1134 342.957ZM1134 1428.35C1426.29 1428.35 1664.35 1190.29 1664.35 898C1664.35 605.71 1426.29 367.645 1134 367.645C841.71 367.645 603.645 605.71 603.645 898C603.645 1190.29 841.269 1428.35 1134 1428.35Z"/><path d="M1134 434.656C1389.26 434.656 1597.34 642.301 1597.34 898C1597.34 1153.7 1389.7 1361.34 1134 1361.34C878.742 1361.34 670.656 1153.7 670.656 898C670.656 642.301 878.301 434.656 1134 434.656ZM1134 1336.66C1376.03 1336.66 1572.66 1139.59 1572.66 898C1572.66 656.408 1375.59 459.344 1134 459.344C891.968 459.344 695.344 656.408 695.344 898C695.344 1139.59 891.968 1336.66 1134 1336.66Z"/><path d="M1134 526.354C1339 526.354 1505.65 693 1505.65 898C1505.65 1103 1339 1269.64 1134 1269.64C929 1269.64 762.355 1103 762.355 898C762.355 693 929 526.354 1134 526.354ZM1134 1244.96C1325.33 1244.96 1481.4 1089.33 1481.4 897.559C1481.4 706.225 1325.77 550.161 1134 550.161C942.667 550.161 786.602 705.785 786.602 897.559C786.602 1089.33 942.226 1244.96 1134 1244.96Z"/><path d="M1134 617.613C1288.3 617.613 1414.39 743.258 1414.39 898C1414.39 1052.74 1288.74 1178.39 1134 1178.39C979.699 1178.39 853.613 1052.74 853.613 898C853.613 743.258 979.258 617.613 1134 617.613ZM1134 1153.7C1275.08 1153.7 1389.7 1039.08 1389.7 898C1389.7 756.925 1275.08 642.301 1134 642.301C992.925 642.301 878.301 756.925 878.301 898C878.301 1039.08 992.925 1153.7 1134 1153.7Z"/><path d="M1134 709.312C1238.04 709.312 1322.69 793.957 1322.69 898C1322.69 1002.04 1238.04 1086.69 1134 1086.69C1029.96 1086.69 945.312 1002.04 945.312 898C945.312 793.957 1029.96 709.312 1134 709.312ZM1134 1062C1224.38 1062 1298.44 988.377 1298.44 897.559C1298.44 807.183 1224.82 733.118 1134 733.118C1043.62 733.118 969.559 806.742 969.559 897.559C969.559 988.377 1043.18 1062 1134 1062Z"/><path d="M1134 800.57C1187.34 800.57 1230.99 844.215 1230.99 897.56C1230.99 950.904 1187.34 994.549 1134 994.549C1080.66 994.549 1037.01 950.904 1037.01 897.56C1036.57 844.215 1080.22 800.57 1134 800.57ZM1134 970.742C1174.12 970.742 1206.74 938.119 1206.74 898C1206.74 857.882 1174.12 825.258 1134 825.258C1093.88 825.258 1061.26 857.882 1061.26 898C1061.26 938.119 1093.88 970.742 1134 970.742Z"/></g><g><path d="M178.635 139.281L184.422 144.246V166.626H215.704L219.958 172.147L215.69 177.397H184.422V198.795L178.635 203.747L173 198.795V144.232L178.635 139.281ZM195.554 195.68H219.406L223.397 200.915L219.143 206.45H195.554L191.7 201.342L195.554 195.68ZM196.382 138H219.129L223.383 143.52L219.129 148.77H196.659L192.115 143.677L196.382 138ZM323.155 148.628L328.251 154.291L323.155 159.968H246.13L241.172 154.291L246.13 148.628H323.155ZM237.043 172.147L241.849 167.893L246.669 172.147V178.393C246.669 188.879 249.417 197.515 261.668 197.515H264.14C275.147 197.515 281.197 189.86 281.197 177.952V172.005L285.879 167.75L290.699 171.862V178.379C290.699 189.007 293.723 196.946 305.56 196.946H307.618C319.178 196.946 321.235 187.869 321.373 177.952V171.578L326.056 167.608L331 171.72V178.094C330.862 191.838 327.285 207.574 308.032 207.574H305.974C294.552 207.574 288.365 202.324 285.892 195.808C283.006 202.466 275.299 208.286 264.844 208.286H262.358C242.553 208.286 237.194 195.964 237.056 178.663V172.147H237.043ZM276.391 274.744L273.642 267.089L280.796 264.969L305.974 276.721V252.491L311.07 248.095L316.291 252.491V281.829L325.641 286.226L328.251 293.311L320.959 296L276.391 274.744ZM321.235 223.011L328.113 226.27L325.917 233.497L264.002 263.119L256.571 260.146L259.596 252.776L321.235 223.011ZM231.905 263.404L237.954 268.512C237.402 286.51 222.403 296 204.669 296H202.874C194.062 296 183.759 292.6 177.157 286.083L177.834 278.855L184.298 278.002C189.118 282.256 195.858 285.229 202.183 285.229H204.117C216.091 285.229 225.303 280.136 226.27 268.085L231.905 263.404ZM226.256 251.638C225.704 239.16 216.629 234.209 204.103 234.209H202.169C194.739 234.209 189.104 237.182 184.284 241.436L177.834 240.583L177.143 233.355C183.745 226.696 192.957 223.58 202.597 223.58H204.517C222.403 223.58 237.402 232.942 237.94 251.211L231.891 256.176L226.256 251.638Z" fill="#ffffff"/></g><path d="M1171 781L1171 339L1187 339L1187 781L1171 781Z" fill="#ffffff"/><g fill="#ffffff" id="info-group"><path d="M181.3200 555L173.0400 555Q172.1400 555 171.5100 554.3700Q170.8800 553.7400 170.8800 552.8400L170.8800 552.8400L170.8800 503.0700L154.2300 503.0700Q153.3300 503.0700 152.7000 502.4400Q152.0700 501.8100 152.0700 500.9100L152.0700 500.9100L152.0700 494.2500Q152.0700 493.2600 152.7000 492.6300Q153.3300 492 154.2300 492L154.2300 492L200.1300 492Q201.1200 492 201.7500 492.6300Q202.3800 493.2600 202.3800 494.2500L202.3800 494.2500L202.3800 500.9100Q202.3800 501.8100 201.7500 502.4400Q201.1200 503.0700 200.1300 503.0700L200.1300 503.0700L183.5700 503.0700L183.5700 552.8400Q183.5700 553.7400 182.9400 554.3700Q182.3100 555 181.3200 555L181.3200 555ZM230.5500 555.9000L230.5500 555.9000Q220.5600 555.9000 214.7100 550.1400Q208.8600 544.3800 208.4100 533.7600L208.4100 533.7600Q208.3200 532.8600 208.3200 531.4650Q208.3200 530.0700 208.4100 529.2600L208.4100 529.2600Q208.7700 522.4200 211.5150 517.5150Q214.2600 512.6100 219.1200 509.9550Q223.9800 507.3000 230.5500 507.3000L230.5500 507.3000Q237.8400 507.3000 242.7900 510.3150Q247.7400 513.3300 250.2600 518.6850Q252.7800 524.0400 252.7800 531.0600L252.7800 531.0600L252.7800 532.9500Q252.7800 533.8500 252.1500 534.4800Q251.5200 535.1100 250.5300 535.1100L250.5300 535.1100L220.6500 535.1100Q220.6500 535.1100 220.6500 535.3800Q220.6500 535.6500 220.6500 535.8300L220.6500 535.8300Q220.7400 538.9800 221.8650 541.6350Q222.9900 544.2900 225.1950 545.9100Q227.4000 547.5300 230.4600 547.5300L230.4600 547.5300Q232.9800 547.5300 234.6900 546.7650Q236.4000 546 237.4800 545.0100Q238.5600 544.0200 239.0100 543.3900L239.0100 543.3900Q239.8200 542.3100 240.3150 542.0850Q240.8100 541.8600 241.8000 541.8600L241.8000 541.8600L249.5400 541.8600Q250.4400 541.8600 251.0250 542.4000Q251.6100 542.9400 251.5200 543.7500L251.5200 543.7500Q251.4300 545.1900 250.0350 547.2600Q248.6400 549.3300 246.0300 551.3100Q243.4200 553.2900 239.5050 554.5950Q235.5900 555.9000 230.5500 555.9000ZM220.6500 527.2800L220.6500 527.5500L240.5400 527.5500L240.5400 527.2800Q240.5400 523.7700 239.3700 521.1150Q238.2000 518.4600 235.9500 516.9750Q233.7000 515.4900 230.5500 515.4900L230.5500 515.4900Q227.4000 515.4900 225.1500 516.9750Q222.9000 518.4600 221.7750 521.1150Q220.6500 523.7700 220.6500 527.2800L220.6500 527.2800ZM280.0500 555.9000L280.0500 555.9000Q274.6500 555.9000 270.8250 554.6400Q267 553.3800 264.5700 551.4900Q262.1400 549.6000 260.9700 547.7100Q259.8000 545.8200 259.7100 544.5600L259.7100 544.5600Q259.6200 543.5700 260.2950 542.9850Q260.9700 542.4000 261.7800 542.4000L261.7800 542.4000L268.8900 542.4000Q269.2500 542.4000 269.5200 542.4900Q269.7900 542.5800 270.2400 543.0300L270.2400 543.0300Q271.4100 544.0200 272.7150 545.1000Q274.0200 546.1800 275.8200 546.9450Q277.6200 547.7100 280.3200 547.7100L280.3200 547.7100Q283.8300 547.7100 286.2150 546.3150Q288.6000 544.9200 288.6000 542.3100L288.6000 542.3100Q288.6000 540.4200 287.5650 539.2500Q286.5300 538.0800 283.7400 537.1350Q280.9500 536.1900 275.8200 535.1100L275.8200 535.1100Q270.7800 533.9400 267.4500 532.1400Q264.1200 530.3400 262.5000 527.6400Q260.8800 524.9400 260.8800 521.3400L260.8800 521.3400Q260.8800 517.8300 262.9950 514.6350Q265.1100 511.4400 269.2950 509.3700Q273.4800 507.3000 279.6900 507.3000L279.6900 507.3000Q284.5500 507.3000 288.1500 508.5150Q291.7500 509.7300 294.1350 511.5300Q296.5200 513.3300 297.7800 515.1750Q299.0400 517.0200 299.1300 518.3700L299.1300 518.3700Q299.2200 519.3600 298.5900 519.9450Q297.9600 520.5300 297.1500 520.5300L297.1500 520.5300L290.4900 520.5300Q290.0400 520.5300 289.6800 520.3500Q289.3200 520.1700 288.9600 519.9000L288.9600 519.9000Q287.9700 519 286.8000 517.9650Q285.6300 516.9300 283.9650 516.2100Q282.3000 515.4900 279.6000 515.4900L279.6000 515.4900Q276.1800 515.4900 274.3800 516.9750Q272.5800 518.4600 272.5800 520.7100L272.5800 520.7100Q272.5800 522.2400 273.4350 523.3650Q274.2900 524.4900 276.9000 525.4800Q279.5100 526.4700 284.8200 527.5500L284.8200 527.5500Q290.8500 528.6300 294.4050 530.7450Q297.9600 532.8600 299.4450 535.6050Q300.9300 538.3500 300.9300 541.6800L300.9300 541.6800Q300.9300 545.7300 298.5450 548.9700Q296.1600 552.2100 291.5250 554.0550Q286.8900 555.9000 280.0500 555.9000ZM338.6400 555L331.3500 555Q325.9500 555 322.2600 553.1100Q318.5700 551.2200 316.7700 547.4850Q314.9700 543.7500 314.9700 538.1700L314.9700 538.1700L314.9700 517.7400L307.8600 517.7400Q306.9600 517.7400 306.3300 517.1100Q305.7000 516.4800 305.7000 515.4900L305.7000 515.4900L305.7000 510.3600Q305.7000 509.4600 306.3300 508.8300Q306.9600 508.2000 307.8600 508.2000L307.8600 508.2000L314.9700 508.2000L314.9700 493.2600Q314.9700 492.3600 315.5550 491.7300Q316.1400 491.1000 317.1300 491.1000L317.1300 491.1000L324.4200 491.1000Q325.3200 491.1000 325.9500 491.7300Q326.5800 492.3600 326.5800 493.2600L326.5800 493.2600L326.5800 508.2000L337.8300 508.2000Q338.7300 508.2000 339.3600 508.8300Q339.9900 509.4600 339.9900 510.3600L339.9900 510.3600L339.9900 515.4900Q339.9900 516.4800 339.3600 517.1100Q338.7300 517.7400 337.8300 517.7400L337.8300 517.7400L326.5800 517.7400L326.5800 537.2700Q326.5800 540.9600 327.8850 543.0300Q329.1900 545.1000 332.4300 545.1000L332.4300 545.1000L338.6400 545.1000Q339.5400 545.1000 340.1700 545.7300Q340.8000 546.3600 340.8000 547.2600L340.8000 547.2600L340.8000 552.8400Q340.8000 553.7400 340.1700 554.3700Q339.5400 555 338.6400 555L338.6400 555ZM368.9700 555.9000L368.9700 555.9000Q358.9800 555.9000 353.1300 550.1400Q347.2800 544.3800 346.8300 533.7600L346.8300 533.7600Q346.7400 532.8600 346.7400 531.4650Q346.7400 530.0700 346.8300 529.2600L346.8300 529.2600Q347.1900 522.4200 349.9350 517.5150Q352.6800 512.6100 357.5400 509.9550Q362.4000 507.3000 368.9700 507.3000L368.9700 507.3000Q376.2600 507.3000 381.2100 510.3150Q386.1600 513.3300 388.6800 518.6850Q391.2000 524.0400 391.2000 531.0600L391.2000 531.0600L391.2000 532.9500Q391.2000 533.8500 390.5700 534.4800Q389.9400 535.1100 388.9500 535.1100L388.9500 535.1100L359.0700 535.1100Q359.0700 535.1100 359.0700 535.3800Q359.0700 535.6500 359.0700 535.8300L359.0700 535.8300Q359.1600 538.9800 360.2850 541.6350Q361.4100 544.2900 363.6150 545.9100Q365.8200 547.5300 368.8800 547.5300L368.8800 547.5300Q371.4000 547.5300 373.1100 546.7650Q374.8200 546 375.9000 545.0100Q376.9800 544.0200 377.4300 543.3900L377.4300 543.3900Q378.2400 542.3100 378.7350 542.0850Q379.2300 541.8600 380.2200 541.8600L380.2200 541.8600L387.9600 541.8600Q388.8600 541.8600 389.4450 542.4000Q390.0300 542.9400 389.9400 543.7500L389.9400 543.7500Q389.8500 545.1900 388.4550 547.2600Q387.0600 549.3300 384.4500 551.3100Q381.8400 553.2900 377.9250 554.5950Q374.0100 555.9000 368.9700 555.9000ZM359.0700 527.2800L359.0700 527.5500L378.9600 527.5500L378.9600 527.2800Q378.9600 523.7700 377.7900 521.1150Q376.6200 518.4600 374.3700 516.9750Q372.1200 515.4900 368.9700 515.4900L368.9700 515.4900Q365.8200 515.4900 363.5700 516.9750Q361.3200 518.4600 360.1950 521.1150Q359.0700 523.7700 359.0700 527.2800L359.0700 527.2800ZM418.4700 555.9000L418.4700 555.9000Q413.0700 555.9000 409.2450 554.6400Q405.4200 553.3800 402.9900 551.4900Q400.5600 549.6000 399.3900 547.7100Q398.2200 545.8200 398.1300 544.5600L398.1300 544.5600Q398.0400 543.5700 398.7150 542.9850Q399.3900 542.4000 400.2000 542.4000L400.2000 542.4000L407.3100 542.4000Q407.6700 542.4000 407.9400 542.4900Q408.2100 542.5800 408.6600 543.0300L408.6600 543.0300Q409.8300 544.0200 411.1350 545.1000Q412.4400 546.1800 414.2400 546.9450Q416.0400 547.7100 418.7400 547.7100L418.7400 547.7100Q422.2500 547.7100 424.6350 546.3150Q427.0200 544.9200 427.0200 542.3100L427.0200 542.3100Q427.0200 540.4200 425.9850 539.2500Q424.9500 538.0800 422.1600 537.1350Q419.3700 536.1900 414.2400 535.1100L414.2400 535.1100Q409.2000 533.9400 405.8700 532.1400Q402.5400 530.3400 400.9200 527.6400Q399.3000 524.9400 399.3000 521.3400L399.3000 521.3400Q399.3000 517.8300 401.4150 514.6350Q403.5300 511.4400 407.7150 509.3700Q411.9000 507.3000 418.1100 507.3000L418.1100 507.3000Q422.9700 507.3000 426.5700 508.5150Q430.1700 509.7300 432.5550 511.5300Q434.9400 513.3300 436.2000 515.1750Q437.4600 517.0200 437.5500 518.3700L437.5500 518.3700Q437.6400 519.3600 437.0100 519.9450Q436.3800 520.5300 435.5700 520.5300L435.5700 520.5300L428.9100 520.5300Q428.4600 520.5300 428.1000 520.3500Q427.7400 520.1700 427.3800 519.9000L427.3800 519.9000Q426.3900 519 425.2200 517.9650Q424.0500 516.9300 422.3850 516.2100Q420.7200 515.4900 418.0200 515.4900L418.0200 515.4900Q414.6000 515.4900 412.8000 516.9750Q411 518.4600 411 520.7100L411 520.7100Q411 522.2400 411.8550 523.3650Q412.7100 524.4900 415.3200 525.4800Q417.9300 526.4700 423.2400 527.5500L423.2400 527.5500Q429.2700 528.6300 432.8250 530.7450Q436.3800 532.8600 437.8650 535.6050Q439.3500 538.3500 439.3500 541.6800L439.3500 541.6800Q439.3500 545.7300 436.9650 548.9700Q434.5800 552.2100 429.9450 554.0550Q425.3100 555.9000 418.4700 555.9000ZM512.7900 555L472.4700 555Q471.5700 555 470.9400 554.3700Q470.3100 553.7400 470.3100 552.8400L470.3100 552.8400L470.3100 494.2500Q470.3100 493.2600 470.9400 492.6300Q471.5700 492 472.4700 492L472.4700 492L512.0700 492Q513.0600 492 513.6900 492.6300Q514.3200 493.2600 514.3200 494.2500L514.3200 494.2500L514.3200 500.1900Q514.3200 501.0900 513.6900 501.7200Q513.0600 502.3500 512.0700 502.3500L512.0700 502.3500L482.4600 502.3500L482.4600 518.2800L510.0900 518.2800Q511.0800 518.2800 511.7100 518.8650Q512.3400 519.4500 512.3400 520.4400L512.3400 520.4400L512.3400 526.0200Q512.3400 527.0100 511.7100 527.5950Q511.0800 528.1800 510.0900 528.1800L510.0900 528.1800L482.4600 528.1800L482.4600 544.6500L512.7900 544.6500Q513.7800 544.6500 514.4100 545.2800Q515.0400 545.9100 515.0400 546.9000L515.0400 546.9000L515.0400 552.8400Q515.0400 553.7400 514.4100 554.3700Q513.7800 555 512.7900 555L512.7900 555ZM568.5000 555L525.4800 555Q524.5800 555 523.9500 554.3700Q523.3200 553.7400 523.3200 552.8400L523.3200 552.8400L523.3200 548.2500Q523.3200 547.4400 523.7250 546.3150Q524.1300 545.1900 525.5700 544.0200L525.5700 544.0200L539.7900 529.8900Q545.7300 525.2100 549.3750 521.9250Q553.0200 518.6400 554.6850 515.8950Q556.3500 513.1500 556.3500 510.4500L556.3500 510.4500Q556.3500 506.4000 554.1450 503.8800Q551.9400 501.3600 547.1700 501.3600L547.1700 501.3600Q544.0200 501.3600 541.8600 502.6650Q539.7000 503.9700 538.4850 506.1300Q537.2700 508.2900 536.8200 510.9000L536.8200 510.9000Q536.6400 512.0700 535.8300 512.5200Q535.0200 512.9700 534.2100 512.9700L534.2100 512.9700L526.2000 512.9700Q525.3900 512.9700 524.8500 512.4300Q524.3100 511.8900 524.3100 511.1700L524.3100 511.1700Q524.4000 507.3000 525.9300 503.6550Q527.4600 500.0100 530.3850 497.1750Q533.3100 494.3400 537.5400 492.6300Q541.7700 490.9200 547.0800 490.9200L547.0800 490.9200Q554.5500 490.9200 559.4550 493.4400Q564.3600 495.9600 566.8350 500.2800Q569.3100 504.6000 569.3100 510L569.3100 510Q569.3100 514.2300 567.6900 517.7850Q566.0700 521.3400 563.0100 524.6250Q559.9500 527.9100 555.6300 531.3300L555.6300 531.3300L542.8500 544.2900L568.5000 544.2900Q569.4900 544.2900 570.0750 544.8750Q570.6600 545.4600 570.6600 546.4500L570.6600 546.4500L570.6600 552.8400Q570.6600 553.7400 570.0750 554.3700Q569.4900 555 568.5000 555L568.5000 555ZM624.4800 555L584.1600 555Q583.2600 555 582.6300 554.3700Q582 553.7400 582 552.8400L582 552.8400L582 494.2500Q582 493.2600 582.6300 492.6300Q583.2600 492 584.1600 492L584.1600 492L623.7600 492Q624.7500 492 625.3800 492.6300Q626.0100 493.2600 626.0100 494.2500L626.0100 494.2500L626.0100 500.1900Q626.0100 501.0900 625.3800 501.7200Q624.7500 502.3500 623.7600 502.3500L623.7600 502.3500L594.1500 502.3500L594.1500 518.2800L621.7800 518.2800Q622.7700 518.2800 623.4000 518.8650Q624.0300 519.4500 624.0300 520.4400L624.0300 520.4400L624.0300 526.0200Q624.0300 527.0100 623.4000 527.5950Q622.7700 528.1800 621.7800 528.1800L621.7800 528.1800L594.1500 528.1800L594.1500 544.6500L624.4800 544.6500Q625.4700 544.6500 626.1000 545.2800Q626.7300 545.9100 626.7300 546.9000L626.7300 546.9000L626.7300 552.8400Q626.7300 553.7400 626.1000 554.3700Q625.4700 555 624.4800 555L624.4800 555ZM677.7600 555.9000L677.7600 555.9000Q671.2800 555.9000 666.3750 553.4700Q661.4700 551.0400 658.7250 546.4050Q655.9800 541.7700 655.7100 535.2000L655.7100 535.2000Q655.6200 533.8500 655.6200 531.6450Q655.6200 529.4400 655.7100 528L655.7100 528Q655.9800 521.4300 658.7250 516.7950Q661.4700 512.1600 666.3750 509.7300Q671.2800 507.3000 677.7600 507.3000L677.7600 507.3000Q683.5200 507.3000 687.5700 508.8750Q691.6200 510.4500 694.2300 512.9250Q696.8400 515.4000 698.1450 518.0550Q699.4500 520.7100 699.5400 522.8700L699.5400 522.8700Q699.6300 523.8600 698.9550 524.4450Q698.2800 525.0300 697.3800 525.0300L697.3800 525.0300L689.4600 525.0300Q688.5600 525.0300 688.0650 524.5800Q687.5700 524.1300 687.1200 523.2300L687.1200 523.2300Q685.7700 519.6300 683.5650 518.1450Q681.3600 516.6600 677.9400 516.6600L677.9400 516.6600Q673.4400 516.6600 670.7850 519.4950Q668.1300 522.3300 667.9500 528.4500L667.9500 528.4500Q667.7700 531.8700 667.9500 534.7500L667.9500 534.7500Q668.1300 540.9600 670.7850 543.7500Q673.4400 546.5400 677.9400 546.5400L677.9400 546.5400Q681.4500 546.5400 683.6100 545.0550Q685.7700 543.5700 687.1200 539.9700L687.1200 539.9700Q687.5700 539.0700 688.0650 538.6200Q688.5600 538.1700 689.4600 538.1700L689.4600 538.1700L697.3800 538.1700Q698.2800 538.1700 698.9550 538.7550Q699.6300 539.3400 699.5400 540.3300L699.5400 540.3300Q699.4500 541.9500 698.6850 543.9750Q697.9200 546 696.2550 548.1150Q694.5900 550.2300 692.0700 551.9850Q689.5500 553.7400 685.9950 554.8200Q682.4400 555.9000 677.7600 555.9000ZM729.6000 555.9000L729.6000 555.9000Q722.4000 555.9000 717.4950 553.3800Q712.5900 550.8600 710.0250 546.2700Q707.4600 541.6800 707.1000 535.5600L707.1000 535.5600Q707.0100 533.9400 707.0100 531.6000Q707.0100 529.2600 707.1000 527.6400L707.1000 527.6400Q707.4600 521.4300 710.1150 516.8850Q712.7700 512.3400 717.6750 509.8200Q722.5800 507.3000 729.6000 507.3000L729.6000 507.3000Q736.6200 507.3000 741.5250 509.8200Q746.4300 512.3400 749.0850 516.8850Q751.7400 521.4300 752.1000 527.6400L752.1000 527.6400Q752.1900 529.2600 752.1900 531.6000Q752.1900 533.9400 752.1000 535.5600L752.1000 535.5600Q751.7400 541.6800 749.1750 546.2700Q746.6100 550.8600 741.7050 553.3800Q736.8000 555.9000 729.6000 555.9000ZM729.6000 546.9900L729.6000 546.9900Q734.3700 546.9900 736.9800 543.9750Q739.5900 540.9600 739.8600 535.1100L739.8600 535.1100Q739.9500 533.7600 739.9500 531.6000Q739.9500 529.4400 739.8600 528.0900L739.8600 528.0900Q739.5900 522.2400 736.9800 519.2250Q734.3700 516.2100 729.6000 516.2100L729.6000 516.2100Q724.8300 516.2100 722.2200 519.2250Q719.6100 522.2400 719.3400 528.0900L719.3400 528.0900Q719.2500 529.4400 719.2500 531.6000Q719.2500 533.7600 719.3400 535.1100L719.3400 535.1100Q719.6100 540.9600 722.2200 543.9750Q724.8300 546.9900 729.6000 546.9900ZM771.9000 555L764.3400 555Q763.4400 555 762.8100 554.3700Q762.1800 553.7400 762.1800 552.8400L762.1800 552.8400L762.1800 510.3600Q762.1800 509.4600 762.8100 508.8300Q763.4400 508.2000 764.3400 508.2000L764.3400 508.2000L771.3600 508.2000Q772.2600 508.2000 772.8900 508.8300Q773.5200 509.4600 773.5200 510.3600L773.5200 510.3600L773.5200 513.4200Q775.4100 510.9000 778.6050 509.1450Q781.8000 507.3900 786.2100 507.3000L786.2100 507.3000Q796.4700 507.1200 800.5200 515.3100L800.5200 515.3100Q802.5900 511.7100 806.5050 509.5050Q810.4200 507.3000 815.1900 507.3000L815.1900 507.3000Q819.8700 507.3000 823.6950 509.4600Q827.5200 511.6200 829.7250 515.9850Q831.9300 520.3500 831.9300 527.0100L831.9300 527.0100L831.9300 552.8400Q831.9300 553.7400 831.3000 554.3700Q830.6700 555 829.7700 555L829.7700 555L822.3900 555Q821.4900 555 820.8600 554.3700Q820.2300 553.7400 820.2300 552.8400L820.2300 552.8400L820.2300 527.7300Q820.2300 523.6800 819.0600 521.2950Q817.8900 518.9100 815.9100 517.9200Q813.9300 516.9300 811.5000 516.9300L811.5000 516.9300Q809.5200 516.9300 807.5400 517.9200Q805.5600 518.9100 804.3000 521.2950Q803.0400 523.6800 803.0400 527.7300L803.0400 527.7300L803.0400 552.8400Q803.0400 553.7400 802.4100 554.3700Q801.7800 555 800.8800 555L800.8800 555L793.5000 555Q792.6000 555 791.9700 554.3700Q791.3400 553.7400 791.3400 552.8400L791.3400 552.8400L791.3400 527.7300Q791.3400 523.6800 790.0800 521.2950Q788.8200 518.9100 786.8400 517.9200Q784.8600 516.9300 782.6100 516.9300L782.6100 516.9300Q780.5400 516.9300 778.5600 517.9650Q776.5800 519 775.3200 521.3400Q774.0600 523.6800 774.0600 527.7300L774.0600 527.7300L774.0600 552.8400Q774.0600 553.7400 773.4300 554.3700Q772.8000 555 771.9000 555L771.9000 555ZM181.3200 645.9000L181.3200 645.9000Q172.9500 645.9000 167.1450 642.9750Q161.3400 640.0500 158.2800 634.6050Q155.2200 629.1600 154.8600 621.5100L154.8600 621.5100Q154.7700 617.8200 154.7700 613.5900Q154.7700 609.3600 154.8600 605.4900L154.8600 605.4900Q155.2200 597.9300 158.3250 592.4400Q161.4300 586.9500 167.2350 584.0250Q173.0400 581.1000 181.3200 581.1000L181.3200 581.1000Q187.4400 581.1000 192.3000 582.7200Q197.1600 584.3400 200.5800 587.1750Q204 590.0100 205.8900 593.7900Q207.7800 597.5700 207.8700 601.9800L207.8700 601.9800Q207.9600 602.7900 207.3750 603.3300Q206.7900 603.8700 205.9800 603.8700L205.9800 603.8700L197.4300 603.8700Q196.4400 603.8700 195.8100 603.3750Q195.1800 602.8800 194.9100 601.7100L194.9100 601.7100Q193.4700 595.7700 189.9600 593.6100Q186.4500 591.4500 181.2300 591.4500L181.2300 591.4500Q175.2000 591.4500 171.6000 594.8250Q168 598.2000 167.7300 605.9400L167.7300 605.9400Q167.4600 613.3200 167.7300 621.0600L167.7300 621.0600Q168 628.8000 171.6000 632.1750Q175.2000 635.5500 181.2300 635.5500L181.2300 635.5500Q186.4500 635.5500 190.0050 633.3450Q193.5600 631.1400 194.9100 625.2900L194.9100 625.2900Q195.1800 624.0300 195.8100 623.5800Q196.4400 623.1300 197.4300 623.1300L197.4300 623.1300L205.9800 623.1300Q206.7900 623.1300 207.3750 623.6700Q207.9600 624.2100 207.8700 625.0200L207.8700 625.0200Q207.7800 629.4300 205.8900 633.2100Q204 636.9900 200.5800 639.8250Q197.1600 642.6600 192.3000 644.2800Q187.4400 645.9000 181.3200 645.9000ZM233.0700 662.1000L225.9600 662.1000Q225.2400 662.1000 224.7000 661.5600Q224.1600 661.0200 224.1600 660.3000L224.1600 660.3000Q224.1600 659.9400 224.2050 659.6250Q224.2500 659.3100 224.5200 658.8600L224.5200 658.8600L231.5400 642.2100L214.2600 601.4400Q213.9000 600.5400 213.9000 600.1800L213.9000 600.1800Q213.9900 599.3700 214.5300 598.7850Q215.0700 598.2000 215.8800 598.2000L215.8800 598.2000L223.1700 598.2000Q224.2500 598.2000 224.7900 598.7400Q225.3300 599.2800 225.6000 599.9100L225.6000 599.9100L237.5700 629.3400L249.9000 599.9100Q250.1700 599.1900 250.7100 598.6950Q251.2500 598.2000 252.3300 598.2000L252.3300 598.2000L259.5300 598.2000Q260.2500 598.2000 260.8350 598.7400Q261.4200 599.2800 261.4200 600L261.4200 600Q261.4200 600.5400 261.0600 601.4400L261.0600 601.4400L235.5900 660.3900Q235.2300 661.1100 234.6900 661.6050Q234.1500 662.1000 233.0700 662.1000L233.0700 662.1000ZM279.0600 662.1000L271.4100 662.1000Q270.5100 662.1000 269.8800 661.4700Q269.2500 660.8400 269.2500 659.9400L269.2500 659.9400L269.2500 600.3600Q269.2500 599.4600 269.8800 598.8300Q270.5100 598.2000 271.4100 598.2000L271.4100 598.2000L278.5200 598.2000Q279.5100 598.2000 280.0950 598.8300Q280.6800 599.4600 280.6800 600.3600L280.6800 600.3600L280.6800 603.9600Q282.8400 601.0800 286.3500 599.1900Q289.8600 597.3000 295.0800 597.3000L295.0800 597.3000Q299.8500 597.3000 303.3600 598.8300Q306.8700 600.3600 309.2100 603.1950Q311.5500 606.0300 312.8100 609.9000Q314.0700 613.7700 314.2500 618.4500L314.2500 618.4500Q314.3400 619.9800 314.3400 621.6000Q314.3400 623.2200 314.2500 624.8400L314.2500 624.8400Q314.1600 629.3400 312.9000 633.1650Q311.6400 636.9900 309.2550 639.8250Q306.8700 642.6600 303.3600 644.2800Q299.8500 645.9000 295.0800 645.9000L295.0800 645.9000Q290.2200 645.9000 286.8000 644.1450Q283.3800 642.3900 281.2200 639.5100L281.2200 639.5100L281.2200 659.9400Q281.2200 660.8400 280.6350 661.4700Q280.0500 662.1000 279.0600 662.1000L279.0600 662.1000ZM291.7500 636.2700L291.7500 636.2700Q295.6200 636.2700 297.7800 634.6050Q299.9400 632.9400 300.9300 630.2400Q301.9200 627.5400 302.1000 624.3000L302.1000 624.3000Q302.1900 621.6000 302.1000 618.9000L302.1000 618.9000Q301.9200 615.6600 300.9300 612.9600Q299.9400 610.2600 297.7800 608.5950Q295.6200 606.9300 291.7500 606.9300L291.7500 606.9300Q288.0600 606.9300 285.7650 608.6400Q283.4700 610.3500 282.4350 613.0050Q281.4000 615.6600 281.2200 618.4500L281.2200 618.4500Q281.1300 620.0700 281.1300 621.8700Q281.1300 623.6700 281.2200 625.3800L281.2200 625.3800Q281.3100 628.0800 282.4800 630.5550Q283.6500 633.0300 285.9000 634.6500Q288.1500 636.2700 291.7500 636.2700ZM334.4100 645L326.5800 645Q325.6800 645 325.0500 644.3700Q324.4200 643.7400 324.4200 642.8400L324.4200 642.8400L324.4200 600.4500Q324.4200 599.4600 325.0500 598.8300Q325.6800 598.2000 326.5800 598.2000L326.5800 598.2000L333.8700 598.2000Q334.7700 598.2000 335.4450 598.8300Q336.1200 599.4600 336.1200 600.4500L336.1200 600.4500L336.1200 604.1400Q338.1900 601.2600 341.4750 599.7300Q344.7600 598.2000 349.0800 598.2000L349.0800 598.2000L352.7700 598.2000Q353.7600 598.2000 354.3450 598.8300Q354.9300 599.4600 354.9300 600.3600L354.9300 600.3600L354.9300 606.8400Q354.9300 607.7400 354.3450 608.3700Q353.7600 609 352.7700 609L352.7700 609L345.7500 609Q341.4300 609 339.0450 611.3850Q336.6600 613.7700 336.6600 618.0900L336.6600 618.0900L336.6600 642.8400Q336.6600 643.7400 336.0300 644.3700Q335.4000 645 334.4100 645L334.4100 645ZM382.1100 645.9000L382.1100 645.9000Q372.1200 645.9000 366.2700 640.1400Q360.4200 634.3800 359.9700 623.7600L359.9700 623.7600Q359.8800 622.8600 359.8800 621.4650Q359.8800 620.0700 359.9700 619.2600L359.9700 619.2600Q360.3300 612.4200 363.0750 607.5150Q365.8200 602.6100 370.6800 599.9550Q375.5400 597.3000 382.1100 597.3000L382.1100 597.3000Q389.4000 597.3000 394.3500 600.3150Q399.3000 603.3300 401.8200 608.6850Q404.3400 614.0400 404.3400 621.0600L404.3400 621.0600L404.3400 622.9500Q404.3400 623.8500 403.7100 624.4800Q403.0800 625.1100 402.0900 625.1100L402.0900 625.1100L372.2100 625.1100Q372.2100 625.1100 372.2100 625.3800Q372.2100 625.6500 372.2100 625.8300L372.2100 625.8300Q372.3000 628.9800 373.4250 631.6350Q374.5500 634.2900 376.7550 635.9100Q378.9600 637.5300 382.0200 637.5300L382.0200 637.5300Q384.5400 637.5300 386.2500 636.7650Q387.9600 636 389.0400 635.0100Q390.1200 634.0200 390.5700 633.3900L390.5700 633.3900Q391.3800 632.3100 391.8750 632.0850Q392.3700 631.8600 393.3600 631.8600L393.3600 631.8600L401.1000 631.8600Q402 631.8600 402.5850 632.4000Q403.1700 632.9400 403.0800 633.7500L403.0800 633.7500Q402.9900 635.1900 401.5950 637.2600Q400.2000 639.3300 397.5900 641.3100Q394.9800 643.2900 391.0650 644.5950Q387.1500 645.9000 382.1100 645.9000ZM372.2100 617.2800L372.2100 617.5500L392.1000 617.5500L392.1000 617.2800Q392.1000 613.7700 390.9300 611.1150Q389.7600 608.4600 387.5100 606.9750Q385.2600 605.4900 382.1100 605.4900L382.1100 605.4900Q378.9600 605.4900 376.7100 606.9750Q374.4600 608.4600 373.3350 611.1150Q372.2100 613.7700 372.2100 617.2800L372.2100 617.2800ZM431.6100 645.9000L431.6100 645.9000Q426.2100 645.9000 422.3850 644.6400Q418.5600 643.3800 416.1300 641.4900Q413.7000 639.6000 412.5300 637.7100Q411.3600 635.8200 411.2700 634.5600L411.2700 634.5600Q411.1800 633.5700 411.8550 632.9850Q412.5300 632.4000 413.3400 632.4000L413.3400 632.4000L420.4500 632.4000Q420.8100 632.4000 421.0800 632.4900Q421.3500 632.5800 421.8000 633.0300L421.8000 633.0300Q422.9700 634.0200 424.2750 635.1000Q425.5800 636.1800 427.3800 636.9450Q429.1800 637.7100 431.8800 637.7100L431.8800 637.7100Q435.3900 637.7100 437.7750 636.3150Q440.1600 634.9200 440.1600 632.3100L440.1600 632.3100Q440.1600 630.4200 439.1250 629.2500Q438.0900 628.0800 435.3000 627.1350Q432.5100 626.1900 427.3800 625.1100L427.3800 625.1100Q422.3400 623.9400 419.0100 622.1400Q415.6800 620.3400 414.0600 617.6400Q412.4400 614.9400 412.4400 611.3400L412.4400 611.3400Q412.4400 607.8300 414.5550 604.6350Q416.6700 601.4400 420.8550 599.3700Q425.0400 597.3000 431.2500 597.3000L431.2500 597.3000Q436.1100 597.3000 439.7100 598.5150Q443.3100 599.7300 445.6950 601.5300Q448.0800 603.3300 449.3400 605.1750Q450.6000 607.0200 450.6900 608.3700L450.6900 608.3700Q450.7800 609.3600 450.1500 609.9450Q449.5200 610.5300 448.7100 610.5300L448.7100 610.5300L442.0500 610.5300Q441.6000 610.5300 441.2400 610.3500Q440.8800 610.1700 440.5200 609.9000L440.5200 609.9000Q439.5300 609 438.3600 607.9650Q437.1900 606.9300 435.5250 606.2100Q433.8600 605.4900 431.1600 605.4900L431.1600 605.4900Q427.7400 605.4900 425.9400 606.9750Q424.1400 608.4600 424.1400 610.7100L424.1400 610.7100Q424.1400 612.2400 424.9950 613.3650Q425.8500 614.4900 428.4600 615.4800Q431.0700 616.4700 436.3800 617.5500L436.3800 617.5500Q442.4100 618.6300 445.9650 620.7450Q449.5200 622.8600 451.0050 625.6050Q452.4900 628.3500 452.4900 631.6800L452.4900 631.6800Q452.4900 635.7300 450.1050 638.9700Q447.7200 642.2100 443.0850 644.0550Q438.4500 645.9000 431.6100 645.9000ZM479.4900 645.9000L479.4900 645.9000Q474.0900 645.9000 470.2650 644.6400Q466.4400 643.3800 464.0100 641.4900Q461.5800 639.6000 460.4100 637.7100Q459.2400 635.8200 459.1500 634.5600L459.1500 634.5600Q459.0600 633.5700 459.7350 632.9850Q460.4100 632.4000 461.2200 632.4000L461.2200 632.4000L468.3300 632.4000Q468.6900 632.4000 468.9600 632.4900Q469.2300 632.5800 469.6800 633.0300L469.6800 633.0300Q470.8500 634.0200 472.1550 635.1000Q473.4600 636.1800 475.2600 636.9450Q477.0600 637.7100 479.7600 637.7100L479.7600 637.7100Q483.2700 637.7100 485.6550 636.3150Q488.0400 634.9200 488.0400 632.3100L488.0400 632.3100Q488.0400 630.4200 487.0050 629.2500Q485.9700 628.0800 483.1800 627.1350Q480.3900 626.1900 475.2600 625.1100L475.2600 625.1100Q470.2200 623.9400 466.8900 622.1400Q463.5600 620.3400 461.9400 617.6400Q460.3200 614.9400 460.3200 611.3400L460.3200 611.3400Q460.3200 607.8300 462.4350 604.6350Q464.5500 601.4400 468.7350 599.3700Q472.9200 597.3000 479.1300 597.3000L479.1300 597.3000Q483.9900 597.3000 487.5900 598.5150Q491.1900 599.7300 493.5750 601.5300Q495.9600 603.3300 497.2200 605.1750Q498.4800 607.0200 498.5700 608.3700L498.5700 608.3700Q498.6600 609.3600 498.0300 609.9450Q497.4000 610.5300 496.5900 610.5300L496.5900 610.5300L489.9300 610.5300Q489.4800 610.5300 489.1200 610.3500Q488.7600 610.1700 488.4000 609.9000L488.4000 609.9000Q487.4100 609 486.2400 607.9650Q485.0700 606.9300 483.4050 606.2100Q481.7400 605.4900 479.0400 605.4900L479.0400 605.4900Q475.6200 605.4900 473.8200 606.9750Q472.0200 608.4600 472.0200 610.7100L472.0200 610.7100Q472.0200 612.2400 472.8750 613.3650Q473.7300 614.4900 476.3400 615.4800Q478.9500 616.4700 484.2600 617.5500L484.2600 617.5500Q490.2900 618.6300 493.8450 620.7450Q497.4000 622.8600 498.8850 625.6050Q500.3700 628.3500 500.3700 631.6800L500.3700 631.6800Q500.3700 635.7300 497.9850 638.9700Q495.6000 642.2100 490.9650 644.0550Q486.3300 645.9000 479.4900 645.9000Z" id="title"/><path d="M1396.4200 642.2000L1396.4200 642.2000Q1381.0200 642.2000 1369.8000 638.4600Q1358.5800 634.7200 1351.2100 628.6700Q1343.8400 622.6200 1340.1000 615.4700Q1336.3600 608.3200 1336.1400 601.2800L1336.1400 601.2800Q1336.1400 599.3000 1337.5700 598.0900Q1339 596.8800 1340.9800 596.8800L1340.9800 596.8800L1360.7800 596.8800Q1362.9800 596.8800 1364.5200 597.7600Q1366.0600 598.6400 1367.1600 601.2800L1367.1600 601.2800Q1369.1400 607.2200 1373.6500 610.7400Q1378.1600 614.2600 1384.1000 615.6900Q1390.0400 617.1200 1396.6400 617.1200L1396.6400 617.1200Q1409.8400 617.1200 1417.6500 610.8500Q1425.4600 604.5800 1425.4600 592.9200L1425.4600 592.9200Q1425.4600 581.2600 1418.2000 576.0900Q1410.9400 570.9200 1397.9600 570.9200L1397.9600 570.9200L1375.3000 570.9200Q1372.8800 570.9200 1371.3400 569.4900Q1369.8000 568.0600 1369.8000 565.6400L1369.8000 565.6400L1369.8000 556.4000Q1369.8000 554.2000 1370.7900 552.5500Q1371.7800 550.9000 1372.8800 549.8000L1372.8800 549.8000L1412.2600 511.3000L1349.3400 511.3000Q1346.9200 511.3000 1345.4900 509.7600Q1344.0600 508.2200 1344.0600 506.0200L1344.0600 506.0200L1344.0600 491.5000Q1344.0600 489.0800 1345.4900 487.5400Q1346.9200 486 1349.3400 486L1349.3400 486L1443.7200 486Q1446.1400 486 1447.6800 487.5400Q1449.2200 489.0800 1449.2200 491.5000L1449.2200 491.5000L1449.2200 504.7000Q1449.2200 506.6800 1448.3400 508.2200Q1447.4600 509.7600 1446.3600 510.8600L1446.3600 510.8600L1408.3000 550.0200L1410.9400 550.2400Q1424.3600 551.3400 1434.8100 556.2900Q1445.2600 561.2400 1451.0900 570.7000Q1456.9200 580.1600 1456.9200 594.4600L1456.9200 594.4600Q1456.9200 609.4200 1449.1100 620.0900Q1441.3000 630.7600 1427.6600 636.4800Q1414.0200 642.2000 1396.4200 642.2000ZM1572.6400 640L1553.5000 640Q1551.3000 640 1549.7600 638.4600Q1548.2200 636.9200 1548.2200 634.7200L1548.2200 634.7200L1548.2200 606.5600L1478.4800 606.5600Q1476.0600 606.5600 1474.6300 605.0200Q1473.2000 603.4800 1473.2000 601.2800L1473.2000 601.2800L1473.2000 586.3200Q1473.2000 585 1473.7500 583.1300Q1474.3000 581.2600 1475.6200 579.7200L1475.6200 579.7200L1540.5200 489.7400Q1543.3800 486 1548.6600 486L1548.6600 486L1572.6400 486Q1574.8400 486 1576.3800 487.5400Q1577.9200 489.0800 1577.9200 491.2800L1577.9200 491.2800L1577.9200 580.6000L1597.5000 580.6000Q1600.1400 580.6000 1601.5700 582.0300Q1603 583.4600 1603 585.8800L1603 585.8800L1603 601.2800Q1603 603.4800 1601.4600 605.0200Q1599.9200 606.5600 1597.7200 606.5600L1597.7200 606.5600L1577.9200 606.5600L1577.9200 634.7200Q1577.9200 636.9200 1576.3800 638.4600Q1574.8400 640 1572.6400 640L1572.6400 640ZM1548.8800 517.9000L1503.7800 581.4800L1548.8800 581.4800L1548.8800 517.9000ZM1648.1000 640L1626.1000 640Q1623.9000 640 1622.3600 638.4600Q1620.8200 636.9200 1620.8200 634.7200L1620.8200 634.7200L1620.8200 612.9400Q1620.8200 610.5200 1622.3600 608.9800Q1623.9000 607.4400 1626.1000 607.4400L1626.1000 607.4400L1648.1000 607.4400Q1650.3000 607.4400 1651.8400 608.9800Q1653.3800 610.5200 1653.3800 612.9400L1653.3800 612.9400L1653.3800 634.7200Q1653.3800 636.9200 1651.8400 638.4600Q1650.3000 640 1648.1000 640L1648.1000 640ZM1770.2000 640L1751.0600 640Q1748.8600 640 1747.3200 638.4600Q1745.7800 636.9200 1745.7800 634.7200L1745.7800 634.7200L1745.7800 606.5600L1676.0400 606.5600Q1673.6200 606.5600 1672.1900 605.0200Q1670.7600 603.4800 1670.7600 601.2800L1670.7600 601.2800L1670.7600 586.3200Q1670.7600 585 1671.3100 583.1300Q1671.8600 581.2600 1673.1800 579.7200L1673.1800 579.7200L1738.0800 489.7400Q1740.9400 486 1746.2200 486L1746.2200 486L1770.2000 486Q1772.4000 486 1773.9400 487.5400Q1775.4800 489.0800 1775.4800 491.2800L1775.4800 491.2800L1775.4800 580.6000L1795.0600 580.6000Q1797.7000 580.6000 1799.1300 582.0300Q1800.5600 583.4600 1800.5600 585.8800L1800.5600 585.8800L1800.5600 601.2800Q1800.5600 603.4800 1799.0200 605.0200Q1797.4800 606.5600 1795.2800 606.5600L1795.2800 606.5600L1775.4800 606.5600L1775.4800 634.7200Q1775.4800 636.9200 1773.9400 638.4600Q1772.4000 640 1770.2000 640L1770.2000 640ZM1746.4400 517.9000L1701.3400 581.4800L1746.4400 581.4800L1746.4400 517.9000Z" id="lecture-full-number"/></g></svg>