<svg xmlns="http://www.w3.org/2000/svg" version="1.1" xmlns:xlink="http://www.w3.org/1999/xlink" xmlns:svgjs="http://svgjs.dev/svgjs" viewBox="0 0 1920 1080" id="5e129b42-26e1-493d-bd45-e9292c67d939"><g><rect width="1920" height="1080" fill="#50b2c0"/></g><g fill="#e35f79"><path d="M745.478 668.096L1087.28 1009.97L1200.88 896.347L859.076 554.473L745.478 668.096Z"/><path d="M858.951 554.294L517.152 896.168L630.75 1009.79L972.549 667.917L858.951 554.294Z"/><path d="M289.239 668.391L631.038 1010.27L744.636 896.643L402.837 554.769L289.239 668.391Z"/><path d="M402.706 554L60.907 895.874L174.505 1009.5L516.304 667.623L402.706 554Z"/><path d="M-166 667.682L175.799 1009.56L289.397 895.933L-52.4021 554.059L-166 667.682Z"/></g><g fill="#ffffff" opacity="0.2"><path d="M1134 160C1540.91 160 1872 491.086 1872 898C1872 1304.91 1540.91 1636 1134 1636C727.086 1635.56 396 1304.91 396 898C396 491.086 727.086 160 1134 160ZM1134 1611.31C1527.25 1611.31 1847.31 1291.25 1847.31 898C1847.31 504.753 1527.25 184.247 1134 184.247C740.753 184.247 420.247 504.312 420.247 898C420.247 1291.69 740.312 1611.31 1134 1611.31Z"/><path d="M1134 251.699C1490.22 251.699 1780.3 541.785 1780.3 898C1780.3 1254.22 1490.22 1544.3 1134 1544.3C777.785 1544.3 487.699 1254.22 487.699 898C487.699 541.785 777.344 251.699 1134 251.699ZM1134 1519.61C1476.99 1519.61 1756.05 1240.55 1756.05 897.559C1756.05 554.57 1476.99 275.947 1134 275.947C791.011 275.947 511.946 555.011 511.946 898C511.946 1240.99 791.011 1519.61 1134 1519.61Z"/><path d="M1134 342.957C1439.96 342.957 1688.6 592.043 1688.6 897.559C1688.6 1203.52 1439.52 1452.16 1134 1452.16C828.043 1452.16 579.398 1203.08 579.398 897.559C578.957 592.043 828.043 342.957 1134 342.957ZM1134 1428.35C1426.29 1428.35 1664.35 1190.29 1664.35 898C1664.35 605.71 1426.29 367.645 1134 367.645C841.71 367.645 603.645 605.71 603.645 898C603.645 1190.29 841.269 1428.35 1134 1428.35Z"/><path d="M1134 434.656C1389.26 434.656 1597.34 642.301 1597.34 898C1597.34 1153.7 1389.7 1361.34 1134 1361.34C878.742 1361.34 670.656 1153.7 670.656 898C670.656 642.301 878.301 434.656 1134 434.656ZM1134 1336.66C1376.03 1336.66 1572.66 1139.59 1572.66 898C1572.66 656.408 1375.59 459.344 1134 459.344C891.968 459.344 695.344 656.408 695.344 898C695.344 1139.59 891.968 1336.66 1134 1336.66Z"/><path d="M1134 526.354C1339 526.354 1505.65 693 1505.65 898C1505.65 1103 1339 1269.64 1134 1269.64C929 1269.64 762.355 1103 762.355 898C762.355 693 929 526.354 1134 526.354ZM1134 1244.96C1325.33 1244.96 1481.4 1089.33 1481.4 897.559C1481.4 706.225 1325.77 550.161 1134 550.161C942.667 550.161 786.602 705.785 786.602 897.559C786.602 1089.33 942.226 1244.96 1134 1244.96Z"/><path d="M1134 617.613C1288.3 617.613 1414.39 743.258 1414.39 898C1414.39 1052.74 1288.74 1178.39 1134 1178.39C979.699 1178.39 853.613 1052.74 853.613 898C853.613 743.258 979.258 617.613 1134 617.613ZM1134 1153.7C1275.08 1153.7 1389.7 1039.08 1389.7 898C1389.7 756.925 1275.08 642.301 1134 642.301C992.925 642.301 878.301 756.925 878.301 898C878.301 1039.08 992.925 1153.7 1134 1153.7Z"/><path d="M1134 709.312C1238.04 709.312 1322.69 793.957 1322.69 898C1322.69 1002.04 1238.04 1086.69 1134 1086.69C1029.96 1086.69 945.312 1002.04 945.312 898C945.312 793.957 1029.96 709.312 1134 709.312ZM1134 1062C1224.38 1062 1298.44 988.377 1298.44 897.559C1298.44 807.183 1224.82 733.118 1134 733.118C1043.62 733.118 969.559 806.742 969.559 897.559C969.559 988.377 1043.18 1062 1134 1062Z"/><path d="M1134 800.57C1187.34 800.57 1230.99 844.215 1230.99 897.56C1230.99 950.904 1187.34 994.549 1134 994.549C1080.66 994.549 1037.01 950.904 1037.01 897.56C1036.57 844.215 1080.22 800.57 1134 800.57ZM1134 970.742C1174.12 970.742 1206.74 938.119 1206.74 898C1206.74 857.882 1174.12 825.258 1134 825.258C1093.88 825.258 1061.26 857.882 1061.26 898C1061.26 938.119 1093.88 970.742 1134 970.742Z"/></g><g><path d="M178.635 139.281L184.422 144.246V166.626H215.704L219.958 172.147L215.69 177.397H184.422V198.795L178.635 203.747L173 198.795V144.232L178.635 139.281ZM195.554 195.68H219.406L223.397 200.915L219.143 206.45H195.554L191.7 201.342L195.554 195.68ZM196.382 138H219.129L223.383 143.52L219.129 148.77H196.659L192.115 143.677L196.382 138ZM323.155 148.628L328.251 154.291L323.155 159.968H246.13L241.172 154.291L246.13 148.628H323.155ZM237.043 172.147L241.849 167.893L246.669 172.147V178.393C246.669 188.879 249.417 197.515 261.668 197.515H264.14C275.147 197.515 281.197 189.86 281.197 177.952V172.005L285.879 167.75L290.699 171.862V178.379C290.699 189.007 293.723 196.946 305.56 196.946H307.618C319.178 196.946 321.235 187.869 321.373 177.952V171.578L326.056 167.608L331 171.72V178.094C330.862 191.838 327.285 207.574 308.032 207.574H305.974C294.552 207.574 288.365 202.324 285.892 195.808C283.006 202.466 275.299 208.286 264.844 208.286H262.358C242.553 208.286 237.194 195.964 237.056 178.663V172.147H237.043ZM276.391 274.744L273.642 267.089L280.796 264.969L305.974 276.721V252.491L311.07 248.095L316.291 252.491V281.829L325.641 286.226L328.251 293.311L320.959 296L276.391 274.744ZM321.235 223.011L328.113 226.27L325.917 233.497L264.002 263.119L256.571 260.146L259.596 252.776L321.235 223.011ZM231.905 263.404L237.954 268.512C237.402 286.51 222.403 296 204.669 296H202.874C194.062 296 183.759 292.6 177.157 286.083L177.834 278.855L184.298 278.002C189.118 282.256 195.858 285.229 202.183 285.229H204.117C216.091 285.229 225.303 280.136 226.27 268.085L231.905 263.404ZM226.256 251.638C225.704 239.16 216.629 234.209 204.103 234.209H202.169C194.739 234.209 189.104 237.182 184.284 241.436L177.834 240.583L177.143 233.355C183.745 226.696 192.957 223.58 202.597 223.58H204.517C222.403 223.58 237.402 232.942 237.94 251.211L231.891 256.176L226.256 251.638Z" fill="#ffffff"/></g><path d="M1171 781L1171 339L1187 339L1187 781L1171 781Z" fill="#ffffff"/><g fill="#ffffff" id="info-group"><path d="M167.6400 555L159.1800 555Q158.2800 555 157.6500 554.3700Q157.0200 553.7400 157.0200 552.8400L157.0200 552.8400L157.0200 494.1600Q157.0200 493.2600 157.6500 492.6300Q158.2800 492 159.1800 492L159.1800 492L167.6400 492Q168.6300 492 169.2150 492.6300Q169.8000 493.2600 169.8000 494.1600L169.8000 494.1600L169.8000 552.8400Q169.8000 553.7400 169.2150 554.3700Q168.6300 555 167.6400 555L167.6400 555ZM192.9300 555L185.0100 555Q184.1100 555 183.4800 554.3700Q182.8500 553.7400 182.8500 552.8400L182.8500 552.8400L182.8500 510.3600Q182.8500 509.4600 183.4800 508.8300Q184.1100 508.2000 185.0100 508.2000L185.0100 508.2000L192.3900 508.2000Q193.2900 508.2000 193.9200 508.8300Q194.5500 509.4600 194.5500 510.3600L194.5500 510.3600L194.5500 514.0500Q196.8900 511.1700 200.5350 509.2350Q204.1800 507.3000 209.5800 507.3000L209.5800 507.3000Q215.0700 507.3000 219.1200 509.7750Q223.1700 512.2500 225.3750 516.7500Q227.5800 521.2500 227.5800 527.5500L227.5800 527.5500L227.5800 552.8400Q227.5800 553.7400 226.9500 554.3700Q226.3200 555 225.4200 555L225.4200 555L217.5000 555Q216.6000 555 215.9700 554.3700Q215.3400 553.7400 215.3400 552.8400L215.3400 552.8400L215.3400 528.0900Q215.3400 522.8700 212.7750 519.9000Q210.2100 516.9300 205.3500 516.9300L205.3500 516.9300Q200.6700 516.9300 197.8800 519.9000Q195.0900 522.8700 195.0900 528.0900L195.0900 528.0900L195.0900 552.8400Q195.0900 553.7400 194.4600 554.3700Q193.8300 555 192.9300 555L192.9300 555ZM267.4500 555L260.1600 555Q254.7600 555 251.0700 553.1100Q247.3800 551.2200 245.5800 547.4850Q243.7800 543.7500 243.7800 538.1700L243.7800 538.1700L243.7800 517.7400L236.6700 517.7400Q235.7700 517.7400 235.1400 517.1100Q234.5100 516.4800 234.5100 515.4900L234.5100 515.4900L234.5100 510.3600Q234.5100 509.4600 235.1400 508.8300Q235.7700 508.2000 236.6700 508.2000L236.6700 508.2000L243.7800 508.2000L243.7800 493.2600Q243.7800 492.3600 244.3650 491.7300Q244.9500 491.1000 245.9400 491.1000L245.9400 491.1000L253.2300 491.1000Q254.1300 491.1000 254.7600 491.7300Q255.3900 492.3600 255.3900 493.2600L255.3900 493.2600L255.3900 508.2000L266.6400 508.2000Q267.5400 508.2000 268.1700 508.8300Q268.8000 509.4600 268.8000 510.3600L268.8000 510.3600L268.8000 515.4900Q268.8000 516.4800 268.1700 517.1100Q267.5400 517.7400 266.6400 517.7400L266.6400 517.7400L255.3900 517.7400L255.3900 537.2700Q255.3900 540.9600 256.6950 543.0300Q258 545.1000 261.2400 545.1000L261.2400 545.1000L267.4500 545.1000Q268.3500 545.1000 268.9800 545.7300Q269.6100 546.3600 269.6100 547.2600L269.6100 547.2600L269.6100 552.8400Q269.6100 553.7400 268.9800 554.3700Q268.3500 555 267.4500 555L267.4500 555ZM287.6100 555L279.7800 555Q278.8800 555 278.2500 554.3700Q277.6200 553.7400 277.6200 552.8400L277.6200 552.8400L277.6200 510.4500Q277.6200 509.4600 278.2500 508.8300Q278.8800 508.2000 279.7800 508.2000L279.7800 508.2000L287.0700 508.2000Q287.9700 508.2000 288.6450 508.8300Q289.3200 509.4600 289.3200 510.4500L289.3200 510.4500L289.3200 514.1400Q291.3900 511.2600 294.6750 509.7300Q297.9600 508.2000 302.2800 508.2000L302.2800 508.2000L305.9700 508.2000Q306.9600 508.2000 307.5450 508.8300Q308.1300 509.4600 308.1300 510.3600L308.1300 510.3600L308.1300 516.8400Q308.1300 517.7400 307.5450 518.3700Q306.9600 519 305.9700 519L305.9700 519L298.9500 519Q294.6300 519 292.2450 521.3850Q289.8600 523.7700 289.8600 528.0900L289.8600 528.0900L289.8600 552.8400Q289.8600 553.7400 289.2300 554.3700Q288.6000 555 287.6100 555L287.6100 555ZM335.8500 555.9000L335.8500 555.9000Q328.6500 555.9000 323.7450 553.3800Q318.8400 550.8600 316.2750 546.2700Q313.7100 541.6800 313.3500 535.5600L313.3500 535.5600Q313.2600 533.9400 313.2600 531.6000Q313.2600 529.2600 313.3500 527.6400L313.3500 527.6400Q313.7100 521.4300 316.3650 516.8850Q319.0200 512.3400 323.9250 509.8200Q328.8300 507.3000 335.8500 507.3000L335.8500 507.3000Q342.8700 507.3000 347.7750 509.8200Q352.6800 512.3400 355.3350 516.8850Q357.9900 521.4300 358.3500 527.6400L358.3500 527.6400Q358.4400 529.2600 358.4400 531.6000Q358.4400 533.9400 358.3500 535.5600L358.3500 535.5600Q357.9900 541.6800 355.4250 546.2700Q352.8600 550.8600 347.9550 553.3800Q343.0500 555.9000 335.8500 555.9000ZM335.8500 546.9900L335.8500 546.9900Q340.6200 546.9900 343.2300 543.9750Q345.8400 540.9600 346.1100 535.1100L346.1100 535.1100Q346.2000 533.7600 346.2000 531.6000Q346.2000 529.4400 346.1100 528.0900L346.1100 528.0900Q345.8400 522.2400 343.2300 519.2250Q340.6200 516.2100 335.8500 516.2100L335.8500 516.2100Q331.0800 516.2100 328.4700 519.2250Q325.8600 522.2400 325.5900 528.0900L325.5900 528.0900Q325.5000 529.4400 325.5000 531.6000Q325.5000 533.7600 325.5900 535.1100L325.5900 535.1100Q325.8600 540.9600 328.4700 543.9750Q331.0800 546.9900 335.8500 546.9900ZM385.8000 555.9000L385.8000 555.9000Q381.1200 555.9000 377.5650 554.3250Q374.0100 552.7500 371.6700 549.8700Q369.3300 546.9900 368.0700 543.0750Q366.8100 539.1600 366.6300 534.4800L366.6300 534.4800Q366.5400 532.8600 366.5400 531.5550Q366.5400 530.2500 366.6300 528.6300L366.6300 528.6300Q366.8100 524.1300 368.0250 520.2600Q369.2400 516.3900 371.6250 513.4650Q374.0100 510.5400 377.5650 508.9200Q381.1200 507.3000 385.8000 507.3000L385.8000 507.3000Q390.6600 507.3000 394.0350 508.9650Q397.4100 510.6300 399.6600 513.2400L399.6600 513.2400L399.6600 493.2600Q399.6600 492.3600 400.2450 491.7300Q400.8300 491.1000 401.8200 491.1000L401.8200 491.1000L409.4700 491.1000Q410.3700 491.1000 411 491.7300Q411.6300 492.3600 411.6300 493.2600L411.6300 493.2600L411.6300 552.8400Q411.6300 553.7400 411 554.3700Q410.3700 555 409.4700 555L409.4700 555L402.3600 555Q401.3700 555 400.7850 554.3700Q400.2000 553.7400 400.2000 552.8400L400.2000 552.8400L400.2000 549.5100Q397.9500 552.3000 394.4850 554.1000Q391.0200 555.9000 385.8000 555.9000ZM389.1300 546.2700L389.1300 546.2700Q392.9100 546.2700 395.1600 544.5600Q397.4100 542.8500 398.4900 540.1950Q399.5700 537.5400 399.6600 534.7500L399.6600 534.7500Q399.7500 533.1300 399.7500 531.2850Q399.7500 529.4400 399.6600 527.8200L399.6600 527.8200Q399.5700 525.1200 398.4000 522.6450Q397.2300 520.1700 394.9800 518.5500Q392.7300 516.9300 389.1300 516.9300L389.1300 516.9300Q385.3500 516.9300 383.1450 518.5950Q380.9400 520.2600 379.9500 522.9600Q378.9600 525.6600 378.7800 528.9000L378.7800 528.9000Q378.6900 531.6000 378.7800 534.3000L378.7800 534.3000Q378.9600 537.5400 379.9500 540.2400Q380.9400 542.9400 383.1450 544.6050Q385.3500 546.2700 389.1300 546.2700ZM440.9700 555.9000L440.9700 555.9000Q435.4800 555.9000 431.4750 553.4250Q427.4700 550.9500 425.3100 546.4050Q423.1500 541.8600 423.1500 535.6500L423.1500 535.6500L423.1500 510.3600Q423.1500 509.4600 423.7800 508.8300Q424.4100 508.2000 425.3100 508.2000L425.3100 508.2000L433.2300 508.2000Q434.2200 508.2000 434.8050 508.8300Q435.3900 509.4600 435.3900 510.3600L435.3900 510.3600L435.3900 535.1100Q435.3900 546.2700 445.2000 546.2700L445.2000 546.2700Q449.8800 546.2700 452.6250 543.3000Q455.3700 540.3300 455.3700 535.1100L455.3700 535.1100L455.3700 510.3600Q455.3700 509.4600 456 508.8300Q456.6300 508.2000 457.5300 508.2000L457.5300 508.2000L465.4500 508.2000Q466.3500 508.2000 466.9800 508.8300Q467.6100 509.4600 467.6100 510.3600L467.6100 510.3600L467.6100 552.8400Q467.6100 553.7400 466.9800 554.3700Q466.3500 555 465.4500 555L465.4500 555L458.1600 555Q457.1700 555 456.5850 554.3700Q456 553.7400 456 552.8400L456 552.8400L456 549.1500Q453.5700 552.3000 449.9700 554.1000Q446.3700 555.9000 440.9700 555.9000ZM499.6500 574.8000L499.6500 574.8000Q497.1300 574.7100 495.1950 573.9000Q493.2600 573.0900 492.4050 572.0100Q491.5500 570.9300 492.4500 570.2100L492.4500 570.2100L493.9800 568.8600Q494.7900 568.1400 495.3750 568.4550Q495.9600 568.7700 496.9050 569.3550Q497.8500 569.9400 499.6500 569.9400L499.6500 569.9400Q501 569.9400 501.9900 569.0850Q502.9800 568.2300 502.9800 566.8800L502.9800 566.8800Q502.9800 565.6200 502.0350 564.8100Q501.0900 564 499.6500 564L499.6500 564Q498.3900 564 497.4900 564.3150Q496.5900 564.6300 495.8700 564.7650Q495.1500 564.9000 494.4300 564.1800L494.4300 564.1800L492.8100 562.5600Q492.2700 561.9300 492.4500 561.2550Q492.6300 560.5800 492.9900 559.7700L492.9900 559.7700L494.8800 555.4500Q487.1400 554.2800 482.5500 549.0150Q477.9600 543.7500 477.6900 535.2000L477.6900 535.2000Q477.6000 533.8500 477.6000 531.6450Q477.6000 529.4400 477.6900 528L477.6900 528Q477.9600 521.4300 480.7050 516.7950Q483.4500 512.1600 488.3550 509.7300Q493.2600 507.3000 499.7400 507.3000L499.7400 507.3000Q505.5000 507.3000 509.5500 508.8750Q513.6000 510.4500 516.2100 512.9250Q518.8200 515.4000 520.1250 518.0550Q521.4300 520.7100 521.5200 522.8700L521.5200 522.8700Q521.6100 523.8600 520.9350 524.4450Q520.2600 525.0300 519.3600 525.0300L519.3600 525.0300L511.4400 525.0300Q510.5400 525.0300 510.0450 524.5800Q509.5500 524.1300 509.1000 523.2300L509.1000 523.2300Q507.7500 519.6300 505.5450 518.1450Q503.3400 516.6600 499.9200 516.6600L499.9200 516.6600Q495.4200 516.6600 492.7650 519.4950Q490.1100 522.3300 489.9300 528.4500L489.9300 528.4500Q489.7500 531.8700 489.9300 534.7500L489.9300 534.7500Q490.1100 540.9600 492.7650 543.7500Q495.4200 546.5400 499.9200 546.5400L499.9200 546.5400Q503.4300 546.5400 505.5900 545.0550Q507.7500 543.5700 509.1000 539.9700L509.1000 539.9700Q509.5500 539.0700 510.0450 538.6200Q510.5400 538.1700 511.4400 538.1700L511.4400 538.1700L519.3600 538.1700Q520.2600 538.1700 520.9350 538.7550Q521.6100 539.3400 521.5200 540.3300L521.5200 540.3300Q521.4300 542.3100 520.1700 544.9650Q518.9100 547.6200 516.3900 550.0950Q513.8700 552.5700 509.8200 554.2350Q505.7700 555.9000 500.0100 555.9000L500.0100 555.9000L498.1200 559.7700Q498.6600 559.5000 499.6050 559.3200Q500.5500 559.1400 501.2700 559.1400L501.2700 559.1400Q504.4200 559.1400 506.3550 561.3000Q508.2900 563.4600 508.2900 566.7900L508.2900 566.7900Q508.2900 570.2100 506.0400 572.5500Q503.7900 574.8900 499.6500 574.8000ZM544.4700 555.9000L544.4700 555.9000Q539.7900 555.9000 536.0100 554.0550Q532.2300 552.2100 530.0250 549.1050Q527.8200 546 527.8200 542.1300L527.8200 542.1300Q527.8200 535.8300 532.9500 532.0950Q538.0800 528.3600 546.3600 527.1000L546.3600 527.1000L558.6900 525.3000L558.6900 523.4100Q558.6900 519.6300 556.8000 517.5600Q554.9100 515.4900 550.3200 515.4900L550.3200 515.4900Q547.0800 515.4900 545.0550 516.7950Q543.0300 518.1000 542.0400 520.2600L542.0400 520.2600Q541.3200 521.4300 539.9700 521.4300L539.9700 521.4300L532.8600 521.4300Q531.8700 521.4300 531.3750 520.8900Q530.8800 520.3500 530.8800 519.4500L530.8800 519.4500Q530.9700 518.0100 532.0950 515.9400Q533.2200 513.8700 535.5150 511.9350Q537.8100 510 541.5000 508.6500Q545.1900 507.3000 550.4100 507.3000L550.4100 507.3000Q556.0800 507.3000 559.9950 508.6950Q563.9100 510.0900 566.2500 512.4300Q568.5900 514.7700 569.6700 517.9200Q570.7500 521.0700 570.7500 524.5800L570.7500 524.5800L570.7500 552.8400Q570.7500 553.7400 570.1200 554.3700Q569.4900 555 568.5900 555L568.5900 555L561.3000 555Q560.3100 555 559.7250 554.3700Q559.1400 553.7400 559.1400 552.8400L559.1400 552.8400L559.1400 549.3300Q557.9700 550.9500 555.9900 552.4800Q554.0100 554.0100 551.1750 554.9550Q548.3400 555.9000 544.4700 555.9000ZM547.5300 547.3500L547.5300 547.3500Q550.6800 547.3500 553.2450 546Q555.8100 544.6500 557.2950 541.8150Q558.7800 538.9800 558.7800 534.6600L558.7800 534.6600L558.7800 532.7700L549.7800 534.2100Q544.4700 535.0200 541.8600 536.8200Q539.2500 538.6200 539.2500 541.2300L539.2500 541.2300Q539.2500 543.2100 540.4650 544.6050Q541.6800 546 543.5700 546.6750Q545.4600 547.3500 547.5300 547.3500ZM555.3600 501.9000L555.3600 501.9000Q553.0200 501.9000 551.5800 501.1350Q550.1400 500.3700 548.9250 499.5600Q547.7100 498.7500 546.2700 498.7500L546.2700 498.7500Q545.1000 498.7500 544.6050 499.4250Q544.1100 500.1000 543.6600 500.7750Q543.2100 501.4500 542.2200 501.4500L542.2200 501.4500L538.0800 501.4500Q537.4500 501.4500 537 501Q536.5500 500.5500 536.5500 499.9200L536.5500 499.9200Q536.5500 498.5700 537.0450 496.9050Q537.5400 495.2400 538.6200 493.7100Q539.7000 492.1800 541.3650 491.2350Q543.0300 490.2900 545.2800 490.2900L545.2800 490.2900Q547.7100 490.2900 549.1500 491.0550Q550.5900 491.8200 551.8050 492.6300Q553.0200 493.4400 554.4600 493.4400L554.4600 493.4400Q555.6300 493.4400 556.1250 492.7200Q556.6200 492 557.0700 491.3250Q557.5200 490.6500 558.5100 490.6500L558.5100 490.6500L562.6500 490.6500Q563.3700 490.6500 563.7750 491.1450Q564.1800 491.6400 564.1800 492.2700L564.1800 492.2700Q564.1800 493.6200 563.6850 495.2850Q563.1900 496.9500 562.1100 498.4800Q561.0300 500.0100 559.3650 500.9550Q557.7000 501.9000 555.3600 501.9000ZM602.9700 555.9000L602.9700 555.9000Q595.7700 555.9000 590.8650 553.3800Q585.9600 550.8600 583.3950 546.2700Q580.8300 541.6800 580.4700 535.5600L580.4700 535.5600Q580.3800 533.9400 580.3800 531.6000Q580.3800 529.2600 580.4700 527.6400L580.4700 527.6400Q580.8300 521.4300 583.4850 516.8850Q586.1400 512.3400 591.0450 509.8200Q595.9500 507.3000 602.9700 507.3000L602.9700 507.3000Q609.9900 507.3000 614.8950 509.8200Q619.8000 512.3400 622.4550 516.8850Q625.1100 521.4300 625.4700 527.6400L625.4700 527.6400Q625.5600 529.2600 625.5600 531.6000Q625.5600 533.9400 625.4700 535.5600L625.4700 535.5600Q625.1100 541.6800 622.5450 546.2700Q619.9800 550.8600 615.0750 553.3800Q610.1700 555.9000 602.9700 555.9000ZM602.9700 546.9900L602.9700 546.9900Q607.7400 546.9900 610.3500 543.9750Q612.9600 540.9600 613.2300 535.1100L613.2300 535.1100Q613.3200 533.7600 613.3200 531.6000Q613.3200 529.4400 613.2300 528.0900L613.2300 528.0900Q612.9600 522.2400 610.3500 519.2250Q607.7400 516.2100 602.9700 516.2100L602.9700 516.2100Q598.2000 516.2100 595.5900 519.2250Q592.9800 522.2400 592.7100 528.0900L592.7100 528.0900Q592.6200 529.4400 592.6200 531.6000Q592.6200 533.7600 592.7100 535.1100L592.7100 535.1100Q592.9800 540.9600 595.5900 543.9750Q598.2000 546.9900 602.9700 546.9900ZM669.7500 555.9000L669.7500 555.9000Q665.0700 555.9000 661.2900 554.0550Q657.5100 552.2100 655.3050 549.1050Q653.1000 546 653.1000 542.1300L653.1000 542.1300Q653.1000 535.8300 658.2300 532.0950Q663.3600 528.3600 671.6400 527.1000L671.6400 527.1000L683.9700 525.3000L683.9700 523.4100Q683.9700 519.6300 682.0800 517.5600Q680.1900 515.4900 675.6000 515.4900L675.6000 515.4900Q672.3600 515.4900 670.3350 516.7950Q668.3100 518.1000 667.3200 520.2600L667.3200 520.2600Q666.6000 521.4300 665.2500 521.4300L665.2500 521.4300L658.1400 521.4300Q657.1500 521.4300 656.6550 520.8900Q656.1600 520.3500 656.1600 519.4500L656.1600 519.4500Q656.2500 518.0100 657.3750 515.9400Q658.5000 513.8700 660.7950 511.9350Q663.0900 510 666.7800 508.6500Q670.4700 507.3000 675.6900 507.3000L675.6900 507.3000Q681.3600 507.3000 685.2750 508.6950Q689.1900 510.0900 691.5300 512.4300Q693.8700 514.7700 694.9500 517.9200Q696.0300 521.0700 696.0300 524.5800L696.0300 524.5800L696.0300 552.8400Q696.0300 553.7400 695.4000 554.3700Q694.7700 555 693.8700 555L693.8700 555L686.5800 555Q685.5900 555 685.0050 554.3700Q684.4200 553.7400 684.4200 552.8400L684.4200 552.8400L684.4200 549.3300Q683.2500 550.9500 681.2700 552.4800Q679.2900 554.0100 676.4550 554.9550Q673.6200 555.9000 669.7500 555.9000ZM672.8100 547.3500L672.8100 547.3500Q675.9600 547.3500 678.5250 546Q681.0900 544.6500 682.5750 541.8150Q684.0600 538.9800 684.0600 534.6600L684.0600 534.6600L684.0600 532.7700L675.0600 534.2100Q669.7500 535.0200 667.1400 536.8200Q664.5300 538.6200 664.5300 541.2300L664.5300 541.2300Q664.5300 543.2100 665.7450 544.6050Q666.9600 546 668.8500 546.6750Q670.7400 547.3500 672.8100 547.3500ZM728.2500 555.9000L728.2500 555.9000Q721.0500 555.9000 716.1450 553.3800Q711.2400 550.8600 708.6750 546.2700Q706.1100 541.6800 705.7500 535.5600L705.7500 535.5600Q705.6600 533.9400 705.6600 531.6000Q705.6600 529.2600 705.7500 527.6400L705.7500 527.6400Q706.1100 521.4300 708.7650 516.8850Q711.4200 512.3400 716.3250 509.8200Q721.2300 507.3000 728.2500 507.3000L728.2500 507.3000Q735.2700 507.3000 740.1750 509.8200Q745.0800 512.3400 747.7350 516.8850Q750.3900 521.4300 750.7500 527.6400L750.7500 527.6400Q750.8400 529.2600 750.8400 531.6000Q750.8400 533.9400 750.7500 535.5600L750.7500 535.5600Q750.3900 541.6800 747.8250 546.2700Q745.2600 550.8600 740.3550 553.3800Q735.4500 555.9000 728.2500 555.9000ZM728.2500 546.9900L728.2500 546.9900Q733.0200 546.9900 735.6300 543.9750Q738.2400 540.9600 738.5100 535.1100L738.5100 535.1100Q738.6000 533.7600 738.6000 531.6000Q738.6000 529.4400 738.5100 528.0900L738.5100 528.0900Q738.2400 522.2400 735.6300 519.2250Q733.0200 516.2100 728.2500 516.2100L728.2500 516.2100Q723.4800 516.2100 720.8700 519.2250Q718.2600 522.2400 717.9900 528.0900L717.9900 528.0900Q717.9000 529.4400 717.9000 531.6000Q717.9000 533.7600 717.9900 535.1100L717.9900 535.1100Q718.2600 540.9600 720.8700 543.9750Q723.4800 546.9900 728.2500 546.9900ZM792.8700 555L784.6800 555Q783.7800 555 783.1500 554.3700Q782.5200 553.7400 782.5200 552.8400L782.5200 552.8400L782.5200 494.2500Q782.5200 493.2600 783.1500 492.6300Q783.7800 492 784.6800 492L784.6800 492L807.9900 492Q818.8800 492 825.1800 497.0400Q831.4800 502.0800 831.4800 511.7100L831.4800 511.7100Q831.4800 518.3700 828.1950 522.7800Q824.9100 527.1900 819.4200 529.1700L819.4200 529.1700L832.5600 552.1200Q832.8300 552.6600 832.8300 553.1100L832.8300 553.1100Q832.8300 553.9200 832.2450 554.4600Q831.6600 555 830.9400 555L830.9400 555L822.7500 555Q821.2200 555 820.4100 554.1900Q819.6000 553.3800 819.1500 552.5700L819.1500 552.5700L807.5400 531.2400L795.0300 531.2400L795.0300 552.8400Q795.0300 553.7400 794.4450 554.3700Q793.8600 555 792.8700 555L792.8700 555ZM795.0300 501.9900L795.0300 521.0700L807.7200 521.0700Q813.2100 521.0700 815.9100 518.5950Q818.6100 516.1200 818.6100 511.6200L818.6100 511.6200Q818.6100 507.1200 815.9550 504.5550Q813.3000 501.9900 807.7200 501.9900L807.7200 501.9900L795.0300 501.9900ZM862.1700 555.9000L862.1700 555.9000Q852.1800 555.9000 846.3300 550.1400Q840.4800 544.3800 840.0300 533.7600L840.0300 533.7600Q839.9400 532.8600 839.9400 531.4650Q839.9400 530.0700 840.0300 529.2600L840.0300 529.2600Q840.3900 522.4200 843.1350 517.5150Q845.8800 512.6100 850.7400 509.9550Q855.6000 507.3000 862.1700 507.3000L862.1700 507.3000Q869.4600 507.3000 874.4100 510.3150Q879.3600 513.3300 881.8800 518.6850Q884.4000 524.0400 884.4000 531.0600L884.4000 531.0600L884.4000 532.9500Q884.4000 533.8500 883.7700 534.4800Q883.1400 535.1100 882.1500 535.1100L882.1500 535.1100L852.2700 535.1100Q852.2700 535.1100 852.2700 535.3800Q852.2700 535.6500 852.2700 535.8300L852.2700 535.8300Q852.3600 538.9800 853.4850 541.6350Q854.6100 544.2900 856.8150 545.9100Q859.0200 547.5300 862.0800 547.5300L862.0800 547.5300Q864.6000 547.5300 866.3100 546.7650Q868.0200 546 869.1000 545.0100Q870.1800 544.0200 870.6300 543.3900L870.6300 543.3900Q871.4400 542.3100 871.9350 542.0850Q872.4300 541.8600 873.4200 541.8600L873.4200 541.8600L881.1600 541.8600Q882.0600 541.8600 882.6450 542.4000Q883.2300 542.9400 883.1400 543.7500L883.1400 543.7500Q883.0500 545.1900 881.6550 547.2600Q880.2600 549.3300 877.6500 551.3100Q875.0400 553.2900 871.1250 554.5950Q867.2100 555.9000 862.1700 555.9000ZM852.2700 527.2800L852.2700 527.5500L872.1600 527.5500L872.1600 527.2800Q872.1600 523.7700 870.9900 521.1150Q869.8200 518.4600 867.5700 516.9750Q865.3200 515.4900 862.1700 515.4900L862.1700 515.4900Q859.0200 515.4900 856.7700 516.9750Q854.5200 518.4600 853.3950 521.1150Q852.2700 523.7700 852.2700 527.2800L852.2700 527.2800ZM911.3100 555.9000L911.3100 555.9000Q906.6300 555.9000 903.0750 554.3250Q899.5200 552.7500 897.1800 549.8700Q894.8400 546.9900 893.5800 543.0750Q892.3200 539.1600 892.1400 534.4800L892.1400 534.4800Q892.0500 532.8600 892.0500 531.5550Q892.0500 530.2500 892.1400 528.6300L892.1400 528.6300Q892.3200 524.1300 893.5350 520.2600Q894.7500 516.3900 897.1350 513.4650Q899.5200 510.5400 903.0750 508.9200Q906.6300 507.3000 911.3100 507.3000L911.3100 507.3000Q916.1700 507.3000 919.5450 508.9650Q922.9200 510.6300 925.1700 513.2400L925.1700 513.2400L925.1700 493.2600Q925.1700 492.3600 925.7550 491.7300Q926.3400 491.1000 927.3300 491.1000L927.3300 491.1000L934.9800 491.1000Q935.8800 491.1000 936.5100 491.7300Q937.1400 492.3600 937.1400 493.2600L937.1400 493.2600L937.1400 552.8400Q937.1400 553.7400 936.5100 554.3700Q935.8800 555 934.9800 555L934.9800 555L927.8700 555Q926.8800 555 926.2950 554.3700Q925.7100 553.7400 925.7100 552.8400L925.7100 552.8400L925.7100 549.5100Q923.4600 552.3000 919.9950 554.1000Q916.5300 555.9000 911.3100 555.9000ZM914.6400 546.2700L914.6400 546.2700Q918.4200 546.2700 920.6700 544.5600Q922.9200 542.8500 924 540.1950Q925.0800 537.5400 925.1700 534.7500L925.1700 534.7500Q925.2600 533.1300 925.2600 531.2850Q925.2600 529.4400 925.1700 527.8200L925.1700 527.8200Q925.0800 525.1200 923.9100 522.6450Q922.7400 520.1700 920.4900 518.5500Q918.2400 516.9300 914.6400 516.9300L914.6400 516.9300Q910.8600 516.9300 908.6550 518.5950Q906.4500 520.2600 905.4600 522.9600Q904.4700 525.6600 904.2900 528.9000L904.2900 528.9000Q904.2000 531.6000 904.2900 534.3000L904.2900 534.3000Q904.4700 537.5400 905.4600 540.2400Q906.4500 542.9400 908.6550 544.6050Q910.8600 546.2700 914.6400 546.2700ZM966.4800 555.9000L966.4800 555.9000Q960.9900 555.9000 956.9850 553.4250Q952.9800 550.9500 950.8200 546.4050Q948.6600 541.8600 948.6600 535.6500L948.6600 535.6500L948.6600 510.3600Q948.6600 509.4600 949.2900 508.8300Q949.9200 508.2000 950.8200 508.2000L950.8200 508.2000L958.7400 508.2000Q959.7300 508.2000 960.3150 508.8300Q960.9000 509.4600 960.9000 510.3600L960.9000 510.3600L960.9000 535.1100Q960.9000 546.2700 970.7100 546.2700L970.7100 546.2700Q975.3900 546.2700 978.1350 543.3000Q980.8800 540.3300 980.8800 535.1100L980.8800 535.1100L980.8800 510.3600Q980.8800 509.4600 981.5100 508.8300Q982.1400 508.2000 983.0400 508.2000L983.0400 508.2000L990.9600 508.2000Q991.8600 508.2000 992.4900 508.8300Q993.1200 509.4600 993.1200 510.3600L993.1200 510.3600L993.1200 552.8400Q993.1200 553.7400 992.4900 554.3700Q991.8600 555 990.9600 555L990.9600 555L983.6700 555Q982.6800 555 982.0950 554.3700Q981.5100 553.7400 981.5100 552.8400L981.5100 552.8400L981.5100 549.1500Q979.0800 552.3000 975.4800 554.1000Q971.8800 555.9000 966.4800 555.9000ZM1010.9400 555L1003.0200 555Q1002.2100 555 1001.6250 554.4150Q1001.0400 553.8300 1001.0400 553.0200L1001.0400 553.0200Q1001.0400 552.7500 1001.1750 552.3900Q1001.3100 552.0300 1001.6700 551.4900L1001.6700 551.4900L1016.9700 530.9700L1002.7500 511.7100Q1002.4800 511.2600 1002.3450 510.9000Q1002.2100 510.5400 1002.2100 510.1800L1002.2100 510.1800Q1002.2100 509.3700 1002.7950 508.7850Q1003.3800 508.2000 1004.1900 508.2000L1004.1900 508.2000L1012.0200 508.2000Q1013.1000 508.2000 1013.6400 508.7400Q1014.1800 509.2800 1014.4500 509.7300L1014.4500 509.7300L1024.6200 523.2300L1034.7900 509.7300Q1035.1500 509.2800 1035.6450 508.7400Q1036.1400 508.2000 1037.2200 508.2000L1037.2200 508.2000L1044.6900 508.2000Q1045.5000 508.2000 1046.0850 508.7850Q1046.6700 509.3700 1046.6700 510.0900L1046.6700 510.0900Q1046.6700 510.5400 1046.5350 510.9000Q1046.4000 511.2600 1046.1300 511.7100L1046.1300 511.7100L1031.7300 531.1500L1047.1200 551.4900Q1047.4800 552.0300 1047.6150 552.3900Q1047.7500 552.7500 1047.7500 553.0200L1047.7500 553.0200Q1047.7500 553.8300 1047.1650 554.4150Q1046.5800 555 1045.7700 555L1045.7700 555L1037.5800 555Q1036.5900 555 1036.0500 554.5050Q1035.5100 554.0100 1035.1500 553.5600L1035.1500 553.5600L1024.3500 539.2500L1013.3700 553.5600Q1013.0100 554.0100 1012.5150 554.5050Q1012.0200 555 1010.9400 555L1010.9400 555ZM176.1900 645.9000L176.1900 645.9000Q169.7100 645.9000 164.8050 643.4700Q159.9000 641.0400 157.1550 636.4050Q154.4100 631.7700 154.1400 625.2000L154.1400 625.2000Q154.0500 623.8500 154.0500 621.6450Q154.0500 619.4400 154.1400 618L154.1400 618Q154.4100 611.4300 157.1550 606.7950Q159.9000 602.1600 164.8050 599.7300Q169.7100 597.3000 176.1900 597.3000L176.1900 597.3000Q181.9500 597.3000 186 598.8750Q190.0500 600.4500 192.6600 602.9250Q195.2700 605.4000 196.5750 608.0550Q197.8800 610.7100 197.9700 612.8700L197.9700 612.8700Q198.0600 613.8600 197.3850 614.4450Q196.7100 615.0300 195.8100 615.0300L195.8100 615.0300L187.8900 615.0300Q186.9900 615.0300 186.4950 614.5800Q186 614.1300 185.5500 613.2300L185.5500 613.2300Q184.2000 609.6300 181.9950 608.1450Q179.7900 606.6600 176.3700 606.6600L176.3700 606.6600Q171.8700 606.6600 169.2150 609.4950Q166.5600 612.3300 166.3800 618.4500L166.3800 618.4500Q166.2000 621.8700 166.3800 624.7500L166.3800 624.7500Q166.5600 630.9600 169.2150 633.7500Q171.8700 636.5400 176.3700 636.5400L176.3700 636.5400Q179.8800 636.5400 182.0400 635.0550Q184.2000 633.5700 185.5500 629.9700L185.5500 629.9700Q186 629.0700 186.4950 628.6200Q186.9900 628.1700 187.8900 628.1700L187.8900 628.1700L195.8100 628.1700Q196.7100 628.1700 197.3850 628.7550Q198.0600 629.3400 197.9700 630.3300L197.9700 630.3300Q197.8800 631.9500 197.1150 633.9750Q196.3500 636 194.6850 638.1150Q193.0200 640.2300 190.5000 641.9850Q187.9800 643.7400 184.4250 644.8200Q180.8700 645.9000 176.1900 645.9000ZM228.0300 645.9000L228.0300 645.9000Q220.8300 645.9000 215.9250 643.3800Q211.0200 640.8600 208.4550 636.2700Q205.8900 631.6800 205.5300 625.5600L205.5300 625.5600Q205.4400 623.9400 205.4400 621.6000Q205.4400 619.2600 205.5300 617.6400L205.5300 617.6400Q205.8900 611.4300 208.5450 606.8850Q211.2000 602.3400 216.1050 599.8200Q221.0100 597.3000 228.0300 597.3000L228.0300 597.3000Q235.0500 597.3000 239.9550 599.8200Q244.8600 602.3400 247.5150 606.8850Q250.1700 611.4300 250.5300 617.6400L250.5300 617.6400Q250.6200 619.2600 250.6200 621.6000Q250.6200 623.9400 250.5300 625.5600L250.5300 625.5600Q250.1700 631.6800 247.6050 636.2700Q245.0400 640.8600 240.1350 643.3800Q235.2300 645.9000 228.0300 645.9000ZM228.0300 636.9900L228.0300 636.9900Q232.8000 636.9900 235.4100 633.9750Q238.0200 630.9600 238.2900 625.1100L238.2900 625.1100Q238.3800 623.7600 238.3800 621.6000Q238.3800 619.4400 238.2900 618.0900L238.2900 618.0900Q238.0200 612.2400 235.4100 609.2250Q232.8000 606.2100 228.0300 606.2100L228.0300 606.2100Q223.2600 606.2100 220.6500 609.2250Q218.0400 612.2400 217.7700 618.0900L217.7700 618.0900Q217.6800 619.4400 217.6800 621.6000Q217.6800 623.7600 217.7700 625.1100L217.7700 625.1100Q218.0400 630.9600 220.6500 633.9750Q223.2600 636.9900 228.0300 636.9900ZM270.3300 645L262.7700 645Q261.8700 645 261.2400 644.3700Q260.6100 643.7400 260.6100 642.8400L260.6100 642.8400L260.6100 600.3600Q260.6100 599.4600 261.2400 598.8300Q261.8700 598.2000 262.7700 598.2000L262.7700 598.2000L269.7900 598.2000Q270.6900 598.2000 271.3200 598.8300Q271.9500 599.4600 271.9500 600.3600L271.9500 600.3600L271.9500 603.4200Q273.8400 600.9000 277.0350 599.1450Q280.2300 597.3900 284.6400 597.3000L284.6400 597.3000Q294.9000 597.1200 298.9500 605.3100L298.9500 605.3100Q301.0200 601.7100 304.9350 599.5050Q308.8500 597.3000 313.6200 597.3000L313.6200 597.3000Q318.3000 597.3000 322.1250 599.4600Q325.9500 601.6200 328.1550 605.9850Q330.3600 610.3500 330.3600 617.0100L330.3600 617.0100L330.3600 642.8400Q330.3600 643.7400 329.7300 644.3700Q329.1000 645 328.2000 645L328.2000 645L320.8200 645Q319.9200 645 319.2900 644.3700Q318.6600 643.7400 318.6600 642.8400L318.6600 642.8400L318.6600 617.7300Q318.6600 613.6800 317.4900 611.2950Q316.3200 608.9100 314.3400 607.9200Q312.3600 606.9300 309.9300 606.9300L309.9300 606.9300Q307.9500 606.9300 305.9700 607.9200Q303.9900 608.9100 302.7300 611.2950Q301.4700 613.6800 301.4700 617.7300L301.4700 617.7300L301.4700 642.8400Q301.4700 643.7400 300.8400 644.3700Q300.2100 645 299.3100 645L299.3100 645L291.9300 645Q291.0300 645 290.4000 644.3700Q289.7700 643.7400 289.7700 642.8400L289.7700 642.8400L289.7700 617.7300Q289.7700 613.6800 288.5100 611.2950Q287.2500 608.9100 285.2700 607.9200Q283.2900 606.9300 281.0400 606.9300L281.0400 606.9300Q278.9700 606.9300 276.9900 607.9650Q275.0100 609 273.7500 611.3400Q272.4900 613.6800 272.4900 617.7300L272.4900 617.7300L272.4900 642.8400Q272.4900 643.7400 271.8600 644.3700Q271.2300 645 270.3300 645L270.3300 645ZM373.8300 645L365.6400 645Q364.7400 645 364.1100 644.3700Q363.4800 643.7400 363.4800 642.8400L363.4800 642.8400L363.4800 584.2500Q363.4800 583.2600 364.1100 582.6300Q364.7400 582 365.6400 582L365.6400 582L388.9500 582Q399.8400 582 406.1400 587.0400Q412.4400 592.0800 412.4400 601.7100L412.4400 601.7100Q412.4400 608.3700 409.1550 612.7800Q405.8700 617.1900 400.3800 619.1700L400.3800 619.1700L413.5200 642.1200Q413.7900 642.6600 413.7900 643.1100L413.7900 643.1100Q413.7900 643.9200 413.2050 644.4600Q412.6200 645 411.9000 645L411.9000 645L403.7100 645Q402.1800 645 401.3700 644.1900Q400.5600 643.3800 400.1100 642.5700L400.1100 642.5700L388.5000 621.2400L375.9900 621.2400L375.9900 642.8400Q375.9900 643.7400 375.4050 644.3700Q374.8200 645 373.8300 645L373.8300 645ZM375.9900 591.9900L375.9900 611.0700L388.6800 611.0700Q394.1700 611.0700 396.8700 608.5950Q399.5700 606.1200 399.5700 601.6200L399.5700 601.6200Q399.5700 597.1200 396.9150 594.5550Q394.2600 591.9900 388.6800 591.9900L388.6800 591.9900L375.9900 591.9900ZM443.1300 645.9000L443.1300 645.9000Q433.1400 645.9000 427.2900 640.1400Q421.4400 634.3800 420.9900 623.7600L420.9900 623.7600Q420.9000 622.8600 420.9000 621.4650Q420.9000 620.0700 420.9900 619.2600L420.9900 619.2600Q421.3500 612.4200 424.0950 607.5150Q426.8400 602.6100 431.7000 599.9550Q436.5600 597.3000 443.1300 597.3000L443.1300 597.3000Q450.4200 597.3000 455.3700 600.3150Q460.3200 603.3300 462.8400 608.6850Q465.3600 614.0400 465.3600 621.0600L465.3600 621.0600L465.3600 622.9500Q465.3600 623.8500 464.7300 624.4800Q464.1000 625.1100 463.1100 625.1100L463.1100 625.1100L433.2300 625.1100Q433.2300 625.1100 433.2300 625.3800Q433.2300 625.6500 433.2300 625.8300L433.2300 625.8300Q433.3200 628.9800 434.4450 631.6350Q435.5700 634.2900 437.7750 635.9100Q439.9800 637.5300 443.0400 637.5300L443.0400 637.5300Q445.5600 637.5300 447.2700 636.7650Q448.9800 636 450.0600 635.0100Q451.1400 634.0200 451.5900 633.3900L451.5900 633.3900Q452.4000 632.3100 452.8950 632.0850Q453.3900 631.8600 454.3800 631.8600L454.3800 631.8600L462.1200 631.8600Q463.0200 631.8600 463.6050 632.4000Q464.1900 632.9400 464.1000 633.7500L464.1000 633.7500Q464.0100 635.1900 462.6150 637.2600Q461.2200 639.3300 458.6100 641.3100Q456 643.2900 452.0850 644.5950Q448.1700 645.9000 443.1300 645.9000ZM433.2300 617.2800L433.2300 617.5500L453.1200 617.5500L453.1200 617.2800Q453.1200 613.7700 451.9500 611.1150Q450.7800 608.4600 448.5300 606.9750Q446.2800 605.4900 443.1300 605.4900L443.1300 605.4900Q439.9800 605.4900 437.7300 606.9750Q435.4800 608.4600 434.3550 611.1150Q433.2300 613.7700 433.2300 617.2800L433.2300 617.2800ZM488.4900 645.9000L488.4900 645.9000Q483.8100 645.9000 480.0300 644.0550Q476.2500 642.2100 474.0450 639.1050Q471.8400 636 471.8400 632.1300L471.8400 632.1300Q471.8400 625.8300 476.9700 622.0950Q482.1000 618.3600 490.3800 617.1000L490.3800 617.1000L502.7100 615.3000L502.7100 613.4100Q502.7100 609.6300 500.8200 607.5600Q498.9300 605.4900 494.3400 605.4900L494.3400 605.4900Q491.1000 605.4900 489.0750 606.7950Q487.0500 608.1000 486.0600 610.2600L486.0600 610.2600Q485.3400 611.4300 483.9900 611.4300L483.9900 611.4300L476.8800 611.4300Q475.8900 611.4300 475.3950 610.8900Q474.9000 610.3500 474.9000 609.4500L474.9000 609.4500Q474.9900 608.0100 476.1150 605.9400Q477.2400 603.8700 479.5350 601.9350Q481.8300 600 485.5200 598.6500Q489.2100 597.3000 494.4300 597.3000L494.4300 597.3000Q500.1000 597.3000 504.0150 598.6950Q507.9300 600.0900 510.2700 602.4300Q512.6100 604.7700 513.6900 607.9200Q514.7700 611.0700 514.7700 614.5800L514.7700 614.5800L514.7700 642.8400Q514.7700 643.7400 514.1400 644.3700Q513.5100 645 512.6100 645L512.6100 645L505.3200 645Q504.3300 645 503.7450 644.3700Q503.1600 643.7400 503.1600 642.8400L503.1600 642.8400L503.1600 639.3300Q501.9900 640.9500 500.0100 642.4800Q498.0300 644.0100 495.1950 644.9550Q492.3600 645.9000 488.4900 645.9000ZM491.5500 637.3500L491.5500 637.3500Q494.7000 637.3500 497.2650 636Q499.8300 634.6500 501.3150 631.8150Q502.8000 628.9800 502.8000 624.6600L502.8000 624.6600L502.8000 622.7700L493.8000 624.2100Q488.4900 625.0200 485.8800 626.8200Q483.2700 628.6200 483.2700 631.2300L483.2700 631.2300Q483.2700 633.2100 484.4850 634.6050Q485.7000 636 487.5900 636.6750Q489.4800 637.3500 491.5500 637.3500ZM546.5400 645.9000L546.5400 645.9000Q540.0600 645.9000 535.1550 643.4700Q530.2500 641.0400 527.5050 636.4050Q524.7600 631.7700 524.4900 625.2000L524.4900 625.2000Q524.4000 623.8500 524.4000 621.6450Q524.4000 619.4400 524.4900 618L524.4900 618Q524.7600 611.4300 527.5050 606.7950Q530.2500 602.1600 535.1550 599.7300Q540.0600 597.3000 546.5400 597.3000L546.5400 597.3000Q552.3000 597.3000 556.3500 598.8750Q560.4000 600.4500 563.0100 602.9250Q565.6200 605.4000 566.9250 608.0550Q568.2300 610.7100 568.3200 612.8700L568.3200 612.8700Q568.4100 613.8600 567.7350 614.4450Q567.0600 615.0300 566.1600 615.0300L566.1600 615.0300L558.2400 615.0300Q557.3400 615.0300 556.8450 614.5800Q556.3500 614.1300 555.9000 613.2300L555.9000 613.2300Q554.5500 609.6300 552.3450 608.1450Q550.1400 606.6600 546.7200 606.6600L546.7200 606.6600Q542.2200 606.6600 539.5650 609.4950Q536.9100 612.3300 536.7300 618.4500L536.7300 618.4500Q536.5500 621.8700 536.7300 624.7500L536.7300 624.7500Q536.9100 630.9600 539.5650 633.7500Q542.2200 636.5400 546.7200 636.5400L546.7200 636.5400Q550.2300 636.5400 552.3900 635.0550Q554.5500 633.5700 555.9000 629.9700L555.9000 629.9700Q556.3500 629.0700 556.8450 628.6200Q557.3400 628.1700 558.2400 628.1700L558.2400 628.1700L566.1600 628.1700Q567.0600 628.1700 567.7350 628.7550Q568.4100 629.3400 568.3200 630.3300L568.3200 630.3300Q568.2300 631.9500 567.4650 633.9750Q566.7000 636 565.0350 638.1150Q563.3700 640.2300 560.8500 641.9850Q558.3300 643.7400 554.7750 644.8200Q551.2200 645.9000 546.5400 645.9000ZM606.1200 645L598.8300 645Q593.4300 645 589.7400 643.1100Q586.0500 641.2200 584.2500 637.4850Q582.4500 633.7500 582.4500 628.1700L582.4500 628.1700L582.4500 607.7400L575.3400 607.7400Q574.4400 607.7400 573.8100 607.1100Q573.1800 606.4800 573.1800 605.4900L573.1800 605.4900L573.1800 600.3600Q573.1800 599.4600 573.8100 598.8300Q574.4400 598.2000 575.3400 598.2000L575.3400 598.2000L582.4500 598.2000L582.4500 583.2600Q582.4500 582.3600 583.0350 581.7300Q583.6200 581.1000 584.6100 581.1000L584.6100 581.1000L591.9000 581.1000Q592.8000 581.1000 593.4300 581.7300Q594.0600 582.3600 594.0600 583.2600L594.0600 583.2600L594.0600 598.2000L605.3100 598.2000Q606.2100 598.2000 606.8400 598.8300Q607.4700 599.4600 607.4700 600.3600L607.4700 600.3600L607.4700 605.4900Q607.4700 606.4800 606.8400 607.1100Q606.2100 607.7400 605.3100 607.7400L605.3100 607.7400L594.0600 607.7400L594.0600 627.2700Q594.0600 630.9600 595.3650 633.0300Q596.6700 635.1000 599.9100 635.1000L599.9100 635.1000L606.1200 635.1000Q607.0200 635.1000 607.6500 635.7300Q608.2800 636.3600 608.2800 637.2600L608.2800 637.2600L608.2800 642.8400Q608.2800 643.7400 607.6500 644.3700Q607.0200 645 606.1200 645L606.1200 645Z" id="title"/><path d="M1396.4200 642.2000L1396.4200 642.2000Q1381.0200 642.2000 1369.8000 638.4600Q1358.5800 634.7200 1351.2100 628.6700Q1343.8400 622.6200 1340.1000 615.4700Q1336.3600 608.3200 1336.1400 601.2800L1336.1400 601.2800Q1336.1400 599.3000 1337.5700 598.0900Q1339 596.8800 1340.9800 596.8800L1340.9800 596.8800L1360.7800 596.8800Q1362.9800 596.8800 1364.5200 597.7600Q1366.0600 598.6400 1367.1600 601.2800L1367.1600 601.2800Q1369.1400 607.2200 1373.6500 610.7400Q1378.1600 614.2600 1384.1000 615.6900Q1390.0400 617.1200 1396.6400 617.1200L1396.6400 617.1200Q1409.8400 617.1200 1417.6500 610.8500Q1425.4600 604.5800 1425.4600 592.9200L1425.4600 592.9200Q1425.4600 581.2600 1418.2000 576.0900Q1410.9400 570.9200 1397.9600 570.9200L1397.9600 570.9200L1375.3000 570.9200Q1372.8800 570.9200 1371.3400 569.4900Q1369.8000 568.0600 1369.8000 565.6400L1369.8000 565.6400L1369.8000 556.4000Q1369.8000 554.2000 1370.7900 552.5500Q1371.7800 550.9000 1372.8800 549.8000L1372.8800 549.8000L1412.2600 511.3000L1349.3400 511.3000Q1346.9200 511.3000 1345.4900 509.7600Q1344.0600 508.2200 1344.0600 506.0200L1344.0600 506.0200L1344.0600 491.5000Q1344.0600 489.0800 1345.4900 487.5400Q1346.9200 486 1349.3400 486L1349.3400 486L1443.7200 486Q1446.1400 486 1447.6800 487.5400Q1449.2200 489.0800 1449.2200 491.5000L1449.2200 491.5000L1449.2200 504.7000Q1449.2200 506.6800 1448.3400 508.2200Q1447.4600 509.7600 1446.3600 510.8600L1446.3600 510.8600L1408.3000 550.0200L1410.9400 550.2400Q1424.3600 551.3400 1434.8100 556.2900Q1445.2600 561.2400 1451.0900 570.7000Q1456.9200 580.1600 1456.9200 594.4600L1456.9200 594.4600Q1456.9200 609.4200 1449.1100 620.0900Q1441.3000 630.7600 1427.6600 636.4800Q1414.0200 642.2000 1396.4200 642.2000ZM1538.7600 642.2000L1538.7600 642.2000Q1523.1400 642.2000 1512.1400 637.5800Q1501.1400 632.9600 1494.1000 624.8200Q1487.0600 616.6800 1483.5400 606.0100Q1480.0200 595.3400 1479.3600 583.2400L1479.3600 583.2400Q1479.1400 577.3000 1479.0300 570.1500Q1478.9200 563 1479.0300 555.7400Q1479.1400 548.4800 1479.3600 542.3200L1479.3600 542.3200Q1479.8000 530.2200 1483.5400 519.5500Q1487.2800 508.8800 1494.4300 500.9600Q1501.5800 493.0400 1512.5800 488.4200Q1523.5800 483.8000 1538.7600 483.8000L1538.7600 483.8000Q1554.1600 483.8000 1565.1600 488.4200Q1576.1600 493.0400 1583.3100 500.9600Q1590.4600 508.8800 1594.0900 519.5500Q1597.7200 530.2200 1598.1600 542.3200L1598.1600 542.3200Q1598.6000 548.4800 1598.6000 555.7400Q1598.6000 563 1598.6000 570.1500Q1598.6000 577.3000 1598.1600 583.2400L1598.1600 583.2400Q1597.7200 595.3400 1594.2000 606.0100Q1590.6800 616.6800 1583.6400 624.8200Q1576.6000 632.9600 1565.4900 637.5800Q1554.3800 642.2000 1538.7600 642.2000ZM1538.7600 616.9000L1538.7600 616.9000Q1553.0600 616.9000 1559.7700 607.5500Q1566.4800 598.2000 1566.7000 582.1400L1566.7000 582.1400Q1567.1400 575.7600 1567.1400 569.2700Q1567.1400 562.7800 1567.1400 556.1800Q1567.1400 549.5800 1566.7000 543.6400L1566.7000 543.6400Q1566.4800 528.0200 1559.7700 518.4500Q1553.0600 508.8800 1538.7600 508.8800L1538.7600 508.8800Q1524.6800 508.8800 1517.9700 518.4500Q1511.2600 528.0200 1510.8200 543.6400L1510.8200 543.6400Q1510.8200 549.5800 1510.7100 556.1800Q1510.6000 562.7800 1510.7100 569.2700Q1510.8200 575.7600 1510.8200 582.1400L1510.8200 582.1400Q1511.2600 598.2000 1518.0800 607.5500Q1524.9000 616.9000 1538.7600 616.9000ZM1649.2000 640L1627.2000 640Q1625.0000 640 1623.4600 638.4600Q1621.9200 636.9200 1621.9200 634.7200L1621.9200 634.7200L1621.9200 612.9400Q1621.9200 610.5200 1623.4600 608.9800Q1625.0000 607.4400 1627.2000 607.4400L1627.2000 607.4400L1649.2000 607.4400Q1651.4000 607.4400 1652.9400 608.9800Q1654.4800 610.5200 1654.4800 612.9400L1654.4800 612.9400L1654.4800 634.7200Q1654.4800 636.9200 1652.9400 638.4600Q1651.4000 640 1649.2000 640L1649.2000 640ZM1738.3000 642.2000L1738.3000 642.2000Q1723.7800 642.2000 1712.3400 638.6800Q1700.9000 635.1600 1693.0900 628.7800Q1685.2800 622.4000 1681.2100 613.8200Q1677.1400 605.2400 1677.1400 594.6800L1677.1400 594.6800Q1677.1400 581.9200 1683.4100 572.5700Q1689.6800 563.2200 1699.8000 558.1600L1699.8000 558.1600Q1691.6600 553.1000 1687.1500 545.1800Q1682.6400 537.2600 1682.6400 526.7000L1682.6400 526.7000Q1682.6400 513.9400 1689.1300 504.3700Q1695.6200 494.8000 1708.0500 489.3000Q1720.4800 483.8000 1738.3000 483.8000L1738.3000 483.8000Q1756.1200 483.8000 1768.4400 489.1900Q1780.7600 494.5800 1787.1400 504.1500Q1793.5200 513.7200 1793.5200 526.4800L1793.5200 526.4800Q1793.5200 537.0400 1789.1200 544.9600Q1784.7200 552.8800 1776.8000 558.1600L1776.8000 558.1600Q1787.1400 563 1793.3000 572.5700Q1799.4600 582.1400 1799.4600 594.9000L1799.4600 594.9000Q1799.4600 608.7600 1792.3100 619.4300Q1785.1600 630.1000 1771.4100 636.1500Q1757.6600 642.2000 1738.3000 642.2000ZM1738.3000 619.3200L1738.3000 619.3200Q1746.8800 619.3200 1753.8100 616.3500Q1760.7400 613.3800 1764.8100 607.8800Q1768.8800 602.3800 1768.8800 594.9000L1768.8800 594.9000Q1768.8800 587.2000 1764.8100 581.8100Q1760.7400 576.4200 1753.8100 573.4500Q1746.8800 570.4800 1738.3000 570.4800L1738.3000 570.4800Q1729.7200 570.4800 1722.7900 573.4500Q1715.8600 576.4200 1711.7900 581.8100Q1707.7200 587.2000 1707.7200 594.9000L1707.7200 594.9000Q1707.7200 602.3800 1711.7900 607.8800Q1715.8600 613.3800 1722.7900 616.3500Q1729.7200 619.3200 1738.3000 619.3200ZM1738.3000 548.7000L1738.3000 548.7000Q1745.5600 548.4800 1751.6100 545.8400Q1757.6600 543.2000 1761.2900 538.5800Q1764.9200 533.9600 1764.9200 527.8000L1764.9200 527.8000Q1764.9200 521.4200 1761.5100 516.6900Q1758.1000 511.9600 1752.0500 509.3200Q1746.0000 506.6800 1738.3000 506.6800L1738.3000 506.6800Q1730.6000 506.6800 1724.5500 509.3200Q1718.5000 511.9600 1715.0900 516.6900Q1711.6800 521.4200 1711.6800 527.8000L1711.6800 527.8000Q1711.6800 534.1800 1715.0900 538.8000Q1718.5000 543.4200 1724.5500 546.0600Q1730.6000 548.7000 1738.3000 548.7000Z" id="lecture-full-number"/></g></svg>