<svg xmlns="http://www.w3.org/2000/svg" version="1.1" xmlns:xlink="http://www.w3.org/1999/xlink" xmlns:svgjs="http://svgjs.dev/svgjs" viewBox="0 0 1920 1080" id="8ab577d7-12b6-447b-b59d-4e86eab306bc"><g><rect width="1920" height="1080" fill="#9d9c62"/></g><g fill="#e06b49"><path d="M745.478 668.096L1087.28 1009.97L1200.88 896.347L859.076 554.473L745.478 668.096Z"/><path d="M858.951 554.294L517.152 896.168L630.75 1009.79L972.549 667.917L858.951 554.294Z"/><path d="M289.239 668.391L631.038 1010.27L744.636 896.643L402.837 554.769L289.239 668.391Z"/><path d="M402.706 554L60.907 895.874L174.505 1009.5L516.304 667.623L402.706 554Z"/><path d="M-166 667.682L175.799 1009.56L289.397 895.933L-52.4021 554.059L-166 667.682Z"/></g><g fill="#ffffff" opacity="0.2"><path d="M1134 160C1540.91 160 1872 491.086 1872 898C1872 1304.91 1540.91 1636 1134 1636C727.086 1635.56 396 1304.91 396 898C396 491.086 727.086 160 1134 160ZM1134 1611.31C1527.25 1611.31 1847.31 1291.25 1847.31 898C1847.31 504.753 1527.25 184.247 1134 184.247C740.753 184.247 420.247 504.312 420.247 898C420.247 1291.69 740.312 1611.31 1134 1611.31Z"/><path d="M1134 251.699C1490.22 251.699 1780.3 541.785 1780.3 898C1780.3 1254.22 1490.22 1544.3 1134 1544.3C777.785 1544.3 487.699 1254.22 487.699 898C487.699 541.785 777.344 251.699 1134 251.699ZM1134 1519.61C1476.99 1519.61 1756.05 1240.55 1756.05 897.559C1756.05 554.57 1476.99 275.947 1134 275.947C791.011 275.947 511.946 555.011 511.946 898C511.946 1240.99 791.011 1519.61 1134 1519.61Z"/><path d="M1134 342.957C1439.96 342.957 1688.6 592.043 1688.6 897.559C1688.6 1203.52 1439.52 1452.16 1134 1452.16C828.043 1452.16 579.398 1203.08 579.398 897.559C578.957 592.043 828.043 342.957 1134 342.957ZM1134 1428.35C1426.29 1428.35 1664.35 1190.29 1664.35 898C1664.35 605.71 1426.29 367.645 1134 367.645C841.71 367.645 603.645 605.71 603.645 898C603.645 1190.29 841.269 1428.35 1134 1428.35Z"/><path d="M1134 434.656C1389.26 434.656 1597.34 642.301 1597.34 898C1597.34 1153.7 1389.7 1361.34 1134 1361.34C878.742 1361.34 670.656 1153.7 670.656 898C670.656 642.301 878.301 434.656 1134 434.656ZM1134 1336.66C1376.03 1336.66 1572.66 1139.59 1572.66 898C1572.66 656.408 1375.59 459.344 1134 459.344C891.968 459.344 695.344 656.408 695.344 898C695.344 1139.59 891.968 1336.66 1134 1336.66Z"/><path d="M1134 526.354C1339 526.354 1505.65 693 1505.65 898C1505.65 1103 1339 1269.64 1134 1269.64C929 1269.64 762.355 1103 762.355 898C762.355 693 929 526.354 1134 526.354ZM1134 1244.96C1325.33 1244.96 1481.4 1089.33 1481.4 897.559C1481.4 706.225 1325.77 550.161 1134 550.161C942.667 550.161 786.602 705.785 786.602 897.559C786.602 1089.33 942.226 1244.96 1134 1244.96Z"/><path d="M1134 617.613C1288.3 617.613 1414.39 743.258 1414.39 898C1414.39 1052.74 1288.74 1178.39 1134 1178.39C979.699 1178.39 853.613 1052.74 853.613 898C853.613 743.258 979.258 617.613 1134 617.613ZM1134 1153.7C1275.08 1153.7 1389.7 1039.08 1389.7 898C1389.7 756.925 1275.08 642.301 1134 642.301C992.925 642.301 878.301 756.925 878.301 898C878.301 1039.08 992.925 1153.7 1134 1153.7Z"/><path d="M1134 709.312C1238.04 709.312 1322.69 793.957 1322.69 898C1322.69 1002.04 1238.04 1086.69 1134 1086.69C1029.96 1086.69 945.312 1002.04 945.312 898C945.312 793.957 1029.96 709.312 1134 709.312ZM1134 1062C1224.38 1062 1298.44 988.377 1298.44 897.559C1298.44 807.183 1224.82 733.118 1134 733.118C1043.62 733.118 969.559 806.742 969.559 897.559C969.559 988.377 1043.18 1062 1134 1062Z"/><path d="M1134 800.57C1187.34 800.57 1230.99 844.215 1230.99 897.56C1230.99 950.904 1187.34 994.549 1134 994.549C1080.66 994.549 1037.01 950.904 1037.01 897.56C1036.57 844.215 1080.22 800.57 1134 800.57ZM1134 970.742C1174.12 970.742 1206.74 938.119 1206.74 898C1206.74 857.882 1174.12 825.258 1134 825.258C1093.88 825.258 1061.26 857.882 1061.26 898C1061.26 938.119 1093.88 970.742 1134 970.742Z"/></g><g><path d="M178.635 139.281L184.422 144.246V166.626H215.704L219.958 172.147L215.69 177.397H184.422V198.795L178.635 203.747L173 198.795V144.232L178.635 139.281ZM195.554 195.68H219.406L223.397 200.915L219.143 206.45H195.554L191.7 201.342L195.554 195.68ZM196.382 138H219.129L223.383 143.52L219.129 148.77H196.659L192.115 143.677L196.382 138ZM323.155 148.628L328.251 154.291L323.155 159.968H246.13L241.172 154.291L246.13 148.628H323.155ZM237.043 172.147L241.849 167.893L246.669 172.147V178.393C246.669 188.879 249.417 197.515 261.668 197.515H264.14C275.147 197.515 281.197 189.86 281.197 177.952V172.005L285.879 167.75L290.699 171.862V178.379C290.699 189.007 293.723 196.946 305.56 196.946H307.618C319.178 196.946 321.235 187.869 321.373 177.952V171.578L326.056 167.608L331 171.72V178.094C330.862 191.838 327.285 207.574 308.032 207.574H305.974C294.552 207.574 288.365 202.324 285.892 195.808C283.006 202.466 275.299 208.286 264.844 208.286H262.358C242.553 208.286 237.194 195.964 237.056 178.663V172.147H237.043ZM276.391 274.744L273.642 267.089L280.796 264.969L305.974 276.721V252.491L311.07 248.095L316.291 252.491V281.829L325.641 286.226L328.251 293.311L320.959 296L276.391 274.744ZM321.235 223.011L328.113 226.27L325.917 233.497L264.002 263.119L256.571 260.146L259.596 252.776L321.235 223.011ZM231.905 263.404L237.954 268.512C237.402 286.51 222.403 296 204.669 296H202.874C194.062 296 183.759 292.6 177.157 286.083L177.834 278.855L184.298 278.002C189.118 282.256 195.858 285.229 202.183 285.229H204.117C216.091 285.229 225.303 280.136 226.27 268.085L231.905 263.404ZM226.256 251.638C225.704 239.16 216.629 234.209 204.103 234.209H202.169C194.739 234.209 189.104 237.182 184.284 241.436L177.834 240.583L177.143 233.355C183.745 226.696 192.957 223.58 202.597 223.58H204.517C222.403 223.58 237.402 232.942 237.94 251.211L231.891 256.176L226.256 251.638Z" fill="#ffffff"/></g><path d="M1171 781L1171 339L1187 339L1187 781L1171 781Z" fill="#ffffff"/><g fill="#ffffff" id="info-group"><path d="M167.7300 510L159.1800 510Q158.2800 510 157.6500 509.3700Q157.0200 508.7400 157.0200 507.8400L157.0200 507.8400L157.0200 449.2500Q157.0200 448.2600 157.6500 447.6300Q158.2800 447 159.1800 447L159.1800 447L183.3000 447Q190.3200 447 195.5400 449.2050Q200.7600 451.4100 203.6400 455.8650Q206.5200 460.3200 206.5200 466.9800L206.5200 466.9800Q206.5200 473.7300 203.6400 478.0950Q200.7600 482.4600 195.5400 484.6200Q190.3200 486.7800 183.3000 486.7800L183.3000 486.7800L169.8900 486.7800L169.8900 507.8400Q169.8900 508.7400 169.3050 509.3700Q168.7200 510 167.7300 510L167.7300 510ZM169.7100 456.9900L169.7100 476.7900L182.8500 476.7900Q188.0700 476.7900 190.8600 474.3150Q193.6500 471.8400 193.6500 466.9800L193.6500 466.9800Q193.6500 462.4800 191.0400 459.7350Q188.4300 456.9900 182.8500 456.9900L182.8500 456.9900L169.7100 456.9900ZM225.2400 510L217.4100 510Q216.5100 510 215.8800 509.3700Q215.2500 508.7400 215.2500 507.8400L215.2500 507.8400L215.2500 465.4500Q215.2500 464.4600 215.8800 463.8300Q216.5100 463.2000 217.4100 463.2000L217.4100 463.2000L224.7000 463.2000Q225.6000 463.2000 226.2750 463.8300Q226.9500 464.4600 226.9500 465.4500L226.9500 465.4500L226.9500 469.1400Q229.0200 466.2600 232.3050 464.7300Q235.5900 463.2000 239.9100 463.2000L239.9100 463.2000L243.6000 463.2000Q244.5900 463.2000 245.1750 463.8300Q245.7600 464.4600 245.7600 465.3600L245.7600 465.3600L245.7600 471.8400Q245.7600 472.7400 245.1750 473.3700Q244.5900 474 243.6000 474L243.6000 474L236.5800 474Q232.2600 474 229.8750 476.3850Q227.4900 478.7700 227.4900 483.0900L227.4900 483.0900L227.4900 507.8400Q227.4900 508.7400 226.8600 509.3700Q226.2300 510 225.2400 510L225.2400 510ZM273.4800 510.9000L273.4800 510.9000Q266.2800 510.9000 261.3750 508.3800Q256.4700 505.8600 253.9050 501.2700Q251.3400 496.6800 250.9800 490.5600L250.9800 490.5600Q250.8900 488.9400 250.8900 486.6000Q250.8900 484.2600 250.9800 482.6400L250.9800 482.6400Q251.3400 476.4300 253.9950 471.8850Q256.6500 467.3400 261.5550 464.8200Q266.4600 462.3000 273.4800 462.3000L273.4800 462.3000Q280.5000 462.3000 285.4050 464.8200Q290.3100 467.3400 292.9650 471.8850Q295.6200 476.4300 295.9800 482.6400L295.9800 482.6400Q296.0700 484.2600 296.0700 486.6000Q296.0700 488.9400 295.9800 490.5600L295.9800 490.5600Q295.6200 496.6800 293.0550 501.2700Q290.4900 505.8600 285.5850 508.3800Q280.6800 510.9000 273.4800 510.9000ZM273.4800 501.9900L273.4800 501.9900Q278.2500 501.9900 280.8600 498.9750Q283.4700 495.9600 283.7400 490.1100L283.7400 490.1100Q283.8300 488.7600 283.8300 486.6000Q283.8300 484.4400 283.7400 483.0900L283.7400 483.0900Q283.4700 477.2400 280.8600 474.2250Q278.2500 471.2100 273.4800 471.2100L273.4800 471.2100Q268.7100 471.2100 266.1000 474.2250Q263.4900 477.2400 263.2200 483.0900L263.2200 483.0900Q263.1300 484.4400 263.1300 486.6000Q263.1300 488.7600 263.2200 490.1100L263.2200 490.1100Q263.4900 495.9600 266.1000 498.9750Q268.7100 501.9900 273.4800 501.9900ZM301.7400 527.1000L298.3200 527.1000Q297.4200 527.1000 296.7900 526.4700Q296.1600 525.8400 296.1600 524.9400L296.1600 524.9400L296.1600 519.7200Q296.1600 518.8200 296.7900 518.1900Q297.4200 517.5600 298.3200 517.5600L298.3200 517.5600L300.6600 517.5600Q303.4500 517.5600 304.8000 516.5700Q306.1500 515.5800 306.6000 513.8250Q307.0500 512.0700 307.0500 509.9100L307.0500 509.9100L307.0500 465.3600Q307.0500 464.4600 307.6800 463.8300Q308.3100 463.2000 309.2100 463.2000L309.2100 463.2000L317.0400 463.2000Q317.9400 463.2000 318.5700 463.8300Q319.2000 464.4600 319.2000 465.3600L319.2000 465.3600L319.2000 510.0900Q319.2000 515.4000 317.2650 519.1800Q315.3300 522.9600 311.5050 525.0300Q307.6800 527.1000 301.7400 527.1000L301.7400 527.1000ZM317.3100 455.4600L308.8500 455.4600Q307.8600 455.4600 307.2750 454.8300Q306.6900 454.2000 306.6900 453.3000L306.6900 453.3000L306.6900 446.8200Q306.6900 445.9200 307.2750 445.2900Q307.8600 444.6600 308.8500 444.6600L308.8500 444.6600L317.3100 444.6600Q318.3000 444.6600 318.9300 445.2900Q319.5600 445.9200 319.5600 446.8200L319.5600 446.8200L319.5600 453.3000Q319.5600 454.2000 318.9300 454.8300Q318.3000 455.4600 317.3100 455.4600L317.3100 455.4600ZM351.3300 510.9000L351.3300 510.9000Q341.3400 510.9000 335.4900 505.1400Q329.6400 499.3800 329.1900 488.7600L329.1900 488.7600Q329.1000 487.8600 329.1000 486.4650Q329.1000 485.0700 329.1900 484.2600L329.1900 484.2600Q329.5500 477.4200 332.2950 472.5150Q335.0400 467.6100 339.9000 464.9550Q344.7600 462.3000 351.3300 462.3000L351.3300 462.3000Q358.6200 462.3000 363.5700 465.3150Q368.5200 468.3300 371.0400 473.6850Q373.5600 479.0400 373.5600 486.0600L373.5600 486.0600L373.5600 487.9500Q373.5600 488.8500 372.9300 489.4800Q372.3000 490.1100 371.3100 490.1100L371.3100 490.1100L341.4300 490.1100Q341.4300 490.1100 341.4300 490.3800Q341.4300 490.6500 341.4300 490.8300L341.4300 490.8300Q341.5200 493.9800 342.6450 496.6350Q343.7700 499.2900 345.9750 500.9100Q348.1800 502.5300 351.2400 502.5300L351.2400 502.5300Q353.7600 502.5300 355.4700 501.7650Q357.1800 501 358.2600 500.0100Q359.3400 499.0200 359.7900 498.3900L359.7900 498.3900Q360.6000 497.3100 361.0950 497.0850Q361.5900 496.8600 362.5800 496.8600L362.5800 496.8600L370.3200 496.8600Q371.2200 496.8600 371.8050 497.4000Q372.3900 497.9400 372.3000 498.7500L372.3000 498.7500Q372.2100 500.1900 370.8150 502.2600Q369.4200 504.3300 366.8100 506.3100Q364.2000 508.2900 360.2850 509.5950Q356.3700 510.9000 351.3300 510.9000ZM341.4300 482.2800L341.4300 482.5500L361.3200 482.5500L361.3200 482.2800Q361.3200 478.7700 360.1500 476.1150Q358.9800 473.4600 356.7300 471.9750Q354.4800 470.4900 351.3300 470.4900L351.3300 470.4900Q348.1800 470.4900 345.9300 471.9750Q343.6800 473.4600 342.5550 476.1150Q341.4300 478.7700 341.4300 482.2800L341.4300 482.2800ZM411.5400 510L404.2500 510Q398.8500 510 395.1600 508.1100Q391.4700 506.2200 389.6700 502.4850Q387.8700 498.7500 387.8700 493.1700L387.8700 493.1700L387.8700 472.7400L380.7600 472.7400Q379.8600 472.7400 379.2300 472.1100Q378.6000 471.4800 378.6000 470.4900L378.6000 470.4900L378.6000 465.3600Q378.6000 464.4600 379.2300 463.8300Q379.8600 463.2000 380.7600 463.2000L380.7600 463.2000L387.8700 463.2000L387.8700 448.2600Q387.8700 447.3600 388.4550 446.7300Q389.0400 446.1000 390.0300 446.1000L390.0300 446.1000L397.3200 446.1000Q398.2200 446.1000 398.8500 446.7300Q399.4800 447.3600 399.4800 448.2600L399.4800 448.2600L399.4800 463.2000L410.7300 463.2000Q411.6300 463.2000 412.2600 463.8300Q412.8900 464.4600 412.8900 465.3600L412.8900 465.3600L412.8900 470.4900Q412.8900 471.4800 412.2600 472.1100Q411.6300 472.7400 410.7300 472.7400L410.7300 472.7400L399.4800 472.7400L399.4800 492.2700Q399.4800 495.9600 400.7850 498.0300Q402.0900 500.1000 405.3300 500.1000L405.3300 500.1000L411.5400 500.1000Q412.4400 500.1000 413.0700 500.7300Q413.7000 501.3600 413.7000 502.2600L413.7000 502.2600L413.7000 507.8400Q413.7000 508.7400 413.0700 509.3700Q412.4400 510 411.5400 510L411.5400 510ZM442.4100 510.9000L442.4100 510.9000Q435.2100 510.9000 430.3050 508.3800Q425.4000 505.8600 422.8350 501.2700Q420.2700 496.6800 419.9100 490.5600L419.9100 490.5600Q419.8200 488.9400 419.8200 486.6000Q419.8200 484.2600 419.9100 482.6400L419.9100 482.6400Q420.2700 476.4300 422.9250 471.8850Q425.5800 467.3400 430.4850 464.8200Q435.3900 462.3000 442.4100 462.3000L442.4100 462.3000Q449.4300 462.3000 454.3350 464.8200Q459.2400 467.3400 461.8950 471.8850Q464.5500 476.4300 464.9100 482.6400L464.9100 482.6400Q465.0000 484.2600 465.0000 486.6000Q465.0000 488.9400 464.9100 490.5600L464.9100 490.5600Q464.5500 496.6800 461.9850 501.2700Q459.4200 505.8600 454.5150 508.3800Q449.6100 510.9000 442.4100 510.9000ZM442.4100 501.9900L442.4100 501.9900Q447.1800 501.9900 449.7900 498.9750Q452.4000 495.9600 452.6700 490.1100L452.6700 490.1100Q452.7600 488.7600 452.7600 486.6000Q452.7600 484.4400 452.6700 483.0900L452.6700 483.0900Q452.4000 477.2400 449.7900 474.2250Q447.1800 471.2100 442.4100 471.2100L442.4100 471.2100Q437.6400 471.2100 435.0300 474.2250Q432.4200 477.2400 432.1500 483.0900L432.1500 483.0900Q432.0600 484.4400 432.0600 486.6000Q432.0600 488.7600 432.1500 490.1100L432.1500 490.1100Q432.4200 495.9600 435.0300 498.9750Q437.6400 501.9900 442.4100 501.9900ZM517.2000 510.9900L517.2000 510.9900Q509.4600 510.9900 504.1500 508.4250Q498.8400 505.8600 496.0950 501.7200Q493.3500 497.5800 493.1700 492.9000L493.1700 492.9000Q493.0800 492.0900 493.6650 491.5950Q494.2500 491.1000 495.0600 491.1000L495.0600 491.1000L503.4300 491.1000Q504.4200 491.1000 505.0950 491.5050Q505.7700 491.9100 506.1300 492.9000L506.1300 492.9000Q507.0300 495.6000 508.6950 497.3100Q510.3600 499.0200 512.5650 499.8300Q514.7700 500.6400 517.2000 500.6400L517.2000 500.6400Q520.4400 500.6400 523.0950 499.3350Q525.7500 498.0300 527.3700 495.4200Q528.9900 492.8100 528.9900 489.0300L528.9900 489.0300Q528.9900 485.7000 527.4600 483.2700Q525.9300 480.8400 523.2750 479.4450Q520.6200 478.0500 517.2000 478.0500L517.2000 478.0500Q514.6800 478.0500 513.0600 478.6800Q511.4400 479.3100 510.3150 480.1200Q509.1900 480.9300 508.3350 481.5600Q507.4800 482.1900 506.4000 482.1900L506.4000 482.1900L498.1200 482.1900Q497.3100 482.1900 496.7250 481.6050Q496.1400 481.0200 496.1400 480.2100L496.1400 480.2100L499.2900 449.4300Q499.3800 448.2600 500.1000 447.6300Q500.8200 447 501.8100 447L501.8100 447L535.6500 447Q536.5500 447 537.1800 447.6300Q537.8100 448.2600 537.8100 449.1600L537.8100 449.1600L537.8100 455.1900Q537.8100 456.0900 537.1800 456.7200Q536.5500 457.3500 535.6500 457.3500L535.6500 457.3500L509.6400 457.3500L508.2000 472.0200Q509.8200 470.9400 512.5200 469.9500Q515.2200 468.9600 519.9900 468.9600L519.9900 468.9600Q524.3100 468.9600 528.2250 470.3550Q532.1400 471.7500 535.2000 474.4050Q538.2600 477.0600 540.0150 480.7950Q541.7700 484.5300 541.7700 489.3000L541.7700 489.3000Q541.7700 495.8700 538.7100 500.7300Q535.6500 505.5900 530.1600 508.2900Q524.6700 510.9900 517.2000 510.9900ZM601.5300 488.1300L573.9000 488.1300Q572.9100 488.1300 572.3250 487.5000Q571.7400 486.8700 571.7400 485.9700L571.7400 485.9700L571.7400 480.0300Q571.7400 479.1300 572.3250 478.5000Q572.9100 477.8700 573.9000 477.8700L573.9000 477.8700L601.5300 477.8700Q602.4300 477.8700 603.0600 478.5000Q603.6900 479.1300 603.6900 480.0300L603.6900 480.0300L603.6900 485.9700Q603.6900 486.8700 603.0600 487.5000Q602.4300 488.1300 601.5300 488.1300L601.5300 488.1300ZM181.3200 600.9000L181.3200 600.9000Q172.9500 600.9000 167.1450 597.9750Q161.3400 595.0500 158.2800 589.6050Q155.2200 584.1600 154.8600 576.5100L154.8600 576.5100Q154.7700 572.8200 154.7700 568.5900Q154.7700 564.3600 154.8600 560.4900L154.8600 560.4900Q155.2200 552.9300 158.3250 547.4400Q161.4300 541.9500 167.2350 539.0250Q173.0400 536.1000 181.3200 536.1000L181.3200 536.1000Q187.4400 536.1000 192.3000 537.7200Q197.1600 539.3400 200.5800 542.1750Q204 545.0100 205.8900 548.7900Q207.7800 552.5700 207.8700 556.9800L207.8700 556.9800Q207.9600 557.7900 207.3750 558.3300Q206.7900 558.8700 205.9800 558.8700L205.9800 558.8700L197.4300 558.8700Q196.4400 558.8700 195.8100 558.3750Q195.1800 557.8800 194.9100 556.7100L194.9100 556.7100Q193.4700 550.7700 189.9600 548.6100Q186.4500 546.4500 181.2300 546.4500L181.2300 546.4500Q175.2000 546.4500 171.6000 549.8250Q168 553.2000 167.7300 560.9400L167.7300 560.9400Q167.4600 568.3200 167.7300 576.0600L167.7300 576.0600Q168 583.8000 171.6000 587.1750Q175.2000 590.5500 181.2300 590.5500L181.2300 590.5500Q186.4500 590.5500 190.0050 588.3450Q193.5600 586.1400 194.9100 580.2900L194.9100 580.2900Q195.1800 579.0300 195.8100 578.5800Q196.4400 578.1300 197.4300 578.1300L197.4300 578.1300L205.9800 578.1300Q206.7900 578.1300 207.3750 578.6700Q207.9600 579.2100 207.8700 580.0200L207.8700 580.0200Q207.7800 584.4300 205.8900 588.2100Q204 591.9900 200.5800 594.8250Q197.1600 597.6600 192.3000 599.2800Q187.4400 600.9000 181.3200 600.9000ZM238.2000 600.9000L238.2000 600.9000Q231 600.9000 226.0950 598.3800Q221.1900 595.8600 218.6250 591.2700Q216.0600 586.6800 215.7000 580.5600L215.7000 580.5600Q215.6100 578.9400 215.6100 576.6000Q215.6100 574.2600 215.7000 572.6400L215.7000 572.6400Q216.0600 566.4300 218.7150 561.8850Q221.3700 557.3400 226.2750 554.8200Q231.1800 552.3000 238.2000 552.3000L238.2000 552.3000Q245.2200 552.3000 250.1250 554.8200Q255.0300 557.3400 257.6850 561.8850Q260.3400 566.4300 260.7000 572.6400L260.7000 572.6400Q260.7900 574.2600 260.7900 576.6000Q260.7900 578.9400 260.7000 580.5600L260.7000 580.5600Q260.3400 586.6800 257.7750 591.2700Q255.2100 595.8600 250.3050 598.3800Q245.4000 600.9000 238.2000 600.9000ZM238.2000 591.9900L238.2000 591.9900Q242.9700 591.9900 245.5800 588.9750Q248.1900 585.9600 248.4600 580.1100L248.4600 580.1100Q248.5500 578.7600 248.5500 576.6000Q248.5500 574.4400 248.4600 573.0900L248.4600 573.0900Q248.1900 567.2400 245.5800 564.2250Q242.9700 561.2100 238.2000 561.2100L238.2000 561.2100Q233.4300 561.2100 230.8200 564.2250Q228.2100 567.2400 227.9400 573.0900L227.9400 573.0900Q227.8500 574.4400 227.8500 576.6000Q227.8500 578.7600 227.9400 580.1100L227.9400 580.1100Q228.2100 585.9600 230.8200 588.9750Q233.4300 591.9900 238.2000 591.9900ZM280.8600 600L272.9400 600Q272.0400 600 271.4100 599.3700Q270.7800 598.7400 270.7800 597.8400L270.7800 597.8400L270.7800 555.3600Q270.7800 554.4600 271.4100 553.8300Q272.0400 553.2000 272.9400 553.2000L272.9400 553.2000L280.3200 553.2000Q281.2200 553.2000 281.8500 553.8300Q282.4800 554.4600 282.4800 555.3600L282.4800 555.3600L282.4800 559.0500Q284.8200 556.1700 288.4650 554.2350Q292.1100 552.3000 297.5100 552.3000L297.5100 552.3000Q303 552.3000 307.0500 554.7750Q311.1000 557.2500 313.3050 561.7500Q315.5100 566.2500 315.5100 572.5500L315.5100 572.5500L315.5100 597.8400Q315.5100 598.7400 314.8800 599.3700Q314.2500 600 313.3500 600L313.3500 600L305.4300 600Q304.5300 600 303.9000 599.3700Q303.2700 598.7400 303.2700 597.8400L303.2700 597.8400L303.2700 573.0900Q303.2700 567.8700 300.7050 564.9000Q298.1400 561.9300 293.2800 561.9300L293.2800 561.9300Q288.6000 561.9300 285.8100 564.9000Q283.0200 567.8700 283.0200 573.0900L283.0200 573.0900L283.0200 597.8400Q283.0200 598.7400 282.3900 599.3700Q281.7600 600 280.8600 600L280.8600 600ZM355.3800 600L348.0900 600Q342.6900 600 339 598.1100Q335.3100 596.2200 333.5100 592.4850Q331.7100 588.7500 331.7100 583.1700L331.7100 583.1700L331.7100 562.7400L324.6000 562.7400Q323.7000 562.7400 323.0700 562.1100Q322.4400 561.4800 322.4400 560.4900L322.4400 560.4900L322.4400 555.3600Q322.4400 554.4600 323.0700 553.8300Q323.7000 553.2000 324.6000 553.2000L324.6000 553.2000L331.7100 553.2000L331.7100 538.2600Q331.7100 537.3600 332.2950 536.7300Q332.8800 536.1000 333.8700 536.1000L333.8700 536.1000L341.1600 536.1000Q342.0600 536.1000 342.6900 536.7300Q343.3200 537.3600 343.3200 538.2600L343.3200 538.2600L343.3200 553.2000L354.5700 553.2000Q355.4700 553.2000 356.1000 553.8300Q356.7300 554.4600 356.7300 555.3600L356.7300 555.3600L356.7300 560.4900Q356.7300 561.4800 356.1000 562.1100Q355.4700 562.7400 354.5700 562.7400L354.5700 562.7400L343.3200 562.7400L343.3200 582.2700Q343.3200 585.9600 344.6250 588.0300Q345.9300 590.1000 349.1700 590.1000L349.1700 590.1000L355.3800 590.1000Q356.2800 590.1000 356.9100 590.7300Q357.5400 591.3600 357.5400 592.2600L357.5400 592.2600L357.5400 597.8400Q357.5400 598.7400 356.9100 599.3700Q356.2800 600 355.3800 600L355.3800 600ZM375.1800 600L367.7100 600Q366.8100 600 366.1800 599.3700Q365.5500 598.7400 365.5500 597.8400L365.5500 597.8400L365.5500 555.3600Q365.5500 554.4600 366.1800 553.8300Q366.8100 553.2000 367.7100 553.2000L367.7100 553.2000L375.1800 553.2000Q376.1700 553.2000 376.7550 553.8300Q377.3400 554.4600 377.3400 555.3600L377.3400 555.3600L377.3400 597.8400Q377.3400 598.7400 376.7550 599.3700Q376.1700 600 375.1800 600L375.1800 600ZM375.5400 545.4600L367.3500 545.4600Q366.4500 545.4600 365.8200 544.8300Q365.1900 544.2000 365.1900 543.3000L365.1900 543.3000L365.1900 536.8200Q365.1900 535.9200 365.8200 535.2900Q366.4500 534.6600 367.3500 534.6600L367.3500 534.6600L375.5400 534.6600Q376.5300 534.6600 377.1600 535.2900Q377.7900 535.9200 377.7900 536.8200L377.7900 536.8200L377.7900 543.3000Q377.7900 544.2000 377.1600 544.8300Q376.5300 545.4600 375.5400 545.4600L375.5400 545.4600ZM399.3900 600L391.4700 600Q390.5700 600 389.9400 599.3700Q389.3100 598.7400 389.3100 597.8400L389.3100 597.8400L389.3100 555.3600Q389.3100 554.4600 389.9400 553.8300Q390.5700 553.2000 391.4700 553.2000L391.4700 553.2000L398.8500 553.2000Q399.7500 553.2000 400.3800 553.8300Q401.0100 554.4600 401.0100 555.3600L401.0100 555.3600L401.0100 559.0500Q403.3500 556.1700 406.9950 554.2350Q410.6400 552.3000 416.0400 552.3000L416.0400 552.3000Q421.5300 552.3000 425.5800 554.7750Q429.6300 557.2500 431.8350 561.7500Q434.0400 566.2500 434.0400 572.5500L434.0400 572.5500L434.0400 597.8400Q434.0400 598.7400 433.4100 599.3700Q432.7800 600 431.8800 600L431.8800 600L423.9600 600Q423.0600 600 422.4300 599.3700Q421.8000 598.7400 421.8000 597.8400L421.8000 597.8400L421.8000 573.0900Q421.8000 567.8700 419.2350 564.9000Q416.6700 561.9300 411.8100 561.9300L411.8100 561.9300Q407.1300 561.9300 404.3400 564.9000Q401.5500 567.8700 401.5500 573.0900L401.5500 573.0900L401.5500 597.8400Q401.5500 598.7400 400.9200 599.3700Q400.2900 600 399.3900 600L399.3900 600ZM462.8400 600.9000L462.8400 600.9000Q457.3500 600.9000 453.3450 598.4250Q449.3400 595.9500 447.1800 591.4050Q445.0200 586.8600 445.0200 580.6500L445.0200 580.6500L445.0200 555.3600Q445.0200 554.4600 445.6500 553.8300Q446.2800 553.2000 447.1800 553.2000L447.1800 553.2000L455.1000 553.2000Q456.0900 553.2000 456.6750 553.8300Q457.2600 554.4600 457.2600 555.3600L457.2600 555.3600L457.2600 580.1100Q457.2600 591.2700 467.0700 591.2700L467.0700 591.2700Q471.7500 591.2700 474.4950 588.3000Q477.2400 585.3300 477.2400 580.1100L477.2400 580.1100L477.2400 555.3600Q477.2400 554.4600 477.8700 553.8300Q478.5000 553.2000 479.4000 553.2000L479.4000 553.2000L487.3200 553.2000Q488.2200 553.2000 488.8500 553.8300Q489.4800 554.4600 489.4800 555.3600L489.4800 555.3600L489.4800 597.8400Q489.4800 598.7400 488.8500 599.3700Q488.2200 600 487.3200 600L487.3200 600L480.0300 600Q479.0400 600 478.4550 599.3700Q477.8700 598.7400 477.8700 597.8400L477.8700 597.8400L477.8700 594.1500Q475.4400 597.3000 471.8400 599.1000Q468.2400 600.9000 462.8400 600.9000ZM514.9500 600.9000L514.9500 600.9000Q510.2700 600.9000 506.4900 599.0550Q502.7100 597.2100 500.5050 594.1050Q498.3000 591 498.3000 587.1300L498.3000 587.1300Q498.3000 580.8300 503.4300 577.0950Q508.5600 573.3600 516.8400 572.1000L516.8400 572.1000L529.1700 570.3000L529.1700 568.4100Q529.1700 564.6300 527.2800 562.5600Q525.3900 560.4900 520.8000 560.4900L520.8000 560.4900Q517.5600 560.4900 515.5350 561.7950Q513.5100 563.1000 512.5200 565.2600L512.5200 565.2600Q511.8000 566.4300 510.4500 566.4300L510.4500 566.4300L503.3400 566.4300Q502.3500 566.4300 501.8550 565.8900Q501.3600 565.3500 501.3600 564.4500L501.3600 564.4500Q501.4500 563.0100 502.5750 560.9400Q503.7000 558.8700 505.9950 556.9350Q508.2900 555 511.9800 553.6500Q515.6700 552.3000 520.8900 552.3000L520.8900 552.3000Q526.5600 552.3000 530.4750 553.6950Q534.3900 555.0900 536.7300 557.4300Q539.0700 559.7700 540.1500 562.9200Q541.2300 566.0700 541.2300 569.5800L541.2300 569.5800L541.2300 597.8400Q541.2300 598.7400 540.6000 599.3700Q539.9700 600 539.0700 600L539.0700 600L531.7800 600Q530.7900 600 530.2050 599.3700Q529.6200 598.7400 529.6200 597.8400L529.6200 597.8400L529.6200 594.3300Q528.4500 595.9500 526.4700 597.4800Q524.4900 599.0100 521.6550 599.9550Q518.8200 600.9000 514.9500 600.9000ZM518.0100 592.3500L518.0100 592.3500Q521.1600 592.3500 523.7250 591Q526.2900 589.6500 527.7750 586.8150Q529.2600 583.9800 529.2600 579.6600L529.2600 579.6600L529.2600 577.7700L520.2600 579.2100Q514.9500 580.0200 512.3400 581.8200Q509.7300 583.6200 509.7300 586.2300L509.7300 586.2300Q509.7300 588.2100 510.9450 589.6050Q512.1600 591 514.0500 591.6750Q515.9400 592.3500 518.0100 592.3500ZM562.8300 600L554.9100 600Q554.0100 600 553.3800 599.3700Q552.7500 598.7400 552.7500 597.8400L552.7500 597.8400L552.7500 555.3600Q552.7500 554.4600 553.3800 553.8300Q554.0100 553.2000 554.9100 553.2000L554.9100 553.2000L562.2900 553.2000Q563.1900 553.2000 563.8200 553.8300Q564.4500 554.4600 564.4500 555.3600L564.4500 555.3600L564.4500 559.0500Q566.7900 556.1700 570.4350 554.2350Q574.0800 552.3000 579.4800 552.3000L579.4800 552.3000Q584.9700 552.3000 589.0200 554.7750Q593.0700 557.2500 595.2750 561.7500Q597.4800 566.2500 597.4800 572.5500L597.4800 572.5500L597.4800 597.8400Q597.4800 598.7400 596.8500 599.3700Q596.2200 600 595.3200 600L595.3200 600L587.4000 600Q586.5000 600 585.8700 599.3700Q585.2400 598.7400 585.2400 597.8400L585.2400 597.8400L585.2400 573.0900Q585.2400 567.8700 582.6750 564.9000Q580.1100 561.9300 575.2500 561.9300L575.2500 561.9300Q570.5700 561.9300 567.7800 564.9000Q564.9900 567.8700 564.9900 573.0900L564.9900 573.0900L564.9900 597.8400Q564.9900 598.7400 564.3600 599.3700Q563.7300 600 562.8300 600L562.8300 600ZM626.2800 600.9000L626.2800 600.9000Q621.6000 600.9000 618.0450 599.3250Q614.4900 597.7500 612.1500 594.8700Q609.8100 591.9900 608.5500 588.0750Q607.2900 584.1600 607.1100 579.4800L607.1100 579.4800Q607.0200 577.8600 607.0200 576.5550Q607.0200 575.2500 607.1100 573.6300L607.1100 573.6300Q607.2900 569.1300 608.5050 565.2600Q609.7200 561.3900 612.1050 558.4650Q614.4900 555.5400 618.0450 553.9200Q621.6000 552.3000 626.2800 552.3000L626.2800 552.3000Q631.1400 552.3000 634.5150 553.9650Q637.8900 555.6300 640.1400 558.2400L640.1400 558.2400L640.1400 538.2600Q640.1400 537.3600 640.7250 536.7300Q641.3100 536.1000 642.3000 536.1000L642.3000 536.1000L649.9500 536.1000Q650.8500 536.1000 651.4800 536.7300Q652.1100 537.3600 652.1100 538.2600L652.1100 538.2600L652.1100 597.8400Q652.1100 598.7400 651.4800 599.3700Q650.8500 600 649.9500 600L649.9500 600L642.8400 600Q641.8500 600 641.2650 599.3700Q640.6800 598.7400 640.6800 597.8400L640.6800 597.8400L640.6800 594.5100Q638.4300 597.3000 634.9650 599.1000Q631.5000 600.9000 626.2800 600.9000ZM629.6100 591.2700L629.6100 591.2700Q633.3900 591.2700 635.6400 589.5600Q637.8900 587.8500 638.9700 585.1950Q640.0500 582.5400 640.1400 579.7500L640.1400 579.7500Q640.2300 578.1300 640.2300 576.2850Q640.2300 574.4400 640.1400 572.8200L640.1400 572.8200Q640.0500 570.1200 638.8800 567.6450Q637.7100 565.1700 635.4600 563.5500Q633.2100 561.9300 629.6100 561.9300L629.6100 561.9300Q625.8300 561.9300 623.6250 563.5950Q621.4200 565.2600 620.4300 567.9600Q619.4400 570.6600 619.2600 573.9000L619.2600 573.9000Q619.1700 576.6000 619.2600 579.3000L619.2600 579.3000Q619.4400 582.5400 620.4300 585.2400Q621.4200 587.9400 623.6250 589.6050Q625.8300 591.2700 629.6100 591.2700ZM684.7800 600.9000L684.7800 600.9000Q677.5800 600.9000 672.6750 598.3800Q667.7700 595.8600 665.2050 591.2700Q662.6400 586.6800 662.2800 580.5600L662.2800 580.5600Q662.1900 578.9400 662.1900 576.6000Q662.1900 574.2600 662.2800 572.6400L662.2800 572.6400Q662.6400 566.4300 665.2950 561.8850Q667.9500 557.3400 672.8550 554.8200Q677.7600 552.3000 684.7800 552.3000L684.7800 552.3000Q691.8000 552.3000 696.7050 554.8200Q701.6100 557.3400 704.2650 561.8850Q706.9200 566.4300 707.2800 572.6400L707.2800 572.6400Q707.3700 574.2600 707.3700 576.6000Q707.3700 578.9400 707.2800 580.5600L707.2800 580.5600Q706.9200 586.6800 704.3550 591.2700Q701.7900 595.8600 696.8850 598.3800Q691.9800 600.9000 684.7800 600.9000ZM684.7800 591.9900L684.7800 591.9900Q689.5500 591.9900 692.1600 588.9750Q694.7700 585.9600 695.0400 580.1100L695.0400 580.1100Q695.1300 578.7600 695.1300 576.6000Q695.1300 574.4400 695.0400 573.0900L695.0400 573.0900Q694.7700 567.2400 692.1600 564.2250Q689.5500 561.2100 684.7800 561.2100L684.7800 561.2100Q680.0100 561.2100 677.4000 564.2250Q674.7900 567.2400 674.5200 573.0900L674.5200 573.0900Q674.4300 574.4400 674.4300 576.6000Q674.4300 578.7600 674.5200 580.1100L674.5200 580.1100Q674.7900 585.9600 677.4000 588.9750Q680.0100 591.9900 684.7800 591.9900ZM758.6700 600.9000L758.6700 600.9000Q751.4700 600.9000 746.5650 598.3800Q741.6600 595.8600 739.0950 591.2700Q736.5300 586.6800 736.1700 580.5600L736.1700 580.5600Q736.0800 578.9400 736.0800 576.6000Q736.0800 574.2600 736.1700 572.6400L736.1700 572.6400Q736.5300 566.4300 739.1850 561.8850Q741.8400 557.3400 746.7450 554.8200Q751.6500 552.3000 758.6700 552.3000L758.6700 552.3000Q765.6900 552.3000 770.5950 554.8200Q775.5000 557.3400 778.1550 561.8850Q780.8100 566.4300 781.1700 572.6400L781.1700 572.6400Q781.2600 574.2600 781.2600 576.6000Q781.2600 578.9400 781.1700 580.5600L781.1700 580.5600Q780.8100 586.6800 778.2450 591.2700Q775.6800 595.8600 770.7750 598.3800Q765.8700 600.9000 758.6700 600.9000ZM758.6700 591.9900L758.6700 591.9900Q763.4400 591.9900 766.0500 588.9750Q768.6600 585.9600 768.9300 580.1100L768.9300 580.1100Q769.0200 578.7600 769.0200 576.6000Q769.0200 574.4400 768.9300 573.0900L768.9300 573.0900Q768.6600 567.2400 766.0500 564.2250Q763.4400 561.2100 758.6700 561.2100L758.6700 561.2100Q753.9000 561.2100 751.2900 564.2250Q748.6800 567.2400 748.4100 573.0900L748.4100 573.0900Q748.3200 574.4400 748.3200 576.6000Q748.3200 578.7600 748.4100 580.1100L748.4100 580.1100Q748.6800 585.9600 751.2900 588.9750Q753.9000 591.9900 758.6700 591.9900ZM837.2400 600L828.9600 600Q828.0600 600 827.4300 599.3700Q826.8000 598.7400 826.8000 597.8400L826.8000 597.8400L826.8000 548.0700L810.1500 548.0700Q809.2500 548.0700 808.6200 547.4400Q807.9900 546.8100 807.9900 545.9100L807.9900 545.9100L807.9900 539.2500Q807.9900 538.2600 808.6200 537.6300Q809.2500 537 810.1500 537L810.1500 537L856.0500 537Q857.0400 537 857.6700 537.6300Q858.3000 538.2600 858.3000 539.2500L858.3000 539.2500L858.3000 545.9100Q858.3000 546.8100 857.6700 547.4400Q857.0400 548.0700 856.0500 548.0700L856.0500 548.0700L839.4900 548.0700L839.4900 597.8400Q839.4900 598.7400 838.8600 599.3700Q838.2300 600 837.2400 600L837.2400 600ZM887.0100 600.9000L887.0100 600.9000Q879.8100 600.9000 874.9050 598.3800Q870.0000 595.8600 867.4350 591.2700Q864.8700 586.6800 864.5100 580.5600L864.5100 580.5600Q864.4200 578.9400 864.4200 576.6000Q864.4200 574.2600 864.5100 572.6400L864.5100 572.6400Q864.8700 566.4300 867.5250 561.8850Q870.1800 557.3400 875.0850 554.8200Q879.9900 552.3000 887.0100 552.3000L887.0100 552.3000Q894.0300 552.3000 898.9350 554.8200Q903.8400 557.3400 906.4950 561.8850Q909.1500 566.4300 909.5100 572.6400L909.5100 572.6400Q909.6000 574.2600 909.6000 576.6000Q909.6000 578.9400 909.5100 580.5600L909.5100 580.5600Q909.1500 586.6800 906.5850 591.2700Q904.0200 595.8600 899.1150 598.3800Q894.2100 600.9000 887.0100 600.9000ZM887.0100 591.9900L887.0100 591.9900Q891.7800 591.9900 894.3900 588.9750Q897.0000 585.9600 897.2700 580.1100L897.2700 580.1100Q897.3600 578.7600 897.3600 576.6000Q897.3600 574.4400 897.2700 573.0900L897.2700 573.0900Q897.0000 567.2400 894.3900 564.2250Q891.7800 561.2100 887.0100 561.2100L887.0100 561.2100Q882.2400 561.2100 879.6300 564.2250Q877.0200 567.2400 876.7500 573.0900L876.7500 573.0900Q876.6600 574.4400 876.6600 576.6000Q876.6600 578.7600 876.7500 580.1100L876.7500 580.1100Q877.0200 585.9600 879.6300 588.9750Q882.2400 591.9900 887.0100 591.9900ZM936.9600 600.9000L936.9600 600.9000Q932.2800 600.9000 928.7250 599.3250Q925.1700 597.7500 922.8300 594.8700Q920.4900 591.9900 919.2300 588.0750Q917.9700 584.1600 917.7900 579.4800L917.7900 579.4800Q917.7000 577.8600 917.7000 576.5550Q917.7000 575.2500 917.7900 573.6300L917.7900 573.6300Q917.9700 569.1300 919.1850 565.2600Q920.4000 561.3900 922.7850 558.4650Q925.1700 555.5400 928.7250 553.9200Q932.2800 552.3000 936.9600 552.3000L936.9600 552.3000Q941.8200 552.3000 945.1950 553.9650Q948.5700 555.6300 950.8200 558.2400L950.8200 558.2400L950.8200 538.2600Q950.8200 537.3600 951.4050 536.7300Q951.9900 536.1000 952.9800 536.1000L952.9800 536.1000L960.6300 536.1000Q961.5300 536.1000 962.1600 536.7300Q962.7900 537.3600 962.7900 538.2600L962.7900 538.2600L962.7900 597.8400Q962.7900 598.7400 962.1600 599.3700Q961.5300 600 960.6300 600L960.6300 600L953.5200 600Q952.5300 600 951.9450 599.3700Q951.3600 598.7400 951.3600 597.8400L951.3600 597.8400L951.3600 594.5100Q949.1100 597.3000 945.6450 599.1000Q942.1800 600.9000 936.9600 600.9000ZM940.2900 591.2700L940.2900 591.2700Q944.0700 591.2700 946.3200 589.5600Q948.5700 587.8500 949.6500 585.1950Q950.7300 582.5400 950.8200 579.7500L950.8200 579.7500Q950.9100 578.1300 950.9100 576.2850Q950.9100 574.4400 950.8200 572.8200L950.8200 572.8200Q950.7300 570.1200 949.5600 567.6450Q948.3900 565.1700 946.1400 563.5500Q943.8900 561.9300 940.2900 561.9300L940.2900 561.9300Q936.5100 561.9300 934.3050 563.5950Q932.1000 565.2600 931.1100 567.9600Q930.1200 570.6600 929.9400 573.9000L929.9400 573.9000Q929.8500 576.6000 929.9400 579.3000L929.9400 579.3000Q930.1200 582.5400 931.1100 585.2400Q932.1000 587.9400 934.3050 589.6050Q936.5100 591.2700 940.2900 591.2700ZM995.4600 600.9000L995.4600 600.9000Q988.2600 600.9000 983.3550 598.3800Q978.4500 595.8600 975.8850 591.2700Q973.3200 586.6800 972.9600 580.5600L972.9600 580.5600Q972.8700 578.9400 972.8700 576.6000Q972.8700 574.2600 972.9600 572.6400L972.9600 572.6400Q973.3200 566.4300 975.9750 561.8850Q978.6300 557.3400 983.5350 554.8200Q988.4400 552.3000 995.4600 552.3000L995.4600 552.3000Q1002.4800 552.3000 1007.3850 554.8200Q1012.2900 557.3400 1014.9450 561.8850Q1017.6000 566.4300 1017.9600 572.6400L1017.9600 572.6400Q1018.0500 574.2600 1018.0500 576.6000Q1018.0500 578.9400 1017.9600 580.5600L1017.9600 580.5600Q1017.6000 586.6800 1015.0350 591.2700Q1012.4700 595.8600 1007.5650 598.3800Q1002.6600 600.9000 995.4600 600.9000ZM995.4600 591.9900L995.4600 591.9900Q1000.2300 591.9900 1002.8400 588.9750Q1005.4500 585.9600 1005.7200 580.1100L1005.7200 580.1100Q1005.8100 578.7600 1005.8100 576.6000Q1005.8100 574.4400 1005.7200 573.0900L1005.7200 573.0900Q1005.4500 567.2400 1002.8400 564.2250Q1000.2300 561.2100 995.4600 561.2100L995.4600 561.2100Q990.6900 561.2100 988.0800 564.2250Q985.4700 567.2400 985.2000 573.0900L985.2000 573.0900Q985.1100 574.4400 985.1100 576.6000Q985.1100 578.7600 985.2000 580.1100L985.2000 580.1100Q985.4700 585.9600 988.0800 588.9750Q990.6900 591.9900 995.4600 591.9900ZM198.2400 690L159.1800 690Q158.2800 690 157.6500 689.3700Q157.0200 688.7400 157.0200 687.8400L157.0200 687.8400L157.0200 629.1600Q157.0200 628.2600 157.6500 627.6300Q158.2800 627 159.1800 627L159.1800 627L167.5500 627Q168.4500 627 169.0800 627.6300Q169.7100 628.2600 169.7100 629.1600L169.7100 629.1600L169.7100 679.2900L198.2400 679.2900Q199.2300 679.2900 199.8600 679.9200Q200.4900 680.5500 200.4900 681.5400L200.4900 681.5400L200.4900 687.8400Q200.4900 688.7400 199.8600 689.3700Q199.2300 690 198.2400 690L198.2400 690ZM217.7700 690L210.3000 690Q209.4000 690 208.7700 689.3700Q208.1400 688.7400 208.1400 687.8400L208.1400 687.8400L208.1400 645.3600Q208.1400 644.4600 208.7700 643.8300Q209.4000 643.2000 210.3000 643.2000L210.3000 643.2000L217.7700 643.2000Q218.7600 643.2000 219.3450 643.8300Q219.9300 644.4600 219.9300 645.3600L219.9300 645.3600L219.9300 687.8400Q219.9300 688.7400 219.3450 689.3700Q218.7600 690 217.7700 690L217.7700 690ZM218.1300 635.4600L209.9400 635.4600Q209.0400 635.4600 208.4100 634.8300Q207.7800 634.2000 207.7800 633.3000L207.7800 633.3000L207.7800 626.8200Q207.7800 625.9200 208.4100 625.2900Q209.0400 624.6600 209.9400 624.6600L209.9400 624.6600L218.1300 624.6600Q219.1200 624.6600 219.7500 625.2900Q220.3800 625.9200 220.3800 626.8200L220.3800 626.8200L220.3800 633.3000Q220.3800 634.2000 219.7500 634.8300Q219.1200 635.4600 218.1300 635.4600L218.1300 635.4600ZM249.6300 690.9000L249.6300 690.9000Q244.2300 690.9000 240.4050 689.6400Q236.5800 688.3800 234.1500 686.4900Q231.7200 684.6000 230.5500 682.7100Q229.3800 680.8200 229.2900 679.5600L229.2900 679.5600Q229.2000 678.5700 229.8750 677.9850Q230.5500 677.4000 231.3600 677.4000L231.3600 677.4000L238.4700 677.4000Q238.8300 677.4000 239.1000 677.4900Q239.3700 677.5800 239.8200 678.0300L239.8200 678.0300Q240.9900 679.0200 242.2950 680.1000Q243.6000 681.1800 245.4000 681.9450Q247.2000 682.7100 249.9000 682.7100L249.9000 682.7100Q253.4100 682.7100 255.7950 681.3150Q258.1800 679.9200 258.1800 677.3100L258.1800 677.3100Q258.1800 675.4200 257.1450 674.2500Q256.1100 673.0800 253.3200 672.1350Q250.5300 671.1900 245.4000 670.1100L245.4000 670.1100Q240.3600 668.9400 237.0300 667.1400Q233.7000 665.3400 232.0800 662.6400Q230.4600 659.9400 230.4600 656.3400L230.4600 656.3400Q230.4600 652.8300 232.5750 649.6350Q234.6900 646.4400 238.8750 644.3700Q243.0600 642.3000 249.2700 642.3000L249.2700 642.3000Q254.1300 642.3000 257.7300 643.5150Q261.3300 644.7300 263.7150 646.5300Q266.1000 648.3300 267.3600 650.1750Q268.6200 652.0200 268.7100 653.3700L268.7100 653.3700Q268.8000 654.3600 268.1700 654.9450Q267.5400 655.5300 266.7300 655.5300L266.7300 655.5300L260.0700 655.5300Q259.6200 655.5300 259.2600 655.3500Q258.9000 655.1700 258.5400 654.9000L258.5400 654.9000Q257.5500 654 256.3800 652.9650Q255.2100 651.9300 253.5450 651.2100Q251.8800 650.4900 249.1800 650.4900L249.1800 650.4900Q245.7600 650.4900 243.9600 651.9750Q242.1600 653.4600 242.1600 655.7100L242.1600 655.7100Q242.1600 657.2400 243.0150 658.3650Q243.8700 659.4900 246.4800 660.4800Q249.0900 661.4700 254.4000 662.5500L254.4000 662.5500Q260.4300 663.6300 263.9850 665.7450Q267.5400 667.8600 269.0250 670.6050Q270.5100 673.3500 270.5100 676.6800L270.5100 676.6800Q270.5100 680.7300 268.1250 683.9700Q265.7400 687.2100 261.1050 689.0550Q256.4700 690.9000 249.6300 690.9000ZM308.2200 690L300.9300 690Q295.5300 690 291.8400 688.1100Q288.1500 686.2200 286.3500 682.4850Q284.5500 678.7500 284.5500 673.1700L284.5500 673.1700L284.5500 652.7400L277.4400 652.7400Q276.5400 652.7400 275.9100 652.1100Q275.2800 651.4800 275.2800 650.4900L275.2800 650.4900L275.2800 645.3600Q275.2800 644.4600 275.9100 643.8300Q276.5400 643.2000 277.4400 643.2000L277.4400 643.2000L284.5500 643.2000L284.5500 628.2600Q284.5500 627.3600 285.1350 626.7300Q285.7200 626.1000 286.7100 626.1000L286.7100 626.1000L294 626.1000Q294.9000 626.1000 295.5300 626.7300Q296.1600 627.3600 296.1600 628.2600L296.1600 628.2600L296.1600 643.2000L307.4100 643.2000Q308.3100 643.2000 308.9400 643.8300Q309.5700 644.4600 309.5700 645.3600L309.5700 645.3600L309.5700 650.4900Q309.5700 651.4800 308.9400 652.1100Q308.3100 652.7400 307.4100 652.7400L307.4100 652.7400L296.1600 652.7400L296.1600 672.2700Q296.1600 675.9600 297.4650 678.0300Q298.7700 680.1000 302.0100 680.1000L302.0100 680.1000L308.2200 680.1000Q309.1200 680.1000 309.7500 680.7300Q310.3800 681.3600 310.3800 682.2600L310.3800 682.2600L310.3800 687.8400Q310.3800 688.7400 309.7500 689.3700Q309.1200 690 308.2200 690L308.2200 690Z" id="title"/><path d="M1396.4200 642.2000L1396.4200 642.2000Q1381.0200 642.2000 1369.8000 638.4600Q1358.5800 634.7200 1351.2100 628.6700Q1343.8400 622.6200 1340.1000 615.4700Q1336.3600 608.3200 1336.1400 601.2800L1336.1400 601.2800Q1336.1400 599.3000 1337.5700 598.0900Q1339 596.8800 1340.9800 596.8800L1340.9800 596.8800L1360.7800 596.8800Q1362.9800 596.8800 1364.5200 597.7600Q1366.0600 598.6400 1367.1600 601.2800L1367.1600 601.2800Q1369.1400 607.2200 1373.6500 610.7400Q1378.1600 614.2600 1384.1000 615.6900Q1390.0400 617.1200 1396.6400 617.1200L1396.6400 617.1200Q1409.8400 617.1200 1417.6500 610.8500Q1425.4600 604.5800 1425.4600 592.9200L1425.4600 592.9200Q1425.4600 581.2600 1418.2000 576.0900Q1410.9400 570.9200 1397.9600 570.9200L1397.9600 570.9200L1375.3000 570.9200Q1372.8800 570.9200 1371.3400 569.4900Q1369.8000 568.0600 1369.8000 565.6400L1369.8000 565.6400L1369.8000 556.4000Q1369.8000 554.2000 1370.7900 552.5500Q1371.7800 550.9000 1372.8800 549.8000L1372.8800 549.8000L1412.2600 511.3000L1349.3400 511.3000Q1346.9200 511.3000 1345.4900 509.7600Q1344.0600 508.2200 1344.0600 506.0200L1344.0600 506.0200L1344.0600 491.5000Q1344.0600 489.0800 1345.4900 487.5400Q1346.9200 486 1349.3400 486L1349.3400 486L1443.7200 486Q1446.1400 486 1447.6800 487.5400Q1449.2200 489.0800 1449.2200 491.5000L1449.2200 491.5000L1449.2200 504.7000Q1449.2200 506.6800 1448.3400 508.2200Q1447.4600 509.7600 1446.3600 510.8600L1446.3600 510.8600L1408.3000 550.0200L1410.9400 550.2400Q1424.3600 551.3400 1434.8100 556.2900Q1445.2600 561.2400 1451.0900 570.7000Q1456.9200 580.1600 1456.9200 594.4600L1456.9200 594.4600Q1456.9200 609.4200 1449.1100 620.0900Q1441.3000 630.7600 1427.6600 636.4800Q1414.0200 642.2000 1396.4200 642.2000ZM1586.9400 640L1481.7800 640Q1479.5800 640 1478.0400 638.4600Q1476.5000 636.9200 1476.5000 634.7200L1476.5000 634.7200L1476.5000 623.5000Q1476.5000 621.5200 1477.4900 618.7700Q1478.4800 616.0200 1482 613.1600L1482 613.1600L1516.7600 578.6200Q1531.2800 567.1800 1540.1900 559.1500Q1549.1000 551.1200 1553.1700 544.4100Q1557.2400 537.7000 1557.2400 531.1000L1557.2400 531.1000Q1557.2400 521.2000 1551.8500 515.0400Q1546.4600 508.8800 1534.8000 508.8800L1534.8000 508.8800Q1527.1000 508.8800 1521.8200 512.0700Q1516.5400 515.2600 1513.5700 520.5400Q1510.6000 525.8200 1509.5000 532.2000L1509.5000 532.2000Q1509.0600 535.0600 1507.0800 536.1600Q1505.1000 537.2600 1503.1200 537.2600L1503.1200 537.2600L1483.5400 537.2600Q1481.5600 537.2600 1480.2400 535.9400Q1478.9200 534.6200 1478.9200 532.8600L1478.9200 532.8600Q1479.1400 523.4000 1482.8800 514.4900Q1486.6200 505.5800 1493.7700 498.6500Q1500.9200 491.7200 1511.2600 487.5400Q1521.6000 483.3600 1534.5800 483.3600L1534.5800 483.3600Q1552.8400 483.3600 1564.8300 489.5200Q1576.8200 495.6800 1582.8700 506.2400Q1588.9200 516.8000 1588.9200 530L1588.9200 530Q1588.9200 540.3400 1584.9600 549.0300Q1581 557.7200 1573.5200 565.7500Q1566.0400 573.7800 1555.4800 582.1400L1555.4800 582.1400L1524.2400 613.8200L1586.9400 613.8200Q1589.3600 613.8200 1590.7900 615.2500Q1592.2200 616.6800 1592.2200 619.1000L1592.2200 619.1000L1592.2200 634.7200Q1592.2200 636.9200 1590.7900 638.4600Q1589.3600 640 1586.9400 640L1586.9400 640ZM1643.2600 640L1621.2600 640Q1619.0600 640 1617.5200 638.4600Q1615.9800 636.9200 1615.9800 634.7200L1615.9800 634.7200L1615.9800 612.9400Q1615.9800 610.5200 1617.5200 608.9800Q1619.0600 607.4400 1621.2600 607.4400L1621.2600 607.4400L1643.2600 607.4400Q1645.4600 607.4400 1647 608.9800Q1648.5400 610.5200 1648.5400 612.9400L1648.5400 612.9400L1648.5400 634.7200Q1648.5400 636.9200 1647 638.4600Q1645.4600 640 1643.2600 640L1643.2600 640ZM1713.2200 640L1692.7600 640Q1690.7800 640 1689.4600 638.5700Q1688.1400 637.1400 1688.1400 635.1600L1688.1400 635.1600Q1688.1400 634.0600 1688.4700 633.4000Q1688.8000 632.7400 1689.0200 632.3000L1689.0200 632.3000L1721.3600 587.6400Q1717.1800 588.7400 1712.3400 588.5200L1712.3400 588.5200Q1701.1200 588.3000 1691.5500 584.2300Q1681.9800 580.1600 1674.8300 573.2300Q1667.6800 566.3000 1663.6100 557.1700Q1659.5400 548.0400 1659.5400 537.2600L1659.5400 537.2600Q1659.5400 527.3600 1663.2800 517.7900Q1667.0200 508.2200 1674.3900 500.5200Q1681.7600 492.8200 1692.8700 488.3100Q1703.9800 483.8000 1718.9400 483.8000L1718.9400 483.8000Q1733.6800 483.8000 1744.9000 487.9800Q1756.1200 492.1600 1763.7100 499.5300Q1771.3000 506.9000 1775.1500 516.3600Q1779 525.8200 1779 536.3800L1779 536.3800Q1779 545.8400 1775.9200 553.9800Q1772.8400 562.1200 1768.3300 568.8300Q1763.8200 575.5400 1759.4200 581.9200L1759.4200 581.9200L1720.7000 635.6000Q1719.8200 636.7000 1718.1700 638.3500Q1716.5200 640 1713.2200 640L1713.2200 640ZM1719.1600 565.2000L1719.1600 565.2000Q1727.0800 565.2000 1733.5700 561.7900Q1740.0600 558.3800 1743.9100 552.1100Q1747.7600 545.8400 1747.7600 537.2600L1747.7600 537.2600Q1747.7600 528.4600 1743.9100 522.1900Q1740.0600 515.9200 1733.4600 512.5100Q1726.8600 509.1000 1719.1600 509.1000L1719.1600 509.1000Q1711.2400 509.1000 1704.7500 512.5100Q1698.2600 515.9200 1694.4100 522.1900Q1690.5600 528.4600 1690.5600 537.2600L1690.5600 537.2600Q1690.5600 545.8400 1694.4100 552.1100Q1698.2600 558.3800 1704.7500 561.7900Q1711.2400 565.2000 1719.1600 565.2000Z" id="lecture-full-number"/></g></svg>