<svg xmlns="http://www.w3.org/2000/svg" version="1.1" xmlns:xlink="http://www.w3.org/1999/xlink" xmlns:svgjs="http://svgjs.dev/svgjs" viewBox="0 0 1920 1080" id="55d6002e-6aa7-414d-b71d-771d5b324d65"><g><rect width="1920" height="1080" fill="#798086"/></g><g fill="#b949a4"><path d="M745.478 668.096L1087.28 1009.97L1200.88 896.347L859.076 554.473L745.478 668.096Z"/><path d="M858.951 554.294L517.152 896.168L630.75 1009.79L972.549 667.917L858.951 554.294Z"/><path d="M289.239 668.391L631.038 1010.27L744.636 896.643L402.837 554.769L289.239 668.391Z"/><path d="M402.706 554L60.907 895.874L174.505 1009.5L516.304 667.623L402.706 554Z"/><path d="M-166 667.682L175.799 1009.56L289.397 895.933L-52.4021 554.059L-166 667.682Z"/></g><g fill="#ffffff" opacity="0.2"><path d="M1134 160C1540.91 160 1872 491.086 1872 898C1872 1304.91 1540.91 1636 1134 1636C727.086 1635.56 396 1304.91 396 898C396 491.086 727.086 160 1134 160ZM1134 1611.31C1527.25 1611.31 1847.31 1291.25 1847.31 898C1847.31 504.753 1527.25 184.247 1134 184.247C740.753 184.247 420.247 504.312 420.247 898C420.247 1291.69 740.312 1611.31 1134 1611.31Z"/><path d="M1134 251.699C1490.22 251.699 1780.3 541.785 1780.3 898C1780.3 1254.22 1490.22 1544.3 1134 1544.3C777.785 1544.3 487.699 1254.22 487.699 898C487.699 541.785 777.344 251.699 1134 251.699ZM1134 1519.61C1476.99 1519.61 1756.05 1240.55 1756.05 897.559C1756.05 554.57 1476.99 275.947 1134 275.947C791.011 275.947 511.946 555.011 511.946 898C511.946 1240.99 791.011 1519.61 1134 1519.61Z"/><path d="M1134 342.957C1439.96 342.957 1688.6 592.043 1688.6 897.559C1688.6 1203.52 1439.52 1452.16 1134 1452.16C828.043 1452.16 579.398 1203.08 579.398 897.559C578.957 592.043 828.043 342.957 1134 342.957ZM1134 1428.35C1426.29 1428.35 1664.35 1190.29 1664.35 898C1664.35 605.71 1426.29 367.645 1134 367.645C841.71 367.645 603.645 605.71 603.645 898C603.645 1190.29 841.269 1428.35 1134 1428.35Z"/><path d="M1134 434.656C1389.26 434.656 1597.34 642.301 1597.34 898C1597.34 1153.7 1389.7 1361.34 1134 1361.34C878.742 1361.34 670.656 1153.7 670.656 898C670.656 642.301 878.301 434.656 1134 434.656ZM1134 1336.66C1376.03 1336.66 1572.66 1139.59 1572.66 898C1572.66 656.408 1375.59 459.344 1134 459.344C891.968 459.344 695.344 656.408 695.344 898C695.344 1139.59 891.968 1336.66 1134 1336.66Z"/><path d="M1134 526.354C1339 526.354 1505.65 693 1505.65 898C1505.65 1103 1339 1269.64 1134 1269.64C929 1269.64 762.355 1103 762.355 898C762.355 693 929 526.354 1134 526.354ZM1134 1244.96C1325.33 1244.96 1481.4 1089.33 1481.4 897.559C1481.4 706.225 1325.77 550.161 1134 550.161C942.667 550.161 786.602 705.785 786.602 897.559C786.602 1089.33 942.226 1244.96 1134 1244.96Z"/><path d="M1134 617.613C1288.3 617.613 1414.39 743.258 1414.39 898C1414.39 1052.74 1288.74 1178.39 1134 1178.39C979.699 1178.39 853.613 1052.74 853.613 898C853.613 743.258 979.258 617.613 1134 617.613ZM1134 1153.7C1275.08 1153.7 1389.7 1039.08 1389.7 898C1389.7 756.925 1275.08 642.301 1134 642.301C992.925 642.301 878.301 756.925 878.301 898C878.301 1039.08 992.925 1153.7 1134 1153.7Z"/><path d="M1134 709.312C1238.04 709.312 1322.69 793.957 1322.69 898C1322.69 1002.04 1238.04 1086.69 1134 1086.69C1029.96 1086.69 945.312 1002.04 945.312 898C945.312 793.957 1029.96 709.312 1134 709.312ZM1134 1062C1224.38 1062 1298.44 988.377 1298.44 897.559C1298.44 807.183 1224.82 733.118 1134 733.118C1043.62 733.118 969.559 806.742 969.559 897.559C969.559 988.377 1043.18 1062 1134 1062Z"/><path d="M1134 800.57C1187.34 800.57 1230.99 844.215 1230.99 897.56C1230.99 950.904 1187.34 994.549 1134 994.549C1080.66 994.549 1037.01 950.904 1037.01 897.56C1036.57 844.215 1080.22 800.57 1134 800.57ZM1134 970.742C1174.12 970.742 1206.74 938.119 1206.74 898C1206.74 857.882 1174.12 825.258 1134 825.258C1093.88 825.258 1061.26 857.882 1061.26 898C1061.26 938.119 1093.88 970.742 1134 970.742Z"/></g><g><path d="M178.635 139.281L184.422 144.246V166.626H215.704L219.958 172.147L215.69 177.397H184.422V198.795L178.635 203.747L173 198.795V144.232L178.635 139.281ZM195.554 195.68H219.406L223.397 200.915L219.143 206.45H195.554L191.7 201.342L195.554 195.68ZM196.382 138H219.129L223.383 143.52L219.129 148.77H196.659L192.115 143.677L196.382 138ZM323.155 148.628L328.251 154.291L323.155 159.968H246.13L241.172 154.291L246.13 148.628H323.155ZM237.043 172.147L241.849 167.893L246.669 172.147V178.393C246.669 188.879 249.417 197.515 261.668 197.515H264.14C275.147 197.515 281.197 189.86 281.197 177.952V172.005L285.879 167.75L290.699 171.862V178.379C290.699 189.007 293.723 196.946 305.56 196.946H307.618C319.178 196.946 321.235 187.869 321.373 177.952V171.578L326.056 167.608L331 171.72V178.094C330.862 191.838 327.285 207.574 308.032 207.574H305.974C294.552 207.574 288.365 202.324 285.892 195.808C283.006 202.466 275.299 208.286 264.844 208.286H262.358C242.553 208.286 237.194 195.964 237.056 178.663V172.147H237.043ZM276.391 274.744L273.642 267.089L280.796 264.969L305.974 276.721V252.491L311.07 248.095L316.291 252.491V281.829L325.641 286.226L328.251 293.311L320.959 296L276.391 274.744ZM321.235 223.011L328.113 226.27L325.917 233.497L264.002 263.119L256.571 260.146L259.596 252.776L321.235 223.011ZM231.905 263.404L237.954 268.512C237.402 286.51 222.403 296 204.669 296H202.874C194.062 296 183.759 292.6 177.157 286.083L177.834 278.855L184.298 278.002C189.118 282.256 195.858 285.229 202.183 285.229H204.117C216.091 285.229 225.303 280.136 226.27 268.085L231.905 263.404ZM226.256 251.638C225.704 239.16 216.629 234.209 204.103 234.209H202.169C194.739 234.209 189.104 237.182 184.284 241.436L177.834 240.583L177.143 233.355C183.745 226.696 192.957 223.58 202.597 223.58H204.517C222.403 223.58 237.402 232.942 237.94 251.211L231.891 256.176L226.256 251.638Z" fill="#ffffff"/></g><path d="M1171 781L1171 339L1187 339L1187 781L1171 781Z" fill="#ffffff"/><g fill="#ffffff" id="info-group"><path d="M167.7300 600L159.1800 600Q158.2800 600 157.6500 599.3700Q157.0200 598.7400 157.0200 597.8400L157.0200 597.8400L157.0200 539.2500Q157.0200 538.2600 157.6500 537.6300Q158.2800 537 159.1800 537L159.1800 537L183.3000 537Q190.3200 537 195.5400 539.2050Q200.7600 541.4100 203.6400 545.8650Q206.5200 550.3200 206.5200 556.9800L206.5200 556.9800Q206.5200 563.7300 203.6400 568.0950Q200.7600 572.4600 195.5400 574.6200Q190.3200 576.7800 183.3000 576.7800L183.3000 576.7800L169.8900 576.7800L169.8900 597.8400Q169.8900 598.7400 169.3050 599.3700Q168.7200 600 167.7300 600L167.7300 600ZM169.7100 546.9900L169.7100 566.7900L182.8500 566.7900Q188.0700 566.7900 190.8600 564.3150Q193.6500 561.8400 193.6500 556.9800L193.6500 556.9800Q193.6500 552.4800 191.0400 549.7350Q188.4300 546.9900 182.8500 546.9900L182.8500 546.9900L169.7100 546.9900ZM224.9700 600L217.5000 600Q216.6000 600 215.9700 599.3700Q215.3400 598.7400 215.3400 597.8400L215.3400 597.8400L215.3400 538.2600Q215.3400 537.3600 215.9700 536.7300Q216.6000 536.1000 217.5000 536.1000L217.5000 536.1000L224.9700 536.1000Q225.8700 536.1000 226.5000 536.7300Q227.1300 537.3600 227.1300 538.2600L227.1300 538.2600L227.1300 597.8400Q227.1300 598.7400 226.5000 599.3700Q225.8700 600 224.9700 600L224.9700 600ZM256.4700 600.9000L256.4700 600.9000Q250.9800 600.9000 246.9750 598.4250Q242.9700 595.9500 240.8100 591.4050Q238.6500 586.8600 238.6500 580.6500L238.6500 580.6500L238.6500 555.3600Q238.6500 554.4600 239.2800 553.8300Q239.9100 553.2000 240.8100 553.2000L240.8100 553.2000L248.7300 553.2000Q249.7200 553.2000 250.3050 553.8300Q250.8900 554.4600 250.8900 555.3600L250.8900 555.3600L250.8900 580.1100Q250.8900 591.2700 260.7000 591.2700L260.7000 591.2700Q265.3800 591.2700 268.1250 588.3000Q270.8700 585.3300 270.8700 580.1100L270.8700 580.1100L270.8700 555.3600Q270.8700 554.4600 271.5000 553.8300Q272.1300 553.2000 273.0300 553.2000L273.0300 553.2000L280.9500 553.2000Q281.8500 553.2000 282.4800 553.8300Q283.1100 554.4600 283.1100 555.3600L283.1100 555.3600L283.1100 597.8400Q283.1100 598.7400 282.4800 599.3700Q281.8500 600 280.9500 600L280.9500 600L273.6600 600Q272.6700 600 272.0850 599.3700Q271.5000 598.7400 271.5000 597.8400L271.5000 597.8400L271.5000 594.1500Q269.0700 597.3000 265.4700 599.1000Q261.8700 600.9000 256.4700 600.9000ZM316.1400 619.8000L316.1400 619.8000Q309.5700 619.8000 305.3400 618.0900Q301.1100 616.3800 298.6800 613.9500Q296.2500 611.5200 295.2150 609.1350Q294.1800 606.7500 294.0900 605.4000L294.0900 605.4000Q294 604.5000 294.6750 603.8250Q295.3500 603.1500 296.2500 603.1500L296.2500 603.1500L304.0800 603.1500Q304.9800 603.1500 305.5200 603.5550Q306.0600 603.9600 306.4200 605.0400L306.4200 605.0400Q306.9600 606.2100 307.8600 607.5600Q308.7600 608.9100 310.6050 609.8550Q312.4500 610.8000 315.6900 610.8000L315.6900 610.8000Q319.1100 610.8000 321.4500 609.8100Q323.7900 608.8200 325.0050 606.4800Q326.2200 604.1400 326.2200 600L326.2200 600L326.2200 593.8800Q324.0600 596.4900 320.6850 598.1100Q317.3100 599.7300 312.3600 599.7300L312.3600 599.7300Q307.5900 599.7300 304.0350 598.1550Q300.4800 596.5800 298.1400 593.7450Q295.8000 590.9100 294.5850 587.0400Q293.3700 583.1700 293.1900 578.4900L293.1900 578.4900Q293.1000 576.0600 293.1900 573.6300L293.1900 573.6300Q293.3700 569.1300 294.5850 565.2600Q295.8000 561.3900 298.1400 558.4650Q300.4800 555.5400 304.0350 553.9200Q307.5900 552.3000 312.3600 552.3000L312.3600 552.3000Q317.4900 552.3000 321 554.2350Q324.5100 556.1700 326.7600 559.0500L326.7600 559.0500L326.7600 555.4500Q326.7600 554.4600 327.3900 553.8300Q328.0200 553.2000 328.9200 553.2000L328.9200 553.2000L336.2100 553.2000Q337.1100 553.2000 337.7400 553.8300Q338.3700 554.4600 338.3700 555.4500L338.3700 555.4500L338.4600 598.8300Q338.4600 605.3100 336.0300 609.9900Q333.6000 614.6700 328.6950 617.2350Q323.7900 619.8000 316.1400 619.8000ZM315.6900 590.1900L315.6900 590.1900Q319.3800 590.1900 321.6300 588.5700Q323.8800 586.9500 324.9600 584.3400Q326.0400 581.7300 326.2200 579.0300L326.2200 579.0300Q326.3100 577.8600 326.3100 576.0600Q326.3100 574.2600 326.2200 573.1800L326.2200 573.1800Q326.0400 570.3900 324.9600 567.8250Q323.8800 565.2600 321.6300 563.5950Q319.3800 561.9300 315.6900 561.9300L315.6900 561.9300Q312 561.9300 309.7500 563.5950Q307.5000 565.2600 306.5550 567.9600Q305.6100 570.6600 305.4300 573.9000L305.4300 573.9000Q305.2500 576.0600 305.4300 578.3100L305.4300 578.3100Q305.6100 581.4600 306.5550 584.2050Q307.5000 586.9500 309.7500 588.5700Q312 590.1900 315.6900 590.1900ZM360.0600 600L352.5900 600Q351.6900 600 351.0600 599.3700Q350.4300 598.7400 350.4300 597.8400L350.4300 597.8400L350.4300 555.3600Q350.4300 554.4600 351.0600 553.8300Q351.6900 553.2000 352.5900 553.2000L352.5900 553.2000L360.0600 553.2000Q361.0500 553.2000 361.6350 553.8300Q362.2200 554.4600 362.2200 555.3600L362.2200 555.3600L362.2200 597.8400Q362.2200 598.7400 361.6350 599.3700Q361.0500 600 360.0600 600L360.0600 600ZM360.4200 545.4600L352.2300 545.4600Q351.3300 545.4600 350.7000 544.8300Q350.0700 544.2000 350.0700 543.3000L350.0700 543.3000L350.0700 536.8200Q350.0700 535.9200 350.7000 535.2900Q351.3300 534.6600 352.2300 534.6600L352.2300 534.6600L360.4200 534.6600Q361.4100 534.6600 362.0400 535.2900Q362.6700 535.9200 362.6700 536.8200L362.6700 536.8200L362.6700 543.3000Q362.6700 544.2000 362.0400 544.8300Q361.4100 545.4600 360.4200 545.4600L360.4200 545.4600ZM384.2700 600L376.3500 600Q375.4500 600 374.8200 599.3700Q374.1900 598.7400 374.1900 597.8400L374.1900 597.8400L374.1900 555.3600Q374.1900 554.4600 374.8200 553.8300Q375.4500 553.2000 376.3500 553.2000L376.3500 553.2000L383.7300 553.2000Q384.6300 553.2000 385.2600 553.8300Q385.8900 554.4600 385.8900 555.3600L385.8900 555.3600L385.8900 559.0500Q388.2300 556.1700 391.8750 554.2350Q395.5200 552.3000 400.9200 552.3000L400.9200 552.3000Q406.4100 552.3000 410.4600 554.7750Q414.5100 557.2500 416.7150 561.7500Q418.9200 566.2500 418.9200 572.5500L418.9200 572.5500L418.9200 597.8400Q418.9200 598.7400 418.2900 599.3700Q417.6600 600 416.7600 600L416.7600 600L408.8400 600Q407.9400 600 407.3100 599.3700Q406.6800 598.7400 406.6800 597.8400L406.6800 597.8400L406.6800 573.0900Q406.6800 567.8700 404.1150 564.9000Q401.5500 561.9300 396.6900 561.9300L396.6900 561.9300Q392.0100 561.9300 389.2200 564.9000Q386.4300 567.8700 386.4300 573.0900L386.4300 573.0900L386.4300 597.8400Q386.4300 598.7400 385.8000 599.3700Q385.1700 600 384.2700 600L384.2700 600ZM448.0800 600.9000L448.0800 600.9000Q442.6800 600.9000 438.8550 599.6400Q435.0300 598.3800 432.6000 596.4900Q430.1700 594.6000 429.0000 592.7100Q427.8300 590.8200 427.7400 589.5600L427.7400 589.5600Q427.6500 588.5700 428.3250 587.9850Q429.0000 587.4000 429.8100 587.4000L429.8100 587.4000L436.9200 587.4000Q437.2800 587.4000 437.5500 587.4900Q437.8200 587.5800 438.2700 588.0300L438.2700 588.0300Q439.4400 589.0200 440.7450 590.1000Q442.0500 591.1800 443.8500 591.9450Q445.6500 592.7100 448.3500 592.7100L448.3500 592.7100Q451.8600 592.7100 454.2450 591.3150Q456.6300 589.9200 456.6300 587.3100L456.6300 587.3100Q456.6300 585.4200 455.5950 584.2500Q454.5600 583.0800 451.7700 582.1350Q448.9800 581.1900 443.8500 580.1100L443.8500 580.1100Q438.8100 578.9400 435.4800 577.1400Q432.1500 575.3400 430.5300 572.6400Q428.9100 569.9400 428.9100 566.3400L428.9100 566.3400Q428.9100 562.8300 431.0250 559.6350Q433.1400 556.4400 437.3250 554.3700Q441.5100 552.3000 447.7200 552.3000L447.7200 552.3000Q452.5800 552.3000 456.1800 553.5150Q459.7800 554.7300 462.1650 556.5300Q464.5500 558.3300 465.8100 560.1750Q467.0700 562.0200 467.1600 563.3700L467.1600 563.3700Q467.2500 564.3600 466.6200 564.9450Q465.9900 565.5300 465.1800 565.5300L465.1800 565.5300L458.5200 565.5300Q458.0700 565.5300 457.7100 565.3500Q457.3500 565.1700 456.9900 564.9000L456.9900 564.9000Q456.0000 564 454.8300 562.9650Q453.6600 561.9300 451.9950 561.2100Q450.3300 560.4900 447.6300 560.4900L447.6300 560.4900Q444.2100 560.4900 442.4100 561.9750Q440.6100 563.4600 440.6100 565.7100L440.6100 565.7100Q440.6100 567.2400 441.4650 568.3650Q442.3200 569.4900 444.9300 570.4800Q447.5400 571.4700 452.8500 572.5500L452.8500 572.5500Q458.8800 573.6300 462.4350 575.7450Q465.9900 577.8600 467.4750 580.6050Q468.9600 583.3500 468.9600 586.6800L468.9600 586.6800Q468.9600 590.7300 466.5750 593.9700Q464.1900 597.2100 459.5550 599.0550Q454.9200 600.9000 448.0800 600.9000ZM494.5200 617.1000L491.1000 617.1000Q490.2000 617.1000 489.5700 616.4700Q488.9400 615.8400 488.9400 614.9400L488.9400 614.9400L488.9400 609.7200Q488.9400 608.8200 489.5700 608.1900Q490.2000 607.5600 491.1000 607.5600L491.1000 607.5600L493.4400 607.5600Q496.2300 607.5600 497.5800 606.5700Q498.9300 605.5800 499.3800 603.8250Q499.8300 602.0700 499.8300 599.9100L499.8300 599.9100L499.8300 555.3600Q499.8300 554.4600 500.4600 553.8300Q501.0900 553.2000 501.9900 553.2000L501.9900 553.2000L509.8200 553.2000Q510.7200 553.2000 511.3500 553.8300Q511.9800 554.4600 511.9800 555.3600L511.9800 555.3600L511.9800 600.0900Q511.9800 605.4000 510.0450 609.1800Q508.1100 612.9600 504.2850 615.0300Q500.4600 617.1000 494.5200 617.1000L494.5200 617.1000ZM510.0900 545.4600L501.6300 545.4600Q500.6400 545.4600 500.0550 544.8300Q499.4700 544.2000 499.4700 543.3000L499.4700 543.3000L499.4700 536.8200Q499.4700 535.9200 500.0550 535.2900Q500.6400 534.6600 501.6300 534.6600L501.6300 534.6600L510.0900 534.6600Q511.0800 534.6600 511.7100 535.2900Q512.3400 535.9200 512.3400 536.8200L512.3400 536.8200L512.3400 543.3000Q512.3400 544.2000 511.7100 544.8300Q511.0800 545.4600 510.0900 545.4600L510.0900 545.4600ZM573.8100 605.8500L565.4400 605.8500Q564.1800 605.8500 563.4150 605.0850Q562.6500 604.3200 562.2000 603.7800L562.2000 603.7800L558.8700 599.2800Q554.6400 600.9000 549.2400 600.9000L549.2400 600.9000Q541.2300 600.9000 535.4250 598.2450Q529.6200 595.5900 526.4250 590.0550Q523.2300 584.5200 522.8700 576.2400L522.8700 576.2400Q522.7800 572.3700 522.7800 568.5900Q522.7800 564.8100 522.8700 560.8500L522.8700 560.8500Q523.2300 552.6600 526.5150 547.1700Q529.8000 541.6800 535.6500 538.8900Q541.5000 536.1000 549.2400 536.1000L549.2400 536.1000Q556.9800 536.1000 562.8300 538.8900Q568.6800 541.6800 572.0100 547.1700Q575.3400 552.6600 575.5200 560.8500L575.5200 560.8500Q575.7000 564.8100 575.7000 568.5900Q575.7000 572.3700 575.5200 576.2400L575.5200 576.2400Q575.0700 588.0300 569.0400 594.1500L569.0400 594.1500L575.3400 603.0600Q575.4300 603.1500 575.5200 603.3750Q575.6100 603.6000 575.6100 603.9600L575.6100 603.9600Q575.7000 604.7700 575.1150 605.3100Q574.5300 605.8500 573.8100 605.8500L573.8100 605.8500ZM549.2400 590.5500L549.2400 590.5500Q555 590.5500 558.6900 587.0850Q562.3800 583.6200 562.6500 575.7900L562.6500 575.7900Q562.8300 571.8300 562.8300 568.4550Q562.8300 565.0800 562.6500 561.2100L562.6500 561.2100Q562.5600 555.9900 560.7600 552.7050Q558.9600 549.4200 556.0350 547.9350Q553.1100 546.4500 549.2400 546.4500L549.2400 546.4500Q545.4600 546.4500 542.4900 547.9350Q539.5200 549.4200 537.7650 552.7050Q536.0100 555.9900 535.7400 561.2100L535.7400 561.2100Q535.6500 565.0800 535.6500 568.4550Q535.6500 571.8300 535.7400 575.7900L535.7400 575.7900Q536.1000 583.6200 539.7900 587.0850Q543.4800 590.5500 549.2400 590.5500ZM603.8700 600.9000L603.8700 600.9000Q598.3800 600.9000 594.3750 598.4250Q590.3700 595.9500 588.2100 591.4050Q586.0500 586.8600 586.0500 580.6500L586.0500 580.6500L586.0500 555.3600Q586.0500 554.4600 586.6800 553.8300Q587.3100 553.2000 588.2100 553.2000L588.2100 553.2000L596.1300 553.2000Q597.1200 553.2000 597.7050 553.8300Q598.2900 554.4600 598.2900 555.3600L598.2900 555.3600L598.2900 580.1100Q598.2900 591.2700 608.1000 591.2700L608.1000 591.2700Q612.7800 591.2700 615.5250 588.3000Q618.2700 585.3300 618.2700 580.1100L618.2700 580.1100L618.2700 555.3600Q618.2700 554.4600 618.9000 553.8300Q619.5300 553.2000 620.4300 553.2000L620.4300 553.2000L628.3500 553.2000Q629.2500 553.2000 629.8800 553.8300Q630.5100 554.4600 630.5100 555.3600L630.5100 555.3600L630.5100 597.8400Q630.5100 598.7400 629.8800 599.3700Q629.2500 600 628.3500 600L628.3500 600L621.0600 600Q620.0700 600 619.4850 599.3700Q618.9000 598.7400 618.9000 597.8400L618.9000 597.8400L618.9000 594.1500Q616.4700 597.3000 612.8700 599.1000Q609.2700 600.9000 603.8700 600.9000ZM662.5500 600.9000L662.5500 600.9000Q652.5600 600.9000 646.7100 595.1400Q640.8600 589.3800 640.4100 578.7600L640.4100 578.7600Q640.3200 577.8600 640.3200 576.4650Q640.3200 575.0700 640.4100 574.2600L640.4100 574.2600Q640.7700 567.4200 643.5150 562.5150Q646.2600 557.6100 651.1200 554.9550Q655.9800 552.3000 662.5500 552.3000L662.5500 552.3000Q669.8400 552.3000 674.7900 555.3150Q679.7400 558.3300 682.2600 563.6850Q684.7800 569.0400 684.7800 576.0600L684.7800 576.0600L684.7800 577.9500Q684.7800 578.8500 684.1500 579.4800Q683.5200 580.1100 682.5300 580.1100L682.5300 580.1100L652.6500 580.1100Q652.6500 580.1100 652.6500 580.3800Q652.6500 580.6500 652.6500 580.8300L652.6500 580.8300Q652.7400 583.9800 653.8650 586.6350Q654.9900 589.2900 657.1950 590.9100Q659.4000 592.5300 662.4600 592.5300L662.4600 592.5300Q664.9800 592.5300 666.6900 591.7650Q668.4000 591 669.4800 590.0100Q670.5600 589.0200 671.0100 588.3900L671.0100 588.3900Q671.8200 587.3100 672.3150 587.0850Q672.8100 586.8600 673.8000 586.8600L673.8000 586.8600L681.5400 586.8600Q682.4400 586.8600 683.0250 587.4000Q683.6100 587.9400 683.5200 588.7500L683.5200 588.7500Q683.4300 590.1900 682.0350 592.2600Q680.6400 594.3300 678.0300 596.3100Q675.4200 598.2900 671.5050 599.5950Q667.5900 600.9000 662.5500 600.9000ZM652.6500 572.2800L652.6500 572.5500L672.5400 572.5500L672.5400 572.2800Q672.5400 568.7700 671.3700 566.1150Q670.2000 563.4600 667.9500 561.9750Q665.7000 560.4900 662.5500 560.4900L662.5500 560.4900Q659.4000 560.4900 657.1500 561.9750Q654.9000 563.4600 653.7750 566.1150Q652.6500 568.7700 652.6500 572.2800L652.6500 572.2800ZM704.3100 600L696.4800 600Q695.5800 600 694.9500 599.3700Q694.3200 598.7400 694.3200 597.8400L694.3200 597.8400L694.3200 555.4500Q694.3200 554.4600 694.9500 553.8300Q695.5800 553.2000 696.4800 553.2000L696.4800 553.2000L703.7700 553.2000Q704.6700 553.2000 705.3450 553.8300Q706.0200 554.4600 706.0200 555.4500L706.0200 555.4500L706.0200 559.1400Q708.0900 556.2600 711.3750 554.7300Q714.6600 553.2000 718.9800 553.2000L718.9800 553.2000L722.6700 553.2000Q723.6600 553.2000 724.2450 553.8300Q724.8300 554.4600 724.8300 555.3600L724.8300 555.3600L724.8300 561.8400Q724.8300 562.7400 724.2450 563.3700Q723.6600 564 722.6700 564L722.6700 564L715.6500 564Q711.3300 564 708.9450 566.3850Q706.5600 568.7700 706.5600 573.0900L706.5600 573.0900L706.5600 597.8400Q706.5600 598.7400 705.9300 599.3700Q705.3000 600 704.3100 600L704.3100 600ZM747.4200 617.1000L740.3100 617.1000Q739.5900 617.1000 739.0500 616.5600Q738.5100 616.0200 738.5100 615.3000L738.5100 615.3000Q738.5100 614.9400 738.5550 614.6250Q738.6000 614.3100 738.8700 613.8600L738.8700 613.8600L745.8900 597.2100L728.6100 556.4400Q728.2500 555.5400 728.2500 555.1800L728.2500 555.1800Q728.3400 554.3700 728.8800 553.7850Q729.4200 553.2000 730.2300 553.2000L730.2300 553.2000L737.5200 553.2000Q738.6000 553.2000 739.1400 553.7400Q739.6800 554.2800 739.9500 554.9100L739.9500 554.9100L751.9200 584.3400L764.2500 554.9100Q764.5200 554.1900 765.0600 553.6950Q765.6000 553.2000 766.6800 553.2000L766.6800 553.2000L773.8800 553.2000Q774.6000 553.2000 775.1850 553.7400Q775.7700 554.2800 775.7700 555L775.7700 555Q775.7700 555.5400 775.4100 556.4400L775.4100 556.4400L749.9400 615.3900Q749.5800 616.1100 749.0400 616.6050Q748.5000 617.1000 747.4200 617.1000L747.4200 617.1000Z" id="title"/><path d="M1408.9600 640L1388.9400 640Q1386.5200 640 1385.0900 638.4600Q1383.6600 636.9200 1383.6600 634.7200L1383.6600 634.7200L1383.6600 520.7600L1350.2200 546.5000Q1348.2400 547.8200 1346.2600 547.4900Q1344.2800 547.1600 1342.7400 545.1800L1342.7400 545.1800L1333.5000 533.3000Q1332.1800 531.3200 1332.5100 529.1200Q1332.8400 526.9200 1334.8200 525.6000L1334.8200 525.6000L1384.1000 487.5400Q1385.4200 486.4400 1386.7400 486.2200Q1388.0600 486 1389.6000 486L1389.6000 486L1408.9600 486Q1411.1600 486 1412.7000 487.5400Q1414.2400 489.0800 1414.2400 491.2800L1414.2400 491.2800L1414.2400 634.7200Q1414.2400 636.9200 1412.7000 638.4600Q1411.1600 640 1408.9600 640L1408.9600 640ZM1502.0200 642.2000L1502.0200 642.2000Q1486.4000 642.2000 1475.4000 637.5800Q1464.4000 632.9600 1457.3600 624.8200Q1450.3200 616.6800 1446.8000 606.0100Q1443.2800 595.3400 1442.6200 583.2400L1442.6200 583.2400Q1442.4000 577.3000 1442.2900 570.1500Q1442.1800 563 1442.2900 555.7400Q1442.4000 548.4800 1442.6200 542.3200L1442.6200 542.3200Q1443.0600 530.2200 1446.8000 519.5500Q1450.5400 508.8800 1457.6900 500.9600Q1464.8400 493.0400 1475.8400 488.4200Q1486.8400 483.8000 1502.0200 483.8000L1502.0200 483.8000Q1517.4200 483.8000 1528.4200 488.4200Q1539.4200 493.0400 1546.5700 500.9600Q1553.7200 508.8800 1557.3500 519.5500Q1560.9800 530.2200 1561.4200 542.3200L1561.4200 542.3200Q1561.8600 548.4800 1561.8600 555.7400Q1561.8600 563 1561.8600 570.1500Q1561.8600 577.3000 1561.4200 583.2400L1561.4200 583.2400Q1560.9800 595.3400 1557.4600 606.0100Q1553.9400 616.6800 1546.9000 624.8200Q1539.8600 632.9600 1528.7500 637.5800Q1517.6400 642.2000 1502.0200 642.2000ZM1502.0200 616.9000L1502.0200 616.9000Q1516.3200 616.9000 1523.0300 607.5500Q1529.7400 598.2000 1529.9600 582.1400L1529.9600 582.1400Q1530.4000 575.7600 1530.4000 569.2700Q1530.4000 562.7800 1530.4000 556.1800Q1530.4000 549.5800 1529.9600 543.6400L1529.9600 543.6400Q1529.7400 528.0200 1523.0300 518.4500Q1516.3200 508.8800 1502.0200 508.8800L1502.0200 508.8800Q1487.9400 508.8800 1481.2300 518.4500Q1474.5200 528.0200 1474.0800 543.6400L1474.0800 543.6400Q1474.0800 549.5800 1473.9700 556.1800Q1473.8600 562.7800 1473.9700 569.2700Q1474.0800 575.7600 1474.0800 582.1400L1474.0800 582.1400Q1474.5200 598.2000 1481.3400 607.5500Q1488.1600 616.9000 1502.0200 616.9000ZM1612.4600 640L1590.4600 640Q1588.2600 640 1586.7200 638.4600Q1585.1800 636.9200 1585.1800 634.7200L1585.1800 634.7200L1585.1800 612.9400Q1585.1800 610.5200 1586.7200 608.9800Q1588.2600 607.4400 1590.4600 607.4400L1590.4600 607.4400L1612.4600 607.4400Q1614.6600 607.4400 1616.2000 608.9800Q1617.7400 610.5200 1617.7400 612.9400L1617.7400 612.9400L1617.7400 634.7200Q1617.7400 636.9200 1616.2000 638.4600Q1614.6600 640 1612.4600 640L1612.4600 640ZM1699.3600 642.2000L1699.3600 642.2000Q1683.9600 642.2000 1672.7400 638.4600Q1661.5200 634.7200 1654.1500 628.6700Q1646.7800 622.6200 1643.0400 615.4700Q1639.3000 608.3200 1639.0800 601.2800L1639.0800 601.2800Q1639.0800 599.3000 1640.5100 598.0900Q1641.9400 596.8800 1643.9200 596.8800L1643.9200 596.8800L1663.7200 596.8800Q1665.9200 596.8800 1667.4600 597.7600Q1669.0000 598.6400 1670.1000 601.2800L1670.1000 601.2800Q1672.0800 607.2200 1676.5900 610.7400Q1681.1000 614.2600 1687.0400 615.6900Q1692.9800 617.1200 1699.5800 617.1200L1699.5800 617.1200Q1712.7800 617.1200 1720.5900 610.8500Q1728.4000 604.5800 1728.4000 592.9200L1728.4000 592.9200Q1728.4000 581.2600 1721.1400 576.0900Q1713.8800 570.9200 1700.9000 570.9200L1700.9000 570.9200L1678.2400 570.9200Q1675.8200 570.9200 1674.2800 569.4900Q1672.7400 568.0600 1672.7400 565.6400L1672.7400 565.6400L1672.7400 556.4000Q1672.7400 554.2000 1673.7300 552.5500Q1674.7200 550.9000 1675.8200 549.8000L1675.8200 549.8000L1715.2000 511.3000L1652.2800 511.3000Q1649.8600 511.3000 1648.4300 509.7600Q1647.0000 508.2200 1647.0000 506.0200L1647.0000 506.0200L1647.0000 491.5000Q1647.0000 489.0800 1648.4300 487.5400Q1649.8600 486 1652.2800 486L1652.2800 486L1746.6600 486Q1749.0800 486 1750.6200 487.5400Q1752.1600 489.0800 1752.1600 491.5000L1752.1600 491.5000L1752.1600 504.7000Q1752.1600 506.6800 1751.2800 508.2200Q1750.4000 509.7600 1749.3000 510.8600L1749.3000 510.8600L1711.2400 550.0200L1713.8800 550.2400Q1727.3000 551.3400 1737.7500 556.2900Q1748.2000 561.2400 1754.0300 570.7000Q1759.8600 580.1600 1759.8600 594.4600L1759.8600 594.4600Q1759.8600 609.4200 1752.0500 620.0900Q1744.2400 630.7600 1730.6000 636.4800Q1716.9600 642.2000 1699.3600 642.2000Z" id="lecture-full-number"/></g></svg>