<svg xmlns="http://www.w3.org/2000/svg" version="1.1" xmlns:xlink="http://www.w3.org/1999/xlink" xmlns:svgjs="http://svgjs.dev/svgjs" viewBox="0 0 1920 1080" id="4876c42b-5b57-4fff-b6cb-daaaafa72095"><g><rect width="1920" height="1080" fill="#dbb4ad"/></g><g fill="#a2ad91"><path d="M745.478 668.096L1087.28 1009.97L1200.88 896.347L859.076 554.473L745.478 668.096Z"/><path d="M858.951 554.294L517.152 896.168L630.75 1009.79L972.549 667.917L858.951 554.294Z"/><path d="M289.239 668.391L631.038 1010.27L744.636 896.643L402.837 554.769L289.239 668.391Z"/><path d="M402.706 554L60.907 895.874L174.505 1009.5L516.304 667.623L402.706 554Z"/><path d="M-166 667.682L175.799 1009.56L289.397 895.933L-52.4021 554.059L-166 667.682Z"/></g><g fill="#ffffff" opacity="0.4"><path d="M1134 160C1540.91 160 1872 491.086 1872 898C1872 1304.91 1540.91 1636 1134 1636C727.086 1635.56 396 1304.91 396 898C396 491.086 727.086 160 1134 160ZM1134 1611.31C1527.25 1611.31 1847.31 1291.25 1847.31 898C1847.31 504.753 1527.25 184.247 1134 184.247C740.753 184.247 420.247 504.312 420.247 898C420.247 1291.69 740.312 1611.31 1134 1611.31Z"/><path d="M1134 251.699C1490.22 251.699 1780.3 541.785 1780.3 898C1780.3 1254.22 1490.22 1544.3 1134 1544.3C777.785 1544.3 487.699 1254.22 487.699 898C487.699 541.785 777.344 251.699 1134 251.699ZM1134 1519.61C1476.99 1519.61 1756.05 1240.55 1756.05 897.559C1756.05 554.57 1476.99 275.947 1134 275.947C791.011 275.947 511.946 555.011 511.946 898C511.946 1240.99 791.011 1519.61 1134 1519.61Z"/><path d="M1134 342.957C1439.96 342.957 1688.6 592.043 1688.6 897.559C1688.6 1203.52 1439.52 1452.16 1134 1452.16C828.043 1452.16 579.398 1203.08 579.398 897.559C578.957 592.043 828.043 342.957 1134 342.957ZM1134 1428.35C1426.29 1428.35 1664.35 1190.29 1664.35 898C1664.35 605.71 1426.29 367.645 1134 367.645C841.71 367.645 603.645 605.71 603.645 898C603.645 1190.29 841.269 1428.35 1134 1428.35Z"/><path d="M1134 434.656C1389.26 434.656 1597.34 642.301 1597.34 898C1597.34 1153.7 1389.7 1361.34 1134 1361.34C878.742 1361.34 670.656 1153.7 670.656 898C670.656 642.301 878.301 434.656 1134 434.656ZM1134 1336.66C1376.03 1336.66 1572.66 1139.59 1572.66 898C1572.66 656.408 1375.59 459.344 1134 459.344C891.968 459.344 695.344 656.408 695.344 898C695.344 1139.59 891.968 1336.66 1134 1336.66Z"/><path d="M1134 526.354C1339 526.354 1505.65 693 1505.65 898C1505.65 1103 1339 1269.64 1134 1269.64C929 1269.64 762.355 1103 762.355 898C762.355 693 929 526.354 1134 526.354ZM1134 1244.96C1325.33 1244.96 1481.4 1089.33 1481.4 897.559C1481.4 706.225 1325.77 550.161 1134 550.161C942.667 550.161 786.602 705.785 786.602 897.559C786.602 1089.33 942.226 1244.96 1134 1244.96Z"/><path d="M1134 617.613C1288.3 617.613 1414.39 743.258 1414.39 898C1414.39 1052.74 1288.74 1178.39 1134 1178.39C979.699 1178.39 853.613 1052.74 853.613 898C853.613 743.258 979.258 617.613 1134 617.613ZM1134 1153.7C1275.08 1153.7 1389.7 1039.08 1389.7 898C1389.7 756.925 1275.08 642.301 1134 642.301C992.925 642.301 878.301 756.925 878.301 898C878.301 1039.08 992.925 1153.7 1134 1153.7Z"/><path d="M1134 709.312C1238.04 709.312 1322.69 793.957 1322.69 898C1322.69 1002.04 1238.04 1086.69 1134 1086.69C1029.96 1086.69 945.312 1002.04 945.312 898C945.312 793.957 1029.96 709.312 1134 709.312ZM1134 1062C1224.38 1062 1298.44 988.377 1298.44 897.559C1298.44 807.183 1224.82 733.118 1134 733.118C1043.62 733.118 969.559 806.742 969.559 897.559C969.559 988.377 1043.18 1062 1134 1062Z"/><path d="M1134 800.57C1187.34 800.57 1230.99 844.215 1230.99 897.56C1230.99 950.904 1187.34 994.549 1134 994.549C1080.66 994.549 1037.01 950.904 1037.01 897.56C1036.57 844.215 1080.22 800.57 1134 800.57ZM1134 970.742C1174.12 970.742 1206.74 938.119 1206.74 898C1206.74 857.882 1174.12 825.258 1134 825.258C1093.88 825.258 1061.26 857.882 1061.26 898C1061.26 938.119 1093.88 970.742 1134 970.742Z"/></g><g><path d="M178.635 139.281L184.422 144.246V166.626H215.704L219.958 172.147L215.69 177.397H184.422V198.795L178.635 203.747L173 198.795V144.232L178.635 139.281ZM195.554 195.68H219.406L223.397 200.915L219.143 206.45H195.554L191.7 201.342L195.554 195.68ZM196.382 138H219.129L223.383 143.52L219.129 148.77H196.659L192.115 143.677L196.382 138ZM323.155 148.628L328.251 154.291L323.155 159.968H246.13L241.172 154.291L246.13 148.628H323.155ZM237.043 172.147L241.849 167.893L246.669 172.147V178.393C246.669 188.879 249.417 197.515 261.668 197.515H264.14C275.147 197.515 281.197 189.86 281.197 177.952V172.005L285.879 167.75L290.699 171.862V178.379C290.699 189.007 293.723 196.946 305.56 196.946H307.618C319.178 196.946 321.235 187.869 321.373 177.952V171.578L326.056 167.608L331 171.72V178.094C330.862 191.838 327.285 207.574 308.032 207.574H305.974C294.552 207.574 288.365 202.324 285.892 195.808C283.006 202.466 275.299 208.286 264.844 208.286H262.358C242.553 208.286 237.194 195.964 237.056 178.663V172.147H237.043ZM276.391 274.744L273.642 267.089L280.796 264.969L305.974 276.721V252.491L311.07 248.095L316.291 252.491V281.829L325.641 286.226L328.251 293.311L320.959 296L276.391 274.744ZM321.235 223.011L328.113 226.27L325.917 233.497L264.002 263.119L256.571 260.146L259.596 252.776L321.235 223.011ZM231.905 263.404L237.954 268.512C237.402 286.51 222.403 296 204.669 296H202.874C194.062 296 183.759 292.6 177.157 286.083L177.834 278.855L184.298 278.002C189.118 282.256 195.858 285.229 202.183 285.229H204.117C216.091 285.229 225.303 280.136 226.27 268.085L231.905 263.404ZM226.256 251.638C225.704 239.16 216.629 234.209 204.103 234.209H202.169C194.739 234.209 189.104 237.182 184.284 241.436L177.834 240.583L177.143 233.355C183.745 226.696 192.957 223.58 202.597 223.58H204.517C222.403 223.58 237.402 232.942 237.94 251.211L231.891 256.176L226.256 251.638Z" fill="#000000"/></g><path d="M1171 781L1171 339L1187 339L1187 781L1171 781Z" fill="#000000"/><g fill="#000000" id="info-group"><path d="M160.9800 555L153.1500 555Q152.4300 555 151.8450 554.4600Q151.2600 553.9200 151.2600 553.1100L151.2600 553.1100Q151.2600 552.7500 151.4400 552.3000L151.4400 552.3000L173.1300 494.2500Q173.4000 493.3500 174.1650 492.6750Q174.9300 492 176.2800 492L176.2800 492L186.0900 492Q187.4400 492 188.1600 492.6750Q188.8800 493.3500 189.2400 494.2500L189.2400 494.2500L210.9300 552.3000Q211.0200 552.7500 211.0200 553.1100L211.0200 553.1100Q211.0200 553.9200 210.4800 554.4600Q209.9400 555 209.2200 555L209.2200 555L201.3900 555Q200.1300 555 199.5450 554.4150Q198.9600 553.8300 198.7800 553.2900L198.7800 553.2900L194.5500 542.3100L167.8200 542.3100L163.5900 553.2900Q163.4100 553.8300 162.8250 554.4150Q162.2400 555 160.9800 555L160.9800 555ZM181.1400 504.1500L170.9700 531.9600L191.4000 531.9600L181.1400 504.1500ZM235.6800 555.9000L235.6800 555.9000Q230.1900 555.9000 226.1850 553.4250Q222.1800 550.9500 220.0200 546.4050Q217.8600 541.8600 217.8600 535.6500L217.8600 535.6500L217.8600 510.3600Q217.8600 509.4600 218.4900 508.8300Q219.1200 508.2000 220.0200 508.2000L220.0200 508.2000L227.9400 508.2000Q228.9300 508.2000 229.5150 508.8300Q230.1000 509.4600 230.1000 510.3600L230.1000 510.3600L230.1000 535.1100Q230.1000 546.2700 239.9100 546.2700L239.9100 546.2700Q244.5900 546.2700 247.3350 543.3000Q250.0800 540.3300 250.0800 535.1100L250.0800 535.1100L250.0800 510.3600Q250.0800 509.4600 250.7100 508.8300Q251.3400 508.2000 252.2400 508.2000L252.2400 508.2000L260.1600 508.2000Q261.0600 508.2000 261.6900 508.8300Q262.3200 509.4600 262.3200 510.3600L262.3200 510.3600L262.3200 552.8400Q262.3200 553.7400 261.6900 554.3700Q261.0600 555 260.1600 555L260.1600 555L252.8700 555Q251.8800 555 251.2950 554.3700Q250.7100 553.7400 250.7100 552.8400L250.7100 552.8400L250.7100 549.1500Q248.2800 552.3000 244.6800 554.1000Q241.0800 555.9000 235.6800 555.9000ZM302.6400 555L295.3500 555Q289.9500 555 286.2600 553.1100Q282.5700 551.2200 280.7700 547.4850Q278.9700 543.7500 278.9700 538.1700L278.9700 538.1700L278.9700 517.7400L271.8600 517.7400Q270.9600 517.7400 270.3300 517.1100Q269.7000 516.4800 269.7000 515.4900L269.7000 515.4900L269.7000 510.3600Q269.7000 509.4600 270.3300 508.8300Q270.9600 508.2000 271.8600 508.2000L271.8600 508.2000L278.9700 508.2000L278.9700 493.2600Q278.9700 492.3600 279.5550 491.7300Q280.1400 491.1000 281.1300 491.1000L281.1300 491.1000L288.4200 491.1000Q289.3200 491.1000 289.9500 491.7300Q290.5800 492.3600 290.5800 493.2600L290.5800 493.2600L290.5800 508.2000L301.8300 508.2000Q302.7300 508.2000 303.3600 508.8300Q303.9900 509.4600 303.9900 510.3600L303.9900 510.3600L303.9900 515.4900Q303.9900 516.4800 303.3600 517.1100Q302.7300 517.7400 301.8300 517.7400L301.8300 517.7400L290.5800 517.7400L290.5800 537.2700Q290.5800 540.9600 291.8850 543.0300Q293.1900 545.1000 296.4300 545.1000L296.4300 545.1000L302.6400 545.1000Q303.5400 545.1000 304.1700 545.7300Q304.8000 546.3600 304.8000 547.2600L304.8000 547.2600L304.8000 552.8400Q304.8000 553.7400 304.1700 554.3700Q303.5400 555 302.6400 555L302.6400 555ZM333.5100 555.9000L333.5100 555.9000Q326.3100 555.9000 321.4050 553.3800Q316.5000 550.8600 313.9350 546.2700Q311.3700 541.6800 311.0100 535.5600L311.0100 535.5600Q310.9200 533.9400 310.9200 531.6000Q310.9200 529.2600 311.0100 527.6400L311.0100 527.6400Q311.3700 521.4300 314.0250 516.8850Q316.6800 512.3400 321.5850 509.8200Q326.4900 507.3000 333.5100 507.3000L333.5100 507.3000Q340.5300 507.3000 345.4350 509.8200Q350.3400 512.3400 352.9950 516.8850Q355.6500 521.4300 356.0100 527.6400L356.0100 527.6400Q356.1000 529.2600 356.1000 531.6000Q356.1000 533.9400 356.0100 535.5600L356.0100 535.5600Q355.6500 541.6800 353.0850 546.2700Q350.5200 550.8600 345.6150 553.3800Q340.7100 555.9000 333.5100 555.9000ZM333.5100 546.9900L333.5100 546.9900Q338.2800 546.9900 340.8900 543.9750Q343.5000 540.9600 343.7700 535.1100L343.7700 535.1100Q343.8600 533.7600 343.8600 531.6000Q343.8600 529.4400 343.7700 528.0900L343.7700 528.0900Q343.5000 522.2400 340.8900 519.2250Q338.2800 516.2100 333.5100 516.2100L333.5100 516.2100Q328.7400 516.2100 326.1300 519.2250Q323.5200 522.2400 323.2500 528.0900L323.2500 528.0900Q323.1600 529.4400 323.1600 531.6000Q323.1600 533.7600 323.2500 535.1100L323.2500 535.1100Q323.5200 540.9600 326.1300 543.9750Q328.7400 546.9900 333.5100 546.9900ZM375.8100 555L368.2500 555Q367.3500 555 366.7200 554.3700Q366.0900 553.7400 366.0900 552.8400L366.0900 552.8400L366.0900 510.3600Q366.0900 509.4600 366.7200 508.8300Q367.3500 508.2000 368.2500 508.2000L368.2500 508.2000L375.2700 508.2000Q376.1700 508.2000 376.8000 508.8300Q377.4300 509.4600 377.4300 510.3600L377.4300 510.3600L377.4300 513.4200Q379.3200 510.9000 382.5150 509.1450Q385.7100 507.3900 390.1200 507.3000L390.1200 507.3000Q400.3800 507.1200 404.4300 515.3100L404.4300 515.3100Q406.5000 511.7100 410.4150 509.5050Q414.3300 507.3000 419.1000 507.3000L419.1000 507.3000Q423.7800 507.3000 427.6050 509.4600Q431.4300 511.6200 433.6350 515.9850Q435.8400 520.3500 435.8400 527.0100L435.8400 527.0100L435.8400 552.8400Q435.8400 553.7400 435.2100 554.3700Q434.5800 555 433.6800 555L433.6800 555L426.3000 555Q425.4000 555 424.7700 554.3700Q424.1400 553.7400 424.1400 552.8400L424.1400 552.8400L424.1400 527.7300Q424.1400 523.6800 422.9700 521.2950Q421.8000 518.9100 419.8200 517.9200Q417.8400 516.9300 415.4100 516.9300L415.4100 516.9300Q413.4300 516.9300 411.4500 517.9200Q409.4700 518.9100 408.2100 521.2950Q406.9500 523.6800 406.9500 527.7300L406.9500 527.7300L406.9500 552.8400Q406.9500 553.7400 406.3200 554.3700Q405.6900 555 404.7900 555L404.7900 555L397.4100 555Q396.5100 555 395.8800 554.3700Q395.2500 553.7400 395.2500 552.8400L395.2500 552.8400L395.2500 527.7300Q395.2500 523.6800 393.9900 521.2950Q392.7300 518.9100 390.7500 517.9200Q388.7700 516.9300 386.5200 516.9300L386.5200 516.9300Q384.4500 516.9300 382.4700 517.9650Q380.4900 519 379.2300 521.3400Q377.9700 523.6800 377.9700 527.7300L377.9700 527.7300L377.9700 552.8400Q377.9700 553.7400 377.3400 554.3700Q376.7100 555 375.8100 555L375.8100 555ZM460.8600 555.9000L460.8600 555.9000Q456.1800 555.9000 452.4000 554.0550Q448.6200 552.2100 446.4150 549.1050Q444.2100 546 444.2100 542.1300L444.2100 542.1300Q444.2100 535.8300 449.3400 532.0950Q454.4700 528.3600 462.7500 527.1000L462.7500 527.1000L475.0800 525.3000L475.0800 523.4100Q475.0800 519.6300 473.1900 517.5600Q471.3000 515.4900 466.7100 515.4900L466.7100 515.4900Q463.4700 515.4900 461.4450 516.7950Q459.4200 518.1000 458.4300 520.2600L458.4300 520.2600Q457.7100 521.4300 456.3600 521.4300L456.3600 521.4300L449.2500 521.4300Q448.2600 521.4300 447.7650 520.8900Q447.2700 520.3500 447.2700 519.4500L447.2700 519.4500Q447.3600 518.0100 448.4850 515.9400Q449.6100 513.8700 451.9050 511.9350Q454.2000 510 457.8900 508.6500Q461.5800 507.3000 466.8000 507.3000L466.8000 507.3000Q472.4700 507.3000 476.3850 508.6950Q480.3000 510.0900 482.6400 512.4300Q484.9800 514.7700 486.0600 517.9200Q487.1400 521.0700 487.1400 524.5800L487.1400 524.5800L487.1400 552.8400Q487.1400 553.7400 486.5100 554.3700Q485.8800 555 484.9800 555L484.9800 555L477.6900 555Q476.7000 555 476.1150 554.3700Q475.5300 553.7400 475.5300 552.8400L475.5300 552.8400L475.5300 549.3300Q474.3600 550.9500 472.3800 552.4800Q470.4000 554.0100 467.5650 554.9550Q464.7300 555.9000 460.8600 555.9000ZM463.9200 547.3500L463.9200 547.3500Q467.0700 547.3500 469.6350 546Q472.2000 544.6500 473.6850 541.8150Q475.1700 538.9800 475.1700 534.6600L475.1700 534.6600L475.1700 532.7700L466.1700 534.2100Q460.8600 535.0200 458.2500 536.8200Q455.6400 538.6200 455.6400 541.2300L455.6400 541.2300Q455.6400 543.2100 456.8550 544.6050Q458.0700 546 459.9600 546.6750Q461.8500 547.3500 463.9200 547.3500ZM518.8200 574.8000L518.8200 574.8000Q516.3000 574.7100 514.3650 573.9000Q512.4300 573.0900 511.5750 572.0100Q510.7200 570.9300 511.6200 570.2100L511.6200 570.2100L513.1500 568.8600Q513.9600 568.1400 514.5450 568.4550Q515.1300 568.7700 516.0750 569.3550Q517.0200 569.9400 518.8200 569.9400L518.8200 569.9400Q520.1700 569.9400 521.1600 569.0850Q522.1500 568.2300 522.1500 566.8800L522.1500 566.8800Q522.1500 565.6200 521.2050 564.8100Q520.2600 564 518.8200 564L518.8200 564Q517.5600 564 516.6600 564.3150Q515.7600 564.6300 515.0400 564.7650Q514.3200 564.9000 513.6000 564.1800L513.6000 564.1800L511.9800 562.5600Q511.4400 561.9300 511.6200 561.2550Q511.8000 560.5800 512.1600 559.7700L512.1600 559.7700L514.0500 555.4500Q506.3100 554.2800 501.7200 549.0150Q497.1300 543.7500 496.8600 535.2000L496.8600 535.2000Q496.7700 533.8500 496.7700 531.6450Q496.7700 529.4400 496.8600 528L496.8600 528Q497.1300 521.4300 499.8750 516.7950Q502.6200 512.1600 507.5250 509.7300Q512.4300 507.3000 518.9100 507.3000L518.9100 507.3000Q524.6700 507.3000 528.7200 508.8750Q532.7700 510.4500 535.3800 512.9250Q537.9900 515.4000 539.2950 518.0550Q540.6000 520.7100 540.6900 522.8700L540.6900 522.8700Q540.7800 523.8600 540.1050 524.4450Q539.4300 525.0300 538.5300 525.0300L538.5300 525.0300L530.6100 525.0300Q529.7100 525.0300 529.2150 524.5800Q528.7200 524.1300 528.2700 523.2300L528.2700 523.2300Q526.9200 519.6300 524.7150 518.1450Q522.5100 516.6600 519.0900 516.6600L519.0900 516.6600Q514.5900 516.6600 511.9350 519.4950Q509.2800 522.3300 509.1000 528.4500L509.1000 528.4500Q508.9200 531.8700 509.1000 534.7500L509.1000 534.7500Q509.2800 540.9600 511.9350 543.7500Q514.5900 546.5400 519.0900 546.5400L519.0900 546.5400Q522.6000 546.5400 524.7600 545.0550Q526.9200 543.5700 528.2700 539.9700L528.2700 539.9700Q528.7200 539.0700 529.2150 538.6200Q529.7100 538.1700 530.6100 538.1700L530.6100 538.1700L538.5300 538.1700Q539.4300 538.1700 540.1050 538.7550Q540.7800 539.3400 540.6900 540.3300L540.6900 540.3300Q540.6000 542.3100 539.3400 544.9650Q538.0800 547.6200 535.5600 550.0950Q533.0400 552.5700 528.9900 554.2350Q524.9400 555.9000 519.1800 555.9000L519.1800 555.9000L517.2900 559.7700Q517.8300 559.5000 518.7750 559.3200Q519.7200 559.1400 520.4400 559.1400L520.4400 559.1400Q523.5900 559.1400 525.5250 561.3000Q527.4600 563.4600 527.4600 566.7900L527.4600 566.7900Q527.4600 570.2100 525.2100 572.5500Q522.9600 574.8900 518.8200 574.8000ZM563.6400 555.9000L563.6400 555.9000Q558.9600 555.9000 555.1800 554.0550Q551.4000 552.2100 549.1950 549.1050Q546.9900 546 546.9900 542.1300L546.9900 542.1300Q546.9900 535.8300 552.1200 532.0950Q557.2500 528.3600 565.5300 527.1000L565.5300 527.1000L577.8600 525.3000L577.8600 523.4100Q577.8600 519.6300 575.9700 517.5600Q574.0800 515.4900 569.4900 515.4900L569.4900 515.4900Q566.2500 515.4900 564.2250 516.7950Q562.2000 518.1000 561.2100 520.2600L561.2100 520.2600Q560.4900 521.4300 559.1400 521.4300L559.1400 521.4300L552.0300 521.4300Q551.0400 521.4300 550.5450 520.8900Q550.0500 520.3500 550.0500 519.4500L550.0500 519.4500Q550.1400 518.0100 551.2650 515.9400Q552.3900 513.8700 554.6850 511.9350Q556.9800 510 560.6700 508.6500Q564.3600 507.3000 569.5800 507.3000L569.5800 507.3000Q575.2500 507.3000 579.1650 508.6950Q583.0800 510.0900 585.4200 512.4300Q587.7600 514.7700 588.8400 517.9200Q589.9200 521.0700 589.9200 524.5800L589.9200 524.5800L589.9200 552.8400Q589.9200 553.7400 589.2900 554.3700Q588.6600 555 587.7600 555L587.7600 555L580.4700 555Q579.4800 555 578.8950 554.3700Q578.3100 553.7400 578.3100 552.8400L578.3100 552.8400L578.3100 549.3300Q577.1400 550.9500 575.1600 552.4800Q573.1800 554.0100 570.3450 554.9550Q567.5100 555.9000 563.6400 555.9000ZM566.7000 547.3500L566.7000 547.3500Q569.8500 547.3500 572.4150 546Q574.9800 544.6500 576.4650 541.8150Q577.9500 538.9800 577.9500 534.6600L577.9500 534.6600L577.9500 532.7700L568.9500 534.2100Q563.6400 535.0200 561.0300 536.8200Q558.4200 538.6200 558.4200 541.2300L558.4200 541.2300Q558.4200 543.2100 559.6350 544.6050Q560.8500 546 562.7400 546.6750Q564.6300 547.3500 566.7000 547.3500ZM574.5300 501.9000L574.5300 501.9000Q572.1900 501.9000 570.7500 501.1350Q569.3100 500.3700 568.0950 499.5600Q566.8800 498.7500 565.4400 498.7500L565.4400 498.7500Q564.2700 498.7500 563.7750 499.4250Q563.2800 500.1000 562.8300 500.7750Q562.3800 501.4500 561.3900 501.4500L561.3900 501.4500L557.2500 501.4500Q556.6200 501.4500 556.1700 501Q555.7200 500.5500 555.7200 499.9200L555.7200 499.9200Q555.7200 498.5700 556.2150 496.9050Q556.7100 495.2400 557.7900 493.7100Q558.8700 492.1800 560.5350 491.2350Q562.2000 490.2900 564.4500 490.2900L564.4500 490.2900Q566.8800 490.2900 568.3200 491.0550Q569.7600 491.8200 570.9750 492.6300Q572.1900 493.4400 573.6300 493.4400L573.6300 493.4400Q574.8000 493.4400 575.2950 492.7200Q575.7900 492 576.2400 491.3250Q576.6900 490.6500 577.6800 490.6500L577.6800 490.6500L581.8200 490.6500Q582.5400 490.6500 582.9450 491.1450Q583.3500 491.6400 583.3500 492.2700L583.3500 492.2700Q583.3500 493.6200 582.8550 495.2850Q582.3600 496.9500 581.2800 498.4800Q580.2000 500.0100 578.5350 500.9550Q576.8700 501.9000 574.5300 501.9000ZM622.1400 555.9000L622.1400 555.9000Q614.9400 555.9000 610.0350 553.3800Q605.1300 550.8600 602.5650 546.2700Q600 541.6800 599.6400 535.5600L599.6400 535.5600Q599.5500 533.9400 599.5500 531.6000Q599.5500 529.2600 599.6400 527.6400L599.6400 527.6400Q600 521.4300 602.6550 516.8850Q605.3100 512.3400 610.2150 509.8200Q615.1200 507.3000 622.1400 507.3000L622.1400 507.3000Q629.1600 507.3000 634.0650 509.8200Q638.9700 512.3400 641.6250 516.8850Q644.2800 521.4300 644.6400 527.6400L644.6400 527.6400Q644.7300 529.2600 644.7300 531.6000Q644.7300 533.9400 644.6400 535.5600L644.6400 535.5600Q644.2800 541.6800 641.7150 546.2700Q639.1500 550.8600 634.2450 553.3800Q629.3400 555.9000 622.1400 555.9000ZM622.1400 546.9900L622.1400 546.9900Q626.9100 546.9900 629.5200 543.9750Q632.1300 540.9600 632.4000 535.1100L632.4000 535.1100Q632.4900 533.7600 632.4900 531.6000Q632.4900 529.4400 632.4000 528.0900L632.4000 528.0900Q632.1300 522.2400 629.5200 519.2250Q626.9100 516.2100 622.1400 516.2100L622.1400 516.2100Q617.3700 516.2100 614.7600 519.2250Q612.1500 522.2400 611.8800 528.0900L611.8800 528.0900Q611.7900 529.4400 611.7900 531.6000Q611.7900 533.7600 611.8800 535.1100L611.8800 535.1100Q612.1500 540.9600 614.7600 543.9750Q617.3700 546.9900 622.1400 546.9900ZM692.7000 555.9000L692.7000 555.9000Q688.0200 555.9000 684.4650 554.3250Q680.9100 552.7500 678.5700 549.8700Q676.2300 546.9900 674.9700 543.0750Q673.7100 539.1600 673.5300 534.4800L673.5300 534.4800Q673.4400 532.8600 673.4400 531.5550Q673.4400 530.2500 673.5300 528.6300L673.5300 528.6300Q673.7100 524.1300 674.9250 520.2600Q676.1400 516.3900 678.5250 513.4650Q680.9100 510.5400 684.4650 508.9200Q688.0200 507.3000 692.7000 507.3000L692.7000 507.3000Q697.5600 507.3000 700.9350 508.9650Q704.3100 510.6300 706.5600 513.2400L706.5600 513.2400L706.5600 493.2600Q706.5600 492.3600 707.1450 491.7300Q707.7300 491.1000 708.7200 491.1000L708.7200 491.1000L716.3700 491.1000Q717.2700 491.1000 717.9000 491.7300Q718.5300 492.3600 718.5300 493.2600L718.5300 493.2600L718.5300 552.8400Q718.5300 553.7400 717.9000 554.3700Q717.2700 555 716.3700 555L716.3700 555L709.2600 555Q708.2700 555 707.6850 554.3700Q707.1000 553.7400 707.1000 552.8400L707.1000 552.8400L707.1000 549.5100Q704.8500 552.3000 701.3850 554.1000Q697.9200 555.9000 692.7000 555.9000ZM696.0300 546.2700L696.0300 546.2700Q699.8100 546.2700 702.0600 544.5600Q704.3100 542.8500 705.3900 540.1950Q706.4700 537.5400 706.5600 534.7500L706.5600 534.7500Q706.6500 533.1300 706.6500 531.2850Q706.6500 529.4400 706.5600 527.8200L706.5600 527.8200Q706.4700 525.1200 705.3000 522.6450Q704.1300 520.1700 701.8800 518.5500Q699.6300 516.9300 696.0300 516.9300L696.0300 516.9300Q692.2500 516.9300 690.0450 518.5950Q687.8400 520.2600 686.8500 522.9600Q685.8600 525.6600 685.6800 528.9000L685.6800 528.9000Q685.5900 531.6000 685.6800 534.3000L685.6800 534.3000Q685.8600 537.5400 686.8500 540.2400Q687.8400 542.9400 690.0450 544.6050Q692.2500 546.2700 696.0300 546.2700ZM750.6600 555.9000L750.6600 555.9000Q740.6700 555.9000 734.8200 550.1400Q728.9700 544.3800 728.5200 533.7600L728.5200 533.7600Q728.4300 532.8600 728.4300 531.4650Q728.4300 530.0700 728.5200 529.2600L728.5200 529.2600Q728.8800 522.4200 731.6250 517.5150Q734.3700 512.6100 739.2300 509.9550Q744.0900 507.3000 750.6600 507.3000L750.6600 507.3000Q757.9500 507.3000 762.9000 510.3150Q767.8500 513.3300 770.3700 518.6850Q772.8900 524.0400 772.8900 531.0600L772.8900 531.0600L772.8900 532.9500Q772.8900 533.8500 772.2600 534.4800Q771.6300 535.1100 770.6400 535.1100L770.6400 535.1100L740.7600 535.1100Q740.7600 535.1100 740.7600 535.3800Q740.7600 535.6500 740.7600 535.8300L740.7600 535.8300Q740.8500 538.9800 741.9750 541.6350Q743.1000 544.2900 745.3050 545.9100Q747.5100 547.5300 750.5700 547.5300L750.5700 547.5300Q753.0900 547.5300 754.8000 546.7650Q756.5100 546 757.5900 545.0100Q758.6700 544.0200 759.1200 543.3900L759.1200 543.3900Q759.9300 542.3100 760.4250 542.0850Q760.9200 541.8600 761.9100 541.8600L761.9100 541.8600L769.6500 541.8600Q770.5500 541.8600 771.1350 542.4000Q771.7200 542.9400 771.6300 543.7500L771.6300 543.7500Q771.5400 545.1900 770.1450 547.2600Q768.7500 549.3300 766.1400 551.3100Q763.5300 553.2900 759.6150 554.5950Q755.7000 555.9000 750.6600 555.9000ZM740.7600 527.2800L740.7600 527.5500L760.6500 527.5500L760.6500 527.2800Q760.6500 523.7700 759.4800 521.1150Q758.3100 518.4600 756.0600 516.9750Q753.8100 515.4900 750.6600 515.4900L750.6600 515.4900Q747.5100 515.4900 745.2600 516.9750Q743.0100 518.4600 741.8850 521.1150Q740.7600 523.7700 740.7600 527.2800L740.7600 527.2800ZM831.4800 555L824.1900 555Q818.7900 555 815.1000 553.1100Q811.4100 551.2200 809.6100 547.4850Q807.8100 543.7500 807.8100 538.1700L807.8100 538.1700L807.8100 517.7400L800.7000 517.7400Q799.8000 517.7400 799.1700 517.1100Q798.5400 516.4800 798.5400 515.4900L798.5400 515.4900L798.5400 510.3600Q798.5400 509.4600 799.1700 508.8300Q799.8000 508.2000 800.7000 508.2000L800.7000 508.2000L807.8100 508.2000L807.8100 493.2600Q807.8100 492.3600 808.3950 491.7300Q808.9800 491.1000 809.9700 491.1000L809.9700 491.1000L817.2600 491.1000Q818.1600 491.1000 818.7900 491.7300Q819.4200 492.3600 819.4200 493.2600L819.4200 493.2600L819.4200 508.2000L830.6700 508.2000Q831.5700 508.2000 832.2000 508.8300Q832.8300 509.4600 832.8300 510.3600L832.8300 510.3600L832.8300 515.4900Q832.8300 516.4800 832.2000 517.1100Q831.5700 517.7400 830.6700 517.7400L830.6700 517.7400L819.4200 517.7400L819.4200 537.2700Q819.4200 540.9600 820.7250 543.0300Q822.0300 545.1000 825.2700 545.1000L825.2700 545.1000L831.4800 545.1000Q832.3800 545.1000 833.0100 545.7300Q833.6400 546.3600 833.6400 547.2600L833.6400 547.2600L833.6400 552.8400Q833.6400 553.7400 833.0100 554.3700Q832.3800 555 831.4800 555L831.4800 555ZM855.2400 555.9000L855.2400 555.9000Q850.5600 555.9000 846.7800 554.0550Q843.0000 552.2100 840.7950 549.1050Q838.5900 546 838.5900 542.1300L838.5900 542.1300Q838.5900 535.8300 843.7200 532.0950Q848.8500 528.3600 857.1300 527.1000L857.1300 527.1000L869.4600 525.3000L869.4600 523.4100Q869.4600 519.6300 867.5700 517.5600Q865.6800 515.4900 861.0900 515.4900L861.0900 515.4900Q857.8500 515.4900 855.8250 516.7950Q853.8000 518.1000 852.8100 520.2600L852.8100 520.2600Q852.0900 521.4300 850.7400 521.4300L850.7400 521.4300L843.6300 521.4300Q842.6400 521.4300 842.1450 520.8900Q841.6500 520.3500 841.6500 519.4500L841.6500 519.4500Q841.7400 518.0100 842.8650 515.9400Q843.9900 513.8700 846.2850 511.9350Q848.5800 510 852.2700 508.6500Q855.9600 507.3000 861.1800 507.3000L861.1800 507.3000Q866.8500 507.3000 870.7650 508.6950Q874.6800 510.0900 877.0200 512.4300Q879.3600 514.7700 880.4400 517.9200Q881.5200 521.0700 881.5200 524.5800L881.5200 524.5800L881.5200 552.8400Q881.5200 553.7400 880.8900 554.3700Q880.2600 555 879.3600 555L879.3600 555L872.0700 555Q871.0800 555 870.4950 554.3700Q869.9100 553.7400 869.9100 552.8400L869.9100 552.8400L869.9100 549.3300Q868.7400 550.9500 866.7600 552.4800Q864.7800 554.0100 861.9450 554.9550Q859.1100 555.9000 855.2400 555.9000ZM858.3000 547.3500L858.3000 547.3500Q861.4500 547.3500 864.0150 546Q866.5800 544.6500 868.0650 541.8150Q869.5500 538.9800 869.5500 534.6600L869.5500 534.6600L869.5500 532.7700L860.5500 534.2100Q855.2400 535.0200 852.6300 536.8200Q850.0200 538.6200 850.0200 541.2300L850.0200 541.2300Q850.0200 543.2100 851.2350 544.6050Q852.4500 546 854.3400 546.6750Q856.2300 547.3500 858.3000 547.3500ZM903.0300 555L895.2000 555Q894.3000 555 893.6700 554.3700Q893.0400 553.7400 893.0400 552.8400L893.0400 552.8400L893.0400 510.4500Q893.0400 509.4600 893.6700 508.8300Q894.3000 508.2000 895.2000 508.2000L895.2000 508.2000L902.4900 508.2000Q903.3900 508.2000 904.0650 508.8300Q904.7400 509.4600 904.7400 510.4500L904.7400 510.4500L904.7400 514.1400Q906.8100 511.2600 910.0950 509.7300Q913.3800 508.2000 917.7000 508.2000L917.7000 508.2000L921.3900 508.2000Q922.3800 508.2000 922.9650 508.8300Q923.5500 509.4600 923.5500 510.3600L923.5500 510.3600L923.5500 516.8400Q923.5500 517.7400 922.9650 518.3700Q922.3800 519 921.3900 519L921.3900 519L914.3700 519Q910.0500 519 907.6650 521.3850Q905.2800 523.7700 905.2800 528.0900L905.2800 528.0900L905.2800 552.8400Q905.2800 553.7400 904.6500 554.3700Q904.0200 555 903.0300 555L903.0300 555ZM950.7300 555.9000L950.7300 555.9000Q940.7400 555.9000 934.8900 550.1400Q929.0400 544.3800 928.5900 533.7600L928.5900 533.7600Q928.5000 532.8600 928.5000 531.4650Q928.5000 530.0700 928.5900 529.2600L928.5900 529.2600Q928.9500 522.4200 931.6950 517.5150Q934.4400 512.6100 939.3000 509.9550Q944.1600 507.3000 950.7300 507.3000L950.7300 507.3000Q958.0200 507.3000 962.9700 510.3150Q967.9200 513.3300 970.4400 518.6850Q972.9600 524.0400 972.9600 531.0600L972.9600 531.0600L972.9600 532.9500Q972.9600 533.8500 972.3300 534.4800Q971.7000 535.1100 970.7100 535.1100L970.7100 535.1100L940.8300 535.1100Q940.8300 535.1100 940.8300 535.3800Q940.8300 535.6500 940.8300 535.8300L940.8300 535.8300Q940.9200 538.9800 942.0450 541.6350Q943.1700 544.2900 945.3750 545.9100Q947.5800 547.5300 950.6400 547.5300L950.6400 547.5300Q953.1600 547.5300 954.8700 546.7650Q956.5800 546 957.6600 545.0100Q958.7400 544.0200 959.1900 543.3900L959.1900 543.3900Q960.0000 542.3100 960.4950 542.0850Q960.9900 541.8600 961.9800 541.8600L961.9800 541.8600L969.7200 541.8600Q970.6200 541.8600 971.2050 542.4000Q971.7900 542.9400 971.7000 543.7500L971.7000 543.7500Q971.6100 545.1900 970.2150 547.2600Q968.8200 549.3300 966.2100 551.3100Q963.6000 553.2900 959.6850 554.5950Q955.7700 555.9000 950.7300 555.9000ZM940.8300 527.2800L940.8300 527.5500L960.7200 527.5500L960.7200 527.2800Q960.7200 523.7700 959.5500 521.1150Q958.3800 518.4600 956.1300 516.9750Q953.8800 515.4900 950.7300 515.4900L950.7300 515.4900Q947.5800 515.4900 945.3300 516.9750Q943.0800 518.4600 941.9550 521.1150Q940.8300 523.7700 940.8300 527.2800L940.8300 527.2800ZM997.0800 555L989.7000 555Q988.8000 555 988.1700 554.3700Q987.5400 553.7400 987.5400 552.8400L987.5400 552.8400L987.5400 517.7400L980.2500 517.7400Q979.3500 517.7400 978.7200 517.1100Q978.0900 516.4800 978.0900 515.4900L978.0900 515.4900L978.0900 510.3600Q978.0900 509.4600 978.7200 508.8300Q979.3500 508.2000 980.2500 508.2000L980.2500 508.2000L987.5400 508.2000L987.5400 504.5100Q987.5400 499.1100 989.5200 495.5550Q991.5000 492 995.3700 490.2000Q999.2400 488.4000 1005.1800 488.4000L1005.1800 488.4000L1011.3000 488.4000Q1012.2900 488.4000 1012.8750 489.0300Q1013.4600 489.6600 1013.4600 490.5600L1013.4600 490.5600L1013.4600 495.6900Q1013.4600 496.6800 1012.8750 497.3100Q1012.2900 497.9400 1011.3000 497.9400L1011.3000 497.9400L1005.5400 497.9400Q1001.9400 497.9400 1000.5900 499.7400Q999.2400 501.5400 999.2400 504.9600L999.2400 504.9600L999.2400 508.2000L1010.4000 508.2000Q1011.3900 508.2000 1011.9750 508.8300Q1012.5600 509.4600 1012.5600 510.3600L1012.5600 510.3600L1012.5600 515.4900Q1012.5600 516.4800 1011.9750 517.1100Q1011.3900 517.7400 1010.4000 517.7400L1010.4000 517.7400L999.2400 517.7400L999.2400 552.8400Q999.2400 553.7400 998.6100 554.3700Q997.9800 555 997.0800 555L997.0800 555ZM1033.3500 555.9000L1033.3500 555.9000Q1028.6700 555.9000 1024.8900 554.0550Q1021.1100 552.2100 1018.9050 549.1050Q1016.7000 546 1016.7000 542.1300L1016.7000 542.1300Q1016.7000 535.8300 1021.8300 532.0950Q1026.9600 528.3600 1035.2400 527.1000L1035.2400 527.1000L1047.5700 525.3000L1047.5700 523.4100Q1047.5700 519.6300 1045.6800 517.5600Q1043.7900 515.4900 1039.2000 515.4900L1039.2000 515.4900Q1035.9600 515.4900 1033.9350 516.7950Q1031.9100 518.1000 1030.9200 520.2600L1030.9200 520.2600Q1030.2000 521.4300 1028.8500 521.4300L1028.8500 521.4300L1021.7400 521.4300Q1020.7500 521.4300 1020.2550 520.8900Q1019.7600 520.3500 1019.7600 519.4500L1019.7600 519.4500Q1019.8500 518.0100 1020.9750 515.9400Q1022.1000 513.8700 1024.3950 511.9350Q1026.6900 510 1030.3800 508.6500Q1034.0700 507.3000 1039.2900 507.3000L1039.2900 507.3000Q1044.9600 507.3000 1048.8750 508.6950Q1052.7900 510.0900 1055.1300 512.4300Q1057.4700 514.7700 1058.5500 517.9200Q1059.6300 521.0700 1059.6300 524.5800L1059.6300 524.5800L1059.6300 552.8400Q1059.6300 553.7400 1059.0000 554.3700Q1058.3700 555 1057.4700 555L1057.4700 555L1050.1800 555Q1049.1900 555 1048.6050 554.3700Q1048.0200 553.7400 1048.0200 552.8400L1048.0200 552.8400L1048.0200 549.3300Q1046.8500 550.9500 1044.8700 552.4800Q1042.8900 554.0100 1040.0550 554.9550Q1037.2200 555.9000 1033.3500 555.9000ZM1036.4100 547.3500L1036.4100 547.3500Q1039.5600 547.3500 1042.1250 546Q1044.6900 544.6500 1046.1750 541.8150Q1047.6600 538.9800 1047.6600 534.6600L1047.6600 534.6600L1047.6600 532.7700L1038.6600 534.2100Q1033.3500 535.0200 1030.7400 536.8200Q1028.1300 538.6200 1028.1300 541.2300L1028.1300 541.2300Q1028.1300 543.2100 1029.3450 544.6050Q1030.5600 546 1032.4500 546.6750Q1034.3400 547.3500 1036.4100 547.3500ZM1088.8800 555.9000L1088.8800 555.9000Q1083.4800 555.9000 1079.6550 554.6400Q1075.8300 553.3800 1073.4000 551.4900Q1070.9700 549.6000 1069.8000 547.7100Q1068.6300 545.8200 1068.5400 544.5600L1068.5400 544.5600Q1068.4500 543.5700 1069.1250 542.9850Q1069.8000 542.4000 1070.6100 542.4000L1070.6100 542.4000L1077.7200 542.4000Q1078.0800 542.4000 1078.3500 542.4900Q1078.6200 542.5800 1079.0700 543.0300L1079.0700 543.0300Q1080.2400 544.0200 1081.5450 545.1000Q1082.8500 546.1800 1084.6500 546.9450Q1086.4500 547.7100 1089.1500 547.7100L1089.1500 547.7100Q1092.6600 547.7100 1095.0450 546.3150Q1097.4300 544.9200 1097.4300 542.3100L1097.4300 542.3100Q1097.4300 540.4200 1096.3950 539.2500Q1095.3600 538.0800 1092.5700 537.1350Q1089.7800 536.1900 1084.6500 535.1100L1084.6500 535.1100Q1079.6100 533.9400 1076.2800 532.1400Q1072.9500 530.3400 1071.3300 527.6400Q1069.7100 524.9400 1069.7100 521.3400L1069.7100 521.3400Q1069.7100 517.8300 1071.8250 514.6350Q1073.9400 511.4400 1078.1250 509.3700Q1082.3100 507.3000 1088.5200 507.3000L1088.5200 507.3000Q1093.3800 507.3000 1096.9800 508.5150Q1100.5800 509.7300 1102.9650 511.5300Q1105.3500 513.3300 1106.6100 515.1750Q1107.8700 517.0200 1107.9600 518.3700L1107.9600 518.3700Q1108.0500 519.3600 1107.4200 519.9450Q1106.7900 520.5300 1105.9800 520.5300L1105.9800 520.5300L1099.3200 520.5300Q1098.8700 520.5300 1098.5100 520.3500Q1098.1500 520.1700 1097.7900 519.9000L1097.7900 519.9000Q1096.8000 519 1095.6300 517.9650Q1094.4600 516.9300 1092.7950 516.2100Q1091.1300 515.4900 1088.4300 515.4900L1088.4300 515.4900Q1085.0100 515.4900 1083.2100 516.9750Q1081.4100 518.4600 1081.4100 520.7100L1081.4100 520.7100Q1081.4100 522.2400 1082.2650 523.3650Q1083.1200 524.4900 1085.7300 525.4800Q1088.3400 526.4700 1093.6500 527.5500L1093.6500 527.5500Q1099.6800 528.6300 1103.2350 530.7450Q1106.7900 532.8600 1108.2750 535.6050Q1109.7600 538.3500 1109.7600 541.6800L1109.7600 541.6800Q1109.7600 545.7300 1107.3750 548.9700Q1104.9900 552.2100 1100.3550 554.0550Q1095.7200 555.9000 1088.8800 555.9000ZM176.1900 645.9000L176.1900 645.9000Q169.7100 645.9000 164.8050 643.4700Q159.9000 641.0400 157.1550 636.4050Q154.4100 631.7700 154.1400 625.2000L154.1400 625.2000Q154.0500 623.8500 154.0500 621.6450Q154.0500 619.4400 154.1400 618L154.1400 618Q154.4100 611.4300 157.1550 606.7950Q159.9000 602.1600 164.8050 599.7300Q169.7100 597.3000 176.1900 597.3000L176.1900 597.3000Q181.9500 597.3000 186 598.8750Q190.0500 600.4500 192.6600 602.9250Q195.2700 605.4000 196.5750 608.0550Q197.8800 610.7100 197.9700 612.8700L197.9700 612.8700Q198.0600 613.8600 197.3850 614.4450Q196.7100 615.0300 195.8100 615.0300L195.8100 615.0300L187.8900 615.0300Q186.9900 615.0300 186.4950 614.5800Q186 614.1300 185.5500 613.2300L185.5500 613.2300Q184.2000 609.6300 181.9950 608.1450Q179.7900 606.6600 176.3700 606.6600L176.3700 606.6600Q171.8700 606.6600 169.2150 609.4950Q166.5600 612.3300 166.3800 618.4500L166.3800 618.4500Q166.2000 621.8700 166.3800 624.7500L166.3800 624.7500Q166.5600 630.9600 169.2150 633.7500Q171.8700 636.5400 176.3700 636.5400L176.3700 636.5400Q179.8800 636.5400 182.0400 635.0550Q184.2000 633.5700 185.5500 629.9700L185.5500 629.9700Q186 629.0700 186.4950 628.6200Q186.9900 628.1700 187.8900 628.1700L187.8900 628.1700L195.8100 628.1700Q196.7100 628.1700 197.3850 628.7550Q198.0600 629.3400 197.9700 630.3300L197.9700 630.3300Q197.8800 631.9500 197.1150 633.9750Q196.3500 636 194.6850 638.1150Q193.0200 640.2300 190.5000 641.9850Q187.9800 643.7400 184.4250 644.8200Q180.8700 645.9000 176.1900 645.9000ZM228.0300 645.9000L228.0300 645.9000Q220.8300 645.9000 215.9250 643.3800Q211.0200 640.8600 208.4550 636.2700Q205.8900 631.6800 205.5300 625.5600L205.5300 625.5600Q205.4400 623.9400 205.4400 621.6000Q205.4400 619.2600 205.5300 617.6400L205.5300 617.6400Q205.8900 611.4300 208.5450 606.8850Q211.2000 602.3400 216.1050 599.8200Q221.0100 597.3000 228.0300 597.3000L228.0300 597.3000Q235.0500 597.3000 239.9550 599.8200Q244.8600 602.3400 247.5150 606.8850Q250.1700 611.4300 250.5300 617.6400L250.5300 617.6400Q250.6200 619.2600 250.6200 621.6000Q250.6200 623.9400 250.5300 625.5600L250.5300 625.5600Q250.1700 631.6800 247.6050 636.2700Q245.0400 640.8600 240.1350 643.3800Q235.2300 645.9000 228.0300 645.9000ZM228.0300 636.9900L228.0300 636.9900Q232.8000 636.9900 235.4100 633.9750Q238.0200 630.9600 238.2900 625.1100L238.2900 625.1100Q238.3800 623.7600 238.3800 621.6000Q238.3800 619.4400 238.2900 618.0900L238.2900 618.0900Q238.0200 612.2400 235.4100 609.2250Q232.8000 606.2100 228.0300 606.2100L228.0300 606.2100Q223.2600 606.2100 220.6500 609.2250Q218.0400 612.2400 217.7700 618.0900L217.7700 618.0900Q217.6800 619.4400 217.6800 621.6000Q217.6800 623.7600 217.7700 625.1100L217.7700 625.1100Q218.0400 630.9600 220.6500 633.9750Q223.2600 636.9900 228.0300 636.9900ZM270.3300 645L262.7700 645Q261.8700 645 261.2400 644.3700Q260.6100 643.7400 260.6100 642.8400L260.6100 642.8400L260.6100 600.3600Q260.6100 599.4600 261.2400 598.8300Q261.8700 598.2000 262.7700 598.2000L262.7700 598.2000L269.7900 598.2000Q270.6900 598.2000 271.3200 598.8300Q271.9500 599.4600 271.9500 600.3600L271.9500 600.3600L271.9500 603.4200Q273.8400 600.9000 277.0350 599.1450Q280.2300 597.3900 284.6400 597.3000L284.6400 597.3000Q294.9000 597.1200 298.9500 605.3100L298.9500 605.3100Q301.0200 601.7100 304.9350 599.5050Q308.8500 597.3000 313.6200 597.3000L313.6200 597.3000Q318.3000 597.3000 322.1250 599.4600Q325.9500 601.6200 328.1550 605.9850Q330.3600 610.3500 330.3600 617.0100L330.3600 617.0100L330.3600 642.8400Q330.3600 643.7400 329.7300 644.3700Q329.1000 645 328.2000 645L328.2000 645L320.8200 645Q319.9200 645 319.2900 644.3700Q318.6600 643.7400 318.6600 642.8400L318.6600 642.8400L318.6600 617.7300Q318.6600 613.6800 317.4900 611.2950Q316.3200 608.9100 314.3400 607.9200Q312.3600 606.9300 309.9300 606.9300L309.9300 606.9300Q307.9500 606.9300 305.9700 607.9200Q303.9900 608.9100 302.7300 611.2950Q301.4700 613.6800 301.4700 617.7300L301.4700 617.7300L301.4700 642.8400Q301.4700 643.7400 300.8400 644.3700Q300.2100 645 299.3100 645L299.3100 645L291.9300 645Q291.0300 645 290.4000 644.3700Q289.7700 643.7400 289.7700 642.8400L289.7700 642.8400L289.7700 617.7300Q289.7700 613.6800 288.5100 611.2950Q287.2500 608.9100 285.2700 607.9200Q283.2900 606.9300 281.0400 606.9300L281.0400 606.9300Q278.9700 606.9300 276.9900 607.9650Q275.0100 609 273.7500 611.3400Q272.4900 613.6800 272.4900 617.7300L272.4900 617.7300L272.4900 642.8400Q272.4900 643.7400 271.8600 644.3700Q271.2300 645 270.3300 645L270.3300 645ZM387.9600 645.9000L387.9600 645.9000Q379.6800 645.9000 373.8750 643.0200Q368.0700 640.1400 364.8750 634.6950Q361.6800 629.2500 361.4100 621.6900L361.4100 621.6900Q361.3200 617.8200 361.3200 613.3650Q361.3200 608.9100 361.4100 604.9500L361.4100 604.9500Q361.6800 597.4800 364.8750 592.1700Q368.0700 586.8600 373.9650 583.9800Q379.8600 581.1000 387.9600 581.1000L387.9600 581.1000Q394.5300 581.1000 399.4800 582.8550Q404.4300 584.6100 407.7150 587.3550Q411 590.1000 412.6650 593.2500Q414.3300 596.4000 414.4200 599.1000L414.4200 599.1000Q414.5100 599.9100 413.9700 600.4500Q413.4300 600.9900 412.5300 600.9900L412.5300 600.9900L403.2600 600.9900Q402.3600 600.9900 401.9100 600.6300Q401.4600 600.2700 401.1000 599.5500L401.1000 599.5500Q400.3800 597.6600 398.8500 595.8150Q397.3200 593.9700 394.7100 592.7100Q392.1000 591.4500 387.9600 591.4500L387.9600 591.4500Q381.8400 591.4500 378.1950 594.6900Q374.5500 597.9300 374.2800 605.4000L374.2800 605.4000Q374.0100 613.2300 374.2800 621.2400L374.2800 621.2400Q374.5500 628.8900 378.2850 632.2200Q382.0200 635.5500 388.1400 635.5500L388.1400 635.5500Q392.1900 635.5500 395.3850 634.1100Q398.5800 632.6700 400.4250 629.6100Q402.2700 626.5500 402.2700 621.7800L402.2700 621.7800L402.2700 618.9900L391.2900 618.9900Q390.3900 618.9900 389.7600 618.3600Q389.1300 617.7300 389.1300 616.7400L389.1300 616.7400L389.1300 611.9700Q389.1300 610.9800 389.7600 610.3500Q390.3900 609.7200 391.2900 609.7200L391.2900 609.7200L412.8000 609.7200Q413.7900 609.7200 414.3750 610.3500Q414.9600 610.9800 414.9600 611.9700L414.9600 611.9700L414.9600 621.4200Q414.9600 628.9800 411.6750 634.4700Q408.3900 639.9600 402.3150 642.9300Q396.2400 645.9000 387.9600 645.9000ZM442.7700 645.9000L442.7700 645.9000Q437.2800 645.9000 433.2750 643.4250Q429.2700 640.9500 427.1100 636.4050Q424.9500 631.8600 424.9500 625.6500L424.9500 625.6500L424.9500 600.3600Q424.9500 599.4600 425.5800 598.8300Q426.2100 598.2000 427.1100 598.2000L427.1100 598.2000L435.0300 598.2000Q436.0200 598.2000 436.6050 598.8300Q437.1900 599.4600 437.1900 600.3600L437.1900 600.3600L437.1900 625.1100Q437.1900 636.2700 447 636.2700L447 636.2700Q451.6800 636.2700 454.4250 633.3000Q457.1700 630.3300 457.1700 625.1100L457.1700 625.1100L457.1700 600.3600Q457.1700 599.4600 457.8000 598.8300Q458.4300 598.2000 459.3300 598.2000L459.3300 598.2000L467.2500 598.2000Q468.1500 598.2000 468.7800 598.8300Q469.4100 599.4600 469.4100 600.3600L469.4100 600.3600L469.4100 642.8400Q469.4100 643.7400 468.7800 644.3700Q468.1500 645 467.2500 645L467.2500 645L459.9600 645Q458.9700 645 458.3850 644.3700Q457.8000 643.7400 457.8000 642.8400L457.8000 642.8400L457.8000 639.1500Q455.3700 642.3000 451.7700 644.1000Q448.1700 645.9000 442.7700 645.9000ZM491.0100 645L483.5400 645Q482.6400 645 482.0100 644.3700Q481.3800 643.7400 481.3800 642.8400L481.3800 642.8400L481.3800 583.2600Q481.3800 582.3600 482.0100 581.7300Q482.6400 581.1000 483.5400 581.1000L483.5400 581.1000L491.0100 581.1000Q491.9100 581.1000 492.5400 581.7300Q493.1700 582.3600 493.1700 583.2600L493.1700 583.2600L493.1700 642.8400Q493.1700 643.7400 492.5400 644.3700Q491.9100 645 491.0100 645L491.0100 645ZM515.0400 662.1000L507.3900 662.1000Q506.4900 662.1000 505.8600 661.4700Q505.2300 660.8400 505.2300 659.9400L505.2300 659.9400L505.2300 600.3600Q505.2300 599.4600 505.8600 598.8300Q506.4900 598.2000 507.3900 598.2000L507.3900 598.2000L514.5000 598.2000Q515.4900 598.2000 516.0750 598.8300Q516.6600 599.4600 516.6600 600.3600L516.6600 600.3600L516.6600 603.9600Q518.8200 601.0800 522.3300 599.1900Q525.8400 597.3000 531.0600 597.3000L531.0600 597.3000Q535.8300 597.3000 539.3400 598.8300Q542.8500 600.3600 545.1900 603.1950Q547.5300 606.0300 548.7900 609.9000Q550.0500 613.7700 550.2300 618.4500L550.2300 618.4500Q550.3200 619.9800 550.3200 621.6000Q550.3200 623.2200 550.2300 624.8400L550.2300 624.8400Q550.1400 629.3400 548.8800 633.1650Q547.6200 636.9900 545.2350 639.8250Q542.8500 642.6600 539.3400 644.2800Q535.8300 645.9000 531.0600 645.9000L531.0600 645.9000Q526.2000 645.9000 522.7800 644.1450Q519.3600 642.3900 517.2000 639.5100L517.2000 639.5100L517.2000 659.9400Q517.2000 660.8400 516.6150 661.4700Q516.0300 662.1000 515.0400 662.1000L515.0400 662.1000ZM527.7300 636.2700L527.7300 636.2700Q531.6000 636.2700 533.7600 634.6050Q535.9200 632.9400 536.9100 630.2400Q537.9000 627.5400 538.0800 624.3000L538.0800 624.3000Q538.1700 621.6000 538.0800 618.9000L538.0800 618.9000Q537.9000 615.6600 536.9100 612.9600Q535.9200 610.2600 533.7600 608.5950Q531.6000 606.9300 527.7300 606.9300L527.7300 606.9300Q524.0400 606.9300 521.7450 608.6400Q519.4500 610.3500 518.4150 613.0050Q517.3800 615.6600 517.2000 618.4500L517.2000 618.4500Q517.1100 620.0700 517.1100 621.8700Q517.1100 623.6700 517.2000 625.3800L517.2000 625.3800Q517.2900 628.0800 518.4600 630.5550Q519.6300 633.0300 521.8800 634.6500Q524.1300 636.2700 527.7300 636.2700Z" id="title"/><path d="M1408.9600 640L1388.9400 640Q1386.5200 640 1385.0900 638.4600Q1383.6600 636.9200 1383.6600 634.7200L1383.6600 634.7200L1383.6600 520.7600L1350.2200 546.5000Q1348.2400 547.8200 1346.2600 547.4900Q1344.2800 547.1600 1342.7400 545.1800L1342.7400 545.1800L1333.5000 533.3000Q1332.1800 531.3200 1332.5100 529.1200Q1332.8400 526.9200 1334.8200 525.6000L1334.8200 525.6000L1384.1000 487.5400Q1385.4200 486.4400 1386.7400 486.2200Q1388.0600 486 1389.6000 486L1389.6000 486L1408.9600 486Q1411.1600 486 1412.7000 487.5400Q1414.2400 489.0800 1414.2400 491.2800L1414.2400 491.2800L1414.2400 634.7200Q1414.2400 636.9200 1412.7000 638.4600Q1411.1600 640 1408.9600 640L1408.9600 640ZM1500.0400 642.2000L1500.0400 642.2000Q1481.1200 642.2000 1467.4800 635.0500Q1453.8400 627.9000 1446.3600 615.6900Q1438.8800 603.4800 1438.8800 588.3000L1438.8800 588.3000Q1438.8800 581.4800 1440.6400 575.1000Q1442.4000 568.7200 1445.2600 563Q1448.1200 557.2800 1450.8700 552.7700Q1453.6200 548.2600 1455.8200 545.6200L1455.8200 545.6200L1496.0800 490.4000Q1496.9600 489.3000 1498.7200 487.6500Q1500.4800 486 1503.5600 486L1503.5600 486L1524.0200 486Q1526 486 1527.3200 487.4300Q1528.6400 488.8600 1528.6400 490.8400L1528.6400 490.8400Q1528.6400 491.7200 1528.3100 492.4900Q1527.9800 493.2600 1527.5400 493.7000L1527.5400 493.7000L1496.7400 536.3800Q1498.7200 535.7200 1501.3600 535.5000Q1504 535.2800 1506.2000 535.2800L1506.2000 535.2800Q1517.2000 535.5000 1527.1000 539.5700Q1537 543.6400 1544.4800 550.6800Q1551.9600 557.7200 1556.2500 567.1800Q1560.5400 576.6400 1560.5400 587.8600L1560.5400 587.8600Q1560.5400 602.3800 1553.2800 614.8100Q1546.0200 627.2400 1532.4900 634.7200Q1518.9600 642.2000 1500.0400 642.2000ZM1499.8200 616.9000L1499.8200 616.9000Q1507.7400 616.9000 1514.4500 613.6000Q1521.1600 610.3000 1525.3400 603.9200Q1529.5200 597.5400 1529.5200 588.0800L1529.5200 588.0800Q1529.5200 578.8400 1525.3400 572.4600Q1521.1600 566.0800 1514.4500 562.7800Q1507.7400 559.4800 1499.8200 559.4800L1499.8200 559.4800Q1491.9000 559.4800 1485.1900 562.7800Q1478.4800 566.0800 1474.3000 572.4600Q1470.1200 578.8400 1470.1200 588.0800L1470.1200 588.0800Q1470.1200 597.5400 1474.3000 603.9200Q1478.4800 610.3000 1485.1900 613.6000Q1491.9000 616.9000 1499.8200 616.9000ZM1608.2800 640L1586.2800 640Q1584.0800 640 1582.5400 638.4600Q1581 636.9200 1581 634.7200L1581 634.7200L1581 612.9400Q1581 610.5200 1582.5400 608.9800Q1584.0800 607.4400 1586.2800 607.4400L1586.2800 607.4400L1608.2800 607.4400Q1610.4800 607.4400 1612.0200 608.9800Q1613.5600 610.5200 1613.5600 612.9400L1613.5600 612.9400L1613.5600 634.7200Q1613.5600 636.9200 1612.0200 638.4600Q1610.4800 640 1608.2800 640L1608.2800 640ZM1747.1000 640L1641.9400 640Q1639.7400 640 1638.2000 638.4600Q1636.6600 636.9200 1636.6600 634.7200L1636.6600 634.7200L1636.6600 623.5000Q1636.6600 621.5200 1637.6500 618.7700Q1638.6400 616.0200 1642.1600 613.1600L1642.1600 613.1600L1676.9200 578.6200Q1691.4400 567.1800 1700.3500 559.1500Q1709.2600 551.1200 1713.3300 544.4100Q1717.4000 537.7000 1717.4000 531.1000L1717.4000 531.1000Q1717.4000 521.2000 1712.0100 515.0400Q1706.6200 508.8800 1694.9600 508.8800L1694.9600 508.8800Q1687.2600 508.8800 1681.9800 512.0700Q1676.7000 515.2600 1673.7300 520.5400Q1670.7600 525.8200 1669.6600 532.2000L1669.6600 532.2000Q1669.2200 535.0600 1667.2400 536.1600Q1665.2600 537.2600 1663.2800 537.2600L1663.2800 537.2600L1643.7000 537.2600Q1641.7200 537.2600 1640.4000 535.9400Q1639.0800 534.6200 1639.0800 532.8600L1639.0800 532.8600Q1639.3000 523.4000 1643.0400 514.4900Q1646.7800 505.5800 1653.9300 498.6500Q1661.0800 491.7200 1671.4200 487.5400Q1681.7600 483.3600 1694.7400 483.3600L1694.7400 483.3600Q1713 483.3600 1724.9900 489.5200Q1736.9800 495.6800 1743.0300 506.2400Q1749.0800 516.8000 1749.0800 530L1749.0800 530Q1749.0800 540.3400 1745.1200 549.0300Q1741.1600 557.7200 1733.6800 565.7500Q1726.2000 573.7800 1715.6400 582.1400L1715.6400 582.1400L1684.4000 613.8200L1747.1000 613.8200Q1749.5200 613.8200 1750.9500 615.2500Q1752.3800 616.6800 1752.3800 619.1000L1752.3800 619.1000L1752.3800 634.7200Q1752.3800 636.9200 1750.9500 638.4600Q1749.5200 640 1747.1000 640L1747.1000 640Z" id="lecture-full-number"/></g></svg>