<svg xmlns="http://www.w3.org/2000/svg" version="1.1" xmlns:xlink="http://www.w3.org/1999/xlink" xmlns:svgjs="http://svgjs.dev/svgjs" viewBox="0 0 1920 1080" id="c8eabcd0-907a-4edc-ad79-0e638bf6003a"><g><rect width="1920" height="1080" fill="#e06b49"/></g><g fill="#ce4b25"><path d="M745.478 668.096L1087.28 1009.97L1200.88 896.347L859.076 554.473L745.478 668.096Z"/><path d="M858.951 554.294L517.152 896.168L630.75 1009.79L972.549 667.917L858.951 554.294Z"/><path d="M289.239 668.391L631.038 1010.27L744.636 896.643L402.837 554.769L289.239 668.391Z"/><path d="M402.706 554L60.907 895.874L174.505 1009.5L516.304 667.623L402.706 554Z"/><path d="M-166 667.682L175.799 1009.56L289.397 895.933L-52.4021 554.059L-166 667.682Z"/></g><g fill="#ffffff" opacity="0.2"><path d="M1134 160C1540.91 160 1872 491.086 1872 898C1872 1304.91 1540.91 1636 1134 1636C727.086 1635.56 396 1304.91 396 898C396 491.086 727.086 160 1134 160ZM1134 1611.31C1527.25 1611.31 1847.31 1291.25 1847.31 898C1847.31 504.753 1527.25 184.247 1134 184.247C740.753 184.247 420.247 504.312 420.247 898C420.247 1291.69 740.312 1611.31 1134 1611.31Z"/><path d="M1134 251.699C1490.22 251.699 1780.3 541.785 1780.3 898C1780.3 1254.22 1490.22 1544.3 1134 1544.3C777.785 1544.3 487.699 1254.22 487.699 898C487.699 541.785 777.344 251.699 1134 251.699ZM1134 1519.61C1476.99 1519.61 1756.05 1240.55 1756.05 897.559C1756.05 554.57 1476.99 275.947 1134 275.947C791.011 275.947 511.946 555.011 511.946 898C511.946 1240.99 791.011 1519.61 1134 1519.61Z"/><path d="M1134 342.957C1439.96 342.957 1688.6 592.043 1688.6 897.559C1688.6 1203.52 1439.52 1452.16 1134 1452.16C828.043 1452.16 579.398 1203.08 579.398 897.559C578.957 592.043 828.043 342.957 1134 342.957ZM1134 1428.35C1426.29 1428.35 1664.35 1190.29 1664.35 898C1664.35 605.71 1426.29 367.645 1134 367.645C841.71 367.645 603.645 605.71 603.645 898C603.645 1190.29 841.269 1428.35 1134 1428.35Z"/><path d="M1134 434.656C1389.26 434.656 1597.34 642.301 1597.34 898C1597.34 1153.7 1389.7 1361.34 1134 1361.34C878.742 1361.34 670.656 1153.7 670.656 898C670.656 642.301 878.301 434.656 1134 434.656ZM1134 1336.66C1376.03 1336.66 1572.66 1139.59 1572.66 898C1572.66 656.408 1375.59 459.344 1134 459.344C891.968 459.344 695.344 656.408 695.344 898C695.344 1139.59 891.968 1336.66 1134 1336.66Z"/><path d="M1134 526.354C1339 526.354 1505.65 693 1505.65 898C1505.65 1103 1339 1269.64 1134 1269.64C929 1269.64 762.355 1103 762.355 898C762.355 693 929 526.354 1134 526.354ZM1134 1244.96C1325.33 1244.96 1481.4 1089.33 1481.4 897.559C1481.4 706.225 1325.77 550.161 1134 550.161C942.667 550.161 786.602 705.785 786.602 897.559C786.602 1089.33 942.226 1244.96 1134 1244.96Z"/><path d="M1134 617.613C1288.3 617.613 1414.39 743.258 1414.39 898C1414.39 1052.74 1288.74 1178.39 1134 1178.39C979.699 1178.39 853.613 1052.74 853.613 898C853.613 743.258 979.258 617.613 1134 617.613ZM1134 1153.7C1275.08 1153.7 1389.7 1039.08 1389.7 898C1389.7 756.925 1275.08 642.301 1134 642.301C992.925 642.301 878.301 756.925 878.301 898C878.301 1039.08 992.925 1153.7 1134 1153.7Z"/><path d="M1134 709.312C1238.04 709.312 1322.69 793.957 1322.69 898C1322.69 1002.04 1238.04 1086.69 1134 1086.69C1029.96 1086.69 945.312 1002.04 945.312 898C945.312 793.957 1029.96 709.312 1134 709.312ZM1134 1062C1224.38 1062 1298.44 988.377 1298.44 897.559C1298.44 807.183 1224.82 733.118 1134 733.118C1043.62 733.118 969.559 806.742 969.559 897.559C969.559 988.377 1043.18 1062 1134 1062Z"/><path d="M1134 800.57C1187.34 800.57 1230.99 844.215 1230.99 897.56C1230.99 950.904 1187.34 994.549 1134 994.549C1080.66 994.549 1037.01 950.904 1037.01 897.56C1036.57 844.215 1080.22 800.57 1134 800.57ZM1134 970.742C1174.12 970.742 1206.74 938.119 1206.74 898C1206.74 857.882 1174.12 825.258 1134 825.258C1093.88 825.258 1061.26 857.882 1061.26 898C1061.26 938.119 1093.88 970.742 1134 970.742Z"/></g><g><path d="M178.635 139.281L184.422 144.246V166.626H215.704L219.958 172.147L215.69 177.397H184.422V198.795L178.635 203.747L173 198.795V144.232L178.635 139.281ZM195.554 195.68H219.406L223.397 200.915L219.143 206.45H195.554L191.7 201.342L195.554 195.68ZM196.382 138H219.129L223.383 143.52L219.129 148.77H196.659L192.115 143.677L196.382 138ZM323.155 148.628L328.251 154.291L323.155 159.968H246.13L241.172 154.291L246.13 148.628H323.155ZM237.043 172.147L241.849 167.893L246.669 172.147V178.393C246.669 188.879 249.417 197.515 261.668 197.515H264.14C275.147 197.515 281.197 189.86 281.197 177.952V172.005L285.879 167.75L290.699 171.862V178.379C290.699 189.007 293.723 196.946 305.56 196.946H307.618C319.178 196.946 321.235 187.869 321.373 177.952V171.578L326.056 167.608L331 171.72V178.094C330.862 191.838 327.285 207.574 308.032 207.574H305.974C294.552 207.574 288.365 202.324 285.892 195.808C283.006 202.466 275.299 208.286 264.844 208.286H262.358C242.553 208.286 237.194 195.964 237.056 178.663V172.147H237.043ZM276.391 274.744L273.642 267.089L280.796 264.969L305.974 276.721V252.491L311.07 248.095L316.291 252.491V281.829L325.641 286.226L328.251 293.311L320.959 296L276.391 274.744ZM321.235 223.011L328.113 226.27L325.917 233.497L264.002 263.119L256.571 260.146L259.596 252.776L321.235 223.011ZM231.905 263.404L237.954 268.512C237.402 286.51 222.403 296 204.669 296H202.874C194.062 296 183.759 292.6 177.157 286.083L177.834 278.855L184.298 278.002C189.118 282.256 195.858 285.229 202.183 285.229H204.117C216.091 285.229 225.303 280.136 226.27 268.085L231.905 263.404ZM226.256 251.638C225.704 239.16 216.629 234.209 204.103 234.209H202.169C194.739 234.209 189.104 237.182 184.284 241.436L177.834 240.583L177.143 233.355C183.745 226.696 192.957 223.58 202.597 223.58H204.517C222.403 223.58 237.402 232.942 237.94 251.211L231.891 256.176L226.256 251.638Z" fill="#ffffff"/></g><path d="M1171 781L1171 339L1187 339L1187 781L1171 781Z" fill="#ffffff"/><g fill="#ffffff" id="info-group"><path d="M1584.4 652H1475.2C1470.37 652 1465.74 650.082 1462.33 646.669C1458.92 643.256 1457 638.627 1457 633.8V488.2C1457 483.373 1458.92 478.744 1462.33 475.331C1465.74 471.917 1470.37 470 1475.2 470H1584.4C1589.23 470 1593.86 471.917 1597.27 475.331C1600.68 478.744 1602.6 483.373 1602.6 488.2V633.8C1602.6 638.627 1600.68 643.256 1597.27 646.669C1593.86 650.082 1589.23 652 1584.4 652ZM1520.7 510.95C1520.7 509.743 1521.18 508.586 1522.03 507.733C1522.89 506.879 1524.04 506.4 1525.25 506.4H1579.85C1581.06 506.4 1582.21 506.879 1583.07 507.733C1583.92 508.586 1584.4 509.743 1584.4 510.95C1584.4 512.157 1583.92 513.314 1583.07 514.167C1582.21 515.021 1581.06 515.5 1579.85 515.5H1525.25C1524.04 515.5 1522.89 515.021 1522.03 514.167C1521.18 513.314 1520.7 512.157 1520.7 510.95ZM1525.25 524.6C1524.04 524.6 1522.89 525.079 1522.03 525.933C1521.18 526.786 1520.7 527.943 1520.7 529.15C1520.7 530.357 1521.18 531.514 1522.03 532.367C1522.89 533.221 1524.04 533.7 1525.25 533.7H1579.85C1581.06 533.7 1582.21 533.221 1583.07 532.367C1583.92 531.514 1584.4 530.357 1584.4 529.15C1584.4 527.943 1583.92 526.786 1583.07 525.933C1582.21 525.079 1581.06 524.6 1579.85 524.6H1525.25ZM1510.27 507.733C1511.12 508.586 1511.6 509.744 1511.6 510.95C1511.6 512.156 1511.12 513.314 1510.27 514.167L1488.85 535.584L1476.53 523.267C1476.1 522.847 1475.75 522.345 1475.51 521.79C1475.28 521.235 1475.15 520.638 1475.14 520.034C1475.14 519.429 1475.25 518.83 1475.48 518.271C1475.71 517.712 1476.05 517.204 1476.48 516.777C1476.9 516.35 1477.41 516.012 1477.97 515.783C1478.53 515.554 1479.13 515.439 1479.73 515.444C1480.34 515.45 1480.93 515.575 1481.49 515.813C1482.05 516.052 1482.55 516.399 1482.97 516.833L1488.85 522.716L1503.83 507.733C1504.69 506.88 1505.84 506.401 1507.05 506.401C1508.26 506.401 1509.41 506.88 1510.27 507.733ZM1525.25 561C1524.04 561 1522.89 561.479 1522.03 562.333C1521.18 563.186 1520.7 564.343 1520.7 565.55C1520.7 566.757 1521.18 567.914 1522.03 568.767C1522.89 569.621 1524.04 570.1 1525.25 570.1H1579.85C1581.06 570.1 1582.21 569.621 1583.07 568.767C1583.92 567.914 1584.4 566.757 1584.4 565.55C1584.4 564.343 1583.92 563.186 1583.07 562.333C1582.21 561.479 1581.06 561 1579.85 561H1525.25ZM1520.7 583.75C1520.7 582.543 1521.18 581.386 1522.03 580.533C1522.89 579.679 1524.04 579.2 1525.25 579.2H1579.85C1581.06 579.2 1582.21 579.679 1583.07 580.533C1583.92 581.386 1584.4 582.543 1584.4 583.75C1584.4 584.957 1583.92 586.114 1583.07 586.967C1582.21 587.821 1581.06 588.3 1579.85 588.3H1525.25C1524.04 588.3 1522.89 587.821 1522.03 586.967C1521.18 586.114 1520.7 584.957 1520.7 583.75ZM1502.5 561H1479.75C1478.54 561 1477.39 561.479 1476.53 562.333C1475.68 563.186 1475.2 564.343 1475.2 565.55V588.3C1475.2 589.507 1475.68 590.664 1476.53 591.517C1477.39 592.371 1478.54 592.85 1479.75 592.85H1502.5C1503.71 592.85 1504.86 592.371 1505.72 591.517C1506.57 590.664 1507.05 589.507 1507.05 588.3V565.55C1507.05 564.343 1506.57 563.186 1505.72 562.333C1504.86 561.479 1503.71 561 1502.5 561Z" id="title"/><path d="M1639 633.8L1625.35 652L1611.7 633.8V551.9H1639V633.8Z" id="title"/><path d="M1620.8 520.05H1629.9C1632.31 520.05 1634.63 521.009 1636.33 522.715C1638.04 524.422 1639 526.737 1639 529.15V547.35H1611.7V529.15C1611.7 526.737 1612.66 524.422 1614.37 522.715C1616.07 521.009 1618.39 520.05 1620.8 520.05Z" id="title"/><path d="M221.6880 640L202.7360 640Q200.6760 640 199.2340 638.5580Q197.7920 637.1160 197.7920 635.0560L197.7920 635.0560L197.7920 521.1380L159.6820 521.1380Q157.6220 521.1380 156.1800 519.6960Q154.7380 518.2540 154.7380 516.1940L154.7380 516.1940L154.7380 500.9500Q154.7380 498.6840 156.1800 497.2420Q157.6220 495.8000 159.6820 495.8000L159.6820 495.8000L264.7420 495.8000Q267.0080 495.8000 268.4500 497.2420Q269.8920 498.6840 269.8920 500.9500L269.8920 500.9500L269.8920 516.1940Q269.8920 518.2540 268.4500 519.6960Q267.0080 521.1380 264.7420 521.1380L264.7420 521.1380L226.8380 521.1380L226.8380 635.0560Q226.8380 637.1160 225.3960 638.5580Q223.9540 640 221.6880 640L221.6880 640ZM299.7620 640L281.8400 640Q280.1920 640 278.8530 638.7640Q277.5140 637.5280 277.5140 635.6740L277.5140 635.6740Q277.5140 634.8500 277.9260 633.8200L277.9260 633.8200L327.5720 500.9500Q328.1900 498.8900 329.9410 497.3450Q331.6920 495.8000 334.7820 495.8000L334.7820 495.8000L357.2360 495.8000Q360.3260 495.8000 361.9740 497.3450Q363.6220 498.8900 364.4460 500.9500L364.4460 500.9500L414.0920 633.8200Q414.2980 634.8500 414.2980 635.6740L414.2980 635.6740Q414.2980 637.5280 413.0620 638.7640Q411.8260 640 410.1780 640L410.1780 640L392.2560 640Q389.3720 640 388.0330 638.6610Q386.6940 637.3220 386.2820 636.0860L386.2820 636.0860L376.6000 610.9540L315.4180 610.9540L305.7360 636.0860Q305.3240 637.3220 303.9850 638.6610Q302.6460 640 299.7620 640L299.7620 640ZM345.9060 523.6100L322.6280 587.2640L369.3900 587.2640L345.9060 523.6100ZM457.1460 640L438.4000 640Q436.3400 640 434.8980 638.5580Q433.4560 637.1160 433.4560 635.0560L433.4560 635.0560L433.4560 500.9500Q433.4560 498.6840 434.8980 497.2420Q436.3400 495.8000 438.4000 495.8000L438.4000 495.8000L491.7540 495.8000Q516.6800 495.8000 531.1000 507.3360Q545.5200 518.8720 545.5200 540.9140L545.5200 540.9140Q545.5200 556.1580 538.0010 566.2520Q530.4820 576.3460 517.9160 580.8780L517.9160 580.8780L547.9920 633.4080Q548.6100 634.6440 548.6100 635.6740L548.6100 635.6740Q548.6100 637.5280 547.2710 638.7640Q545.9320 640 544.2840 640L544.2840 640L525.5380 640Q522.0360 640 520.1820 638.1460Q518.3280 636.2920 517.2980 634.4380L517.2980 634.4380L490.7240 585.6160L462.0900 585.6160L462.0900 635.0560Q462.0900 637.1160 460.7510 638.5580Q459.4120 640 457.1460 640L457.1460 640ZM462.0900 518.6660L462.0900 562.3380L491.1360 562.3380Q503.7020 562.3380 509.8820 556.6730Q516.0620 551.0080 516.0620 540.7080L516.0620 540.7080Q516.0620 530.4080 509.9850 524.5370Q503.9080 518.6660 491.1360 518.6660L491.1360 518.6660L462.0900 518.6660ZM669.3260 640L577.0380 640Q574.9780 640 573.5360 638.5580Q572.0940 637.1160 572.0940 635.0560L572.0940 635.0560L572.0940 500.9500Q572.0940 498.6840 573.5360 497.2420Q574.9780 495.8000 577.0380 495.8000L577.0380 495.8000L667.6780 495.8000Q669.9440 495.8000 671.3860 497.2420Q672.8280 498.6840 672.8280 500.9500L672.8280 500.9500L672.8280 514.5460Q672.8280 516.6060 671.3860 518.0480Q669.9440 519.4900 667.6780 519.4900L667.6780 519.4900L599.9040 519.4900L599.9040 555.9520L663.1460 555.9520Q665.4120 555.9520 666.8540 557.2910Q668.2960 558.6300 668.2960 560.8960L668.2960 560.8960L668.2960 573.6680Q668.2960 575.9340 666.8540 577.2730Q665.4120 578.6120 663.1460 578.6120L663.1460 578.6120L599.9040 578.6120L599.9040 616.3100L669.3260 616.3100Q671.5920 616.3100 673.0340 617.7520Q674.4760 619.1940 674.4760 621.4600L674.4760 621.4600L674.4760 635.0560Q674.4760 637.1160 673.0340 638.5580Q671.5920 640 669.3260 640L669.3260 640ZM723.2980 640L705.1700 640Q703.1100 640 701.6680 638.5580Q700.2260 637.1160 700.2260 635.0560L700.2260 635.0560L700.2260 500.9500Q700.2260 498.6840 701.6680 497.2420Q703.1100 495.8000 705.1700 495.8000L705.1700 495.8000L794.5740 495.8000Q796.8400 495.8000 798.2820 497.2420Q799.7240 498.6840 799.7240 500.9500L799.7240 500.9500L799.7240 515.3700Q799.7240 517.6360 798.2820 518.9750Q796.8400 520.3140 794.5740 520.3140L794.5740 520.3140L728.4480 520.3140L728.4480 559.4540L790.4540 559.4540Q792.7200 559.4540 794.1620 560.8960Q795.6040 562.3380 795.6040 564.6040L795.6040 564.6040L795.6040 579.0240Q795.6040 581.0840 794.1620 582.5260Q792.7200 583.9680 790.4540 583.9680L790.4540 583.9680L728.4480 583.9680L728.4480 635.0560Q728.4480 637.1160 727.0060 638.5580Q725.5640 640 723.2980 640L723.2980 640ZM833.0960 640L815.1740 640Q813.5260 640 812.1870 638.7640Q810.8480 637.5280 810.8480 635.6740L810.8480 635.6740Q810.8480 634.8500 811.2600 633.8200L811.2600 633.8200L860.9060 500.9500Q861.5240 498.8900 863.2750 497.3450Q865.0260 495.8000 868.1160 495.8000L868.1160 495.8000L890.5700 495.8000Q893.6600 495.8000 895.3080 497.3450Q896.9560 498.8900 897.7800 500.9500L897.7800 500.9500L947.4260 633.8200Q947.6320 634.8500 947.6320 635.6740L947.6320 635.6740Q947.6320 637.5280 946.3960 638.7640Q945.1600 640 943.5120 640L943.5120 640L925.5900 640Q922.7060 640 921.3670 638.6610Q920.0280 637.3220 919.6160 636.0860L919.6160 636.0860L909.9340 610.9540L848.7520 610.9540L839.0700 636.0860Q838.6580 637.3220 837.3190 638.6610Q835.9800 640 833.0960 640L833.0960 640ZM879.2400 523.6100L855.9620 587.2640L902.7240 587.2640L879.2400 523.6100Z" id="task-title"/></g></svg>