<svg xmlns="http://www.w3.org/2000/svg" version="1.1" xmlns:xlink="http://www.w3.org/1999/xlink" xmlns:svgjs="http://svgjs.dev/svgjs" viewBox="0 0 1920 1080" id="2f454bdf-7391-46a1-8373-78f258949d76"><g><rect width="1920" height="1080" fill="#60993e"/></g><g fill="#4e5699"><path d="M745.478 668.096L1087.28 1009.97L1200.88 896.347L859.076 554.473L745.478 668.096Z"/><path d="M858.951 554.294L517.152 896.168L630.75 1009.79L972.549 667.917L858.951 554.294Z"/><path d="M289.239 668.391L631.038 1010.27L744.636 896.643L402.837 554.769L289.239 668.391Z"/><path d="M402.706 554L60.907 895.874L174.505 1009.5L516.304 667.623L402.706 554Z"/><path d="M-166 667.682L175.799 1009.56L289.397 895.933L-52.4021 554.059L-166 667.682Z"/></g><g fill="#ffffff" opacity="0.2"><path d="M1134 160C1540.91 160 1872 491.086 1872 898C1872 1304.91 1540.91 1636 1134 1636C727.086 1635.56 396 1304.91 396 898C396 491.086 727.086 160 1134 160ZM1134 1611.31C1527.25 1611.31 1847.31 1291.25 1847.31 898C1847.31 504.753 1527.25 184.247 1134 184.247C740.753 184.247 420.247 504.312 420.247 898C420.247 1291.69 740.312 1611.31 1134 1611.31Z"/><path d="M1134 251.699C1490.22 251.699 1780.3 541.785 1780.3 898C1780.3 1254.22 1490.22 1544.3 1134 1544.3C777.785 1544.3 487.699 1254.22 487.699 898C487.699 541.785 777.344 251.699 1134 251.699ZM1134 1519.61C1476.99 1519.61 1756.05 1240.55 1756.05 897.559C1756.05 554.57 1476.99 275.947 1134 275.947C791.011 275.947 511.946 555.011 511.946 898C511.946 1240.99 791.011 1519.61 1134 1519.61Z"/><path d="M1134 342.957C1439.96 342.957 1688.6 592.043 1688.6 897.559C1688.6 1203.52 1439.52 1452.16 1134 1452.16C828.043 1452.16 579.398 1203.08 579.398 897.559C578.957 592.043 828.043 342.957 1134 342.957ZM1134 1428.35C1426.29 1428.35 1664.35 1190.29 1664.35 898C1664.35 605.71 1426.29 367.645 1134 367.645C841.71 367.645 603.645 605.71 603.645 898C603.645 1190.29 841.269 1428.35 1134 1428.35Z"/><path d="M1134 434.656C1389.26 434.656 1597.34 642.301 1597.34 898C1597.34 1153.7 1389.7 1361.34 1134 1361.34C878.742 1361.34 670.656 1153.7 670.656 898C670.656 642.301 878.301 434.656 1134 434.656ZM1134 1336.66C1376.03 1336.66 1572.66 1139.59 1572.66 898C1572.66 656.408 1375.59 459.344 1134 459.344C891.968 459.344 695.344 656.408 695.344 898C695.344 1139.59 891.968 1336.66 1134 1336.66Z"/><path d="M1134 526.354C1339 526.354 1505.65 693 1505.65 898C1505.65 1103 1339 1269.64 1134 1269.64C929 1269.64 762.355 1103 762.355 898C762.355 693 929 526.354 1134 526.354ZM1134 1244.96C1325.33 1244.96 1481.4 1089.33 1481.4 897.559C1481.4 706.225 1325.77 550.161 1134 550.161C942.667 550.161 786.602 705.785 786.602 897.559C786.602 1089.33 942.226 1244.96 1134 1244.96Z"/><path d="M1134 617.613C1288.3 617.613 1414.39 743.258 1414.39 898C1414.39 1052.74 1288.74 1178.39 1134 1178.39C979.699 1178.39 853.613 1052.74 853.613 898C853.613 743.258 979.258 617.613 1134 617.613ZM1134 1153.7C1275.08 1153.7 1389.7 1039.08 1389.7 898C1389.7 756.925 1275.08 642.301 1134 642.301C992.925 642.301 878.301 756.925 878.301 898C878.301 1039.08 992.925 1153.7 1134 1153.7Z"/><path d="M1134 709.312C1238.04 709.312 1322.69 793.957 1322.69 898C1322.69 1002.04 1238.04 1086.69 1134 1086.69C1029.96 1086.69 945.312 1002.04 945.312 898C945.312 793.957 1029.96 709.312 1134 709.312ZM1134 1062C1224.38 1062 1298.44 988.377 1298.44 897.559C1298.44 807.183 1224.82 733.118 1134 733.118C1043.62 733.118 969.559 806.742 969.559 897.559C969.559 988.377 1043.18 1062 1134 1062Z"/><path d="M1134 800.57C1187.34 800.57 1230.99 844.215 1230.99 897.56C1230.99 950.904 1187.34 994.549 1134 994.549C1080.66 994.549 1037.01 950.904 1037.01 897.56C1036.57 844.215 1080.22 800.57 1134 800.57ZM1134 970.742C1174.12 970.742 1206.74 938.119 1206.74 898C1206.74 857.882 1174.12 825.258 1134 825.258C1093.88 825.258 1061.26 857.882 1061.26 898C1061.26 938.119 1093.88 970.742 1134 970.742Z"/></g><g><path d="M178.635 139.281L184.422 144.246V166.626H215.704L219.958 172.147L215.69 177.397H184.422V198.795L178.635 203.747L173 198.795V144.232L178.635 139.281ZM195.554 195.68H219.406L223.397 200.915L219.143 206.45H195.554L191.7 201.342L195.554 195.68ZM196.382 138H219.129L223.383 143.52L219.129 148.77H196.659L192.115 143.677L196.382 138ZM323.155 148.628L328.251 154.291L323.155 159.968H246.13L241.172 154.291L246.13 148.628H323.155ZM237.043 172.147L241.849 167.893L246.669 172.147V178.393C246.669 188.879 249.417 197.515 261.668 197.515H264.14C275.147 197.515 281.197 189.86 281.197 177.952V172.005L285.879 167.75L290.699 171.862V178.379C290.699 189.007 293.723 196.946 305.56 196.946H307.618C319.178 196.946 321.235 187.869 321.373 177.952V171.578L326.056 167.608L331 171.72V178.094C330.862 191.838 327.285 207.574 308.032 207.574H305.974C294.552 207.574 288.365 202.324 285.892 195.808C283.006 202.466 275.299 208.286 264.844 208.286H262.358C242.553 208.286 237.194 195.964 237.056 178.663V172.147H237.043ZM276.391 274.744L273.642 267.089L280.796 264.969L305.974 276.721V252.491L311.07 248.095L316.291 252.491V281.829L325.641 286.226L328.251 293.311L320.959 296L276.391 274.744ZM321.235 223.011L328.113 226.27L325.917 233.497L264.002 263.119L256.571 260.146L259.596 252.776L321.235 223.011ZM231.905 263.404L237.954 268.512C237.402 286.51 222.403 296 204.669 296H202.874C194.062 296 183.759 292.6 177.157 286.083L177.834 278.855L184.298 278.002C189.118 282.256 195.858 285.229 202.183 285.229H204.117C216.091 285.229 225.303 280.136 226.27 268.085L231.905 263.404ZM226.256 251.638C225.704 239.16 216.629 234.209 204.103 234.209H202.169C194.739 234.209 189.104 237.182 184.284 241.436L177.834 240.583L177.143 233.355C183.745 226.696 192.957 223.58 202.597 223.58H204.517C222.403 223.58 237.402 232.942 237.94 251.211L231.891 256.176L226.256 251.638Z" fill="#ffffff"/></g><path d="M1171 781L1171 339L1187 339L1187 781L1171 781Z" fill="#ffffff"/><g fill="#ffffff" id="info-group"><path d="M167.7300 600L159.1800 600Q158.2800 600 157.6500 599.3700Q157.0200 598.7400 157.0200 597.8400L157.0200 597.8400L157.0200 539.2500Q157.0200 538.2600 157.6500 537.6300Q158.2800 537 159.1800 537L159.1800 537L183.3000 537Q190.3200 537 195.5400 539.2050Q200.7600 541.4100 203.6400 545.8650Q206.5200 550.3200 206.5200 556.9800L206.5200 556.9800Q206.5200 563.7300 203.6400 568.0950Q200.7600 572.4600 195.5400 574.6200Q190.3200 576.7800 183.3000 576.7800L183.3000 576.7800L169.8900 576.7800L169.8900 597.8400Q169.8900 598.7400 169.3050 599.3700Q168.7200 600 167.7300 600L167.7300 600ZM169.7100 546.9900L169.7100 566.7900L182.8500 566.7900Q188.0700 566.7900 190.8600 564.3150Q193.6500 561.8400 193.6500 556.9800L193.6500 556.9800Q193.6500 552.4800 191.0400 549.7350Q188.4300 546.9900 182.8500 546.9900L182.8500 546.9900L169.7100 546.9900ZM225.2400 600L217.4100 600Q216.5100 600 215.8800 599.3700Q215.2500 598.7400 215.2500 597.8400L215.2500 597.8400L215.2500 555.4500Q215.2500 554.4600 215.8800 553.8300Q216.5100 553.2000 217.4100 553.2000L217.4100 553.2000L224.7000 553.2000Q225.6000 553.2000 226.2750 553.8300Q226.9500 554.4600 226.9500 555.4500L226.9500 555.4500L226.9500 559.1400Q229.0200 556.2600 232.3050 554.7300Q235.5900 553.2000 239.9100 553.2000L239.9100 553.2000L243.6000 553.2000Q244.5900 553.2000 245.1750 553.8300Q245.7600 554.4600 245.7600 555.3600L245.7600 555.3600L245.7600 561.8400Q245.7600 562.7400 245.1750 563.3700Q244.5900 564 243.6000 564L243.6000 564L236.5800 564Q232.2600 564 229.8750 566.3850Q227.4900 568.7700 227.4900 573.0900L227.4900 573.0900L227.4900 597.8400Q227.4900 598.7400 226.8600 599.3700Q226.2300 600 225.2400 600L225.2400 600ZM273.4800 600.9000L273.4800 600.9000Q266.2800 600.9000 261.3750 598.3800Q256.4700 595.8600 253.9050 591.2700Q251.3400 586.6800 250.9800 580.5600L250.9800 580.5600Q250.8900 578.9400 250.8900 576.6000Q250.8900 574.2600 250.9800 572.6400L250.9800 572.6400Q251.3400 566.4300 253.9950 561.8850Q256.6500 557.3400 261.5550 554.8200Q266.4600 552.3000 273.4800 552.3000L273.4800 552.3000Q280.5000 552.3000 285.4050 554.8200Q290.3100 557.3400 292.9650 561.8850Q295.6200 566.4300 295.9800 572.6400L295.9800 572.6400Q296.0700 574.2600 296.0700 576.6000Q296.0700 578.9400 295.9800 580.5600L295.9800 580.5600Q295.6200 586.6800 293.0550 591.2700Q290.4900 595.8600 285.5850 598.3800Q280.6800 600.9000 273.4800 600.9000ZM273.4800 591.9900L273.4800 591.9900Q278.2500 591.9900 280.8600 588.9750Q283.4700 585.9600 283.7400 580.1100L283.7400 580.1100Q283.8300 578.7600 283.8300 576.6000Q283.8300 574.4400 283.7400 573.0900L283.7400 573.0900Q283.4700 567.2400 280.8600 564.2250Q278.2500 561.2100 273.4800 561.2100L273.4800 561.2100Q268.7100 561.2100 266.1000 564.2250Q263.4900 567.2400 263.2200 573.0900L263.2200 573.0900Q263.1300 574.4400 263.1300 576.6000Q263.1300 578.7600 263.2200 580.1100L263.2200 580.1100Q263.4900 585.9600 266.1000 588.9750Q268.7100 591.9900 273.4800 591.9900ZM301.7400 617.1000L298.3200 617.1000Q297.4200 617.1000 296.7900 616.4700Q296.1600 615.8400 296.1600 614.9400L296.1600 614.9400L296.1600 609.7200Q296.1600 608.8200 296.7900 608.1900Q297.4200 607.5600 298.3200 607.5600L298.3200 607.5600L300.6600 607.5600Q303.4500 607.5600 304.8000 606.5700Q306.1500 605.5800 306.6000 603.8250Q307.0500 602.0700 307.0500 599.9100L307.0500 599.9100L307.0500 555.3600Q307.0500 554.4600 307.6800 553.8300Q308.3100 553.2000 309.2100 553.2000L309.2100 553.2000L317.0400 553.2000Q317.9400 553.2000 318.5700 553.8300Q319.2000 554.4600 319.2000 555.3600L319.2000 555.3600L319.2000 600.0900Q319.2000 605.4000 317.2650 609.1800Q315.3300 612.9600 311.5050 615.0300Q307.6800 617.1000 301.7400 617.1000L301.7400 617.1000ZM317.3100 545.4600L308.8500 545.4600Q307.8600 545.4600 307.2750 544.8300Q306.6900 544.2000 306.6900 543.3000L306.6900 543.3000L306.6900 536.8200Q306.6900 535.9200 307.2750 535.2900Q307.8600 534.6600 308.8500 534.6600L308.8500 534.6600L317.3100 534.6600Q318.3000 534.6600 318.9300 535.2900Q319.5600 535.9200 319.5600 536.8200L319.5600 536.8200L319.5600 543.3000Q319.5600 544.2000 318.9300 544.8300Q318.3000 545.4600 317.3100 545.4600L317.3100 545.4600ZM351.3300 600.9000L351.3300 600.9000Q341.3400 600.9000 335.4900 595.1400Q329.6400 589.3800 329.1900 578.7600L329.1900 578.7600Q329.1000 577.8600 329.1000 576.4650Q329.1000 575.0700 329.1900 574.2600L329.1900 574.2600Q329.5500 567.4200 332.2950 562.5150Q335.0400 557.6100 339.9000 554.9550Q344.7600 552.3000 351.3300 552.3000L351.3300 552.3000Q358.6200 552.3000 363.5700 555.3150Q368.5200 558.3300 371.0400 563.6850Q373.5600 569.0400 373.5600 576.0600L373.5600 576.0600L373.5600 577.9500Q373.5600 578.8500 372.9300 579.4800Q372.3000 580.1100 371.3100 580.1100L371.3100 580.1100L341.4300 580.1100Q341.4300 580.1100 341.4300 580.3800Q341.4300 580.6500 341.4300 580.8300L341.4300 580.8300Q341.5200 583.9800 342.6450 586.6350Q343.7700 589.2900 345.9750 590.9100Q348.1800 592.5300 351.2400 592.5300L351.2400 592.5300Q353.7600 592.5300 355.4700 591.7650Q357.1800 591 358.2600 590.0100Q359.3400 589.0200 359.7900 588.3900L359.7900 588.3900Q360.6000 587.3100 361.0950 587.0850Q361.5900 586.8600 362.5800 586.8600L362.5800 586.8600L370.3200 586.8600Q371.2200 586.8600 371.8050 587.4000Q372.3900 587.9400 372.3000 588.7500L372.3000 588.7500Q372.2100 590.1900 370.8150 592.2600Q369.4200 594.3300 366.8100 596.3100Q364.2000 598.2900 360.2850 599.5950Q356.3700 600.9000 351.3300 600.9000ZM341.4300 572.2800L341.4300 572.5500L361.3200 572.5500L361.3200 572.2800Q361.3200 568.7700 360.1500 566.1150Q358.9800 563.4600 356.7300 561.9750Q354.4800 560.4900 351.3300 560.4900L351.3300 560.4900Q348.1800 560.4900 345.9300 561.9750Q343.6800 563.4600 342.5550 566.1150Q341.4300 568.7700 341.4300 572.2800L341.4300 572.2800ZM411.5400 600L404.2500 600Q398.8500 600 395.1600 598.1100Q391.4700 596.2200 389.6700 592.4850Q387.8700 588.7500 387.8700 583.1700L387.8700 583.1700L387.8700 562.7400L380.7600 562.7400Q379.8600 562.7400 379.2300 562.1100Q378.6000 561.4800 378.6000 560.4900L378.6000 560.4900L378.6000 555.3600Q378.6000 554.4600 379.2300 553.8300Q379.8600 553.2000 380.7600 553.2000L380.7600 553.2000L387.8700 553.2000L387.8700 538.2600Q387.8700 537.3600 388.4550 536.7300Q389.0400 536.1000 390.0300 536.1000L390.0300 536.1000L397.3200 536.1000Q398.2200 536.1000 398.8500 536.7300Q399.4800 537.3600 399.4800 538.2600L399.4800 538.2600L399.4800 553.2000L410.7300 553.2000Q411.6300 553.2000 412.2600 553.8300Q412.8900 554.4600 412.8900 555.3600L412.8900 555.3600L412.8900 560.4900Q412.8900 561.4800 412.2600 562.1100Q411.6300 562.7400 410.7300 562.7400L410.7300 562.7400L399.4800 562.7400L399.4800 582.2700Q399.4800 585.9600 400.7850 588.0300Q402.0900 590.1000 405.3300 590.1000L405.3300 590.1000L411.5400 590.1000Q412.4400 590.1000 413.0700 590.7300Q413.7000 591.3600 413.7000 592.2600L413.7000 592.2600L413.7000 597.8400Q413.7000 598.7400 413.0700 599.3700Q412.4400 600 411.5400 600L411.5400 600ZM442.4100 600.9000L442.4100 600.9000Q435.2100 600.9000 430.3050 598.3800Q425.4000 595.8600 422.8350 591.2700Q420.2700 586.6800 419.9100 580.5600L419.9100 580.5600Q419.8200 578.9400 419.8200 576.6000Q419.8200 574.2600 419.9100 572.6400L419.9100 572.6400Q420.2700 566.4300 422.9250 561.8850Q425.5800 557.3400 430.4850 554.8200Q435.3900 552.3000 442.4100 552.3000L442.4100 552.3000Q449.4300 552.3000 454.3350 554.8200Q459.2400 557.3400 461.8950 561.8850Q464.5500 566.4300 464.9100 572.6400L464.9100 572.6400Q465.0000 574.2600 465.0000 576.6000Q465.0000 578.9400 464.9100 580.5600L464.9100 580.5600Q464.5500 586.6800 461.9850 591.2700Q459.4200 595.8600 454.5150 598.3800Q449.6100 600.9000 442.4100 600.9000ZM442.4100 591.9900L442.4100 591.9900Q447.1800 591.9900 449.7900 588.9750Q452.4000 585.9600 452.6700 580.1100L452.6700 580.1100Q452.7600 578.7600 452.7600 576.6000Q452.7600 574.4400 452.6700 573.0900L452.6700 573.0900Q452.4000 567.2400 449.7900 564.2250Q447.1800 561.2100 442.4100 561.2100L442.4100 561.2100Q437.6400 561.2100 435.0300 564.2250Q432.4200 567.2400 432.1500 573.0900L432.1500 573.0900Q432.0600 574.4400 432.0600 576.6000Q432.0600 578.7600 432.1500 580.1100L432.1500 580.1100Q432.4200 585.9600 435.0300 588.9750Q437.6400 591.9900 442.4100 591.9900ZM517.6500 600.9000L517.6500 600.9000Q511.3500 600.9000 506.7600 599.3700Q502.1700 597.8400 499.1550 595.3650Q496.1400 592.8900 494.6100 589.9650Q493.0800 587.0400 492.9900 584.1600L492.9900 584.1600Q492.9900 583.3500 493.5750 582.8550Q494.1600 582.3600 494.9700 582.3600L494.9700 582.3600L503.0700 582.3600Q503.9700 582.3600 504.6000 582.7200Q505.2300 583.0800 505.6800 584.1600L505.6800 584.1600Q506.4900 586.5900 508.3350 588.0300Q510.1800 589.4700 512.6100 590.0550Q515.0400 590.6400 517.7400 590.6400L517.7400 590.6400Q523.1400 590.6400 526.3350 588.0750Q529.5300 585.5100 529.5300 580.7400L529.5300 580.7400Q529.5300 575.9700 526.5600 573.8550Q523.5900 571.7400 518.2800 571.7400L518.2800 571.7400L509.0100 571.7400Q508.0200 571.7400 507.3900 571.1550Q506.7600 570.5700 506.7600 569.5800L506.7600 569.5800L506.7600 565.8000Q506.7600 564.9000 507.1650 564.2250Q507.5700 563.5500 508.0200 563.1000L508.0200 563.1000L524.1300 547.3500L498.3900 547.3500Q497.4000 547.3500 496.8150 546.7200Q496.2300 546.0900 496.2300 545.1900L496.2300 545.1900L496.2300 539.2500Q496.2300 538.2600 496.8150 537.6300Q497.4000 537 498.3900 537L498.3900 537L537.0000 537Q537.9900 537 538.6200 537.6300Q539.2500 538.2600 539.2500 539.2500L539.2500 539.2500L539.2500 544.6500Q539.2500 545.4600 538.8900 546.0900Q538.5300 546.7200 538.0800 547.1700L538.0800 547.1700L522.5100 563.1900L523.5900 563.2800Q529.0800 563.7300 533.3550 565.7550Q537.6300 567.7800 540.0150 571.6500Q542.4000 575.5200 542.4000 581.3700L542.4000 581.3700Q542.4000 587.4900 539.2050 591.8550Q536.0100 596.2200 530.4300 598.5600Q524.8500 600.9000 517.6500 600.9000Z" id="title"/><path d="M1408.9600 640L1388.9400 640Q1386.5200 640 1385.0900 638.4600Q1383.6600 636.9200 1383.6600 634.7200L1383.6600 634.7200L1383.6600 520.7600L1350.2200 546.5000Q1348.2400 547.8200 1346.2600 547.4900Q1344.2800 547.1600 1342.7400 545.1800L1342.7400 545.1800L1333.5000 533.3000Q1332.1800 531.3200 1332.5100 529.1200Q1332.8400 526.9200 1334.8200 525.6000L1334.8200 525.6000L1384.1000 487.5400Q1385.4200 486.4400 1386.7400 486.2200Q1388.0600 486 1389.6000 486L1389.6000 486L1408.9600 486Q1411.1600 486 1412.7000 487.5400Q1414.2400 489.0800 1414.2400 491.2800L1414.2400 491.2800L1414.2400 634.7200Q1414.2400 636.9200 1412.7000 638.4600Q1411.1600 640 1408.9600 640L1408.9600 640ZM1535.9000 640L1516.7600 640Q1514.5600 640 1513.0200 638.4600Q1511.4800 636.9200 1511.4800 634.7200L1511.4800 634.7200L1511.4800 606.5600L1441.7400 606.5600Q1439.3200 606.5600 1437.8900 605.0200Q1436.4600 603.4800 1436.4600 601.2800L1436.4600 601.2800L1436.4600 586.3200Q1436.4600 585 1437.0100 583.1300Q1437.5600 581.2600 1438.8800 579.7200L1438.8800 579.7200L1503.7800 489.7400Q1506.6400 486 1511.9200 486L1511.9200 486L1535.9000 486Q1538.1000 486 1539.6400 487.5400Q1541.1800 489.0800 1541.1800 491.2800L1541.1800 491.2800L1541.1800 580.6000L1560.7600 580.6000Q1563.4000 580.6000 1564.8300 582.0300Q1566.2600 583.4600 1566.2600 585.8800L1566.2600 585.8800L1566.2600 601.2800Q1566.2600 603.4800 1564.7200 605.0200Q1563.1800 606.5600 1560.9800 606.5600L1560.9800 606.5600L1541.1800 606.5600L1541.1800 634.7200Q1541.1800 636.9200 1539.6400 638.4600Q1538.1000 640 1535.9000 640L1535.9000 640ZM1512.1400 517.9000L1467.0400 581.4800L1512.1400 581.4800L1512.1400 517.9000ZM1611.3600 640L1589.3600 640Q1587.1600 640 1585.6200 638.4600Q1584.0800 636.9200 1584.0800 634.7200L1584.0800 634.7200L1584.0800 612.9400Q1584.0800 610.5200 1585.6200 608.9800Q1587.1600 607.4400 1589.3600 607.4400L1589.3600 607.4400L1611.3600 607.4400Q1613.5600 607.4400 1615.1000 608.9800Q1616.6400 610.5200 1616.6400 612.9400L1616.6400 612.9400L1616.6400 634.7200Q1616.6400 636.9200 1615.1000 638.4600Q1613.5600 640 1611.3600 640L1611.3600 640ZM1698.2600 642.2000L1698.2600 642.2000Q1682.8600 642.2000 1671.6400 638.4600Q1660.4200 634.7200 1653.0500 628.6700Q1645.6800 622.6200 1641.9400 615.4700Q1638.2000 608.3200 1637.9800 601.2800L1637.9800 601.2800Q1637.9800 599.3000 1639.4100 598.0900Q1640.8400 596.8800 1642.8200 596.8800L1642.8200 596.8800L1662.6200 596.8800Q1664.8200 596.8800 1666.3600 597.7600Q1667.9000 598.6400 1669 601.2800L1669 601.2800Q1670.9800 607.2200 1675.4900 610.7400Q1680 614.2600 1685.9400 615.6900Q1691.8800 617.1200 1698.4800 617.1200L1698.4800 617.1200Q1711.6800 617.1200 1719.4900 610.8500Q1727.3000 604.5800 1727.3000 592.9200L1727.3000 592.9200Q1727.3000 581.2600 1720.0400 576.0900Q1712.7800 570.9200 1699.8000 570.9200L1699.8000 570.9200L1677.1400 570.9200Q1674.7200 570.9200 1673.1800 569.4900Q1671.6400 568.0600 1671.6400 565.6400L1671.6400 565.6400L1671.6400 556.4000Q1671.6400 554.2000 1672.6300 552.5500Q1673.6200 550.9000 1674.7200 549.8000L1674.7200 549.8000L1714.1000 511.3000L1651.1800 511.3000Q1648.7600 511.3000 1647.3300 509.7600Q1645.9000 508.2200 1645.9000 506.0200L1645.9000 506.0200L1645.9000 491.5000Q1645.9000 489.0800 1647.3300 487.5400Q1648.7600 486 1651.1800 486L1651.1800 486L1745.5600 486Q1747.9800 486 1749.5200 487.5400Q1751.0600 489.0800 1751.0600 491.5000L1751.0600 491.5000L1751.0600 504.7000Q1751.0600 506.6800 1750.1800 508.2200Q1749.3000 509.7600 1748.2000 510.8600L1748.2000 510.8600L1710.1400 550.0200L1712.7800 550.2400Q1726.2000 551.3400 1736.6500 556.2900Q1747.1000 561.2400 1752.9300 570.7000Q1758.7600 580.1600 1758.7600 594.4600L1758.7600 594.4600Q1758.7600 609.4200 1750.9500 620.0900Q1743.1400 630.7600 1729.5000 636.4800Q1715.8600 642.2000 1698.2600 642.2000Z" id="lecture-full-number"/></g></svg>