<svg width="17" height="20" viewBox="0 0 17 20" fill="none" xmlns="http://www.w3.org/2000/svg">
<path fill-rule="evenodd" clip-rule="evenodd" d="M3.92157 2C2.73894 2 1.96078 2.85762 1.96078 3.7V6C1.96078 6.55228 1.52185 7 0.980392 7C0.438936 7 0 6.55228 0 6V3.7C0 1.56005 1.85546 0 3.92157 0H12.7451C14.8112 0 16.6667 1.56005 16.6667 3.7V16.3C16.6667 18.44 14.8112 20 12.7451 20H3.92157C1.85546 20 0 18.44 0 16.3V14C0 13.4477 0.438936 13 0.980392 13C1.52185 13 1.96078 13.4477 1.96078 14V16.3C1.96078 17.1424 2.73894 18 3.92157 18H12.7451C13.9277 18 14.7059 17.1424 14.7059 16.3V3.7C14.7059 2.85762 13.9277 2 12.7451 2H3.92157Z" fill="white"/>
<path fill-rule="evenodd" clip-rule="evenodd" d="M8.24922 5.00002L12.4579 9.2929C12.8408 9.68343 12.8408 10.3166 12.4579 10.7071L8.24923 15C7.86637 15.3905 7.24562 15.3905 6.86275 15C6.47988 14.6095 6.47988 13.9763 6.86275 13.5858L9.39783 11L0.980392 11C0.438937 11 1.16872e-07 10.5523 0 10C-1.16872e-07 9.44773 0.438936 9.00001 0.980392 9.00001L9.39783 9.00001L6.86274 6.41423C6.47987 6.02371 6.47987 5.39054 6.86274 5.00002C7.2456 4.60949 7.86635 4.60949 8.24922 5.00002Z" fill="white"/>
</svg>
