<svg width="15" height="17" viewBox="0 0 15 17" fill="none" xmlns="http://www.w3.org/2000/svg">
<path d="M0 2C0 1.46957 0.210714 0.960859 0.585786 0.585786C0.960859 0.210714 1.46957 0 2 0H13C13.5304 0 14.0391 0.210714 14.4142 0.585786C14.7893 0.960859 15 1.46957 15 2V11C15 11.5304 14.7893 12.0391 14.4142 12.4142C14.0391 12.7893 13.5304 13 13 13H4.414C4.14881 13.0001 3.89449 13.1055 3.707 13.293L0.854 16.146C0.784131 16.216 0.695051 16.2638 0.598036 16.2832C0.501021 16.3026 0.400432 16.2928 0.308999 16.255C0.217567 16.2172 0.139402 16.1531 0.0843973 16.0709C0.0293926 15.9886 2.10149e-05 15.8919 0 15.793L0 2ZM3.5 3C3.36739 3 3.24021 3.05268 3.14645 3.14645C3.05268 3.24021 3 3.36739 3 3.5C3 3.63261 3.05268 3.75979 3.14645 3.85355C3.24021 3.94732 3.36739 4 3.5 4H11.5C11.6326 4 11.7598 3.94732 11.8536 3.85355C11.9473 3.75979 12 3.63261 12 3.5C12 3.36739 11.9473 3.24021 11.8536 3.14645C11.7598 3.05268 11.6326 3 11.5 3H3.5ZM3.5 5.5C3.36739 5.5 3.24021 5.55268 3.14645 5.64645C3.05268 5.74021 3 5.86739 3 6C3 6.13261 3.05268 6.25979 3.14645 6.35355C3.24021 6.44732 3.36739 6.5 3.5 6.5H11.5C11.6326 6.5 11.7598 6.44732 11.8536 6.35355C11.9473 6.25979 12 6.13261 12 6C12 5.86739 11.9473 5.74021 11.8536 5.64645C11.7598 5.55268 11.6326 5.5 11.5 5.5H3.5ZM3.5 8C3.36739 8 3.24021 8.05268 3.14645 8.14645C3.05268 8.24021 3 8.36739 3 8.5C3 8.63261 3.05268 8.75979 3.14645 8.85355C3.24021 8.94732 3.36739 9 3.5 9H8.5C8.63261 9 8.75979 8.94732 8.85355 8.85355C8.94732 8.75979 9 8.63261 9 8.5C9 8.36739 8.94732 8.24021 8.85355 8.14645C8.75979 8.05268 8.63261 8 8.5 8H3.5Z" fill="black"/>
</svg>
