<svg width="298" height="268" viewBox="0 0 298 268" fill="none" xmlns="http://www.w3.org/2000/svg">
  <path d="M250.659 4.50796C279.047 14.0221 295.613 41.0692 297.09 74.9871C298.781 113.818 291.679 153.737 272.579 187.765C253.747 221.312 222.725 248.14 186.163 259.609C160.988 267.506 133.716 269.31 107.639 265.77C69.7632 260.632 37.0439 231.057 18.698 198.311C5.47558 174.712 -3.46002 144.641 2.60384 117.505C11.7827 76.4467 41.3188 58.5873 74.9341 49.8505C92.123 45.3827 109.689 47.8302 126.299 40.8022C142.099 34.1183 155.488 23.7142 170.467 15.4639C193.844 2.58852 222.294 -3.79871 248.093 3.70399C248.962 3.95616 249.816 4.22316 250.659 4.50796Z" fill="#A690BF"/>
  <path d="M220.621 203.577C229.049 203.705 237.543 204.025 245.965 203.574C246.677 203.536 247.152 202.72 246.158 202.77C237.858 203.212 229.48 202.88 221.176 202.756C220.63 202.75 219.657 203.565 220.621 203.577Z" fill="#0E2638"/>
  <path d="M77.5567 239.854C76.5896 227.637 78.0284 215.379 77.0583 203.159C76.7883 203.358 76.5154 203.554 76.2454 203.752C93.1495 202.106 110.276 202.254 127.242 202.266C133.259 202.272 139.278 202.308 145.295 202.361C145.84 202.367 146.814 201.548 145.849 201.539C126.513 201.364 107.131 201.21 87.8125 202.156C84.0181 202.343 80.2208 202.577 76.4383 202.948C76.1535 202.975 75.5957 203.168 75.6254 203.542C76.5925 215.758 75.1537 228.017 76.1238 240.236C76.1624 240.711 77.6012 240.405 77.5567 239.854Z" fill="#0E2638"/>
  <path d="M120.099 196.926C116.684 194.398 114.145 190.728 112.679 186.765C110.074 179.722 110.718 170.873 110.694 163.456C110.653 148.964 111.961 134.386 114.776 120.166C117.316 107.416 122.772 96.2461 126.483 83.9908C128.408 77.6362 134.686 56.9111 138.204 60.1714C139.489 61.364 140.112 63.5683 140.8 65.1258C142.34 68.6175 143.348 73.5036 145.781 76.4762C147.929 79.0988 153.429 77.7816 156.458 77.8142C167.539 77.9358 178.604 78.1435 189.688 78.1435C195.965 78.1465 204.091 62.2956 206.889 60.5067C207.461 60.1388 208.09 59.7769 208.769 59.7917C209.567 59.8095 210.273 60.3643 210.692 61.0436C211.11 61.723 211.294 62.5151 211.469 63.2924C213.225 71.0769 215.082 79.0157 217.93 86.4798C228.717 114.761 234.562 148.655 231.355 178.918C231.168 180.669 230.794 182.425 230.284 184.107C229.1 188.011 227.311 190.043 224 192.286C217.622 196.611 209.662 198.382 202.228 199.925C195.823 201.254 189.266 201.678 182.743 201.957C172 202.417 161.237 202.402 150.495 201.919C145.039 201.673 139.59 201.308 134.149 200.818C129.601 200.409 124.991 200.139 121.042 197.579C120.725 197.374 120.407 197.154 120.099 196.926Z" fill="white"/>
  <path d="M195.82 154.63C187.451 163.729 188.647 176.115 188.626 187.563C188.626 188.302 190.074 188.079 190.076 187.447C190.094 176.245 188.816 163.951 197.016 155.037C197.621 154.378 196.247 154.164 195.82 154.63Z" fill="#0E2638"/>
  <path d="M175.386 100.714C175.549 101.755 175.804 102.574 175.127 103.488C174.549 104.271 173.878 104.977 172.947 105.315C172.683 105.41 172.41 105.728 172.594 106.001C172.793 106.297 173.3 106.173 173.558 106.078C174.757 105.642 175.655 104.746 176.4 103.734C177.249 102.58 177.023 101.675 176.812 100.331C176.723 99.7261 175.288 100.079 175.386 100.714Z" fill="#0E2638"/>
  <path d="M176.483 101.702L179.352 99.554C179.672 99.3137 179.468 98.8004 179.067 98.8509L172.807 99.637C172.407 99.6875 172.336 100.239 172.71 100.391L176.1 101.752C176.231 101.806 176.373 101.785 176.483 101.702Z" fill="#0E2638"/>
  <path d="M180.215 104.728C178.868 103.93 177.599 102.788 177.133 101.248C176.961 100.681 175.531 101.073 175.7 101.631C176.213 103.328 177.605 104.594 179.091 105.476C179.551 105.748 180.85 105.102 180.215 104.728Z" fill="#0E2638"/>
  <path d="M152.103 95.4718C154.008 98.5423 158.597 97.6879 159.763 94.4543C159.959 93.9055 158.514 94.0745 158.321 94.6056C157.449 97.0323 154.675 96.8988 153.426 94.8815C153.139 94.4246 151.753 94.9111 152.103 95.4718Z" fill="#0E2638"/>
  <path d="M191.432 91.0427C193.286 94.0301 197.879 93.4101 199.051 90.1556C199.324 89.4021 197.891 89.4525 197.689 90.0192C196.823 92.4251 194.076 92.5586 192.749 90.4256C192.429 89.9094 191.056 90.4315 191.432 91.0427Z" fill="#0E2638"/>
  <path d="M210.017 111.672C212.83 107.137 211.433 101.181 206.898 98.3691C202.363 95.5568 196.407 96.9532 193.595 101.488C190.783 106.023 192.179 111.979 196.714 114.791C201.249 117.604 207.205 116.207 210.017 111.672Z" fill="#FFCAC1"/>
  <path d="M160.741 113.502C160.778 108.165 156.481 103.809 151.145 103.773C145.808 103.736 141.453 108.033 141.416 113.369C141.38 118.705 145.676 123.061 151.012 123.098C156.349 123.134 160.704 118.838 160.741 113.502Z" fill="#FFCAC1"/>
  <path d="M226.026 180.6C222.291 184.751 214.821 186.044 209.633 187.281C203.076 188.845 196.369 189.767 189.64 190.117C179.328 190.657 168.565 188.483 158.472 191.266C153.515 192.633 147.027 198.475 149.116 204.26C151.198 210.027 160.653 212.824 166.029 213.554C179.23 215.349 193.254 211.709 205.746 207.76C223.244 202.227 231.414 194.176 231.927 173.81L226.026 180.6Z" fill="white"/>
  <path d="M111.887 139.708C111.451 151.441 109.908 162.246 96.7659 164.797C95.603 165.022 94.3807 165.138 93.3542 165.666C90.1651 167.304 91.948 171.086 93.9802 172.777C96.5226 174.889 100.142 175.486 103.471 175.041C107.217 174.542 111.27 172.92 114.581 171.187C125.7 165.361 135.727 160.071 148.611 158.419L111.887 139.708Z" fill="white"/>
  <path d="M110.006 175.444C110.383 183.709 112.534 192.138 119.535 197.285C122.866 199.735 126.809 200.551 130.847 200.972C135.653 201.474 140.483 201.812 145.303 202.097C145.876 202.129 146.816 201.305 145.852 201.248C141.45 200.987 137.05 200.646 132.656 200.246C128.272 199.845 123.958 199.133 120.389 196.359C113.765 191.215 111.801 183.048 111.439 175.065C111.415 174.572 109.979 174.869 110.006 175.444Z" fill="#0E2638"/>
  <path d="M225.448 180.467C221.885 184.279 216.257 185.356 211.38 186.474C204.794 187.981 198.211 189.147 191.462 189.598C184.707 190.049 177.972 189.367 171.217 189.391C165.859 189.408 159.71 189.613 154.948 192.357C151.326 194.443 147.534 198.391 148.042 202.91C148.525 207.232 152.854 209.92 156.485 211.466C166.744 215.827 178.601 214.812 189.246 212.62C195.434 211.344 201.569 209.605 207.556 207.582C211.475 206.256 215.341 204.669 218.853 202.465C225.291 198.424 229.512 192.369 231.298 184.997C232.319 180.787 232.592 176.474 232.675 172.157C232.779 166.61 233.034 161.095 232.847 155.544C232.417 142.666 230.678 129.835 227.895 117.259C226.516 111.032 224.875 104.864 222.971 98.7767C221.072 92.701 218.642 86.8151 216.726 80.7513C215.711 77.5384 214.839 74.281 214.032 71.0117C213.652 69.469 213.288 67.9234 212.932 66.3748C212.564 64.7758 212.359 63.0165 211.727 61.5006C210.858 59.415 208.885 58.9136 206.963 59.9727C205.939 60.5364 205.221 61.3849 204.506 62.2956C202.195 65.2386 200.196 68.4159 197.867 71.3469C195.677 74.1 192.918 77.7312 189.088 77.7282C182.093 77.7223 175.098 77.6363 168.102 77.5443C164.605 77.4968 161.107 77.4494 157.609 77.4108C155.23 77.3841 152.86 77.7846 150.483 77.6926C149.418 77.6511 148.27 77.5206 147.339 76.9599C146.078 76.2034 145.321 74.634 144.719 73.3554C143.559 70.8871 142.862 68.2379 141.844 65.7132C141.028 63.687 139.691 58.1275 136.46 59.7087C134.229 60.8004 133.016 64.0222 132.075 66.1226C130.482 69.6797 129.189 73.3732 127.972 77.0726C126.759 80.7661 125.697 84.5071 124.46 88.1917C122.425 94.2585 120.045 100.201 117.975 106.256C115.847 112.477 114.323 118.772 113.088 125.228C112.448 128.577 111.866 131.941 111.504 135.332C111.211 138.106 111.172 140.892 110.973 143.674C110.671 147.943 110.104 152.414 108.137 156.277C106.04 160.4 102.4 163.032 97.9436 164.15C95.8313 164.681 93.0189 164.646 91.5534 166.547C90.432 168.001 90.9334 169.908 91.8263 171.338C94.4904 175.613 100.391 176.103 104.865 175.222C110.78 174.056 115.96 170.893 121.268 168.2C126.694 165.447 132.244 162.883 138.077 161.109C141.147 160.175 144.283 159.46 147.457 158.994C150.958 158.484 154.666 158.119 158.039 159.424C163.474 161.528 167.906 165.512 170.781 170.543C173.869 175.952 175.836 181.915 178.041 187.711C178.239 188.234 179.66 187.815 179.474 187.329C177.317 181.651 175.371 175.842 172.413 170.514C169.859 165.909 166.23 162.24 161.54 159.804C159.057 158.514 156.517 157.748 153.705 157.689C150.715 157.626 147.698 158.089 144.769 158.65C139.272 159.703 133.953 161.486 128.821 163.711C123.398 166.064 118.277 168.986 112.964 171.558C107.787 174.068 100.798 176.542 95.4575 173.095C93.7843 172.015 91.8827 169.757 92.4048 167.594C92.8231 165.859 94.6832 165.592 96.1725 165.322C97.377 165.103 98.5666 164.836 99.7295 164.453C103.384 163.248 106.588 161.02 108.671 157.748C110.798 154.399 111.67 150.406 112.13 146.513C112.762 141.138 112.732 135.75 113.581 130.387C114.575 124.103 115.794 117.793 117.61 111.691C119.384 105.728 121.629 99.9248 123.763 94.0835C126.631 86.2129 128.764 78.0991 131.743 70.27C132.9 67.2322 134.089 63.8353 136.139 61.2603C136.863 60.3525 137.154 59.946 137.967 60.931C139.539 62.8415 140.364 65.8497 141.177 68.1667C142.533 72.0204 143.734 77.66 148.463 78.4135C150.537 78.7428 152.658 78.464 154.737 78.3186C157.728 78.1109 160.775 78.3127 163.771 78.3512C170.571 78.4402 177.37 78.5381 184.173 78.5737C186.377 78.5856 188.91 78.9683 191.061 78.3453C192.473 77.9359 193.719 77.0696 194.829 76.1322C197.683 73.7203 199.929 70.5786 202.094 67.5615C203.127 66.1226 204.129 64.663 205.186 63.239C205.815 62.3935 206.467 61.3611 207.348 60.7559C210.686 58.4627 211.514 66.8228 211.953 68.6799C212.703 71.8691 213.501 75.0464 214.412 78.194C216.124 84.1273 218.485 89.8293 220.425 95.6884C228.198 119.17 232.405 144.241 231.381 169.007C231.049 177.04 231.067 185.326 227.083 192.577C223.297 199.465 216.524 203.461 209.357 206.129C203.904 208.158 198.22 209.748 192.562 211.095C186.095 212.631 179.459 213.694 172.793 213.61C167.812 213.551 162.816 212.857 158.17 210.988C154.393 209.469 149.676 206.746 149.454 202.156C149.205 196.991 154.577 192.695 159.119 191.518C165.584 189.839 172.351 190.215 178.957 190.476C185.315 190.729 191.583 190.604 197.902 189.815C203.598 189.103 209.226 187.898 214.789 186.492C219.007 185.427 223.561 184.018 226.62 180.746C227.183 180.114 225.792 180.099 225.448 180.467Z" fill="#0E2638"/>
  <path d="M214.465 96.8365C223.615 92.0869 232.627 87.0791 241.489 81.8133C242.319 81.3208 241.071 81.0835 240.593 81.3683C231.728 86.6312 222.719 91.6419 213.57 96.3915C212.718 96.8336 213.982 97.0887 214.465 96.8365Z" fill="#0E2638"/>
  <path d="M216.587 101.918C228.174 97.4358 240.047 93.7334 252.133 90.8498C253.026 90.6362 252.759 89.6542 251.869 89.8649C239.655 92.7781 227.664 96.5399 215.952 101.07C215.038 101.423 215.845 102.203 216.587 101.918Z" fill="#0E2638"/>
  <path d="M215.148 106.309C225.353 105.879 235.567 105.778 245.782 106.007C246.319 106.018 247.306 105.226 246.342 105.206C236.131 104.977 225.914 105.078 215.709 105.508C215.186 105.529 214.19 106.351 215.148 106.309Z" fill="#0E2638"/>
  <path d="M137.905 100.77C127.946 97.8868 117.983 95.0061 108.024 92.1225C107.553 91.9861 106.342 92.6832 107.152 92.9176C117.111 95.8012 127.073 98.6818 137.032 101.565C137.504 101.702 138.714 101.005 137.905 100.77Z" fill="#0E2638"/>
  <path d="M134.084 105.742C123.297 103.337 112.08 104.422 101.305 101.933C100.881 101.835 99.6257 102.488 100.418 102.672C111.193 105.164 122.41 104.075 133.197 106.481C133.621 106.576 134.873 105.92 134.084 105.742Z" fill="#0E2638"/>
  <path d="M133.128 110.593C123.997 111.412 114.889 112.48 105.814 113.797C105.174 113.889 104.586 114.619 105.589 114.473C114.664 113.156 123.772 112.088 132.903 111.269C133.556 111.213 134.131 110.504 133.128 110.593Z" fill="#0E2638"/>
  <path d="M38.4976 156.621C38.5213 156.716 57.6177 203.034 57.6177 203.034C58.1844 205.325 66.3783 205.265 75.9221 202.907C85.4658 200.545 92.7431 196.778 92.1764 194.487C92.1764 194.487 87.4802 144.609 87.4565 144.514L38.4976 156.621Z" fill="white"/>
  <g opacity="0.8">
    <path opacity="0.8" d="M90.9541 181.529C87.7056 181.754 84.4601 181.998 81.2027 182.134C70.7214 182.573 60.2936 183.798 49.8035 184.083C53.936 194.108 57.6147 203.034 57.6147 203.034C58.1813 205.325 66.3753 205.265 75.919 202.907C85.4628 200.545 92.74 196.778 92.1734 194.487C92.1764 194.484 91.6513 188.931 90.9541 181.529Z" fill="#ABDFF5"/>
  </g>
  <path d="M37.7796 156.814C38.5954 159.11 39.6397 161.347 40.5683 163.598C42.6212 168.582 44.6741 173.566 46.7271 178.55C50.0824 186.691 53.411 194.843 56.793 202.972C57.3359 204.274 58.3979 204.71 59.7626 204.968C63.8625 205.749 68.3719 204.966 72.4065 204.182C77.4172 203.212 82.4546 201.788 87.0826 199.602C88.8478 198.768 92.6392 197.169 92.9181 194.834C92.9952 194.197 92.8053 193.407 92.746 192.775C92.5917 191.144 92.4375 189.512 92.2862 187.883C91.7907 182.635 91.2983 177.384 90.8028 172.136C90.2688 166.458 89.7319 160.783 89.1949 155.105C88.8715 151.69 88.6698 148.237 88.2218 144.834C88.1981 144.662 88.1951 144.487 88.1714 144.318C88.121 143.968 87.5603 143.977 87.3259 144.033C73.0088 147.575 58.6887 151.118 44.3715 154.657C42.369 155.152 40.3695 155.648 38.367 156.143C37.48 156.363 37.7351 157.315 38.6221 157.098C52.9393 153.556 67.2594 150.014 81.5765 146.475C83.579 145.979 85.5785 145.484 87.581 144.988C87.2992 144.893 87.0174 144.799 86.7355 144.704C87.0589 146.94 87.1687 149.228 87.3823 151.474C87.8658 156.576 88.3464 161.679 88.827 166.785C89.6755 175.774 90.521 184.765 91.3695 193.754C91.4555 194.662 91.5534 195.232 90.8592 195.988C89.7882 197.154 88.2248 197.929 86.8216 198.611C84.6322 199.676 82.336 200.521 80.0131 201.248C75.0736 202.794 69.8908 203.933 64.7051 204.167C62.9696 204.245 59.279 204.633 58.2971 202.764C57.0807 200.444 56.256 197.813 55.2592 195.395C53.2478 190.518 51.2394 185.641 49.228 180.763C45.9468 172.804 42.7072 164.824 39.3905 156.879C39.3282 156.73 39.26 156.579 39.2066 156.428C38.987 155.793 37.5601 156.194 37.7796 156.814Z" fill="#0E2638"/>
  <path d="M63.6161 153.169C77.1348 149.825 87.8047 145.945 87.4479 144.503C87.0911 143.06 75.8427 144.601 62.324 147.945C48.8053 151.289 38.1354 155.169 38.4922 156.612C38.849 158.054 50.0974 156.513 63.6161 153.169Z" fill="white"/>
  <path d="M86.7385 144.704C86.872 145.662 82.9323 146.923 82.3182 147.166C78.8027 148.557 75.1744 149.673 71.5403 150.717C63.0764 153.147 54.4048 155.268 45.662 156.404C44.2766 156.585 42.8823 156.745 41.485 156.778C41.0637 156.787 39.6694 156.962 39.349 156.573C38.7645 155.867 42.1495 154.58 42.5915 154.393C50.2515 151.159 58.5314 149.13 66.6156 147.285C71.1338 146.255 75.6906 145.327 80.289 144.73C81.7515 144.54 83.2289 144.368 84.7063 144.354C85.0653 144.348 86.5575 144.205 86.7385 144.704C86.9076 145.166 88.3257 144.745 88.1714 144.321C87.7086 143.054 84.2554 143.624 83.3595 143.692C79.2684 144.012 75.2071 144.787 71.1902 145.606C61.5663 147.566 51.7437 149.916 42.6212 153.624C41.4583 154.096 40.2716 154.595 39.1977 155.247C38.7764 155.502 37.8894 155.968 37.7944 156.529C37.566 157.888 40.8946 157.546 41.5591 157.511C45.4247 157.315 49.2784 156.606 53.0698 155.867C58.4751 154.814 63.8418 153.541 69.1551 152.088C73.881 150.797 78.6247 149.406 83.1755 147.572C84.113 147.196 88.385 145.87 88.1714 144.321C88.1121 143.885 86.6703 144.205 86.7385 144.704Z" fill="#0E2638"/>
  <path d="M49.9814 208.092C50.5747 211.899 53.9775 214.308 57.757 213.91C58.5758 213.824 58.8428 212.703 57.8698 212.803C54.5797 213.151 51.9157 210.92 51.4143 207.707C51.3045 207.01 49.8687 207.375 49.9814 208.092Z" fill="#0E2638"/>
  <path d="M45.039 210.908C45.9913 213.622 47.7001 215.99 50.1001 217.601C52.8977 219.478 55.9148 219.799 59.1959 219.401C59.8872 219.318 60.3885 218.491 59.3917 218.612C56.1729 219.001 53.2656 218.499 50.6668 216.488C48.6939 214.96 47.2907 212.866 46.4689 210.522C46.2998 210.027 44.8758 210.439 45.039 210.908Z" fill="#0E2638"/>
  <path d="M68.6448 180.333C68.6388 180.79 68.8406 181.253 69.244 181.449C69.6505 181.648 70.1815 181.562 70.5049 181.241C70.6532 181.096 70.7541 180.912 70.8431 180.725C70.9914 180.413 71.1041 180.04 70.935 179.74C70.8371 179.568 70.6621 179.449 70.4841 179.363C70.1133 179.185 69.6712 179.111 69.2915 179.265C68.8643 179.434 68.6507 179.879 68.6448 180.333Z" fill="#0E2638"/>
  <path d="M60.0593 179.84C59.7537 180.176 59.5905 180.659 59.7418 181.083C59.8931 181.514 60.3203 181.816 60.7535 181.801C60.9522 181.795 61.1451 181.727 61.329 181.65C61.6346 181.523 61.9609 181.321 62.041 180.983C62.0885 180.787 62.044 180.579 61.9757 180.389C61.8363 180.001 61.5782 179.642 61.2133 179.49C60.8009 179.324 60.3619 179.508 60.0593 179.84Z" fill="#0E2638"/>
  <path d="M67.3098 187.679C68.0218 186.783 69.1372 186.528 70.1785 186.979C70.8223 187.258 71.8369 186.329 70.9914 185.964C69.2915 185.228 67.2445 185.762 66.0964 187.207C65.5239 187.925 66.8737 188.225 67.3098 187.679Z" fill="#0E2638"/>
</svg>
