<svg width="20" height="21" viewBox="0 0 20 21" fill="none" xmlns="http://www.w3.org/2000/svg">
<path d="M2.35294 0.5C1.7289 0.5 1.13042 0.747898 0.68916 1.18916C0.247898 1.63042 0 2.2289 0 2.85294V16.9706C0 17.5946 0.247898 18.1931 0.68916 18.6344C1.13042 19.0756 1.7289 19.3235 2.35294 19.3235H9.36118C9.06153 18.9606 8.80236 18.5661 8.58824 18.1471H2.35294C2.04092 18.1471 1.74168 18.0231 1.52105 17.8025C1.30042 17.5819 1.17647 17.2826 1.17647 16.9706H8.12588C7.81124 15.8623 7.79821 14.6901 8.08813 13.5751C8.37806 12.4601 8.96043 11.4427 9.77508 10.628C10.5897 9.81337 11.6071 9.231 12.7221 8.94108C13.8372 8.65115 15.0094 8.66418 16.1176 8.97882V2.85294C16.1176 2.2289 15.8697 1.63042 15.4285 1.18916C14.9872 0.747898 14.3887 0.5 13.7647 0.5H2.35294ZM3.23529 3.44118H12.8824C13.1164 3.44118 13.3408 3.53414 13.5063 3.69961C13.6717 3.86508 13.7647 4.08951 13.7647 4.32353C13.7647 4.55754 13.6717 4.78197 13.5063 4.94745C13.3408 5.11292 13.1164 5.20588 12.8824 5.20588H3.23529C3.00128 5.20588 2.77685 5.11292 2.61138 4.94745C2.4459 4.78197 2.35294 4.55754 2.35294 4.32353C2.35294 4.08951 2.4459 3.86508 2.61138 3.69961C2.77685 3.53414 3.00128 3.44118 3.23529 3.44118Z" fill="white"/>
<path d="M19.6471 15.2059C19.6471 16.61 19.0893 17.9565 18.0964 18.9494C17.1036 19.9422 15.757 20.5 14.3529 20.5C12.9489 20.5 11.6023 19.9422 10.6094 18.9494C9.6166 17.9565 9.05882 16.61 9.05882 15.2059C9.05882 13.8018 9.6166 12.4552 10.6094 11.4624C11.6023 10.4695 12.9489 9.91177 14.3529 9.91177C15.757 9.91177 17.1036 10.4695 18.0964 11.4624C19.0893 12.4552 19.6471 13.8018 19.6471 15.2059ZM13.7882 12.8929C13.7119 12.8406 13.6233 12.809 13.5311 12.8013C13.4388 12.7937 13.3462 12.8103 13.2624 12.8494C13.1939 12.8795 13.132 12.9227 13.08 12.9765C12.9704 13.0888 12.9092 13.2396 12.9094 13.3965V17.0141C12.9087 17.0921 12.9234 17.1695 12.9527 17.2417C12.9819 17.314 13.0252 17.3798 13.08 17.4353C13.1337 17.4887 13.1962 17.5325 13.2647 17.5647C13.3841 17.6194 13.5195 17.6278 13.6447 17.5882C13.6989 17.5704 13.7504 17.545 13.7976 17.5129L16.4988 15.6694C16.581 15.6153 16.6472 15.5401 16.6906 15.4518C16.7353 15.3628 16.7583 15.2645 16.7577 15.1649C16.757 15.0653 16.7328 14.9673 16.6871 14.8788C16.6411 14.7918 16.5734 14.718 16.4906 14.6647L13.7882 12.8929Z" fill="white"/>
</svg>
