<svg width="21" height="21" viewBox="0 0 21 21" fill="none" xmlns="http://www.w3.org/2000/svg">
<path d="M20.3991 9.34578L18.1636 8.67912C18.009 8.14 17.7965 7.61919 17.5296 7.12579L18.6241 5.07914C18.6651 5.00188 18.6802 4.91346 18.6669 4.82699C18.6537 4.74052 18.6129 4.66062 18.5506 4.59914L16.9558 2.99915C16.8942 2.93693 16.8142 2.89619 16.7277 2.88298C16.6411 2.86977 16.5526 2.88479 16.4753 2.92581L14.44 4.01248C13.9412 3.73292 13.4131 3.50934 12.8651 3.34581L12.1978 1.13916C12.1695 1.05783 12.1162 0.987557 12.0455 0.938439C11.9747 0.889321 11.8902 0.863897 11.8041 0.865825H9.54852C9.46186 0.866228 9.37759 0.894248 9.30798 0.945806C9.23837 0.997365 9.18704 1.06977 9.16147 1.15249L8.49415 3.35248C7.94162 3.51513 7.40894 3.73873 6.90593 4.01914L4.90398 2.93915C4.82665 2.89812 4.73814 2.8831 4.65159 2.89631C4.56503 2.90952 4.48505 2.95026 4.42351 3.01248L2.80192 4.59247C2.73964 4.65395 2.69886 4.73386 2.68564 4.82033C2.67242 4.90679 2.68745 4.99522 2.72852 5.07247L3.80958 7.07246C3.52934 7.57285 3.30553 8.10276 3.14226 8.65245L0.933431 9.31912C0.850633 9.34466 0.778154 9.39594 0.726545 9.46548C0.674935 9.53503 0.646888 9.61921 0.646484 9.70578V11.9591C0.646888 12.0457 0.674935 12.1299 0.726545 12.1994C0.778154 12.2689 0.850633 12.3202 0.933431 12.3458L3.1556 13.0124C3.32066 13.553 3.54443 14.0738 3.82292 14.5658L2.72852 16.6591C2.68745 16.7363 2.67242 16.8248 2.68564 16.9112C2.69886 16.9977 2.73964 17.0776 2.80192 17.1391L4.39682 18.7324C4.45836 18.7946 4.53834 18.8354 4.62489 18.8486C4.71145 18.8618 4.79996 18.8468 4.87729 18.8057L6.9393 17.7057C7.42709 17.9687 7.94162 18.1788 8.47413 18.3324L9.14145 20.5791C9.16702 20.6618 9.21835 20.7342 9.28796 20.7857C9.35757 20.8373 9.44184 20.8653 9.5285 20.8657H11.784C11.8707 20.8653 11.955 20.8373 12.0246 20.7857C12.0942 20.7342 12.1455 20.6618 12.1711 20.5791L12.8384 18.3257C13.3664 18.1713 13.8764 17.9612 14.3599 17.6991L16.4352 18.8057C16.5126 18.8468 16.6011 18.8618 16.6876 18.8486C16.7742 18.8354 16.8542 18.7946 16.9157 18.7324L18.5106 17.1391C18.5729 17.0776 18.6137 16.9977 18.6269 16.9112C18.6401 16.8248 18.6251 16.7363 18.584 16.6591L17.4763 14.5924C17.7414 14.1076 17.954 13.5958 18.1102 13.0658L20.3591 12.3991C20.4419 12.3736 20.5144 12.3223 20.566 12.2527C20.6176 12.1832 20.6456 12.099 20.646 12.0124V9.73911C20.65 9.65621 20.6284 9.5741 20.5843 9.50379C20.5401 9.43348 20.4755 9.37834 20.3991 9.34578V9.34578ZM10.6763 14.5324C9.95038 14.5324 9.24077 14.3174 8.6372 13.9145C8.03363 13.5116 7.56321 12.9389 7.28541 12.2689C7.00762 11.5989 6.93494 10.8617 7.07656 10.1504C7.21817 9.43919 7.56773 8.78585 8.08102 8.27306C8.59432 7.76027 9.2483 7.41106 9.96025 7.26958C10.6722 7.1281 11.4102 7.20071 12.0808 7.47823C12.7515 7.75575 13.3247 8.22572 13.728 8.82869C14.1313 9.43167 14.3465 10.1406 14.3465 10.8658C14.3465 11.8382 13.9599 12.7709 13.2715 13.4585C12.5832 14.1461 11.6497 14.5324 10.6763 14.5324V14.5324Z" fill="white"/>
</svg>
