<svg width="12" height="15" viewBox="0 0 12 15" fill="none" xmlns="http://www.w3.org/2000/svg">
<path fill-rule="evenodd" clip-rule="evenodd" d="M10.5 15H1.5C1.10218 15 0.720644 14.842 0.43934 14.5607C0.158035 14.2794 0 13.8978 0 13.5V1.5C0 1.10218 0.158035 0.720644 0.43934 0.43934C0.720644 0.158035 1.10218 0 1.5 0H10.5C10.8978 0 11.2794 0.158035 11.5607 0.43934C11.842 0.720644 12 1.10218 12 1.5V13.5C12 13.8978 11.842 14.2794 11.5607 14.5607C11.2794 14.842 10.8978 15 10.5 15ZM5.25 3.375C5.25 3.27554 5.28951 3.18016 5.35983 3.10984C5.43016 3.03951 5.52554 3 5.625 3H10.125C10.2245 3 10.3198 3.03951 10.3902 3.10984C10.4605 3.18016 10.5 3.27554 10.5 3.375C10.5 3.47446 10.4605 3.56984 10.3902 3.64016C10.3198 3.71049 10.2245 3.75 10.125 3.75H5.625C5.52554 3.75 5.43016 3.71049 5.35983 3.64016C5.28951 3.56984 5.25 3.47446 5.25 3.375ZM5.625 4.5C5.52554 4.5 5.43016 4.53951 5.35983 4.60983C5.28951 4.68016 5.25 4.77554 5.25 4.875C5.25 4.97446 5.28951 5.06984 5.35983 5.14017C5.43016 5.21049 5.52554 5.25 5.625 5.25H10.125C10.2245 5.25 10.3198 5.21049 10.3902 5.14017C10.4605 5.06984 10.5 4.97446 10.5 4.875C10.5 4.77554 10.4605 4.68016 10.3902 4.60983C10.3198 4.53951 10.2245 4.5 10.125 4.5H5.625ZM4.39012 3.10988C4.46043 3.1802 4.49992 3.27556 4.49992 3.375C4.49992 3.47444 4.46043 3.5698 4.39012 3.64012L2.625 5.40525L1.60988 4.39012C1.57406 4.35553 1.54549 4.31415 1.52584 4.2684C1.50618 4.22265 1.49584 4.17344 1.49541 4.12365C1.49497 4.07386 1.50446 4.02448 1.52332 3.97839C1.54217 3.93231 1.57002 3.89044 1.60523 3.85523C1.64044 3.82002 1.68231 3.79217 1.72839 3.77332C1.77448 3.75446 1.82386 3.74497 1.87365 3.74541C1.92344 3.74584 1.97265 3.75618 2.0184 3.77584C2.06415 3.79549 2.10553 3.82406 2.14012 3.85988L2.625 4.34475L3.85988 3.10988C3.9302 3.03957 4.02556 3.00008 4.125 3.00008C4.22444 3.00008 4.3198 3.03957 4.39012 3.10988ZM5.625 7.5C5.52554 7.5 5.43016 7.53951 5.35983 7.60983C5.28951 7.68016 5.25 7.77554 5.25 7.875C5.25 7.97446 5.28951 8.06984 5.35983 8.14017C5.43016 8.21049 5.52554 8.25 5.625 8.25H10.125C10.2245 8.25 10.3198 8.21049 10.3902 8.14017C10.4605 8.06984 10.5 7.97446 10.5 7.875C10.5 7.77554 10.4605 7.68016 10.3902 7.60983C10.3198 7.53951 10.2245 7.5 10.125 7.5H5.625ZM5.25 9.375C5.25 9.27554 5.28951 9.18016 5.35983 9.10983C5.43016 9.03951 5.52554 9 5.625 9H10.125C10.2245 9 10.3198 9.03951 10.3902 9.10983C10.4605 9.18016 10.5 9.27554 10.5 9.375C10.5 9.47446 10.4605 9.56984 10.3902 9.64017C10.3198 9.71049 10.2245 9.75 10.125 9.75H5.625C5.52554 9.75 5.43016 9.71049 5.35983 9.64017C5.28951 9.56984 5.25 9.47446 5.25 9.375ZM3.75 7.5H1.875C1.77554 7.5 1.68016 7.53951 1.60984 7.60983C1.53951 7.68016 1.5 7.77554 1.5 7.875V9.75C1.5 9.84946 1.53951 9.94484 1.60984 10.0152C1.68016 10.0855 1.77554 10.125 1.875 10.125H3.75C3.84946 10.125 3.94484 10.0855 4.01516 10.0152C4.08549 9.94484 4.125 9.84946 4.125 9.75V7.875C4.125 7.77554 4.08549 7.68016 4.01516 7.60983C3.94484 7.53951 3.84946 7.5 3.75 7.5Z" fill="black"/>
</svg>
