<svg width="20" height="20" viewBox="0 0 20 20" fill="none" xmlns="http://www.w3.org/2000/svg">
<path d="M17.7778 0H2.22222C1 0 0 1 0 2.22222V17.7778C0 19 1 20 2.22222 20H17.7778C19 20 20 19 20 17.7778V2.22222C20 1 19 0 17.7778 0ZM10.0111 16.6667C9.23333 16.6667 8.61111 16.0444 8.61111 15.2667C8.61111 14.4778 9.23333 13.8778 10.0111 13.8778C10.8 13.8778 11.4 14.4778 11.4 15.2667C11.3889 16.0333 10.8 16.6667 10.0111 16.6667ZM13.3556 8.44445C12.5111 9.67778 11.7111 10.0667 11.2778 10.8556C11.1667 11.0556 11.1 11.2111 11.0667 11.5556C11.0111 12.0556 10.5667 12.4222 10.0667 12.4222H10C9.42222 12.4222 8.96667 11.9333 9.02222 11.3556C9.05556 10.9778 9.14445 10.5889 9.35556 10.2111C9.9 9.24444 10.9333 8.66667 11.5333 7.81111C12.1667 6.91111 11.8111 5.22222 10.0111 5.22222C9.22222 5.22222 8.7 5.62222 8.37778 6.1C8.1 6.5 7.61111 6.68889 7.15556 6.5C7.01904 6.44687 6.89634 6.36348 6.7967 6.25609C6.69706 6.14871 6.62307 6.02013 6.58029 5.88002C6.53751 5.73992 6.52705 5.59193 6.54971 5.44721C6.57237 5.30248 6.62756 5.16477 6.71111 5.04444C7.38889 4.05556 8.52222 3.33333 9.98889 3.33333C11.6333 3.33333 12.7556 4.07778 13.3333 5.02222C13.8222 5.82222 14.1111 7.32222 13.3556 8.44445Z" fill="white"/>
</svg>
