<svg xmlns="http://www.w3.org/2000/svg" version="1.1" xmlns:xlink="http://www.w3.org/1999/xlink" xmlns:svgjs="http://svgjs.dev/svgjs" viewBox="0 0 1920 1080" id="9ddcd139-c63f-4197-83be-e9a9fbf76e41"><g><rect width="1920" height="1080" fill="#521945"/></g><g fill="#912f56"><path d="M865 270L865 2467C258.907 2467 -232 1976.03 -232 1369.87C-232 760.965 258.907 270 865 270Z"/></g><g fill="#ffffff" opacity="0.2"><path d="M1829.66 1149.02C1826.52 1125.1 1822.11 1101.18 1817.7 1077.89L1577.22 1318.37H1660.32L1829.66 1149.02Z"/><path d="M1798.82 998.567C1793.15 977.163 1786.23 955.759 1779.3 934.984L1395.92 1319H1479.02L1798.82 998.567Z"/><path d="M1752.86 863.214C1744.68 843.698 1736.5 824.183 1727.68 805.297L1214.61 1319H1297.71L1752.86 863.214Z"/><path d="M1694.32 739.83C1684.88 722.203 1674.17 704.576 1664.1 686.949L1147.89 1203.8C1152.92 1227.72 1156.7 1251.64 1158.59 1276.19L1694.32 739.83Z"/><path d="M1625.07 627.77C1613.73 611.402 1601.77 595.664 1589.81 579.926L1098.78 1071.59C1108.22 1089.85 1117.03 1109.36 1124.59 1128.88L1625.07 627.77Z"/><path d="M1546.38 525.789C1533.79 510.68 1520.57 496.201 1506.72 482.352L1025.12 964.574C1038.35 979.053 1050.31 994.791 1061.64 1011.16L1546.38 525.789Z"/><path d="M1457.61 433.249C1443.13 420.029 1428.65 406.809 1413.54 394.219L928.802 879.589C945.17 890.92 960.908 902.881 975.387 916.101L1457.61 433.249Z"/><path d="M1358.78 350.148C1343.04 338.187 1326.67 326.855 1310.3 315.523L808.564 817.891C828.709 825.445 847.595 833.629 866.481 843.072L1358.78 350.148Z"/><path d="M1251.12 276.495C1233.5 265.793 1215.87 255.72 1198.24 246.277L659.364 785.787C684.545 787.046 709.097 790.194 733.019 795.23L1251.12 276.495Z"/><path d="M1132.14 214.166C1113.26 205.352 1093.74 197.168 1074.23 188.984L626.627 637.212V720.31L1132.14 214.166Z"/><path d="M1001.83 163.175C980.427 156.25 959.023 149.955 937.619 144.289L626 455.908V539.006L1001.83 163.175Z"/><path d="M857.666 126.035C834.373 121.628 810.451 117.851 786.529 114.074L626.627 274.605V357.703L857.666 126.035Z"/><path d="M626.626 176.396L697.134 105.889C673.841 104.629 650.548 104 626.626 104V176.396Z"/></g><g><path d="M178.635 139.281L184.422 144.246V166.626H215.704L219.958 172.147L215.69 177.397H184.422V198.795L178.635 203.747L173 198.795V144.232L178.635 139.281ZM195.554 195.68H219.406L223.397 200.915L219.143 206.45H195.554L191.7 201.342L195.554 195.68ZM196.382 138H219.129L223.383 143.52L219.129 148.77H196.659L192.115 143.677L196.382 138ZM323.155 148.628L328.251 154.291L323.155 159.968H246.13L241.172 154.291L246.13 148.628H323.155ZM237.043 172.147L241.849 167.893L246.669 172.147V178.393C246.669 188.879 249.417 197.515 261.668 197.515H264.14C275.147 197.515 281.197 189.86 281.197 177.952V172.005L285.879 167.75L290.699 171.862V178.379C290.699 189.007 293.723 196.946 305.56 196.946H307.618C319.178 196.946 321.235 187.869 321.373 177.952V171.578L326.056 167.608L331 171.72V178.094C330.862 191.838 327.285 207.574 308.032 207.574H305.974C294.552 207.574 288.365 202.324 285.892 195.808C283.006 202.466 275.299 208.286 264.844 208.286H262.358C242.553 208.286 237.194 195.964 237.056 178.663V172.147H237.043ZM276.391 274.744L273.642 267.089L280.796 264.969L305.974 276.721V252.491L311.07 248.095L316.291 252.491V281.829L325.641 286.226L328.251 293.311L320.959 296L276.391 274.744ZM321.235 223.011L328.113 226.27L325.917 233.497L264.002 263.119L256.571 260.146L259.596 252.776L321.235 223.011ZM231.905 263.404L237.954 268.512C237.402 286.51 222.403 296 204.669 296H202.874C194.062 296 183.759 292.6 177.157 286.083L177.834 278.855L184.298 278.002C189.118 282.256 195.858 285.229 202.183 285.229H204.117C216.091 285.229 225.303 280.136 226.27 268.085L231.905 263.404ZM226.256 251.638C225.704 239.16 216.629 234.209 204.103 234.209H202.169C194.739 234.209 189.104 237.182 184.284 241.436L177.834 240.583L177.143 233.355C183.745 226.696 192.957 223.58 202.597 223.58H204.517C222.403 223.58 237.402 232.942 237.94 251.211L231.891 256.176L226.256 251.638Z" fill="#ffffff"/></g><path d="M1171 781L1171 339L1187 339L1187 781L1171 781Z" fill="#ffffff"/><g fill="#ffffff" id="info-group"><path d="M167.6400 600L159.1800 600Q158.2800 600 157.6500 599.3700Q157.0200 598.7400 157.0200 597.8400L157.0200 597.8400L157.0200 539.1600Q157.0200 538.2600 157.6500 537.6300Q158.2800 537 159.1800 537L159.1800 537L167.6400 537Q168.6300 537 169.2150 537.6300Q169.8000 538.2600 169.8000 539.1600L169.8000 539.1600L169.8000 597.8400Q169.8000 598.7400 169.2150 599.3700Q168.6300 600 167.6400 600L167.6400 600ZM192.9300 600L185.0100 600Q184.1100 600 183.4800 599.3700Q182.8500 598.7400 182.8500 597.8400L182.8500 597.8400L182.8500 555.3600Q182.8500 554.4600 183.4800 553.8300Q184.1100 553.2000 185.0100 553.2000L185.0100 553.2000L192.3900 553.2000Q193.2900 553.2000 193.9200 553.8300Q194.5500 554.4600 194.5500 555.3600L194.5500 555.3600L194.5500 559.0500Q196.8900 556.1700 200.5350 554.2350Q204.1800 552.3000 209.5800 552.3000L209.5800 552.3000Q215.0700 552.3000 219.1200 554.7750Q223.1700 557.2500 225.3750 561.7500Q227.5800 566.2500 227.5800 572.5500L227.5800 572.5500L227.5800 597.8400Q227.5800 598.7400 226.9500 599.3700Q226.3200 600 225.4200 600L225.4200 600L217.5000 600Q216.6000 600 215.9700 599.3700Q215.3400 598.7400 215.3400 597.8400L215.3400 597.8400L215.3400 573.0900Q215.3400 567.8700 212.7750 564.9000Q210.2100 561.9300 205.3500 561.9300L205.3500 561.9300Q200.6700 561.9300 197.8800 564.9000Q195.0900 567.8700 195.0900 573.0900L195.0900 573.0900L195.0900 597.8400Q195.0900 598.7400 194.4600 599.3700Q193.8300 600 192.9300 600L192.9300 600ZM267.4500 600L260.1600 600Q254.7600 600 251.0700 598.1100Q247.3800 596.2200 245.5800 592.4850Q243.7800 588.7500 243.7800 583.1700L243.7800 583.1700L243.7800 562.7400L236.6700 562.7400Q235.7700 562.7400 235.1400 562.1100Q234.5100 561.4800 234.5100 560.4900L234.5100 560.4900L234.5100 555.3600Q234.5100 554.4600 235.1400 553.8300Q235.7700 553.2000 236.6700 553.2000L236.6700 553.2000L243.7800 553.2000L243.7800 538.2600Q243.7800 537.3600 244.3650 536.7300Q244.9500 536.1000 245.9400 536.1000L245.9400 536.1000L253.2300 536.1000Q254.1300 536.1000 254.7600 536.7300Q255.3900 537.3600 255.3900 538.2600L255.3900 538.2600L255.3900 553.2000L266.6400 553.2000Q267.5400 553.2000 268.1700 553.8300Q268.8000 554.4600 268.8000 555.3600L268.8000 555.3600L268.8000 560.4900Q268.8000 561.4800 268.1700 562.1100Q267.5400 562.7400 266.6400 562.7400L266.6400 562.7400L255.3900 562.7400L255.3900 582.2700Q255.3900 585.9600 256.6950 588.0300Q258 590.1000 261.2400 590.1000L261.2400 590.1000L267.4500 590.1000Q268.3500 590.1000 268.9800 590.7300Q269.6100 591.3600 269.6100 592.2600L269.6100 592.2600L269.6100 597.8400Q269.6100 598.7400 268.9800 599.3700Q268.3500 600 267.4500 600L267.4500 600ZM287.6100 600L279.7800 600Q278.8800 600 278.2500 599.3700Q277.6200 598.7400 277.6200 597.8400L277.6200 597.8400L277.6200 555.4500Q277.6200 554.4600 278.2500 553.8300Q278.8800 553.2000 279.7800 553.2000L279.7800 553.2000L287.0700 553.2000Q287.9700 553.2000 288.6450 553.8300Q289.3200 554.4600 289.3200 555.4500L289.3200 555.4500L289.3200 559.1400Q291.3900 556.2600 294.6750 554.7300Q297.9600 553.2000 302.2800 553.2000L302.2800 553.2000L305.9700 553.2000Q306.9600 553.2000 307.5450 553.8300Q308.1300 554.4600 308.1300 555.3600L308.1300 555.3600L308.1300 561.8400Q308.1300 562.7400 307.5450 563.3700Q306.9600 564 305.9700 564L305.9700 564L298.9500 564Q294.6300 564 292.2450 566.3850Q289.8600 568.7700 289.8600 573.0900L289.8600 573.0900L289.8600 597.8400Q289.8600 598.7400 289.2300 599.3700Q288.6000 600 287.6100 600L287.6100 600ZM335.8500 600.9000L335.8500 600.9000Q328.6500 600.9000 323.7450 598.3800Q318.8400 595.8600 316.2750 591.2700Q313.7100 586.6800 313.3500 580.5600L313.3500 580.5600Q313.2600 578.9400 313.2600 576.6000Q313.2600 574.2600 313.3500 572.6400L313.3500 572.6400Q313.7100 566.4300 316.3650 561.8850Q319.0200 557.3400 323.9250 554.8200Q328.8300 552.3000 335.8500 552.3000L335.8500 552.3000Q342.8700 552.3000 347.7750 554.8200Q352.6800 557.3400 355.3350 561.8850Q357.9900 566.4300 358.3500 572.6400L358.3500 572.6400Q358.4400 574.2600 358.4400 576.6000Q358.4400 578.9400 358.3500 580.5600L358.3500 580.5600Q357.9900 586.6800 355.4250 591.2700Q352.8600 595.8600 347.9550 598.3800Q343.0500 600.9000 335.8500 600.9000ZM335.8500 591.9900L335.8500 591.9900Q340.6200 591.9900 343.2300 588.9750Q345.8400 585.9600 346.1100 580.1100L346.1100 580.1100Q346.2000 578.7600 346.2000 576.6000Q346.2000 574.4400 346.1100 573.0900L346.1100 573.0900Q345.8400 567.2400 343.2300 564.2250Q340.6200 561.2100 335.8500 561.2100L335.8500 561.2100Q331.0800 561.2100 328.4700 564.2250Q325.8600 567.2400 325.5900 573.0900L325.5900 573.0900Q325.5000 574.4400 325.5000 576.6000Q325.5000 578.7600 325.5900 580.1100L325.5900 580.1100Q325.8600 585.9600 328.4700 588.9750Q331.0800 591.9900 335.8500 591.9900ZM385.8000 600.9000L385.8000 600.9000Q381.1200 600.9000 377.5650 599.3250Q374.0100 597.7500 371.6700 594.8700Q369.3300 591.9900 368.0700 588.0750Q366.8100 584.1600 366.6300 579.4800L366.6300 579.4800Q366.5400 577.8600 366.5400 576.5550Q366.5400 575.2500 366.6300 573.6300L366.6300 573.6300Q366.8100 569.1300 368.0250 565.2600Q369.2400 561.3900 371.6250 558.4650Q374.0100 555.5400 377.5650 553.9200Q381.1200 552.3000 385.8000 552.3000L385.8000 552.3000Q390.6600 552.3000 394.0350 553.9650Q397.4100 555.6300 399.6600 558.2400L399.6600 558.2400L399.6600 538.2600Q399.6600 537.3600 400.2450 536.7300Q400.8300 536.1000 401.8200 536.1000L401.8200 536.1000L409.4700 536.1000Q410.3700 536.1000 411 536.7300Q411.6300 537.3600 411.6300 538.2600L411.6300 538.2600L411.6300 597.8400Q411.6300 598.7400 411 599.3700Q410.3700 600 409.4700 600L409.4700 600L402.3600 600Q401.3700 600 400.7850 599.3700Q400.2000 598.7400 400.2000 597.8400L400.2000 597.8400L400.2000 594.5100Q397.9500 597.3000 394.4850 599.1000Q391.0200 600.9000 385.8000 600.9000ZM389.1300 591.2700L389.1300 591.2700Q392.9100 591.2700 395.1600 589.5600Q397.4100 587.8500 398.4900 585.1950Q399.5700 582.5400 399.6600 579.7500L399.6600 579.7500Q399.7500 578.1300 399.7500 576.2850Q399.7500 574.4400 399.6600 572.8200L399.6600 572.8200Q399.5700 570.1200 398.4000 567.6450Q397.2300 565.1700 394.9800 563.5500Q392.7300 561.9300 389.1300 561.9300L389.1300 561.9300Q385.3500 561.9300 383.1450 563.5950Q380.9400 565.2600 379.9500 567.9600Q378.9600 570.6600 378.7800 573.9000L378.7800 573.9000Q378.6900 576.6000 378.7800 579.3000L378.7800 579.3000Q378.9600 582.5400 379.9500 585.2400Q380.9400 587.9400 383.1450 589.6050Q385.3500 591.2700 389.1300 591.2700ZM440.9700 600.9000L440.9700 600.9000Q435.4800 600.9000 431.4750 598.4250Q427.4700 595.9500 425.3100 591.4050Q423.1500 586.8600 423.1500 580.6500L423.1500 580.6500L423.1500 555.3600Q423.1500 554.4600 423.7800 553.8300Q424.4100 553.2000 425.3100 553.2000L425.3100 553.2000L433.2300 553.2000Q434.2200 553.2000 434.8050 553.8300Q435.3900 554.4600 435.3900 555.3600L435.3900 555.3600L435.3900 580.1100Q435.3900 591.2700 445.2000 591.2700L445.2000 591.2700Q449.8800 591.2700 452.6250 588.3000Q455.3700 585.3300 455.3700 580.1100L455.3700 580.1100L455.3700 555.3600Q455.3700 554.4600 456 553.8300Q456.6300 553.2000 457.5300 553.2000L457.5300 553.2000L465.4500 553.2000Q466.3500 553.2000 466.9800 553.8300Q467.6100 554.4600 467.6100 555.3600L467.6100 555.3600L467.6100 597.8400Q467.6100 598.7400 466.9800 599.3700Q466.3500 600 465.4500 600L465.4500 600L458.1600 600Q457.1700 600 456.5850 599.3700Q456 598.7400 456 597.8400L456 597.8400L456 594.1500Q453.5700 597.3000 449.9700 599.1000Q446.3700 600.9000 440.9700 600.9000ZM499.6500 619.8000L499.6500 619.8000Q497.1300 619.7100 495.1950 618.9000Q493.2600 618.0900 492.4050 617.0100Q491.5500 615.9300 492.4500 615.2100L492.4500 615.2100L493.9800 613.8600Q494.7900 613.1400 495.3750 613.4550Q495.9600 613.7700 496.9050 614.3550Q497.8500 614.9400 499.6500 614.9400L499.6500 614.9400Q501 614.9400 501.9900 614.0850Q502.9800 613.2300 502.9800 611.8800L502.9800 611.8800Q502.9800 610.6200 502.0350 609.8100Q501.0900 609 499.6500 609L499.6500 609Q498.3900 609 497.4900 609.3150Q496.5900 609.6300 495.8700 609.7650Q495.1500 609.9000 494.4300 609.1800L494.4300 609.1800L492.8100 607.5600Q492.2700 606.9300 492.4500 606.2550Q492.6300 605.5800 492.9900 604.7700L492.9900 604.7700L494.8800 600.4500Q487.1400 599.2800 482.5500 594.0150Q477.9600 588.7500 477.6900 580.2000L477.6900 580.2000Q477.6000 578.8500 477.6000 576.6450Q477.6000 574.4400 477.6900 573L477.6900 573Q477.9600 566.4300 480.7050 561.7950Q483.4500 557.1600 488.3550 554.7300Q493.2600 552.3000 499.7400 552.3000L499.7400 552.3000Q505.5000 552.3000 509.5500 553.8750Q513.6000 555.4500 516.2100 557.9250Q518.8200 560.4000 520.1250 563.0550Q521.4300 565.7100 521.5200 567.8700L521.5200 567.8700Q521.6100 568.8600 520.9350 569.4450Q520.2600 570.0300 519.3600 570.0300L519.3600 570.0300L511.4400 570.0300Q510.5400 570.0300 510.0450 569.5800Q509.5500 569.1300 509.1000 568.2300L509.1000 568.2300Q507.7500 564.6300 505.5450 563.1450Q503.3400 561.6600 499.9200 561.6600L499.9200 561.6600Q495.4200 561.6600 492.7650 564.4950Q490.1100 567.3300 489.9300 573.4500L489.9300 573.4500Q489.7500 576.8700 489.9300 579.7500L489.9300 579.7500Q490.1100 585.9600 492.7650 588.7500Q495.4200 591.5400 499.9200 591.5400L499.9200 591.5400Q503.4300 591.5400 505.5900 590.0550Q507.7500 588.5700 509.1000 584.9700L509.1000 584.9700Q509.5500 584.0700 510.0450 583.6200Q510.5400 583.1700 511.4400 583.1700L511.4400 583.1700L519.3600 583.1700Q520.2600 583.1700 520.9350 583.7550Q521.6100 584.3400 521.5200 585.3300L521.5200 585.3300Q521.4300 587.3100 520.1700 589.9650Q518.9100 592.6200 516.3900 595.0950Q513.8700 597.5700 509.8200 599.2350Q505.7700 600.9000 500.0100 600.9000L500.0100 600.9000L498.1200 604.7700Q498.6600 604.5000 499.6050 604.3200Q500.5500 604.1400 501.2700 604.1400L501.2700 604.1400Q504.4200 604.1400 506.3550 606.3000Q508.2900 608.4600 508.2900 611.7900L508.2900 611.7900Q508.2900 615.2100 506.0400 617.5500Q503.7900 619.8900 499.6500 619.8000ZM544.4700 600.9000L544.4700 600.9000Q539.7900 600.9000 536.0100 599.0550Q532.2300 597.2100 530.0250 594.1050Q527.8200 591 527.8200 587.1300L527.8200 587.1300Q527.8200 580.8300 532.9500 577.0950Q538.0800 573.3600 546.3600 572.1000L546.3600 572.1000L558.6900 570.3000L558.6900 568.4100Q558.6900 564.6300 556.8000 562.5600Q554.9100 560.4900 550.3200 560.4900L550.3200 560.4900Q547.0800 560.4900 545.0550 561.7950Q543.0300 563.1000 542.0400 565.2600L542.0400 565.2600Q541.3200 566.4300 539.9700 566.4300L539.9700 566.4300L532.8600 566.4300Q531.8700 566.4300 531.3750 565.8900Q530.8800 565.3500 530.8800 564.4500L530.8800 564.4500Q530.9700 563.0100 532.0950 560.9400Q533.2200 558.8700 535.5150 556.9350Q537.8100 555 541.5000 553.6500Q545.1900 552.3000 550.4100 552.3000L550.4100 552.3000Q556.0800 552.3000 559.9950 553.6950Q563.9100 555.0900 566.2500 557.4300Q568.5900 559.7700 569.6700 562.9200Q570.7500 566.0700 570.7500 569.5800L570.7500 569.5800L570.7500 597.8400Q570.7500 598.7400 570.1200 599.3700Q569.4900 600 568.5900 600L568.5900 600L561.3000 600Q560.3100 600 559.7250 599.3700Q559.1400 598.7400 559.1400 597.8400L559.1400 597.8400L559.1400 594.3300Q557.9700 595.9500 555.9900 597.4800Q554.0100 599.0100 551.1750 599.9550Q548.3400 600.9000 544.4700 600.9000ZM547.5300 592.3500L547.5300 592.3500Q550.6800 592.3500 553.2450 591Q555.8100 589.6500 557.2950 586.8150Q558.7800 583.9800 558.7800 579.6600L558.7800 579.6600L558.7800 577.7700L549.7800 579.2100Q544.4700 580.0200 541.8600 581.8200Q539.2500 583.6200 539.2500 586.2300L539.2500 586.2300Q539.2500 588.2100 540.4650 589.6050Q541.6800 591 543.5700 591.6750Q545.4600 592.3500 547.5300 592.3500ZM555.3600 546.9000L555.3600 546.9000Q553.0200 546.9000 551.5800 546.1350Q550.1400 545.3700 548.9250 544.5600Q547.7100 543.7500 546.2700 543.7500L546.2700 543.7500Q545.1000 543.7500 544.6050 544.4250Q544.1100 545.1000 543.6600 545.7750Q543.2100 546.4500 542.2200 546.4500L542.2200 546.4500L538.0800 546.4500Q537.4500 546.4500 537 546Q536.5500 545.5500 536.5500 544.9200L536.5500 544.9200Q536.5500 543.5700 537.0450 541.9050Q537.5400 540.2400 538.6200 538.7100Q539.7000 537.1800 541.3650 536.2350Q543.0300 535.2900 545.2800 535.2900L545.2800 535.2900Q547.7100 535.2900 549.1500 536.0550Q550.5900 536.8200 551.8050 537.6300Q553.0200 538.4400 554.4600 538.4400L554.4600 538.4400Q555.6300 538.4400 556.1250 537.7200Q556.6200 537 557.0700 536.3250Q557.5200 535.6500 558.5100 535.6500L558.5100 535.6500L562.6500 535.6500Q563.3700 535.6500 563.7750 536.1450Q564.1800 536.6400 564.1800 537.2700L564.1800 537.2700Q564.1800 538.6200 563.6850 540.2850Q563.1900 541.9500 562.1100 543.4800Q561.0300 545.0100 559.3650 545.9550Q557.7000 546.9000 555.3600 546.9000ZM602.9700 600.9000L602.9700 600.9000Q595.7700 600.9000 590.8650 598.3800Q585.9600 595.8600 583.3950 591.2700Q580.8300 586.6800 580.4700 580.5600L580.4700 580.5600Q580.3800 578.9400 580.3800 576.6000Q580.3800 574.2600 580.4700 572.6400L580.4700 572.6400Q580.8300 566.4300 583.4850 561.8850Q586.1400 557.3400 591.0450 554.8200Q595.9500 552.3000 602.9700 552.3000L602.9700 552.3000Q609.9900 552.3000 614.8950 554.8200Q619.8000 557.3400 622.4550 561.8850Q625.1100 566.4300 625.4700 572.6400L625.4700 572.6400Q625.5600 574.2600 625.5600 576.6000Q625.5600 578.9400 625.4700 580.5600L625.4700 580.5600Q625.1100 586.6800 622.5450 591.2700Q619.9800 595.8600 615.0750 598.3800Q610.1700 600.9000 602.9700 600.9000ZM602.9700 591.9900L602.9700 591.9900Q607.7400 591.9900 610.3500 588.9750Q612.9600 585.9600 613.2300 580.1100L613.2300 580.1100Q613.3200 578.7600 613.3200 576.6000Q613.3200 574.4400 613.2300 573.0900L613.2300 573.0900Q612.9600 567.2400 610.3500 564.2250Q607.7400 561.2100 602.9700 561.2100L602.9700 561.2100Q598.2000 561.2100 595.5900 564.2250Q592.9800 567.2400 592.7100 573.0900L592.7100 573.0900Q592.6200 574.4400 592.6200 576.6000Q592.6200 578.7600 592.7100 580.1100L592.7100 580.1100Q592.9800 585.9600 595.5900 588.9750Q598.2000 591.9900 602.9700 591.9900ZM669.7500 600.9000L669.7500 600.9000Q665.0700 600.9000 661.2900 599.0550Q657.5100 597.2100 655.3050 594.1050Q653.1000 591 653.1000 587.1300L653.1000 587.1300Q653.1000 580.8300 658.2300 577.0950Q663.3600 573.3600 671.6400 572.1000L671.6400 572.1000L683.9700 570.3000L683.9700 568.4100Q683.9700 564.6300 682.0800 562.5600Q680.1900 560.4900 675.6000 560.4900L675.6000 560.4900Q672.3600 560.4900 670.3350 561.7950Q668.3100 563.1000 667.3200 565.2600L667.3200 565.2600Q666.6000 566.4300 665.2500 566.4300L665.2500 566.4300L658.1400 566.4300Q657.1500 566.4300 656.6550 565.8900Q656.1600 565.3500 656.1600 564.4500L656.1600 564.4500Q656.2500 563.0100 657.3750 560.9400Q658.5000 558.8700 660.7950 556.9350Q663.0900 555 666.7800 553.6500Q670.4700 552.3000 675.6900 552.3000L675.6900 552.3000Q681.3600 552.3000 685.2750 553.6950Q689.1900 555.0900 691.5300 557.4300Q693.8700 559.7700 694.9500 562.9200Q696.0300 566.0700 696.0300 569.5800L696.0300 569.5800L696.0300 597.8400Q696.0300 598.7400 695.4000 599.3700Q694.7700 600 693.8700 600L693.8700 600L686.5800 600Q685.5900 600 685.0050 599.3700Q684.4200 598.7400 684.4200 597.8400L684.4200 597.8400L684.4200 594.3300Q683.2500 595.9500 681.2700 597.4800Q679.2900 599.0100 676.4550 599.9550Q673.6200 600.9000 669.7500 600.9000ZM672.8100 592.3500L672.8100 592.3500Q675.9600 592.3500 678.5250 591Q681.0900 589.6500 682.5750 586.8150Q684.0600 583.9800 684.0600 579.6600L684.0600 579.6600L684.0600 577.7700L675.0600 579.2100Q669.7500 580.0200 667.1400 581.8200Q664.5300 583.6200 664.5300 586.2300L664.5300 586.2300Q664.5300 588.2100 665.7450 589.6050Q666.9600 591 668.8500 591.6750Q670.7400 592.3500 672.8100 592.3500ZM728.2500 600.9000L728.2500 600.9000Q721.0500 600.9000 716.1450 598.3800Q711.2400 595.8600 708.6750 591.2700Q706.1100 586.6800 705.7500 580.5600L705.7500 580.5600Q705.6600 578.9400 705.6600 576.6000Q705.6600 574.2600 705.7500 572.6400L705.7500 572.6400Q706.1100 566.4300 708.7650 561.8850Q711.4200 557.3400 716.3250 554.8200Q721.2300 552.3000 728.2500 552.3000L728.2500 552.3000Q735.2700 552.3000 740.1750 554.8200Q745.0800 557.3400 747.7350 561.8850Q750.3900 566.4300 750.7500 572.6400L750.7500 572.6400Q750.8400 574.2600 750.8400 576.6000Q750.8400 578.9400 750.7500 580.5600L750.7500 580.5600Q750.3900 586.6800 747.8250 591.2700Q745.2600 595.8600 740.3550 598.3800Q735.4500 600.9000 728.2500 600.9000ZM728.2500 591.9900L728.2500 591.9900Q733.0200 591.9900 735.6300 588.9750Q738.2400 585.9600 738.5100 580.1100L738.5100 580.1100Q738.6000 578.7600 738.6000 576.6000Q738.6000 574.4400 738.5100 573.0900L738.5100 573.0900Q738.2400 567.2400 735.6300 564.2250Q733.0200 561.2100 728.2500 561.2100L728.2500 561.2100Q723.4800 561.2100 720.8700 564.2250Q718.2600 567.2400 717.9900 573.0900L717.9900 573.0900Q717.9000 574.4400 717.9000 576.6000Q717.9000 578.7600 717.9900 580.1100L717.9900 580.1100Q718.2600 585.9600 720.8700 588.9750Q723.4800 591.9900 728.2500 591.9900ZM823.7400 600L784.6800 600Q783.7800 600 783.1500 599.3700Q782.5200 598.7400 782.5200 597.8400L782.5200 597.8400L782.5200 539.1600Q782.5200 538.2600 783.1500 537.6300Q783.7800 537 784.6800 537L784.6800 537L793.0500 537Q793.9500 537 794.5800 537.6300Q795.2100 538.2600 795.2100 539.1600L795.2100 539.1600L795.2100 589.2900L823.7400 589.2900Q824.7300 589.2900 825.3600 589.9200Q825.9900 590.5500 825.9900 591.5400L825.9900 591.5400L825.9900 597.8400Q825.9900 598.7400 825.3600 599.3700Q824.7300 600 823.7400 600L823.7400 600ZM877.2000 600L836.8800 600Q835.9800 600 835.3500 599.3700Q834.7200 598.7400 834.7200 597.8400L834.7200 597.8400L834.7200 539.2500Q834.7200 538.2600 835.3500 537.6300Q835.9800 537 836.8800 537L836.8800 537L876.4800 537Q877.4700 537 878.1000 537.6300Q878.7300 538.2600 878.7300 539.2500L878.7300 539.2500L878.7300 545.1900Q878.7300 546.0900 878.1000 546.7200Q877.4700 547.3500 876.4800 547.3500L876.4800 547.3500L846.8700 547.3500L846.8700 563.2800L874.5000 563.2800Q875.4900 563.2800 876.1200 563.8650Q876.7500 564.4500 876.7500 565.4400L876.7500 565.4400L876.7500 571.0200Q876.7500 572.0100 876.1200 572.5950Q875.4900 573.1800 874.5000 573.1800L874.5000 573.1800L846.8700 573.1800L846.8700 589.6500L877.2000 589.6500Q878.1900 589.6500 878.8200 590.2800Q879.4500 590.9100 879.4500 591.9000L879.4500 591.9000L879.4500 597.8400Q879.4500 598.7400 878.8200 599.3700Q878.1900 600 877.2000 600L877.2000 600ZM912.5700 600.9000L912.5700 600.9000Q904.2000 600.9000 898.5750 598.4250Q892.9500 595.9500 890.0250 591.9450Q887.1000 587.9400 886.9200 583.5300L886.9200 583.5300Q886.9200 582.7200 887.4600 582.1800Q888.0000 581.6400 888.8100 581.6400L888.8100 581.6400L896.8200 581.6400Q897.9900 581.6400 898.5750 582.1350Q899.1600 582.6300 899.6100 583.3500L899.6100 583.3500Q900.1500 585.0600 901.6800 586.7250Q903.2100 588.3900 905.8650 589.4700Q908.5200 590.5500 912.5700 590.5500L912.5700 590.5500Q919.0500 590.5500 922.2450 588.3900Q925.4400 586.2300 925.4400 582.5400L925.4400 582.5400Q925.4400 579.9300 923.7300 578.3550Q922.0200 576.7800 918.4650 575.4750Q914.9100 574.1700 909.0600 572.7300L909.0600 572.7300Q902.3100 571.1100 897.7650 568.8150Q893.2200 566.5200 890.9250 563.0100Q888.6300 559.5000 888.6300 554.1000L888.6300 554.1000Q888.6300 548.8800 891.4650 544.8300Q894.3000 540.7800 899.5650 538.4400Q904.8300 536.1000 912.1200 536.1000L912.1200 536.1000Q917.9700 536.1000 922.4700 537.6750Q926.9700 539.2500 929.9400 541.8150Q932.9100 544.3800 934.4850 547.3050Q936.0600 550.2300 936.1500 553.0200L936.1500 553.0200Q936.1500 553.7400 935.6550 554.3250Q935.1600 554.9100 934.2600 554.9100L934.2600 554.9100L925.8900 554.9100Q925.1700 554.9100 924.4500 554.5500Q923.7300 554.1900 923.2800 553.2000L923.2800 553.2000Q922.7400 550.4100 919.7700 548.4300Q916.8000 546.4500 912.1200 546.4500L912.1200 546.4500Q907.2600 546.4500 904.2900 548.2500Q901.3200 550.0500 901.3200 553.8300L901.3200 553.8300Q901.3200 556.3500 902.8050 558.0150Q904.2900 559.6800 907.5750 560.9400Q910.8600 562.2000 916.2600 563.6400L916.2600 563.6400Q923.9100 565.3500 928.7700 567.6000Q933.6300 569.8500 935.8800 573.3150Q938.1300 576.7800 938.1300 582.0900L938.1300 582.0900Q938.1300 588.0300 934.9350 592.2150Q931.7400 596.4000 925.9800 598.6500Q920.2200 600.9000 912.5700 600.9000ZM970.3500 600.9000L970.3500 600.9000Q961.9800 600.9000 956.3550 598.4250Q950.7300 595.9500 947.8050 591.9450Q944.8800 587.9400 944.7000 583.5300L944.7000 583.5300Q944.7000 582.7200 945.2400 582.1800Q945.7800 581.6400 946.5900 581.6400L946.5900 581.6400L954.6000 581.6400Q955.7700 581.6400 956.3550 582.1350Q956.9400 582.6300 957.3900 583.3500L957.3900 583.3500Q957.9300 585.0600 959.4600 586.7250Q960.9900 588.3900 963.6450 589.4700Q966.3000 590.5500 970.3500 590.5500L970.3500 590.5500Q976.8300 590.5500 980.0250 588.3900Q983.2200 586.2300 983.2200 582.5400L983.2200 582.5400Q983.2200 579.9300 981.5100 578.3550Q979.8000 576.7800 976.2450 575.4750Q972.6900 574.1700 966.8400 572.7300L966.8400 572.7300Q960.0900 571.1100 955.5450 568.8150Q951 566.5200 948.7050 563.0100Q946.4100 559.5000 946.4100 554.1000L946.4100 554.1000Q946.4100 548.8800 949.2450 544.8300Q952.0800 540.7800 957.3450 538.4400Q962.6100 536.1000 969.9000 536.1000L969.9000 536.1000Q975.7500 536.1000 980.2500 537.6750Q984.7500 539.2500 987.7200 541.8150Q990.6900 544.3800 992.2650 547.3050Q993.8400 550.2300 993.9300 553.0200L993.9300 553.0200Q993.9300 553.7400 993.4350 554.3250Q992.9400 554.9100 992.0400 554.9100L992.0400 554.9100L983.6700 554.9100Q982.9500 554.9100 982.2300 554.5500Q981.5100 554.1900 981.0600 553.2000L981.0600 553.2000Q980.5200 550.4100 977.5500 548.4300Q974.5800 546.4500 969.9000 546.4500L969.9000 546.4500Q965.0400 546.4500 962.0700 548.2500Q959.1000 550.0500 959.1000 553.8300L959.1000 553.8300Q959.1000 556.3500 960.5850 558.0150Q962.0700 559.6800 965.3550 560.9400Q968.6400 562.2000 974.0400 563.6400L974.0400 563.6400Q981.6900 565.3500 986.5500 567.6000Q991.4100 569.8500 993.6600 573.3150Q995.9100 576.7800 995.9100 582.0900L995.9100 582.0900Q995.9100 588.0300 992.7150 592.2150Q989.5200 596.4000 983.7600 598.6500Q978 600.9000 970.3500 600.9000Z" id="title"/><path d="M1408.9600 640L1388.9400 640Q1386.5200 640 1385.0900 638.4600Q1383.6600 636.9200 1383.6600 634.7200L1383.6600 634.7200L1383.6600 520.7600L1350.2200 546.5000Q1348.2400 547.8200 1346.2600 547.4900Q1344.2800 547.1600 1342.7400 545.1800L1342.7400 545.1800L1333.5000 533.3000Q1332.1800 531.3200 1332.5100 529.1200Q1332.8400 526.9200 1334.8200 525.6000L1334.8200 525.6000L1384.1000 487.5400Q1385.4200 486.4400 1386.7400 486.2200Q1388.0600 486 1389.6000 486L1389.6000 486L1408.9600 486Q1411.1600 486 1412.7000 487.5400Q1414.2400 489.0800 1414.2400 491.2800L1414.2400 491.2800L1414.2400 634.7200Q1414.2400 636.9200 1412.7000 638.4600Q1411.1600 640 1408.9600 640L1408.9600 640ZM1481.7800 640L1461.7600 640Q1459.7800 640 1458.4600 638.5700Q1457.1400 637.1400 1457.1400 635.1600L1457.1400 635.1600Q1457.1400 634.2800 1457.5800 633.1800L1457.5800 633.1800L1510.6000 512.1800L1441.5200 512.1800Q1439.1000 512.1800 1437.6700 510.6400Q1436.2400 509.1000 1436.2400 506.9000L1436.2400 506.9000L1436.2400 491.5000Q1436.2400 489.0800 1437.6700 487.5400Q1439.1000 486 1441.5200 486L1441.5200 486L1538.1000 486Q1540.5200 486 1541.9500 487.5400Q1543.3800 489.0800 1543.3800 491.5000L1543.3800 491.5000L1543.3800 505.1400Q1543.3800 508.2200 1542.8300 510.3100Q1542.2800 512.4000 1541.4000 514.6000L1541.4000 514.6000L1488.8200 634.7200Q1488.1600 636.2600 1486.5100 638.1300Q1484.8600 640 1481.7800 640L1481.7800 640ZM1576.3800 640L1554.3800 640Q1552.1800 640 1550.6400 638.4600Q1549.1000 636.9200 1549.1000 634.7200L1549.1000 634.7200L1549.1000 612.9400Q1549.1000 610.5200 1550.6400 608.9800Q1552.1800 607.4400 1554.3800 607.4400L1554.3800 607.4400L1576.3800 607.4400Q1578.5800 607.4400 1580.1200 608.9800Q1581.6600 610.5200 1581.6600 612.9400L1581.6600 612.9400L1581.6600 634.7200Q1581.6600 636.9200 1580.1200 638.4600Q1578.5800 640 1576.3800 640L1576.3800 640ZM1663.2800 642.2000L1663.2800 642.2000Q1647.8800 642.2000 1636.6600 638.4600Q1625.4400 634.7200 1618.0700 628.6700Q1610.7000 622.6200 1606.9600 615.4700Q1603.2200 608.3200 1603 601.2800L1603 601.2800Q1603 599.3000 1604.4300 598.0900Q1605.8600 596.8800 1607.8400 596.8800L1607.8400 596.8800L1627.6400 596.8800Q1629.8400 596.8800 1631.3800 597.7600Q1632.9200 598.6400 1634.0200 601.2800L1634.0200 601.2800Q1636 607.2200 1640.5100 610.7400Q1645.0200 614.2600 1650.9600 615.6900Q1656.9000 617.1200 1663.5000 617.1200L1663.5000 617.1200Q1676.7000 617.1200 1684.5100 610.8500Q1692.3200 604.5800 1692.3200 592.9200L1692.3200 592.9200Q1692.3200 581.2600 1685.0600 576.0900Q1677.8000 570.9200 1664.8200 570.9200L1664.8200 570.9200L1642.1600 570.9200Q1639.7400 570.9200 1638.2000 569.4900Q1636.6600 568.0600 1636.6600 565.6400L1636.6600 565.6400L1636.6600 556.4000Q1636.6600 554.2000 1637.6500 552.5500Q1638.6400 550.9000 1639.7400 549.8000L1639.7400 549.8000L1679.1200 511.3000L1616.2000 511.3000Q1613.7800 511.3000 1612.3500 509.7600Q1610.9200 508.2200 1610.9200 506.0200L1610.9200 506.0200L1610.9200 491.5000Q1610.9200 489.0800 1612.3500 487.5400Q1613.7800 486 1616.2000 486L1616.2000 486L1710.5800 486Q1713 486 1714.5400 487.5400Q1716.0800 489.0800 1716.0800 491.5000L1716.0800 491.5000L1716.0800 504.7000Q1716.0800 506.6800 1715.2000 508.2200Q1714.3200 509.7600 1713.2200 510.8600L1713.2200 510.8600L1675.1600 550.0200L1677.8000 550.2400Q1691.2200 551.3400 1701.6700 556.2900Q1712.1200 561.2400 1717.9500 570.7000Q1723.7800 580.1600 1723.7800 594.4600L1723.7800 594.4600Q1723.7800 609.4200 1715.9700 620.0900Q1708.1600 630.7600 1694.5200 636.4800Q1680.8800 642.2000 1663.2800 642.2000Z" id="lecture-full-number"/></g></svg>