<svg xmlns="http://www.w3.org/2000/svg" version="1.1" xmlns:xlink="http://www.w3.org/1999/xlink" xmlns:svgjs="http://svgjs.dev/svgjs" viewBox="0 0 1920 1080" id="09773ee0-6e17-41ec-857a-ea8c4295250a"><g><rect width="1920" height="1080" fill="#e1f4cb"/></g><g fill="#f1bf98"><path d="M745.478 668.096L1087.28 1009.97L1200.88 896.347L859.076 554.473L745.478 668.096Z"/><path d="M858.951 554.294L517.152 896.168L630.75 1009.79L972.549 667.917L858.951 554.294Z"/><path d="M289.239 668.391L631.038 1010.27L744.636 896.643L402.837 554.769L289.239 668.391Z"/><path d="M402.706 554L60.907 895.874L174.505 1009.5L516.304 667.623L402.706 554Z"/><path d="M-166 667.682L175.799 1009.56L289.397 895.933L-52.4021 554.059L-166 667.682Z"/></g><g fill="#ffffff" opacity="0.4"><path d="M1134 160C1540.91 160 1872 491.086 1872 898C1872 1304.91 1540.91 1636 1134 1636C727.086 1635.56 396 1304.91 396 898C396 491.086 727.086 160 1134 160ZM1134 1611.31C1527.25 1611.31 1847.31 1291.25 1847.31 898C1847.31 504.753 1527.25 184.247 1134 184.247C740.753 184.247 420.247 504.312 420.247 898C420.247 1291.69 740.312 1611.31 1134 1611.31Z"/><path d="M1134 251.699C1490.22 251.699 1780.3 541.785 1780.3 898C1780.3 1254.22 1490.22 1544.3 1134 1544.3C777.785 1544.3 487.699 1254.22 487.699 898C487.699 541.785 777.344 251.699 1134 251.699ZM1134 1519.61C1476.99 1519.61 1756.05 1240.55 1756.05 897.559C1756.05 554.57 1476.99 275.947 1134 275.947C791.011 275.947 511.946 555.011 511.946 898C511.946 1240.99 791.011 1519.61 1134 1519.61Z"/><path d="M1134 342.957C1439.96 342.957 1688.6 592.043 1688.6 897.559C1688.6 1203.52 1439.52 1452.16 1134 1452.16C828.043 1452.16 579.398 1203.08 579.398 897.559C578.957 592.043 828.043 342.957 1134 342.957ZM1134 1428.35C1426.29 1428.35 1664.35 1190.29 1664.35 898C1664.35 605.71 1426.29 367.645 1134 367.645C841.71 367.645 603.645 605.71 603.645 898C603.645 1190.29 841.269 1428.35 1134 1428.35Z"/><path d="M1134 434.656C1389.26 434.656 1597.34 642.301 1597.34 898C1597.34 1153.7 1389.7 1361.34 1134 1361.34C878.742 1361.34 670.656 1153.7 670.656 898C670.656 642.301 878.301 434.656 1134 434.656ZM1134 1336.66C1376.03 1336.66 1572.66 1139.59 1572.66 898C1572.66 656.408 1375.59 459.344 1134 459.344C891.968 459.344 695.344 656.408 695.344 898C695.344 1139.59 891.968 1336.66 1134 1336.66Z"/><path d="M1134 526.354C1339 526.354 1505.65 693 1505.65 898C1505.65 1103 1339 1269.64 1134 1269.64C929 1269.64 762.355 1103 762.355 898C762.355 693 929 526.354 1134 526.354ZM1134 1244.96C1325.33 1244.96 1481.4 1089.33 1481.4 897.559C1481.4 706.225 1325.77 550.161 1134 550.161C942.667 550.161 786.602 705.785 786.602 897.559C786.602 1089.33 942.226 1244.96 1134 1244.96Z"/><path d="M1134 617.613C1288.3 617.613 1414.39 743.258 1414.39 898C1414.39 1052.74 1288.74 1178.39 1134 1178.39C979.699 1178.39 853.613 1052.74 853.613 898C853.613 743.258 979.258 617.613 1134 617.613ZM1134 1153.7C1275.08 1153.7 1389.7 1039.08 1389.7 898C1389.7 756.925 1275.08 642.301 1134 642.301C992.925 642.301 878.301 756.925 878.301 898C878.301 1039.08 992.925 1153.7 1134 1153.7Z"/><path d="M1134 709.312C1238.04 709.312 1322.69 793.957 1322.69 898C1322.69 1002.04 1238.04 1086.69 1134 1086.69C1029.96 1086.69 945.312 1002.04 945.312 898C945.312 793.957 1029.96 709.312 1134 709.312ZM1134 1062C1224.38 1062 1298.44 988.377 1298.44 897.559C1298.44 807.183 1224.82 733.118 1134 733.118C1043.62 733.118 969.559 806.742 969.559 897.559C969.559 988.377 1043.18 1062 1134 1062Z"/><path d="M1134 800.57C1187.34 800.57 1230.99 844.215 1230.99 897.56C1230.99 950.904 1187.34 994.549 1134 994.549C1080.66 994.549 1037.01 950.904 1037.01 897.56C1036.57 844.215 1080.22 800.57 1134 800.57ZM1134 970.742C1174.12 970.742 1206.74 938.119 1206.74 898C1206.74 857.882 1174.12 825.258 1134 825.258C1093.88 825.258 1061.26 857.882 1061.26 898C1061.26 938.119 1093.88 970.742 1134 970.742Z"/></g><g><path d="M178.635 139.281L184.422 144.246V166.626H215.704L219.958 172.147L215.69 177.397H184.422V198.795L178.635 203.747L173 198.795V144.232L178.635 139.281ZM195.554 195.68H219.406L223.397 200.915L219.143 206.45H195.554L191.7 201.342L195.554 195.68ZM196.382 138H219.129L223.383 143.52L219.129 148.77H196.659L192.115 143.677L196.382 138ZM323.155 148.628L328.251 154.291L323.155 159.968H246.13L241.172 154.291L246.13 148.628H323.155ZM237.043 172.147L241.849 167.893L246.669 172.147V178.393C246.669 188.879 249.417 197.515 261.668 197.515H264.14C275.147 197.515 281.197 189.86 281.197 177.952V172.005L285.879 167.75L290.699 171.862V178.379C290.699 189.007 293.723 196.946 305.56 196.946H307.618C319.178 196.946 321.235 187.869 321.373 177.952V171.578L326.056 167.608L331 171.72V178.094C330.862 191.838 327.285 207.574 308.032 207.574H305.974C294.552 207.574 288.365 202.324 285.892 195.808C283.006 202.466 275.299 208.286 264.844 208.286H262.358C242.553 208.286 237.194 195.964 237.056 178.663V172.147H237.043ZM276.391 274.744L273.642 267.089L280.796 264.969L305.974 276.721V252.491L311.07 248.095L316.291 252.491V281.829L325.641 286.226L328.251 293.311L320.959 296L276.391 274.744ZM321.235 223.011L328.113 226.27L325.917 233.497L264.002 263.119L256.571 260.146L259.596 252.776L321.235 223.011ZM231.905 263.404L237.954 268.512C237.402 286.51 222.403 296 204.669 296H202.874C194.062 296 183.759 292.6 177.157 286.083L177.834 278.855L184.298 278.002C189.118 282.256 195.858 285.229 202.183 285.229H204.117C216.091 285.229 225.303 280.136 226.27 268.085L231.905 263.404ZM226.256 251.638C225.704 239.16 216.629 234.209 204.103 234.209H202.169C194.739 234.209 189.104 237.182 184.284 241.436L177.834 240.583L177.143 233.355C183.745 226.696 192.957 223.58 202.597 223.58H204.517C222.403 223.58 237.402 232.942 237.94 251.211L231.891 256.176L226.256 251.638Z" fill="#000000"/></g><path d="M1171 781L1171 339L1187 339L1187 781L1171 781Z" fill="#000000"/><g fill="#000000" id="info-group"><path d="M167.1000 555L159.1800 555Q158.2800 555 157.6500 554.3700Q157.0200 553.7400 157.0200 552.8400L157.0200 552.8400L157.0200 494.2500Q157.0200 493.2600 157.6500 492.6300Q158.2800 492 159.1800 492L159.1800 492L198.2400 492Q199.2300 492 199.8600 492.6300Q200.4900 493.2600 200.4900 494.2500L200.4900 494.2500L200.4900 500.5500Q200.4900 501.5400 199.8600 502.1250Q199.2300 502.7100 198.2400 502.7100L198.2400 502.7100L169.3500 502.7100L169.3500 519.8100L196.4400 519.8100Q197.4300 519.8100 198.0600 520.4400Q198.6900 521.0700 198.6900 522.0600L198.6900 522.0600L198.6900 528.3600Q198.6900 529.2600 198.0600 529.8900Q197.4300 530.5200 196.4400 530.5200L196.4400 530.5200L169.3500 530.5200L169.3500 552.8400Q169.3500 553.7400 168.7200 554.3700Q168.0900 555 167.1000 555L167.1000 555ZM227.4000 555.9000L227.4000 555.9000Q221.9100 555.9000 217.9050 553.4250Q213.9000 550.9500 211.7400 546.4050Q209.5800 541.8600 209.5800 535.6500L209.5800 535.6500L209.5800 510.3600Q209.5800 509.4600 210.2100 508.8300Q210.8400 508.2000 211.7400 508.2000L211.7400 508.2000L219.6600 508.2000Q220.6500 508.2000 221.2350 508.8300Q221.8200 509.4600 221.8200 510.3600L221.8200 510.3600L221.8200 535.1100Q221.8200 546.2700 231.6300 546.2700L231.6300 546.2700Q236.3100 546.2700 239.0550 543.3000Q241.8000 540.3300 241.8000 535.1100L241.8000 535.1100L241.8000 510.3600Q241.8000 509.4600 242.4300 508.8300Q243.0600 508.2000 243.9600 508.2000L243.9600 508.2000L251.8800 508.2000Q252.7800 508.2000 253.4100 508.8300Q254.0400 509.4600 254.0400 510.3600L254.0400 510.3600L254.0400 552.8400Q254.0400 553.7400 253.4100 554.3700Q252.7800 555 251.8800 555L251.8800 555L244.5900 555Q243.6000 555 243.0150 554.3700Q242.4300 553.7400 242.4300 552.8400L242.4300 552.8400L242.4300 549.1500Q240 552.3000 236.4000 554.1000Q232.8000 555.9000 227.4000 555.9000ZM276 555L268.0800 555Q267.1800 555 266.5500 554.3700Q265.9200 553.7400 265.9200 552.8400L265.9200 552.8400L265.9200 510.3600Q265.9200 509.4600 266.5500 508.8300Q267.1800 508.2000 268.0800 508.2000L268.0800 508.2000L275.4600 508.2000Q276.3600 508.2000 276.9900 508.8300Q277.6200 509.4600 277.6200 510.3600L277.6200 510.3600L277.6200 514.0500Q279.9600 511.1700 283.6050 509.2350Q287.2500 507.3000 292.6500 507.3000L292.6500 507.3000Q298.1400 507.3000 302.1900 509.7750Q306.2400 512.2500 308.4450 516.7500Q310.6500 521.2500 310.6500 527.5500L310.6500 527.5500L310.6500 552.8400Q310.6500 553.7400 310.0200 554.3700Q309.3900 555 308.4900 555L308.4900 555L300.5700 555Q299.6700 555 299.0400 554.3700Q298.4100 553.7400 298.4100 552.8400L298.4100 552.8400L298.4100 528.0900Q298.4100 522.8700 295.8450 519.9000Q293.2800 516.9300 288.4200 516.9300L288.4200 516.9300Q283.7400 516.9300 280.9500 519.9000Q278.1600 522.8700 278.1600 528.0900L278.1600 528.0900L278.1600 552.8400Q278.1600 553.7400 277.5300 554.3700Q276.9000 555 276 555L276 555ZM339.4500 555.9000L339.4500 555.9000Q334.7700 555.9000 331.2150 554.3250Q327.6600 552.7500 325.3200 549.8700Q322.9800 546.9900 321.7200 543.0750Q320.4600 539.1600 320.2800 534.4800L320.2800 534.4800Q320.1900 532.8600 320.1900 531.5550Q320.1900 530.2500 320.2800 528.6300L320.2800 528.6300Q320.4600 524.1300 321.6750 520.2600Q322.8900 516.3900 325.2750 513.4650Q327.6600 510.5400 331.2150 508.9200Q334.7700 507.3000 339.4500 507.3000L339.4500 507.3000Q344.3100 507.3000 347.6850 508.9650Q351.0600 510.6300 353.3100 513.2400L353.3100 513.2400L353.3100 493.2600Q353.3100 492.3600 353.8950 491.7300Q354.4800 491.1000 355.4700 491.1000L355.4700 491.1000L363.1200 491.1000Q364.0200 491.1000 364.6500 491.7300Q365.2800 492.3600 365.2800 493.2600L365.2800 493.2600L365.2800 552.8400Q365.2800 553.7400 364.6500 554.3700Q364.0200 555 363.1200 555L363.1200 555L356.0100 555Q355.0200 555 354.4350 554.3700Q353.8500 553.7400 353.8500 552.8400L353.8500 552.8400L353.8500 549.5100Q351.6000 552.3000 348.1350 554.1000Q344.6700 555.9000 339.4500 555.9000ZM342.7800 546.2700L342.7800 546.2700Q346.5600 546.2700 348.8100 544.5600Q351.0600 542.8500 352.1400 540.1950Q353.2200 537.5400 353.3100 534.7500L353.3100 534.7500Q353.4000 533.1300 353.4000 531.2850Q353.4000 529.4400 353.3100 527.8200L353.3100 527.8200Q353.2200 525.1200 352.0500 522.6450Q350.8800 520.1700 348.6300 518.5500Q346.3800 516.9300 342.7800 516.9300L342.7800 516.9300Q339 516.9300 336.7950 518.5950Q334.5900 520.2600 333.6000 522.9600Q332.6100 525.6600 332.4300 528.9000L332.4300 528.9000Q332.3400 531.6000 332.4300 534.3000L332.4300 534.3000Q332.6100 537.5400 333.6000 540.2400Q334.5900 542.9400 336.7950 544.6050Q339 546.2700 342.7800 546.2700ZM390.8400 555.9000L390.8400 555.9000Q386.1600 555.9000 382.3800 554.0550Q378.6000 552.2100 376.3950 549.1050Q374.1900 546 374.1900 542.1300L374.1900 542.1300Q374.1900 535.8300 379.3200 532.0950Q384.4500 528.3600 392.7300 527.1000L392.7300 527.1000L405.0600 525.3000L405.0600 523.4100Q405.0600 519.6300 403.1700 517.5600Q401.2800 515.4900 396.6900 515.4900L396.6900 515.4900Q393.4500 515.4900 391.4250 516.7950Q389.4000 518.1000 388.4100 520.2600L388.4100 520.2600Q387.6900 521.4300 386.3400 521.4300L386.3400 521.4300L379.2300 521.4300Q378.2400 521.4300 377.7450 520.8900Q377.2500 520.3500 377.2500 519.4500L377.2500 519.4500Q377.3400 518.0100 378.4650 515.9400Q379.5900 513.8700 381.8850 511.9350Q384.1800 510 387.8700 508.6500Q391.5600 507.3000 396.7800 507.3000L396.7800 507.3000Q402.4500 507.3000 406.3650 508.6950Q410.2800 510.0900 412.6200 512.4300Q414.9600 514.7700 416.0400 517.9200Q417.1200 521.0700 417.1200 524.5800L417.1200 524.5800L417.1200 552.8400Q417.1200 553.7400 416.4900 554.3700Q415.8600 555 414.9600 555L414.9600 555L407.6700 555Q406.6800 555 406.0950 554.3700Q405.5100 553.7400 405.5100 552.8400L405.5100 552.8400L405.5100 549.3300Q404.3400 550.9500 402.3600 552.4800Q400.3800 554.0100 397.5450 554.9550Q394.7100 555.9000 390.8400 555.9000ZM393.9000 547.3500L393.9000 547.3500Q397.0500 547.3500 399.6150 546Q402.1800 544.6500 403.6650 541.8150Q405.1500 538.9800 405.1500 534.6600L405.1500 534.6600L405.1500 532.7700L396.1500 534.2100Q390.8400 535.0200 388.2300 536.8200Q385.6200 538.6200 385.6200 541.2300L385.6200 541.2300Q385.6200 543.2100 386.8350 544.6050Q388.0500 546 389.9400 546.6750Q391.8300 547.3500 393.9000 547.3500ZM438.3600 555L430.8000 555Q429.9000 555 429.2700 554.3700Q428.6400 553.7400 428.6400 552.8400L428.6400 552.8400L428.6400 510.3600Q428.6400 509.4600 429.2700 508.8300Q429.9000 508.2000 430.8000 508.2000L430.8000 508.2000L437.8200 508.2000Q438.7200 508.2000 439.3500 508.8300Q439.9800 509.4600 439.9800 510.3600L439.9800 510.3600L439.9800 513.4200Q441.8700 510.9000 445.0650 509.1450Q448.2600 507.3900 452.6700 507.3000L452.6700 507.3000Q462.9300 507.1200 466.9800 515.3100L466.9800 515.3100Q469.0500 511.7100 472.9650 509.5050Q476.8800 507.3000 481.6500 507.3000L481.6500 507.3000Q486.3300 507.3000 490.1550 509.4600Q493.9800 511.6200 496.1850 515.9850Q498.3900 520.3500 498.3900 527.0100L498.3900 527.0100L498.3900 552.8400Q498.3900 553.7400 497.7600 554.3700Q497.1300 555 496.2300 555L496.2300 555L488.8500 555Q487.9500 555 487.3200 554.3700Q486.6900 553.7400 486.6900 552.8400L486.6900 552.8400L486.6900 527.7300Q486.6900 523.6800 485.5200 521.2950Q484.3500 518.9100 482.3700 517.9200Q480.3900 516.9300 477.9600 516.9300L477.9600 516.9300Q475.9800 516.9300 474 517.9200Q472.0200 518.9100 470.7600 521.2950Q469.5000 523.6800 469.5000 527.7300L469.5000 527.7300L469.5000 552.8400Q469.5000 553.7400 468.8700 554.3700Q468.2400 555 467.3400 555L467.3400 555L459.9600 555Q459.0600 555 458.4300 554.3700Q457.8000 553.7400 457.8000 552.8400L457.8000 552.8400L457.8000 527.7300Q457.8000 523.6800 456.5400 521.2950Q455.2800 518.9100 453.3000 517.9200Q451.3200 516.9300 449.0700 516.9300L449.0700 516.9300Q447 516.9300 445.0200 517.9650Q443.0400 519 441.7800 521.3400Q440.5200 523.6800 440.5200 527.7300L440.5200 527.7300L440.5200 552.8400Q440.5200 553.7400 439.8900 554.3700Q439.2600 555 438.3600 555L438.3600 555ZM529.9800 555.9000L529.9800 555.9000Q519.9900 555.9000 514.1400 550.1400Q508.2900 544.3800 507.8400 533.7600L507.8400 533.7600Q507.7500 532.8600 507.7500 531.4650Q507.7500 530.0700 507.8400 529.2600L507.8400 529.2600Q508.2000 522.4200 510.9450 517.5150Q513.6900 512.6100 518.5500 509.9550Q523.4100 507.3000 529.9800 507.3000L529.9800 507.3000Q537.2700 507.3000 542.2200 510.3150Q547.1700 513.3300 549.6900 518.6850Q552.2100 524.0400 552.2100 531.0600L552.2100 531.0600L552.2100 532.9500Q552.2100 533.8500 551.5800 534.4800Q550.9500 535.1100 549.9600 535.1100L549.9600 535.1100L520.0800 535.1100Q520.0800 535.1100 520.0800 535.3800Q520.0800 535.6500 520.0800 535.8300L520.0800 535.8300Q520.1700 538.9800 521.2950 541.6350Q522.4200 544.2900 524.6250 545.9100Q526.8300 547.5300 529.8900 547.5300L529.8900 547.5300Q532.4100 547.5300 534.1200 546.7650Q535.8300 546 536.9100 545.0100Q537.9900 544.0200 538.4400 543.3900L538.4400 543.3900Q539.2500 542.3100 539.7450 542.0850Q540.2400 541.8600 541.2300 541.8600L541.2300 541.8600L548.9700 541.8600Q549.8700 541.8600 550.4550 542.4000Q551.0400 542.9400 550.9500 543.7500L550.9500 543.7500Q550.8600 545.1900 549.4650 547.2600Q548.0700 549.3300 545.4600 551.3100Q542.8500 553.2900 538.9350 554.5950Q535.0200 555.9000 529.9800 555.9000ZM520.0800 527.2800L520.0800 527.5500L539.9700 527.5500L539.9700 527.2800Q539.9700 523.7700 538.8000 521.1150Q537.6300 518.4600 535.3800 516.9750Q533.1300 515.4900 529.9800 515.4900L529.9800 515.4900Q526.8300 515.4900 524.5800 516.9750Q522.3300 518.4600 521.2050 521.1150Q520.0800 523.7700 520.0800 527.2800L520.0800 527.2800ZM571.8300 555L563.9100 555Q563.0100 555 562.3800 554.3700Q561.7500 553.7400 561.7500 552.8400L561.7500 552.8400L561.7500 510.3600Q561.7500 509.4600 562.3800 508.8300Q563.0100 508.2000 563.9100 508.2000L563.9100 508.2000L571.2900 508.2000Q572.1900 508.2000 572.8200 508.8300Q573.4500 509.4600 573.4500 510.3600L573.4500 510.3600L573.4500 514.0500Q575.7900 511.1700 579.4350 509.2350Q583.0800 507.3000 588.4800 507.3000L588.4800 507.3000Q593.9700 507.3000 598.0200 509.7750Q602.0700 512.2500 604.2750 516.7500Q606.4800 521.2500 606.4800 527.5500L606.4800 527.5500L606.4800 552.8400Q606.4800 553.7400 605.8500 554.3700Q605.2200 555 604.3200 555L604.3200 555L596.4000 555Q595.5000 555 594.8700 554.3700Q594.2400 553.7400 594.2400 552.8400L594.2400 552.8400L594.2400 528.0900Q594.2400 522.8700 591.6750 519.9000Q589.1100 516.9300 584.2500 516.9300L584.2500 516.9300Q579.5700 516.9300 576.7800 519.9000Q573.9900 522.8700 573.9900 528.0900L573.9900 528.0900L573.9900 552.8400Q573.9900 553.7400 573.3600 554.3700Q572.7300 555 571.8300 555L571.8300 555ZM646.3500 555L639.0600 555Q633.6600 555 629.9700 553.1100Q626.2800 551.2200 624.4800 547.4850Q622.6800 543.7500 622.6800 538.1700L622.6800 538.1700L622.6800 517.7400L615.5700 517.7400Q614.6700 517.7400 614.0400 517.1100Q613.4100 516.4800 613.4100 515.4900L613.4100 515.4900L613.4100 510.3600Q613.4100 509.4600 614.0400 508.8300Q614.6700 508.2000 615.5700 508.2000L615.5700 508.2000L622.6800 508.2000L622.6800 493.2600Q622.6800 492.3600 623.2650 491.7300Q623.8500 491.1000 624.8400 491.1000L624.8400 491.1000L632.1300 491.1000Q633.0300 491.1000 633.6600 491.7300Q634.2900 492.3600 634.2900 493.2600L634.2900 493.2600L634.2900 508.2000L645.5400 508.2000Q646.4400 508.2000 647.0700 508.8300Q647.7000 509.4600 647.7000 510.3600L647.7000 510.3600L647.7000 515.4900Q647.7000 516.4800 647.0700 517.1100Q646.4400 517.7400 645.5400 517.7400L645.5400 517.7400L634.2900 517.7400L634.2900 537.2700Q634.2900 540.9600 635.5950 543.0300Q636.9000 545.1000 640.1400 545.1000L640.1400 545.1000L646.3500 545.1000Q647.2500 545.1000 647.8800 545.7300Q648.5100 546.3600 648.5100 547.2600L648.5100 547.2600L648.5100 552.8400Q648.5100 553.7400 647.8800 554.3700Q647.2500 555 646.3500 555L646.3500 555ZM677.2200 555.9000L677.2200 555.9000Q670.0200 555.9000 665.1150 553.3800Q660.2100 550.8600 657.6450 546.2700Q655.0800 541.6800 654.7200 535.5600L654.7200 535.5600Q654.6300 533.9400 654.6300 531.6000Q654.6300 529.2600 654.7200 527.6400L654.7200 527.6400Q655.0800 521.4300 657.7350 516.8850Q660.3900 512.3400 665.2950 509.8200Q670.2000 507.3000 677.2200 507.3000L677.2200 507.3000Q684.2400 507.3000 689.1450 509.8200Q694.0500 512.3400 696.7050 516.8850Q699.3600 521.4300 699.7200 527.6400L699.7200 527.6400Q699.8100 529.2600 699.8100 531.6000Q699.8100 533.9400 699.7200 535.5600L699.7200 535.5600Q699.3600 541.6800 696.7950 546.2700Q694.2300 550.8600 689.3250 553.3800Q684.4200 555.9000 677.2200 555.9000ZM677.2200 546.9900L677.2200 546.9900Q681.9900 546.9900 684.6000 543.9750Q687.2100 540.9600 687.4800 535.1100L687.4800 535.1100Q687.5700 533.7600 687.5700 531.6000Q687.5700 529.4400 687.4800 528.0900L687.4800 528.0900Q687.2100 522.2400 684.6000 519.2250Q681.9900 516.2100 677.2200 516.2100L677.2200 516.2100Q672.4500 516.2100 669.8400 519.2250Q667.2300 522.2400 666.9600 528.0900L666.9600 528.0900Q666.8700 529.4400 666.8700 531.6000Q666.8700 533.7600 666.9600 535.1100L666.9600 535.1100Q667.2300 540.9600 669.8400 543.9750Q672.4500 546.9900 677.2200 546.9900ZM727.5300 555.9000L727.5300 555.9000Q722.1300 555.9000 718.3050 554.6400Q714.4800 553.3800 712.0500 551.4900Q709.6200 549.6000 708.4500 547.7100Q707.2800 545.8200 707.1900 544.5600L707.1900 544.5600Q707.1000 543.5700 707.7750 542.9850Q708.4500 542.4000 709.2600 542.4000L709.2600 542.4000L716.3700 542.4000Q716.7300 542.4000 717.0000 542.4900Q717.2700 542.5800 717.7200 543.0300L717.7200 543.0300Q718.8900 544.0200 720.1950 545.1000Q721.5000 546.1800 723.3000 546.9450Q725.1000 547.7100 727.8000 547.7100L727.8000 547.7100Q731.3100 547.7100 733.6950 546.3150Q736.0800 544.9200 736.0800 542.3100L736.0800 542.3100Q736.0800 540.4200 735.0450 539.2500Q734.0100 538.0800 731.2200 537.1350Q728.4300 536.1900 723.3000 535.1100L723.3000 535.1100Q718.2600 533.9400 714.9300 532.1400Q711.6000 530.3400 709.9800 527.6400Q708.3600 524.9400 708.3600 521.3400L708.3600 521.3400Q708.3600 517.8300 710.4750 514.6350Q712.5900 511.4400 716.7750 509.3700Q720.9600 507.3000 727.1700 507.3000L727.1700 507.3000Q732.0300 507.3000 735.6300 508.5150Q739.2300 509.7300 741.6150 511.5300Q744.0000 513.3300 745.2600 515.1750Q746.5200 517.0200 746.6100 518.3700L746.6100 518.3700Q746.7000 519.3600 746.0700 519.9450Q745.4400 520.5300 744.6300 520.5300L744.6300 520.5300L737.9700 520.5300Q737.5200 520.5300 737.1600 520.3500Q736.8000 520.1700 736.4400 519.9000L736.4400 519.9000Q735.4500 519 734.2800 517.9650Q733.1100 516.9300 731.4450 516.2100Q729.7800 515.4900 727.0800 515.4900L727.0800 515.4900Q723.6600 515.4900 721.8600 516.9750Q720.0600 518.4600 720.0600 520.7100L720.0600 520.7100Q720.0600 522.2400 720.9150 523.3650Q721.7700 524.4900 724.3800 525.4800Q726.9900 526.4700 732.3000 527.5500L732.3000 527.5500Q738.3300 528.6300 741.8850 530.7450Q745.4400 532.8600 746.9250 535.6050Q748.4100 538.3500 748.4100 541.6800L748.4100 541.6800Q748.4100 545.7300 746.0250 548.9700Q743.6400 552.2100 739.0050 554.0550Q734.3700 555.9000 727.5300 555.9000ZM795.6600 555.9000L795.6600 555.9000Q790.9800 555.9000 787.4250 554.3250Q783.8700 552.7500 781.5300 549.8700Q779.1900 546.9900 777.9300 543.0750Q776.6700 539.1600 776.4900 534.4800L776.4900 534.4800Q776.4000 532.8600 776.4000 531.5550Q776.4000 530.2500 776.4900 528.6300L776.4900 528.6300Q776.6700 524.1300 777.8850 520.2600Q779.1000 516.3900 781.4850 513.4650Q783.8700 510.5400 787.4250 508.9200Q790.9800 507.3000 795.6600 507.3000L795.6600 507.3000Q800.5200 507.3000 803.8950 508.9650Q807.2700 510.6300 809.5200 513.2400L809.5200 513.2400L809.5200 493.2600Q809.5200 492.3600 810.1050 491.7300Q810.6900 491.1000 811.6800 491.1000L811.6800 491.1000L819.3300 491.1000Q820.2300 491.1000 820.8600 491.7300Q821.4900 492.3600 821.4900 493.2600L821.4900 493.2600L821.4900 552.8400Q821.4900 553.7400 820.8600 554.3700Q820.2300 555 819.3300 555L819.3300 555L812.2200 555Q811.2300 555 810.6450 554.3700Q810.0600 553.7400 810.0600 552.8400L810.0600 552.8400L810.0600 549.5100Q807.8100 552.3000 804.3450 554.1000Q800.8800 555.9000 795.6600 555.9000ZM798.9900 546.2700L798.9900 546.2700Q802.7700 546.2700 805.0200 544.5600Q807.2700 542.8500 808.3500 540.1950Q809.4300 537.5400 809.5200 534.7500L809.5200 534.7500Q809.6100 533.1300 809.6100 531.2850Q809.6100 529.4400 809.5200 527.8200L809.5200 527.8200Q809.4300 525.1200 808.2600 522.6450Q807.0900 520.1700 804.8400 518.5500Q802.5900 516.9300 798.9900 516.9300L798.9900 516.9300Q795.2100 516.9300 793.0050 518.5950Q790.8000 520.2600 789.8100 522.9600Q788.8200 525.6600 788.6400 528.9000L788.6400 528.9000Q788.5500 531.6000 788.6400 534.3000L788.6400 534.3000Q788.8200 537.5400 789.8100 540.2400Q790.8000 542.9400 793.0050 544.6050Q795.2100 546.2700 798.9900 546.2700ZM854.1600 555.9000L854.1600 555.9000Q846.9600 555.9000 842.0550 553.3800Q837.1500 550.8600 834.5850 546.2700Q832.0200 541.6800 831.6600 535.5600L831.6600 535.5600Q831.5700 533.9400 831.5700 531.6000Q831.5700 529.2600 831.6600 527.6400L831.6600 527.6400Q832.0200 521.4300 834.6750 516.8850Q837.3300 512.3400 842.2350 509.8200Q847.1400 507.3000 854.1600 507.3000L854.1600 507.3000Q861.1800 507.3000 866.0850 509.8200Q870.9900 512.3400 873.6450 516.8850Q876.3000 521.4300 876.6600 527.6400L876.6600 527.6400Q876.7500 529.2600 876.7500 531.6000Q876.7500 533.9400 876.6600 535.5600L876.6600 535.5600Q876.3000 541.6800 873.7350 546.2700Q871.1700 550.8600 866.2650 553.3800Q861.3600 555.9000 854.1600 555.9000ZM854.1600 546.9900L854.1600 546.9900Q858.9300 546.9900 861.5400 543.9750Q864.1500 540.9600 864.4200 535.1100L864.4200 535.1100Q864.5100 533.7600 864.5100 531.6000Q864.5100 529.4400 864.4200 528.0900L864.4200 528.0900Q864.1500 522.2400 861.5400 519.2250Q858.9300 516.2100 854.1600 516.2100L854.1600 516.2100Q849.3900 516.2100 846.7800 519.2250Q844.1700 522.2400 843.9000 528.0900L843.9000 528.0900Q843.8100 529.4400 843.8100 531.6000Q843.8100 533.7600 843.9000 535.1100L843.9000 535.1100Q844.1700 540.9600 846.7800 543.9750Q849.3900 546.9900 854.1600 546.9900ZM177.3600 645.9000L177.3600 645.9000Q172.5000 645.9000 168.1350 644.6850Q163.7700 643.4700 160.3500 640.9500Q156.9300 638.4300 154.9050 634.7400Q152.8800 631.0500 152.7900 626.0100L152.7900 626.0100Q152.7900 625.2000 153.3300 624.6150Q153.8700 624.0300 154.6800 624.0300L154.6800 624.0300L163.2300 624.0300Q164.4000 624.0300 164.9850 624.6600Q165.5700 625.2900 165.9300 626.3700L165.9300 626.3700Q166.3800 629.6100 168 631.6350Q169.6200 633.6600 172.0950 634.6050Q174.5700 635.5500 177.6300 635.5500L177.6300 635.5500Q183.3000 635.5500 186.3150 631.8600Q189.3300 628.1700 189.3300 621.6000L189.3300 621.6000L189.3300 592.6200L158.8200 592.6200Q157.8300 592.6200 157.2450 591.9900Q156.6600 591.3600 156.6600 590.4600L156.6600 590.4600L156.6600 584.1600Q156.6600 583.2600 157.2450 582.6300Q157.8300 582 158.8200 582L158.8200 582L199.9500 582Q200.9400 582 201.5700 582.6300Q202.2000 583.2600 202.2000 584.2500L202.2000 584.2500L202.2000 621.9600Q202.2000 629.4300 199.0950 634.8300Q195.9900 640.2300 190.4550 643.0650Q184.9200 645.9000 177.3600 645.9000ZM228.2100 645.9000L228.2100 645.9000Q223.5300 645.9000 219.7500 644.0550Q215.9700 642.2100 213.7650 639.1050Q211.5600 636 211.5600 632.1300L211.5600 632.1300Q211.5600 625.8300 216.6900 622.0950Q221.8200 618.3600 230.1000 617.1000L230.1000 617.1000L242.4300 615.3000L242.4300 613.4100Q242.4300 609.6300 240.5400 607.5600Q238.6500 605.4900 234.0600 605.4900L234.0600 605.4900Q230.8200 605.4900 228.7950 606.7950Q226.7700 608.1000 225.7800 610.2600L225.7800 610.2600Q225.0600 611.4300 223.7100 611.4300L223.7100 611.4300L216.6000 611.4300Q215.6100 611.4300 215.1150 610.8900Q214.6200 610.3500 214.6200 609.4500L214.6200 609.4500Q214.7100 608.0100 215.8350 605.9400Q216.9600 603.8700 219.2550 601.9350Q221.5500 600 225.2400 598.6500Q228.9300 597.3000 234.1500 597.3000L234.1500 597.3000Q239.8200 597.3000 243.7350 598.6950Q247.6500 600.0900 249.9900 602.4300Q252.3300 604.7700 253.4100 607.9200Q254.4900 611.0700 254.4900 614.5800L254.4900 614.5800L254.4900 642.8400Q254.4900 643.7400 253.8600 644.3700Q253.2300 645 252.3300 645L252.3300 645L245.0400 645Q244.0500 645 243.4650 644.3700Q242.8800 643.7400 242.8800 642.8400L242.8800 642.8400L242.8800 639.3300Q241.7100 640.9500 239.7300 642.4800Q237.7500 644.0100 234.9150 644.9550Q232.0800 645.9000 228.2100 645.9000ZM231.2700 637.3500L231.2700 637.3500Q234.4200 637.3500 236.9850 636Q239.5500 634.6500 241.0350 631.8150Q242.5200 628.9800 242.5200 624.6600L242.5200 624.6600L242.5200 622.7700L233.5200 624.2100Q228.2100 625.0200 225.6000 626.8200Q222.9900 628.6200 222.9900 631.2300L222.9900 631.2300Q222.9900 633.2100 224.2050 634.6050Q225.4200 636 227.3100 636.6750Q229.2000 637.3500 231.2700 637.3500ZM289.2300 645L282.5700 645Q281.1300 645 280.4550 644.3250Q279.7800 643.6500 279.3300 642.7500L279.3300 642.7500L262.5000 600.9900Q262.3200 600.5400 262.3200 600.1800L262.3200 600.1800Q262.3200 599.3700 262.9050 598.7850Q263.4900 598.2000 264.3000 598.2000L264.3000 598.2000L271.5900 598.2000Q272.6700 598.2000 273.2100 598.7850Q273.7500 599.3700 273.9300 599.9100L273.9300 599.9100L285.9000 631.5000L297.8700 599.9100Q298.0500 599.3700 298.5900 598.7850Q299.1300 598.2000 300.2100 598.2000L300.2100 598.2000L307.5900 598.2000Q308.3100 598.2000 308.8950 598.7850Q309.4800 599.3700 309.4800 600.1800L309.4800 600.1800Q309.4800 600.5400 309.3900 600.9900L309.3900 600.9900L292.4700 642.7500Q292.1100 643.6500 291.3900 644.3250Q290.6700 645 289.2300 645L289.2300 645ZM331.2600 645.9000L331.2600 645.9000Q326.5800 645.9000 322.8000 644.0550Q319.0200 642.2100 316.8150 639.1050Q314.6100 636 314.6100 632.1300L314.6100 632.1300Q314.6100 625.8300 319.7400 622.0950Q324.8700 618.3600 333.1500 617.1000L333.1500 617.1000L345.4800 615.3000L345.4800 613.4100Q345.4800 609.6300 343.5900 607.5600Q341.7000 605.4900 337.1100 605.4900L337.1100 605.4900Q333.8700 605.4900 331.8450 606.7950Q329.8200 608.1000 328.8300 610.2600L328.8300 610.2600Q328.1100 611.4300 326.7600 611.4300L326.7600 611.4300L319.6500 611.4300Q318.6600 611.4300 318.1650 610.8900Q317.6700 610.3500 317.6700 609.4500L317.6700 609.4500Q317.7600 608.0100 318.8850 605.9400Q320.0100 603.8700 322.3050 601.9350Q324.6000 600 328.2900 598.6500Q331.9800 597.3000 337.2000 597.3000L337.2000 597.3000Q342.8700 597.3000 346.7850 598.6950Q350.7000 600.0900 353.0400 602.4300Q355.3800 604.7700 356.4600 607.9200Q357.5400 611.0700 357.5400 614.5800L357.5400 614.5800L357.5400 642.8400Q357.5400 643.7400 356.9100 644.3700Q356.2800 645 355.3800 645L355.3800 645L348.0900 645Q347.1000 645 346.5150 644.3700Q345.9300 643.7400 345.9300 642.8400L345.9300 642.8400L345.9300 639.3300Q344.7600 640.9500 342.7800 642.4800Q340.8000 644.0100 337.9650 644.9550Q335.1300 645.9000 331.2600 645.9000ZM334.3200 637.3500L334.3200 637.3500Q337.4700 637.3500 340.0350 636Q342.6000 634.6500 344.0850 631.8150Q345.5700 628.9800 345.5700 624.6600L345.5700 624.6600L345.5700 622.7700L336.5700 624.2100Q331.2600 625.0200 328.6500 626.8200Q326.0400 628.6200 326.0400 631.2300L326.0400 631.2300Q326.0400 633.2100 327.2550 634.6050Q328.4700 636 330.3600 636.6750Q332.2500 637.3500 334.3200 637.3500ZM392.0100 645.9000L392.0100 645.9000Q383.6400 645.9000 378.0150 643.4250Q372.3900 640.9500 369.4650 636.9450Q366.5400 632.9400 366.3600 628.5300L366.3600 628.5300Q366.3600 627.7200 366.9000 627.1800Q367.4400 626.6400 368.2500 626.6400L368.2500 626.6400L376.2600 626.6400Q377.4300 626.6400 378.0150 627.1350Q378.6000 627.6300 379.0500 628.3500L379.0500 628.3500Q379.5900 630.0600 381.1200 631.7250Q382.6500 633.3900 385.3050 634.4700Q387.9600 635.5500 392.0100 635.5500L392.0100 635.5500Q398.4900 635.5500 401.6850 633.3900Q404.8800 631.2300 404.8800 627.5400L404.8800 627.5400Q404.8800 624.9300 403.1700 623.3550Q401.4600 621.7800 397.9050 620.4750Q394.3500 619.1700 388.5000 617.7300L388.5000 617.7300Q381.7500 616.1100 377.2050 613.8150Q372.6600 611.5200 370.3650 608.0100Q368.0700 604.5000 368.0700 599.1000L368.0700 599.1000Q368.0700 593.8800 370.9050 589.8300Q373.7400 585.7800 379.0050 583.4400Q384.2700 581.1000 391.5600 581.1000L391.5600 581.1000Q397.4100 581.1000 401.9100 582.6750Q406.4100 584.2500 409.3800 586.8150Q412.3500 589.3800 413.9250 592.3050Q415.5000 595.2300 415.5900 598.0200L415.5900 598.0200Q415.5900 598.7400 415.0950 599.3250Q414.6000 599.9100 413.7000 599.9100L413.7000 599.9100L405.3300 599.9100Q404.6100 599.9100 403.8900 599.5500Q403.1700 599.1900 402.7200 598.2000L402.7200 598.2000Q402.1800 595.4100 399.2100 593.4300Q396.2400 591.4500 391.5600 591.4500L391.5600 591.4500Q386.7000 591.4500 383.7300 593.2500Q380.7600 595.0500 380.7600 598.8300L380.7600 598.8300Q380.7600 601.3500 382.2450 603.0150Q383.7300 604.6800 387.0150 605.9400Q390.3000 607.2000 395.7000 608.6400L395.7000 608.6400Q403.3500 610.3500 408.2100 612.6000Q413.0700 614.8500 415.3200 618.3150Q417.5700 621.7800 417.5700 627.0900L417.5700 627.0900Q417.5700 633.0300 414.3750 637.2150Q411.1800 641.4000 405.4200 643.6500Q399.6600 645.9000 392.0100 645.9000ZM447.0900 645.9000L447.0900 645.9000Q440.6100 645.9000 435.7050 643.4700Q430.8000 641.0400 428.0550 636.4050Q425.3100 631.7700 425.0400 625.2000L425.0400 625.2000Q424.9500 623.8500 424.9500 621.6450Q424.9500 619.4400 425.0400 618L425.0400 618Q425.3100 611.4300 428.0550 606.7950Q430.8000 602.1600 435.7050 599.7300Q440.6100 597.3000 447.0900 597.3000L447.0900 597.3000Q452.8500 597.3000 456.9000 598.8750Q460.9500 600.4500 463.5600 602.9250Q466.1700 605.4000 467.4750 608.0550Q468.7800 610.7100 468.8700 612.8700L468.8700 612.8700Q468.9600 613.8600 468.2850 614.4450Q467.6100 615.0300 466.7100 615.0300L466.7100 615.0300L458.7900 615.0300Q457.8900 615.0300 457.3950 614.5800Q456.9000 614.1300 456.4500 613.2300L456.4500 613.2300Q455.1000 609.6300 452.8950 608.1450Q450.6900 606.6600 447.2700 606.6600L447.2700 606.6600Q442.7700 606.6600 440.1150 609.4950Q437.4600 612.3300 437.2800 618.4500L437.2800 618.4500Q437.1000 621.8700 437.2800 624.7500L437.2800 624.7500Q437.4600 630.9600 440.1150 633.7500Q442.7700 636.5400 447.2700 636.5400L447.2700 636.5400Q450.7800 636.5400 452.9400 635.0550Q455.1000 633.5700 456.4500 629.9700L456.4500 629.9700Q456.9000 629.0700 457.3950 628.6200Q457.8900 628.1700 458.7900 628.1700L458.7900 628.1700L466.7100 628.1700Q467.6100 628.1700 468.2850 628.7550Q468.9600 629.3400 468.8700 630.3300L468.8700 630.3300Q468.7800 631.9500 468.0150 633.9750Q467.2500 636 465.5850 638.1150Q463.9200 640.2300 461.4000 641.9850Q458.8800 643.7400 455.3250 644.8200Q451.7700 645.9000 447.0900 645.9000ZM488.2200 645L480.3900 645Q479.4900 645 478.8600 644.3700Q478.2300 643.7400 478.2300 642.8400L478.2300 642.8400L478.2300 600.4500Q478.2300 599.4600 478.8600 598.8300Q479.4900 598.2000 480.3900 598.2000L480.3900 598.2000L487.6800 598.2000Q488.5800 598.2000 489.2550 598.8300Q489.9300 599.4600 489.9300 600.4500L489.9300 600.4500L489.9300 604.1400Q492.0000 601.2600 495.2850 599.7300Q498.5700 598.2000 502.8900 598.2000L502.8900 598.2000L506.5800 598.2000Q507.5700 598.2000 508.1550 598.8300Q508.7400 599.4600 508.7400 600.3600L508.7400 600.3600L508.7400 606.8400Q508.7400 607.7400 508.1550 608.3700Q507.5700 609 506.5800 609L506.5800 609L499.5600 609Q495.2400 609 492.8550 611.3850Q490.4700 613.7700 490.4700 618.0900L490.4700 618.0900L490.4700 642.8400Q490.4700 643.7400 489.8400 644.3700Q489.2100 645 488.2200 645L488.2200 645ZM525.3900 645L517.9200 645Q517.0200 645 516.3900 644.3700Q515.7600 643.7400 515.7600 642.8400L515.7600 642.8400L515.7600 600.3600Q515.7600 599.4600 516.3900 598.8300Q517.0200 598.2000 517.9200 598.2000L517.9200 598.2000L525.3900 598.2000Q526.3800 598.2000 526.9650 598.8300Q527.5500 599.4600 527.5500 600.3600L527.5500 600.3600L527.5500 642.8400Q527.5500 643.7400 526.9650 644.3700Q526.3800 645 525.3900 645L525.3900 645ZM525.7500 590.4600L517.5600 590.4600Q516.6600 590.4600 516.0300 589.8300Q515.4000 589.2000 515.4000 588.3000L515.4000 588.3000L515.4000 581.8200Q515.4000 580.9200 516.0300 580.2900Q516.6600 579.6600 517.5600 579.6600L517.5600 579.6600L525.7500 579.6600Q526.7400 579.6600 527.3700 580.2900Q528.0000 580.9200 528.0000 581.8200L528.0000 581.8200L528.0000 588.3000Q528.0000 589.2000 527.3700 589.8300Q526.7400 590.4600 525.7500 590.4600L525.7500 590.4600ZM549.4200 662.1000L541.7700 662.1000Q540.8700 662.1000 540.2400 661.4700Q539.6100 660.8400 539.6100 659.9400L539.6100 659.9400L539.6100 600.3600Q539.6100 599.4600 540.2400 598.8300Q540.8700 598.2000 541.7700 598.2000L541.7700 598.2000L548.8800 598.2000Q549.8700 598.2000 550.4550 598.8300Q551.0400 599.4600 551.0400 600.3600L551.0400 600.3600L551.0400 603.9600Q553.2000 601.0800 556.7100 599.1900Q560.2200 597.3000 565.4400 597.3000L565.4400 597.3000Q570.2100 597.3000 573.7200 598.8300Q577.2300 600.3600 579.5700 603.1950Q581.9100 606.0300 583.1700 609.9000Q584.4300 613.7700 584.6100 618.4500L584.6100 618.4500Q584.7000 619.9800 584.7000 621.6000Q584.7000 623.2200 584.6100 624.8400L584.6100 624.8400Q584.5200 629.3400 583.2600 633.1650Q582.0000 636.9900 579.6150 639.8250Q577.2300 642.6600 573.7200 644.2800Q570.2100 645.9000 565.4400 645.9000L565.4400 645.9000Q560.5800 645.9000 557.1600 644.1450Q553.7400 642.3900 551.5800 639.5100L551.5800 639.5100L551.5800 659.9400Q551.5800 660.8400 550.9950 661.4700Q550.4100 662.1000 549.4200 662.1000L549.4200 662.1000ZM562.1100 636.2700L562.1100 636.2700Q565.9800 636.2700 568.1400 634.6050Q570.3000 632.9400 571.2900 630.2400Q572.2800 627.5400 572.4600 624.3000L572.4600 624.3000Q572.5500 621.6000 572.4600 618.9000L572.4600 618.9000Q572.2800 615.6600 571.2900 612.9600Q570.3000 610.2600 568.1400 608.5950Q565.9800 606.9300 562.1100 606.9300L562.1100 606.9300Q558.4200 606.9300 556.1250 608.6400Q553.8300 610.3500 552.7950 613.0050Q551.7600 615.6600 551.5800 618.4500L551.5800 618.4500Q551.4900 620.0700 551.4900 621.8700Q551.4900 623.6700 551.5800 625.3800L551.5800 625.3800Q551.6700 628.0800 552.8400 630.5550Q554.0100 633.0300 556.2600 634.6500Q558.5100 636.2700 562.1100 636.2700ZM623.2200 645L615.9300 645Q610.5300 645 606.8400 643.1100Q603.1500 641.2200 601.3500 637.4850Q599.5500 633.7500 599.5500 628.1700L599.5500 628.1700L599.5500 607.7400L592.4400 607.7400Q591.5400 607.7400 590.9100 607.1100Q590.2800 606.4800 590.2800 605.4900L590.2800 605.4900L590.2800 600.3600Q590.2800 599.4600 590.9100 598.8300Q591.5400 598.2000 592.4400 598.2000L592.4400 598.2000L599.5500 598.2000L599.5500 583.2600Q599.5500 582.3600 600.1350 581.7300Q600.7200 581.1000 601.7100 581.1000L601.7100 581.1000L609.0000 581.1000Q609.9000 581.1000 610.5300 581.7300Q611.1600 582.3600 611.1600 583.2600L611.1600 583.2600L611.1600 598.2000L622.4100 598.2000Q623.3100 598.2000 623.9400 598.8300Q624.5700 599.4600 624.5700 600.3600L624.5700 600.3600L624.5700 605.4900Q624.5700 606.4800 623.9400 607.1100Q623.3100 607.7400 622.4100 607.7400L622.4100 607.7400L611.1600 607.7400L611.1600 627.2700Q611.1600 630.9600 612.4650 633.0300Q613.7700 635.1000 617.0100 635.1000L617.0100 635.1000L623.2200 635.1000Q624.1200 635.1000 624.7500 635.7300Q625.3800 636.3600 625.3800 637.2600L625.3800 637.2600L625.3800 642.8400Q625.3800 643.7400 624.7500 644.3700Q624.1200 645 623.2200 645L623.2200 645Z" id="title"/><path d="M1436.5600 652.4000L1436.5600 652.4000Q1415.9200 652.4000 1401.0400 644.6000Q1386.1600 636.8000 1378 623.4800Q1369.8400 610.1600 1369.8400 593.6000L1369.8400 593.6000Q1369.8400 586.1600 1371.7600 579.2000Q1373.6800 572.2400 1376.8000 566Q1379.9200 559.7600 1382.9200 554.8400Q1385.9200 549.9200 1388.3200 547.0400L1388.3200 547.0400L1432.2400 486.8000Q1433.2000 485.6000 1435.1200 483.8000Q1437.0400 482 1440.4000 482L1440.4000 482L1462.7200 482Q1464.8800 482 1466.3200 483.5600Q1467.7600 485.1200 1467.7600 487.2800L1467.7600 487.2800Q1467.7600 488.2400 1467.4000 489.0800Q1467.0400 489.9200 1466.5600 490.4000L1466.5600 490.4000L1432.9600 536.9600Q1435.1200 536.2400 1438 536Q1440.8800 535.7600 1443.2800 535.7600L1443.2800 535.7600Q1455.2800 536 1466.0800 540.4400Q1476.8800 544.8800 1485.0400 552.5600Q1493.2000 560.2400 1497.8800 570.5600Q1502.5600 580.8800 1502.5600 593.1200L1502.5600 593.1200Q1502.5600 608.9600 1494.6400 622.5200Q1486.7200 636.0800 1471.9600 644.2400Q1457.2000 652.4000 1436.5600 652.4000ZM1436.3200 624.8000L1436.3200 624.8000Q1444.9600 624.8000 1452.2800 621.2000Q1459.6000 617.6000 1464.1600 610.6400Q1468.7200 603.6800 1468.7200 593.3600L1468.7200 593.3600Q1468.7200 583.2800 1464.1600 576.3200Q1459.6000 569.3600 1452.2800 565.7600Q1444.9600 562.1600 1436.3200 562.1600L1436.3200 562.1600Q1427.6800 562.1600 1420.3600 565.7600Q1413.0400 569.3600 1408.4800 576.3200Q1403.9200 583.2800 1403.9200 593.3600L1403.9200 593.3600Q1403.9200 603.6800 1408.4800 610.6400Q1413.0400 617.6000 1420.3600 621.2000Q1427.6800 624.8000 1436.3200 624.8000ZM1554.6400 650L1530.6400 650Q1528.2400 650 1526.5600 648.3200Q1524.8800 646.6400 1524.8800 644.2400L1524.8800 644.2400L1524.8800 620.4800Q1524.8800 617.8400 1526.5600 616.1600Q1528.2400 614.4800 1530.6400 614.4800L1530.6400 614.4800L1554.6400 614.4800Q1557.0400 614.4800 1558.7200 616.1600Q1560.4000 617.8400 1560.4000 620.4800L1560.4000 620.4800L1560.4000 644.2400Q1560.4000 646.6400 1558.7200 648.3200Q1557.0400 650 1554.6400 650L1554.6400 650ZM1706.0800 650L1591.3600 650Q1588.9600 650 1587.2800 648.3200Q1585.6000 646.6400 1585.6000 644.2400L1585.6000 644.2400L1585.6000 632Q1585.6000 629.8400 1586.6800 626.8400Q1587.7600 623.8400 1591.6000 620.7200L1591.6000 620.7200L1629.5200 583.0400Q1645.3600 570.5600 1655.0800 561.8000Q1664.8000 553.0400 1669.2400 545.7200Q1673.6800 538.4000 1673.6800 531.2000L1673.6800 531.2000Q1673.6800 520.4000 1667.8000 513.6800Q1661.9200 506.9600 1649.2000 506.9600L1649.2000 506.9600Q1640.8000 506.9600 1635.0400 510.4400Q1629.2800 513.9200 1626.0400 519.6800Q1622.8000 525.4400 1621.6000 532.4000L1621.6000 532.4000Q1621.1200 535.5200 1618.9600 536.7200Q1616.8000 537.9200 1614.6400 537.9200L1614.6400 537.9200L1593.2800 537.9200Q1591.1200 537.9200 1589.6800 536.4800Q1588.2400 535.0400 1588.2400 533.1200L1588.2400 533.1200Q1588.4800 522.8000 1592.5600 513.0800Q1596.6400 503.3600 1604.4400 495.8000Q1612.2400 488.2400 1623.5200 483.6800Q1634.8000 479.1200 1648.9600 479.1200L1648.9600 479.1200Q1668.8800 479.1200 1681.9600 485.8400Q1695.0400 492.5600 1701.6400 504.0800Q1708.2400 515.6000 1708.2400 530L1708.2400 530Q1708.2400 541.2800 1703.9200 550.7600Q1699.6000 560.2400 1691.4400 569Q1683.2800 577.7600 1671.7600 586.8800L1671.7600 586.8800L1637.6800 621.4400L1706.0800 621.4400Q1708.7200 621.4400 1710.2800 623Q1711.8400 624.5600 1711.8400 627.2000L1711.8400 627.2000L1711.8400 644.2400Q1711.8400 646.6400 1710.2800 648.3200Q1708.7200 650 1706.0800 650L1706.0800 650Z" id="lecture-full-number"/></g></svg>