<svg xmlns="http://www.w3.org/2000/svg" version="1.1" xmlns:xlink="http://www.w3.org/1999/xlink" xmlns:svgjs="http://svgjs.dev/svgjs" viewBox="0 0 1920 1080" id="66be9973-1e34-47fa-afd0-1b209fd7cd57"><g><rect width="1920" height="1080" fill="#4e0250"/></g><g fill="#645986"><path d="M865 270L865 2467C258.907 2467 -232 1976.03 -232 1369.87C-232 760.965 258.907 270 865 270Z"/></g><g fill="#ffffff" opacity="0.2"><path d="M1829.66 1149.02C1826.52 1125.1 1822.11 1101.18 1817.7 1077.89L1577.22 1318.37H1660.32L1829.66 1149.02Z"/><path d="M1798.82 998.567C1793.15 977.163 1786.23 955.759 1779.3 934.984L1395.92 1319H1479.02L1798.82 998.567Z"/><path d="M1752.86 863.214C1744.68 843.698 1736.5 824.183 1727.68 805.297L1214.61 1319H1297.71L1752.86 863.214Z"/><path d="M1694.32 739.83C1684.88 722.203 1674.17 704.576 1664.1 686.949L1147.89 1203.8C1152.92 1227.72 1156.7 1251.64 1158.59 1276.19L1694.32 739.83Z"/><path d="M1625.07 627.77C1613.73 611.402 1601.77 595.664 1589.81 579.926L1098.78 1071.59C1108.22 1089.85 1117.03 1109.36 1124.59 1128.88L1625.07 627.77Z"/><path d="M1546.38 525.789C1533.79 510.68 1520.57 496.201 1506.72 482.352L1025.12 964.574C1038.35 979.053 1050.31 994.791 1061.64 1011.16L1546.38 525.789Z"/><path d="M1457.61 433.249C1443.13 420.029 1428.65 406.809 1413.54 394.219L928.802 879.589C945.17 890.92 960.908 902.881 975.387 916.101L1457.61 433.249Z"/><path d="M1358.78 350.148C1343.04 338.187 1326.67 326.855 1310.3 315.523L808.564 817.891C828.709 825.445 847.595 833.629 866.481 843.072L1358.78 350.148Z"/><path d="M1251.12 276.495C1233.5 265.793 1215.87 255.72 1198.24 246.277L659.364 785.787C684.545 787.046 709.097 790.194 733.019 795.23L1251.12 276.495Z"/><path d="M1132.14 214.166C1113.26 205.352 1093.74 197.168 1074.23 188.984L626.627 637.212V720.31L1132.14 214.166Z"/><path d="M1001.83 163.175C980.427 156.25 959.023 149.955 937.619 144.289L626 455.908V539.006L1001.83 163.175Z"/><path d="M857.666 126.035C834.373 121.628 810.451 117.851 786.529 114.074L626.627 274.605V357.703L857.666 126.035Z"/><path d="M626.626 176.396L697.134 105.889C673.841 104.629 650.548 104 626.626 104V176.396Z"/></g><g><path d="M178.635 139.281L184.422 144.246V166.626H215.704L219.958 172.147L215.69 177.397H184.422V198.795L178.635 203.747L173 198.795V144.232L178.635 139.281ZM195.554 195.68H219.406L223.397 200.915L219.143 206.45H195.554L191.7 201.342L195.554 195.68ZM196.382 138H219.129L223.383 143.52L219.129 148.77H196.659L192.115 143.677L196.382 138ZM323.155 148.628L328.251 154.291L323.155 159.968H246.13L241.172 154.291L246.13 148.628H323.155ZM237.043 172.147L241.849 167.893L246.669 172.147V178.393C246.669 188.879 249.417 197.515 261.668 197.515H264.14C275.147 197.515 281.197 189.86 281.197 177.952V172.005L285.879 167.75L290.699 171.862V178.379C290.699 189.007 293.723 196.946 305.56 196.946H307.618C319.178 196.946 321.235 187.869 321.373 177.952V171.578L326.056 167.608L331 171.72V178.094C330.862 191.838 327.285 207.574 308.032 207.574H305.974C294.552 207.574 288.365 202.324 285.892 195.808C283.006 202.466 275.299 208.286 264.844 208.286H262.358C242.553 208.286 237.194 195.964 237.056 178.663V172.147H237.043ZM276.391 274.744L273.642 267.089L280.796 264.969L305.974 276.721V252.491L311.07 248.095L316.291 252.491V281.829L325.641 286.226L328.251 293.311L320.959 296L276.391 274.744ZM321.235 223.011L328.113 226.27L325.917 233.497L264.002 263.119L256.571 260.146L259.596 252.776L321.235 223.011ZM231.905 263.404L237.954 268.512C237.402 286.51 222.403 296 204.669 296H202.874C194.062 296 183.759 292.6 177.157 286.083L177.834 278.855L184.298 278.002C189.118 282.256 195.858 285.229 202.183 285.229H204.117C216.091 285.229 225.303 280.136 226.27 268.085L231.905 263.404ZM226.256 251.638C225.704 239.16 216.629 234.209 204.103 234.209H202.169C194.739 234.209 189.104 237.182 184.284 241.436L177.834 240.583L177.143 233.355C183.745 226.696 192.957 223.58 202.597 223.58H204.517C222.403 223.58 237.402 232.942 237.94 251.211L231.891 256.176L226.256 251.638Z" fill="#ffffff"/></g><path d="M1171 781L1171 339L1187 339L1187 781L1171 781Z" fill="#ffffff"/><g fill="#ffffff" id="info-group"><path d="M167.6400 555L159.1800 555Q158.2800 555 157.6500 554.3700Q157.0200 553.7400 157.0200 552.8400L157.0200 552.8400L157.0200 494.1600Q157.0200 493.2600 157.6500 492.6300Q158.2800 492 159.1800 492L159.1800 492L167.6400 492Q168.6300 492 169.2150 492.6300Q169.8000 493.2600 169.8000 494.1600L169.8000 494.1600L169.8000 552.8400Q169.8000 553.7400 169.2150 554.3700Q168.6300 555 167.6400 555L167.6400 555ZM192.9300 555L185.0100 555Q184.1100 555 183.4800 554.3700Q182.8500 553.7400 182.8500 552.8400L182.8500 552.8400L182.8500 510.3600Q182.8500 509.4600 183.4800 508.8300Q184.1100 508.2000 185.0100 508.2000L185.0100 508.2000L192.3900 508.2000Q193.2900 508.2000 193.9200 508.8300Q194.5500 509.4600 194.5500 510.3600L194.5500 510.3600L194.5500 514.0500Q196.8900 511.1700 200.5350 509.2350Q204.1800 507.3000 209.5800 507.3000L209.5800 507.3000Q215.0700 507.3000 219.1200 509.7750Q223.1700 512.2500 225.3750 516.7500Q227.5800 521.2500 227.5800 527.5500L227.5800 527.5500L227.5800 552.8400Q227.5800 553.7400 226.9500 554.3700Q226.3200 555 225.4200 555L225.4200 555L217.5000 555Q216.6000 555 215.9700 554.3700Q215.3400 553.7400 215.3400 552.8400L215.3400 552.8400L215.3400 528.0900Q215.3400 522.8700 212.7750 519.9000Q210.2100 516.9300 205.3500 516.9300L205.3500 516.9300Q200.6700 516.9300 197.8800 519.9000Q195.0900 522.8700 195.0900 528.0900L195.0900 528.0900L195.0900 552.8400Q195.0900 553.7400 194.4600 554.3700Q193.8300 555 192.9300 555L192.9300 555ZM267.4500 555L260.1600 555Q254.7600 555 251.0700 553.1100Q247.3800 551.2200 245.5800 547.4850Q243.7800 543.7500 243.7800 538.1700L243.7800 538.1700L243.7800 517.7400L236.6700 517.7400Q235.7700 517.7400 235.1400 517.1100Q234.5100 516.4800 234.5100 515.4900L234.5100 515.4900L234.5100 510.3600Q234.5100 509.4600 235.1400 508.8300Q235.7700 508.2000 236.6700 508.2000L236.6700 508.2000L243.7800 508.2000L243.7800 493.2600Q243.7800 492.3600 244.3650 491.7300Q244.9500 491.1000 245.9400 491.1000L245.9400 491.1000L253.2300 491.1000Q254.1300 491.1000 254.7600 491.7300Q255.3900 492.3600 255.3900 493.2600L255.3900 493.2600L255.3900 508.2000L266.6400 508.2000Q267.5400 508.2000 268.1700 508.8300Q268.8000 509.4600 268.8000 510.3600L268.8000 510.3600L268.8000 515.4900Q268.8000 516.4800 268.1700 517.1100Q267.5400 517.7400 266.6400 517.7400L266.6400 517.7400L255.3900 517.7400L255.3900 537.2700Q255.3900 540.9600 256.6950 543.0300Q258 545.1000 261.2400 545.1000L261.2400 545.1000L267.4500 545.1000Q268.3500 545.1000 268.9800 545.7300Q269.6100 546.3600 269.6100 547.2600L269.6100 547.2600L269.6100 552.8400Q269.6100 553.7400 268.9800 554.3700Q268.3500 555 267.4500 555L267.4500 555ZM297.7800 555.9000L297.7800 555.9000Q287.7900 555.9000 281.9400 550.1400Q276.0900 544.3800 275.6400 533.7600L275.6400 533.7600Q275.5500 532.8600 275.5500 531.4650Q275.5500 530.0700 275.6400 529.2600L275.6400 529.2600Q276 522.4200 278.7450 517.5150Q281.4900 512.6100 286.3500 509.9550Q291.2100 507.3000 297.7800 507.3000L297.7800 507.3000Q305.0700 507.3000 310.0200 510.3150Q314.9700 513.3300 317.4900 518.6850Q320.0100 524.0400 320.0100 531.0600L320.0100 531.0600L320.0100 532.9500Q320.0100 533.8500 319.3800 534.4800Q318.7500 535.1100 317.7600 535.1100L317.7600 535.1100L287.8800 535.1100Q287.8800 535.1100 287.8800 535.3800Q287.8800 535.6500 287.8800 535.8300L287.8800 535.8300Q287.9700 538.9800 289.0950 541.6350Q290.2200 544.2900 292.4250 545.9100Q294.6300 547.5300 297.6900 547.5300L297.6900 547.5300Q300.2100 547.5300 301.9200 546.7650Q303.6300 546 304.7100 545.0100Q305.7900 544.0200 306.2400 543.3900L306.2400 543.3900Q307.0500 542.3100 307.5450 542.0850Q308.0400 541.8600 309.0300 541.8600L309.0300 541.8600L316.7700 541.8600Q317.6700 541.8600 318.2550 542.4000Q318.8400 542.9400 318.7500 543.7500L318.7500 543.7500Q318.6600 545.1900 317.2650 547.2600Q315.8700 549.3300 313.2600 551.3100Q310.6500 553.2900 306.7350 554.5950Q302.8200 555.9000 297.7800 555.9000ZM287.8800 527.2800L287.8800 527.5500L307.7700 527.5500L307.7700 527.2800Q307.7700 523.7700 306.6000 521.1150Q305.4300 518.4600 303.1800 516.9750Q300.9300 515.4900 297.7800 515.4900L297.7800 515.4900Q294.6300 515.4900 292.3800 516.9750Q290.1300 518.4600 289.0050 521.1150Q287.8800 523.7700 287.8800 527.2800L287.8800 527.2800ZM350.7000 574.8000L350.7000 574.8000Q344.1300 574.8000 339.9000 573.0900Q335.6700 571.3800 333.2400 568.9500Q330.8100 566.5200 329.7750 564.1350Q328.7400 561.7500 328.6500 560.4000L328.6500 560.4000Q328.5600 559.5000 329.2350 558.8250Q329.9100 558.1500 330.8100 558.1500L330.8100 558.1500L338.6400 558.1500Q339.5400 558.1500 340.0800 558.5550Q340.6200 558.9600 340.9800 560.0400L340.9800 560.0400Q341.5200 561.2100 342.4200 562.5600Q343.3200 563.9100 345.1650 564.8550Q347.0100 565.8000 350.2500 565.8000L350.2500 565.8000Q353.6700 565.8000 356.0100 564.8100Q358.3500 563.8200 359.5650 561.4800Q360.7800 559.1400 360.7800 555L360.7800 555L360.7800 548.8800Q358.6200 551.4900 355.2450 553.1100Q351.8700 554.7300 346.9200 554.7300L346.9200 554.7300Q342.1500 554.7300 338.5950 553.1550Q335.0400 551.5800 332.7000 548.7450Q330.3600 545.9100 329.1450 542.0400Q327.9300 538.1700 327.7500 533.4900L327.7500 533.4900Q327.6600 531.0600 327.7500 528.6300L327.7500 528.6300Q327.9300 524.1300 329.1450 520.2600Q330.3600 516.3900 332.7000 513.4650Q335.0400 510.5400 338.5950 508.9200Q342.1500 507.3000 346.9200 507.3000L346.9200 507.3000Q352.0500 507.3000 355.5600 509.2350Q359.0700 511.1700 361.3200 514.0500L361.3200 514.0500L361.3200 510.4500Q361.3200 509.4600 361.9500 508.8300Q362.5800 508.2000 363.4800 508.2000L363.4800 508.2000L370.7700 508.2000Q371.6700 508.2000 372.3000 508.8300Q372.9300 509.4600 372.9300 510.4500L372.9300 510.4500L373.0200 553.8300Q373.0200 560.3100 370.5900 564.9900Q368.1600 569.6700 363.2550 572.2350Q358.3500 574.8000 350.7000 574.8000ZM350.2500 545.1900L350.2500 545.1900Q353.9400 545.1900 356.1900 543.5700Q358.4400 541.9500 359.5200 539.3400Q360.6000 536.7300 360.7800 534.0300L360.7800 534.0300Q360.8700 532.8600 360.8700 531.0600Q360.8700 529.2600 360.7800 528.1800L360.7800 528.1800Q360.6000 525.3900 359.5200 522.8250Q358.4400 520.2600 356.1900 518.5950Q353.9400 516.9300 350.2500 516.9300L350.2500 516.9300Q346.5600 516.9300 344.3100 518.5950Q342.0600 520.2600 341.1150 522.9600Q340.1700 525.6600 339.9900 528.9000L339.9900 528.9000Q339.8100 531.0600 339.9900 533.3100L339.9900 533.3100Q340.1700 536.4600 341.1150 539.2050Q342.0600 541.9500 344.3100 543.5700Q346.5600 545.1900 350.2500 545.1900ZM394.9800 555L387.1500 555Q386.2500 555 385.6200 554.3700Q384.9900 553.7400 384.9900 552.8400L384.9900 552.8400L384.9900 510.4500Q384.9900 509.4600 385.6200 508.8300Q386.2500 508.2000 387.1500 508.2000L387.1500 508.2000L394.4400 508.2000Q395.3400 508.2000 396.0150 508.8300Q396.6900 509.4600 396.6900 510.4500L396.6900 510.4500L396.6900 514.1400Q398.7600 511.2600 402.0450 509.7300Q405.3300 508.2000 409.6500 508.2000L409.6500 508.2000L413.3400 508.2000Q414.3300 508.2000 414.9150 508.8300Q415.5000 509.4600 415.5000 510.3600L415.5000 510.3600L415.5000 516.8400Q415.5000 517.7400 414.9150 518.3700Q414.3300 519 413.3400 519L413.3400 519L406.3200 519Q402 519 399.6150 521.3850Q397.2300 523.7700 397.2300 528.0900L397.2300 528.0900L397.2300 552.8400Q397.2300 553.7400 396.6000 554.3700Q395.9700 555 394.9800 555L394.9800 555ZM436.1100 555.9000L436.1100 555.9000Q431.4300 555.9000 427.6500 554.0550Q423.8700 552.2100 421.6650 549.1050Q419.4600 546 419.4600 542.1300L419.4600 542.1300Q419.4600 535.8300 424.5900 532.0950Q429.7200 528.3600 438.0000 527.1000L438.0000 527.1000L450.3300 525.3000L450.3300 523.4100Q450.3300 519.6300 448.4400 517.5600Q446.5500 515.4900 441.9600 515.4900L441.9600 515.4900Q438.7200 515.4900 436.6950 516.7950Q434.6700 518.1000 433.6800 520.2600L433.6800 520.2600Q432.9600 521.4300 431.6100 521.4300L431.6100 521.4300L424.5000 521.4300Q423.5100 521.4300 423.0150 520.8900Q422.5200 520.3500 422.5200 519.4500L422.5200 519.4500Q422.6100 518.0100 423.7350 515.9400Q424.8600 513.8700 427.1550 511.9350Q429.4500 510 433.1400 508.6500Q436.8300 507.3000 442.0500 507.3000L442.0500 507.3000Q447.7200 507.3000 451.6350 508.6950Q455.5500 510.0900 457.8900 512.4300Q460.2300 514.7700 461.3100 517.9200Q462.3900 521.0700 462.3900 524.5800L462.3900 524.5800L462.3900 552.8400Q462.3900 553.7400 461.7600 554.3700Q461.1300 555 460.2300 555L460.2300 555L452.9400 555Q451.9500 555 451.3650 554.3700Q450.7800 553.7400 450.7800 552.8400L450.7800 552.8400L450.7800 549.3300Q449.6100 550.9500 447.6300 552.4800Q445.6500 554.0100 442.8150 554.9550Q439.9800 555.9000 436.1100 555.9000ZM439.1700 547.3500L439.1700 547.3500Q442.3200 547.3500 444.8850 546Q447.4500 544.6500 448.9350 541.8150Q450.4200 538.9800 450.4200 534.6600L450.4200 534.6600L450.4200 532.7700L441.4200 534.2100Q436.1100 535.0200 433.5000 536.8200Q430.8900 538.6200 430.8900 541.2300L430.8900 541.2300Q430.8900 543.2100 432.1050 544.6050Q433.3200 546 435.2100 546.6750Q437.1000 547.3500 439.1700 547.3500ZM483.9900 555L476.0700 555Q475.1700 555 474.5400 554.3700Q473.9100 553.7400 473.9100 552.8400L473.9100 552.8400L473.9100 510.3600Q473.9100 509.4600 474.5400 508.8300Q475.1700 508.2000 476.0700 508.2000L476.0700 508.2000L483.4500 508.2000Q484.3500 508.2000 484.9800 508.8300Q485.6100 509.4600 485.6100 510.3600L485.6100 510.3600L485.6100 514.0500Q487.9500 511.1700 491.5950 509.2350Q495.2400 507.3000 500.6400 507.3000L500.6400 507.3000Q506.1300 507.3000 510.1800 509.7750Q514.2300 512.2500 516.4350 516.7500Q518.6400 521.2500 518.6400 527.5500L518.6400 527.5500L518.6400 552.8400Q518.6400 553.7400 518.0100 554.3700Q517.3800 555 516.4800 555L516.4800 555L508.5600 555Q507.6600 555 507.0300 554.3700Q506.4000 553.7400 506.4000 552.8400L506.4000 552.8400L506.4000 528.0900Q506.4000 522.8700 503.8350 519.9000Q501.2700 516.9300 496.4100 516.9300L496.4100 516.9300Q491.7300 516.9300 488.9400 519.9000Q486.1500 522.8700 486.1500 528.0900L486.1500 528.0900L486.1500 552.8400Q486.1500 553.7400 485.5200 554.3700Q484.8900 555 483.9900 555L483.9900 555ZM547.4400 555.9000L547.4400 555.9000Q542.7600 555.9000 539.2050 554.3250Q535.6500 552.7500 533.3100 549.8700Q530.9700 546.9900 529.7100 543.0750Q528.4500 539.1600 528.2700 534.4800L528.2700 534.4800Q528.1800 532.8600 528.1800 531.5550Q528.1800 530.2500 528.2700 528.6300L528.2700 528.6300Q528.4500 524.1300 529.6650 520.2600Q530.8800 516.3900 533.2650 513.4650Q535.6500 510.5400 539.2050 508.9200Q542.7600 507.3000 547.4400 507.3000L547.4400 507.3000Q552.3000 507.3000 555.6750 508.9650Q559.0500 510.6300 561.3000 513.2400L561.3000 513.2400L561.3000 493.2600Q561.3000 492.3600 561.8850 491.7300Q562.4700 491.1000 563.4600 491.1000L563.4600 491.1000L571.1100 491.1000Q572.0100 491.1000 572.6400 491.7300Q573.2700 492.3600 573.2700 493.2600L573.2700 493.2600L573.2700 552.8400Q573.2700 553.7400 572.6400 554.3700Q572.0100 555 571.1100 555L571.1100 555L564 555Q563.0100 555 562.4250 554.3700Q561.8400 553.7400 561.8400 552.8400L561.8400 552.8400L561.8400 549.5100Q559.5900 552.3000 556.1250 554.1000Q552.6600 555.9000 547.4400 555.9000ZM550.7700 546.2700L550.7700 546.2700Q554.5500 546.2700 556.8000 544.5600Q559.0500 542.8500 560.1300 540.1950Q561.2100 537.5400 561.3000 534.7500L561.3000 534.7500Q561.3900 533.1300 561.3900 531.2850Q561.3900 529.4400 561.3000 527.8200L561.3000 527.8200Q561.2100 525.1200 560.0400 522.6450Q558.8700 520.1700 556.6200 518.5500Q554.3700 516.9300 550.7700 516.9300L550.7700 516.9300Q546.9900 516.9300 544.7850 518.5950Q542.5800 520.2600 541.5900 522.9600Q540.6000 525.6600 540.4200 528.9000L540.4200 528.9000Q540.3300 531.6000 540.4200 534.3000L540.4200 534.3000Q540.6000 537.5400 541.5900 540.2400Q542.5800 542.9400 544.7850 544.6050Q546.9900 546.2700 550.7700 546.2700ZM605.9400 555.9000L605.9400 555.9000Q598.7400 555.9000 593.8350 553.3800Q588.9300 550.8600 586.3650 546.2700Q583.8000 541.6800 583.4400 535.5600L583.4400 535.5600Q583.3500 533.9400 583.3500 531.6000Q583.3500 529.2600 583.4400 527.6400L583.4400 527.6400Q583.8000 521.4300 586.4550 516.8850Q589.1100 512.3400 594.0150 509.8200Q598.9200 507.3000 605.9400 507.3000L605.9400 507.3000Q612.9600 507.3000 617.8650 509.8200Q622.7700 512.3400 625.4250 516.8850Q628.0800 521.4300 628.4400 527.6400L628.4400 527.6400Q628.5300 529.2600 628.5300 531.6000Q628.5300 533.9400 628.4400 535.5600L628.4400 535.5600Q628.0800 541.6800 625.5150 546.2700Q622.9500 550.8600 618.0450 553.3800Q613.1400 555.9000 605.9400 555.9000ZM605.9400 546.9900L605.9400 546.9900Q610.7100 546.9900 613.3200 543.9750Q615.9300 540.9600 616.2000 535.1100L616.2000 535.1100Q616.2900 533.7600 616.2900 531.6000Q616.2900 529.4400 616.2000 528.0900L616.2000 528.0900Q615.9300 522.2400 613.3200 519.2250Q610.7100 516.2100 605.9400 516.2100L605.9400 516.2100Q601.1700 516.2100 598.5600 519.2250Q595.9500 522.2400 595.6800 528.0900L595.6800 528.0900Q595.5900 529.4400 595.5900 531.6000Q595.5900 533.7600 595.6800 535.1100L595.6800 535.1100Q595.9500 540.9600 598.5600 543.9750Q601.1700 546.9900 605.9400 546.9900ZM670.5600 555L662.3700 555Q661.4700 555 660.8400 554.4150Q660.2100 553.8300 660.2100 552.8400L660.2100 552.8400L660.2100 494.2500Q660.2100 493.2600 660.8400 492.6300Q661.4700 492 662.3700 492L662.3700 492L670.5600 492Q671.5500 492 672.1350 492.6300Q672.7200 493.2600 672.7200 494.2500L672.7200 494.2500L672.7200 517.4700L699.2700 517.4700L699.2700 494.2500Q699.2700 493.2600 699.9000 492.6300Q700.5300 492 701.4300 492L701.4300 492L709.5300 492Q710.5200 492 711.1500 492.6300Q711.7800 493.2600 711.7800 494.2500L711.7800 494.2500L711.7800 552.8400Q711.7800 553.7400 711.1500 554.3700Q710.5200 555 709.5300 555L709.5300 555L701.4300 555Q700.5300 555 699.9000 554.3700Q699.2700 553.7400 699.2700 552.8400L699.2700 552.8400L699.2700 528.7200L672.7200 528.7200L672.7200 552.8400Q672.7200 553.7400 672.1350 554.3700Q671.5500 555 670.5600 555L670.5600 555ZM750.1200 555L741.8400 555Q740.9400 555 740.3100 554.3700Q739.6800 553.7400 739.6800 552.8400L739.6800 552.8400L739.6800 503.0700L723.0300 503.0700Q722.1300 503.0700 721.5000 502.4400Q720.8700 501.8100 720.8700 500.9100L720.8700 500.9100L720.8700 494.2500Q720.8700 493.2600 721.5000 492.6300Q722.1300 492 723.0300 492L723.0300 492L768.9300 492Q769.9200 492 770.5500 492.6300Q771.1800 493.2600 771.1800 494.2500L771.1800 494.2500L771.1800 500.9100Q771.1800 501.8100 770.5500 502.4400Q769.9200 503.0700 768.9300 503.0700L768.9300 503.0700L752.3700 503.0700L752.3700 552.8400Q752.3700 553.7400 751.7400 554.3700Q751.1100 555 750.1200 555L750.1200 555ZM790.0800 555L782.5200 555Q781.5300 555 780.9000 554.3700Q780.2700 553.7400 780.2700 552.8400L780.2700 552.8400L780.2700 494.2500Q780.2700 493.2600 780.9000 492.6300Q781.5300 492 782.5200 492L782.5200 492L789.6300 492Q790.8900 492 791.5200 492.6750Q792.1500 493.3500 792.3300 493.7100L792.3300 493.7100L809.7000 526.1100L827.2500 493.7100Q827.4300 493.3500 828.0600 492.6750Q828.6900 492 829.9500 492L829.9500 492L836.9700 492Q837.9600 492 838.5900 492.6300Q839.2200 493.2600 839.2200 494.2500L839.2200 494.2500L839.2200 552.8400Q839.2200 553.7400 838.5900 554.3700Q837.9600 555 836.9700 555L836.9700 555L829.4100 555Q828.4200 555 827.8350 554.3700Q827.2500 553.7400 827.2500 552.8400L827.2500 552.8400L827.2500 513.8700L814.6500 537.9000Q814.2000 538.7100 813.4800 539.2950Q812.7600 539.8800 811.5900 539.8800L811.5900 539.8800L807.9000 539.8800Q806.6400 539.8800 805.9650 539.2950Q805.2900 538.7100 804.8400 537.9000L804.8400 537.9000L792.2400 513.8700L792.2400 552.8400Q792.2400 553.7400 791.6100 554.3700Q790.9800 555 790.0800 555L790.0800 555ZM894.4800 555L855.4200 555Q854.5200 555 853.8900 554.3700Q853.2600 553.7400 853.2600 552.8400L853.2600 552.8400L853.2600 494.1600Q853.2600 493.2600 853.8900 492.6300Q854.5200 492 855.4200 492L855.4200 492L863.7900 492Q864.6900 492 865.3200 492.6300Q865.9500 493.2600 865.9500 494.1600L865.9500 494.1600L865.9500 544.2900L894.4800 544.2900Q895.4700 544.2900 896.1000 544.9200Q896.7300 545.5500 896.7300 546.5400L896.7300 546.5400L896.7300 552.8400Q896.7300 553.7400 896.1000 554.3700Q895.4700 555 894.4800 555L894.4800 555ZM945.2400 555.9000L945.2400 555.9000Q938.7600 555.9000 933.8550 553.4700Q928.9500 551.0400 926.2050 546.4050Q923.4600 541.7700 923.1900 535.2000L923.1900 535.2000Q923.1000 533.8500 923.1000 531.6450Q923.1000 529.4400 923.1900 528L923.1900 528Q923.4600 521.4300 926.2050 516.7950Q928.9500 512.1600 933.8550 509.7300Q938.7600 507.3000 945.2400 507.3000L945.2400 507.3000Q951.0000 507.3000 955.0500 508.8750Q959.1000 510.4500 961.7100 512.9250Q964.3200 515.4000 965.6250 518.0550Q966.9300 520.7100 967.0200 522.8700L967.0200 522.8700Q967.1100 523.8600 966.4350 524.4450Q965.7600 525.0300 964.8600 525.0300L964.8600 525.0300L956.9400 525.0300Q956.0400 525.0300 955.5450 524.5800Q955.0500 524.1300 954.6000 523.2300L954.6000 523.2300Q953.2500 519.6300 951.0450 518.1450Q948.8400 516.6600 945.4200 516.6600L945.4200 516.6600Q940.9200 516.6600 938.2650 519.4950Q935.6100 522.3300 935.4300 528.4500L935.4300 528.4500Q935.2500 531.8700 935.4300 534.7500L935.4300 534.7500Q935.6100 540.9600 938.2650 543.7500Q940.9200 546.5400 945.4200 546.5400L945.4200 546.5400Q948.9300 546.5400 951.0900 545.0550Q953.2500 543.5700 954.6000 539.9700L954.6000 539.9700Q955.0500 539.0700 955.5450 538.6200Q956.0400 538.1700 956.9400 538.1700L956.9400 538.1700L964.8600 538.1700Q965.7600 538.1700 966.4350 538.7550Q967.1100 539.3400 967.0200 540.3300L967.0200 540.3300Q966.9300 541.9500 966.1650 543.9750Q965.4000 546 963.7350 548.1150Q962.0700 550.2300 959.5500 551.9850Q957.0300 553.7400 953.4750 554.8200Q949.9200 555.9000 945.2400 555.9000ZM997.0800 555.9000L997.0800 555.9000Q989.8800 555.9000 984.9750 553.3800Q980.0700 550.8600 977.5050 546.2700Q974.9400 541.6800 974.5800 535.5600L974.5800 535.5600Q974.4900 533.9400 974.4900 531.6000Q974.4900 529.2600 974.5800 527.6400L974.5800 527.6400Q974.9400 521.4300 977.5950 516.8850Q980.2500 512.3400 985.1550 509.8200Q990.0600 507.3000 997.0800 507.3000L997.0800 507.3000Q1004.1000 507.3000 1009.0050 509.8200Q1013.9100 512.3400 1016.5650 516.8850Q1019.2200 521.4300 1019.5800 527.6400L1019.5800 527.6400Q1019.6700 529.2600 1019.6700 531.6000Q1019.6700 533.9400 1019.5800 535.5600L1019.5800 535.5600Q1019.2200 541.6800 1016.6550 546.2700Q1014.0900 550.8600 1009.1850 553.3800Q1004.2800 555.9000 997.0800 555.9000ZM997.0800 546.9900L997.0800 546.9900Q1001.8500 546.9900 1004.4600 543.9750Q1007.0700 540.9600 1007.3400 535.1100L1007.3400 535.1100Q1007.4300 533.7600 1007.4300 531.6000Q1007.4300 529.4400 1007.3400 528.0900L1007.3400 528.0900Q1007.0700 522.2400 1004.4600 519.2250Q1001.8500 516.2100 997.0800 516.2100L997.0800 516.2100Q992.3100 516.2100 989.7000 519.2250Q987.0900 522.2400 986.8200 528.0900L986.8200 528.0900Q986.7300 529.4400 986.7300 531.6000Q986.7300 533.7600 986.8200 535.1100L986.8200 535.1100Q987.0900 540.9600 989.7000 543.9750Q992.3100 546.9900 997.0800 546.9900ZM1039.3800 555L1031.8200 555Q1030.9200 555 1030.2900 554.3700Q1029.6600 553.7400 1029.6600 552.8400L1029.6600 552.8400L1029.6600 510.3600Q1029.6600 509.4600 1030.2900 508.8300Q1030.9200 508.2000 1031.8200 508.2000L1031.8200 508.2000L1038.8400 508.2000Q1039.7400 508.2000 1040.3700 508.8300Q1041 509.4600 1041 510.3600L1041 510.3600L1041 513.4200Q1042.8900 510.9000 1046.0850 509.1450Q1049.2800 507.3900 1053.6900 507.3000L1053.6900 507.3000Q1063.9500 507.1200 1068 515.3100L1068 515.3100Q1070.0700 511.7100 1073.9850 509.5050Q1077.9000 507.3000 1082.6700 507.3000L1082.6700 507.3000Q1087.3500 507.3000 1091.1750 509.4600Q1095 511.6200 1097.2050 515.9850Q1099.4100 520.3500 1099.4100 527.0100L1099.4100 527.0100L1099.4100 552.8400Q1099.4100 553.7400 1098.7800 554.3700Q1098.1500 555 1097.2500 555L1097.2500 555L1089.8700 555Q1088.9700 555 1088.3400 554.3700Q1087.7100 553.7400 1087.7100 552.8400L1087.7100 552.8400L1087.7100 527.7300Q1087.7100 523.6800 1086.5400 521.2950Q1085.3700 518.9100 1083.3900 517.9200Q1081.4100 516.9300 1078.9800 516.9300L1078.9800 516.9300Q1077 516.9300 1075.0200 517.9200Q1073.0400 518.9100 1071.7800 521.2950Q1070.5200 523.6800 1070.5200 527.7300L1070.5200 527.7300L1070.5200 552.8400Q1070.5200 553.7400 1069.8900 554.3700Q1069.2600 555 1068.3600 555L1068.3600 555L1060.9800 555Q1060.0800 555 1059.4500 554.3700Q1058.8200 553.7400 1058.8200 552.8400L1058.8200 552.8400L1058.8200 527.7300Q1058.8200 523.6800 1057.5600 521.2950Q1056.3000 518.9100 1054.3200 517.9200Q1052.3400 516.9300 1050.0900 516.9300L1050.0900 516.9300Q1048.0200 516.9300 1046.0400 517.9650Q1044.0600 519 1042.8000 521.3400Q1041.5400 523.6800 1041.5400 527.7300L1041.5400 527.7300L1041.5400 552.8400Q1041.5400 553.7400 1040.9100 554.3700Q1040.2800 555 1039.3800 555L1039.3800 555ZM177.3600 645.9000L177.3600 645.9000Q172.5000 645.9000 168.1350 644.6850Q163.7700 643.4700 160.3500 640.9500Q156.9300 638.4300 154.9050 634.7400Q152.8800 631.0500 152.7900 626.0100L152.7900 626.0100Q152.7900 625.2000 153.3300 624.6150Q153.8700 624.0300 154.6800 624.0300L154.6800 624.0300L163.2300 624.0300Q164.4000 624.0300 164.9850 624.6600Q165.5700 625.2900 165.9300 626.3700L165.9300 626.3700Q166.3800 629.6100 168 631.6350Q169.6200 633.6600 172.0950 634.6050Q174.5700 635.5500 177.6300 635.5500L177.6300 635.5500Q183.3000 635.5500 186.3150 631.8600Q189.3300 628.1700 189.3300 621.6000L189.3300 621.6000L189.3300 592.6200L158.8200 592.6200Q157.8300 592.6200 157.2450 591.9900Q156.6600 591.3600 156.6600 590.4600L156.6600 590.4600L156.6600 584.1600Q156.6600 583.2600 157.2450 582.6300Q157.8300 582 158.8200 582L158.8200 582L199.9500 582Q200.9400 582 201.5700 582.6300Q202.2000 583.2600 202.2000 584.2500L202.2000 584.2500L202.2000 621.9600Q202.2000 629.4300 199.0950 634.8300Q195.9900 640.2300 190.4550 643.0650Q184.9200 645.9000 177.3600 645.9000ZM228.2100 645.9000L228.2100 645.9000Q223.5300 645.9000 219.7500 644.0550Q215.9700 642.2100 213.7650 639.1050Q211.5600 636 211.5600 632.1300L211.5600 632.1300Q211.5600 625.8300 216.6900 622.0950Q221.8200 618.3600 230.1000 617.1000L230.1000 617.1000L242.4300 615.3000L242.4300 613.4100Q242.4300 609.6300 240.5400 607.5600Q238.6500 605.4900 234.0600 605.4900L234.0600 605.4900Q230.8200 605.4900 228.7950 606.7950Q226.7700 608.1000 225.7800 610.2600L225.7800 610.2600Q225.0600 611.4300 223.7100 611.4300L223.7100 611.4300L216.6000 611.4300Q215.6100 611.4300 215.1150 610.8900Q214.6200 610.3500 214.6200 609.4500L214.6200 609.4500Q214.7100 608.0100 215.8350 605.9400Q216.9600 603.8700 219.2550 601.9350Q221.5500 600 225.2400 598.6500Q228.9300 597.3000 234.1500 597.3000L234.1500 597.3000Q239.8200 597.3000 243.7350 598.6950Q247.6500 600.0900 249.9900 602.4300Q252.3300 604.7700 253.4100 607.9200Q254.4900 611.0700 254.4900 614.5800L254.4900 614.5800L254.4900 642.8400Q254.4900 643.7400 253.8600 644.3700Q253.2300 645 252.3300 645L252.3300 645L245.0400 645Q244.0500 645 243.4650 644.3700Q242.8800 643.7400 242.8800 642.8400L242.8800 642.8400L242.8800 639.3300Q241.7100 640.9500 239.7300 642.4800Q237.7500 644.0100 234.9150 644.9550Q232.0800 645.9000 228.2100 645.9000ZM231.2700 637.3500L231.2700 637.3500Q234.4200 637.3500 236.9850 636Q239.5500 634.6500 241.0350 631.8150Q242.5200 628.9800 242.5200 624.6600L242.5200 624.6600L242.5200 622.7700L233.5200 624.2100Q228.2100 625.0200 225.6000 626.8200Q222.9900 628.6200 222.9900 631.2300L222.9900 631.2300Q222.9900 633.2100 224.2050 634.6050Q225.4200 636 227.3100 636.6750Q229.2000 637.3500 231.2700 637.3500ZM289.2300 645L282.5700 645Q281.1300 645 280.4550 644.3250Q279.7800 643.6500 279.3300 642.7500L279.3300 642.7500L262.5000 600.9900Q262.3200 600.5400 262.3200 600.1800L262.3200 600.1800Q262.3200 599.3700 262.9050 598.7850Q263.4900 598.2000 264.3000 598.2000L264.3000 598.2000L271.5900 598.2000Q272.6700 598.2000 273.2100 598.7850Q273.7500 599.3700 273.9300 599.9100L273.9300 599.9100L285.9000 631.5000L297.8700 599.9100Q298.0500 599.3700 298.5900 598.7850Q299.1300 598.2000 300.2100 598.2000L300.2100 598.2000L307.5900 598.2000Q308.3100 598.2000 308.8950 598.7850Q309.4800 599.3700 309.4800 600.1800L309.4800 600.1800Q309.4800 600.5400 309.3900 600.9900L309.3900 600.9900L292.4700 642.7500Q292.1100 643.6500 291.3900 644.3250Q290.6700 645 289.2300 645L289.2300 645ZM331.2600 645.9000L331.2600 645.9000Q326.5800 645.9000 322.8000 644.0550Q319.0200 642.2100 316.8150 639.1050Q314.6100 636 314.6100 632.1300L314.6100 632.1300Q314.6100 625.8300 319.7400 622.0950Q324.8700 618.3600 333.1500 617.1000L333.1500 617.1000L345.4800 615.3000L345.4800 613.4100Q345.4800 609.6300 343.5900 607.5600Q341.7000 605.4900 337.1100 605.4900L337.1100 605.4900Q333.8700 605.4900 331.8450 606.7950Q329.8200 608.1000 328.8300 610.2600L328.8300 610.2600Q328.1100 611.4300 326.7600 611.4300L326.7600 611.4300L319.6500 611.4300Q318.6600 611.4300 318.1650 610.8900Q317.6700 610.3500 317.6700 609.4500L317.6700 609.4500Q317.7600 608.0100 318.8850 605.9400Q320.0100 603.8700 322.3050 601.9350Q324.6000 600 328.2900 598.6500Q331.9800 597.3000 337.2000 597.3000L337.2000 597.3000Q342.8700 597.3000 346.7850 598.6950Q350.7000 600.0900 353.0400 602.4300Q355.3800 604.7700 356.4600 607.9200Q357.5400 611.0700 357.5400 614.5800L357.5400 614.5800L357.5400 642.8400Q357.5400 643.7400 356.9100 644.3700Q356.2800 645 355.3800 645L355.3800 645L348.0900 645Q347.1000 645 346.5150 644.3700Q345.9300 643.7400 345.9300 642.8400L345.9300 642.8400L345.9300 639.3300Q344.7600 640.9500 342.7800 642.4800Q340.8000 644.0100 337.9650 644.9550Q335.1300 645.9000 331.2600 645.9000ZM334.3200 637.3500L334.3200 637.3500Q337.4700 637.3500 340.0350 636Q342.6000 634.6500 344.0850 631.8150Q345.5700 628.9800 345.5700 624.6600L345.5700 624.6600L345.5700 622.7700L336.5700 624.2100Q331.2600 625.0200 328.6500 626.8200Q326.0400 628.6200 326.0400 631.2300L326.0400 631.2300Q326.0400 633.2100 327.2550 634.6050Q328.4700 636 330.3600 636.6750Q332.2500 637.3500 334.3200 637.3500ZM392.0100 645.9000L392.0100 645.9000Q383.6400 645.9000 378.0150 643.4250Q372.3900 640.9500 369.4650 636.9450Q366.5400 632.9400 366.3600 628.5300L366.3600 628.5300Q366.3600 627.7200 366.9000 627.1800Q367.4400 626.6400 368.2500 626.6400L368.2500 626.6400L376.2600 626.6400Q377.4300 626.6400 378.0150 627.1350Q378.6000 627.6300 379.0500 628.3500L379.0500 628.3500Q379.5900 630.0600 381.1200 631.7250Q382.6500 633.3900 385.3050 634.4700Q387.9600 635.5500 392.0100 635.5500L392.0100 635.5500Q398.4900 635.5500 401.6850 633.3900Q404.8800 631.2300 404.8800 627.5400L404.8800 627.5400Q404.8800 624.9300 403.1700 623.3550Q401.4600 621.7800 397.9050 620.4750Q394.3500 619.1700 388.5000 617.7300L388.5000 617.7300Q381.7500 616.1100 377.2050 613.8150Q372.6600 611.5200 370.3650 608.0100Q368.0700 604.5000 368.0700 599.1000L368.0700 599.1000Q368.0700 593.8800 370.9050 589.8300Q373.7400 585.7800 379.0050 583.4400Q384.2700 581.1000 391.5600 581.1000L391.5600 581.1000Q397.4100 581.1000 401.9100 582.6750Q406.4100 584.2500 409.3800 586.8150Q412.3500 589.3800 413.9250 592.3050Q415.5000 595.2300 415.5900 598.0200L415.5900 598.0200Q415.5900 598.7400 415.0950 599.3250Q414.6000 599.9100 413.7000 599.9100L413.7000 599.9100L405.3300 599.9100Q404.6100 599.9100 403.8900 599.5500Q403.1700 599.1900 402.7200 598.2000L402.7200 598.2000Q402.1800 595.4100 399.2100 593.4300Q396.2400 591.4500 391.5600 591.4500L391.5600 591.4500Q386.7000 591.4500 383.7300 593.2500Q380.7600 595.0500 380.7600 598.8300L380.7600 598.8300Q380.7600 601.3500 382.2450 603.0150Q383.7300 604.6800 387.0150 605.9400Q390.3000 607.2000 395.7000 608.6400L395.7000 608.6400Q403.3500 610.3500 408.2100 612.6000Q413.0700 614.8500 415.3200 618.3150Q417.5700 621.7800 417.5700 627.0900L417.5700 627.0900Q417.5700 633.0300 414.3750 637.2150Q411.1800 641.4000 405.4200 643.6500Q399.6600 645.9000 392.0100 645.9000ZM447.0900 645.9000L447.0900 645.9000Q440.6100 645.9000 435.7050 643.4700Q430.8000 641.0400 428.0550 636.4050Q425.3100 631.7700 425.0400 625.2000L425.0400 625.2000Q424.9500 623.8500 424.9500 621.6450Q424.9500 619.4400 425.0400 618L425.0400 618Q425.3100 611.4300 428.0550 606.7950Q430.8000 602.1600 435.7050 599.7300Q440.6100 597.3000 447.0900 597.3000L447.0900 597.3000Q452.8500 597.3000 456.9000 598.8750Q460.9500 600.4500 463.5600 602.9250Q466.1700 605.4000 467.4750 608.0550Q468.7800 610.7100 468.8700 612.8700L468.8700 612.8700Q468.9600 613.8600 468.2850 614.4450Q467.6100 615.0300 466.7100 615.0300L466.7100 615.0300L458.7900 615.0300Q457.8900 615.0300 457.3950 614.5800Q456.9000 614.1300 456.4500 613.2300L456.4500 613.2300Q455.1000 609.6300 452.8950 608.1450Q450.6900 606.6600 447.2700 606.6600L447.2700 606.6600Q442.7700 606.6600 440.1150 609.4950Q437.4600 612.3300 437.2800 618.4500L437.2800 618.4500Q437.1000 621.8700 437.2800 624.7500L437.2800 624.7500Q437.4600 630.9600 440.1150 633.7500Q442.7700 636.5400 447.2700 636.5400L447.2700 636.5400Q450.7800 636.5400 452.9400 635.0550Q455.1000 633.5700 456.4500 629.9700L456.4500 629.9700Q456.9000 629.0700 457.3950 628.6200Q457.8900 628.1700 458.7900 628.1700L458.7900 628.1700L466.7100 628.1700Q467.6100 628.1700 468.2850 628.7550Q468.9600 629.3400 468.8700 630.3300L468.8700 630.3300Q468.7800 631.9500 468.0150 633.9750Q467.2500 636 465.5850 638.1150Q463.9200 640.2300 461.4000 641.9850Q458.8800 643.7400 455.3250 644.8200Q451.7700 645.9000 447.0900 645.9000ZM488.2200 645L480.3900 645Q479.4900 645 478.8600 644.3700Q478.2300 643.7400 478.2300 642.8400L478.2300 642.8400L478.2300 600.4500Q478.2300 599.4600 478.8600 598.8300Q479.4900 598.2000 480.3900 598.2000L480.3900 598.2000L487.6800 598.2000Q488.5800 598.2000 489.2550 598.8300Q489.9300 599.4600 489.9300 600.4500L489.9300 600.4500L489.9300 604.1400Q492.0000 601.2600 495.2850 599.7300Q498.5700 598.2000 502.8900 598.2000L502.8900 598.2000L506.5800 598.2000Q507.5700 598.2000 508.1550 598.8300Q508.7400 599.4600 508.7400 600.3600L508.7400 600.3600L508.7400 606.8400Q508.7400 607.7400 508.1550 608.3700Q507.5700 609 506.5800 609L506.5800 609L499.5600 609Q495.2400 609 492.8550 611.3850Q490.4700 613.7700 490.4700 618.0900L490.4700 618.0900L490.4700 642.8400Q490.4700 643.7400 489.8400 644.3700Q489.2100 645 488.2200 645L488.2200 645ZM525.3900 645L517.9200 645Q517.0200 645 516.3900 644.3700Q515.7600 643.7400 515.7600 642.8400L515.7600 642.8400L515.7600 600.3600Q515.7600 599.4600 516.3900 598.8300Q517.0200 598.2000 517.9200 598.2000L517.9200 598.2000L525.3900 598.2000Q526.3800 598.2000 526.9650 598.8300Q527.5500 599.4600 527.5500 600.3600L527.5500 600.3600L527.5500 642.8400Q527.5500 643.7400 526.9650 644.3700Q526.3800 645 525.3900 645L525.3900 645ZM525.7500 590.4600L517.5600 590.4600Q516.6600 590.4600 516.0300 589.8300Q515.4000 589.2000 515.4000 588.3000L515.4000 588.3000L515.4000 581.8200Q515.4000 580.9200 516.0300 580.2900Q516.6600 579.6600 517.5600 579.6600L517.5600 579.6600L525.7500 579.6600Q526.7400 579.6600 527.3700 580.2900Q528.0000 580.9200 528.0000 581.8200L528.0000 581.8200L528.0000 588.3000Q528.0000 589.2000 527.3700 589.8300Q526.7400 590.4600 525.7500 590.4600L525.7500 590.4600ZM549.4200 662.1000L541.7700 662.1000Q540.8700 662.1000 540.2400 661.4700Q539.6100 660.8400 539.6100 659.9400L539.6100 659.9400L539.6100 600.3600Q539.6100 599.4600 540.2400 598.8300Q540.8700 598.2000 541.7700 598.2000L541.7700 598.2000L548.8800 598.2000Q549.8700 598.2000 550.4550 598.8300Q551.0400 599.4600 551.0400 600.3600L551.0400 600.3600L551.0400 603.9600Q553.2000 601.0800 556.7100 599.1900Q560.2200 597.3000 565.4400 597.3000L565.4400 597.3000Q570.2100 597.3000 573.7200 598.8300Q577.2300 600.3600 579.5700 603.1950Q581.9100 606.0300 583.1700 609.9000Q584.4300 613.7700 584.6100 618.4500L584.6100 618.4500Q584.7000 619.9800 584.7000 621.6000Q584.7000 623.2200 584.6100 624.8400L584.6100 624.8400Q584.5200 629.3400 583.2600 633.1650Q582.0000 636.9900 579.6150 639.8250Q577.2300 642.6600 573.7200 644.2800Q570.2100 645.9000 565.4400 645.9000L565.4400 645.9000Q560.5800 645.9000 557.1600 644.1450Q553.7400 642.3900 551.5800 639.5100L551.5800 639.5100L551.5800 659.9400Q551.5800 660.8400 550.9950 661.4700Q550.4100 662.1000 549.4200 662.1000L549.4200 662.1000ZM562.1100 636.2700L562.1100 636.2700Q565.9800 636.2700 568.1400 634.6050Q570.3000 632.9400 571.2900 630.2400Q572.2800 627.5400 572.4600 624.3000L572.4600 624.3000Q572.5500 621.6000 572.4600 618.9000L572.4600 618.9000Q572.2800 615.6600 571.2900 612.9600Q570.3000 610.2600 568.1400 608.5950Q565.9800 606.9300 562.1100 606.9300L562.1100 606.9300Q558.4200 606.9300 556.1250 608.6400Q553.8300 610.3500 552.7950 613.0050Q551.7600 615.6600 551.5800 618.4500L551.5800 618.4500Q551.4900 620.0700 551.4900 621.8700Q551.4900 623.6700 551.5800 625.3800L551.5800 625.3800Q551.6700 628.0800 552.8400 630.5550Q554.0100 633.0300 556.2600 634.6500Q558.5100 636.2700 562.1100 636.2700ZM623.2200 645L615.9300 645Q610.5300 645 606.8400 643.1100Q603.1500 641.2200 601.3500 637.4850Q599.5500 633.7500 599.5500 628.1700L599.5500 628.1700L599.5500 607.7400L592.4400 607.7400Q591.5400 607.7400 590.9100 607.1100Q590.2800 606.4800 590.2800 605.4900L590.2800 605.4900L590.2800 600.3600Q590.2800 599.4600 590.9100 598.8300Q591.5400 598.2000 592.4400 598.2000L592.4400 598.2000L599.5500 598.2000L599.5500 583.2600Q599.5500 582.3600 600.1350 581.7300Q600.7200 581.1000 601.7100 581.1000L601.7100 581.1000L609.0000 581.1000Q609.9000 581.1000 610.5300 581.7300Q611.1600 582.3600 611.1600 583.2600L611.1600 583.2600L611.1600 598.2000L622.4100 598.2000Q623.3100 598.2000 623.9400 598.8300Q624.5700 599.4600 624.5700 600.3600L624.5700 600.3600L624.5700 605.4900Q624.5700 606.4800 623.9400 607.1100Q623.3100 607.7400 622.4100 607.7400L622.4100 607.7400L611.1600 607.7400L611.1600 627.2700Q611.1600 630.9600 612.4650 633.0300Q613.7700 635.1000 617.0100 635.1000L617.0100 635.1000L623.2200 635.1000Q624.1200 635.1000 624.7500 635.7300Q625.3800 636.3600 625.3800 637.2600L625.3800 637.2600L625.3800 642.8400Q625.3800 643.7400 624.7500 644.3700Q624.1200 645 623.2200 645L623.2200 645Z" id="title"/><path d="M1416.6400 650L1394.8000 650Q1392.6400 650 1391.2000 648.4400Q1389.7600 646.8800 1389.7600 644.7200L1389.7600 644.7200Q1389.7600 643.7600 1390.2400 642.5600L1390.2400 642.5600L1448.0800 510.5600L1372.7200 510.5600Q1370.0800 510.5600 1368.5200 508.8800Q1366.9600 507.2000 1366.9600 504.8000L1366.9600 504.8000L1366.9600 488Q1366.9600 485.3600 1368.5200 483.6800Q1370.0800 482 1372.7200 482L1372.7200 482L1478.0800 482Q1480.7200 482 1482.2800 483.6800Q1483.8400 485.3600 1483.8400 488L1483.8400 488L1483.8400 502.8800Q1483.8400 506.2400 1483.2400 508.5200Q1482.6400 510.8000 1481.6800 513.2000L1481.6800 513.2000L1424.3200 644.2400Q1423.6000 645.9200 1421.8000 647.9600Q1420 650 1416.6400 650L1416.6400 650ZM1519.8400 650L1495.8400 650Q1493.4400 650 1491.7600 648.3200Q1490.0800 646.6400 1490.0800 644.2400L1490.0800 644.2400L1490.0800 620.4800Q1490.0800 617.8400 1491.7600 616.1600Q1493.4400 614.4800 1495.8400 614.4800L1495.8400 614.4800L1519.8400 614.4800Q1522.2400 614.4800 1523.9200 616.1600Q1525.6000 617.8400 1525.6000 620.4800L1525.6000 620.4800L1525.6000 644.2400Q1525.6000 646.6400 1523.9200 648.3200Q1522.2400 650 1519.8400 650L1519.8400 650ZM1614.6400 652.4000L1614.6400 652.4000Q1597.8400 652.4000 1585.6000 648.3200Q1573.3600 644.2400 1565.3200 637.6400Q1557.2800 631.0400 1553.2000 623.2400Q1549.1200 615.4400 1548.8800 607.7600L1548.8800 607.7600Q1548.8800 605.6000 1550.4400 604.2800Q1552.0000 602.9600 1554.1600 602.9600L1554.1600 602.9600L1575.7600 602.9600Q1578.1600 602.9600 1579.8400 603.9200Q1581.5200 604.8800 1582.7200 607.7600L1582.7200 607.7600Q1584.8800 614.2400 1589.8000 618.0800Q1594.7200 621.9200 1601.2000 623.4800Q1607.6800 625.0400 1614.8800 625.0400L1614.8800 625.0400Q1629.2800 625.0400 1637.8000 618.2000Q1646.3200 611.3600 1646.3200 598.6400L1646.3200 598.6400Q1646.3200 585.9200 1638.4000 580.2800Q1630.4800 574.6400 1616.3200 574.6400L1616.3200 574.6400L1591.6000 574.6400Q1588.9600 574.6400 1587.2800 573.0800Q1585.6000 571.5200 1585.6000 568.8800L1585.6000 568.8800L1585.6000 558.8000Q1585.6000 556.4000 1586.6800 554.6000Q1587.7600 552.8000 1588.9600 551.6000L1588.9600 551.6000L1631.9200 509.6000L1563.2800 509.6000Q1560.6400 509.6000 1559.0800 507.9200Q1557.5200 506.2400 1557.5200 503.8400L1557.5200 503.8400L1557.5200 488Q1557.5200 485.3600 1559.0800 483.6800Q1560.6400 482 1563.2800 482L1563.2800 482L1666.2400 482Q1668.8800 482 1670.5600 483.6800Q1672.2400 485.3600 1672.2400 488L1672.2400 488L1672.2400 502.4000Q1672.2400 504.5600 1671.2800 506.2400Q1670.3200 507.9200 1669.1200 509.1200L1669.1200 509.1200L1627.6000 551.8400L1630.4800 552.0800Q1645.1200 553.2800 1656.5200 558.6800Q1667.9200 564.0800 1674.2800 574.4000Q1680.6400 584.7200 1680.6400 600.3200L1680.6400 600.3200Q1680.6400 616.6400 1672.1200 628.2800Q1663.6000 639.9200 1648.7200 646.1600Q1633.8400 652.4000 1614.6400 652.4000Z" id="lecture-full-number"/></g></svg>