<svg xmlns="http://www.w3.org/2000/svg" version="1.1" xmlns:xlink="http://www.w3.org/1999/xlink" xmlns:svgjs="http://svgjs.dev/svgjs" viewBox="0 0 1920 1080" id="95554543-ff8c-4c6d-a4e4-c9c6cb8de32d"><g><rect width="1920" height="1080" fill="#c6e46e"/></g><g fill="#84a9e3"><path d="M745.478 668.096L1087.28 1009.97L1200.88 896.347L859.076 554.473L745.478 668.096Z"/><path d="M858.951 554.294L517.152 896.168L630.75 1009.79L972.549 667.917L858.951 554.294Z"/><path d="M289.239 668.391L631.038 1010.27L744.636 896.643L402.837 554.769L289.239 668.391Z"/><path d="M402.706 554L60.907 895.874L174.505 1009.5L516.304 667.623L402.706 554Z"/><path d="M-166 667.682L175.799 1009.56L289.397 895.933L-52.4021 554.059L-166 667.682Z"/></g><g fill="#ffffff" opacity="0.4"><path d="M1134 160C1540.91 160 1872 491.086 1872 898C1872 1304.91 1540.91 1636 1134 1636C727.086 1635.56 396 1304.91 396 898C396 491.086 727.086 160 1134 160ZM1134 1611.31C1527.25 1611.31 1847.31 1291.25 1847.31 898C1847.31 504.753 1527.25 184.247 1134 184.247C740.753 184.247 420.247 504.312 420.247 898C420.247 1291.69 740.312 1611.31 1134 1611.31Z"/><path d="M1134 251.699C1490.22 251.699 1780.3 541.785 1780.3 898C1780.3 1254.22 1490.22 1544.3 1134 1544.3C777.785 1544.3 487.699 1254.22 487.699 898C487.699 541.785 777.344 251.699 1134 251.699ZM1134 1519.61C1476.99 1519.61 1756.05 1240.55 1756.05 897.559C1756.05 554.57 1476.99 275.947 1134 275.947C791.011 275.947 511.946 555.011 511.946 898C511.946 1240.99 791.011 1519.61 1134 1519.61Z"/><path d="M1134 342.957C1439.96 342.957 1688.6 592.043 1688.6 897.559C1688.6 1203.52 1439.52 1452.16 1134 1452.16C828.043 1452.16 579.398 1203.08 579.398 897.559C578.957 592.043 828.043 342.957 1134 342.957ZM1134 1428.35C1426.29 1428.35 1664.35 1190.29 1664.35 898C1664.35 605.71 1426.29 367.645 1134 367.645C841.71 367.645 603.645 605.71 603.645 898C603.645 1190.29 841.269 1428.35 1134 1428.35Z"/><path d="M1134 434.656C1389.26 434.656 1597.34 642.301 1597.34 898C1597.34 1153.7 1389.7 1361.34 1134 1361.34C878.742 1361.34 670.656 1153.7 670.656 898C670.656 642.301 878.301 434.656 1134 434.656ZM1134 1336.66C1376.03 1336.66 1572.66 1139.59 1572.66 898C1572.66 656.408 1375.59 459.344 1134 459.344C891.968 459.344 695.344 656.408 695.344 898C695.344 1139.59 891.968 1336.66 1134 1336.66Z"/><path d="M1134 526.354C1339 526.354 1505.65 693 1505.65 898C1505.65 1103 1339 1269.64 1134 1269.64C929 1269.64 762.355 1103 762.355 898C762.355 693 929 526.354 1134 526.354ZM1134 1244.96C1325.33 1244.96 1481.4 1089.33 1481.4 897.559C1481.4 706.225 1325.77 550.161 1134 550.161C942.667 550.161 786.602 705.785 786.602 897.559C786.602 1089.33 942.226 1244.96 1134 1244.96Z"/><path d="M1134 617.613C1288.3 617.613 1414.39 743.258 1414.39 898C1414.39 1052.74 1288.74 1178.39 1134 1178.39C979.699 1178.39 853.613 1052.74 853.613 898C853.613 743.258 979.258 617.613 1134 617.613ZM1134 1153.7C1275.08 1153.7 1389.7 1039.08 1389.7 898C1389.7 756.925 1275.08 642.301 1134 642.301C992.925 642.301 878.301 756.925 878.301 898C878.301 1039.08 992.925 1153.7 1134 1153.7Z"/><path d="M1134 709.312C1238.04 709.312 1322.69 793.957 1322.69 898C1322.69 1002.04 1238.04 1086.69 1134 1086.69C1029.96 1086.69 945.312 1002.04 945.312 898C945.312 793.957 1029.96 709.312 1134 709.312ZM1134 1062C1224.38 1062 1298.44 988.377 1298.44 897.559C1298.44 807.183 1224.82 733.118 1134 733.118C1043.62 733.118 969.559 806.742 969.559 897.559C969.559 988.377 1043.18 1062 1134 1062Z"/><path d="M1134 800.57C1187.34 800.57 1230.99 844.215 1230.99 897.56C1230.99 950.904 1187.34 994.549 1134 994.549C1080.66 994.549 1037.01 950.904 1037.01 897.56C1036.57 844.215 1080.22 800.57 1134 800.57ZM1134 970.742C1174.12 970.742 1206.74 938.119 1206.74 898C1206.74 857.882 1174.12 825.258 1134 825.258C1093.88 825.258 1061.26 857.882 1061.26 898C1061.26 938.119 1093.88 970.742 1134 970.742Z"/></g><g><path d="M178.635 139.281L184.422 144.246V166.626H215.704L219.958 172.147L215.69 177.397H184.422V198.795L178.635 203.747L173 198.795V144.232L178.635 139.281ZM195.554 195.68H219.406L223.397 200.915L219.143 206.45H195.554L191.7 201.342L195.554 195.68ZM196.382 138H219.129L223.383 143.52L219.129 148.77H196.659L192.115 143.677L196.382 138ZM323.155 148.628L328.251 154.291L323.155 159.968H246.13L241.172 154.291L246.13 148.628H323.155ZM237.043 172.147L241.849 167.893L246.669 172.147V178.393C246.669 188.879 249.417 197.515 261.668 197.515H264.14C275.147 197.515 281.197 189.86 281.197 177.952V172.005L285.879 167.75L290.699 171.862V178.379C290.699 189.007 293.723 196.946 305.56 196.946H307.618C319.178 196.946 321.235 187.869 321.373 177.952V171.578L326.056 167.608L331 171.72V178.094C330.862 191.838 327.285 207.574 308.032 207.574H305.974C294.552 207.574 288.365 202.324 285.892 195.808C283.006 202.466 275.299 208.286 264.844 208.286H262.358C242.553 208.286 237.194 195.964 237.056 178.663V172.147H237.043ZM276.391 274.744L273.642 267.089L280.796 264.969L305.974 276.721V252.491L311.07 248.095L316.291 252.491V281.829L325.641 286.226L328.251 293.311L320.959 296L276.391 274.744ZM321.235 223.011L328.113 226.27L325.917 233.497L264.002 263.119L256.571 260.146L259.596 252.776L321.235 223.011ZM231.905 263.404L237.954 268.512C237.402 286.51 222.403 296 204.669 296H202.874C194.062 296 183.759 292.6 177.157 286.083L177.834 278.855L184.298 278.002C189.118 282.256 195.858 285.229 202.183 285.229H204.117C216.091 285.229 225.303 280.136 226.27 268.085L231.905 263.404ZM226.256 251.638C225.704 239.16 216.629 234.209 204.103 234.209H202.169C194.739 234.209 189.104 237.182 184.284 241.436L177.834 240.583L177.143 233.355C183.745 226.696 192.957 223.58 202.597 223.58H204.517C222.403 223.58 237.402 232.942 237.94 251.211L231.891 256.176L226.256 251.638Z" fill="#000000"/></g><path d="M1171 781L1171 339L1187 339L1187 781L1171 781Z" fill="#000000"/><g fill="#000000" id="info-group"><path d="M167.1000 555L159.1800 555Q158.2800 555 157.6500 554.3700Q157.0200 553.7400 157.0200 552.8400L157.0200 552.8400L157.0200 494.2500Q157.0200 493.2600 157.6500 492.6300Q158.2800 492 159.1800 492L159.1800 492L198.2400 492Q199.2300 492 199.8600 492.6300Q200.4900 493.2600 200.4900 494.2500L200.4900 494.2500L200.4900 500.5500Q200.4900 501.5400 199.8600 502.1250Q199.2300 502.7100 198.2400 502.7100L198.2400 502.7100L169.3500 502.7100L169.3500 519.8100L196.4400 519.8100Q197.4300 519.8100 198.0600 520.4400Q198.6900 521.0700 198.6900 522.0600L198.6900 522.0600L198.6900 528.3600Q198.6900 529.2600 198.0600 529.8900Q197.4300 530.5200 196.4400 530.5200L196.4400 530.5200L169.3500 530.5200L169.3500 552.8400Q169.3500 553.7400 168.7200 554.3700Q168.0900 555 167.1000 555L167.1000 555ZM227.4000 555.9000L227.4000 555.9000Q221.9100 555.9000 217.9050 553.4250Q213.9000 550.9500 211.7400 546.4050Q209.5800 541.8600 209.5800 535.6500L209.5800 535.6500L209.5800 510.3600Q209.5800 509.4600 210.2100 508.8300Q210.8400 508.2000 211.7400 508.2000L211.7400 508.2000L219.6600 508.2000Q220.6500 508.2000 221.2350 508.8300Q221.8200 509.4600 221.8200 510.3600L221.8200 510.3600L221.8200 535.1100Q221.8200 546.2700 231.6300 546.2700L231.6300 546.2700Q236.3100 546.2700 239.0550 543.3000Q241.8000 540.3300 241.8000 535.1100L241.8000 535.1100L241.8000 510.3600Q241.8000 509.4600 242.4300 508.8300Q243.0600 508.2000 243.9600 508.2000L243.9600 508.2000L251.8800 508.2000Q252.7800 508.2000 253.4100 508.8300Q254.0400 509.4600 254.0400 510.3600L254.0400 510.3600L254.0400 552.8400Q254.0400 553.7400 253.4100 554.3700Q252.7800 555 251.8800 555L251.8800 555L244.5900 555Q243.6000 555 243.0150 554.3700Q242.4300 553.7400 242.4300 552.8400L242.4300 552.8400L242.4300 549.1500Q240 552.3000 236.4000 554.1000Q232.8000 555.9000 227.4000 555.9000ZM276 555L268.0800 555Q267.1800 555 266.5500 554.3700Q265.9200 553.7400 265.9200 552.8400L265.9200 552.8400L265.9200 510.3600Q265.9200 509.4600 266.5500 508.8300Q267.1800 508.2000 268.0800 508.2000L268.0800 508.2000L275.4600 508.2000Q276.3600 508.2000 276.9900 508.8300Q277.6200 509.4600 277.6200 510.3600L277.6200 510.3600L277.6200 514.0500Q279.9600 511.1700 283.6050 509.2350Q287.2500 507.3000 292.6500 507.3000L292.6500 507.3000Q298.1400 507.3000 302.1900 509.7750Q306.2400 512.2500 308.4450 516.7500Q310.6500 521.2500 310.6500 527.5500L310.6500 527.5500L310.6500 552.8400Q310.6500 553.7400 310.0200 554.3700Q309.3900 555 308.4900 555L308.4900 555L300.5700 555Q299.6700 555 299.0400 554.3700Q298.4100 553.7400 298.4100 552.8400L298.4100 552.8400L298.4100 528.0900Q298.4100 522.8700 295.8450 519.9000Q293.2800 516.9300 288.4200 516.9300L288.4200 516.9300Q283.7400 516.9300 280.9500 519.9000Q278.1600 522.8700 278.1600 528.0900L278.1600 528.0900L278.1600 552.8400Q278.1600 553.7400 277.5300 554.3700Q276.9000 555 276 555L276 555ZM339.4500 555.9000L339.4500 555.9000Q334.7700 555.9000 331.2150 554.3250Q327.6600 552.7500 325.3200 549.8700Q322.9800 546.9900 321.7200 543.0750Q320.4600 539.1600 320.2800 534.4800L320.2800 534.4800Q320.1900 532.8600 320.1900 531.5550Q320.1900 530.2500 320.2800 528.6300L320.2800 528.6300Q320.4600 524.1300 321.6750 520.2600Q322.8900 516.3900 325.2750 513.4650Q327.6600 510.5400 331.2150 508.9200Q334.7700 507.3000 339.4500 507.3000L339.4500 507.3000Q344.3100 507.3000 347.6850 508.9650Q351.0600 510.6300 353.3100 513.2400L353.3100 513.2400L353.3100 493.2600Q353.3100 492.3600 353.8950 491.7300Q354.4800 491.1000 355.4700 491.1000L355.4700 491.1000L363.1200 491.1000Q364.0200 491.1000 364.6500 491.7300Q365.2800 492.3600 365.2800 493.2600L365.2800 493.2600L365.2800 552.8400Q365.2800 553.7400 364.6500 554.3700Q364.0200 555 363.1200 555L363.1200 555L356.0100 555Q355.0200 555 354.4350 554.3700Q353.8500 553.7400 353.8500 552.8400L353.8500 552.8400L353.8500 549.5100Q351.6000 552.3000 348.1350 554.1000Q344.6700 555.9000 339.4500 555.9000ZM342.7800 546.2700L342.7800 546.2700Q346.5600 546.2700 348.8100 544.5600Q351.0600 542.8500 352.1400 540.1950Q353.2200 537.5400 353.3100 534.7500L353.3100 534.7500Q353.4000 533.1300 353.4000 531.2850Q353.4000 529.4400 353.3100 527.8200L353.3100 527.8200Q353.2200 525.1200 352.0500 522.6450Q350.8800 520.1700 348.6300 518.5500Q346.3800 516.9300 342.7800 516.9300L342.7800 516.9300Q339 516.9300 336.7950 518.5950Q334.5900 520.2600 333.6000 522.9600Q332.6100 525.6600 332.4300 528.9000L332.4300 528.9000Q332.3400 531.6000 332.4300 534.3000L332.4300 534.3000Q332.6100 537.5400 333.6000 540.2400Q334.5900 542.9400 336.7950 544.6050Q339 546.2700 342.7800 546.2700ZM390.8400 555.9000L390.8400 555.9000Q386.1600 555.9000 382.3800 554.0550Q378.6000 552.2100 376.3950 549.1050Q374.1900 546 374.1900 542.1300L374.1900 542.1300Q374.1900 535.8300 379.3200 532.0950Q384.4500 528.3600 392.7300 527.1000L392.7300 527.1000L405.0600 525.3000L405.0600 523.4100Q405.0600 519.6300 403.1700 517.5600Q401.2800 515.4900 396.6900 515.4900L396.6900 515.4900Q393.4500 515.4900 391.4250 516.7950Q389.4000 518.1000 388.4100 520.2600L388.4100 520.2600Q387.6900 521.4300 386.3400 521.4300L386.3400 521.4300L379.2300 521.4300Q378.2400 521.4300 377.7450 520.8900Q377.2500 520.3500 377.2500 519.4500L377.2500 519.4500Q377.3400 518.0100 378.4650 515.9400Q379.5900 513.8700 381.8850 511.9350Q384.1800 510 387.8700 508.6500Q391.5600 507.3000 396.7800 507.3000L396.7800 507.3000Q402.4500 507.3000 406.3650 508.6950Q410.2800 510.0900 412.6200 512.4300Q414.9600 514.7700 416.0400 517.9200Q417.1200 521.0700 417.1200 524.5800L417.1200 524.5800L417.1200 552.8400Q417.1200 553.7400 416.4900 554.3700Q415.8600 555 414.9600 555L414.9600 555L407.6700 555Q406.6800 555 406.0950 554.3700Q405.5100 553.7400 405.5100 552.8400L405.5100 552.8400L405.5100 549.3300Q404.3400 550.9500 402.3600 552.4800Q400.3800 554.0100 397.5450 554.9550Q394.7100 555.9000 390.8400 555.9000ZM393.9000 547.3500L393.9000 547.3500Q397.0500 547.3500 399.6150 546Q402.1800 544.6500 403.6650 541.8150Q405.1500 538.9800 405.1500 534.6600L405.1500 534.6600L405.1500 532.7700L396.1500 534.2100Q390.8400 535.0200 388.2300 536.8200Q385.6200 538.6200 385.6200 541.2300L385.6200 541.2300Q385.6200 543.2100 386.8350 544.6050Q388.0500 546 389.9400 546.6750Q391.8300 547.3500 393.9000 547.3500ZM438.3600 555L430.8000 555Q429.9000 555 429.2700 554.3700Q428.6400 553.7400 428.6400 552.8400L428.6400 552.8400L428.6400 510.3600Q428.6400 509.4600 429.2700 508.8300Q429.9000 508.2000 430.8000 508.2000L430.8000 508.2000L437.8200 508.2000Q438.7200 508.2000 439.3500 508.8300Q439.9800 509.4600 439.9800 510.3600L439.9800 510.3600L439.9800 513.4200Q441.8700 510.9000 445.0650 509.1450Q448.2600 507.3900 452.6700 507.3000L452.6700 507.3000Q462.9300 507.1200 466.9800 515.3100L466.9800 515.3100Q469.0500 511.7100 472.9650 509.5050Q476.8800 507.3000 481.6500 507.3000L481.6500 507.3000Q486.3300 507.3000 490.1550 509.4600Q493.9800 511.6200 496.1850 515.9850Q498.3900 520.3500 498.3900 527.0100L498.3900 527.0100L498.3900 552.8400Q498.3900 553.7400 497.7600 554.3700Q497.1300 555 496.2300 555L496.2300 555L488.8500 555Q487.9500 555 487.3200 554.3700Q486.6900 553.7400 486.6900 552.8400L486.6900 552.8400L486.6900 527.7300Q486.6900 523.6800 485.5200 521.2950Q484.3500 518.9100 482.3700 517.9200Q480.3900 516.9300 477.9600 516.9300L477.9600 516.9300Q475.9800 516.9300 474 517.9200Q472.0200 518.9100 470.7600 521.2950Q469.5000 523.6800 469.5000 527.7300L469.5000 527.7300L469.5000 552.8400Q469.5000 553.7400 468.8700 554.3700Q468.2400 555 467.3400 555L467.3400 555L459.9600 555Q459.0600 555 458.4300 554.3700Q457.8000 553.7400 457.8000 552.8400L457.8000 552.8400L457.8000 527.7300Q457.8000 523.6800 456.5400 521.2950Q455.2800 518.9100 453.3000 517.9200Q451.3200 516.9300 449.0700 516.9300L449.0700 516.9300Q447 516.9300 445.0200 517.9650Q443.0400 519 441.7800 521.3400Q440.5200 523.6800 440.5200 527.7300L440.5200 527.7300L440.5200 552.8400Q440.5200 553.7400 439.8900 554.3700Q439.2600 555 438.3600 555L438.3600 555ZM529.9800 555.9000L529.9800 555.9000Q519.9900 555.9000 514.1400 550.1400Q508.2900 544.3800 507.8400 533.7600L507.8400 533.7600Q507.7500 532.8600 507.7500 531.4650Q507.7500 530.0700 507.8400 529.2600L507.8400 529.2600Q508.2000 522.4200 510.9450 517.5150Q513.6900 512.6100 518.5500 509.9550Q523.4100 507.3000 529.9800 507.3000L529.9800 507.3000Q537.2700 507.3000 542.2200 510.3150Q547.1700 513.3300 549.6900 518.6850Q552.2100 524.0400 552.2100 531.0600L552.2100 531.0600L552.2100 532.9500Q552.2100 533.8500 551.5800 534.4800Q550.9500 535.1100 549.9600 535.1100L549.9600 535.1100L520.0800 535.1100Q520.0800 535.1100 520.0800 535.3800Q520.0800 535.6500 520.0800 535.8300L520.0800 535.8300Q520.1700 538.9800 521.2950 541.6350Q522.4200 544.2900 524.6250 545.9100Q526.8300 547.5300 529.8900 547.5300L529.8900 547.5300Q532.4100 547.5300 534.1200 546.7650Q535.8300 546 536.9100 545.0100Q537.9900 544.0200 538.4400 543.3900L538.4400 543.3900Q539.2500 542.3100 539.7450 542.0850Q540.2400 541.8600 541.2300 541.8600L541.2300 541.8600L548.9700 541.8600Q549.8700 541.8600 550.4550 542.4000Q551.0400 542.9400 550.9500 543.7500L550.9500 543.7500Q550.8600 545.1900 549.4650 547.2600Q548.0700 549.3300 545.4600 551.3100Q542.8500 553.2900 538.9350 554.5950Q535.0200 555.9000 529.9800 555.9000ZM520.0800 527.2800L520.0800 527.5500L539.9700 527.5500L539.9700 527.2800Q539.9700 523.7700 538.8000 521.1150Q537.6300 518.4600 535.3800 516.9750Q533.1300 515.4900 529.9800 515.4900L529.9800 515.4900Q526.8300 515.4900 524.5800 516.9750Q522.3300 518.4600 521.2050 521.1150Q520.0800 523.7700 520.0800 527.2800L520.0800 527.2800ZM571.8300 555L563.9100 555Q563.0100 555 562.3800 554.3700Q561.7500 553.7400 561.7500 552.8400L561.7500 552.8400L561.7500 510.3600Q561.7500 509.4600 562.3800 508.8300Q563.0100 508.2000 563.9100 508.2000L563.9100 508.2000L571.2900 508.2000Q572.1900 508.2000 572.8200 508.8300Q573.4500 509.4600 573.4500 510.3600L573.4500 510.3600L573.4500 514.0500Q575.7900 511.1700 579.4350 509.2350Q583.0800 507.3000 588.4800 507.3000L588.4800 507.3000Q593.9700 507.3000 598.0200 509.7750Q602.0700 512.2500 604.2750 516.7500Q606.4800 521.2500 606.4800 527.5500L606.4800 527.5500L606.4800 552.8400Q606.4800 553.7400 605.8500 554.3700Q605.2200 555 604.3200 555L604.3200 555L596.4000 555Q595.5000 555 594.8700 554.3700Q594.2400 553.7400 594.2400 552.8400L594.2400 552.8400L594.2400 528.0900Q594.2400 522.8700 591.6750 519.9000Q589.1100 516.9300 584.2500 516.9300L584.2500 516.9300Q579.5700 516.9300 576.7800 519.9000Q573.9900 522.8700 573.9900 528.0900L573.9900 528.0900L573.9900 552.8400Q573.9900 553.7400 573.3600 554.3700Q572.7300 555 571.8300 555L571.8300 555ZM646.3500 555L639.0600 555Q633.6600 555 629.9700 553.1100Q626.2800 551.2200 624.4800 547.4850Q622.6800 543.7500 622.6800 538.1700L622.6800 538.1700L622.6800 517.7400L615.5700 517.7400Q614.6700 517.7400 614.0400 517.1100Q613.4100 516.4800 613.4100 515.4900L613.4100 515.4900L613.4100 510.3600Q613.4100 509.4600 614.0400 508.8300Q614.6700 508.2000 615.5700 508.2000L615.5700 508.2000L622.6800 508.2000L622.6800 493.2600Q622.6800 492.3600 623.2650 491.7300Q623.8500 491.1000 624.8400 491.1000L624.8400 491.1000L632.1300 491.1000Q633.0300 491.1000 633.6600 491.7300Q634.2900 492.3600 634.2900 493.2600L634.2900 493.2600L634.2900 508.2000L645.5400 508.2000Q646.4400 508.2000 647.0700 508.8300Q647.7000 509.4600 647.7000 510.3600L647.7000 510.3600L647.7000 515.4900Q647.7000 516.4800 647.0700 517.1100Q646.4400 517.7400 645.5400 517.7400L645.5400 517.7400L634.2900 517.7400L634.2900 537.2700Q634.2900 540.9600 635.5950 543.0300Q636.9000 545.1000 640.1400 545.1000L640.1400 545.1000L646.3500 545.1000Q647.2500 545.1000 647.8800 545.7300Q648.5100 546.3600 648.5100 547.2600L648.5100 547.2600L648.5100 552.8400Q648.5100 553.7400 647.8800 554.3700Q647.2500 555 646.3500 555L646.3500 555ZM677.2200 555.9000L677.2200 555.9000Q670.0200 555.9000 665.1150 553.3800Q660.2100 550.8600 657.6450 546.2700Q655.0800 541.6800 654.7200 535.5600L654.7200 535.5600Q654.6300 533.9400 654.6300 531.6000Q654.6300 529.2600 654.7200 527.6400L654.7200 527.6400Q655.0800 521.4300 657.7350 516.8850Q660.3900 512.3400 665.2950 509.8200Q670.2000 507.3000 677.2200 507.3000L677.2200 507.3000Q684.2400 507.3000 689.1450 509.8200Q694.0500 512.3400 696.7050 516.8850Q699.3600 521.4300 699.7200 527.6400L699.7200 527.6400Q699.8100 529.2600 699.8100 531.6000Q699.8100 533.9400 699.7200 535.5600L699.7200 535.5600Q699.3600 541.6800 696.7950 546.2700Q694.2300 550.8600 689.3250 553.3800Q684.4200 555.9000 677.2200 555.9000ZM677.2200 546.9900L677.2200 546.9900Q681.9900 546.9900 684.6000 543.9750Q687.2100 540.9600 687.4800 535.1100L687.4800 535.1100Q687.5700 533.7600 687.5700 531.6000Q687.5700 529.4400 687.4800 528.0900L687.4800 528.0900Q687.2100 522.2400 684.6000 519.2250Q681.9900 516.2100 677.2200 516.2100L677.2200 516.2100Q672.4500 516.2100 669.8400 519.2250Q667.2300 522.2400 666.9600 528.0900L666.9600 528.0900Q666.8700 529.4400 666.8700 531.6000Q666.8700 533.7600 666.9600 535.1100L666.9600 535.1100Q667.2300 540.9600 669.8400 543.9750Q672.4500 546.9900 677.2200 546.9900ZM727.5300 555.9000L727.5300 555.9000Q722.1300 555.9000 718.3050 554.6400Q714.4800 553.3800 712.0500 551.4900Q709.6200 549.6000 708.4500 547.7100Q707.2800 545.8200 707.1900 544.5600L707.1900 544.5600Q707.1000 543.5700 707.7750 542.9850Q708.4500 542.4000 709.2600 542.4000L709.2600 542.4000L716.3700 542.4000Q716.7300 542.4000 717.0000 542.4900Q717.2700 542.5800 717.7200 543.0300L717.7200 543.0300Q718.8900 544.0200 720.1950 545.1000Q721.5000 546.1800 723.3000 546.9450Q725.1000 547.7100 727.8000 547.7100L727.8000 547.7100Q731.3100 547.7100 733.6950 546.3150Q736.0800 544.9200 736.0800 542.3100L736.0800 542.3100Q736.0800 540.4200 735.0450 539.2500Q734.0100 538.0800 731.2200 537.1350Q728.4300 536.1900 723.3000 535.1100L723.3000 535.1100Q718.2600 533.9400 714.9300 532.1400Q711.6000 530.3400 709.9800 527.6400Q708.3600 524.9400 708.3600 521.3400L708.3600 521.3400Q708.3600 517.8300 710.4750 514.6350Q712.5900 511.4400 716.7750 509.3700Q720.9600 507.3000 727.1700 507.3000L727.1700 507.3000Q732.0300 507.3000 735.6300 508.5150Q739.2300 509.7300 741.6150 511.5300Q744.0000 513.3300 745.2600 515.1750Q746.5200 517.0200 746.6100 518.3700L746.6100 518.3700Q746.7000 519.3600 746.0700 519.9450Q745.4400 520.5300 744.6300 520.5300L744.6300 520.5300L737.9700 520.5300Q737.5200 520.5300 737.1600 520.3500Q736.8000 520.1700 736.4400 519.9000L736.4400 519.9000Q735.4500 519 734.2800 517.9650Q733.1100 516.9300 731.4450 516.2100Q729.7800 515.4900 727.0800 515.4900L727.0800 515.4900Q723.6600 515.4900 721.8600 516.9750Q720.0600 518.4600 720.0600 520.7100L720.0600 520.7100Q720.0600 522.2400 720.9150 523.3650Q721.7700 524.4900 724.3800 525.4800Q726.9900 526.4700 732.3000 527.5500L732.3000 527.5500Q738.3300 528.6300 741.8850 530.7450Q745.4400 532.8600 746.9250 535.6050Q748.4100 538.3500 748.4100 541.6800L748.4100 541.6800Q748.4100 545.7300 746.0250 548.9700Q743.6400 552.2100 739.0050 554.0550Q734.3700 555.9000 727.5300 555.9000ZM795.6600 555.9000L795.6600 555.9000Q790.9800 555.9000 787.4250 554.3250Q783.8700 552.7500 781.5300 549.8700Q779.1900 546.9900 777.9300 543.0750Q776.6700 539.1600 776.4900 534.4800L776.4900 534.4800Q776.4000 532.8600 776.4000 531.5550Q776.4000 530.2500 776.4900 528.6300L776.4900 528.6300Q776.6700 524.1300 777.8850 520.2600Q779.1000 516.3900 781.4850 513.4650Q783.8700 510.5400 787.4250 508.9200Q790.9800 507.3000 795.6600 507.3000L795.6600 507.3000Q800.5200 507.3000 803.8950 508.9650Q807.2700 510.6300 809.5200 513.2400L809.5200 513.2400L809.5200 493.2600Q809.5200 492.3600 810.1050 491.7300Q810.6900 491.1000 811.6800 491.1000L811.6800 491.1000L819.3300 491.1000Q820.2300 491.1000 820.8600 491.7300Q821.4900 492.3600 821.4900 493.2600L821.4900 493.2600L821.4900 552.8400Q821.4900 553.7400 820.8600 554.3700Q820.2300 555 819.3300 555L819.3300 555L812.2200 555Q811.2300 555 810.6450 554.3700Q810.0600 553.7400 810.0600 552.8400L810.0600 552.8400L810.0600 549.5100Q807.8100 552.3000 804.3450 554.1000Q800.8800 555.9000 795.6600 555.9000ZM798.9900 546.2700L798.9900 546.2700Q802.7700 546.2700 805.0200 544.5600Q807.2700 542.8500 808.3500 540.1950Q809.4300 537.5400 809.5200 534.7500L809.5200 534.7500Q809.6100 533.1300 809.6100 531.2850Q809.6100 529.4400 809.5200 527.8200L809.5200 527.8200Q809.4300 525.1200 808.2600 522.6450Q807.0900 520.1700 804.8400 518.5500Q802.5900 516.9300 798.9900 516.9300L798.9900 516.9300Q795.2100 516.9300 793.0050 518.5950Q790.8000 520.2600 789.8100 522.9600Q788.8200 525.6600 788.6400 528.9000L788.6400 528.9000Q788.5500 531.6000 788.6400 534.3000L788.6400 534.3000Q788.8200 537.5400 789.8100 540.2400Q790.8000 542.9400 793.0050 544.6050Q795.2100 546.2700 798.9900 546.2700ZM854.1600 555.9000L854.1600 555.9000Q846.9600 555.9000 842.0550 553.3800Q837.1500 550.8600 834.5850 546.2700Q832.0200 541.6800 831.6600 535.5600L831.6600 535.5600Q831.5700 533.9400 831.5700 531.6000Q831.5700 529.2600 831.6600 527.6400L831.6600 527.6400Q832.0200 521.4300 834.6750 516.8850Q837.3300 512.3400 842.2350 509.8200Q847.1400 507.3000 854.1600 507.3000L854.1600 507.3000Q861.1800 507.3000 866.0850 509.8200Q870.9900 512.3400 873.6450 516.8850Q876.3000 521.4300 876.6600 527.6400L876.6600 527.6400Q876.7500 529.2600 876.7500 531.6000Q876.7500 533.9400 876.6600 535.5600L876.6600 535.5600Q876.3000 541.6800 873.7350 546.2700Q871.1700 550.8600 866.2650 553.3800Q861.3600 555.9000 854.1600 555.9000ZM854.1600 546.9900L854.1600 546.9900Q858.9300 546.9900 861.5400 543.9750Q864.1500 540.9600 864.4200 535.1100L864.4200 535.1100Q864.5100 533.7600 864.5100 531.6000Q864.5100 529.4400 864.4200 528.0900L864.4200 528.0900Q864.1500 522.2400 861.5400 519.2250Q858.9300 516.2100 854.1600 516.2100L854.1600 516.2100Q849.3900 516.2100 846.7800 519.2250Q844.1700 522.2400 843.9000 528.0900L843.9000 528.0900Q843.8100 529.4400 843.8100 531.6000Q843.8100 533.7600 843.9000 535.1100L843.9000 535.1100Q844.1700 540.9600 846.7800 543.9750Q849.3900 546.9900 854.1600 546.9900ZM186 645L159.1800 645Q158.2800 645 157.6500 644.3700Q157.0200 643.7400 157.0200 642.8400L157.0200 642.8400L157.0200 584.2500Q157.0200 583.2600 157.6500 582.6300Q158.2800 582 159.1800 582L159.1800 582L185.2800 582Q192.5700 582 197.1600 584.2050Q201.7500 586.4100 203.9550 590.2800Q206.1600 594.1500 206.1600 599.2800L206.1600 599.2800Q206.1600 602.7000 204.9450 605.2650Q203.7300 607.8300 201.9750 609.4500Q200.2200 611.0700 198.5100 611.9700L198.5100 611.9700Q202.0200 613.5900 204.7200 617.3700Q207.4200 621.1500 207.4200 626.3700L207.4200 626.3700Q207.4200 631.7700 204.9900 636Q202.5600 640.2300 197.7900 642.6150Q193.0200 645 186 645L186 645ZM169.5300 617.1900L169.5300 635.4600L184.5600 635.4600Q189.4200 635.4600 191.9400 632.8050Q194.4600 630.1500 194.4600 626.3700L194.4600 626.3700Q194.4600 622.4100 191.8950 619.8000Q189.3300 617.1900 184.5600 617.1900L184.5600 617.1900L169.5300 617.1900ZM169.5300 591.4500L169.5300 607.8300L183.6600 607.8300Q188.4300 607.8300 190.8150 605.5350Q193.2000 603.2400 193.2000 599.5500L193.2000 599.5500Q193.2000 595.7700 190.8150 593.6100Q188.4300 591.4500 183.6600 591.4500L183.6600 591.4500L169.5300 591.4500ZM238.3800 645.9000L238.3800 645.9000Q231.1800 645.9000 226.2750 643.3800Q221.3700 640.8600 218.8050 636.2700Q216.2400 631.6800 215.8800 625.5600L215.8800 625.5600Q215.7900 623.9400 215.7900 621.6000Q215.7900 619.2600 215.8800 617.6400L215.8800 617.6400Q216.2400 611.4300 218.8950 606.8850Q221.5500 602.3400 226.4550 599.8200Q231.3600 597.3000 238.3800 597.3000L238.3800 597.3000Q245.4000 597.3000 250.3050 599.8200Q255.2100 602.3400 257.8650 606.8850Q260.5200 611.4300 260.8800 617.6400L260.8800 617.6400Q260.9700 619.2600 260.9700 621.6000Q260.9700 623.9400 260.8800 625.5600L260.8800 625.5600Q260.5200 631.6800 257.9550 636.2700Q255.3900 640.8600 250.4850 643.3800Q245.5800 645.9000 238.3800 645.9000ZM238.3800 636.9900L238.3800 636.9900Q243.1500 636.9900 245.7600 633.9750Q248.3700 630.9600 248.6400 625.1100L248.6400 625.1100Q248.7300 623.7600 248.7300 621.6000Q248.7300 619.4400 248.6400 618.0900L248.6400 618.0900Q248.3700 612.2400 245.7600 609.2250Q243.1500 606.2100 238.3800 606.2100L238.3800 606.2100Q233.6100 606.2100 231 609.2250Q228.3900 612.2400 228.1200 618.0900L228.1200 618.0900Q228.0300 619.4400 228.0300 621.6000Q228.0300 623.7600 228.1200 625.1100L228.1200 625.1100Q228.3900 630.9600 231 633.9750Q233.6100 636.9900 238.3800 636.9900ZM291.6600 645.9000L291.6600 645.9000Q284.4600 645.9000 279.5550 643.3800Q274.6500 640.8600 272.0850 636.2700Q269.5200 631.6800 269.1600 625.5600L269.1600 625.5600Q269.0700 623.9400 269.0700 621.6000Q269.0700 619.2600 269.1600 617.6400L269.1600 617.6400Q269.5200 611.4300 272.1750 606.8850Q274.8300 602.3400 279.7350 599.8200Q284.6400 597.3000 291.6600 597.3000L291.6600 597.3000Q298.6800 597.3000 303.5850 599.8200Q308.4900 602.3400 311.1450 606.8850Q313.8000 611.4300 314.1600 617.6400L314.1600 617.6400Q314.2500 619.2600 314.2500 621.6000Q314.2500 623.9400 314.1600 625.5600L314.1600 625.5600Q313.8000 631.6800 311.2350 636.2700Q308.6700 640.8600 303.7650 643.3800Q298.8600 645.9000 291.6600 645.9000ZM291.6600 636.9900L291.6600 636.9900Q296.4300 636.9900 299.0400 633.9750Q301.6500 630.9600 301.9200 625.1100L301.9200 625.1100Q302.0100 623.7600 302.0100 621.6000Q302.0100 619.4400 301.9200 618.0900L301.9200 618.0900Q301.6500 612.2400 299.0400 609.2250Q296.4300 606.2100 291.6600 606.2100L291.6600 606.2100Q286.8900 606.2100 284.2800 609.2250Q281.6700 612.2400 281.4000 618.0900L281.4000 618.0900Q281.3100 619.4400 281.3100 621.6000Q281.3100 623.7600 281.4000 625.1100L281.4000 625.1100Q281.6700 630.9600 284.2800 633.9750Q286.8900 636.9900 291.6600 636.9900ZM352.6800 645L345.3900 645Q339.9900 645 336.3000 643.1100Q332.6100 641.2200 330.8100 637.4850Q329.0100 633.7500 329.0100 628.1700L329.0100 628.1700L329.0100 607.7400L321.9000 607.7400Q321.0000 607.7400 320.3700 607.1100Q319.7400 606.4800 319.7400 605.4900L319.7400 605.4900L319.7400 600.3600Q319.7400 599.4600 320.3700 598.8300Q321.0000 598.2000 321.9000 598.2000L321.9000 598.2000L329.0100 598.2000L329.0100 583.2600Q329.0100 582.3600 329.5950 581.7300Q330.1800 581.1000 331.1700 581.1000L331.1700 581.1000L338.4600 581.1000Q339.3600 581.1000 339.9900 581.7300Q340.6200 582.3600 340.6200 583.2600L340.6200 583.2600L340.6200 598.2000L351.8700 598.2000Q352.7700 598.2000 353.4000 598.8300Q354.0300 599.4600 354.0300 600.3600L354.0300 600.3600L354.0300 605.4900Q354.0300 606.4800 353.4000 607.1100Q352.7700 607.7400 351.8700 607.7400L351.8700 607.7400L340.6200 607.7400L340.6200 627.2700Q340.6200 630.9600 341.9250 633.0300Q343.2300 635.1000 346.4700 635.1000L346.4700 635.1000L352.6800 635.1000Q353.5800 635.1000 354.2100 635.7300Q354.8400 636.3600 354.8400 637.2600L354.8400 637.2600L354.8400 642.8400Q354.8400 643.7400 354.2100 644.3700Q353.5800 645 352.6800 645L352.6800 645ZM380.5800 645.9000L380.5800 645.9000Q375.1800 645.9000 371.3550 644.6400Q367.5300 643.3800 365.1000 641.4900Q362.6700 639.6000 361.5000 637.7100Q360.3300 635.8200 360.2400 634.5600L360.2400 634.5600Q360.1500 633.5700 360.8250 632.9850Q361.5000 632.4000 362.3100 632.4000L362.3100 632.4000L369.4200 632.4000Q369.7800 632.4000 370.0500 632.4900Q370.3200 632.5800 370.7700 633.0300L370.7700 633.0300Q371.9400 634.0200 373.2450 635.1000Q374.5500 636.1800 376.3500 636.9450Q378.1500 637.7100 380.8500 637.7100L380.8500 637.7100Q384.3600 637.7100 386.7450 636.3150Q389.1300 634.9200 389.1300 632.3100L389.1300 632.3100Q389.1300 630.4200 388.0950 629.2500Q387.0600 628.0800 384.2700 627.1350Q381.4800 626.1900 376.3500 625.1100L376.3500 625.1100Q371.3100 623.9400 367.9800 622.1400Q364.6500 620.3400 363.0300 617.6400Q361.4100 614.9400 361.4100 611.3400L361.4100 611.3400Q361.4100 607.8300 363.5250 604.6350Q365.6400 601.4400 369.8250 599.3700Q374.0100 597.3000 380.2200 597.3000L380.2200 597.3000Q385.0800 597.3000 388.6800 598.5150Q392.2800 599.7300 394.6650 601.5300Q397.0500 603.3300 398.3100 605.1750Q399.5700 607.0200 399.6600 608.3700L399.6600 608.3700Q399.7500 609.3600 399.1200 609.9450Q398.4900 610.5300 397.6800 610.5300L397.6800 610.5300L391.0200 610.5300Q390.5700 610.5300 390.2100 610.3500Q389.8500 610.1700 389.4900 609.9000L389.4900 609.9000Q388.5000 609 387.3300 607.9650Q386.1600 606.9300 384.4950 606.2100Q382.8300 605.4900 380.1300 605.4900L380.1300 605.4900Q376.7100 605.4900 374.9100 606.9750Q373.1100 608.4600 373.1100 610.7100L373.1100 610.7100Q373.1100 612.2400 373.9650 613.3650Q374.8200 614.4900 377.4300 615.4800Q380.0400 616.4700 385.3500 617.5500L385.3500 617.5500Q391.3800 618.6300 394.9350 620.7450Q398.4900 622.8600 399.9750 625.6050Q401.4600 628.3500 401.4600 631.6800L401.4600 631.6800Q401.4600 635.7300 399.0750 638.9700Q396.6900 642.2100 392.0550 644.0550Q387.4200 645.9000 380.5800 645.9000ZM439.1700 645L431.8800 645Q426.4800 645 422.7900 643.1100Q419.1000 641.2200 417.3000 637.4850Q415.5000 633.7500 415.5000 628.1700L415.5000 628.1700L415.5000 607.7400L408.3900 607.7400Q407.4900 607.7400 406.8600 607.1100Q406.2300 606.4800 406.2300 605.4900L406.2300 605.4900L406.2300 600.3600Q406.2300 599.4600 406.8600 598.8300Q407.4900 598.2000 408.3900 598.2000L408.3900 598.2000L415.5000 598.2000L415.5000 583.2600Q415.5000 582.3600 416.0850 581.7300Q416.6700 581.1000 417.6600 581.1000L417.6600 581.1000L424.9500 581.1000Q425.8500 581.1000 426.4800 581.7300Q427.1100 582.3600 427.1100 583.2600L427.1100 583.2600L427.1100 598.2000L438.3600 598.2000Q439.2600 598.2000 439.8900 598.8300Q440.5200 599.4600 440.5200 600.3600L440.5200 600.3600L440.5200 605.4900Q440.5200 606.4800 439.8900 607.1100Q439.2600 607.7400 438.3600 607.7400L438.3600 607.7400L427.1100 607.7400L427.1100 627.2700Q427.1100 630.9600 428.4150 633.0300Q429.7200 635.1000 432.9600 635.1000L432.9600 635.1000L439.1700 635.1000Q440.0700 635.1000 440.7000 635.7300Q441.3300 636.3600 441.3300 637.2600L441.3300 637.2600L441.3300 642.8400Q441.3300 643.7400 440.7000 644.3700Q440.0700 645 439.1700 645L439.1700 645ZM459.3300 645L451.5000 645Q450.6000 645 449.9700 644.3700Q449.3400 643.7400 449.3400 642.8400L449.3400 642.8400L449.3400 600.4500Q449.3400 599.4600 449.9700 598.8300Q450.6000 598.2000 451.5000 598.2000L451.5000 598.2000L458.7900 598.2000Q459.6900 598.2000 460.3650 598.8300Q461.0400 599.4600 461.0400 600.4500L461.0400 600.4500L461.0400 604.1400Q463.1100 601.2600 466.3950 599.7300Q469.6800 598.2000 474 598.2000L474 598.2000L477.6900 598.2000Q478.6800 598.2000 479.2650 598.8300Q479.8500 599.4600 479.8500 600.3600L479.8500 600.3600L479.8500 606.8400Q479.8500 607.7400 479.2650 608.3700Q478.6800 609 477.6900 609L477.6900 609L470.6700 609Q466.3500 609 463.9650 611.3850Q461.5800 613.7700 461.5800 618.0900L461.5800 618.0900L461.5800 642.8400Q461.5800 643.7400 460.9500 644.3700Q460.3200 645 459.3300 645L459.3300 645ZM500.4600 645.9000L500.4600 645.9000Q495.7800 645.9000 492.0000 644.0550Q488.2200 642.2100 486.0150 639.1050Q483.8100 636 483.8100 632.1300L483.8100 632.1300Q483.8100 625.8300 488.9400 622.0950Q494.0700 618.3600 502.3500 617.1000L502.3500 617.1000L514.6800 615.3000L514.6800 613.4100Q514.6800 609.6300 512.7900 607.5600Q510.9000 605.4900 506.3100 605.4900L506.3100 605.4900Q503.0700 605.4900 501.0450 606.7950Q499.0200 608.1000 498.0300 610.2600L498.0300 610.2600Q497.3100 611.4300 495.9600 611.4300L495.9600 611.4300L488.8500 611.4300Q487.8600 611.4300 487.3650 610.8900Q486.8700 610.3500 486.8700 609.4500L486.8700 609.4500Q486.9600 608.0100 488.0850 605.9400Q489.2100 603.8700 491.5050 601.9350Q493.8000 600 497.4900 598.6500Q501.1800 597.3000 506.4000 597.3000L506.4000 597.3000Q512.0700 597.3000 515.9850 598.6950Q519.9000 600.0900 522.2400 602.4300Q524.5800 604.7700 525.6600 607.9200Q526.7400 611.0700 526.7400 614.5800L526.7400 614.5800L526.7400 642.8400Q526.7400 643.7400 526.1100 644.3700Q525.4800 645 524.5800 645L524.5800 645L517.2900 645Q516.3000 645 515.7150 644.3700Q515.1300 643.7400 515.1300 642.8400L515.1300 642.8400L515.1300 639.3300Q513.9600 640.9500 511.9800 642.4800Q510.0000 644.0100 507.1650 644.9550Q504.3300 645.9000 500.4600 645.9000ZM503.5200 637.3500L503.5200 637.3500Q506.6700 637.3500 509.2350 636Q511.8000 634.6500 513.2850 631.8150Q514.7700 628.9800 514.7700 624.6600L514.7700 624.6600L514.7700 622.7700L505.7700 624.2100Q500.4600 625.0200 497.8500 626.8200Q495.2400 628.6200 495.2400 631.2300L495.2400 631.2300Q495.2400 633.2100 496.4550 634.6050Q497.6700 636 499.5600 636.6750Q501.4500 637.3500 503.5200 637.3500ZM548.1600 662.1000L540.5100 662.1000Q539.6100 662.1000 538.9800 661.4700Q538.3500 660.8400 538.3500 659.9400L538.3500 659.9400L538.3500 600.3600Q538.3500 599.4600 538.9800 598.8300Q539.6100 598.2000 540.5100 598.2000L540.5100 598.2000L547.6200 598.2000Q548.6100 598.2000 549.1950 598.8300Q549.7800 599.4600 549.7800 600.3600L549.7800 600.3600L549.7800 603.9600Q551.9400 601.0800 555.4500 599.1900Q558.9600 597.3000 564.1800 597.3000L564.1800 597.3000Q568.9500 597.3000 572.4600 598.8300Q575.9700 600.3600 578.3100 603.1950Q580.6500 606.0300 581.9100 609.9000Q583.1700 613.7700 583.3500 618.4500L583.3500 618.4500Q583.4400 619.9800 583.4400 621.6000Q583.4400 623.2200 583.3500 624.8400L583.3500 624.8400Q583.2600 629.3400 582.0000 633.1650Q580.7400 636.9900 578.3550 639.8250Q575.9700 642.6600 572.4600 644.2800Q568.9500 645.9000 564.1800 645.9000L564.1800 645.9000Q559.3200 645.9000 555.9000 644.1450Q552.4800 642.3900 550.3200 639.5100L550.3200 639.5100L550.3200 659.9400Q550.3200 660.8400 549.7350 661.4700Q549.1500 662.1000 548.1600 662.1000L548.1600 662.1000ZM560.8500 636.2700L560.8500 636.2700Q564.7200 636.2700 566.8800 634.6050Q569.0400 632.9400 570.0300 630.2400Q571.0200 627.5400 571.2000 624.3000L571.2000 624.3000Q571.2900 621.6000 571.2000 618.9000L571.2000 618.9000Q571.0200 615.6600 570.0300 612.9600Q569.0400 610.2600 566.8800 608.5950Q564.7200 606.9300 560.8500 606.9300L560.8500 606.9300Q557.1600 606.9300 554.8650 608.6400Q552.5700 610.3500 551.5350 613.0050Q550.5000 615.6600 550.3200 618.4500L550.3200 618.4500Q550.2300 620.0700 550.2300 621.8700Q550.2300 623.6700 550.3200 625.3800L550.3200 625.3800Q550.4100 628.0800 551.5800 630.5550Q552.7500 633.0300 555.0000 634.6500Q557.2500 636.2700 560.8500 636.2700Z" id="title"/><path d="M1408.9600 640L1388.9400 640Q1386.5200 640 1385.0900 638.4600Q1383.6600 636.9200 1383.6600 634.7200L1383.6600 634.7200L1383.6600 520.7600L1350.2200 546.5000Q1348.2400 547.8200 1346.2600 547.4900Q1344.2800 547.1600 1342.7400 545.1800L1342.7400 545.1800L1333.5000 533.3000Q1332.1800 531.3200 1332.5100 529.1200Q1332.8400 526.9200 1334.8200 525.6000L1334.8200 525.6000L1384.1000 487.5400Q1385.4200 486.4400 1386.7400 486.2200Q1388.0600 486 1389.6000 486L1389.6000 486L1408.9600 486Q1411.1600 486 1412.7000 487.5400Q1414.2400 489.0800 1414.2400 491.2800L1414.2400 491.2800L1414.2400 634.7200Q1414.2400 636.9200 1412.7000 638.4600Q1411.1600 640 1408.9600 640L1408.9600 640ZM1550.2000 640L1445.0400 640Q1442.8400 640 1441.3000 638.4600Q1439.7600 636.9200 1439.7600 634.7200L1439.7600 634.7200L1439.7600 623.5000Q1439.7600 621.5200 1440.7500 618.7700Q1441.7400 616.0200 1445.2600 613.1600L1445.2600 613.1600L1480.0200 578.6200Q1494.5400 567.1800 1503.4500 559.1500Q1512.3600 551.1200 1516.4300 544.4100Q1520.5000 537.7000 1520.5000 531.1000L1520.5000 531.1000Q1520.5000 521.2000 1515.1100 515.0400Q1509.7200 508.8800 1498.0600 508.8800L1498.0600 508.8800Q1490.3600 508.8800 1485.0800 512.0700Q1479.8000 515.2600 1476.8300 520.5400Q1473.8600 525.8200 1472.7600 532.2000L1472.7600 532.2000Q1472.3200 535.0600 1470.3400 536.1600Q1468.3600 537.2600 1466.3800 537.2600L1466.3800 537.2600L1446.8000 537.2600Q1444.8200 537.2600 1443.5000 535.9400Q1442.1800 534.6200 1442.1800 532.8600L1442.1800 532.8600Q1442.4000 523.4000 1446.1400 514.4900Q1449.8800 505.5800 1457.0300 498.6500Q1464.1800 491.7200 1474.5200 487.5400Q1484.8600 483.3600 1497.8400 483.3600L1497.8400 483.3600Q1516.1000 483.3600 1528.0900 489.5200Q1540.0800 495.6800 1546.1300 506.2400Q1552.1800 516.8000 1552.1800 530L1552.1800 530Q1552.1800 540.3400 1548.2200 549.0300Q1544.2600 557.7200 1536.7800 565.7500Q1529.3000 573.7800 1518.7400 582.1400L1518.7400 582.1400L1487.5000 613.8200L1550.2000 613.8200Q1552.6200 613.8200 1554.0500 615.2500Q1555.4800 616.6800 1555.4800 619.1000L1555.4800 619.1000L1555.4800 634.7200Q1555.4800 636.9200 1554.0500 638.4600Q1552.6200 640 1550.2000 640L1550.2000 640ZM1606.5200 640L1584.5200 640Q1582.3200 640 1580.7800 638.4600Q1579.2400 636.9200 1579.2400 634.7200L1579.2400 634.7200L1579.2400 612.9400Q1579.2400 610.5200 1580.7800 608.9800Q1582.3200 607.4400 1584.5200 607.4400L1584.5200 607.4400L1606.5200 607.4400Q1608.7200 607.4400 1610.2600 608.9800Q1611.8000 610.5200 1611.8000 612.9400L1611.8000 612.9400L1611.8000 634.7200Q1611.8000 636.9200 1610.2600 638.4600Q1608.7200 640 1606.5200 640L1606.5200 640ZM1670.3200 640L1650.3000 640Q1648.3200 640 1647 638.5700Q1645.6800 637.1400 1645.6800 635.1600L1645.6800 635.1600Q1645.6800 634.2800 1646.1200 633.1800L1646.1200 633.1800L1699.1400 512.1800L1630.0600 512.1800Q1627.6400 512.1800 1626.2100 510.6400Q1624.7800 509.1000 1624.7800 506.9000L1624.7800 506.9000L1624.7800 491.5000Q1624.7800 489.0800 1626.2100 487.5400Q1627.6400 486 1630.0600 486L1630.0600 486L1726.6400 486Q1729.0600 486 1730.4900 487.5400Q1731.9200 489.0800 1731.9200 491.5000L1731.9200 491.5000L1731.9200 505.1400Q1731.9200 508.2200 1731.3700 510.3100Q1730.8200 512.4000 1729.9400 514.6000L1729.9400 514.6000L1677.3600 634.7200Q1676.7000 636.2600 1675.0500 638.1300Q1673.4000 640 1670.3200 640L1670.3200 640Z" id="lecture-full-number"/></g></svg>