<svg xmlns="http://www.w3.org/2000/svg" version="1.1" xmlns:xlink="http://www.w3.org/1999/xlink" xmlns:svgjs="http://svgjs.dev/svgjs" viewBox="0 0 1920 1080" id="f1cda767-8c48-4f7a-b84c-e4c0e9591af0"><g><rect width="1920" height="1080" fill="#eff0a5"/></g><g fill="#f1c5c4"><path d="M745.478 668.096L1087.28 1009.97L1200.88 896.347L859.076 554.473L745.478 668.096Z"/><path d="M858.951 554.294L517.152 896.168L630.75 1009.79L972.549 667.917L858.951 554.294Z"/><path d="M289.239 668.391L631.038 1010.27L744.636 896.643L402.837 554.769L289.239 668.391Z"/><path d="M402.706 554L60.907 895.874L174.505 1009.5L516.304 667.623L402.706 554Z"/><path d="M-166 667.682L175.799 1009.56L289.397 895.933L-52.4021 554.059L-166 667.682Z"/></g><g fill="#ffffff" opacity="0.4"><path d="M1134 160C1540.91 160 1872 491.086 1872 898C1872 1304.91 1540.91 1636 1134 1636C727.086 1635.56 396 1304.91 396 898C396 491.086 727.086 160 1134 160ZM1134 1611.31C1527.25 1611.31 1847.31 1291.25 1847.31 898C1847.31 504.753 1527.25 184.247 1134 184.247C740.753 184.247 420.247 504.312 420.247 898C420.247 1291.69 740.312 1611.31 1134 1611.31Z"/><path d="M1134 251.699C1490.22 251.699 1780.3 541.785 1780.3 898C1780.3 1254.22 1490.22 1544.3 1134 1544.3C777.785 1544.3 487.699 1254.22 487.699 898C487.699 541.785 777.344 251.699 1134 251.699ZM1134 1519.61C1476.99 1519.61 1756.05 1240.55 1756.05 897.559C1756.05 554.57 1476.99 275.947 1134 275.947C791.011 275.947 511.946 555.011 511.946 898C511.946 1240.99 791.011 1519.61 1134 1519.61Z"/><path d="M1134 342.957C1439.96 342.957 1688.6 592.043 1688.6 897.559C1688.6 1203.52 1439.52 1452.16 1134 1452.16C828.043 1452.16 579.398 1203.08 579.398 897.559C578.957 592.043 828.043 342.957 1134 342.957ZM1134 1428.35C1426.29 1428.35 1664.35 1190.29 1664.35 898C1664.35 605.71 1426.29 367.645 1134 367.645C841.71 367.645 603.645 605.71 603.645 898C603.645 1190.29 841.269 1428.35 1134 1428.35Z"/><path d="M1134 434.656C1389.26 434.656 1597.34 642.301 1597.34 898C1597.34 1153.7 1389.7 1361.34 1134 1361.34C878.742 1361.34 670.656 1153.7 670.656 898C670.656 642.301 878.301 434.656 1134 434.656ZM1134 1336.66C1376.03 1336.66 1572.66 1139.59 1572.66 898C1572.66 656.408 1375.59 459.344 1134 459.344C891.968 459.344 695.344 656.408 695.344 898C695.344 1139.59 891.968 1336.66 1134 1336.66Z"/><path d="M1134 526.354C1339 526.354 1505.65 693 1505.65 898C1505.65 1103 1339 1269.64 1134 1269.64C929 1269.64 762.355 1103 762.355 898C762.355 693 929 526.354 1134 526.354ZM1134 1244.96C1325.33 1244.96 1481.4 1089.33 1481.4 897.559C1481.4 706.225 1325.77 550.161 1134 550.161C942.667 550.161 786.602 705.785 786.602 897.559C786.602 1089.33 942.226 1244.96 1134 1244.96Z"/><path d="M1134 617.613C1288.3 617.613 1414.39 743.258 1414.39 898C1414.39 1052.74 1288.74 1178.39 1134 1178.39C979.699 1178.39 853.613 1052.74 853.613 898C853.613 743.258 979.258 617.613 1134 617.613ZM1134 1153.7C1275.08 1153.7 1389.7 1039.08 1389.7 898C1389.7 756.925 1275.08 642.301 1134 642.301C992.925 642.301 878.301 756.925 878.301 898C878.301 1039.08 992.925 1153.7 1134 1153.7Z"/><path d="M1134 709.312C1238.04 709.312 1322.69 793.957 1322.69 898C1322.69 1002.04 1238.04 1086.69 1134 1086.69C1029.96 1086.69 945.312 1002.04 945.312 898C945.312 793.957 1029.96 709.312 1134 709.312ZM1134 1062C1224.38 1062 1298.44 988.377 1298.44 897.559C1298.44 807.183 1224.82 733.118 1134 733.118C1043.62 733.118 969.559 806.742 969.559 897.559C969.559 988.377 1043.18 1062 1134 1062Z"/><path d="M1134 800.57C1187.34 800.57 1230.99 844.215 1230.99 897.56C1230.99 950.904 1187.34 994.549 1134 994.549C1080.66 994.549 1037.01 950.904 1037.01 897.56C1036.57 844.215 1080.22 800.57 1134 800.57ZM1134 970.742C1174.12 970.742 1206.74 938.119 1206.74 898C1206.74 857.882 1174.12 825.258 1134 825.258C1093.88 825.258 1061.26 857.882 1061.26 898C1061.26 938.119 1093.88 970.742 1134 970.742Z"/></g><g><path d="M178.635 139.281L184.422 144.246V166.626H215.704L219.958 172.147L215.69 177.397H184.422V198.795L178.635 203.747L173 198.795V144.232L178.635 139.281ZM195.554 195.68H219.406L223.397 200.915L219.143 206.45H195.554L191.7 201.342L195.554 195.68ZM196.382 138H219.129L223.383 143.52L219.129 148.77H196.659L192.115 143.677L196.382 138ZM323.155 148.628L328.251 154.291L323.155 159.968H246.13L241.172 154.291L246.13 148.628H323.155ZM237.043 172.147L241.849 167.893L246.669 172.147V178.393C246.669 188.879 249.417 197.515 261.668 197.515H264.14C275.147 197.515 281.197 189.86 281.197 177.952V172.005L285.879 167.75L290.699 171.862V178.379C290.699 189.007 293.723 196.946 305.56 196.946H307.618C319.178 196.946 321.235 187.869 321.373 177.952V171.578L326.056 167.608L331 171.72V178.094C330.862 191.838 327.285 207.574 308.032 207.574H305.974C294.552 207.574 288.365 202.324 285.892 195.808C283.006 202.466 275.299 208.286 264.844 208.286H262.358C242.553 208.286 237.194 195.964 237.056 178.663V172.147H237.043ZM276.391 274.744L273.642 267.089L280.796 264.969L305.974 276.721V252.491L311.07 248.095L316.291 252.491V281.829L325.641 286.226L328.251 293.311L320.959 296L276.391 274.744ZM321.235 223.011L328.113 226.27L325.917 233.497L264.002 263.119L256.571 260.146L259.596 252.776L321.235 223.011ZM231.905 263.404L237.954 268.512C237.402 286.51 222.403 296 204.669 296H202.874C194.062 296 183.759 292.6 177.157 286.083L177.834 278.855L184.298 278.002C189.118 282.256 195.858 285.229 202.183 285.229H204.117C216.091 285.229 225.303 280.136 226.27 268.085L231.905 263.404ZM226.256 251.638C225.704 239.16 216.629 234.209 204.103 234.209H202.169C194.739 234.209 189.104 237.182 184.284 241.436L177.834 240.583L177.143 233.355C183.745 226.696 192.957 223.58 202.597 223.58H204.517C222.403 223.58 237.402 232.942 237.94 251.211L231.891 256.176L226.256 251.638Z" fill="#000000"/></g><path d="M1171 781L1171 339L1187 339L1187 781L1171 781Z" fill="#000000"/><g fill="#000000" id="info-group"><path d="M181.3200 555.9000L181.3200 555.9000Q172.9500 555.9000 167.1450 552.9750Q161.3400 550.0500 158.2800 544.6050Q155.2200 539.1600 154.8600 531.5100L154.8600 531.5100Q154.7700 527.8200 154.7700 523.5900Q154.7700 519.3600 154.8600 515.4900L154.8600 515.4900Q155.2200 507.9300 158.3250 502.4400Q161.4300 496.9500 167.2350 494.0250Q173.0400 491.1000 181.3200 491.1000L181.3200 491.1000Q187.4400 491.1000 192.3000 492.7200Q197.1600 494.3400 200.5800 497.1750Q204 500.0100 205.8900 503.7900Q207.7800 507.5700 207.8700 511.9800L207.8700 511.9800Q207.9600 512.7900 207.3750 513.3300Q206.7900 513.8700 205.9800 513.8700L205.9800 513.8700L197.4300 513.8700Q196.4400 513.8700 195.8100 513.3750Q195.1800 512.8800 194.9100 511.7100L194.9100 511.7100Q193.4700 505.7700 189.9600 503.6100Q186.4500 501.4500 181.2300 501.4500L181.2300 501.4500Q175.2000 501.4500 171.6000 504.8250Q168 508.2000 167.7300 515.9400L167.7300 515.9400Q167.4600 523.3200 167.7300 531.0600L167.7300 531.0600Q168 538.8000 171.6000 542.1750Q175.2000 545.5500 181.2300 545.5500L181.2300 545.5500Q186.4500 545.5500 190.0050 543.3450Q193.5600 541.1400 194.9100 535.2900L194.9100 535.2900Q195.1800 534.0300 195.8100 533.5800Q196.4400 533.1300 197.4300 533.1300L197.4300 533.1300L205.9800 533.1300Q206.7900 533.1300 207.3750 533.6700Q207.9600 534.2100 207.8700 535.0200L207.8700 535.0200Q207.7800 539.4300 205.8900 543.2100Q204 546.9900 200.5800 549.8250Q197.1600 552.6600 192.3000 554.2800Q187.4400 555.9000 181.3200 555.9000ZM238.2000 555.9000L238.2000 555.9000Q231 555.9000 226.0950 553.3800Q221.1900 550.8600 218.6250 546.2700Q216.0600 541.6800 215.7000 535.5600L215.7000 535.5600Q215.6100 533.9400 215.6100 531.6000Q215.6100 529.2600 215.7000 527.6400L215.7000 527.6400Q216.0600 521.4300 218.7150 516.8850Q221.3700 512.3400 226.2750 509.8200Q231.1800 507.3000 238.2000 507.3000L238.2000 507.3000Q245.2200 507.3000 250.1250 509.8200Q255.0300 512.3400 257.6850 516.8850Q260.3400 521.4300 260.7000 527.6400L260.7000 527.6400Q260.7900 529.2600 260.7900 531.6000Q260.7900 533.9400 260.7000 535.5600L260.7000 535.5600Q260.3400 541.6800 257.7750 546.2700Q255.2100 550.8600 250.3050 553.3800Q245.4000 555.9000 238.2000 555.9000ZM238.2000 546.9900L238.2000 546.9900Q242.9700 546.9900 245.5800 543.9750Q248.1900 540.9600 248.4600 535.1100L248.4600 535.1100Q248.5500 533.7600 248.5500 531.6000Q248.5500 529.4400 248.4600 528.0900L248.4600 528.0900Q248.1900 522.2400 245.5800 519.2250Q242.9700 516.2100 238.2000 516.2100L238.2000 516.2100Q233.4300 516.2100 230.8200 519.2250Q228.2100 522.2400 227.9400 528.0900L227.9400 528.0900Q227.8500 529.4400 227.8500 531.6000Q227.8500 533.7600 227.9400 535.1100L227.9400 535.1100Q228.2100 540.9600 230.8200 543.9750Q233.4300 546.9900 238.2000 546.9900ZM280.8600 555L272.9400 555Q272.0400 555 271.4100 554.3700Q270.7800 553.7400 270.7800 552.8400L270.7800 552.8400L270.7800 510.3600Q270.7800 509.4600 271.4100 508.8300Q272.0400 508.2000 272.9400 508.2000L272.9400 508.2000L280.3200 508.2000Q281.2200 508.2000 281.8500 508.8300Q282.4800 509.4600 282.4800 510.3600L282.4800 510.3600L282.4800 514.0500Q284.8200 511.1700 288.4650 509.2350Q292.1100 507.3000 297.5100 507.3000L297.5100 507.3000Q303 507.3000 307.0500 509.7750Q311.1000 512.2500 313.3050 516.7500Q315.5100 521.2500 315.5100 527.5500L315.5100 527.5500L315.5100 552.8400Q315.5100 553.7400 314.8800 554.3700Q314.2500 555 313.3500 555L313.3500 555L305.4300 555Q304.5300 555 303.9000 554.3700Q303.2700 553.7400 303.2700 552.8400L303.2700 552.8400L303.2700 528.0900Q303.2700 522.8700 300.7050 519.9000Q298.1400 516.9300 293.2800 516.9300L293.2800 516.9300Q288.6000 516.9300 285.8100 519.9000Q283.0200 522.8700 283.0200 528.0900L283.0200 528.0900L283.0200 552.8400Q283.0200 553.7400 282.3900 554.3700Q281.7600 555 280.8600 555L280.8600 555ZM344.6700 555.9000L344.6700 555.9000Q339.2700 555.9000 335.4450 554.6400Q331.6200 553.3800 329.1900 551.4900Q326.7600 549.6000 325.5900 547.7100Q324.4200 545.8200 324.3300 544.5600L324.3300 544.5600Q324.2400 543.5700 324.9150 542.9850Q325.5900 542.4000 326.4000 542.4000L326.4000 542.4000L333.5100 542.4000Q333.8700 542.4000 334.1400 542.4900Q334.4100 542.5800 334.8600 543.0300L334.8600 543.0300Q336.0300 544.0200 337.3350 545.1000Q338.6400 546.1800 340.4400 546.9450Q342.2400 547.7100 344.9400 547.7100L344.9400 547.7100Q348.4500 547.7100 350.8350 546.3150Q353.2200 544.9200 353.2200 542.3100L353.2200 542.3100Q353.2200 540.4200 352.1850 539.2500Q351.1500 538.0800 348.3600 537.1350Q345.5700 536.1900 340.4400 535.1100L340.4400 535.1100Q335.4000 533.9400 332.0700 532.1400Q328.7400 530.3400 327.1200 527.6400Q325.5000 524.9400 325.5000 521.3400L325.5000 521.3400Q325.5000 517.8300 327.6150 514.6350Q329.7300 511.4400 333.9150 509.3700Q338.1000 507.3000 344.3100 507.3000L344.3100 507.3000Q349.1700 507.3000 352.7700 508.5150Q356.3700 509.7300 358.7550 511.5300Q361.1400 513.3300 362.4000 515.1750Q363.6600 517.0200 363.7500 518.3700L363.7500 518.3700Q363.8400 519.3600 363.2100 519.9450Q362.5800 520.5300 361.7700 520.5300L361.7700 520.5300L355.1100 520.5300Q354.6600 520.5300 354.3000 520.3500Q353.9400 520.1700 353.5800 519.9000L353.5800 519.9000Q352.5900 519 351.4200 517.9650Q350.2500 516.9300 348.5850 516.2100Q346.9200 515.4900 344.2200 515.4900L344.2200 515.4900Q340.8000 515.4900 339 516.9750Q337.2000 518.4600 337.2000 520.7100L337.2000 520.7100Q337.2000 522.2400 338.0550 523.3650Q338.9100 524.4900 341.5200 525.4800Q344.1300 526.4700 349.4400 527.5500L349.4400 527.5500Q355.4700 528.6300 359.0250 530.7450Q362.5800 532.8600 364.0650 535.6050Q365.5500 538.3500 365.5500 541.6800L365.5500 541.6800Q365.5500 545.7300 363.1650 548.9700Q360.7800 552.2100 356.1450 554.0550Q351.5100 555.9000 344.6700 555.9000ZM403.2600 555L395.9700 555Q390.5700 555 386.8800 553.1100Q383.1900 551.2200 381.3900 547.4850Q379.5900 543.7500 379.5900 538.1700L379.5900 538.1700L379.5900 517.7400L372.4800 517.7400Q371.5800 517.7400 370.9500 517.1100Q370.3200 516.4800 370.3200 515.4900L370.3200 515.4900L370.3200 510.3600Q370.3200 509.4600 370.9500 508.8300Q371.5800 508.2000 372.4800 508.2000L372.4800 508.2000L379.5900 508.2000L379.5900 493.2600Q379.5900 492.3600 380.1750 491.7300Q380.7600 491.1000 381.7500 491.1000L381.7500 491.1000L389.0400 491.1000Q389.9400 491.1000 390.5700 491.7300Q391.2000 492.3600 391.2000 493.2600L391.2000 493.2600L391.2000 508.2000L402.4500 508.2000Q403.3500 508.2000 403.9800 508.8300Q404.6100 509.4600 404.6100 510.3600L404.6100 510.3600L404.6100 515.4900Q404.6100 516.4800 403.9800 517.1100Q403.3500 517.7400 402.4500 517.7400L402.4500 517.7400L391.2000 517.7400L391.2000 537.2700Q391.2000 540.9600 392.5050 543.0300Q393.8100 545.1000 397.0500 545.1000L397.0500 545.1000L403.2600 545.1000Q404.1600 545.1000 404.7900 545.7300Q405.4200 546.3600 405.4200 547.2600L405.4200 547.2600L405.4200 552.8400Q405.4200 553.7400 404.7900 554.3700Q404.1600 555 403.2600 555L403.2600 555ZM423.4200 555L415.5900 555Q414.6900 555 414.0600 554.3700Q413.4300 553.7400 413.4300 552.8400L413.4300 552.8400L413.4300 510.4500Q413.4300 509.4600 414.0600 508.8300Q414.6900 508.2000 415.5900 508.2000L415.5900 508.2000L422.8800 508.2000Q423.7800 508.2000 424.4550 508.8300Q425.1300 509.4600 425.1300 510.4500L425.1300 510.4500L425.1300 514.1400Q427.2000 511.2600 430.4850 509.7300Q433.7700 508.2000 438.0900 508.2000L438.0900 508.2000L441.7800 508.2000Q442.7700 508.2000 443.3550 508.8300Q443.9400 509.4600 443.9400 510.3600L443.9400 510.3600L443.9400 516.8400Q443.9400 517.7400 443.3550 518.3700Q442.7700 519 441.7800 519L441.7800 519L434.7600 519Q430.4400 519 428.0550 521.3850Q425.6700 523.7700 425.6700 528.0900L425.6700 528.0900L425.6700 552.8400Q425.6700 553.7400 425.0400 554.3700Q424.4100 555 423.4200 555L423.4200 555ZM468.3300 555.9000L468.3300 555.9000Q462.8400 555.9000 458.8350 553.4250Q454.8300 550.9500 452.6700 546.4050Q450.5100 541.8600 450.5100 535.6500L450.5100 535.6500L450.5100 510.3600Q450.5100 509.4600 451.1400 508.8300Q451.7700 508.2000 452.6700 508.2000L452.6700 508.2000L460.5900 508.2000Q461.5800 508.2000 462.1650 508.8300Q462.7500 509.4600 462.7500 510.3600L462.7500 510.3600L462.7500 535.1100Q462.7500 546.2700 472.5600 546.2700L472.5600 546.2700Q477.2400 546.2700 479.9850 543.3000Q482.7300 540.3300 482.7300 535.1100L482.7300 535.1100L482.7300 510.3600Q482.7300 509.4600 483.3600 508.8300Q483.9900 508.2000 484.8900 508.2000L484.8900 508.2000L492.8100 508.2000Q493.7100 508.2000 494.3400 508.8300Q494.9700 509.4600 494.9700 510.3600L494.9700 510.3600L494.9700 552.8400Q494.9700 553.7400 494.3400 554.3700Q493.7100 555 492.8100 555L492.8100 555L485.5200 555Q484.5300 555 483.9450 554.3700Q483.3600 553.7400 483.3600 552.8400L483.3600 552.8400L483.3600 549.1500Q480.9300 552.3000 477.3300 554.1000Q473.7300 555.9000 468.3300 555.9000ZM516.4800 555L509.0100 555Q508.1100 555 507.4800 554.3700Q506.8500 553.7400 506.8500 552.8400L506.8500 552.8400L506.8500 510.3600Q506.8500 509.4600 507.4800 508.8300Q508.1100 508.2000 509.0100 508.2000L509.0100 508.2000L516.4800 508.2000Q517.4700 508.2000 518.0550 508.8300Q518.6400 509.4600 518.6400 510.3600L518.6400 510.3600L518.6400 552.8400Q518.6400 553.7400 518.0550 554.3700Q517.4700 555 516.4800 555L516.4800 555ZM516.8400 500.4600L508.6500 500.4600Q507.7500 500.4600 507.1200 499.8300Q506.4900 499.2000 506.4900 498.3000L506.4900 498.3000L506.4900 491.8200Q506.4900 490.9200 507.1200 490.2900Q507.7500 489.6600 508.6500 489.6600L508.6500 489.6600L516.8400 489.6600Q517.8300 489.6600 518.4600 490.2900Q519.0900 490.9200 519.0900 491.8200L519.0900 491.8200L519.0900 498.3000Q519.0900 499.2000 518.4600 499.8300Q517.8300 500.4600 516.8400 500.4600L516.8400 500.4600ZM540.6900 555L532.7700 555Q531.8700 555 531.2400 554.3700Q530.6100 553.7400 530.6100 552.8400L530.6100 552.8400L530.6100 510.3600Q530.6100 509.4600 531.2400 508.8300Q531.8700 508.2000 532.7700 508.2000L532.7700 508.2000L540.1500 508.2000Q541.0500 508.2000 541.6800 508.8300Q542.3100 509.4600 542.3100 510.3600L542.3100 510.3600L542.3100 514.0500Q544.6500 511.1700 548.2950 509.2350Q551.9400 507.3000 557.3400 507.3000L557.3400 507.3000Q562.8300 507.3000 566.8800 509.7750Q570.9300 512.2500 573.1350 516.7500Q575.3400 521.2500 575.3400 527.5500L575.3400 527.5500L575.3400 552.8400Q575.3400 553.7400 574.7100 554.3700Q574.0800 555 573.1800 555L573.1800 555L565.2600 555Q564.3600 555 563.7300 554.3700Q563.1000 553.7400 563.1000 552.8400L563.1000 552.8400L563.1000 528.0900Q563.1000 522.8700 560.5350 519.9000Q557.9700 516.9300 553.1100 516.9300L553.1100 516.9300Q548.4300 516.9300 545.6400 519.9000Q542.8500 522.8700 542.8500 528.0900L542.8500 528.0900L542.8500 552.8400Q542.8500 553.7400 542.2200 554.3700Q541.5900 555 540.6900 555L540.6900 555ZM604.1400 555.9000L604.1400 555.9000Q599.4600 555.9000 595.9050 554.3250Q592.3500 552.7500 590.0100 549.8700Q587.6700 546.9900 586.4100 543.0750Q585.1500 539.1600 584.9700 534.4800L584.9700 534.4800Q584.8800 532.8600 584.8800 531.5550Q584.8800 530.2500 584.9700 528.6300L584.9700 528.6300Q585.1500 524.1300 586.3650 520.2600Q587.5800 516.3900 589.9650 513.4650Q592.3500 510.5400 595.9050 508.9200Q599.4600 507.3000 604.1400 507.3000L604.1400 507.3000Q609.0000 507.3000 612.3750 508.9650Q615.7500 510.6300 618.0000 513.2400L618.0000 513.2400L618.0000 493.2600Q618.0000 492.3600 618.5850 491.7300Q619.1700 491.1000 620.1600 491.1000L620.1600 491.1000L627.8100 491.1000Q628.7100 491.1000 629.3400 491.7300Q629.9700 492.3600 629.9700 493.2600L629.9700 493.2600L629.9700 552.8400Q629.9700 553.7400 629.3400 554.3700Q628.7100 555 627.8100 555L627.8100 555L620.7000 555Q619.7100 555 619.1250 554.3700Q618.5400 553.7400 618.5400 552.8400L618.5400 552.8400L618.5400 549.5100Q616.2900 552.3000 612.8250 554.1000Q609.3600 555.9000 604.1400 555.9000ZM607.4700 546.2700L607.4700 546.2700Q611.2500 546.2700 613.5000 544.5600Q615.7500 542.8500 616.8300 540.1950Q617.9100 537.5400 618.0000 534.7500L618.0000 534.7500Q618.0900 533.1300 618.0900 531.2850Q618.0900 529.4400 618.0000 527.8200L618.0000 527.8200Q617.9100 525.1200 616.7400 522.6450Q615.5700 520.1700 613.3200 518.5500Q611.0700 516.9300 607.4700 516.9300L607.4700 516.9300Q603.6900 516.9300 601.4850 518.5950Q599.2800 520.2600 598.2900 522.9600Q597.3000 525.6600 597.1200 528.9000L597.1200 528.9000Q597.0300 531.6000 597.1200 534.3000L597.1200 534.3000Q597.3000 537.5400 598.2900 540.2400Q599.2800 542.9400 601.4850 544.6050Q603.6900 546.2700 607.4700 546.2700ZM662.6400 555.9000L662.6400 555.9000Q655.4400 555.9000 650.5350 553.3800Q645.6300 550.8600 643.0650 546.2700Q640.5000 541.6800 640.1400 535.5600L640.1400 535.5600Q640.0500 533.9400 640.0500 531.6000Q640.0500 529.2600 640.1400 527.6400L640.1400 527.6400Q640.5000 521.4300 643.1550 516.8850Q645.8100 512.3400 650.7150 509.8200Q655.6200 507.3000 662.6400 507.3000L662.6400 507.3000Q669.6600 507.3000 674.5650 509.8200Q679.4700 512.3400 682.1250 516.8850Q684.7800 521.4300 685.1400 527.6400L685.1400 527.6400Q685.2300 529.2600 685.2300 531.6000Q685.2300 533.9400 685.1400 535.5600L685.1400 535.5600Q684.7800 541.6800 682.2150 546.2700Q679.6500 550.8600 674.7450 553.3800Q669.8400 555.9000 662.6400 555.9000ZM662.6400 546.9900L662.6400 546.9900Q667.4100 546.9900 670.0200 543.9750Q672.6300 540.9600 672.9000 535.1100L672.9000 535.1100Q672.9900 533.7600 672.9900 531.6000Q672.9900 529.4400 672.9000 528.0900L672.9000 528.0900Q672.6300 522.2400 670.0200 519.2250Q667.4100 516.2100 662.6400 516.2100L662.6400 516.2100Q657.8700 516.2100 655.2600 519.2250Q652.6500 522.2400 652.3800 528.0900L652.3800 528.0900Q652.2900 529.4400 652.2900 531.6000Q652.2900 533.7600 652.3800 535.1100L652.3800 535.1100Q652.6500 540.9600 655.2600 543.9750Q657.8700 546.9900 662.6400 546.9900ZM735.9900 555.9000L735.9900 555.9000Q726.0000 555.9000 720.1500 550.1400Q714.3000 544.3800 713.8500 533.7600L713.8500 533.7600Q713.7600 532.8600 713.7600 531.4650Q713.7600 530.0700 713.8500 529.2600L713.8500 529.2600Q714.2100 522.4200 716.9550 517.5150Q719.7000 512.6100 724.5600 509.9550Q729.4200 507.3000 735.9900 507.3000L735.9900 507.3000Q743.2800 507.3000 748.2300 510.3150Q753.1800 513.3300 755.7000 518.6850Q758.2200 524.0400 758.2200 531.0600L758.2200 531.0600L758.2200 532.9500Q758.2200 533.8500 757.5900 534.4800Q756.9600 535.1100 755.9700 535.1100L755.9700 535.1100L726.0900 535.1100Q726.0900 535.1100 726.0900 535.3800Q726.0900 535.6500 726.0900 535.8300L726.0900 535.8300Q726.1800 538.9800 727.3050 541.6350Q728.4300 544.2900 730.6350 545.9100Q732.8400 547.5300 735.9000 547.5300L735.9000 547.5300Q738.4200 547.5300 740.1300 546.7650Q741.8400 546 742.9200 545.0100Q744.0000 544.0200 744.4500 543.3900L744.4500 543.3900Q745.2600 542.3100 745.7550 542.0850Q746.2500 541.8600 747.2400 541.8600L747.2400 541.8600L754.9800 541.8600Q755.8800 541.8600 756.4650 542.4000Q757.0500 542.9400 756.9600 543.7500L756.9600 543.7500Q756.8700 545.1900 755.4750 547.2600Q754.0800 549.3300 751.4700 551.3100Q748.8600 553.2900 744.9450 554.5950Q741.0300 555.9000 735.9900 555.9000ZM726.0900 527.2800L726.0900 527.5500L745.9800 527.5500L745.9800 527.2800Q745.9800 523.7700 744.8100 521.1150Q743.6400 518.4600 741.3900 516.9750Q739.1400 515.4900 735.9900 515.4900L735.9900 515.4900Q732.8400 515.4900 730.5900 516.9750Q728.3400 518.4600 727.2150 521.1150Q726.0900 523.7700 726.0900 527.2800L726.0900 527.2800ZM797.2800 533.1300L769.6500 533.1300Q768.6600 533.1300 768.0750 532.5000Q767.4900 531.8700 767.4900 530.9700L767.4900 530.9700L767.4900 525.0300Q767.4900 524.1300 768.0750 523.5000Q768.6600 522.8700 769.6500 522.8700L769.6500 522.8700L797.2800 522.8700Q798.1800 522.8700 798.8100 523.5000Q799.4400 524.1300 799.4400 525.0300L799.4400 525.0300L799.4400 530.9700Q799.4400 531.8700 798.8100 532.5000Q798.1800 533.1300 797.2800 533.1300L797.2800 533.1300ZM820.7700 555L813.2100 555Q812.3100 555 811.6800 554.3700Q811.0500 553.7400 811.0500 552.8400L811.0500 552.8400L811.0500 510.3600Q811.0500 509.4600 811.6800 508.8300Q812.3100 508.2000 813.2100 508.2000L813.2100 508.2000L820.2300 508.2000Q821.1300 508.2000 821.7600 508.8300Q822.3900 509.4600 822.3900 510.3600L822.3900 510.3600L822.3900 513.4200Q824.2800 510.9000 827.4750 509.1450Q830.6700 507.3900 835.0800 507.3000L835.0800 507.3000Q845.3400 507.1200 849.3900 515.3100L849.3900 515.3100Q851.4600 511.7100 855.3750 509.5050Q859.2900 507.3000 864.0600 507.3000L864.0600 507.3000Q868.7400 507.3000 872.5650 509.4600Q876.3900 511.6200 878.5950 515.9850Q880.8000 520.3500 880.8000 527.0100L880.8000 527.0100L880.8000 552.8400Q880.8000 553.7400 880.1700 554.3700Q879.5400 555 878.6400 555L878.6400 555L871.2600 555Q870.3600 555 869.7300 554.3700Q869.1000 553.7400 869.1000 552.8400L869.1000 552.8400L869.1000 527.7300Q869.1000 523.6800 867.9300 521.2950Q866.7600 518.9100 864.7800 517.9200Q862.8000 516.9300 860.3700 516.9300L860.3700 516.9300Q858.3900 516.9300 856.4100 517.9200Q854.4300 518.9100 853.1700 521.2950Q851.9100 523.6800 851.9100 527.7300L851.9100 527.7300L851.9100 552.8400Q851.9100 553.7400 851.2800 554.3700Q850.6500 555 849.7500 555L849.7500 555L842.3700 555Q841.4700 555 840.8400 554.3700Q840.2100 553.7400 840.2100 552.8400L840.2100 552.8400L840.2100 527.7300Q840.2100 523.6800 838.9500 521.2950Q837.6900 518.9100 835.7100 517.9200Q833.7300 516.9300 831.4800 516.9300L831.4800 516.9300Q829.4100 516.9300 827.4300 517.9650Q825.4500 519 824.1900 521.3400Q822.9300 523.6800 822.9300 527.7300L822.9300 527.7300L822.9300 552.8400Q822.9300 553.7400 822.3000 554.3700Q821.6700 555 820.7700 555L820.7700 555ZM905.8200 555.9000L905.8200 555.9000Q901.1400 555.9000 897.3600 554.0550Q893.5800 552.2100 891.3750 549.1050Q889.1700 546 889.1700 542.1300L889.1700 542.1300Q889.1700 535.8300 894.3000 532.0950Q899.4300 528.3600 907.7100 527.1000L907.7100 527.1000L920.0400 525.3000L920.0400 523.4100Q920.0400 519.6300 918.1500 517.5600Q916.2600 515.4900 911.6700 515.4900L911.6700 515.4900Q908.4300 515.4900 906.4050 516.7950Q904.3800 518.1000 903.3900 520.2600L903.3900 520.2600Q902.6700 521.4300 901.3200 521.4300L901.3200 521.4300L894.2100 521.4300Q893.2200 521.4300 892.7250 520.8900Q892.2300 520.3500 892.2300 519.4500L892.2300 519.4500Q892.3200 518.0100 893.4450 515.9400Q894.5700 513.8700 896.8650 511.9350Q899.1600 510 902.8500 508.6500Q906.5400 507.3000 911.7600 507.3000L911.7600 507.3000Q917.4300 507.3000 921.3450 508.6950Q925.2600 510.0900 927.6000 512.4300Q929.9400 514.7700 931.0200 517.9200Q932.1000 521.0700 932.1000 524.5800L932.1000 524.5800L932.1000 552.8400Q932.1000 553.7400 931.4700 554.3700Q930.8400 555 929.9400 555L929.9400 555L922.6500 555Q921.6600 555 921.0750 554.3700Q920.4900 553.7400 920.4900 552.8400L920.4900 552.8400L920.4900 549.3300Q919.3200 550.9500 917.3400 552.4800Q915.3600 554.0100 912.5250 554.9550Q909.6900 555.9000 905.8200 555.9000ZM908.8800 547.3500L908.8800 547.3500Q912.0300 547.3500 914.5950 546Q917.1600 544.6500 918.6450 541.8150Q920.1300 538.9800 920.1300 534.6600L920.1300 534.6600L920.1300 532.7700L911.1300 534.2100Q905.8200 535.0200 903.2100 536.8200Q900.6000 538.6200 900.6000 541.2300L900.6000 541.2300Q900.6000 543.2100 901.8150 544.6050Q903.0300 546 904.9200 546.6750Q906.8100 547.3500 908.8800 547.3500ZM953.2500 555L945.7800 555Q944.8800 555 944.2500 554.3700Q943.6200 553.7400 943.6200 552.8400L943.6200 552.8400L943.6200 510.3600Q943.6200 509.4600 944.2500 508.8300Q944.8800 508.2000 945.7800 508.2000L945.7800 508.2000L953.2500 508.2000Q954.2400 508.2000 954.8250 508.8300Q955.4100 509.4600 955.4100 510.3600L955.4100 510.3600L955.4100 552.8400Q955.4100 553.7400 954.8250 554.3700Q954.2400 555 953.2500 555L953.2500 555ZM953.6100 500.4600L945.4200 500.4600Q944.5200 500.4600 943.8900 499.8300Q943.2600 499.2000 943.2600 498.3000L943.2600 498.3000L943.2600 491.8200Q943.2600 490.9200 943.8900 490.2900Q944.5200 489.6600 945.4200 489.6600L945.4200 489.6600L953.6100 489.6600Q954.6000 489.6600 955.2300 490.2900Q955.8600 490.9200 955.8600 491.8200L955.8600 491.8200L955.8600 498.3000Q955.8600 499.2000 955.2300 499.8300Q954.6000 500.4600 953.6100 500.4600L953.6100 500.4600ZM977.1000 555L969.6300 555Q968.7300 555 968.1000 554.3700Q967.4700 553.7400 967.4700 552.8400L967.4700 552.8400L967.4700 493.2600Q967.4700 492.3600 968.1000 491.7300Q968.7300 491.1000 969.6300 491.1000L969.6300 491.1000L977.1000 491.1000Q978.0000 491.1000 978.6300 491.7300Q979.2600 492.3600 979.2600 493.2600L979.2600 493.2600L979.2600 552.8400Q979.2600 553.7400 978.6300 554.3700Q978.0000 555 977.1000 555L977.1000 555ZM1008.9600 555.9000L1008.9600 555.9000Q1003.5600 555.9000 999.7350 554.6400Q995.9100 553.3800 993.4800 551.4900Q991.0500 549.6000 989.8800 547.7100Q988.7100 545.8200 988.6200 544.5600L988.6200 544.5600Q988.5300 543.5700 989.2050 542.9850Q989.8800 542.4000 990.6900 542.4000L990.6900 542.4000L997.8000 542.4000Q998.1600 542.4000 998.4300 542.4900Q998.7000 542.5800 999.1500 543.0300L999.1500 543.0300Q1000.3200 544.0200 1001.6250 545.1000Q1002.9300 546.1800 1004.7300 546.9450Q1006.5300 547.7100 1009.2300 547.7100L1009.2300 547.7100Q1012.7400 547.7100 1015.1250 546.3150Q1017.5100 544.9200 1017.5100 542.3100L1017.5100 542.3100Q1017.5100 540.4200 1016.4750 539.2500Q1015.4400 538.0800 1012.6500 537.1350Q1009.8600 536.1900 1004.7300 535.1100L1004.7300 535.1100Q999.6900 533.9400 996.3600 532.1400Q993.0300 530.3400 991.4100 527.6400Q989.7900 524.9400 989.7900 521.3400L989.7900 521.3400Q989.7900 517.8300 991.9050 514.6350Q994.0200 511.4400 998.2050 509.3700Q1002.3900 507.3000 1008.6000 507.3000L1008.6000 507.3000Q1013.4600 507.3000 1017.0600 508.5150Q1020.6600 509.7300 1023.0450 511.5300Q1025.4300 513.3300 1026.6900 515.1750Q1027.9500 517.0200 1028.0400 518.3700L1028.0400 518.3700Q1028.1300 519.3600 1027.5000 519.9450Q1026.8700 520.5300 1026.0600 520.5300L1026.0600 520.5300L1019.4000 520.5300Q1018.9500 520.5300 1018.5900 520.3500Q1018.2300 520.1700 1017.8700 519.9000L1017.8700 519.9000Q1016.8800 519 1015.7100 517.9650Q1014.5400 516.9300 1012.8750 516.2100Q1011.2100 515.4900 1008.5100 515.4900L1008.5100 515.4900Q1005.0900 515.4900 1003.2900 516.9750Q1001.4900 518.4600 1001.4900 520.7100L1001.4900 520.7100Q1001.4900 522.2400 1002.3450 523.3650Q1003.2000 524.4900 1005.8100 525.4800Q1008.4200 526.4700 1013.7300 527.5500L1013.7300 527.5500Q1019.7600 528.6300 1023.3150 530.7450Q1026.8700 532.8600 1028.3550 535.6050Q1029.8400 538.3500 1029.8400 541.6800L1029.8400 541.6800Q1029.8400 545.7300 1027.4550 548.9700Q1025.0700 552.2100 1020.4350 554.0550Q1015.8000 555.9000 1008.9600 555.9000ZM176.1900 645.9000L176.1900 645.9000Q169.7100 645.9000 164.8050 643.4700Q159.9000 641.0400 157.1550 636.4050Q154.4100 631.7700 154.1400 625.2000L154.1400 625.2000Q154.0500 623.8500 154.0500 621.6450Q154.0500 619.4400 154.1400 618L154.1400 618Q154.4100 611.4300 157.1550 606.7950Q159.9000 602.1600 164.8050 599.7300Q169.7100 597.3000 176.1900 597.3000L176.1900 597.3000Q181.9500 597.3000 186 598.8750Q190.0500 600.4500 192.6600 602.9250Q195.2700 605.4000 196.5750 608.0550Q197.8800 610.7100 197.9700 612.8700L197.9700 612.8700Q198.0600 613.8600 197.3850 614.4450Q196.7100 615.0300 195.8100 615.0300L195.8100 615.0300L187.8900 615.0300Q186.9900 615.0300 186.4950 614.5800Q186 614.1300 185.5500 613.2300L185.5500 613.2300Q184.2000 609.6300 181.9950 608.1450Q179.7900 606.6600 176.3700 606.6600L176.3700 606.6600Q171.8700 606.6600 169.2150 609.4950Q166.5600 612.3300 166.3800 618.4500L166.3800 618.4500Q166.2000 621.8700 166.3800 624.7500L166.3800 624.7500Q166.5600 630.9600 169.2150 633.7500Q171.8700 636.5400 176.3700 636.5400L176.3700 636.5400Q179.8800 636.5400 182.0400 635.0550Q184.2000 633.5700 185.5500 629.9700L185.5500 629.9700Q186 629.0700 186.4950 628.6200Q186.9900 628.1700 187.8900 628.1700L187.8900 628.1700L195.8100 628.1700Q196.7100 628.1700 197.3850 628.7550Q198.0600 629.3400 197.9700 630.3300L197.9700 630.3300Q197.8800 631.9500 197.1150 633.9750Q196.3500 636 194.6850 638.1150Q193.0200 640.2300 190.5000 641.9850Q187.9800 643.7400 184.4250 644.8200Q180.8700 645.9000 176.1900 645.9000ZM228.0300 645.9000L228.0300 645.9000Q220.8300 645.9000 215.9250 643.3800Q211.0200 640.8600 208.4550 636.2700Q205.8900 631.6800 205.5300 625.5600L205.5300 625.5600Q205.4400 623.9400 205.4400 621.6000Q205.4400 619.2600 205.5300 617.6400L205.5300 617.6400Q205.8900 611.4300 208.5450 606.8850Q211.2000 602.3400 216.1050 599.8200Q221.0100 597.3000 228.0300 597.3000L228.0300 597.3000Q235.0500 597.3000 239.9550 599.8200Q244.8600 602.3400 247.5150 606.8850Q250.1700 611.4300 250.5300 617.6400L250.5300 617.6400Q250.6200 619.2600 250.6200 621.6000Q250.6200 623.9400 250.5300 625.5600L250.5300 625.5600Q250.1700 631.6800 247.6050 636.2700Q245.0400 640.8600 240.1350 643.3800Q235.2300 645.9000 228.0300 645.9000ZM228.0300 636.9900L228.0300 636.9900Q232.8000 636.9900 235.4100 633.9750Q238.0200 630.9600 238.2900 625.1100L238.2900 625.1100Q238.3800 623.7600 238.3800 621.6000Q238.3800 619.4400 238.2900 618.0900L238.2900 618.0900Q238.0200 612.2400 235.4100 609.2250Q232.8000 606.2100 228.0300 606.2100L228.0300 606.2100Q223.2600 606.2100 220.6500 609.2250Q218.0400 612.2400 217.7700 618.0900L217.7700 618.0900Q217.6800 619.4400 217.6800 621.6000Q217.6800 623.7600 217.7700 625.1100L217.7700 625.1100Q218.0400 630.9600 220.6500 633.9750Q223.2600 636.9900 228.0300 636.9900ZM270.3300 645L262.7700 645Q261.8700 645 261.2400 644.3700Q260.6100 643.7400 260.6100 642.8400L260.6100 642.8400L260.6100 600.3600Q260.6100 599.4600 261.2400 598.8300Q261.8700 598.2000 262.7700 598.2000L262.7700 598.2000L269.7900 598.2000Q270.6900 598.2000 271.3200 598.8300Q271.9500 599.4600 271.9500 600.3600L271.9500 600.3600L271.9500 603.4200Q273.8400 600.9000 277.0350 599.1450Q280.2300 597.3900 284.6400 597.3000L284.6400 597.3000Q294.9000 597.1200 298.9500 605.3100L298.9500 605.3100Q301.0200 601.7100 304.9350 599.5050Q308.8500 597.3000 313.6200 597.3000L313.6200 597.3000Q318.3000 597.3000 322.1250 599.4600Q325.9500 601.6200 328.1550 605.9850Q330.3600 610.3500 330.3600 617.0100L330.3600 617.0100L330.3600 642.8400Q330.3600 643.7400 329.7300 644.3700Q329.1000 645 328.2000 645L328.2000 645L320.8200 645Q319.9200 645 319.2900 644.3700Q318.6600 643.7400 318.6600 642.8400L318.6600 642.8400L318.6600 617.7300Q318.6600 613.6800 317.4900 611.2950Q316.3200 608.9100 314.3400 607.9200Q312.3600 606.9300 309.9300 606.9300L309.9300 606.9300Q307.9500 606.9300 305.9700 607.9200Q303.9900 608.9100 302.7300 611.2950Q301.4700 613.6800 301.4700 617.7300L301.4700 617.7300L301.4700 642.8400Q301.4700 643.7400 300.8400 644.3700Q300.2100 645 299.3100 645L299.3100 645L291.9300 645Q291.0300 645 290.4000 644.3700Q289.7700 643.7400 289.7700 642.8400L289.7700 642.8400L289.7700 617.7300Q289.7700 613.6800 288.5100 611.2950Q287.2500 608.9100 285.2700 607.9200Q283.2900 606.9300 281.0400 606.9300L281.0400 606.9300Q278.9700 606.9300 276.9900 607.9650Q275.0100 609 273.7500 611.3400Q272.4900 613.6800 272.4900 617.7300L272.4900 617.7300L272.4900 642.8400Q272.4900 643.7400 271.8600 644.3700Q271.2300 645 270.3300 645L270.3300 645ZM373.8300 645L365.6400 645Q364.7400 645 364.1100 644.4150Q363.4800 643.8300 363.4800 642.8400L363.4800 642.8400L363.4800 584.2500Q363.4800 583.2600 364.1100 582.6300Q364.7400 582 365.6400 582L365.6400 582L373.8300 582Q374.8200 582 375.4050 582.6300Q375.9900 583.2600 375.9900 584.2500L375.9900 584.2500L375.9900 607.4700L402.5400 607.4700L402.5400 584.2500Q402.5400 583.2600 403.1700 582.6300Q403.8000 582 404.7000 582L404.7000 582L412.8000 582Q413.7900 582 414.4200 582.6300Q415.0500 583.2600 415.0500 584.2500L415.0500 584.2500L415.0500 642.8400Q415.0500 643.7400 414.4200 644.3700Q413.7900 645 412.8000 645L412.8000 645L404.7000 645Q403.8000 645 403.1700 644.3700Q402.5400 643.7400 402.5400 642.8400L402.5400 642.8400L402.5400 618.7200L375.9900 618.7200L375.9900 642.8400Q375.9900 643.7400 375.4050 644.3700Q374.8200 645 373.8300 645L373.8300 645ZM453.3900 645L445.1100 645Q444.2100 645 443.5800 644.3700Q442.9500 643.7400 442.9500 642.8400L442.9500 642.8400L442.9500 593.0700L426.3000 593.0700Q425.4000 593.0700 424.7700 592.4400Q424.1400 591.8100 424.1400 590.9100L424.1400 590.9100L424.1400 584.2500Q424.1400 583.2600 424.7700 582.6300Q425.4000 582 426.3000 582L426.3000 582L472.2000 582Q473.1900 582 473.8200 582.6300Q474.4500 583.2600 474.4500 584.2500L474.4500 584.2500L474.4500 590.9100Q474.4500 591.8100 473.8200 592.4400Q473.1900 593.0700 472.2000 593.0700L472.2000 593.0700L455.6400 593.0700L455.6400 642.8400Q455.6400 643.7400 455.0100 644.3700Q454.3800 645 453.3900 645L453.3900 645ZM493.3500 645L485.7900 645Q484.8000 645 484.1700 644.3700Q483.5400 643.7400 483.5400 642.8400L483.5400 642.8400L483.5400 584.2500Q483.5400 583.2600 484.1700 582.6300Q484.8000 582 485.7900 582L485.7900 582L492.9000 582Q494.1600 582 494.7900 582.6750Q495.4200 583.3500 495.6000 583.7100L495.6000 583.7100L512.9700 616.1100L530.5200 583.7100Q530.7000 583.3500 531.3300 582.6750Q531.9600 582 533.2200 582L533.2200 582L540.2400 582Q541.2300 582 541.8600 582.6300Q542.4900 583.2600 542.4900 584.2500L542.4900 584.2500L542.4900 642.8400Q542.4900 643.7400 541.8600 644.3700Q541.2300 645 540.2400 645L540.2400 645L532.6800 645Q531.6900 645 531.1050 644.3700Q530.5200 643.7400 530.5200 642.8400L530.5200 642.8400L530.5200 603.8700L517.9200 627.9000Q517.4700 628.7100 516.7500 629.2950Q516.0300 629.8800 514.8600 629.8800L514.8600 629.8800L511.1700 629.8800Q509.9100 629.8800 509.2350 629.2950Q508.5600 628.7100 508.1100 627.9000L508.1100 627.9000L495.5100 603.8700L495.5100 642.8400Q495.5100 643.7400 494.8800 644.3700Q494.2500 645 493.3500 645L493.3500 645ZM597.7500 645L558.6900 645Q557.7900 645 557.1600 644.3700Q556.5300 643.7400 556.5300 642.8400L556.5300 642.8400L556.5300 584.1600Q556.5300 583.2600 557.1600 582.6300Q557.7900 582 558.6900 582L558.6900 582L567.0600 582Q567.9600 582 568.5900 582.6300Q569.2200 583.2600 569.2200 584.1600L569.2200 584.1600L569.2200 634.2900L597.7500 634.2900Q598.7400 634.2900 599.3700 634.9200Q600 635.5500 600 636.5400L600 636.5400L600 642.8400Q600 643.7400 599.3700 644.3700Q598.7400 645 597.7500 645L597.7500 645Z" id="title"/><path d="M1448.3400 640L1343.1800 640Q1340.9800 640 1339.4400 638.4600Q1337.9000 636.9200 1337.9000 634.7200L1337.9000 634.7200L1337.9000 623.5000Q1337.9000 621.5200 1338.8900 618.7700Q1339.8800 616.0200 1343.4000 613.1600L1343.4000 613.1600L1378.1600 578.6200Q1392.6800 567.1800 1401.5900 559.1500Q1410.5000 551.1200 1414.5700 544.4100Q1418.6400 537.7000 1418.6400 531.1000L1418.6400 531.1000Q1418.6400 521.2000 1413.2500 515.0400Q1407.8600 508.8800 1396.2000 508.8800L1396.2000 508.8800Q1388.5000 508.8800 1383.2200 512.0700Q1377.9400 515.2600 1374.9700 520.5400Q1372 525.8200 1370.9000 532.2000L1370.9000 532.2000Q1370.4600 535.0600 1368.4800 536.1600Q1366.5000 537.2600 1364.5200 537.2600L1364.5200 537.2600L1344.9400 537.2600Q1342.9600 537.2600 1341.6400 535.9400Q1340.3200 534.6200 1340.3200 532.8600L1340.3200 532.8600Q1340.5400 523.4000 1344.2800 514.4900Q1348.0200 505.5800 1355.1700 498.6500Q1362.3200 491.7200 1372.6600 487.5400Q1383 483.3600 1395.9800 483.3600L1395.9800 483.3600Q1414.2400 483.3600 1426.2300 489.5200Q1438.2200 495.6800 1444.2700 506.2400Q1450.3200 516.8000 1450.3200 530L1450.3200 530Q1450.3200 540.3400 1446.3600 549.0300Q1442.4000 557.7200 1434.9200 565.7500Q1427.4400 573.7800 1416.8800 582.1400L1416.8800 582.1400L1385.6400 613.8200L1448.3400 613.8200Q1450.7600 613.8200 1452.1900 615.2500Q1453.6200 616.6800 1453.6200 619.1000L1453.6200 619.1000L1453.6200 634.7200Q1453.6200 636.9200 1452.1900 638.4600Q1450.7600 640 1448.3400 640L1448.3400 640ZM1536.3400 642.2000L1536.3400 642.2000Q1520.7200 642.2000 1509.7200 637.5800Q1498.7200 632.9600 1491.6800 624.8200Q1484.6400 616.6800 1481.1200 606.0100Q1477.6000 595.3400 1476.9400 583.2400L1476.9400 583.2400Q1476.7200 577.3000 1476.6100 570.1500Q1476.5000 563 1476.6100 555.7400Q1476.7200 548.4800 1476.9400 542.3200L1476.9400 542.3200Q1477.3800 530.2200 1481.1200 519.5500Q1484.8600 508.8800 1492.0100 500.9600Q1499.1600 493.0400 1510.1600 488.4200Q1521.1600 483.8000 1536.3400 483.8000L1536.3400 483.8000Q1551.7400 483.8000 1562.7400 488.4200Q1573.7400 493.0400 1580.8900 500.9600Q1588.0400 508.8800 1591.6700 519.5500Q1595.3000 530.2200 1595.7400 542.3200L1595.7400 542.3200Q1596.1800 548.4800 1596.1800 555.7400Q1596.1800 563 1596.1800 570.1500Q1596.1800 577.3000 1595.7400 583.2400L1595.7400 583.2400Q1595.3000 595.3400 1591.7800 606.0100Q1588.2600 616.6800 1581.2200 624.8200Q1574.1800 632.9600 1563.0700 637.5800Q1551.9600 642.2000 1536.3400 642.2000ZM1536.3400 616.9000L1536.3400 616.9000Q1550.6400 616.9000 1557.3500 607.5500Q1564.0600 598.2000 1564.2800 582.1400L1564.2800 582.1400Q1564.7200 575.7600 1564.7200 569.2700Q1564.7200 562.7800 1564.7200 556.1800Q1564.7200 549.5800 1564.2800 543.6400L1564.2800 543.6400Q1564.0600 528.0200 1557.3500 518.4500Q1550.6400 508.8800 1536.3400 508.8800L1536.3400 508.8800Q1522.2600 508.8800 1515.5500 518.4500Q1508.8400 528.0200 1508.4000 543.6400L1508.4000 543.6400Q1508.4000 549.5800 1508.2900 556.1800Q1508.1800 562.7800 1508.2900 569.2700Q1508.4000 575.7600 1508.4000 582.1400L1508.4000 582.1400Q1508.8400 598.2000 1515.6600 607.5500Q1522.4800 616.9000 1536.3400 616.9000ZM1646.7800 640L1624.7800 640Q1622.5800 640 1621.0400 638.4600Q1619.5000 636.9200 1619.5000 634.7200L1619.5000 634.7200L1619.5000 612.9400Q1619.5000 610.5200 1621.0400 608.9800Q1622.5800 607.4400 1624.7800 607.4400L1624.7800 607.4400L1646.7800 607.4400Q1648.9800 607.4400 1650.5200 608.9800Q1652.0600 610.5200 1652.0600 612.9400L1652.0600 612.9400L1652.0600 634.7200Q1652.0600 636.9200 1650.5200 638.4600Q1648.9800 640 1646.7800 640L1646.7800 640ZM1785.6000 640L1680.4400 640Q1678.2400 640 1676.7000 638.4600Q1675.1600 636.9200 1675.1600 634.7200L1675.1600 634.7200L1675.1600 623.5000Q1675.1600 621.5200 1676.1500 618.7700Q1677.1400 616.0200 1680.6600 613.1600L1680.6600 613.1600L1715.4200 578.6200Q1729.9400 567.1800 1738.8500 559.1500Q1747.7600 551.1200 1751.8300 544.4100Q1755.9000 537.7000 1755.9000 531.1000L1755.9000 531.1000Q1755.9000 521.2000 1750.5100 515.0400Q1745.1200 508.8800 1733.4600 508.8800L1733.4600 508.8800Q1725.7600 508.8800 1720.4800 512.0700Q1715.2000 515.2600 1712.2300 520.5400Q1709.2600 525.8200 1708.1600 532.2000L1708.1600 532.2000Q1707.7200 535.0600 1705.7400 536.1600Q1703.7600 537.2600 1701.7800 537.2600L1701.7800 537.2600L1682.2000 537.2600Q1680.2200 537.2600 1678.9000 535.9400Q1677.5800 534.6200 1677.5800 532.8600L1677.5800 532.8600Q1677.8000 523.4000 1681.5400 514.4900Q1685.2800 505.5800 1692.4300 498.6500Q1699.5800 491.7200 1709.9200 487.5400Q1720.2600 483.3600 1733.2400 483.3600L1733.2400 483.3600Q1751.5000 483.3600 1763.4900 489.5200Q1775.4800 495.6800 1781.5300 506.2400Q1787.5800 516.8000 1787.5800 530L1787.5800 530Q1787.5800 540.3400 1783.6200 549.0300Q1779.6600 557.7200 1772.1800 565.7500Q1764.7000 573.7800 1754.1400 582.1400L1754.1400 582.1400L1722.9000 613.8200L1785.6000 613.8200Q1788.0200 613.8200 1789.4500 615.2500Q1790.8800 616.6800 1790.8800 619.1000L1790.8800 619.1000L1790.8800 634.7200Q1790.8800 636.9200 1789.4500 638.4600Q1788.0200 640 1785.6000 640L1785.6000 640Z" id="lecture-full-number"/></g></svg>