<svg xmlns="http://www.w3.org/2000/svg" version="1.1" xmlns:xlink="http://www.w3.org/1999/xlink" xmlns:svgjs="http://svgjs.dev/svgjs" viewBox="0 0 1920 1080" id="b16b23ec-3f28-4831-8401-f228bb835a15"><g><rect width="1920" height="1080" fill="#e1f4cb"/></g><g fill="#f1bf98"><path d="M745.478 668.096L1087.28 1009.97L1200.88 896.347L859.076 554.473L745.478 668.096Z"/><path d="M858.951 554.294L517.152 896.168L630.75 1009.79L972.549 667.917L858.951 554.294Z"/><path d="M289.239 668.391L631.038 1010.27L744.636 896.643L402.837 554.769L289.239 668.391Z"/><path d="M402.706 554L60.907 895.874L174.505 1009.5L516.304 667.623L402.706 554Z"/><path d="M-166 667.682L175.799 1009.56L289.397 895.933L-52.4021 554.059L-166 667.682Z"/></g><g fill="#ffffff" opacity="0.4"><path d="M1134 160C1540.91 160 1872 491.086 1872 898C1872 1304.91 1540.91 1636 1134 1636C727.086 1635.56 396 1304.91 396 898C396 491.086 727.086 160 1134 160ZM1134 1611.31C1527.25 1611.31 1847.31 1291.25 1847.31 898C1847.31 504.753 1527.25 184.247 1134 184.247C740.753 184.247 420.247 504.312 420.247 898C420.247 1291.69 740.312 1611.31 1134 1611.31Z"/><path d="M1134 251.699C1490.22 251.699 1780.3 541.785 1780.3 898C1780.3 1254.22 1490.22 1544.3 1134 1544.3C777.785 1544.3 487.699 1254.22 487.699 898C487.699 541.785 777.344 251.699 1134 251.699ZM1134 1519.61C1476.99 1519.61 1756.05 1240.55 1756.05 897.559C1756.05 554.57 1476.99 275.947 1134 275.947C791.011 275.947 511.946 555.011 511.946 898C511.946 1240.99 791.011 1519.61 1134 1519.61Z"/><path d="M1134 342.957C1439.96 342.957 1688.6 592.043 1688.6 897.559C1688.6 1203.52 1439.52 1452.16 1134 1452.16C828.043 1452.16 579.398 1203.08 579.398 897.559C578.957 592.043 828.043 342.957 1134 342.957ZM1134 1428.35C1426.29 1428.35 1664.35 1190.29 1664.35 898C1664.35 605.71 1426.29 367.645 1134 367.645C841.71 367.645 603.645 605.71 603.645 898C603.645 1190.29 841.269 1428.35 1134 1428.35Z"/><path d="M1134 434.656C1389.26 434.656 1597.34 642.301 1597.34 898C1597.34 1153.7 1389.7 1361.34 1134 1361.34C878.742 1361.34 670.656 1153.7 670.656 898C670.656 642.301 878.301 434.656 1134 434.656ZM1134 1336.66C1376.03 1336.66 1572.66 1139.59 1572.66 898C1572.66 656.408 1375.59 459.344 1134 459.344C891.968 459.344 695.344 656.408 695.344 898C695.344 1139.59 891.968 1336.66 1134 1336.66Z"/><path d="M1134 526.354C1339 526.354 1505.65 693 1505.65 898C1505.65 1103 1339 1269.64 1134 1269.64C929 1269.64 762.355 1103 762.355 898C762.355 693 929 526.354 1134 526.354ZM1134 1244.96C1325.33 1244.96 1481.4 1089.33 1481.4 897.559C1481.4 706.225 1325.77 550.161 1134 550.161C942.667 550.161 786.602 705.785 786.602 897.559C786.602 1089.33 942.226 1244.96 1134 1244.96Z"/><path d="M1134 617.613C1288.3 617.613 1414.39 743.258 1414.39 898C1414.39 1052.74 1288.74 1178.39 1134 1178.39C979.699 1178.39 853.613 1052.74 853.613 898C853.613 743.258 979.258 617.613 1134 617.613ZM1134 1153.7C1275.08 1153.7 1389.7 1039.08 1389.7 898C1389.7 756.925 1275.08 642.301 1134 642.301C992.925 642.301 878.301 756.925 878.301 898C878.301 1039.08 992.925 1153.7 1134 1153.7Z"/><path d="M1134 709.312C1238.04 709.312 1322.69 793.957 1322.69 898C1322.69 1002.04 1238.04 1086.69 1134 1086.69C1029.96 1086.69 945.312 1002.04 945.312 898C945.312 793.957 1029.96 709.312 1134 709.312ZM1134 1062C1224.38 1062 1298.44 988.377 1298.44 897.559C1298.44 807.183 1224.82 733.118 1134 733.118C1043.62 733.118 969.559 806.742 969.559 897.559C969.559 988.377 1043.18 1062 1134 1062Z"/><path d="M1134 800.57C1187.34 800.57 1230.99 844.215 1230.99 897.56C1230.99 950.904 1187.34 994.549 1134 994.549C1080.66 994.549 1037.01 950.904 1037.01 897.56C1036.57 844.215 1080.22 800.57 1134 800.57ZM1134 970.742C1174.12 970.742 1206.74 938.119 1206.74 898C1206.74 857.882 1174.12 825.258 1134 825.258C1093.88 825.258 1061.26 857.882 1061.26 898C1061.26 938.119 1093.88 970.742 1134 970.742Z"/></g><g><path d="M178.635 139.281L184.422 144.246V166.626H215.704L219.958 172.147L215.69 177.397H184.422V198.795L178.635 203.747L173 198.795V144.232L178.635 139.281ZM195.554 195.68H219.406L223.397 200.915L219.143 206.45H195.554L191.7 201.342L195.554 195.68ZM196.382 138H219.129L223.383 143.52L219.129 148.77H196.659L192.115 143.677L196.382 138ZM323.155 148.628L328.251 154.291L323.155 159.968H246.13L241.172 154.291L246.13 148.628H323.155ZM237.043 172.147L241.849 167.893L246.669 172.147V178.393C246.669 188.879 249.417 197.515 261.668 197.515H264.14C275.147 197.515 281.197 189.86 281.197 177.952V172.005L285.879 167.75L290.699 171.862V178.379C290.699 189.007 293.723 196.946 305.56 196.946H307.618C319.178 196.946 321.235 187.869 321.373 177.952V171.578L326.056 167.608L331 171.72V178.094C330.862 191.838 327.285 207.574 308.032 207.574H305.974C294.552 207.574 288.365 202.324 285.892 195.808C283.006 202.466 275.299 208.286 264.844 208.286H262.358C242.553 208.286 237.194 195.964 237.056 178.663V172.147H237.043ZM276.391 274.744L273.642 267.089L280.796 264.969L305.974 276.721V252.491L311.07 248.095L316.291 252.491V281.829L325.641 286.226L328.251 293.311L320.959 296L276.391 274.744ZM321.235 223.011L328.113 226.27L325.917 233.497L264.002 263.119L256.571 260.146L259.596 252.776L321.235 223.011ZM231.905 263.404L237.954 268.512C237.402 286.51 222.403 296 204.669 296H202.874C194.062 296 183.759 292.6 177.157 286.083L177.834 278.855L184.298 278.002C189.118 282.256 195.858 285.229 202.183 285.229H204.117C216.091 285.229 225.303 280.136 226.27 268.085L231.905 263.404ZM226.256 251.638C225.704 239.16 216.629 234.209 204.103 234.209H202.169C194.739 234.209 189.104 237.182 184.284 241.436L177.834 240.583L177.143 233.355C183.745 226.696 192.957 223.58 202.597 223.58H204.517C222.403 223.58 237.402 232.942 237.94 251.211L231.891 256.176L226.256 251.638Z" fill="#000000"/></g><path d="M1171 781L1171 339L1187 339L1187 781L1171 781Z" fill="#000000"/><g fill="#000000" id="info-group"><path d="M167.6400 600L159.1800 600Q158.2800 600 157.6500 599.3700Q157.0200 598.7400 157.0200 597.8400L157.0200 597.8400L157.0200 539.1600Q157.0200 538.2600 157.6500 537.6300Q158.2800 537 159.1800 537L159.1800 537L167.6400 537Q168.6300 537 169.2150 537.6300Q169.8000 538.2600 169.8000 539.1600L169.8000 539.1600L169.8000 597.8400Q169.8000 598.7400 169.2150 599.3700Q168.6300 600 167.6400 600L167.6400 600ZM192.9300 600L185.0100 600Q184.1100 600 183.4800 599.3700Q182.8500 598.7400 182.8500 597.8400L182.8500 597.8400L182.8500 555.3600Q182.8500 554.4600 183.4800 553.8300Q184.1100 553.2000 185.0100 553.2000L185.0100 553.2000L192.3900 553.2000Q193.2900 553.2000 193.9200 553.8300Q194.5500 554.4600 194.5500 555.3600L194.5500 555.3600L194.5500 559.0500Q196.8900 556.1700 200.5350 554.2350Q204.1800 552.3000 209.5800 552.3000L209.5800 552.3000Q215.0700 552.3000 219.1200 554.7750Q223.1700 557.2500 225.3750 561.7500Q227.5800 566.2500 227.5800 572.5500L227.5800 572.5500L227.5800 597.8400Q227.5800 598.7400 226.9500 599.3700Q226.3200 600 225.4200 600L225.4200 600L217.5000 600Q216.6000 600 215.9700 599.3700Q215.3400 598.7400 215.3400 597.8400L215.3400 597.8400L215.3400 573.0900Q215.3400 567.8700 212.7750 564.9000Q210.2100 561.9300 205.3500 561.9300L205.3500 561.9300Q200.6700 561.9300 197.8800 564.9000Q195.0900 567.8700 195.0900 573.0900L195.0900 573.0900L195.0900 597.8400Q195.0900 598.7400 194.4600 599.3700Q193.8300 600 192.9300 600L192.9300 600ZM267.4500 600L260.1600 600Q254.7600 600 251.0700 598.1100Q247.3800 596.2200 245.5800 592.4850Q243.7800 588.7500 243.7800 583.1700L243.7800 583.1700L243.7800 562.7400L236.6700 562.7400Q235.7700 562.7400 235.1400 562.1100Q234.5100 561.4800 234.5100 560.4900L234.5100 560.4900L234.5100 555.3600Q234.5100 554.4600 235.1400 553.8300Q235.7700 553.2000 236.6700 553.2000L236.6700 553.2000L243.7800 553.2000L243.7800 538.2600Q243.7800 537.3600 244.3650 536.7300Q244.9500 536.1000 245.9400 536.1000L245.9400 536.1000L253.2300 536.1000Q254.1300 536.1000 254.7600 536.7300Q255.3900 537.3600 255.3900 538.2600L255.3900 538.2600L255.3900 553.2000L266.6400 553.2000Q267.5400 553.2000 268.1700 553.8300Q268.8000 554.4600 268.8000 555.3600L268.8000 555.3600L268.8000 560.4900Q268.8000 561.4800 268.1700 562.1100Q267.5400 562.7400 266.6400 562.7400L266.6400 562.7400L255.3900 562.7400L255.3900 582.2700Q255.3900 585.9600 256.6950 588.0300Q258 590.1000 261.2400 590.1000L261.2400 590.1000L267.4500 590.1000Q268.3500 590.1000 268.9800 590.7300Q269.6100 591.3600 269.6100 592.2600L269.6100 592.2600L269.6100 597.8400Q269.6100 598.7400 268.9800 599.3700Q268.3500 600 267.4500 600L267.4500 600ZM287.6100 600L279.7800 600Q278.8800 600 278.2500 599.3700Q277.6200 598.7400 277.6200 597.8400L277.6200 597.8400L277.6200 555.4500Q277.6200 554.4600 278.2500 553.8300Q278.8800 553.2000 279.7800 553.2000L279.7800 553.2000L287.0700 553.2000Q287.9700 553.2000 288.6450 553.8300Q289.3200 554.4600 289.3200 555.4500L289.3200 555.4500L289.3200 559.1400Q291.3900 556.2600 294.6750 554.7300Q297.9600 553.2000 302.2800 553.2000L302.2800 553.2000L305.9700 553.2000Q306.9600 553.2000 307.5450 553.8300Q308.1300 554.4600 308.1300 555.3600L308.1300 555.3600L308.1300 561.8400Q308.1300 562.7400 307.5450 563.3700Q306.9600 564 305.9700 564L305.9700 564L298.9500 564Q294.6300 564 292.2450 566.3850Q289.8600 568.7700 289.8600 573.0900L289.8600 573.0900L289.8600 597.8400Q289.8600 598.7400 289.2300 599.3700Q288.6000 600 287.6100 600L287.6100 600ZM335.8500 600.9000L335.8500 600.9000Q328.6500 600.9000 323.7450 598.3800Q318.8400 595.8600 316.2750 591.2700Q313.7100 586.6800 313.3500 580.5600L313.3500 580.5600Q313.2600 578.9400 313.2600 576.6000Q313.2600 574.2600 313.3500 572.6400L313.3500 572.6400Q313.7100 566.4300 316.3650 561.8850Q319.0200 557.3400 323.9250 554.8200Q328.8300 552.3000 335.8500 552.3000L335.8500 552.3000Q342.8700 552.3000 347.7750 554.8200Q352.6800 557.3400 355.3350 561.8850Q357.9900 566.4300 358.3500 572.6400L358.3500 572.6400Q358.4400 574.2600 358.4400 576.6000Q358.4400 578.9400 358.3500 580.5600L358.3500 580.5600Q357.9900 586.6800 355.4250 591.2700Q352.8600 595.8600 347.9550 598.3800Q343.0500 600.9000 335.8500 600.9000ZM335.8500 591.9900L335.8500 591.9900Q340.6200 591.9900 343.2300 588.9750Q345.8400 585.9600 346.1100 580.1100L346.1100 580.1100Q346.2000 578.7600 346.2000 576.6000Q346.2000 574.4400 346.1100 573.0900L346.1100 573.0900Q345.8400 567.2400 343.2300 564.2250Q340.6200 561.2100 335.8500 561.2100L335.8500 561.2100Q331.0800 561.2100 328.4700 564.2250Q325.8600 567.2400 325.5900 573.0900L325.5900 573.0900Q325.5000 574.4400 325.5000 576.6000Q325.5000 578.7600 325.5900 580.1100L325.5900 580.1100Q325.8600 585.9600 328.4700 588.9750Q331.0800 591.9900 335.8500 591.9900ZM385.8000 600.9000L385.8000 600.9000Q381.1200 600.9000 377.5650 599.3250Q374.0100 597.7500 371.6700 594.8700Q369.3300 591.9900 368.0700 588.0750Q366.8100 584.1600 366.6300 579.4800L366.6300 579.4800Q366.5400 577.8600 366.5400 576.5550Q366.5400 575.2500 366.6300 573.6300L366.6300 573.6300Q366.8100 569.1300 368.0250 565.2600Q369.2400 561.3900 371.6250 558.4650Q374.0100 555.5400 377.5650 553.9200Q381.1200 552.3000 385.8000 552.3000L385.8000 552.3000Q390.6600 552.3000 394.0350 553.9650Q397.4100 555.6300 399.6600 558.2400L399.6600 558.2400L399.6600 538.2600Q399.6600 537.3600 400.2450 536.7300Q400.8300 536.1000 401.8200 536.1000L401.8200 536.1000L409.4700 536.1000Q410.3700 536.1000 411 536.7300Q411.6300 537.3600 411.6300 538.2600L411.6300 538.2600L411.6300 597.8400Q411.6300 598.7400 411 599.3700Q410.3700 600 409.4700 600L409.4700 600L402.3600 600Q401.3700 600 400.7850 599.3700Q400.2000 598.7400 400.2000 597.8400L400.2000 597.8400L400.2000 594.5100Q397.9500 597.3000 394.4850 599.1000Q391.0200 600.9000 385.8000 600.9000ZM389.1300 591.2700L389.1300 591.2700Q392.9100 591.2700 395.1600 589.5600Q397.4100 587.8500 398.4900 585.1950Q399.5700 582.5400 399.6600 579.7500L399.6600 579.7500Q399.7500 578.1300 399.7500 576.2850Q399.7500 574.4400 399.6600 572.8200L399.6600 572.8200Q399.5700 570.1200 398.4000 567.6450Q397.2300 565.1700 394.9800 563.5500Q392.7300 561.9300 389.1300 561.9300L389.1300 561.9300Q385.3500 561.9300 383.1450 563.5950Q380.9400 565.2600 379.9500 567.9600Q378.9600 570.6600 378.7800 573.9000L378.7800 573.9000Q378.6900 576.6000 378.7800 579.3000L378.7800 579.3000Q378.9600 582.5400 379.9500 585.2400Q380.9400 587.9400 383.1450 589.6050Q385.3500 591.2700 389.1300 591.2700ZM440.9700 600.9000L440.9700 600.9000Q435.4800 600.9000 431.4750 598.4250Q427.4700 595.9500 425.3100 591.4050Q423.1500 586.8600 423.1500 580.6500L423.1500 580.6500L423.1500 555.3600Q423.1500 554.4600 423.7800 553.8300Q424.4100 553.2000 425.3100 553.2000L425.3100 553.2000L433.2300 553.2000Q434.2200 553.2000 434.8050 553.8300Q435.3900 554.4600 435.3900 555.3600L435.3900 555.3600L435.3900 580.1100Q435.3900 591.2700 445.2000 591.2700L445.2000 591.2700Q449.8800 591.2700 452.6250 588.3000Q455.3700 585.3300 455.3700 580.1100L455.3700 580.1100L455.3700 555.3600Q455.3700 554.4600 456 553.8300Q456.6300 553.2000 457.5300 553.2000L457.5300 553.2000L465.4500 553.2000Q466.3500 553.2000 466.9800 553.8300Q467.6100 554.4600 467.6100 555.3600L467.6100 555.3600L467.6100 597.8400Q467.6100 598.7400 466.9800 599.3700Q466.3500 600 465.4500 600L465.4500 600L458.1600 600Q457.1700 600 456.5850 599.3700Q456 598.7400 456 597.8400L456 597.8400L456 594.1500Q453.5700 597.3000 449.9700 599.1000Q446.3700 600.9000 440.9700 600.9000ZM499.6500 619.8000L499.6500 619.8000Q497.1300 619.7100 495.1950 618.9000Q493.2600 618.0900 492.4050 617.0100Q491.5500 615.9300 492.4500 615.2100L492.4500 615.2100L493.9800 613.8600Q494.7900 613.1400 495.3750 613.4550Q495.9600 613.7700 496.9050 614.3550Q497.8500 614.9400 499.6500 614.9400L499.6500 614.9400Q501 614.9400 501.9900 614.0850Q502.9800 613.2300 502.9800 611.8800L502.9800 611.8800Q502.9800 610.6200 502.0350 609.8100Q501.0900 609 499.6500 609L499.6500 609Q498.3900 609 497.4900 609.3150Q496.5900 609.6300 495.8700 609.7650Q495.1500 609.9000 494.4300 609.1800L494.4300 609.1800L492.8100 607.5600Q492.2700 606.9300 492.4500 606.2550Q492.6300 605.5800 492.9900 604.7700L492.9900 604.7700L494.8800 600.4500Q487.1400 599.2800 482.5500 594.0150Q477.9600 588.7500 477.6900 580.2000L477.6900 580.2000Q477.6000 578.8500 477.6000 576.6450Q477.6000 574.4400 477.6900 573L477.6900 573Q477.9600 566.4300 480.7050 561.7950Q483.4500 557.1600 488.3550 554.7300Q493.2600 552.3000 499.7400 552.3000L499.7400 552.3000Q505.5000 552.3000 509.5500 553.8750Q513.6000 555.4500 516.2100 557.9250Q518.8200 560.4000 520.1250 563.0550Q521.4300 565.7100 521.5200 567.8700L521.5200 567.8700Q521.6100 568.8600 520.9350 569.4450Q520.2600 570.0300 519.3600 570.0300L519.3600 570.0300L511.4400 570.0300Q510.5400 570.0300 510.0450 569.5800Q509.5500 569.1300 509.1000 568.2300L509.1000 568.2300Q507.7500 564.6300 505.5450 563.1450Q503.3400 561.6600 499.9200 561.6600L499.9200 561.6600Q495.4200 561.6600 492.7650 564.4950Q490.1100 567.3300 489.9300 573.4500L489.9300 573.4500Q489.7500 576.8700 489.9300 579.7500L489.9300 579.7500Q490.1100 585.9600 492.7650 588.7500Q495.4200 591.5400 499.9200 591.5400L499.9200 591.5400Q503.4300 591.5400 505.5900 590.0550Q507.7500 588.5700 509.1000 584.9700L509.1000 584.9700Q509.5500 584.0700 510.0450 583.6200Q510.5400 583.1700 511.4400 583.1700L511.4400 583.1700L519.3600 583.1700Q520.2600 583.1700 520.9350 583.7550Q521.6100 584.3400 521.5200 585.3300L521.5200 585.3300Q521.4300 587.3100 520.1700 589.9650Q518.9100 592.6200 516.3900 595.0950Q513.8700 597.5700 509.8200 599.2350Q505.7700 600.9000 500.0100 600.9000L500.0100 600.9000L498.1200 604.7700Q498.6600 604.5000 499.6050 604.3200Q500.5500 604.1400 501.2700 604.1400L501.2700 604.1400Q504.4200 604.1400 506.3550 606.3000Q508.2900 608.4600 508.2900 611.7900L508.2900 611.7900Q508.2900 615.2100 506.0400 617.5500Q503.7900 619.8900 499.6500 619.8000ZM544.4700 600.9000L544.4700 600.9000Q539.7900 600.9000 536.0100 599.0550Q532.2300 597.2100 530.0250 594.1050Q527.8200 591 527.8200 587.1300L527.8200 587.1300Q527.8200 580.8300 532.9500 577.0950Q538.0800 573.3600 546.3600 572.1000L546.3600 572.1000L558.6900 570.3000L558.6900 568.4100Q558.6900 564.6300 556.8000 562.5600Q554.9100 560.4900 550.3200 560.4900L550.3200 560.4900Q547.0800 560.4900 545.0550 561.7950Q543.0300 563.1000 542.0400 565.2600L542.0400 565.2600Q541.3200 566.4300 539.9700 566.4300L539.9700 566.4300L532.8600 566.4300Q531.8700 566.4300 531.3750 565.8900Q530.8800 565.3500 530.8800 564.4500L530.8800 564.4500Q530.9700 563.0100 532.0950 560.9400Q533.2200 558.8700 535.5150 556.9350Q537.8100 555 541.5000 553.6500Q545.1900 552.3000 550.4100 552.3000L550.4100 552.3000Q556.0800 552.3000 559.9950 553.6950Q563.9100 555.0900 566.2500 557.4300Q568.5900 559.7700 569.6700 562.9200Q570.7500 566.0700 570.7500 569.5800L570.7500 569.5800L570.7500 597.8400Q570.7500 598.7400 570.1200 599.3700Q569.4900 600 568.5900 600L568.5900 600L561.3000 600Q560.3100 600 559.7250 599.3700Q559.1400 598.7400 559.1400 597.8400L559.1400 597.8400L559.1400 594.3300Q557.9700 595.9500 555.9900 597.4800Q554.0100 599.0100 551.1750 599.9550Q548.3400 600.9000 544.4700 600.9000ZM547.5300 592.3500L547.5300 592.3500Q550.6800 592.3500 553.2450 591Q555.8100 589.6500 557.2950 586.8150Q558.7800 583.9800 558.7800 579.6600L558.7800 579.6600L558.7800 577.7700L549.7800 579.2100Q544.4700 580.0200 541.8600 581.8200Q539.2500 583.6200 539.2500 586.2300L539.2500 586.2300Q539.2500 588.2100 540.4650 589.6050Q541.6800 591 543.5700 591.6750Q545.4600 592.3500 547.5300 592.3500ZM555.3600 546.9000L555.3600 546.9000Q553.0200 546.9000 551.5800 546.1350Q550.1400 545.3700 548.9250 544.5600Q547.7100 543.7500 546.2700 543.7500L546.2700 543.7500Q545.1000 543.7500 544.6050 544.4250Q544.1100 545.1000 543.6600 545.7750Q543.2100 546.4500 542.2200 546.4500L542.2200 546.4500L538.0800 546.4500Q537.4500 546.4500 537 546Q536.5500 545.5500 536.5500 544.9200L536.5500 544.9200Q536.5500 543.5700 537.0450 541.9050Q537.5400 540.2400 538.6200 538.7100Q539.7000 537.1800 541.3650 536.2350Q543.0300 535.2900 545.2800 535.2900L545.2800 535.2900Q547.7100 535.2900 549.1500 536.0550Q550.5900 536.8200 551.8050 537.6300Q553.0200 538.4400 554.4600 538.4400L554.4600 538.4400Q555.6300 538.4400 556.1250 537.7200Q556.6200 537 557.0700 536.3250Q557.5200 535.6500 558.5100 535.6500L558.5100 535.6500L562.6500 535.6500Q563.3700 535.6500 563.7750 536.1450Q564.1800 536.6400 564.1800 537.2700L564.1800 537.2700Q564.1800 538.6200 563.6850 540.2850Q563.1900 541.9500 562.1100 543.4800Q561.0300 545.0100 559.3650 545.9550Q557.7000 546.9000 555.3600 546.9000ZM602.9700 600.9000L602.9700 600.9000Q595.7700 600.9000 590.8650 598.3800Q585.9600 595.8600 583.3950 591.2700Q580.8300 586.6800 580.4700 580.5600L580.4700 580.5600Q580.3800 578.9400 580.3800 576.6000Q580.3800 574.2600 580.4700 572.6400L580.4700 572.6400Q580.8300 566.4300 583.4850 561.8850Q586.1400 557.3400 591.0450 554.8200Q595.9500 552.3000 602.9700 552.3000L602.9700 552.3000Q609.9900 552.3000 614.8950 554.8200Q619.8000 557.3400 622.4550 561.8850Q625.1100 566.4300 625.4700 572.6400L625.4700 572.6400Q625.5600 574.2600 625.5600 576.6000Q625.5600 578.9400 625.4700 580.5600L625.4700 580.5600Q625.1100 586.6800 622.5450 591.2700Q619.9800 595.8600 615.0750 598.3800Q610.1700 600.9000 602.9700 600.9000ZM602.9700 591.9900L602.9700 591.9900Q607.7400 591.9900 610.3500 588.9750Q612.9600 585.9600 613.2300 580.1100L613.2300 580.1100Q613.3200 578.7600 613.3200 576.6000Q613.3200 574.4400 613.2300 573.0900L613.2300 573.0900Q612.9600 567.2400 610.3500 564.2250Q607.7400 561.2100 602.9700 561.2100L602.9700 561.2100Q598.2000 561.2100 595.5900 564.2250Q592.9800 567.2400 592.7100 573.0900L592.7100 573.0900Q592.6200 574.4400 592.6200 576.6000Q592.6200 578.7600 592.7100 580.1100L592.7100 580.1100Q592.9800 585.9600 595.5900 588.9750Q598.2000 591.9900 602.9700 591.9900ZM669.7500 600.9000L669.7500 600.9000Q665.0700 600.9000 661.2900 599.0550Q657.5100 597.2100 655.3050 594.1050Q653.1000 591 653.1000 587.1300L653.1000 587.1300Q653.1000 580.8300 658.2300 577.0950Q663.3600 573.3600 671.6400 572.1000L671.6400 572.1000L683.9700 570.3000L683.9700 568.4100Q683.9700 564.6300 682.0800 562.5600Q680.1900 560.4900 675.6000 560.4900L675.6000 560.4900Q672.3600 560.4900 670.3350 561.7950Q668.3100 563.1000 667.3200 565.2600L667.3200 565.2600Q666.6000 566.4300 665.2500 566.4300L665.2500 566.4300L658.1400 566.4300Q657.1500 566.4300 656.6550 565.8900Q656.1600 565.3500 656.1600 564.4500L656.1600 564.4500Q656.2500 563.0100 657.3750 560.9400Q658.5000 558.8700 660.7950 556.9350Q663.0900 555 666.7800 553.6500Q670.4700 552.3000 675.6900 552.3000L675.6900 552.3000Q681.3600 552.3000 685.2750 553.6950Q689.1900 555.0900 691.5300 557.4300Q693.8700 559.7700 694.9500 562.9200Q696.0300 566.0700 696.0300 569.5800L696.0300 569.5800L696.0300 597.8400Q696.0300 598.7400 695.4000 599.3700Q694.7700 600 693.8700 600L693.8700 600L686.5800 600Q685.5900 600 685.0050 599.3700Q684.4200 598.7400 684.4200 597.8400L684.4200 597.8400L684.4200 594.3300Q683.2500 595.9500 681.2700 597.4800Q679.2900 599.0100 676.4550 599.9550Q673.6200 600.9000 669.7500 600.9000ZM672.8100 592.3500L672.8100 592.3500Q675.9600 592.3500 678.5250 591Q681.0900 589.6500 682.5750 586.8150Q684.0600 583.9800 684.0600 579.6600L684.0600 579.6600L684.0600 577.7700L675.0600 579.2100Q669.7500 580.0200 667.1400 581.8200Q664.5300 583.6200 664.5300 586.2300L664.5300 586.2300Q664.5300 588.2100 665.7450 589.6050Q666.9600 591 668.8500 591.6750Q670.7400 592.3500 672.8100 592.3500ZM728.2500 600.9000L728.2500 600.9000Q721.0500 600.9000 716.1450 598.3800Q711.2400 595.8600 708.6750 591.2700Q706.1100 586.6800 705.7500 580.5600L705.7500 580.5600Q705.6600 578.9400 705.6600 576.6000Q705.6600 574.2600 705.7500 572.6400L705.7500 572.6400Q706.1100 566.4300 708.7650 561.8850Q711.4200 557.3400 716.3250 554.8200Q721.2300 552.3000 728.2500 552.3000L728.2500 552.3000Q735.2700 552.3000 740.1750 554.8200Q745.0800 557.3400 747.7350 561.8850Q750.3900 566.4300 750.7500 572.6400L750.7500 572.6400Q750.8400 574.2600 750.8400 576.6000Q750.8400 578.9400 750.7500 580.5600L750.7500 580.5600Q750.3900 586.6800 747.8250 591.2700Q745.2600 595.8600 740.3550 598.3800Q735.4500 600.9000 728.2500 600.9000ZM728.2500 591.9900L728.2500 591.9900Q733.0200 591.9900 735.6300 588.9750Q738.2400 585.9600 738.5100 580.1100L738.5100 580.1100Q738.6000 578.7600 738.6000 576.6000Q738.6000 574.4400 738.5100 573.0900L738.5100 573.0900Q738.2400 567.2400 735.6300 564.2250Q733.0200 561.2100 728.2500 561.2100L728.2500 561.2100Q723.4800 561.2100 720.8700 564.2250Q718.2600 567.2400 717.9900 573.0900L717.9900 573.0900Q717.9000 574.4400 717.9000 576.6000Q717.9000 578.7600 717.9900 580.1100L717.9900 580.1100Q718.2600 585.9600 720.8700 588.9750Q723.4800 591.9900 728.2500 591.9900ZM792.8700 600L784.6800 600Q783.7800 600 783.1500 599.3700Q782.5200 598.7400 782.5200 597.8400L782.5200 597.8400L782.5200 539.2500Q782.5200 538.2600 783.1500 537.6300Q783.7800 537 784.6800 537L784.6800 537L807.9900 537Q818.8800 537 825.1800 542.0400Q831.4800 547.0800 831.4800 556.7100L831.4800 556.7100Q831.4800 563.3700 828.1950 567.7800Q824.9100 572.1900 819.4200 574.1700L819.4200 574.1700L832.5600 597.1200Q832.8300 597.6600 832.8300 598.1100L832.8300 598.1100Q832.8300 598.9200 832.2450 599.4600Q831.6600 600 830.9400 600L830.9400 600L822.7500 600Q821.2200 600 820.4100 599.1900Q819.6000 598.3800 819.1500 597.5700L819.1500 597.5700L807.5400 576.2400L795.0300 576.2400L795.0300 597.8400Q795.0300 598.7400 794.4450 599.3700Q793.8600 600 792.8700 600L792.8700 600ZM795.0300 546.9900L795.0300 566.0700L807.7200 566.0700Q813.2100 566.0700 815.9100 563.5950Q818.6100 561.1200 818.6100 556.6200L818.6100 556.6200Q818.6100 552.1200 815.9550 549.5550Q813.3000 546.9900 807.7200 546.9900L807.7200 546.9900L795.0300 546.9900ZM862.1700 600.9000L862.1700 600.9000Q852.1800 600.9000 846.3300 595.1400Q840.4800 589.3800 840.0300 578.7600L840.0300 578.7600Q839.9400 577.8600 839.9400 576.4650Q839.9400 575.0700 840.0300 574.2600L840.0300 574.2600Q840.3900 567.4200 843.1350 562.5150Q845.8800 557.6100 850.7400 554.9550Q855.6000 552.3000 862.1700 552.3000L862.1700 552.3000Q869.4600 552.3000 874.4100 555.3150Q879.3600 558.3300 881.8800 563.6850Q884.4000 569.0400 884.4000 576.0600L884.4000 576.0600L884.4000 577.9500Q884.4000 578.8500 883.7700 579.4800Q883.1400 580.1100 882.1500 580.1100L882.1500 580.1100L852.2700 580.1100Q852.2700 580.1100 852.2700 580.3800Q852.2700 580.6500 852.2700 580.8300L852.2700 580.8300Q852.3600 583.9800 853.4850 586.6350Q854.6100 589.2900 856.8150 590.9100Q859.0200 592.5300 862.0800 592.5300L862.0800 592.5300Q864.6000 592.5300 866.3100 591.7650Q868.0200 591 869.1000 590.0100Q870.1800 589.0200 870.6300 588.3900L870.6300 588.3900Q871.4400 587.3100 871.9350 587.0850Q872.4300 586.8600 873.4200 586.8600L873.4200 586.8600L881.1600 586.8600Q882.0600 586.8600 882.6450 587.4000Q883.2300 587.9400 883.1400 588.7500L883.1400 588.7500Q883.0500 590.1900 881.6550 592.2600Q880.2600 594.3300 877.6500 596.3100Q875.0400 598.2900 871.1250 599.5950Q867.2100 600.9000 862.1700 600.9000ZM852.2700 572.2800L852.2700 572.5500L872.1600 572.5500L872.1600 572.2800Q872.1600 568.7700 870.9900 566.1150Q869.8200 563.4600 867.5700 561.9750Q865.3200 560.4900 862.1700 560.4900L862.1700 560.4900Q859.0200 560.4900 856.7700 561.9750Q854.5200 563.4600 853.3950 566.1150Q852.2700 568.7700 852.2700 572.2800L852.2700 572.2800ZM907.5300 600.9000L907.5300 600.9000Q902.8500 600.9000 899.0700 599.0550Q895.2900 597.2100 893.0850 594.1050Q890.8800 591 890.8800 587.1300L890.8800 587.1300Q890.8800 580.8300 896.0100 577.0950Q901.1400 573.3600 909.4200 572.1000L909.4200 572.1000L921.7500 570.3000L921.7500 568.4100Q921.7500 564.6300 919.8600 562.5600Q917.9700 560.4900 913.3800 560.4900L913.3800 560.4900Q910.1400 560.4900 908.1150 561.7950Q906.0900 563.1000 905.1000 565.2600L905.1000 565.2600Q904.3800 566.4300 903.0300 566.4300L903.0300 566.4300L895.9200 566.4300Q894.9300 566.4300 894.4350 565.8900Q893.9400 565.3500 893.9400 564.4500L893.9400 564.4500Q894.0300 563.0100 895.1550 560.9400Q896.2800 558.8700 898.5750 556.9350Q900.8700 555 904.5600 553.6500Q908.2500 552.3000 913.4700 552.3000L913.4700 552.3000Q919.1400 552.3000 923.0550 553.6950Q926.9700 555.0900 929.3100 557.4300Q931.6500 559.7700 932.7300 562.9200Q933.8100 566.0700 933.8100 569.5800L933.8100 569.5800L933.8100 597.8400Q933.8100 598.7400 933.1800 599.3700Q932.5500 600 931.6500 600L931.6500 600L924.3600 600Q923.3700 600 922.7850 599.3700Q922.2000 598.7400 922.2000 597.8400L922.2000 597.8400L922.2000 594.3300Q921.0300 595.9500 919.0500 597.4800Q917.0700 599.0100 914.2350 599.9550Q911.4000 600.9000 907.5300 600.9000ZM910.5900 592.3500L910.5900 592.3500Q913.7400 592.3500 916.3050 591Q918.8700 589.6500 920.3550 586.8150Q921.8400 583.9800 921.8400 579.6600L921.8400 579.6600L921.8400 577.7700L912.8400 579.2100Q907.5300 580.0200 904.9200 581.8200Q902.3100 583.6200 902.3100 586.2300L902.3100 586.2300Q902.3100 588.2100 903.5250 589.6050Q904.7400 591 906.6300 591.6750Q908.5200 592.3500 910.5900 592.3500ZM965.5800 600.9000L965.5800 600.9000Q959.1000 600.9000 954.1950 598.4700Q949.2900 596.0400 946.5450 591.4050Q943.8000 586.7700 943.5300 580.2000L943.5300 580.2000Q943.4400 578.8500 943.4400 576.6450Q943.4400 574.4400 943.5300 573L943.5300 573Q943.8000 566.4300 946.5450 561.7950Q949.2900 557.1600 954.1950 554.7300Q959.1000 552.3000 965.5800 552.3000L965.5800 552.3000Q971.3400 552.3000 975.3900 553.8750Q979.4400 555.4500 982.0500 557.9250Q984.6600 560.4000 985.9650 563.0550Q987.2700 565.7100 987.3600 567.8700L987.3600 567.8700Q987.4500 568.8600 986.7750 569.4450Q986.1000 570.0300 985.2000 570.0300L985.2000 570.0300L977.2800 570.0300Q976.3800 570.0300 975.8850 569.5800Q975.3900 569.1300 974.9400 568.2300L974.9400 568.2300Q973.5900 564.6300 971.3850 563.1450Q969.1800 561.6600 965.7600 561.6600L965.7600 561.6600Q961.2600 561.6600 958.6050 564.4950Q955.9500 567.3300 955.7700 573.4500L955.7700 573.4500Q955.5900 576.8700 955.7700 579.7500L955.7700 579.7500Q955.9500 585.9600 958.6050 588.7500Q961.2600 591.5400 965.7600 591.5400L965.7600 591.5400Q969.2700 591.5400 971.4300 590.0550Q973.5900 588.5700 974.9400 584.9700L974.9400 584.9700Q975.3900 584.0700 975.8850 583.6200Q976.3800 583.1700 977.2800 583.1700L977.2800 583.1700L985.2000 583.1700Q986.1000 583.1700 986.7750 583.7550Q987.4500 584.3400 987.3600 585.3300L987.3600 585.3300Q987.2700 586.9500 986.5050 588.9750Q985.7400 591 984.0750 593.1150Q982.4100 595.2300 979.8900 596.9850Q977.3700 598.7400 973.8150 599.8200Q970.2600 600.9000 965.5800 600.9000ZM1025.1600 600L1017.8700 600Q1012.4700 600 1008.7800 598.1100Q1005.0900 596.2200 1003.2900 592.4850Q1001.4900 588.7500 1001.4900 583.1700L1001.4900 583.1700L1001.4900 562.7400L994.3800 562.7400Q993.4800 562.7400 992.8500 562.1100Q992.2200 561.4800 992.2200 560.4900L992.2200 560.4900L992.2200 555.3600Q992.2200 554.4600 992.8500 553.8300Q993.4800 553.2000 994.3800 553.2000L994.3800 553.2000L1001.4900 553.2000L1001.4900 538.2600Q1001.4900 537.3600 1002.0750 536.7300Q1002.6600 536.1000 1003.6500 536.1000L1003.6500 536.1000L1010.9400 536.1000Q1011.8400 536.1000 1012.4700 536.7300Q1013.1000 537.3600 1013.1000 538.2600L1013.1000 538.2600L1013.1000 553.2000L1024.3500 553.2000Q1025.2500 553.2000 1025.8800 553.8300Q1026.5100 554.4600 1026.5100 555.3600L1026.5100 555.3600L1026.5100 560.4900Q1026.5100 561.4800 1025.8800 562.1100Q1025.2500 562.7400 1024.3500 562.7400L1024.3500 562.7400L1013.1000 562.7400L1013.1000 582.2700Q1013.1000 585.9600 1014.4050 588.0300Q1015.7100 590.1000 1018.9500 590.1000L1018.9500 590.1000L1025.1600 590.1000Q1026.0600 590.1000 1026.6900 590.7300Q1027.3200 591.3600 1027.3200 592.2600L1027.3200 592.2600L1027.3200 597.8400Q1027.3200 598.7400 1026.6900 599.3700Q1026.0600 600 1025.1600 600L1025.1600 600Z" id="title"/><path d="M1448.3400 640L1343.1800 640Q1340.9800 640 1339.4400 638.4600Q1337.9000 636.9200 1337.9000 634.7200L1337.9000 634.7200L1337.9000 623.5000Q1337.9000 621.5200 1338.8900 618.7700Q1339.8800 616.0200 1343.4000 613.1600L1343.4000 613.1600L1378.1600 578.6200Q1392.6800 567.1800 1401.5900 559.1500Q1410.5000 551.1200 1414.5700 544.4100Q1418.6400 537.7000 1418.6400 531.1000L1418.6400 531.1000Q1418.6400 521.2000 1413.2500 515.0400Q1407.8600 508.8800 1396.2000 508.8800L1396.2000 508.8800Q1388.5000 508.8800 1383.2200 512.0700Q1377.9400 515.2600 1374.9700 520.5400Q1372 525.8200 1370.9000 532.2000L1370.9000 532.2000Q1370.4600 535.0600 1368.4800 536.1600Q1366.5000 537.2600 1364.5200 537.2600L1364.5200 537.2600L1344.9400 537.2600Q1342.9600 537.2600 1341.6400 535.9400Q1340.3200 534.6200 1340.3200 532.8600L1340.3200 532.8600Q1340.5400 523.4000 1344.2800 514.4900Q1348.0200 505.5800 1355.1700 498.6500Q1362.3200 491.7200 1372.6600 487.5400Q1383 483.3600 1395.9800 483.3600L1395.9800 483.3600Q1414.2400 483.3600 1426.2300 489.5200Q1438.2200 495.6800 1444.2700 506.2400Q1450.3200 516.8000 1450.3200 530L1450.3200 530Q1450.3200 540.3400 1446.3600 549.0300Q1442.4000 557.7200 1434.9200 565.7500Q1427.4400 573.7800 1416.8800 582.1400L1416.8800 582.1400L1385.6400 613.8200L1448.3400 613.8200Q1450.7600 613.8200 1452.1900 615.2500Q1453.6200 616.6800 1453.6200 619.1000L1453.6200 619.1000L1453.6200 634.7200Q1453.6200 636.9200 1452.1900 638.4600Q1450.7600 640 1448.3400 640L1448.3400 640ZM1536.3400 642.2000L1536.3400 642.2000Q1521.8200 642.2000 1510.3800 638.6800Q1498.9400 635.1600 1491.1300 628.7800Q1483.3200 622.4000 1479.2500 613.8200Q1475.1800 605.2400 1475.1800 594.6800L1475.1800 594.6800Q1475.1800 581.9200 1481.4500 572.5700Q1487.7200 563.2200 1497.8400 558.1600L1497.8400 558.1600Q1489.7000 553.1000 1485.1900 545.1800Q1480.6800 537.2600 1480.6800 526.7000L1480.6800 526.7000Q1480.6800 513.9400 1487.1700 504.3700Q1493.6600 494.8000 1506.0900 489.3000Q1518.5200 483.8000 1536.3400 483.8000L1536.3400 483.8000Q1554.1600 483.8000 1566.4800 489.1900Q1578.8000 494.5800 1585.1800 504.1500Q1591.5600 513.7200 1591.5600 526.4800L1591.5600 526.4800Q1591.5600 537.0400 1587.1600 544.9600Q1582.7600 552.8800 1574.8400 558.1600L1574.8400 558.1600Q1585.1800 563 1591.3400 572.5700Q1597.5000 582.1400 1597.5000 594.9000L1597.5000 594.9000Q1597.5000 608.7600 1590.3500 619.4300Q1583.2000 630.1000 1569.4500 636.1500Q1555.7000 642.2000 1536.3400 642.2000ZM1536.3400 619.3200L1536.3400 619.3200Q1544.9200 619.3200 1551.8500 616.3500Q1558.7800 613.3800 1562.8500 607.8800Q1566.9200 602.3800 1566.9200 594.9000L1566.9200 594.9000Q1566.9200 587.2000 1562.8500 581.8100Q1558.7800 576.4200 1551.8500 573.4500Q1544.9200 570.4800 1536.3400 570.4800L1536.3400 570.4800Q1527.7600 570.4800 1520.8300 573.4500Q1513.9000 576.4200 1509.8300 581.8100Q1505.7600 587.2000 1505.7600 594.9000L1505.7600 594.9000Q1505.7600 602.3800 1509.8300 607.8800Q1513.9000 613.3800 1520.8300 616.3500Q1527.7600 619.3200 1536.3400 619.3200ZM1536.3400 548.7000L1536.3400 548.7000Q1543.6000 548.4800 1549.6500 545.8400Q1555.7000 543.2000 1559.3300 538.5800Q1562.9600 533.9600 1562.9600 527.8000L1562.9600 527.8000Q1562.9600 521.4200 1559.5500 516.6900Q1556.1400 511.9600 1550.0900 509.3200Q1544.0400 506.6800 1536.3400 506.6800L1536.3400 506.6800Q1528.6400 506.6800 1522.5900 509.3200Q1516.5400 511.9600 1513.1300 516.6900Q1509.7200 521.4200 1509.7200 527.8000L1509.7200 527.8000Q1509.7200 534.1800 1513.1300 538.8000Q1516.5400 543.4200 1522.5900 546.0600Q1528.6400 548.7000 1536.3400 548.7000ZM1647.4400 640L1625.4400 640Q1623.2400 640 1621.7000 638.4600Q1620.1600 636.9200 1620.1600 634.7200L1620.1600 634.7200L1620.1600 612.9400Q1620.1600 610.5200 1621.7000 608.9800Q1623.2400 607.4400 1625.4400 607.4400L1625.4400 607.4400L1647.4400 607.4400Q1649.6400 607.4400 1651.1800 608.9800Q1652.7200 610.5200 1652.7200 612.9400L1652.7200 612.9400L1652.7200 634.7200Q1652.7200 636.9200 1651.1800 638.4600Q1649.6400 640 1647.4400 640L1647.4400 640ZM1732.3600 640L1712.3400 640Q1709.9200 640 1708.4900 638.4600Q1707.0600 636.9200 1707.0600 634.7200L1707.0600 634.7200L1707.0600 520.7600L1673.6200 546.5000Q1671.6400 547.8200 1669.6600 547.4900Q1667.6800 547.1600 1666.1400 545.1800L1666.1400 545.1800L1656.9000 533.3000Q1655.5800 531.3200 1655.9100 529.1200Q1656.2400 526.9200 1658.2200 525.6000L1658.2200 525.6000L1707.5000 487.5400Q1708.8200 486.4400 1710.1400 486.2200Q1711.4600 486 1713 486L1713 486L1732.3600 486Q1734.5600 486 1736.1000 487.5400Q1737.6400 489.0800 1737.6400 491.2800L1737.6400 491.2800L1737.6400 634.7200Q1737.6400 636.9200 1736.1000 638.4600Q1734.5600 640 1732.3600 640L1732.3600 640Z" id="lecture-full-number"/></g></svg>