<svg xmlns="http://www.w3.org/2000/svg" version="1.1" xmlns:xlink="http://www.w3.org/1999/xlink" xmlns:svgjs="http://svgjs.dev/svgjs" viewBox="0 0 1920 1080" id="741f87a6-12c5-45a4-8002-f415398959c6"><g><rect width="1920" height="1080" fill="#60993e"/></g><g fill="#4e5699"><path d="M745.478 668.096L1087.28 1009.97L1200.88 896.347L859.076 554.473L745.478 668.096Z"/><path d="M858.951 554.294L517.152 896.168L630.75 1009.79L972.549 667.917L858.951 554.294Z"/><path d="M289.239 668.391L631.038 1010.27L744.636 896.643L402.837 554.769L289.239 668.391Z"/><path d="M402.706 554L60.907 895.874L174.505 1009.5L516.304 667.623L402.706 554Z"/><path d="M-166 667.682L175.799 1009.56L289.397 895.933L-52.4021 554.059L-166 667.682Z"/></g><g fill="#ffffff" opacity="0.2"><path d="M1134 160C1540.91 160 1872 491.086 1872 898C1872 1304.91 1540.91 1636 1134 1636C727.086 1635.56 396 1304.91 396 898C396 491.086 727.086 160 1134 160ZM1134 1611.31C1527.25 1611.31 1847.31 1291.25 1847.31 898C1847.31 504.753 1527.25 184.247 1134 184.247C740.753 184.247 420.247 504.312 420.247 898C420.247 1291.69 740.312 1611.31 1134 1611.31Z"/><path d="M1134 251.699C1490.22 251.699 1780.3 541.785 1780.3 898C1780.3 1254.22 1490.22 1544.3 1134 1544.3C777.785 1544.3 487.699 1254.22 487.699 898C487.699 541.785 777.344 251.699 1134 251.699ZM1134 1519.61C1476.99 1519.61 1756.05 1240.55 1756.05 897.559C1756.05 554.57 1476.99 275.947 1134 275.947C791.011 275.947 511.946 555.011 511.946 898C511.946 1240.99 791.011 1519.61 1134 1519.61Z"/><path d="M1134 342.957C1439.96 342.957 1688.6 592.043 1688.6 897.559C1688.6 1203.52 1439.52 1452.16 1134 1452.16C828.043 1452.16 579.398 1203.08 579.398 897.559C578.957 592.043 828.043 342.957 1134 342.957ZM1134 1428.35C1426.29 1428.35 1664.35 1190.29 1664.35 898C1664.35 605.71 1426.29 367.645 1134 367.645C841.71 367.645 603.645 605.71 603.645 898C603.645 1190.29 841.269 1428.35 1134 1428.35Z"/><path d="M1134 434.656C1389.26 434.656 1597.34 642.301 1597.34 898C1597.34 1153.7 1389.7 1361.34 1134 1361.34C878.742 1361.34 670.656 1153.7 670.656 898C670.656 642.301 878.301 434.656 1134 434.656ZM1134 1336.66C1376.03 1336.66 1572.66 1139.59 1572.66 898C1572.66 656.408 1375.59 459.344 1134 459.344C891.968 459.344 695.344 656.408 695.344 898C695.344 1139.59 891.968 1336.66 1134 1336.66Z"/><path d="M1134 526.354C1339 526.354 1505.65 693 1505.65 898C1505.65 1103 1339 1269.64 1134 1269.64C929 1269.64 762.355 1103 762.355 898C762.355 693 929 526.354 1134 526.354ZM1134 1244.96C1325.33 1244.96 1481.4 1089.33 1481.4 897.559C1481.4 706.225 1325.77 550.161 1134 550.161C942.667 550.161 786.602 705.785 786.602 897.559C786.602 1089.33 942.226 1244.96 1134 1244.96Z"/><path d="M1134 617.613C1288.3 617.613 1414.39 743.258 1414.39 898C1414.39 1052.74 1288.74 1178.39 1134 1178.39C979.699 1178.39 853.613 1052.74 853.613 898C853.613 743.258 979.258 617.613 1134 617.613ZM1134 1153.7C1275.08 1153.7 1389.7 1039.08 1389.7 898C1389.7 756.925 1275.08 642.301 1134 642.301C992.925 642.301 878.301 756.925 878.301 898C878.301 1039.08 992.925 1153.7 1134 1153.7Z"/><path d="M1134 709.312C1238.04 709.312 1322.69 793.957 1322.69 898C1322.69 1002.04 1238.04 1086.69 1134 1086.69C1029.96 1086.69 945.312 1002.04 945.312 898C945.312 793.957 1029.96 709.312 1134 709.312ZM1134 1062C1224.38 1062 1298.44 988.377 1298.44 897.559C1298.44 807.183 1224.82 733.118 1134 733.118C1043.62 733.118 969.559 806.742 969.559 897.559C969.559 988.377 1043.18 1062 1134 1062Z"/><path d="M1134 800.57C1187.34 800.57 1230.99 844.215 1230.99 897.56C1230.99 950.904 1187.34 994.549 1134 994.549C1080.66 994.549 1037.01 950.904 1037.01 897.56C1036.57 844.215 1080.22 800.57 1134 800.57ZM1134 970.742C1174.12 970.742 1206.74 938.119 1206.74 898C1206.74 857.882 1174.12 825.258 1134 825.258C1093.88 825.258 1061.26 857.882 1061.26 898C1061.26 938.119 1093.88 970.742 1134 970.742Z"/></g><g><path d="M178.635 139.281L184.422 144.246V166.626H215.704L219.958 172.147L215.69 177.397H184.422V198.795L178.635 203.747L173 198.795V144.232L178.635 139.281ZM195.554 195.68H219.406L223.397 200.915L219.143 206.45H195.554L191.7 201.342L195.554 195.68ZM196.382 138H219.129L223.383 143.52L219.129 148.77H196.659L192.115 143.677L196.382 138ZM323.155 148.628L328.251 154.291L323.155 159.968H246.13L241.172 154.291L246.13 148.628H323.155ZM237.043 172.147L241.849 167.893L246.669 172.147V178.393C246.669 188.879 249.417 197.515 261.668 197.515H264.14C275.147 197.515 281.197 189.86 281.197 177.952V172.005L285.879 167.75L290.699 171.862V178.379C290.699 189.007 293.723 196.946 305.56 196.946H307.618C319.178 196.946 321.235 187.869 321.373 177.952V171.578L326.056 167.608L331 171.72V178.094C330.862 191.838 327.285 207.574 308.032 207.574H305.974C294.552 207.574 288.365 202.324 285.892 195.808C283.006 202.466 275.299 208.286 264.844 208.286H262.358C242.553 208.286 237.194 195.964 237.056 178.663V172.147H237.043ZM276.391 274.744L273.642 267.089L280.796 264.969L305.974 276.721V252.491L311.07 248.095L316.291 252.491V281.829L325.641 286.226L328.251 293.311L320.959 296L276.391 274.744ZM321.235 223.011L328.113 226.27L325.917 233.497L264.002 263.119L256.571 260.146L259.596 252.776L321.235 223.011ZM231.905 263.404L237.954 268.512C237.402 286.51 222.403 296 204.669 296H202.874C194.062 296 183.759 292.6 177.157 286.083L177.834 278.855L184.298 278.002C189.118 282.256 195.858 285.229 202.183 285.229H204.117C216.091 285.229 225.303 280.136 226.27 268.085L231.905 263.404ZM226.256 251.638C225.704 239.16 216.629 234.209 204.103 234.209H202.169C194.739 234.209 189.104 237.182 184.284 241.436L177.834 240.583L177.143 233.355C183.745 226.696 192.957 223.58 202.597 223.58H204.517C222.403 223.58 237.402 232.942 237.94 251.211L231.891 256.176L226.256 251.638Z" fill="#ffffff"/></g><path d="M1171 781L1171 339L1187 339L1187 781L1171 781Z" fill="#ffffff"/><g fill="#ffffff" id="info-group"><path d="M160.9800 600L153.1500 600Q152.4300 600 151.8450 599.4600Q151.2600 598.9200 151.2600 598.1100L151.2600 598.1100Q151.2600 597.7500 151.4400 597.3000L151.4400 597.3000L173.1300 539.2500Q173.4000 538.3500 174.1650 537.6750Q174.9300 537 176.2800 537L176.2800 537L186.0900 537Q187.4400 537 188.1600 537.6750Q188.8800 538.3500 189.2400 539.2500L189.2400 539.2500L210.9300 597.3000Q211.0200 597.7500 211.0200 598.1100L211.0200 598.1100Q211.0200 598.9200 210.4800 599.4600Q209.9400 600 209.2200 600L209.2200 600L201.3900 600Q200.1300 600 199.5450 599.4150Q198.9600 598.8300 198.7800 598.2900L198.7800 598.2900L194.5500 587.3100L167.8200 587.3100L163.5900 598.2900Q163.4100 598.8300 162.8250 599.4150Q162.2400 600 160.9800 600L160.9800 600ZM181.1400 549.1500L170.9700 576.9600L191.4000 576.9600L181.1400 549.1500ZM228.2100 617.1000L220.5600 617.1000Q219.6600 617.1000 219.0300 616.4700Q218.4000 615.8400 218.4000 614.9400L218.4000 614.9400L218.4000 555.3600Q218.4000 554.4600 219.0300 553.8300Q219.6600 553.2000 220.5600 553.2000L220.5600 553.2000L227.6700 553.2000Q228.6600 553.2000 229.2450 553.8300Q229.8300 554.4600 229.8300 555.3600L229.8300 555.3600L229.8300 558.9600Q231.9900 556.0800 235.5000 554.1900Q239.0100 552.3000 244.2300 552.3000L244.2300 552.3000Q249 552.3000 252.5100 553.8300Q256.0200 555.3600 258.3600 558.1950Q260.7000 561.0300 261.9600 564.9000Q263.2200 568.7700 263.4000 573.4500L263.4000 573.4500Q263.4900 574.9800 263.4900 576.6000Q263.4900 578.2200 263.4000 579.8400L263.4000 579.8400Q263.3100 584.3400 262.0500 588.1650Q260.7900 591.9900 258.4050 594.8250Q256.0200 597.6600 252.5100 599.2800Q249 600.9000 244.2300 600.9000L244.2300 600.9000Q239.3700 600.9000 235.9500 599.1450Q232.5300 597.3900 230.3700 594.5100L230.3700 594.5100L230.3700 614.9400Q230.3700 615.8400 229.7850 616.4700Q229.2000 617.1000 228.2100 617.1000L228.2100 617.1000ZM240.9000 591.2700L240.9000 591.2700Q244.7700 591.2700 246.9300 589.6050Q249.0900 587.9400 250.0800 585.2400Q251.0700 582.5400 251.2500 579.3000L251.2500 579.3000Q251.3400 576.6000 251.2500 573.9000L251.2500 573.9000Q251.0700 570.6600 250.0800 567.9600Q249.0900 565.2600 246.9300 563.5950Q244.7700 561.9300 240.9000 561.9300L240.9000 561.9300Q237.2100 561.9300 234.9150 563.6400Q232.6200 565.3500 231.5850 568.0050Q230.5500 570.6600 230.3700 573.4500L230.3700 573.4500Q230.2800 575.0700 230.2800 576.8700Q230.2800 578.6700 230.3700 580.3800L230.3700 580.3800Q230.4600 583.0800 231.6300 585.5550Q232.8000 588.0300 235.0500 589.6500Q237.3000 591.2700 240.9000 591.2700ZM283.5600 600L275.7300 600Q274.8300 600 274.2000 599.3700Q273.5700 598.7400 273.5700 597.8400L273.5700 597.8400L273.5700 555.4500Q273.5700 554.4600 274.2000 553.8300Q274.8300 553.2000 275.7300 553.2000L275.7300 553.2000L283.0200 553.2000Q283.9200 553.2000 284.5950 553.8300Q285.2700 554.4600 285.2700 555.4500L285.2700 555.4500L285.2700 559.1400Q287.3400 556.2600 290.6250 554.7300Q293.9100 553.2000 298.2300 553.2000L298.2300 553.2000L301.9200 553.2000Q302.9100 553.2000 303.4950 553.8300Q304.0800 554.4600 304.0800 555.3600L304.0800 555.3600L304.0800 561.8400Q304.0800 562.7400 303.4950 563.3700Q302.9100 564 301.9200 564L301.9200 564L294.9000 564Q290.5800 564 288.1950 566.3850Q285.8100 568.7700 285.8100 573.0900L285.8100 573.0900L285.8100 597.8400Q285.8100 598.7400 285.1800 599.3700Q284.5500 600 283.5600 600L283.5600 600ZM331.2600 600.9000L331.2600 600.9000Q321.2700 600.9000 315.4200 595.1400Q309.5700 589.3800 309.1200 578.7600L309.1200 578.7600Q309.0300 577.8600 309.0300 576.4650Q309.0300 575.0700 309.1200 574.2600L309.1200 574.2600Q309.4800 567.4200 312.2250 562.5150Q314.9700 557.6100 319.8300 554.9550Q324.6900 552.3000 331.2600 552.3000L331.2600 552.3000Q338.5500 552.3000 343.5000 555.3150Q348.4500 558.3300 350.9700 563.6850Q353.4900 569.0400 353.4900 576.0600L353.4900 576.0600L353.4900 577.9500Q353.4900 578.8500 352.8600 579.4800Q352.2300 580.1100 351.2400 580.1100L351.2400 580.1100L321.3600 580.1100Q321.3600 580.1100 321.3600 580.3800Q321.3600 580.6500 321.3600 580.8300L321.3600 580.8300Q321.4500 583.9800 322.5750 586.6350Q323.7000 589.2900 325.9050 590.9100Q328.1100 592.5300 331.1700 592.5300L331.1700 592.5300Q333.6900 592.5300 335.4000 591.7650Q337.1100 591 338.1900 590.0100Q339.2700 589.0200 339.7200 588.3900L339.7200 588.3900Q340.5300 587.3100 341.0250 587.0850Q341.5200 586.8600 342.5100 586.8600L342.5100 586.8600L350.2500 586.8600Q351.1500 586.8600 351.7350 587.4000Q352.3200 587.9400 352.2300 588.7500L352.2300 588.7500Q352.1400 590.1900 350.7450 592.2600Q349.3500 594.3300 346.7400 596.3100Q344.1300 598.2900 340.2150 599.5950Q336.3000 600.9000 331.2600 600.9000ZM321.3600 572.2800L321.3600 572.5500L341.2500 572.5500L341.2500 572.2800Q341.2500 568.7700 340.0800 566.1150Q338.9100 563.4600 336.6600 561.9750Q334.4100 560.4900 331.2600 560.4900L331.2600 560.4900Q328.1100 560.4900 325.8600 561.9750Q323.6100 563.4600 322.4850 566.1150Q321.3600 568.7700 321.3600 572.2800L321.3600 572.2800ZM380.7600 600.9000L380.7600 600.9000Q375.3600 600.9000 371.5350 599.6400Q367.7100 598.3800 365.2800 596.4900Q362.8500 594.6000 361.6800 592.7100Q360.5100 590.8200 360.4200 589.5600L360.4200 589.5600Q360.3300 588.5700 361.0050 587.9850Q361.6800 587.4000 362.4900 587.4000L362.4900 587.4000L369.6000 587.4000Q369.9600 587.4000 370.2300 587.4900Q370.5000 587.5800 370.9500 588.0300L370.9500 588.0300Q372.1200 589.0200 373.4250 590.1000Q374.7300 591.1800 376.5300 591.9450Q378.3300 592.7100 381.0300 592.7100L381.0300 592.7100Q384.5400 592.7100 386.9250 591.3150Q389.3100 589.9200 389.3100 587.3100L389.3100 587.3100Q389.3100 585.4200 388.2750 584.2500Q387.2400 583.0800 384.4500 582.1350Q381.6600 581.1900 376.5300 580.1100L376.5300 580.1100Q371.4900 578.9400 368.1600 577.1400Q364.8300 575.3400 363.2100 572.6400Q361.5900 569.9400 361.5900 566.3400L361.5900 566.3400Q361.5900 562.8300 363.7050 559.6350Q365.8200 556.4400 370.0050 554.3700Q374.1900 552.3000 380.4000 552.3000L380.4000 552.3000Q385.2600 552.3000 388.8600 553.5150Q392.4600 554.7300 394.8450 556.5300Q397.2300 558.3300 398.4900 560.1750Q399.7500 562.0200 399.8400 563.3700L399.8400 563.3700Q399.9300 564.3600 399.3000 564.9450Q398.6700 565.5300 397.8600 565.5300L397.8600 565.5300L391.2000 565.5300Q390.7500 565.5300 390.3900 565.3500Q390.0300 565.1700 389.6700 564.9000L389.6700 564.9000Q388.6800 564 387.5100 562.9650Q386.3400 561.9300 384.6750 561.2100Q383.0100 560.4900 380.3100 560.4900L380.3100 560.4900Q376.8900 560.4900 375.0900 561.9750Q373.2900 563.4600 373.2900 565.7100L373.2900 565.7100Q373.2900 567.2400 374.1450 568.3650Q375 569.4900 377.6100 570.4800Q380.2200 571.4700 385.5300 572.5500L385.5300 572.5500Q391.5600 573.6300 395.1150 575.7450Q398.6700 577.8600 400.1550 580.6050Q401.6400 583.3500 401.6400 586.6800L401.6400 586.6800Q401.6400 590.7300 399.2550 593.9700Q396.8700 597.2100 392.2350 599.0550Q387.6000 600.9000 380.7600 600.9000ZM431.0700 600.9000L431.0700 600.9000Q421.0800 600.9000 415.2300 595.1400Q409.3800 589.3800 408.9300 578.7600L408.9300 578.7600Q408.8400 577.8600 408.8400 576.4650Q408.8400 575.0700 408.9300 574.2600L408.9300 574.2600Q409.2900 567.4200 412.0350 562.5150Q414.7800 557.6100 419.6400 554.9550Q424.5000 552.3000 431.0700 552.3000L431.0700 552.3000Q438.3600 552.3000 443.3100 555.3150Q448.2600 558.3300 450.7800 563.6850Q453.3000 569.0400 453.3000 576.0600L453.3000 576.0600L453.3000 577.9500Q453.3000 578.8500 452.6700 579.4800Q452.0400 580.1100 451.0500 580.1100L451.0500 580.1100L421.1700 580.1100Q421.1700 580.1100 421.1700 580.3800Q421.1700 580.6500 421.1700 580.8300L421.1700 580.8300Q421.2600 583.9800 422.3850 586.6350Q423.5100 589.2900 425.7150 590.9100Q427.9200 592.5300 430.9800 592.5300L430.9800 592.5300Q433.5000 592.5300 435.2100 591.7650Q436.9200 591 438 590.0100Q439.0800 589.0200 439.5300 588.3900L439.5300 588.3900Q440.3400 587.3100 440.8350 587.0850Q441.3300 586.8600 442.3200 586.8600L442.3200 586.8600L450.0600 586.8600Q450.9600 586.8600 451.5450 587.4000Q452.1300 587.9400 452.0400 588.7500L452.0400 588.7500Q451.9500 590.1900 450.5550 592.2600Q449.1600 594.3300 446.5500 596.3100Q443.9400 598.2900 440.0250 599.5950Q436.1100 600.9000 431.0700 600.9000ZM421.1700 572.2800L421.1700 572.5500L441.0600 572.5500L441.0600 572.2800Q441.0600 568.7700 439.8900 566.1150Q438.7200 563.4600 436.4700 561.9750Q434.2200 560.4900 431.0700 560.4900L431.0700 560.4900Q427.9200 560.4900 425.6700 561.9750Q423.4200 563.4600 422.2950 566.1150Q421.1700 568.7700 421.1700 572.2800L421.1700 572.2800ZM472.9200 600L465 600Q464.1000 600 463.4700 599.3700Q462.8400 598.7400 462.8400 597.8400L462.8400 597.8400L462.8400 555.3600Q462.8400 554.4600 463.4700 553.8300Q464.1000 553.2000 465 553.2000L465 553.2000L472.3800 553.2000Q473.2800 553.2000 473.9100 553.8300Q474.5400 554.4600 474.5400 555.3600L474.5400 555.3600L474.5400 559.0500Q476.8800 556.1700 480.5250 554.2350Q484.1700 552.3000 489.5700 552.3000L489.5700 552.3000Q495.0600 552.3000 499.1100 554.7750Q503.1600 557.2500 505.3650 561.7500Q507.5700 566.2500 507.5700 572.5500L507.5700 572.5500L507.5700 597.8400Q507.5700 598.7400 506.9400 599.3700Q506.3100 600 505.4100 600L505.4100 600L497.4900 600Q496.5900 600 495.9600 599.3700Q495.3300 598.7400 495.3300 597.8400L495.3300 597.8400L495.3300 573.0900Q495.3300 567.8700 492.7650 564.9000Q490.2000 561.9300 485.3400 561.9300L485.3400 561.9300Q480.6600 561.9300 477.8700 564.9000Q475.0800 567.8700 475.0800 573.0900L475.0800 573.0900L475.0800 597.8400Q475.0800 598.7400 474.4500 599.3700Q473.8200 600 472.9200 600L472.9200 600ZM547.4400 600L540.1500 600Q534.7500 600 531.0600 598.1100Q527.3700 596.2200 525.5700 592.4850Q523.7700 588.7500 523.7700 583.1700L523.7700 583.1700L523.7700 562.7400L516.6600 562.7400Q515.7600 562.7400 515.1300 562.1100Q514.5000 561.4800 514.5000 560.4900L514.5000 560.4900L514.5000 555.3600Q514.5000 554.4600 515.1300 553.8300Q515.7600 553.2000 516.6600 553.2000L516.6600 553.2000L523.7700 553.2000L523.7700 538.2600Q523.7700 537.3600 524.3550 536.7300Q524.9400 536.1000 525.9300 536.1000L525.9300 536.1000L533.2200 536.1000Q534.1200 536.1000 534.7500 536.7300Q535.3800 537.3600 535.3800 538.2600L535.3800 538.2600L535.3800 553.2000L546.6300 553.2000Q547.5300 553.2000 548.1600 553.8300Q548.7900 554.4600 548.7900 555.3600L548.7900 555.3600L548.7900 560.4900Q548.7900 561.4800 548.1600 562.1100Q547.5300 562.7400 546.6300 562.7400L546.6300 562.7400L535.3800 562.7400L535.3800 582.2700Q535.3800 585.9600 536.6850 588.0300Q537.9900 590.1000 541.2300 590.1000L541.2300 590.1000L547.4400 590.1000Q548.3400 590.1000 548.9700 590.7300Q549.6000 591.3600 549.6000 592.2600L549.6000 592.2600L549.6000 597.8400Q549.6000 598.7400 548.9700 599.3700Q548.3400 600 547.4400 600L547.4400 600ZM571.2000 600.9000L571.2000 600.9000Q566.5200 600.9000 562.7400 599.0550Q558.9600 597.2100 556.7550 594.1050Q554.5500 591 554.5500 587.1300L554.5500 587.1300Q554.5500 580.8300 559.6800 577.0950Q564.8100 573.3600 573.0900 572.1000L573.0900 572.1000L585.4200 570.3000L585.4200 568.4100Q585.4200 564.6300 583.5300 562.5600Q581.6400 560.4900 577.0500 560.4900L577.0500 560.4900Q573.8100 560.4900 571.7850 561.7950Q569.7600 563.1000 568.7700 565.2600L568.7700 565.2600Q568.0500 566.4300 566.7000 566.4300L566.7000 566.4300L559.5900 566.4300Q558.6000 566.4300 558.1050 565.8900Q557.6100 565.3500 557.6100 564.4500L557.6100 564.4500Q557.7000 563.0100 558.8250 560.9400Q559.9500 558.8700 562.2450 556.9350Q564.5400 555 568.2300 553.6500Q571.9200 552.3000 577.1400 552.3000L577.1400 552.3000Q582.8100 552.3000 586.7250 553.6950Q590.6400 555.0900 592.9800 557.4300Q595.3200 559.7700 596.4000 562.9200Q597.4800 566.0700 597.4800 569.5800L597.4800 569.5800L597.4800 597.8400Q597.4800 598.7400 596.8500 599.3700Q596.2200 600 595.3200 600L595.3200 600L588.0300 600Q587.0400 600 586.4550 599.3700Q585.8700 598.7400 585.8700 597.8400L585.8700 597.8400L585.8700 594.3300Q584.7000 595.9500 582.7200 597.4800Q580.7400 599.0100 577.9050 599.9550Q575.0700 600.9000 571.2000 600.9000ZM574.2600 592.3500L574.2600 592.3500Q577.4100 592.3500 579.9750 591Q582.5400 589.6500 584.0250 586.8150Q585.5100 583.9800 585.5100 579.6600L585.5100 579.6600L585.5100 577.7700L576.5100 579.2100Q571.2000 580.0200 568.5900 581.8200Q565.9800 583.6200 565.9800 586.2300L565.9800 586.2300Q565.9800 588.2100 567.1950 589.6050Q568.4100 591 570.3000 591.6750Q572.1900 592.3500 574.2600 592.3500ZM629.1600 619.8000L629.1600 619.8000Q626.6400 619.7100 624.7050 618.9000Q622.7700 618.0900 621.9150 617.0100Q621.0600 615.9300 621.9600 615.2100L621.9600 615.2100L623.4900 613.8600Q624.3000 613.1400 624.8850 613.4550Q625.4700 613.7700 626.4150 614.3550Q627.3600 614.9400 629.1600 614.9400L629.1600 614.9400Q630.5100 614.9400 631.5000 614.0850Q632.4900 613.2300 632.4900 611.8800L632.4900 611.8800Q632.4900 610.6200 631.5450 609.8100Q630.6000 609 629.1600 609L629.1600 609Q627.9000 609 627 609.3150Q626.1000 609.6300 625.3800 609.7650Q624.6600 609.9000 623.9400 609.1800L623.9400 609.1800L622.3200 607.5600Q621.7800 606.9300 621.9600 606.2550Q622.1400 605.5800 622.5000 604.7700L622.5000 604.7700L624.3900 600.4500Q616.6500 599.2800 612.0600 594.0150Q607.4700 588.7500 607.2000 580.2000L607.2000 580.2000Q607.1100 578.8500 607.1100 576.6450Q607.1100 574.4400 607.2000 573L607.2000 573Q607.4700 566.4300 610.2150 561.7950Q612.9600 557.1600 617.8650 554.7300Q622.7700 552.3000 629.2500 552.3000L629.2500 552.3000Q635.0100 552.3000 639.0600 553.8750Q643.1100 555.4500 645.7200 557.9250Q648.3300 560.4000 649.6350 563.0550Q650.9400 565.7100 651.0300 567.8700L651.0300 567.8700Q651.1200 568.8600 650.4450 569.4450Q649.7700 570.0300 648.8700 570.0300L648.8700 570.0300L640.9500 570.0300Q640.0500 570.0300 639.5550 569.5800Q639.0600 569.1300 638.6100 568.2300L638.6100 568.2300Q637.2600 564.6300 635.0550 563.1450Q632.8500 561.6600 629.4300 561.6600L629.4300 561.6600Q624.9300 561.6600 622.2750 564.4950Q619.6200 567.3300 619.4400 573.4500L619.4400 573.4500Q619.2600 576.8700 619.4400 579.7500L619.4400 579.7500Q619.6200 585.9600 622.2750 588.7500Q624.9300 591.5400 629.4300 591.5400L629.4300 591.5400Q632.9400 591.5400 635.1000 590.0550Q637.2600 588.5700 638.6100 584.9700L638.6100 584.9700Q639.0600 584.0700 639.5550 583.6200Q640.0500 583.1700 640.9500 583.1700L640.9500 583.1700L648.8700 583.1700Q649.7700 583.1700 650.4450 583.7550Q651.1200 584.3400 651.0300 585.3300L651.0300 585.3300Q650.9400 587.3100 649.6800 589.9650Q648.4200 592.6200 645.9000 595.0950Q643.3800 597.5700 639.3300 599.2350Q635.2800 600.9000 629.5200 600.9000L629.5200 600.9000L627.6300 604.7700Q628.1700 604.5000 629.1150 604.3200Q630.0600 604.1400 630.7800 604.1400L630.7800 604.1400Q633.9300 604.1400 635.8650 606.3000Q637.8000 608.4600 637.8000 611.7900L637.8000 611.7900Q637.8000 615.2100 635.5500 617.5500Q633.3000 619.8900 629.1600 619.8000ZM673.9800 600.9000L673.9800 600.9000Q669.3000 600.9000 665.5200 599.0550Q661.7400 597.2100 659.5350 594.1050Q657.3300 591 657.3300 587.1300L657.3300 587.1300Q657.3300 580.8300 662.4600 577.0950Q667.5900 573.3600 675.8700 572.1000L675.8700 572.1000L688.2000 570.3000L688.2000 568.4100Q688.2000 564.6300 686.3100 562.5600Q684.4200 560.4900 679.8300 560.4900L679.8300 560.4900Q676.5900 560.4900 674.5650 561.7950Q672.5400 563.1000 671.5500 565.2600L671.5500 565.2600Q670.8300 566.4300 669.4800 566.4300L669.4800 566.4300L662.3700 566.4300Q661.3800 566.4300 660.8850 565.8900Q660.3900 565.3500 660.3900 564.4500L660.3900 564.4500Q660.4800 563.0100 661.6050 560.9400Q662.7300 558.8700 665.0250 556.9350Q667.3200 555 671.0100 553.6500Q674.7000 552.3000 679.9200 552.3000L679.9200 552.3000Q685.5900 552.3000 689.5050 553.6950Q693.4200 555.0900 695.7600 557.4300Q698.1000 559.7700 699.1800 562.9200Q700.2600 566.0700 700.2600 569.5800L700.2600 569.5800L700.2600 597.8400Q700.2600 598.7400 699.6300 599.3700Q699.0000 600 698.1000 600L698.1000 600L690.8100 600Q689.8200 600 689.2350 599.3700Q688.6500 598.7400 688.6500 597.8400L688.6500 597.8400L688.6500 594.3300Q687.4800 595.9500 685.5000 597.4800Q683.5200 599.0100 680.6850 599.9550Q677.8500 600.9000 673.9800 600.9000ZM677.0400 592.3500L677.0400 592.3500Q680.1900 592.3500 682.7550 591Q685.3200 589.6500 686.8050 586.8150Q688.2900 583.9800 688.2900 579.6600L688.2900 579.6600L688.2900 577.7700L679.2900 579.2100Q673.9800 580.0200 671.3700 581.8200Q668.7600 583.6200 668.7600 586.2300L668.7600 586.2300Q668.7600 588.2100 669.9750 589.6050Q671.1900 591 673.0800 591.6750Q674.9700 592.3500 677.0400 592.3500ZM684.8700 546.9000L684.8700 546.9000Q682.5300 546.9000 681.0900 546.1350Q679.6500 545.3700 678.4350 544.5600Q677.2200 543.7500 675.7800 543.7500L675.7800 543.7500Q674.6100 543.7500 674.1150 544.4250Q673.6200 545.1000 673.1700 545.7750Q672.7200 546.4500 671.7300 546.4500L671.7300 546.4500L667.5900 546.4500Q666.9600 546.4500 666.5100 546Q666.0600 545.5500 666.0600 544.9200L666.0600 544.9200Q666.0600 543.5700 666.5550 541.9050Q667.0500 540.2400 668.1300 538.7100Q669.2100 537.1800 670.8750 536.2350Q672.5400 535.2900 674.7900 535.2900L674.7900 535.2900Q677.2200 535.2900 678.6600 536.0550Q680.1000 536.8200 681.3150 537.6300Q682.5300 538.4400 683.9700 538.4400L683.9700 538.4400Q685.1400 538.4400 685.6350 537.7200Q686.1300 537 686.5800 536.3250Q687.0300 535.6500 688.0200 535.6500L688.0200 535.6500L692.1600 535.6500Q692.8800 535.6500 693.2850 536.1450Q693.6900 536.6400 693.6900 537.2700L693.6900 537.2700Q693.6900 538.6200 693.1950 540.2850Q692.7000 541.9500 691.6200 543.4800Q690.5400 545.0100 688.8750 545.9550Q687.2100 546.9000 684.8700 546.9000ZM732.4800 600.9000L732.4800 600.9000Q725.2800 600.9000 720.3750 598.3800Q715.4700 595.8600 712.9050 591.2700Q710.3400 586.6800 709.9800 580.5600L709.9800 580.5600Q709.8900 578.9400 709.8900 576.6000Q709.8900 574.2600 709.9800 572.6400L709.9800 572.6400Q710.3400 566.4300 712.9950 561.8850Q715.6500 557.3400 720.5550 554.8200Q725.4600 552.3000 732.4800 552.3000L732.4800 552.3000Q739.5000 552.3000 744.4050 554.8200Q749.3100 557.3400 751.9650 561.8850Q754.6200 566.4300 754.9800 572.6400L754.9800 572.6400Q755.0700 574.2600 755.0700 576.6000Q755.0700 578.9400 754.9800 580.5600L754.9800 580.5600Q754.6200 586.6800 752.0550 591.2700Q749.4900 595.8600 744.5850 598.3800Q739.6800 600.9000 732.4800 600.9000ZM732.4800 591.9900L732.4800 591.9900Q737.2500 591.9900 739.8600 588.9750Q742.4700 585.9600 742.7400 580.1100L742.7400 580.1100Q742.8300 578.7600 742.8300 576.6000Q742.8300 574.4400 742.7400 573.0900L742.7400 573.0900Q742.4700 567.2400 739.8600 564.2250Q737.2500 561.2100 732.4800 561.2100L732.4800 561.2100Q727.7100 561.2100 725.1000 564.2250Q722.4900 567.2400 722.2200 573.0900L722.2200 573.0900Q722.1300 574.4400 722.1300 576.6000Q722.1300 578.7600 722.2200 580.1100L722.2200 580.1100Q722.4900 585.9600 725.1000 588.9750Q727.7100 591.9900 732.4800 591.9900Z" id="title"/><path d="M1438.7200 652.4000L1438.7200 652.4000Q1421.6800 652.4000 1409.6800 647.3600Q1397.6800 642.3200 1390 633.4400Q1382.3200 624.5600 1378.4800 612.9200Q1374.6400 601.2800 1373.9200 588.0800L1373.9200 588.0800Q1373.6800 581.6000 1373.5600 573.8000Q1373.4400 566 1373.5600 558.0800Q1373.6800 550.1600 1373.9200 543.4400L1373.9200 543.4400Q1374.4000 530.2400 1378.4800 518.6000Q1382.5600 506.9600 1390.3600 498.3200Q1398.1600 489.6800 1410.1600 484.6400Q1422.1600 479.6000 1438.7200 479.6000L1438.7200 479.6000Q1455.5200 479.6000 1467.5200 484.6400Q1479.5200 489.6800 1487.3200 498.3200Q1495.1200 506.9600 1499.0800 518.6000Q1503.0400 530.2400 1503.5200 543.4400L1503.5200 543.4400Q1504 550.1600 1504 558.0800Q1504 566 1504 573.8000Q1504 581.6000 1503.5200 588.0800L1503.5200 588.0800Q1503.0400 601.2800 1499.2000 612.9200Q1495.3600 624.5600 1487.6800 633.4400Q1480 642.3200 1467.8800 647.3600Q1455.7600 652.4000 1438.7200 652.4000ZM1438.7200 624.8000L1438.7200 624.8000Q1454.3200 624.8000 1461.6400 614.6000Q1468.9600 604.4000 1469.2000 586.8800L1469.2000 586.8800Q1469.6800 579.9200 1469.6800 572.8400Q1469.6800 565.7600 1469.6800 558.5600Q1469.6800 551.3600 1469.2000 544.8800L1469.2000 544.8800Q1468.9600 527.8400 1461.6400 517.4000Q1454.3200 506.9600 1438.7200 506.9600L1438.7200 506.9600Q1423.3600 506.9600 1416.0400 517.4000Q1408.7200 527.8400 1408.2400 544.8800L1408.2400 544.8800Q1408.2400 551.3600 1408.1200 558.5600Q1408 565.7600 1408.1200 572.8400Q1408.2400 579.9200 1408.2400 586.8800L1408.2400 586.8800Q1408.7200 604.4000 1416.1600 614.6000Q1423.6000 624.8000 1438.7200 624.8000ZM1559.2000 650L1535.2000 650Q1532.8000 650 1531.1200 648.3200Q1529.4400 646.6400 1529.4400 644.2400L1529.4400 644.2400L1529.4400 620.4800Q1529.4400 617.8400 1531.1200 616.1600Q1532.8000 614.4800 1535.2000 614.4800L1535.2000 614.4800L1559.2000 614.4800Q1561.6000 614.4800 1563.2800 616.1600Q1564.9600 617.8400 1564.9600 620.4800L1564.9600 620.4800L1564.9600 644.2400Q1564.9600 646.6400 1563.2800 648.3200Q1561.6000 650 1559.2000 650L1559.2000 650ZM1655.4400 652.4000L1655.4400 652.4000Q1638.4000 652.4000 1626.4000 647.3600Q1614.4000 642.3200 1606.7200 633.4400Q1599.0400 624.5600 1595.2000 612.9200Q1591.3600 601.2800 1590.6400 588.0800L1590.6400 588.0800Q1590.4000 581.6000 1590.2800 573.8000Q1590.1600 566 1590.2800 558.0800Q1590.4000 550.1600 1590.6400 543.4400L1590.6400 543.4400Q1591.1200 530.2400 1595.2000 518.6000Q1599.2800 506.9600 1607.0800 498.3200Q1614.8800 489.6800 1626.8800 484.6400Q1638.8800 479.6000 1655.4400 479.6000L1655.4400 479.6000Q1672.2400 479.6000 1684.2400 484.6400Q1696.2400 489.6800 1704.0400 498.3200Q1711.8400 506.9600 1715.8000 518.6000Q1719.7600 530.2400 1720.2400 543.4400L1720.2400 543.4400Q1720.7200 550.1600 1720.7200 558.0800Q1720.7200 566 1720.7200 573.8000Q1720.7200 581.6000 1720.2400 588.0800L1720.2400 588.0800Q1719.7600 601.2800 1715.9200 612.9200Q1712.0800 624.5600 1704.4000 633.4400Q1696.7200 642.3200 1684.6000 647.3600Q1672.4800 652.4000 1655.4400 652.4000ZM1655.4400 624.8000L1655.4400 624.8000Q1671.0400 624.8000 1678.3600 614.6000Q1685.6800 604.4000 1685.9200 586.8800L1685.9200 586.8800Q1686.4000 579.9200 1686.4000 572.8400Q1686.4000 565.7600 1686.4000 558.5600Q1686.4000 551.3600 1685.9200 544.8800L1685.9200 544.8800Q1685.6800 527.8400 1678.3600 517.4000Q1671.0400 506.9600 1655.4400 506.9600L1655.4400 506.9600Q1640.0800 506.9600 1632.7600 517.4000Q1625.4400 527.8400 1624.9600 544.8800L1624.9600 544.8800Q1624.9600 551.3600 1624.8400 558.5600Q1624.7200 565.7600 1624.8400 572.8400Q1624.9600 579.9200 1624.9600 586.8800L1624.9600 586.8800Q1625.4400 604.4000 1632.8800 614.6000Q1640.3200 624.8000 1655.4400 624.8000Z" id="lecture-full-number"/></g></svg>