<svg xmlns="http://www.w3.org/2000/svg" version="1.1" xmlns:xlink="http://www.w3.org/1999/xlink" xmlns:svgjs="http://svgjs.dev/svgjs" viewBox="0 0 1920 1080" id="08a28204-c6ca-4214-a9da-d233df73d21a"><g><rect width="1920" height="1080" fill="#50b2c0"/></g><g fill="#e35f79"><path d="M865 270L865 2467C258.907 2467 -232 1976.03 -232 1369.87C-232 760.965 258.907 270 865 270Z"/></g><g fill="#ffffff" opacity="0.2"><path d="M1829.66 1149.02C1826.52 1125.1 1822.11 1101.18 1817.7 1077.89L1577.22 1318.37H1660.32L1829.66 1149.02Z"/><path d="M1798.82 998.567C1793.15 977.163 1786.23 955.759 1779.3 934.984L1395.92 1319H1479.02L1798.82 998.567Z"/><path d="M1752.86 863.214C1744.68 843.698 1736.5 824.183 1727.68 805.297L1214.61 1319H1297.71L1752.86 863.214Z"/><path d="M1694.32 739.83C1684.88 722.203 1674.17 704.576 1664.1 686.949L1147.89 1203.8C1152.92 1227.72 1156.7 1251.64 1158.59 1276.19L1694.32 739.83Z"/><path d="M1625.07 627.77C1613.73 611.402 1601.77 595.664 1589.81 579.926L1098.78 1071.59C1108.22 1089.85 1117.03 1109.36 1124.59 1128.88L1625.07 627.77Z"/><path d="M1546.38 525.789C1533.79 510.68 1520.57 496.201 1506.72 482.352L1025.12 964.574C1038.35 979.053 1050.31 994.791 1061.64 1011.16L1546.38 525.789Z"/><path d="M1457.61 433.249C1443.13 420.029 1428.65 406.809 1413.54 394.219L928.802 879.589C945.17 890.92 960.908 902.881 975.387 916.101L1457.61 433.249Z"/><path d="M1358.78 350.148C1343.04 338.187 1326.67 326.855 1310.3 315.523L808.564 817.891C828.709 825.445 847.595 833.629 866.481 843.072L1358.78 350.148Z"/><path d="M1251.12 276.495C1233.5 265.793 1215.87 255.72 1198.24 246.277L659.364 785.787C684.545 787.046 709.097 790.194 733.019 795.23L1251.12 276.495Z"/><path d="M1132.14 214.166C1113.26 205.352 1093.74 197.168 1074.23 188.984L626.627 637.212V720.31L1132.14 214.166Z"/><path d="M1001.83 163.175C980.427 156.25 959.023 149.955 937.619 144.289L626 455.908V539.006L1001.83 163.175Z"/><path d="M857.666 126.035C834.373 121.628 810.451 117.851 786.529 114.074L626.627 274.605V357.703L857.666 126.035Z"/><path d="M626.626 176.396L697.134 105.889C673.841 104.629 650.548 104 626.626 104V176.396Z"/></g><g><path d="M178.635 139.281L184.422 144.246V166.626H215.704L219.958 172.147L215.69 177.397H184.422V198.795L178.635 203.747L173 198.795V144.232L178.635 139.281ZM195.554 195.68H219.406L223.397 200.915L219.143 206.45H195.554L191.7 201.342L195.554 195.68ZM196.382 138H219.129L223.383 143.52L219.129 148.77H196.659L192.115 143.677L196.382 138ZM323.155 148.628L328.251 154.291L323.155 159.968H246.13L241.172 154.291L246.13 148.628H323.155ZM237.043 172.147L241.849 167.893L246.669 172.147V178.393C246.669 188.879 249.417 197.515 261.668 197.515H264.14C275.147 197.515 281.197 189.86 281.197 177.952V172.005L285.879 167.75L290.699 171.862V178.379C290.699 189.007 293.723 196.946 305.56 196.946H307.618C319.178 196.946 321.235 187.869 321.373 177.952V171.578L326.056 167.608L331 171.72V178.094C330.862 191.838 327.285 207.574 308.032 207.574H305.974C294.552 207.574 288.365 202.324 285.892 195.808C283.006 202.466 275.299 208.286 264.844 208.286H262.358C242.553 208.286 237.194 195.964 237.056 178.663V172.147H237.043ZM276.391 274.744L273.642 267.089L280.796 264.969L305.974 276.721V252.491L311.07 248.095L316.291 252.491V281.829L325.641 286.226L328.251 293.311L320.959 296L276.391 274.744ZM321.235 223.011L328.113 226.27L325.917 233.497L264.002 263.119L256.571 260.146L259.596 252.776L321.235 223.011ZM231.905 263.404L237.954 268.512C237.402 286.51 222.403 296 204.669 296H202.874C194.062 296 183.759 292.6 177.157 286.083L177.834 278.855L184.298 278.002C189.118 282.256 195.858 285.229 202.183 285.229H204.117C216.091 285.229 225.303 280.136 226.27 268.085L231.905 263.404ZM226.256 251.638C225.704 239.16 216.629 234.209 204.103 234.209H202.169C194.739 234.209 189.104 237.182 184.284 241.436L177.834 240.583L177.143 233.355C183.745 226.696 192.957 223.58 202.597 223.58H204.517C222.403 223.58 237.402 232.942 237.94 251.211L231.891 256.176L226.256 251.638Z" fill="#ffffff"/></g><path d="M1171 781L1171 339L1187 339L1187 781L1171 781Z" fill="#ffffff"/><g fill="#ffffff" id="info-group"><path d="M181.3200 600.9000L181.3200 600.9000Q172.9500 600.9000 167.1450 597.9750Q161.3400 595.0500 158.2800 589.6050Q155.2200 584.1600 154.8600 576.5100L154.8600 576.5100Q154.7700 572.8200 154.7700 568.5900Q154.7700 564.3600 154.8600 560.4900L154.8600 560.4900Q155.2200 552.9300 158.3250 547.4400Q161.4300 541.9500 167.2350 539.0250Q173.0400 536.1000 181.3200 536.1000L181.3200 536.1000Q187.4400 536.1000 192.3000 537.7200Q197.1600 539.3400 200.5800 542.1750Q204 545.0100 205.8900 548.7900Q207.7800 552.5700 207.8700 556.9800L207.8700 556.9800Q207.9600 557.7900 207.3750 558.3300Q206.7900 558.8700 205.9800 558.8700L205.9800 558.8700L197.4300 558.8700Q196.4400 558.8700 195.8100 558.3750Q195.1800 557.8800 194.9100 556.7100L194.9100 556.7100Q193.4700 550.7700 189.9600 548.6100Q186.4500 546.4500 181.2300 546.4500L181.2300 546.4500Q175.2000 546.4500 171.6000 549.8250Q168 553.2000 167.7300 560.9400L167.7300 560.9400Q167.4600 568.3200 167.7300 576.0600L167.7300 576.0600Q168 583.8000 171.6000 587.1750Q175.2000 590.5500 181.2300 590.5500L181.2300 590.5500Q186.4500 590.5500 190.0050 588.3450Q193.5600 586.1400 194.9100 580.2900L194.9100 580.2900Q195.1800 579.0300 195.8100 578.5800Q196.4400 578.1300 197.4300 578.1300L197.4300 578.1300L205.9800 578.1300Q206.7900 578.1300 207.3750 578.6700Q207.9600 579.2100 207.8700 580.0200L207.8700 580.0200Q207.7800 584.4300 205.8900 588.2100Q204 591.9900 200.5800 594.8250Q197.1600 597.6600 192.3000 599.2800Q187.4400 600.9000 181.3200 600.9000ZM238.2000 600.9000L238.2000 600.9000Q231 600.9000 226.0950 598.3800Q221.1900 595.8600 218.6250 591.2700Q216.0600 586.6800 215.7000 580.5600L215.7000 580.5600Q215.6100 578.9400 215.6100 576.6000Q215.6100 574.2600 215.7000 572.6400L215.7000 572.6400Q216.0600 566.4300 218.7150 561.8850Q221.3700 557.3400 226.2750 554.8200Q231.1800 552.3000 238.2000 552.3000L238.2000 552.3000Q245.2200 552.3000 250.1250 554.8200Q255.0300 557.3400 257.6850 561.8850Q260.3400 566.4300 260.7000 572.6400L260.7000 572.6400Q260.7900 574.2600 260.7900 576.6000Q260.7900 578.9400 260.7000 580.5600L260.7000 580.5600Q260.3400 586.6800 257.7750 591.2700Q255.2100 595.8600 250.3050 598.3800Q245.4000 600.9000 238.2000 600.9000ZM238.2000 591.9900L238.2000 591.9900Q242.9700 591.9900 245.5800 588.9750Q248.1900 585.9600 248.4600 580.1100L248.4600 580.1100Q248.5500 578.7600 248.5500 576.6000Q248.5500 574.4400 248.4600 573.0900L248.4600 573.0900Q248.1900 567.2400 245.5800 564.2250Q242.9700 561.2100 238.2000 561.2100L238.2000 561.2100Q233.4300 561.2100 230.8200 564.2250Q228.2100 567.2400 227.9400 573.0900L227.9400 573.0900Q227.8500 574.4400 227.8500 576.6000Q227.8500 578.7600 227.9400 580.1100L227.9400 580.1100Q228.2100 585.9600 230.8200 588.9750Q233.4300 591.9900 238.2000 591.9900ZM280.8600 600L272.9400 600Q272.0400 600 271.4100 599.3700Q270.7800 598.7400 270.7800 597.8400L270.7800 597.8400L270.7800 555.3600Q270.7800 554.4600 271.4100 553.8300Q272.0400 553.2000 272.9400 553.2000L272.9400 553.2000L280.3200 553.2000Q281.2200 553.2000 281.8500 553.8300Q282.4800 554.4600 282.4800 555.3600L282.4800 555.3600L282.4800 559.0500Q284.8200 556.1700 288.4650 554.2350Q292.1100 552.3000 297.5100 552.3000L297.5100 552.3000Q303 552.3000 307.0500 554.7750Q311.1000 557.2500 313.3050 561.7500Q315.5100 566.2500 315.5100 572.5500L315.5100 572.5500L315.5100 597.8400Q315.5100 598.7400 314.8800 599.3700Q314.2500 600 313.3500 600L313.3500 600L305.4300 600Q304.5300 600 303.9000 599.3700Q303.2700 598.7400 303.2700 597.8400L303.2700 597.8400L303.2700 573.0900Q303.2700 567.8700 300.7050 564.9000Q298.1400 561.9300 293.2800 561.9300L293.2800 561.9300Q288.6000 561.9300 285.8100 564.9000Q283.0200 567.8700 283.0200 573.0900L283.0200 573.0900L283.0200 597.8400Q283.0200 598.7400 282.3900 599.3700Q281.7600 600 280.8600 600L280.8600 600ZM337.2000 600L329.1900 600Q328.2900 600 327.6600 599.3700Q327.0300 598.7400 327.0300 597.8400L327.0300 597.8400L327.0300 538.2600Q327.0300 537.3600 327.6600 536.7300Q328.2900 536.1000 329.1900 536.1000L329.1900 536.1000L337.2000 536.1000Q338.1900 536.1000 338.7750 536.7300Q339.3600 537.3600 339.3600 538.2600L339.3600 538.2600L339.3600 558.7800Q341.7900 555.9000 345.3000 554.1000Q348.8100 552.3000 353.9400 552.3000L353.9400 552.3000Q359.4300 552.3000 363.5250 554.7750Q367.6200 557.2500 369.8700 561.7500Q372.1200 566.2500 372.1200 572.5500L372.1200 572.5500L372.1200 597.8400Q372.1200 598.7400 371.4900 599.3700Q370.8600 600 369.9600 600L369.9600 600L361.8600 600Q360.9600 600 360.3300 599.3700Q359.7000 598.7400 359.7000 597.8400L359.7000 597.8400L359.7000 573.0900Q359.7000 567.8700 357.1350 564.9000Q354.5700 561.9300 349.7100 561.9300L349.7100 561.9300Q345.0300 561.9300 342.1950 564.9000Q339.3600 567.8700 339.3600 573.0900L339.3600 573.0900L339.3600 597.8400Q339.3600 598.7400 338.7750 599.3700Q338.1900 600 337.2000 600L337.2000 600ZM403.7100 600.9000L403.7100 600.9000Q393.7200 600.9000 387.8700 595.1400Q382.0200 589.3800 381.5700 578.7600L381.5700 578.7600Q381.4800 577.8600 381.4800 576.4650Q381.4800 575.0700 381.5700 574.2600L381.5700 574.2600Q381.9300 567.4200 384.6750 562.5150Q387.4200 557.6100 392.2800 554.9550Q397.1400 552.3000 403.7100 552.3000L403.7100 552.3000Q411 552.3000 415.9500 555.3150Q420.9000 558.3300 423.4200 563.6850Q425.9400 569.0400 425.9400 576.0600L425.9400 576.0600L425.9400 577.9500Q425.9400 578.8500 425.3100 579.4800Q424.6800 580.1100 423.6900 580.1100L423.6900 580.1100L393.8100 580.1100Q393.8100 580.1100 393.8100 580.3800Q393.8100 580.6500 393.8100 580.8300L393.8100 580.8300Q393.9000 583.9800 395.0250 586.6350Q396.1500 589.2900 398.3550 590.9100Q400.5600 592.5300 403.6200 592.5300L403.6200 592.5300Q406.1400 592.5300 407.8500 591.7650Q409.5600 591 410.6400 590.0100Q411.7200 589.0200 412.1700 588.3900L412.1700 588.3900Q412.9800 587.3100 413.4750 587.0850Q413.9700 586.8600 414.9600 586.8600L414.9600 586.8600L422.7000 586.8600Q423.6000 586.8600 424.1850 587.4000Q424.7700 587.9400 424.6800 588.7500L424.6800 588.7500Q424.5900 590.1900 423.1950 592.2600Q421.8000 594.3300 419.1900 596.3100Q416.5800 598.2900 412.6650 599.5950Q408.7500 600.9000 403.7100 600.9000ZM393.8100 572.2800L393.8100 572.5500L413.7000 572.5500L413.7000 572.2800Q413.7000 568.7700 412.5300 566.1150Q411.3600 563.4600 409.1100 561.9750Q406.8600 560.4900 403.7100 560.4900L403.7100 560.4900Q400.5600 560.4900 398.3100 561.9750Q396.0600 563.4600 394.9350 566.1150Q393.8100 568.7700 393.8100 572.2800L393.8100 572.2800ZM455.7300 600.9000L455.7300 600.9000Q449.2500 600.9000 444.3450 598.4700Q439.4400 596.0400 436.6950 591.4050Q433.9500 586.7700 433.6800 580.2000L433.6800 580.2000Q433.5900 578.8500 433.5900 576.6450Q433.5900 574.4400 433.6800 573L433.6800 573Q433.9500 566.4300 436.6950 561.7950Q439.4400 557.1600 444.3450 554.7300Q449.2500 552.3000 455.7300 552.3000L455.7300 552.3000Q461.4900 552.3000 465.5400 553.8750Q469.5900 555.4500 472.2000 557.9250Q474.8100 560.4000 476.1150 563.0550Q477.4200 565.7100 477.5100 567.8700L477.5100 567.8700Q477.6000 568.8600 476.9250 569.4450Q476.2500 570.0300 475.3500 570.0300L475.3500 570.0300L467.4300 570.0300Q466.5300 570.0300 466.0350 569.5800Q465.5400 569.1300 465.0900 568.2300L465.0900 568.2300Q463.7400 564.6300 461.5350 563.1450Q459.3300 561.6600 455.9100 561.6600L455.9100 561.6600Q451.4100 561.6600 448.7550 564.4950Q446.1000 567.3300 445.9200 573.4500L445.9200 573.4500Q445.7400 576.8700 445.9200 579.7500L445.9200 579.7500Q446.1000 585.9600 448.7550 588.7500Q451.4100 591.5400 455.9100 591.5400L455.9100 591.5400Q459.4200 591.5400 461.5800 590.0550Q463.7400 588.5700 465.0900 584.9700L465.0900 584.9700Q465.5400 584.0700 466.0350 583.6200Q466.5300 583.1700 467.4300 583.1700L467.4300 583.1700L475.3500 583.1700Q476.2500 583.1700 476.9250 583.7550Q477.6000 584.3400 477.5100 585.3300L477.5100 585.3300Q477.4200 586.9500 476.6550 588.9750Q475.8900 591 474.2250 593.1150Q472.5600 595.2300 470.0400 596.9850Q467.5200 598.7400 463.9650 599.8200Q460.4100 600.9000 455.7300 600.9000ZM507.0300 600.9000L507.0300 600.9000Q497.0400 600.9000 491.1900 595.1400Q485.3400 589.3800 484.8900 578.7600L484.8900 578.7600Q484.8000 577.8600 484.8000 576.4650Q484.8000 575.0700 484.8900 574.2600L484.8900 574.2600Q485.2500 567.4200 487.9950 562.5150Q490.7400 557.6100 495.6000 554.9550Q500.4600 552.3000 507.0300 552.3000L507.0300 552.3000Q514.3200 552.3000 519.2700 555.3150Q524.2200 558.3300 526.7400 563.6850Q529.2600 569.0400 529.2600 576.0600L529.2600 576.0600L529.2600 577.9500Q529.2600 578.8500 528.6300 579.4800Q528 580.1100 527.0100 580.1100L527.0100 580.1100L497.1300 580.1100Q497.1300 580.1100 497.1300 580.3800Q497.1300 580.6500 497.1300 580.8300L497.1300 580.8300Q497.2200 583.9800 498.3450 586.6350Q499.4700 589.2900 501.6750 590.9100Q503.8800 592.5300 506.9400 592.5300L506.9400 592.5300Q509.4600 592.5300 511.1700 591.7650Q512.8800 591 513.9600 590.0100Q515.0400 589.0200 515.4900 588.3900L515.4900 588.3900Q516.3000 587.3100 516.7950 587.0850Q517.2900 586.8600 518.2800 586.8600L518.2800 586.8600L526.0200 586.8600Q526.9200 586.8600 527.5050 587.4000Q528.0900 587.9400 528 588.7500L528 588.7500Q527.9100 590.1900 526.5150 592.2600Q525.1200 594.3300 522.5100 596.3100Q519.9000 598.2900 515.9850 599.5950Q512.0700 600.9000 507.0300 600.9000ZM497.1300 572.2800L497.1300 572.5500L517.0200 572.5500L517.0200 572.2800Q517.0200 568.7700 515.8500 566.1150Q514.6800 563.4600 512.4300 561.9750Q510.1800 560.4900 507.0300 560.4900L507.0300 560.4900Q503.8800 560.4900 501.6300 561.9750Q499.3800 563.4600 498.2550 566.1150Q497.1300 568.7700 497.1300 572.2800L497.1300 572.2800ZM548.8800 600L540.9600 600Q540.0600 600 539.4300 599.3700Q538.8000 598.7400 538.8000 597.8400L538.8000 597.8400L538.8000 555.3600Q538.8000 554.4600 539.4300 553.8300Q540.0600 553.2000 540.9600 553.2000L540.9600 553.2000L548.3400 553.2000Q549.2400 553.2000 549.8700 553.8300Q550.5000 554.4600 550.5000 555.3600L550.5000 555.3600L550.5000 559.0500Q552.8400 556.1700 556.4850 554.2350Q560.1300 552.3000 565.5300 552.3000L565.5300 552.3000Q571.0200 552.3000 575.0700 554.7750Q579.1200 557.2500 581.3250 561.7500Q583.5300 566.2500 583.5300 572.5500L583.5300 572.5500L583.5300 597.8400Q583.5300 598.7400 582.9000 599.3700Q582.2700 600 581.3700 600L581.3700 600L573.4500 600Q572.5500 600 571.9200 599.3700Q571.2900 598.7400 571.2900 597.8400L571.2900 597.8400L571.2900 573.0900Q571.2900 567.8700 568.7250 564.9000Q566.1600 561.9300 561.3000 561.9300L561.3000 561.9300Q556.6200 561.9300 553.8300 564.9000Q551.0400 567.8700 551.0400 573.0900L551.0400 573.0900L551.0400 597.8400Q551.0400 598.7400 550.4100 599.3700Q549.7800 600 548.8800 600L548.8800 600ZM612.3300 600.9000L612.3300 600.9000Q607.6500 600.9000 604.0950 599.3250Q600.5400 597.7500 598.2000 594.8700Q595.8600 591.9900 594.6000 588.0750Q593.3400 584.1600 593.1600 579.4800L593.1600 579.4800Q593.0700 577.8600 593.0700 576.5550Q593.0700 575.2500 593.1600 573.6300L593.1600 573.6300Q593.3400 569.1300 594.5550 565.2600Q595.7700 561.3900 598.1550 558.4650Q600.5400 555.5400 604.0950 553.9200Q607.6500 552.3000 612.3300 552.3000L612.3300 552.3000Q617.1900 552.3000 620.5650 553.9650Q623.9400 555.6300 626.1900 558.2400L626.1900 558.2400L626.1900 538.2600Q626.1900 537.3600 626.7750 536.7300Q627.3600 536.1000 628.3500 536.1000L628.3500 536.1000L636 536.1000Q636.9000 536.1000 637.5300 536.7300Q638.1600 537.3600 638.1600 538.2600L638.1600 538.2600L638.1600 597.8400Q638.1600 598.7400 637.5300 599.3700Q636.9000 600 636 600L636 600L628.8900 600Q627.9000 600 627.3150 599.3700Q626.7300 598.7400 626.7300 597.8400L626.7300 597.8400L626.7300 594.5100Q624.4800 597.3000 621.0150 599.1000Q617.5500 600.9000 612.3300 600.9000ZM615.6600 591.2700L615.6600 591.2700Q619.4400 591.2700 621.6900 589.5600Q623.9400 587.8500 625.0200 585.1950Q626.1000 582.5400 626.1900 579.7500L626.1900 579.7500Q626.2800 578.1300 626.2800 576.2850Q626.2800 574.4400 626.1900 572.8200L626.1900 572.8200Q626.1000 570.1200 624.9300 567.6450Q623.7600 565.1700 621.5100 563.5500Q619.2600 561.9300 615.6600 561.9300L615.6600 561.9300Q611.8800 561.9300 609.6750 563.5950Q607.4700 565.2600 606.4800 567.9600Q605.4900 570.6600 605.3100 573.9000L605.3100 573.9000Q605.2200 576.6000 605.3100 579.3000L605.3100 579.3000Q605.4900 582.5400 606.4800 585.2400Q607.4700 587.9400 609.6750 589.6050Q611.8800 591.2700 615.6600 591.2700ZM670.8300 600.9000L670.8300 600.9000Q663.6300 600.9000 658.7250 598.3800Q653.8200 595.8600 651.2550 591.2700Q648.6900 586.6800 648.3300 580.5600L648.3300 580.5600Q648.2400 578.9400 648.2400 576.6000Q648.2400 574.2600 648.3300 572.6400L648.3300 572.6400Q648.6900 566.4300 651.3450 561.8850Q654.0000 557.3400 658.9050 554.8200Q663.8100 552.3000 670.8300 552.3000L670.8300 552.3000Q677.8500 552.3000 682.7550 554.8200Q687.6600 557.3400 690.3150 561.8850Q692.9700 566.4300 693.3300 572.6400L693.3300 572.6400Q693.4200 574.2600 693.4200 576.6000Q693.4200 578.9400 693.3300 580.5600L693.3300 580.5600Q692.9700 586.6800 690.4050 591.2700Q687.8400 595.8600 682.9350 598.3800Q678.0300 600.9000 670.8300 600.9000ZM670.8300 591.9900L670.8300 591.9900Q675.6000 591.9900 678.2100 588.9750Q680.8200 585.9600 681.0900 580.1100L681.0900 580.1100Q681.1800 578.7600 681.1800 576.6000Q681.1800 574.4400 681.0900 573.0900L681.0900 573.0900Q680.8200 567.2400 678.2100 564.2250Q675.6000 561.2100 670.8300 561.2100L670.8300 561.2100Q666.0600 561.2100 663.4500 564.2250Q660.8400 567.2400 660.5700 573.0900L660.5700 573.0900Q660.4800 574.4400 660.4800 576.6000Q660.4800 578.7600 660.5700 580.1100L660.5700 580.1100Q660.8400 585.9600 663.4500 588.9750Q666.0600 591.9900 670.8300 591.9900ZM744.7200 600.9000L744.7200 600.9000Q737.5200 600.9000 732.6150 598.3800Q727.7100 595.8600 725.1450 591.2700Q722.5800 586.6800 722.2200 580.5600L722.2200 580.5600Q722.1300 578.9400 722.1300 576.6000Q722.1300 574.2600 722.2200 572.6400L722.2200 572.6400Q722.5800 566.4300 725.2350 561.8850Q727.8900 557.3400 732.7950 554.8200Q737.7000 552.3000 744.7200 552.3000L744.7200 552.3000Q751.7400 552.3000 756.6450 554.8200Q761.5500 557.3400 764.2050 561.8850Q766.8600 566.4300 767.2200 572.6400L767.2200 572.6400Q767.3100 574.2600 767.3100 576.6000Q767.3100 578.9400 767.2200 580.5600L767.2200 580.5600Q766.8600 586.6800 764.2950 591.2700Q761.7300 595.8600 756.8250 598.3800Q751.9200 600.9000 744.7200 600.9000ZM744.7200 591.9900L744.7200 591.9900Q749.4900 591.9900 752.1000 588.9750Q754.7100 585.9600 754.9800 580.1100L754.9800 580.1100Q755.0700 578.7600 755.0700 576.6000Q755.0700 574.4400 754.9800 573.0900L754.9800 573.0900Q754.7100 567.2400 752.1000 564.2250Q749.4900 561.2100 744.7200 561.2100L744.7200 561.2100Q739.9500 561.2100 737.3400 564.2250Q734.7300 567.2400 734.4600 573.0900L734.4600 573.0900Q734.3700 574.4400 734.3700 576.6000Q734.3700 578.7600 734.4600 580.1100L734.4600 580.1100Q734.7300 585.9600 737.3400 588.9750Q739.9500 591.9900 744.7200 591.9900ZM793.5900 617.1000L790.1700 617.1000Q789.2700 617.1000 788.6400 616.4700Q788.0100 615.8400 788.0100 614.9400L788.0100 614.9400L788.0100 609.7200Q788.0100 608.8200 788.6400 608.1900Q789.2700 607.5600 790.1700 607.5600L790.1700 607.5600L792.5100 607.5600Q795.3000 607.5600 796.6500 606.5700Q798.0000 605.5800 798.4500 603.8250Q798.9000 602.0700 798.9000 599.9100L798.9000 599.9100L798.9000 555.3600Q798.9000 554.4600 799.5300 553.8300Q800.1600 553.2000 801.0600 553.2000L801.0600 553.2000L808.8900 553.2000Q809.7900 553.2000 810.4200 553.8300Q811.0500 554.4600 811.0500 555.3600L811.0500 555.3600L811.0500 600.0900Q811.0500 605.4000 809.1150 609.1800Q807.1800 612.9600 803.3550 615.0300Q799.5300 617.1000 793.5900 617.1000L793.5900 617.1000ZM809.1600 545.4600L800.7000 545.4600Q799.7100 545.4600 799.1250 544.8300Q798.5400 544.2000 798.5400 543.3000L798.5400 543.3000L798.5400 536.8200Q798.5400 535.9200 799.1250 535.2900Q799.7100 534.6600 800.7000 534.6600L800.7000 534.6600L809.1600 534.6600Q810.1500 534.6600 810.7800 535.2900Q811.4100 535.9200 811.4100 536.8200L811.4100 536.8200L811.4100 543.3000Q811.4100 544.2000 810.7800 544.8300Q810.1500 545.4600 809.1600 545.4600L809.1600 545.4600ZM872.8800 605.8500L864.5100 605.8500Q863.2500 605.8500 862.4850 605.0850Q861.7200 604.3200 861.2700 603.7800L861.2700 603.7800L857.9400 599.2800Q853.7100 600.9000 848.3100 600.9000L848.3100 600.9000Q840.3000 600.9000 834.4950 598.2450Q828.6900 595.5900 825.4950 590.0550Q822.3000 584.5200 821.9400 576.2400L821.9400 576.2400Q821.8500 572.3700 821.8500 568.5900Q821.8500 564.8100 821.9400 560.8500L821.9400 560.8500Q822.3000 552.6600 825.5850 547.1700Q828.8700 541.6800 834.7200 538.8900Q840.5700 536.1000 848.3100 536.1000L848.3100 536.1000Q856.0500 536.1000 861.9000 538.8900Q867.7500 541.6800 871.0800 547.1700Q874.4100 552.6600 874.5900 560.8500L874.5900 560.8500Q874.7700 564.8100 874.7700 568.5900Q874.7700 572.3700 874.5900 576.2400L874.5900 576.2400Q874.1400 588.0300 868.1100 594.1500L868.1100 594.1500L874.4100 603.0600Q874.5000 603.1500 874.5900 603.3750Q874.6800 603.6000 874.6800 603.9600L874.6800 603.9600Q874.7700 604.7700 874.1850 605.3100Q873.6000 605.8500 872.8800 605.8500L872.8800 605.8500ZM848.3100 590.5500L848.3100 590.5500Q854.0700 590.5500 857.7600 587.0850Q861.4500 583.6200 861.7200 575.7900L861.7200 575.7900Q861.9000 571.8300 861.9000 568.4550Q861.9000 565.0800 861.7200 561.2100L861.7200 561.2100Q861.6300 555.9900 859.8300 552.7050Q858.0300 549.4200 855.1050 547.9350Q852.1800 546.4500 848.3100 546.4500L848.3100 546.4500Q844.5300 546.4500 841.5600 547.9350Q838.5900 549.4200 836.8350 552.7050Q835.0800 555.9900 834.8100 561.2100L834.8100 561.2100Q834.7200 565.0800 834.7200 568.4550Q834.7200 571.8300 834.8100 575.7900L834.8100 575.7900Q835.1700 583.6200 838.8600 587.0850Q842.5500 590.5500 848.3100 590.5500ZM902.9400 600.9000L902.9400 600.9000Q897.4500 600.9000 893.4450 598.4250Q889.4400 595.9500 887.2800 591.4050Q885.1200 586.8600 885.1200 580.6500L885.1200 580.6500L885.1200 555.3600Q885.1200 554.4600 885.7500 553.8300Q886.3800 553.2000 887.2800 553.2000L887.2800 553.2000L895.2000 553.2000Q896.1900 553.2000 896.7750 553.8300Q897.3600 554.4600 897.3600 555.3600L897.3600 555.3600L897.3600 580.1100Q897.3600 591.2700 907.1700 591.2700L907.1700 591.2700Q911.8500 591.2700 914.5950 588.3000Q917.3400 585.3300 917.3400 580.1100L917.3400 580.1100L917.3400 555.3600Q917.3400 554.4600 917.9700 553.8300Q918.6000 553.2000 919.5000 553.2000L919.5000 553.2000L927.4200 553.2000Q928.3200 553.2000 928.9500 553.8300Q929.5800 554.4600 929.5800 555.3600L929.5800 555.3600L929.5800 597.8400Q929.5800 598.7400 928.9500 599.3700Q928.3200 600 927.4200 600L927.4200 600L920.1300 600Q919.1400 600 918.5550 599.3700Q917.9700 598.7400 917.9700 597.8400L917.9700 597.8400L917.9700 594.1500Q915.5400 597.3000 911.9400 599.1000Q908.3400 600.9000 902.9400 600.9000ZM961.6200 600.9000L961.6200 600.9000Q951.6300 600.9000 945.7800 595.1400Q939.9300 589.3800 939.4800 578.7600L939.4800 578.7600Q939.3900 577.8600 939.3900 576.4650Q939.3900 575.0700 939.4800 574.2600L939.4800 574.2600Q939.8400 567.4200 942.5850 562.5150Q945.3300 557.6100 950.1900 554.9550Q955.0500 552.3000 961.6200 552.3000L961.6200 552.3000Q968.9100 552.3000 973.8600 555.3150Q978.8100 558.3300 981.3300 563.6850Q983.8500 569.0400 983.8500 576.0600L983.8500 576.0600L983.8500 577.9500Q983.8500 578.8500 983.2200 579.4800Q982.5900 580.1100 981.6000 580.1100L981.6000 580.1100L951.7200 580.1100Q951.7200 580.1100 951.7200 580.3800Q951.7200 580.6500 951.7200 580.8300L951.7200 580.8300Q951.8100 583.9800 952.9350 586.6350Q954.0600 589.2900 956.2650 590.9100Q958.4700 592.5300 961.5300 592.5300L961.5300 592.5300Q964.0500 592.5300 965.7600 591.7650Q967.4700 591 968.5500 590.0100Q969.6300 589.0200 970.0800 588.3900L970.0800 588.3900Q970.8900 587.3100 971.3850 587.0850Q971.8800 586.8600 972.8700 586.8600L972.8700 586.8600L980.6100 586.8600Q981.5100 586.8600 982.0950 587.4000Q982.6800 587.9400 982.5900 588.7500L982.5900 588.7500Q982.5000 590.1900 981.1050 592.2600Q979.7100 594.3300 977.1000 596.3100Q974.4900 598.2900 970.5750 599.5950Q966.6600 600.9000 961.6200 600.9000ZM951.7200 572.2800L951.7200 572.5500L971.6100 572.5500L971.6100 572.2800Q971.6100 568.7700 970.4400 566.1150Q969.2700 563.4600 967.0200 561.9750Q964.7700 560.4900 961.6200 560.4900L961.6200 560.4900Q958.4700 560.4900 956.2200 561.9750Q953.9700 563.4600 952.8450 566.1150Q951.7200 568.7700 951.7200 572.2800L951.7200 572.2800ZM1003.3800 600L995.5500 600Q994.6500 600 994.0200 599.3700Q993.3900 598.7400 993.3900 597.8400L993.3900 597.8400L993.3900 555.4500Q993.3900 554.4600 994.0200 553.8300Q994.6500 553.2000 995.5500 553.2000L995.5500 553.2000L1002.8400 553.2000Q1003.7400 553.2000 1004.4150 553.8300Q1005.0900 554.4600 1005.0900 555.4500L1005.0900 555.4500L1005.0900 559.1400Q1007.1600 556.2600 1010.4450 554.7300Q1013.7300 553.2000 1018.0500 553.2000L1018.0500 553.2000L1021.7400 553.2000Q1022.7300 553.2000 1023.3150 553.8300Q1023.9000 554.4600 1023.9000 555.3600L1023.9000 555.3600L1023.9000 561.8400Q1023.9000 562.7400 1023.3150 563.3700Q1022.7300 564 1021.7400 564L1021.7400 564L1014.7200 564Q1010.4000 564 1008.0150 566.3850Q1005.6300 568.7700 1005.6300 573.0900L1005.6300 573.0900L1005.6300 597.8400Q1005.6300 598.7400 1005.0000 599.3700Q1004.3700 600 1003.3800 600L1003.3800 600ZM1046.4900 617.1000L1039.3800 617.1000Q1038.6600 617.1000 1038.1200 616.5600Q1037.5800 616.0200 1037.5800 615.3000L1037.5800 615.3000Q1037.5800 614.9400 1037.6250 614.6250Q1037.6700 614.3100 1037.9400 613.8600L1037.9400 613.8600L1044.9600 597.2100L1027.6800 556.4400Q1027.3200 555.5400 1027.3200 555.1800L1027.3200 555.1800Q1027.4100 554.3700 1027.9500 553.7850Q1028.4900 553.2000 1029.3000 553.2000L1029.3000 553.2000L1036.5900 553.2000Q1037.6700 553.2000 1038.2100 553.7400Q1038.7500 554.2800 1039.0200 554.9100L1039.0200 554.9100L1050.9900 584.3400L1063.3200 554.9100Q1063.5900 554.1900 1064.1300 553.6950Q1064.6700 553.2000 1065.7500 553.2000L1065.7500 553.2000L1072.9500 553.2000Q1073.6700 553.2000 1074.2550 553.7400Q1074.8400 554.2800 1074.8400 555L1074.8400 555Q1074.8400 555.5400 1074.4800 556.4400L1074.4800 556.4400L1049.0100 615.3900Q1048.6500 616.1100 1048.1100 616.6050Q1047.5700 617.1000 1046.4900 617.1000L1046.4900 617.1000Z" id="title"/><path d="M1426.4800 650L1404.1600 650Q1402 650 1400.5600 648.4400Q1399.1200 646.8800 1399.1200 644.7200L1399.1200 644.7200Q1399.1200 643.5200 1399.4800 642.8000Q1399.8400 642.0800 1400.0800 641.6000L1400.0800 641.6000L1435.3600 592.8800Q1430.8000 594.0800 1425.5200 593.8400L1425.5200 593.8400Q1413.2800 593.6000 1402.8400 589.1600Q1392.4000 584.7200 1384.6000 577.1600Q1376.8000 569.6000 1372.3600 559.6400Q1367.9200 549.6800 1367.9200 537.9200L1367.9200 537.9200Q1367.9200 527.1200 1372 516.6800Q1376.0800 506.2400 1384.1200 497.8400Q1392.1600 489.4400 1404.2800 484.5200Q1416.4000 479.6000 1432.7200 479.6000L1432.7200 479.6000Q1448.8000 479.6000 1461.0400 484.1600Q1473.2800 488.7200 1481.5600 496.7600Q1489.8400 504.8000 1494.0400 515.1200Q1498.2400 525.4400 1498.2400 536.9600L1498.2400 536.9600Q1498.2400 547.2800 1494.8800 556.1600Q1491.5200 565.0400 1486.6000 572.3600Q1481.6800 579.6800 1476.8800 586.6400L1476.8800 586.6400L1434.6400 645.2000Q1433.6800 646.4000 1431.8800 648.2000Q1430.0800 650 1426.4800 650L1426.4800 650ZM1432.9600 568.4000L1432.9600 568.4000Q1441.6000 568.4000 1448.6800 564.6800Q1455.7600 560.9600 1459.9600 554.1200Q1464.1600 547.2800 1464.1600 537.9200L1464.1600 537.9200Q1464.1600 528.3200 1459.9600 521.4800Q1455.7600 514.6400 1448.5600 510.9200Q1441.3600 507.2000 1432.9600 507.2000L1432.9600 507.2000Q1424.3200 507.2000 1417.2400 510.9200Q1410.1600 514.6400 1405.9600 521.4800Q1401.7600 528.3200 1401.7600 537.9200L1401.7600 537.9200Q1401.7600 547.2800 1405.9600 554.1200Q1410.1600 560.9600 1417.2400 564.6800Q1424.3200 568.4000 1432.9600 568.4000ZM1538.3200 650L1514.3200 650Q1511.9200 650 1510.2400 648.3200Q1508.5600 646.6400 1508.5600 644.2400L1508.5600 644.2400L1508.5600 620.4800Q1508.5600 617.8400 1510.2400 616.1600Q1511.9200 614.4800 1514.3200 614.4800L1514.3200 614.4800L1538.3200 614.4800Q1540.7200 614.4800 1542.4000 616.1600Q1544.0800 617.8400 1544.0800 620.4800L1544.0800 620.4800L1544.0800 644.2400Q1544.0800 646.6400 1542.4000 648.3200Q1540.7200 650 1538.3200 650L1538.3200 650ZM1689.7600 650L1575.0400 650Q1572.6400 650 1570.9600 648.3200Q1569.2800 646.6400 1569.2800 644.2400L1569.2800 644.2400L1569.2800 632Q1569.2800 629.8400 1570.3600 626.8400Q1571.4400 623.8400 1575.2800 620.7200L1575.2800 620.7200L1613.2000 583.0400Q1629.0400 570.5600 1638.7600 561.8000Q1648.4800 553.0400 1652.9200 545.7200Q1657.3600 538.4000 1657.3600 531.2000L1657.3600 531.2000Q1657.3600 520.4000 1651.4800 513.6800Q1645.6000 506.9600 1632.8800 506.9600L1632.8800 506.9600Q1624.4800 506.9600 1618.7200 510.4400Q1612.9600 513.9200 1609.7200 519.6800Q1606.4800 525.4400 1605.2800 532.4000L1605.2800 532.4000Q1604.8000 535.5200 1602.6400 536.7200Q1600.4800 537.9200 1598.3200 537.9200L1598.3200 537.9200L1576.9600 537.9200Q1574.8000 537.9200 1573.3600 536.4800Q1571.9200 535.0400 1571.9200 533.1200L1571.9200 533.1200Q1572.1600 522.8000 1576.2400 513.0800Q1580.3200 503.3600 1588.1200 495.8000Q1595.9200 488.2400 1607.2000 483.6800Q1618.4800 479.1200 1632.6400 479.1200L1632.6400 479.1200Q1652.5600 479.1200 1665.6400 485.8400Q1678.7200 492.5600 1685.3200 504.0800Q1691.9200 515.6000 1691.9200 530L1691.9200 530Q1691.9200 541.2800 1687.6000 550.7600Q1683.2800 560.2400 1675.1200 569Q1666.9600 577.7600 1655.4400 586.8800L1655.4400 586.8800L1621.3600 621.4400L1689.7600 621.4400Q1692.4000 621.4400 1693.9600 623Q1695.5200 624.5600 1695.5200 627.2000L1695.5200 627.2000L1695.5200 644.2400Q1695.5200 646.6400 1693.9600 648.3200Q1692.4000 650 1689.7600 650L1689.7600 650Z" id="lecture-full-number"/></g></svg>