<svg xmlns="http://www.w3.org/2000/svg" version="1.1" xmlns:xlink="http://www.w3.org/1999/xlink" xmlns:svgjs="http://svgjs.dev/svgjs" viewBox="0 0 1920 1080" id="fada8f02-e75a-42c7-bf3e-a9fcf41512d1"><g><rect width="1920" height="1080" fill="#4e0250"/></g><g fill="#645986"><path d="M865 270L865 2467C258.907 2467 -232 1976.03 -232 1369.87C-232 760.965 258.907 270 865 270Z"/></g><g fill="#ffffff" opacity="0.2"><path d="M1829.66 1149.02C1826.52 1125.1 1822.11 1101.18 1817.7 1077.89L1577.22 1318.37H1660.32L1829.66 1149.02Z"/><path d="M1798.82 998.567C1793.15 977.163 1786.23 955.759 1779.3 934.984L1395.92 1319H1479.02L1798.82 998.567Z"/><path d="M1752.86 863.214C1744.68 843.698 1736.5 824.183 1727.68 805.297L1214.61 1319H1297.71L1752.86 863.214Z"/><path d="M1694.32 739.83C1684.88 722.203 1674.17 704.576 1664.1 686.949L1147.89 1203.8C1152.92 1227.72 1156.7 1251.64 1158.59 1276.19L1694.32 739.83Z"/><path d="M1625.07 627.77C1613.73 611.402 1601.77 595.664 1589.81 579.926L1098.78 1071.59C1108.22 1089.85 1117.03 1109.36 1124.59 1128.88L1625.07 627.77Z"/><path d="M1546.38 525.789C1533.79 510.68 1520.57 496.201 1506.72 482.352L1025.12 964.574C1038.35 979.053 1050.31 994.791 1061.64 1011.16L1546.38 525.789Z"/><path d="M1457.61 433.249C1443.13 420.029 1428.65 406.809 1413.54 394.219L928.802 879.589C945.17 890.92 960.908 902.881 975.387 916.101L1457.61 433.249Z"/><path d="M1358.78 350.148C1343.04 338.187 1326.67 326.855 1310.3 315.523L808.564 817.891C828.709 825.445 847.595 833.629 866.481 843.072L1358.78 350.148Z"/><path d="M1251.12 276.495C1233.5 265.793 1215.87 255.72 1198.24 246.277L659.364 785.787C684.545 787.046 709.097 790.194 733.019 795.23L1251.12 276.495Z"/><path d="M1132.14 214.166C1113.26 205.352 1093.74 197.168 1074.23 188.984L626.627 637.212V720.31L1132.14 214.166Z"/><path d="M1001.83 163.175C980.427 156.25 959.023 149.955 937.619 144.289L626 455.908V539.006L1001.83 163.175Z"/><path d="M857.666 126.035C834.373 121.628 810.451 117.851 786.529 114.074L626.627 274.605V357.703L857.666 126.035Z"/><path d="M626.626 176.396L697.134 105.889C673.841 104.629 650.548 104 626.626 104V176.396Z"/></g><g><path d="M178.635 139.281L184.422 144.246V166.626H215.704L219.958 172.147L215.69 177.397H184.422V198.795L178.635 203.747L173 198.795V144.232L178.635 139.281ZM195.554 195.68H219.406L223.397 200.915L219.143 206.45H195.554L191.7 201.342L195.554 195.68ZM196.382 138H219.129L223.383 143.52L219.129 148.77H196.659L192.115 143.677L196.382 138ZM323.155 148.628L328.251 154.291L323.155 159.968H246.13L241.172 154.291L246.13 148.628H323.155ZM237.043 172.147L241.849 167.893L246.669 172.147V178.393C246.669 188.879 249.417 197.515 261.668 197.515H264.14C275.147 197.515 281.197 189.86 281.197 177.952V172.005L285.879 167.75L290.699 171.862V178.379C290.699 189.007 293.723 196.946 305.56 196.946H307.618C319.178 196.946 321.235 187.869 321.373 177.952V171.578L326.056 167.608L331 171.72V178.094C330.862 191.838 327.285 207.574 308.032 207.574H305.974C294.552 207.574 288.365 202.324 285.892 195.808C283.006 202.466 275.299 208.286 264.844 208.286H262.358C242.553 208.286 237.194 195.964 237.056 178.663V172.147H237.043ZM276.391 274.744L273.642 267.089L280.796 264.969L305.974 276.721V252.491L311.07 248.095L316.291 252.491V281.829L325.641 286.226L328.251 293.311L320.959 296L276.391 274.744ZM321.235 223.011L328.113 226.27L325.917 233.497L264.002 263.119L256.571 260.146L259.596 252.776L321.235 223.011ZM231.905 263.404L237.954 268.512C237.402 286.51 222.403 296 204.669 296H202.874C194.062 296 183.759 292.6 177.157 286.083L177.834 278.855L184.298 278.002C189.118 282.256 195.858 285.229 202.183 285.229H204.117C216.091 285.229 225.303 280.136 226.27 268.085L231.905 263.404ZM226.256 251.638C225.704 239.16 216.629 234.209 204.103 234.209H202.169C194.739 234.209 189.104 237.182 184.284 241.436L177.834 240.583L177.143 233.355C183.745 226.696 192.957 223.58 202.597 223.58H204.517C222.403 223.58 237.402 232.942 237.94 251.211L231.891 256.176L226.256 251.638Z" fill="#ffffff"/></g><path d="M1171 781L1171 339L1187 339L1187 781L1171 781Z" fill="#ffffff"/><g fill="#ffffff" id="info-group"><path d="M186 600L159.1800 600Q158.2800 600 157.6500 599.3700Q157.0200 598.7400 157.0200 597.8400L157.0200 597.8400L157.0200 539.2500Q157.0200 538.2600 157.6500 537.6300Q158.2800 537 159.1800 537L159.1800 537L185.2800 537Q192.5700 537 197.1600 539.2050Q201.7500 541.4100 203.9550 545.2800Q206.1600 549.1500 206.1600 554.2800L206.1600 554.2800Q206.1600 557.7000 204.9450 560.2650Q203.7300 562.8300 201.9750 564.4500Q200.2200 566.0700 198.5100 566.9700L198.5100 566.9700Q202.0200 568.5900 204.7200 572.3700Q207.4200 576.1500 207.4200 581.3700L207.4200 581.3700Q207.4200 586.7700 204.9900 591Q202.5600 595.2300 197.7900 597.6150Q193.0200 600 186 600L186 600ZM169.5300 572.1900L169.5300 590.4600L184.5600 590.4600Q189.4200 590.4600 191.9400 587.8050Q194.4600 585.1500 194.4600 581.3700L194.4600 581.3700Q194.4600 577.4100 191.8950 574.8000Q189.3300 572.1900 184.5600 572.1900L184.5600 572.1900L169.5300 572.1900ZM169.5300 546.4500L169.5300 562.8300L183.6600 562.8300Q188.4300 562.8300 190.8150 560.5350Q193.2000 558.2400 193.2000 554.5500L193.2000 554.5500Q193.2000 550.7700 190.8150 548.6100Q188.4300 546.4500 183.6600 546.4500L183.6600 546.4500L169.5300 546.4500ZM238.3800 600.9000L238.3800 600.9000Q231.1800 600.9000 226.2750 598.3800Q221.3700 595.8600 218.8050 591.2700Q216.2400 586.6800 215.8800 580.5600L215.8800 580.5600Q215.7900 578.9400 215.7900 576.6000Q215.7900 574.2600 215.8800 572.6400L215.8800 572.6400Q216.2400 566.4300 218.8950 561.8850Q221.5500 557.3400 226.4550 554.8200Q231.3600 552.3000 238.3800 552.3000L238.3800 552.3000Q245.4000 552.3000 250.3050 554.8200Q255.2100 557.3400 257.8650 561.8850Q260.5200 566.4300 260.8800 572.6400L260.8800 572.6400Q260.9700 574.2600 260.9700 576.6000Q260.9700 578.9400 260.8800 580.5600L260.8800 580.5600Q260.5200 586.6800 257.9550 591.2700Q255.3900 595.8600 250.4850 598.3800Q245.5800 600.9000 238.3800 600.9000ZM238.3800 591.9900L238.3800 591.9900Q243.1500 591.9900 245.7600 588.9750Q248.3700 585.9600 248.6400 580.1100L248.6400 580.1100Q248.7300 578.7600 248.7300 576.6000Q248.7300 574.4400 248.6400 573.0900L248.6400 573.0900Q248.3700 567.2400 245.7600 564.2250Q243.1500 561.2100 238.3800 561.2100L238.3800 561.2100Q233.6100 561.2100 231 564.2250Q228.3900 567.2400 228.1200 573.0900L228.1200 573.0900Q228.0300 574.4400 228.0300 576.6000Q228.0300 578.7600 228.1200 580.1100L228.1200 580.1100Q228.3900 585.9600 231 588.9750Q233.6100 591.9900 238.3800 591.9900ZM291.6600 600.9000L291.6600 600.9000Q284.4600 600.9000 279.5550 598.3800Q274.6500 595.8600 272.0850 591.2700Q269.5200 586.6800 269.1600 580.5600L269.1600 580.5600Q269.0700 578.9400 269.0700 576.6000Q269.0700 574.2600 269.1600 572.6400L269.1600 572.6400Q269.5200 566.4300 272.1750 561.8850Q274.8300 557.3400 279.7350 554.8200Q284.6400 552.3000 291.6600 552.3000L291.6600 552.3000Q298.6800 552.3000 303.5850 554.8200Q308.4900 557.3400 311.1450 561.8850Q313.8000 566.4300 314.1600 572.6400L314.1600 572.6400Q314.2500 574.2600 314.2500 576.6000Q314.2500 578.9400 314.1600 580.5600L314.1600 580.5600Q313.8000 586.6800 311.2350 591.2700Q308.6700 595.8600 303.7650 598.3800Q298.8600 600.9000 291.6600 600.9000ZM291.6600 591.9900L291.6600 591.9900Q296.4300 591.9900 299.0400 588.9750Q301.6500 585.9600 301.9200 580.1100L301.9200 580.1100Q302.0100 578.7600 302.0100 576.6000Q302.0100 574.4400 301.9200 573.0900L301.9200 573.0900Q301.6500 567.2400 299.0400 564.2250Q296.4300 561.2100 291.6600 561.2100L291.6600 561.2100Q286.8900 561.2100 284.2800 564.2250Q281.6700 567.2400 281.4000 573.0900L281.4000 573.0900Q281.3100 574.4400 281.3100 576.6000Q281.3100 578.7600 281.4000 580.1100L281.4000 580.1100Q281.6700 585.9600 284.2800 588.9750Q286.8900 591.9900 291.6600 591.9900ZM352.6800 600L345.3900 600Q339.9900 600 336.3000 598.1100Q332.6100 596.2200 330.8100 592.4850Q329.0100 588.7500 329.0100 583.1700L329.0100 583.1700L329.0100 562.7400L321.9000 562.7400Q321.0000 562.7400 320.3700 562.1100Q319.7400 561.4800 319.7400 560.4900L319.7400 560.4900L319.7400 555.3600Q319.7400 554.4600 320.3700 553.8300Q321.0000 553.2000 321.9000 553.2000L321.9000 553.2000L329.0100 553.2000L329.0100 538.2600Q329.0100 537.3600 329.5950 536.7300Q330.1800 536.1000 331.1700 536.1000L331.1700 536.1000L338.4600 536.1000Q339.3600 536.1000 339.9900 536.7300Q340.6200 537.3600 340.6200 538.2600L340.6200 538.2600L340.6200 553.2000L351.8700 553.2000Q352.7700 553.2000 353.4000 553.8300Q354.0300 554.4600 354.0300 555.3600L354.0300 555.3600L354.0300 560.4900Q354.0300 561.4800 353.4000 562.1100Q352.7700 562.7400 351.8700 562.7400L351.8700 562.7400L340.6200 562.7400L340.6200 582.2700Q340.6200 585.9600 341.9250 588.0300Q343.2300 590.1000 346.4700 590.1000L346.4700 590.1000L352.6800 590.1000Q353.5800 590.1000 354.2100 590.7300Q354.8400 591.3600 354.8400 592.2600L354.8400 592.2600L354.8400 597.8400Q354.8400 598.7400 354.2100 599.3700Q353.5800 600 352.6800 600L352.6800 600ZM380.5800 600.9000L380.5800 600.9000Q375.1800 600.9000 371.3550 599.6400Q367.5300 598.3800 365.1000 596.4900Q362.6700 594.6000 361.5000 592.7100Q360.3300 590.8200 360.2400 589.5600L360.2400 589.5600Q360.1500 588.5700 360.8250 587.9850Q361.5000 587.4000 362.3100 587.4000L362.3100 587.4000L369.4200 587.4000Q369.7800 587.4000 370.0500 587.4900Q370.3200 587.5800 370.7700 588.0300L370.7700 588.0300Q371.9400 589.0200 373.2450 590.1000Q374.5500 591.1800 376.3500 591.9450Q378.1500 592.7100 380.8500 592.7100L380.8500 592.7100Q384.3600 592.7100 386.7450 591.3150Q389.1300 589.9200 389.1300 587.3100L389.1300 587.3100Q389.1300 585.4200 388.0950 584.2500Q387.0600 583.0800 384.2700 582.1350Q381.4800 581.1900 376.3500 580.1100L376.3500 580.1100Q371.3100 578.9400 367.9800 577.1400Q364.6500 575.3400 363.0300 572.6400Q361.4100 569.9400 361.4100 566.3400L361.4100 566.3400Q361.4100 562.8300 363.5250 559.6350Q365.6400 556.4400 369.8250 554.3700Q374.0100 552.3000 380.2200 552.3000L380.2200 552.3000Q385.0800 552.3000 388.6800 553.5150Q392.2800 554.7300 394.6650 556.5300Q397.0500 558.3300 398.3100 560.1750Q399.5700 562.0200 399.6600 563.3700L399.6600 563.3700Q399.7500 564.3600 399.1200 564.9450Q398.4900 565.5300 397.6800 565.5300L397.6800 565.5300L391.0200 565.5300Q390.5700 565.5300 390.2100 565.3500Q389.8500 565.1700 389.4900 564.9000L389.4900 564.9000Q388.5000 564 387.3300 562.9650Q386.1600 561.9300 384.4950 561.2100Q382.8300 560.4900 380.1300 560.4900L380.1300 560.4900Q376.7100 560.4900 374.9100 561.9750Q373.1100 563.4600 373.1100 565.7100L373.1100 565.7100Q373.1100 567.2400 373.9650 568.3650Q374.8200 569.4900 377.4300 570.4800Q380.0400 571.4700 385.3500 572.5500L385.3500 572.5500Q391.3800 573.6300 394.9350 575.7450Q398.4900 577.8600 399.9750 580.6050Q401.4600 583.3500 401.4600 586.6800L401.4600 586.6800Q401.4600 590.7300 399.0750 593.9700Q396.6900 597.2100 392.0550 599.0550Q387.4200 600.9000 380.5800 600.9000ZM439.1700 600L431.8800 600Q426.4800 600 422.7900 598.1100Q419.1000 596.2200 417.3000 592.4850Q415.5000 588.7500 415.5000 583.1700L415.5000 583.1700L415.5000 562.7400L408.3900 562.7400Q407.4900 562.7400 406.8600 562.1100Q406.2300 561.4800 406.2300 560.4900L406.2300 560.4900L406.2300 555.3600Q406.2300 554.4600 406.8600 553.8300Q407.4900 553.2000 408.3900 553.2000L408.3900 553.2000L415.5000 553.2000L415.5000 538.2600Q415.5000 537.3600 416.0850 536.7300Q416.6700 536.1000 417.6600 536.1000L417.6600 536.1000L424.9500 536.1000Q425.8500 536.1000 426.4800 536.7300Q427.1100 537.3600 427.1100 538.2600L427.1100 538.2600L427.1100 553.2000L438.3600 553.2000Q439.2600 553.2000 439.8900 553.8300Q440.5200 554.4600 440.5200 555.3600L440.5200 555.3600L440.5200 560.4900Q440.5200 561.4800 439.8900 562.1100Q439.2600 562.7400 438.3600 562.7400L438.3600 562.7400L427.1100 562.7400L427.1100 582.2700Q427.1100 585.9600 428.4150 588.0300Q429.7200 590.1000 432.9600 590.1000L432.9600 590.1000L439.1700 590.1000Q440.0700 590.1000 440.7000 590.7300Q441.3300 591.3600 441.3300 592.2600L441.3300 592.2600L441.3300 597.8400Q441.3300 598.7400 440.7000 599.3700Q440.0700 600 439.1700 600L439.1700 600ZM459.3300 600L451.5000 600Q450.6000 600 449.9700 599.3700Q449.3400 598.7400 449.3400 597.8400L449.3400 597.8400L449.3400 555.4500Q449.3400 554.4600 449.9700 553.8300Q450.6000 553.2000 451.5000 553.2000L451.5000 553.2000L458.7900 553.2000Q459.6900 553.2000 460.3650 553.8300Q461.0400 554.4600 461.0400 555.4500L461.0400 555.4500L461.0400 559.1400Q463.1100 556.2600 466.3950 554.7300Q469.6800 553.2000 474 553.2000L474 553.2000L477.6900 553.2000Q478.6800 553.2000 479.2650 553.8300Q479.8500 554.4600 479.8500 555.3600L479.8500 555.3600L479.8500 561.8400Q479.8500 562.7400 479.2650 563.3700Q478.6800 564 477.6900 564L477.6900 564L470.6700 564Q466.3500 564 463.9650 566.3850Q461.5800 568.7700 461.5800 573.0900L461.5800 573.0900L461.5800 597.8400Q461.5800 598.7400 460.9500 599.3700Q460.3200 600 459.3300 600L459.3300 600ZM500.4600 600.9000L500.4600 600.9000Q495.7800 600.9000 492.0000 599.0550Q488.2200 597.2100 486.0150 594.1050Q483.8100 591 483.8100 587.1300L483.8100 587.1300Q483.8100 580.8300 488.9400 577.0950Q494.0700 573.3600 502.3500 572.1000L502.3500 572.1000L514.6800 570.3000L514.6800 568.4100Q514.6800 564.6300 512.7900 562.5600Q510.9000 560.4900 506.3100 560.4900L506.3100 560.4900Q503.0700 560.4900 501.0450 561.7950Q499.0200 563.1000 498.0300 565.2600L498.0300 565.2600Q497.3100 566.4300 495.9600 566.4300L495.9600 566.4300L488.8500 566.4300Q487.8600 566.4300 487.3650 565.8900Q486.8700 565.3500 486.8700 564.4500L486.8700 564.4500Q486.9600 563.0100 488.0850 560.9400Q489.2100 558.8700 491.5050 556.9350Q493.8000 555 497.4900 553.6500Q501.1800 552.3000 506.4000 552.3000L506.4000 552.3000Q512.0700 552.3000 515.9850 553.6950Q519.9000 555.0900 522.2400 557.4300Q524.5800 559.7700 525.6600 562.9200Q526.7400 566.0700 526.7400 569.5800L526.7400 569.5800L526.7400 597.8400Q526.7400 598.7400 526.1100 599.3700Q525.4800 600 524.5800 600L524.5800 600L517.2900 600Q516.3000 600 515.7150 599.3700Q515.1300 598.7400 515.1300 597.8400L515.1300 597.8400L515.1300 594.3300Q513.9600 595.9500 511.9800 597.4800Q510.0000 599.0100 507.1650 599.9550Q504.3300 600.9000 500.4600 600.9000ZM503.5200 592.3500L503.5200 592.3500Q506.6700 592.3500 509.2350 591Q511.8000 589.6500 513.2850 586.8150Q514.7700 583.9800 514.7700 579.6600L514.7700 579.6600L514.7700 577.7700L505.7700 579.2100Q500.4600 580.0200 497.8500 581.8200Q495.2400 583.6200 495.2400 586.2300L495.2400 586.2300Q495.2400 588.2100 496.4550 589.6050Q497.6700 591 499.5600 591.6750Q501.4500 592.3500 503.5200 592.3500ZM548.1600 617.1000L540.5100 617.1000Q539.6100 617.1000 538.9800 616.4700Q538.3500 615.8400 538.3500 614.9400L538.3500 614.9400L538.3500 555.3600Q538.3500 554.4600 538.9800 553.8300Q539.6100 553.2000 540.5100 553.2000L540.5100 553.2000L547.6200 553.2000Q548.6100 553.2000 549.1950 553.8300Q549.7800 554.4600 549.7800 555.3600L549.7800 555.3600L549.7800 558.9600Q551.9400 556.0800 555.4500 554.1900Q558.9600 552.3000 564.1800 552.3000L564.1800 552.3000Q568.9500 552.3000 572.4600 553.8300Q575.9700 555.3600 578.3100 558.1950Q580.6500 561.0300 581.9100 564.9000Q583.1700 568.7700 583.3500 573.4500L583.3500 573.4500Q583.4400 574.9800 583.4400 576.6000Q583.4400 578.2200 583.3500 579.8400L583.3500 579.8400Q583.2600 584.3400 582.0000 588.1650Q580.7400 591.9900 578.3550 594.8250Q575.9700 597.6600 572.4600 599.2800Q568.9500 600.9000 564.1800 600.9000L564.1800 600.9000Q559.3200 600.9000 555.9000 599.1450Q552.4800 597.3900 550.3200 594.5100L550.3200 594.5100L550.3200 614.9400Q550.3200 615.8400 549.7350 616.4700Q549.1500 617.1000 548.1600 617.1000L548.1600 617.1000ZM560.8500 591.2700L560.8500 591.2700Q564.7200 591.2700 566.8800 589.6050Q569.0400 587.9400 570.0300 585.2400Q571.0200 582.5400 571.2000 579.3000L571.2000 579.3000Q571.2900 576.6000 571.2000 573.9000L571.2000 573.9000Q571.0200 570.6600 570.0300 567.9600Q569.0400 565.2600 566.8800 563.5950Q564.7200 561.9300 560.8500 561.9300L560.8500 561.9300Q557.1600 561.9300 554.8650 563.6400Q552.5700 565.3500 551.5350 568.0050Q550.5000 570.6600 550.3200 573.4500L550.3200 573.4500Q550.2300 575.0700 550.2300 576.8700Q550.2300 578.6700 550.3200 580.3800L550.3200 580.3800Q550.4100 583.0800 551.5800 585.5550Q552.7500 588.0300 555.0000 589.6500Q557.2500 591.2700 560.8500 591.2700ZM619.1700 600L611.3400 600Q610.6200 600 610.0350 599.4600Q609.4500 598.9200 609.4500 598.1100L609.4500 598.1100Q609.4500 597.7500 609.6300 597.3000L609.6300 597.3000L631.3200 539.2500Q631.5900 538.3500 632.3550 537.6750Q633.1200 537 634.4700 537L634.4700 537L644.2800 537Q645.6300 537 646.3500 537.6750Q647.0700 538.3500 647.4300 539.2500L647.4300 539.2500L669.1200 597.3000Q669.2100 597.7500 669.2100 598.1100L669.2100 598.1100Q669.2100 598.9200 668.6700 599.4600Q668.1300 600 667.4100 600L667.4100 600L659.5800 600Q658.3200 600 657.7350 599.4150Q657.1500 598.8300 656.9700 598.2900L656.9700 598.2900L652.7400 587.3100L626.0100 587.3100L621.7800 598.2900Q621.6000 598.8300 621.0150 599.4150Q620.4300 600 619.1700 600L619.1700 600ZM639.3300 549.1500L629.1600 576.9600L649.5900 576.9600L639.3300 549.1500ZM699.7200 600L693.0600 600Q691.6200 600 690.9450 599.3250Q690.2700 598.6500 689.8200 597.7500L689.8200 597.7500L672.9900 555.9900Q672.8100 555.5400 672.8100 555.1800L672.8100 555.1800Q672.8100 554.3700 673.3950 553.7850Q673.9800 553.2000 674.7900 553.2000L674.7900 553.2000L682.0800 553.2000Q683.1600 553.2000 683.7000 553.7850Q684.2400 554.3700 684.4200 554.9100L684.4200 554.9100L696.3900 586.5000L708.3600 554.9100Q708.5400 554.3700 709.0800 553.7850Q709.6200 553.2000 710.7000 553.2000L710.7000 553.2000L718.0800 553.2000Q718.8000 553.2000 719.3850 553.7850Q719.9700 554.3700 719.9700 555.1800L719.9700 555.1800Q719.9700 555.5400 719.8800 555.9900L719.8800 555.9900L702.9600 597.7500Q702.6000 598.6500 701.8800 599.3250Q701.1600 600 699.7200 600L699.7200 600ZM741.7500 600.9000L741.7500 600.9000Q737.0700 600.9000 733.2900 599.0550Q729.5100 597.2100 727.3050 594.1050Q725.1000 591 725.1000 587.1300L725.1000 587.1300Q725.1000 580.8300 730.2300 577.0950Q735.3600 573.3600 743.6400 572.1000L743.6400 572.1000L755.9700 570.3000L755.9700 568.4100Q755.9700 564.6300 754.0800 562.5600Q752.1900 560.4900 747.6000 560.4900L747.6000 560.4900Q744.3600 560.4900 742.3350 561.7950Q740.3100 563.1000 739.3200 565.2600L739.3200 565.2600Q738.6000 566.4300 737.2500 566.4300L737.2500 566.4300L730.1400 566.4300Q729.1500 566.4300 728.6550 565.8900Q728.1600 565.3500 728.1600 564.4500L728.1600 564.4500Q728.2500 563.0100 729.3750 560.9400Q730.5000 558.8700 732.7950 556.9350Q735.0900 555 738.7800 553.6500Q742.4700 552.3000 747.6900 552.3000L747.6900 552.3000Q753.3600 552.3000 757.2750 553.6950Q761.1900 555.0900 763.5300 557.4300Q765.8700 559.7700 766.9500 562.9200Q768.0300 566.0700 768.0300 569.5800L768.0300 569.5800L768.0300 597.8400Q768.0300 598.7400 767.4000 599.3700Q766.7700 600 765.8700 600L765.8700 600L758.5800 600Q757.5900 600 757.0050 599.3700Q756.4200 598.7400 756.4200 597.8400L756.4200 597.8400L756.4200 594.3300Q755.2500 595.9500 753.2700 597.4800Q751.2900 599.0100 748.4550 599.9550Q745.6200 600.9000 741.7500 600.9000ZM744.8100 592.3500L744.8100 592.3500Q747.9600 592.3500 750.5250 591Q753.0900 589.6500 754.5750 586.8150Q756.0600 583.9800 756.0600 579.6600L756.0600 579.6600L756.0600 577.7700L747.0600 579.2100Q741.7500 580.0200 739.1400 581.8200Q736.5300 583.6200 736.5300 586.2300L736.5300 586.2300Q736.5300 588.2100 737.7450 589.6050Q738.9600 591 740.8500 591.6750Q742.7400 592.3500 744.8100 592.3500ZM789.6300 600L781.7100 600Q780.8100 600 780.1800 599.3700Q779.5500 598.7400 779.5500 597.8400L779.5500 597.8400L779.5500 555.3600Q779.5500 554.4600 780.1800 553.8300Q780.8100 553.2000 781.7100 553.2000L781.7100 553.2000L789.0900 553.2000Q789.9900 553.2000 790.6200 553.8300Q791.2500 554.4600 791.2500 555.3600L791.2500 555.3600L791.2500 559.0500Q793.5900 556.1700 797.2350 554.2350Q800.8800 552.3000 806.2800 552.3000L806.2800 552.3000Q811.7700 552.3000 815.8200 554.7750Q819.8700 557.2500 822.0750 561.7500Q824.2800 566.2500 824.2800 572.5500L824.2800 572.5500L824.2800 597.8400Q824.2800 598.7400 823.6500 599.3700Q823.0200 600 822.1200 600L822.1200 600L814.2000 600Q813.3000 600 812.6700 599.3700Q812.0400 598.7400 812.0400 597.8400L812.0400 597.8400L812.0400 573.0900Q812.0400 567.8700 809.4750 564.9000Q806.9100 561.9300 802.0500 561.9300L802.0500 561.9300Q797.3700 561.9300 794.5800 564.9000Q791.7900 567.8700 791.7900 573.0900L791.7900 573.0900L791.7900 597.8400Q791.7900 598.7400 791.1600 599.3700Q790.5300 600 789.6300 600L789.6300 600ZM855.8700 619.8000L855.8700 619.8000Q853.3500 619.7100 851.4150 618.9000Q849.4800 618.0900 848.6250 617.0100Q847.7700 615.9300 848.6700 615.2100L848.6700 615.2100L850.2000 613.8600Q851.0100 613.1400 851.5950 613.4550Q852.1800 613.7700 853.1250 614.3550Q854.0700 614.9400 855.8700 614.9400L855.8700 614.9400Q857.2200 614.9400 858.2100 614.0850Q859.2000 613.2300 859.2000 611.8800L859.2000 611.8800Q859.2000 610.6200 858.2550 609.8100Q857.3100 609 855.8700 609L855.8700 609Q854.6100 609 853.7100 609.3150Q852.8100 609.6300 852.0900 609.7650Q851.3700 609.9000 850.6500 609.1800L850.6500 609.1800L849.0300 607.5600Q848.4900 606.9300 848.6700 606.2550Q848.8500 605.5800 849.2100 604.7700L849.2100 604.7700L851.1000 600.4500Q843.3600 599.2800 838.7700 594.0150Q834.1800 588.7500 833.9100 580.2000L833.9100 580.2000Q833.8200 578.8500 833.8200 576.6450Q833.8200 574.4400 833.9100 573L833.9100 573Q834.1800 566.4300 836.9250 561.7950Q839.6700 557.1600 844.5750 554.7300Q849.4800 552.3000 855.9600 552.3000L855.9600 552.3000Q861.7200 552.3000 865.7700 553.8750Q869.8200 555.4500 872.4300 557.9250Q875.0400 560.4000 876.3450 563.0550Q877.6500 565.7100 877.7400 567.8700L877.7400 567.8700Q877.8300 568.8600 877.1550 569.4450Q876.4800 570.0300 875.5800 570.0300L875.5800 570.0300L867.6600 570.0300Q866.7600 570.0300 866.2650 569.5800Q865.7700 569.1300 865.3200 568.2300L865.3200 568.2300Q863.9700 564.6300 861.7650 563.1450Q859.5600 561.6600 856.1400 561.6600L856.1400 561.6600Q851.6400 561.6600 848.9850 564.4950Q846.3300 567.3300 846.1500 573.4500L846.1500 573.4500Q845.9700 576.8700 846.1500 579.7500L846.1500 579.7500Q846.3300 585.9600 848.9850 588.7500Q851.6400 591.5400 856.1400 591.5400L856.1400 591.5400Q859.6500 591.5400 861.8100 590.0550Q863.9700 588.5700 865.3200 584.9700L865.3200 584.9700Q865.7700 584.0700 866.2650 583.6200Q866.7600 583.1700 867.6600 583.1700L867.6600 583.1700L875.5800 583.1700Q876.4800 583.1700 877.1550 583.7550Q877.8300 584.3400 877.7400 585.3300L877.7400 585.3300Q877.6500 587.3100 876.3900 589.9650Q875.1300 592.6200 872.6100 595.0950Q870.0900 597.5700 866.0400 599.2350Q861.9900 600.9000 856.2300 600.9000L856.2300 600.9000L854.3400 604.7700Q854.8800 604.5000 855.8250 604.3200Q856.7700 604.1400 857.4900 604.1400L857.4900 604.1400Q860.6400 604.1400 862.5750 606.3000Q864.5100 608.4600 864.5100 611.7900L864.5100 611.7900Q864.5100 615.2100 862.2600 617.5500Q860.0100 619.8900 855.8700 619.8000ZM900.6900 600.9000L900.6900 600.9000Q896.0100 600.9000 892.2300 599.0550Q888.4500 597.2100 886.2450 594.1050Q884.0400 591 884.0400 587.1300L884.0400 587.1300Q884.0400 580.8300 889.1700 577.0950Q894.3000 573.3600 902.5800 572.1000L902.5800 572.1000L914.9100 570.3000L914.9100 568.4100Q914.9100 564.6300 913.0200 562.5600Q911.1300 560.4900 906.5400 560.4900L906.5400 560.4900Q903.3000 560.4900 901.2750 561.7950Q899.2500 563.1000 898.2600 565.2600L898.2600 565.2600Q897.5400 566.4300 896.1900 566.4300L896.1900 566.4300L889.0800 566.4300Q888.0900 566.4300 887.5950 565.8900Q887.1000 565.3500 887.1000 564.4500L887.1000 564.4500Q887.1900 563.0100 888.3150 560.9400Q889.4400 558.8700 891.7350 556.9350Q894.0300 555 897.7200 553.6500Q901.4100 552.3000 906.6300 552.3000L906.6300 552.3000Q912.3000 552.3000 916.2150 553.6950Q920.1300 555.0900 922.4700 557.4300Q924.8100 559.7700 925.8900 562.9200Q926.9700 566.0700 926.9700 569.5800L926.9700 569.5800L926.9700 597.8400Q926.9700 598.7400 926.3400 599.3700Q925.7100 600 924.8100 600L924.8100 600L917.5200 600Q916.5300 600 915.9450 599.3700Q915.3600 598.7400 915.3600 597.8400L915.3600 597.8400L915.3600 594.3300Q914.1900 595.9500 912.2100 597.4800Q910.2300 599.0100 907.3950 599.9550Q904.5600 600.9000 900.6900 600.9000ZM903.7500 592.3500L903.7500 592.3500Q906.9000 592.3500 909.4650 591Q912.0300 589.6500 913.5150 586.8150Q915.0000 583.9800 915.0000 579.6600L915.0000 579.6600L915.0000 577.7700L906.0000 579.2100Q900.6900 580.0200 898.0800 581.8200Q895.4700 583.6200 895.4700 586.2300L895.4700 586.2300Q895.4700 588.2100 896.6850 589.6050Q897.9000 591 899.7900 591.6750Q901.6800 592.3500 903.7500 592.3500ZM955.8600 600.9000L955.8600 600.9000Q951.1800 600.9000 947.6250 599.3250Q944.0700 597.7500 941.7300 594.8700Q939.3900 591.9900 938.1300 588.0750Q936.8700 584.1600 936.6900 579.4800L936.6900 579.4800Q936.6000 577.8600 936.6000 576.5550Q936.6000 575.2500 936.6900 573.6300L936.6900 573.6300Q936.8700 569.1300 938.0850 565.2600Q939.3000 561.3900 941.6850 558.4650Q944.0700 555.5400 947.6250 553.9200Q951.1800 552.3000 955.8600 552.3000L955.8600 552.3000Q960.7200 552.3000 964.0950 553.9650Q967.4700 555.6300 969.7200 558.2400L969.7200 558.2400L969.7200 538.2600Q969.7200 537.3600 970.3050 536.7300Q970.8900 536.1000 971.8800 536.1000L971.8800 536.1000L979.5300 536.1000Q980.4300 536.1000 981.0600 536.7300Q981.6900 537.3600 981.6900 538.2600L981.6900 538.2600L981.6900 597.8400Q981.6900 598.7400 981.0600 599.3700Q980.4300 600 979.5300 600L979.5300 600L972.4200 600Q971.4300 600 970.8450 599.3700Q970.2600 598.7400 970.2600 597.8400L970.2600 597.8400L970.2600 594.5100Q968.0100 597.3000 964.5450 599.1000Q961.0800 600.9000 955.8600 600.9000ZM959.1900 591.2700L959.1900 591.2700Q962.9700 591.2700 965.2200 589.5600Q967.4700 587.8500 968.5500 585.1950Q969.6300 582.5400 969.7200 579.7500L969.7200 579.7500Q969.8100 578.1300 969.8100 576.2850Q969.8100 574.4400 969.7200 572.8200L969.7200 572.8200Q969.6300 570.1200 968.4600 567.6450Q967.2900 565.1700 965.0400 563.5500Q962.7900 561.9300 959.1900 561.9300L959.1900 561.9300Q955.4100 561.9300 953.2050 563.5950Q951.0000 565.2600 950.0100 567.9600Q949.0200 570.6600 948.8400 573.9000L948.8400 573.9000Q948.7500 576.6000 948.8400 579.3000L948.8400 579.3000Q949.0200 582.5400 950.0100 585.2400Q951.0000 587.9400 953.2050 589.6050Q955.4100 591.2700 959.1900 591.2700ZM1014.3600 600.9000L1014.3600 600.9000Q1007.1600 600.9000 1002.2550 598.3800Q997.3500 595.8600 994.7850 591.2700Q992.2200 586.6800 991.8600 580.5600L991.8600 580.5600Q991.7700 578.9400 991.7700 576.6000Q991.7700 574.2600 991.8600 572.6400L991.8600 572.6400Q992.2200 566.4300 994.8750 561.8850Q997.5300 557.3400 1002.4350 554.8200Q1007.3400 552.3000 1014.3600 552.3000L1014.3600 552.3000Q1021.3800 552.3000 1026.2850 554.8200Q1031.1900 557.3400 1033.8450 561.8850Q1036.5000 566.4300 1036.8600 572.6400L1036.8600 572.6400Q1036.9500 574.2600 1036.9500 576.6000Q1036.9500 578.9400 1036.8600 580.5600L1036.8600 580.5600Q1036.5000 586.6800 1033.9350 591.2700Q1031.3700 595.8600 1026.4650 598.3800Q1021.5600 600.9000 1014.3600 600.9000ZM1014.3600 591.9900L1014.3600 591.9900Q1019.1300 591.9900 1021.7400 588.9750Q1024.3500 585.9600 1024.6200 580.1100L1024.6200 580.1100Q1024.7100 578.7600 1024.7100 576.6000Q1024.7100 574.4400 1024.6200 573.0900L1024.6200 573.0900Q1024.3500 567.2400 1021.7400 564.2250Q1019.1300 561.2100 1014.3600 561.2100L1014.3600 561.2100Q1009.5900 561.2100 1006.9800 564.2250Q1004.3700 567.2400 1004.1000 573.0900L1004.1000 573.0900Q1004.0100 574.4400 1004.0100 576.6000Q1004.0100 578.7600 1004.1000 580.1100L1004.1000 580.1100Q1004.3700 585.9600 1006.9800 588.9750Q1009.5900 591.9900 1014.3600 591.9900Z" id="title"/><path d="M1408.9600 640L1388.9400 640Q1386.5200 640 1385.0900 638.4600Q1383.6600 636.9200 1383.6600 634.7200L1383.6600 634.7200L1383.6600 520.7600L1350.2200 546.5000Q1348.2400 547.8200 1346.2600 547.4900Q1344.2800 547.1600 1342.7400 545.1800L1342.7400 545.1800L1333.5000 533.3000Q1332.1800 531.3200 1332.5100 529.1200Q1332.8400 526.9200 1334.8200 525.6000L1334.8200 525.6000L1384.1000 487.5400Q1385.4200 486.4400 1386.7400 486.2200Q1388.0600 486 1389.6000 486L1389.6000 486L1408.9600 486Q1411.1600 486 1412.7000 487.5400Q1414.2400 489.0800 1414.2400 491.2800L1414.2400 491.2800L1414.2400 634.7200Q1414.2400 636.9200 1412.7000 638.4600Q1411.1600 640 1408.9600 640L1408.9600 640ZM1498.2800 642.2000L1498.2800 642.2000Q1482.8800 642.2000 1471.6600 638.4600Q1460.4400 634.7200 1453.0700 628.6700Q1445.7000 622.6200 1441.9600 615.4700Q1438.2200 608.3200 1438 601.2800L1438 601.2800Q1438 599.3000 1439.4300 598.0900Q1440.8600 596.8800 1442.8400 596.8800L1442.8400 596.8800L1462.6400 596.8800Q1464.8400 596.8800 1466.3800 597.7600Q1467.9200 598.6400 1469.0200 601.2800L1469.0200 601.2800Q1471 607.2200 1475.5100 610.7400Q1480.0200 614.2600 1485.9600 615.6900Q1491.9000 617.1200 1498.5000 617.1200L1498.5000 617.1200Q1511.7000 617.1200 1519.5100 610.8500Q1527.3200 604.5800 1527.3200 592.9200L1527.3200 592.9200Q1527.3200 581.2600 1520.0600 576.0900Q1512.8000 570.9200 1499.8200 570.9200L1499.8200 570.9200L1477.1600 570.9200Q1474.7400 570.9200 1473.2000 569.4900Q1471.6600 568.0600 1471.6600 565.6400L1471.6600 565.6400L1471.6600 556.4000Q1471.6600 554.2000 1472.6500 552.5500Q1473.6400 550.9000 1474.7400 549.8000L1474.7400 549.8000L1514.1200 511.3000L1451.2000 511.3000Q1448.7800 511.3000 1447.3500 509.7600Q1445.9200 508.2200 1445.9200 506.0200L1445.9200 506.0200L1445.9200 491.5000Q1445.9200 489.0800 1447.3500 487.5400Q1448.7800 486 1451.2000 486L1451.2000 486L1545.5800 486Q1548 486 1549.5400 487.5400Q1551.0800 489.0800 1551.0800 491.5000L1551.0800 491.5000L1551.0800 504.7000Q1551.0800 506.6800 1550.2000 508.2200Q1549.3200 509.7600 1548.2200 510.8600L1548.2200 510.8600L1510.1600 550.0200L1512.8000 550.2400Q1526.2200 551.3400 1536.6700 556.2900Q1547.1200 561.2400 1552.9500 570.7000Q1558.7800 580.1600 1558.7800 594.4600L1558.7800 594.4600Q1558.7800 609.4200 1550.9700 620.0900Q1543.1600 630.7600 1529.5200 636.4800Q1515.8800 642.2000 1498.2800 642.2000ZM1608.9400 640L1586.9400 640Q1584.7400 640 1583.2000 638.4600Q1581.6600 636.9200 1581.6600 634.7200L1581.6600 634.7200L1581.6600 612.9400Q1581.6600 610.5200 1583.2000 608.9800Q1584.7400 607.4400 1586.9400 607.4400L1586.9400 607.4400L1608.9400 607.4400Q1611.1400 607.4400 1612.6800 608.9800Q1614.2200 610.5200 1614.2200 612.9400L1614.2200 612.9400L1614.2200 634.7200Q1614.2200 636.9200 1612.6800 638.4600Q1611.1400 640 1608.9400 640L1608.9400 640ZM1694.7400 642.4200L1694.7400 642.4200Q1675.8200 642.4200 1662.8400 636.1500Q1649.8600 629.8800 1643.1500 619.7600Q1636.4400 609.6400 1636.0000 598.2000L1636.0000 598.2000Q1635.7800 596.2200 1637.2100 595.0100Q1638.6400 593.8000 1640.6200 593.8000L1640.6200 593.8000L1661.0800 593.8000Q1663.5000 593.8000 1665.1500 594.7900Q1666.8000 595.7800 1667.6800 598.2000L1667.6800 598.2000Q1669.8800 604.8000 1673.9500 608.9800Q1678.0200 613.1600 1683.4100 615.1400Q1688.8000 617.1200 1694.7400 617.1200L1694.7400 617.1200Q1702.6600 617.1200 1709.1500 613.9300Q1715.6400 610.7400 1719.6000 604.3600Q1723.5600 597.9800 1723.5600 588.7400L1723.5600 588.7400Q1723.5600 580.6000 1719.8200 574.6600Q1716.0800 568.7200 1709.5900 565.3100Q1703.1000 561.9000 1694.7400 561.9000L1694.7400 561.9000Q1688.5800 561.9000 1684.6200 563.4400Q1680.6600 564.9800 1677.9100 566.9600Q1675.1600 568.9400 1673.0700 570.4800Q1670.9800 572.0200 1668.3400 572.0200L1668.3400 572.0200L1648.1000 572.0200Q1646.1200 572.0200 1644.6900 570.5900Q1643.2600 569.1600 1643.2600 567.1800L1643.2600 567.1800L1650.9600 491.9400Q1651.1800 489.0800 1652.9400 487.5400Q1654.7000 486 1657.1200 486L1657.1200 486L1739.8400 486Q1742.0400 486 1743.5800 487.5400Q1745.1200 489.0800 1745.1200 491.2800L1745.1200 491.2800L1745.1200 506.0200Q1745.1200 508.2200 1743.5800 509.7600Q1742.0400 511.3000 1739.8400 511.3000L1739.8400 511.3000L1676.2600 511.3000L1672.7400 547.1600Q1676.7000 544.5200 1683.3000 542.1000Q1689.9000 539.6800 1701.5600 539.6800L1701.5600 539.6800Q1712.1200 539.6800 1721.6900 543.0900Q1731.2600 546.5000 1738.7400 552.9900Q1746.2200 559.4800 1750.5100 568.6100Q1754.8000 577.7400 1754.8000 589.4000L1754.8000 589.4000Q1754.8000 605.4600 1747.3200 617.3400Q1739.8400 629.2200 1726.4200 635.8200Q1713.0000 642.4200 1694.7400 642.4200Z" id="lecture-full-number"/></g></svg>