<svg xmlns="http://www.w3.org/2000/svg" version="1.1" xmlns:xlink="http://www.w3.org/1999/xlink" xmlns:svgjs="http://svgjs.dev/svgjs" viewBox="0 0 1920 1080" id="30f17068-1597-4f56-a690-ed410dddf24c"><g><rect width="1920" height="1080" fill="#baf2bb"/></g><g fill="#f2e2ba"><path d="M865 270L865 2467C258.907 2467 -232 1976.03 -232 1369.87C-232 760.965 258.907 270 865 270Z"/></g><g fill="#ffffff" opacity="0.4"><path d="M1829.66 1149.02C1826.52 1125.1 1822.11 1101.18 1817.7 1077.89L1577.22 1318.37H1660.32L1829.66 1149.02Z"/><path d="M1798.82 998.567C1793.15 977.163 1786.23 955.759 1779.3 934.984L1395.92 1319H1479.02L1798.82 998.567Z"/><path d="M1752.86 863.214C1744.68 843.698 1736.5 824.183 1727.68 805.297L1214.61 1319H1297.71L1752.86 863.214Z"/><path d="M1694.32 739.83C1684.88 722.203 1674.17 704.576 1664.1 686.949L1147.89 1203.8C1152.92 1227.72 1156.7 1251.64 1158.59 1276.19L1694.32 739.83Z"/><path d="M1625.07 627.77C1613.73 611.402 1601.77 595.664 1589.81 579.926L1098.78 1071.59C1108.22 1089.85 1117.03 1109.36 1124.59 1128.88L1625.07 627.77Z"/><path d="M1546.38 525.789C1533.79 510.68 1520.57 496.201 1506.72 482.352L1025.12 964.574C1038.35 979.053 1050.31 994.791 1061.64 1011.16L1546.38 525.789Z"/><path d="M1457.61 433.249C1443.13 420.029 1428.65 406.809 1413.54 394.219L928.802 879.589C945.17 890.92 960.908 902.881 975.387 916.101L1457.61 433.249Z"/><path d="M1358.78 350.148C1343.04 338.187 1326.67 326.855 1310.3 315.523L808.564 817.891C828.709 825.445 847.595 833.629 866.481 843.072L1358.78 350.148Z"/><path d="M1251.12 276.495C1233.5 265.793 1215.87 255.72 1198.24 246.277L659.364 785.787C684.545 787.046 709.097 790.194 733.019 795.23L1251.12 276.495Z"/><path d="M1132.14 214.166C1113.26 205.352 1093.74 197.168 1074.23 188.984L626.627 637.212V720.31L1132.14 214.166Z"/><path d="M1001.83 163.175C980.427 156.25 959.023 149.955 937.619 144.289L626 455.908V539.006L1001.83 163.175Z"/><path d="M857.666 126.035C834.373 121.628 810.451 117.851 786.529 114.074L626.627 274.605V357.703L857.666 126.035Z"/><path d="M626.626 176.396L697.134 105.889C673.841 104.629 650.548 104 626.626 104V176.396Z"/></g><g><path d="M178.635 139.281L184.422 144.246V166.626H215.704L219.958 172.147L215.69 177.397H184.422V198.795L178.635 203.747L173 198.795V144.232L178.635 139.281ZM195.554 195.68H219.406L223.397 200.915L219.143 206.45H195.554L191.7 201.342L195.554 195.68ZM196.382 138H219.129L223.383 143.52L219.129 148.77H196.659L192.115 143.677L196.382 138ZM323.155 148.628L328.251 154.291L323.155 159.968H246.13L241.172 154.291L246.13 148.628H323.155ZM237.043 172.147L241.849 167.893L246.669 172.147V178.393C246.669 188.879 249.417 197.515 261.668 197.515H264.14C275.147 197.515 281.197 189.86 281.197 177.952V172.005L285.879 167.75L290.699 171.862V178.379C290.699 189.007 293.723 196.946 305.56 196.946H307.618C319.178 196.946 321.235 187.869 321.373 177.952V171.578L326.056 167.608L331 171.72V178.094C330.862 191.838 327.285 207.574 308.032 207.574H305.974C294.552 207.574 288.365 202.324 285.892 195.808C283.006 202.466 275.299 208.286 264.844 208.286H262.358C242.553 208.286 237.194 195.964 237.056 178.663V172.147H237.043ZM276.391 274.744L273.642 267.089L280.796 264.969L305.974 276.721V252.491L311.07 248.095L316.291 252.491V281.829L325.641 286.226L328.251 293.311L320.959 296L276.391 274.744ZM321.235 223.011L328.113 226.27L325.917 233.497L264.002 263.119L256.571 260.146L259.596 252.776L321.235 223.011ZM231.905 263.404L237.954 268.512C237.402 286.51 222.403 296 204.669 296H202.874C194.062 296 183.759 292.6 177.157 286.083L177.834 278.855L184.298 278.002C189.118 282.256 195.858 285.229 202.183 285.229H204.117C216.091 285.229 225.303 280.136 226.27 268.085L231.905 263.404ZM226.256 251.638C225.704 239.16 216.629 234.209 204.103 234.209H202.169C194.739 234.209 189.104 237.182 184.284 241.436L177.834 240.583L177.143 233.355C183.745 226.696 192.957 223.58 202.597 223.58H204.517C222.403 223.58 237.402 232.942 237.94 251.211L231.891 256.176L226.256 251.638Z" fill="#000000"/></g><path d="M1171 781L1171 339L1187 339L1187 781L1171 781Z" fill="#000000"/><g fill="#000000" id="info-group"><path d="M198.2400 510L159.1800 510Q158.2800 510 157.6500 509.3700Q157.0200 508.7400 157.0200 507.8400L157.0200 507.8400L157.0200 449.1600Q157.0200 448.2600 157.6500 447.6300Q158.2800 447 159.1800 447L159.1800 447L167.5500 447Q168.4500 447 169.0800 447.6300Q169.7100 448.2600 169.7100 449.1600L169.7100 449.1600L169.7100 499.2900L198.2400 499.2900Q199.2300 499.2900 199.8600 499.9200Q200.4900 500.5500 200.4900 501.5400L200.4900 501.5400L200.4900 507.8400Q200.4900 508.7400 199.8600 509.3700Q199.2300 510 198.2400 510L198.2400 510ZM221.7300 510.9000L221.7300 510.9000Q217.0500 510.9000 213.2700 509.0550Q209.4900 507.2100 207.2850 504.1050Q205.0800 501 205.0800 497.1300L205.0800 497.1300Q205.0800 490.8300 210.2100 487.0950Q215.3400 483.3600 223.6200 482.1000L223.6200 482.1000L235.9500 480.3000L235.9500 478.4100Q235.9500 474.6300 234.0600 472.5600Q232.1700 470.4900 227.5800 470.4900L227.5800 470.4900Q224.3400 470.4900 222.3150 471.7950Q220.2900 473.1000 219.3000 475.2600L219.3000 475.2600Q218.5800 476.4300 217.2300 476.4300L217.2300 476.4300L210.1200 476.4300Q209.1300 476.4300 208.6350 475.8900Q208.1400 475.3500 208.1400 474.4500L208.1400 474.4500Q208.2300 473.0100 209.3550 470.9400Q210.4800 468.8700 212.7750 466.9350Q215.0700 465 218.7600 463.6500Q222.4500 462.3000 227.6700 462.3000L227.6700 462.3000Q233.3400 462.3000 237.2550 463.6950Q241.1700 465.0900 243.5100 467.4300Q245.8500 469.7700 246.9300 472.9200Q248.0100 476.0700 248.0100 479.5800L248.0100 479.5800L248.0100 507.8400Q248.0100 508.7400 247.3800 509.3700Q246.7500 510 245.8500 510L245.8500 510L238.5600 510Q237.5700 510 236.9850 509.3700Q236.4000 508.7400 236.4000 507.8400L236.4000 507.8400L236.4000 504.3300Q235.2300 505.9500 233.2500 507.4800Q231.2700 509.0100 228.4350 509.9550Q225.6000 510.9000 221.7300 510.9000ZM224.7900 502.3500L224.7900 502.3500Q227.9400 502.3500 230.5050 501Q233.0700 499.6500 234.5550 496.8150Q236.0400 493.9800 236.0400 489.6600L236.0400 489.6600L236.0400 487.7700L227.0400 489.2100Q221.7300 490.0200 219.1200 491.8200Q216.5100 493.6200 216.5100 496.2300L216.5100 496.2300Q216.5100 498.2100 217.7250 499.6050Q218.9400 501 220.8300 501.6750Q222.7200 502.3500 224.7900 502.3500ZM269.6100 510L261.6900 510Q260.7900 510 260.1600 509.3700Q259.5300 508.7400 259.5300 507.8400L259.5300 507.8400L259.5300 465.3600Q259.5300 464.4600 260.1600 463.8300Q260.7900 463.2000 261.6900 463.2000L261.6900 463.2000L269.0700 463.2000Q269.9700 463.2000 270.6000 463.8300Q271.2300 464.4600 271.2300 465.3600L271.2300 465.3600L271.2300 469.0500Q273.5700 466.1700 277.2150 464.2350Q280.8600 462.3000 286.2600 462.3000L286.2600 462.3000Q291.7500 462.3000 295.8000 464.7750Q299.8500 467.2500 302.0550 471.7500Q304.2600 476.2500 304.2600 482.5500L304.2600 482.5500L304.2600 507.8400Q304.2600 508.7400 303.6300 509.3700Q303 510 302.1000 510L302.1000 510L294.1800 510Q293.2800 510 292.6500 509.3700Q292.0200 508.7400 292.0200 507.8400L292.0200 507.8400L292.0200 483.0900Q292.0200 477.8700 289.4550 474.9000Q286.8900 471.9300 282.0300 471.9300L282.0300 471.9300Q277.3500 471.9300 274.5600 474.9000Q271.7700 477.8700 271.7700 483.0900L271.7700 483.0900L271.7700 507.8400Q271.7700 508.7400 271.1400 509.3700Q270.5100 510 269.6100 510L269.6100 510ZM333.0600 510.9000L333.0600 510.9000Q328.3800 510.9000 324.8250 509.3250Q321.2700 507.7500 318.9300 504.8700Q316.5900 501.9900 315.3300 498.0750Q314.0700 494.1600 313.8900 489.4800L313.8900 489.4800Q313.8000 487.8600 313.8000 486.5550Q313.8000 485.2500 313.8900 483.6300L313.8900 483.6300Q314.0700 479.1300 315.2850 475.2600Q316.5000 471.3900 318.8850 468.4650Q321.2700 465.5400 324.8250 463.9200Q328.3800 462.3000 333.0600 462.3000L333.0600 462.3000Q337.9200 462.3000 341.2950 463.9650Q344.6700 465.6300 346.9200 468.2400L346.9200 468.2400L346.9200 448.2600Q346.9200 447.3600 347.5050 446.7300Q348.0900 446.1000 349.0800 446.1000L349.0800 446.1000L356.7300 446.1000Q357.6300 446.1000 358.2600 446.7300Q358.8900 447.3600 358.8900 448.2600L358.8900 448.2600L358.8900 507.8400Q358.8900 508.7400 358.2600 509.3700Q357.6300 510 356.7300 510L356.7300 510L349.6200 510Q348.6300 510 348.0450 509.3700Q347.4600 508.7400 347.4600 507.8400L347.4600 507.8400L347.4600 504.5100Q345.2100 507.3000 341.7450 509.1000Q338.2800 510.9000 333.0600 510.9000ZM336.3900 501.2700L336.3900 501.2700Q340.1700 501.2700 342.4200 499.5600Q344.6700 497.8500 345.7500 495.1950Q346.8300 492.5400 346.9200 489.7500L346.9200 489.7500Q347.0100 488.1300 347.0100 486.2850Q347.0100 484.4400 346.9200 482.8200L346.9200 482.8200Q346.8300 480.1200 345.6600 477.6450Q344.4900 475.1700 342.2400 473.5500Q339.9900 471.9300 336.3900 471.9300L336.3900 471.9300Q332.6100 471.9300 330.4050 473.5950Q328.2000 475.2600 327.2100 477.9600Q326.2200 480.6600 326.0400 483.9000L326.0400 483.9000Q325.9500 486.6000 326.0400 489.3000L326.0400 489.3000Q326.2200 492.5400 327.2100 495.2400Q328.2000 497.9400 330.4050 499.6050Q332.6100 501.2700 336.3900 501.2700ZM380.4900 510L373.0200 510Q372.1200 510 371.4900 509.3700Q370.8600 508.7400 370.8600 507.8400L370.8600 507.8400L370.8600 465.3600Q370.8600 464.4600 371.4900 463.8300Q372.1200 463.2000 373.0200 463.2000L373.0200 463.2000L380.4900 463.2000Q381.4800 463.2000 382.0650 463.8300Q382.6500 464.4600 382.6500 465.3600L382.6500 465.3600L382.6500 507.8400Q382.6500 508.7400 382.0650 509.3700Q381.4800 510 380.4900 510L380.4900 510ZM380.8500 455.4600L372.6600 455.4600Q371.7600 455.4600 371.1300 454.8300Q370.5000 454.2000 370.5000 453.3000L370.5000 453.3000L370.5000 446.8200Q370.5000 445.9200 371.1300 445.2900Q371.7600 444.6600 372.6600 444.6600L372.6600 444.6600L380.8500 444.6600Q381.8400 444.6600 382.4700 445.2900Q383.1000 445.9200 383.1000 446.8200L383.1000 446.8200L383.1000 453.3000Q383.1000 454.2000 382.4700 454.8300Q381.8400 455.4600 380.8500 455.4600L380.8500 455.4600ZM404.7000 510L396.7800 510Q395.8800 510 395.2500 509.3700Q394.6200 508.7400 394.6200 507.8400L394.6200 507.8400L394.6200 465.3600Q394.6200 464.4600 395.2500 463.8300Q395.8800 463.2000 396.7800 463.2000L396.7800 463.2000L404.1600 463.2000Q405.0600 463.2000 405.6900 463.8300Q406.3200 464.4600 406.3200 465.3600L406.3200 465.3600L406.3200 469.0500Q408.6600 466.1700 412.3050 464.2350Q415.9500 462.3000 421.3500 462.3000L421.3500 462.3000Q426.8400 462.3000 430.8900 464.7750Q434.9400 467.2500 437.1450 471.7500Q439.3500 476.2500 439.3500 482.5500L439.3500 482.5500L439.3500 507.8400Q439.3500 508.7400 438.7200 509.3700Q438.0900 510 437.1900 510L437.1900 510L429.2700 510Q428.3700 510 427.7400 509.3700Q427.1100 508.7400 427.1100 507.8400L427.1100 507.8400L427.1100 483.0900Q427.1100 477.8700 424.5450 474.9000Q421.9800 471.9300 417.1200 471.9300L417.1200 471.9300Q412.4400 471.9300 409.6500 474.9000Q406.8600 477.8700 406.8600 483.0900L406.8600 483.0900L406.8600 507.8400Q406.8600 508.7400 406.2300 509.3700Q405.6000 510 404.7000 510L404.7000 510ZM471.9300 529.8000L471.9300 529.8000Q465.3600 529.8000 461.1300 528.0900Q456.9000 526.3800 454.4700 523.9500Q452.0400 521.5200 451.0050 519.1350Q449.9700 516.7500 449.8800 515.4000L449.8800 515.4000Q449.7900 514.5000 450.4650 513.8250Q451.1400 513.1500 452.0400 513.1500L452.0400 513.1500L459.8700 513.1500Q460.7700 513.1500 461.3100 513.5550Q461.8500 513.9600 462.2100 515.0400L462.2100 515.0400Q462.7500 516.2100 463.6500 517.5600Q464.5500 518.9100 466.3950 519.8550Q468.2400 520.8000 471.4800 520.8000L471.4800 520.8000Q474.9000 520.8000 477.2400 519.8100Q479.5800 518.8200 480.7950 516.4800Q482.0100 514.1400 482.0100 510L482.0100 510L482.0100 503.8800Q479.8500 506.4900 476.4750 508.1100Q473.1000 509.7300 468.1500 509.7300L468.1500 509.7300Q463.3800 509.7300 459.8250 508.1550Q456.2700 506.5800 453.9300 503.7450Q451.5900 500.9100 450.3750 497.0400Q449.1600 493.1700 448.9800 488.4900L448.9800 488.4900Q448.8900 486.0600 448.9800 483.6300L448.9800 483.6300Q449.1600 479.1300 450.3750 475.2600Q451.5900 471.3900 453.9300 468.4650Q456.2700 465.5400 459.8250 463.9200Q463.3800 462.3000 468.1500 462.3000L468.1500 462.3000Q473.2800 462.3000 476.7900 464.2350Q480.3000 466.1700 482.5500 469.0500L482.5500 469.0500L482.5500 465.4500Q482.5500 464.4600 483.1800 463.8300Q483.8100 463.2000 484.7100 463.2000L484.7100 463.2000L492 463.2000Q492.9000 463.2000 493.5300 463.8300Q494.1600 464.4600 494.1600 465.4500L494.1600 465.4500L494.2500 508.8300Q494.2500 515.3100 491.8200 519.9900Q489.3900 524.6700 484.4850 527.2350Q479.5800 529.8000 471.9300 529.8000ZM471.4800 500.1900L471.4800 500.1900Q475.1700 500.1900 477.4200 498.5700Q479.6700 496.9500 480.7500 494.3400Q481.8300 491.7300 482.0100 489.0300L482.0100 489.0300Q482.1000 487.8600 482.1000 486.0600Q482.1000 484.2600 482.0100 483.1800L482.0100 483.1800Q481.8300 480.3900 480.7500 477.8250Q479.6700 475.2600 477.4200 473.5950Q475.1700 471.9300 471.4800 471.9300L471.4800 471.9300Q467.7900 471.9300 465.5400 473.5950Q463.2900 475.2600 462.3450 477.9600Q461.4000 480.6600 461.2200 483.9000L461.2200 483.9000Q461.0400 486.0600 461.2200 488.3100L461.2200 488.3100Q461.4000 491.4600 462.3450 494.2050Q463.2900 496.9500 465.5400 498.5700Q467.7900 500.1900 471.4800 500.1900ZM538.6200 510L530.0700 510Q529.1700 510 528.5400 509.3700Q527.9100 508.7400 527.9100 507.8400L527.9100 507.8400L527.9100 449.2500Q527.9100 448.2600 528.5400 447.6300Q529.1700 447 530.0700 447L530.0700 447L554.1900 447Q561.2100 447 566.4300 449.2050Q571.6500 451.4100 574.5300 455.8650Q577.4100 460.3200 577.4100 466.9800L577.4100 466.9800Q577.4100 473.7300 574.5300 478.0950Q571.6500 482.4600 566.4300 484.6200Q561.2100 486.7800 554.1900 486.7800L554.1900 486.7800L540.7800 486.7800L540.7800 507.8400Q540.7800 508.7400 540.1950 509.3700Q539.6100 510 538.6200 510L538.6200 510ZM540.6000 456.9900L540.6000 476.7900L553.7400 476.7900Q558.9600 476.7900 561.7500 474.3150Q564.5400 471.8400 564.5400 466.9800L564.5400 466.9800Q564.5400 462.4800 561.9300 459.7350Q559.3200 456.9900 553.7400 456.9900L553.7400 456.9900L540.6000 456.9900ZM599.7300 510.9000L599.7300 510.9000Q595.0500 510.9000 591.2700 509.0550Q587.4900 507.2100 585.2850 504.1050Q583.0800 501 583.0800 497.1300L583.0800 497.1300Q583.0800 490.8300 588.2100 487.0950Q593.3400 483.3600 601.6200 482.1000L601.6200 482.1000L613.9500 480.3000L613.9500 478.4100Q613.9500 474.6300 612.0600 472.5600Q610.1700 470.4900 605.5800 470.4900L605.5800 470.4900Q602.3400 470.4900 600.3150 471.7950Q598.2900 473.1000 597.3000 475.2600L597.3000 475.2600Q596.5800 476.4300 595.2300 476.4300L595.2300 476.4300L588.1200 476.4300Q587.1300 476.4300 586.6350 475.8900Q586.1400 475.3500 586.1400 474.4500L586.1400 474.4500Q586.2300 473.0100 587.3550 470.9400Q588.4800 468.8700 590.7750 466.9350Q593.0700 465 596.7600 463.6500Q600.4500 462.3000 605.6700 462.3000L605.6700 462.3000Q611.3400 462.3000 615.2550 463.6950Q619.1700 465.0900 621.5100 467.4300Q623.8500 469.7700 624.9300 472.9200Q626.0100 476.0700 626.0100 479.5800L626.0100 479.5800L626.0100 507.8400Q626.0100 508.7400 625.3800 509.3700Q624.7500 510 623.8500 510L623.8500 510L616.5600 510Q615.5700 510 614.9850 509.3700Q614.4000 508.7400 614.4000 507.8400L614.4000 507.8400L614.4000 504.3300Q613.2300 505.9500 611.2500 507.4800Q609.2700 509.0100 606.4350 509.9550Q603.6000 510.9000 599.7300 510.9000ZM602.7900 502.3500L602.7900 502.3500Q605.9400 502.3500 608.5050 501Q611.0700 499.6500 612.5550 496.8150Q614.0400 493.9800 614.0400 489.6600L614.0400 489.6600L614.0400 487.7700L605.0400 489.2100Q599.7300 490.0200 597.1200 491.8200Q594.5100 493.6200 594.5100 496.2300L594.5100 496.2300Q594.5100 498.2100 595.7250 499.6050Q596.9400 501 598.8300 501.6750Q600.7200 502.3500 602.7900 502.3500ZM658.6800 529.8000L658.6800 529.8000Q652.1100 529.8000 647.8800 528.0900Q643.6500 526.3800 641.2200 523.9500Q638.7900 521.5200 637.7550 519.1350Q636.7200 516.7500 636.6300 515.4000L636.6300 515.4000Q636.5400 514.5000 637.2150 513.8250Q637.8900 513.1500 638.7900 513.1500L638.7900 513.1500L646.6200 513.1500Q647.5200 513.1500 648.0600 513.5550Q648.6000 513.9600 648.9600 515.0400L648.9600 515.0400Q649.5000 516.2100 650.4000 517.5600Q651.3000 518.9100 653.1450 519.8550Q654.9900 520.8000 658.2300 520.8000L658.2300 520.8000Q661.6500 520.8000 663.9900 519.8100Q666.3300 518.8200 667.5450 516.4800Q668.7600 514.1400 668.7600 510L668.7600 510L668.7600 503.8800Q666.6000 506.4900 663.2250 508.1100Q659.8500 509.7300 654.9000 509.7300L654.9000 509.7300Q650.1300 509.7300 646.5750 508.1550Q643.0200 506.5800 640.6800 503.7450Q638.3400 500.9100 637.1250 497.0400Q635.9100 493.1700 635.7300 488.4900L635.7300 488.4900Q635.6400 486.0600 635.7300 483.6300L635.7300 483.6300Q635.9100 479.1300 637.1250 475.2600Q638.3400 471.3900 640.6800 468.4650Q643.0200 465.5400 646.5750 463.9200Q650.1300 462.3000 654.9000 462.3000L654.9000 462.3000Q660.0300 462.3000 663.5400 464.2350Q667.0500 466.1700 669.3000 469.0500L669.3000 469.0500L669.3000 465.4500Q669.3000 464.4600 669.9300 463.8300Q670.5600 463.2000 671.4600 463.2000L671.4600 463.2000L678.7500 463.2000Q679.6500 463.2000 680.2800 463.8300Q680.9100 464.4600 680.9100 465.4500L680.9100 465.4500L681.0000 508.8300Q681.0000 515.3100 678.5700 519.9900Q676.1400 524.6700 671.2350 527.2350Q666.3300 529.8000 658.6800 529.8000ZM658.2300 500.1900L658.2300 500.1900Q661.9200 500.1900 664.1700 498.5700Q666.4200 496.9500 667.5000 494.3400Q668.5800 491.7300 668.7600 489.0300L668.7600 489.0300Q668.8500 487.8600 668.8500 486.0600Q668.8500 484.2600 668.7600 483.1800L668.7600 483.1800Q668.5800 480.3900 667.5000 477.8250Q666.4200 475.2600 664.1700 473.5950Q661.9200 471.9300 658.2300 471.9300L658.2300 471.9300Q654.5400 471.9300 652.2900 473.5950Q650.0400 475.2600 649.0950 477.9600Q648.1500 480.6600 647.9700 483.9000L647.9700 483.9000Q647.7900 486.0600 647.9700 488.3100L647.9700 488.3100Q648.1500 491.4600 649.0950 494.2050Q650.0400 496.9500 652.2900 498.5700Q654.5400 500.1900 658.2300 500.1900ZM713.1300 510.9000L713.1300 510.9000Q703.1400 510.9000 697.2900 505.1400Q691.4400 499.3800 690.9900 488.7600L690.9900 488.7600Q690.9000 487.8600 690.9000 486.4650Q690.9000 485.0700 690.9900 484.2600L690.9900 484.2600Q691.3500 477.4200 694.0950 472.5150Q696.8400 467.6100 701.7000 464.9550Q706.5600 462.3000 713.1300 462.3000L713.1300 462.3000Q720.4200 462.3000 725.3700 465.3150Q730.3200 468.3300 732.8400 473.6850Q735.3600 479.0400 735.3600 486.0600L735.3600 486.0600L735.3600 487.9500Q735.3600 488.8500 734.7300 489.4800Q734.1000 490.1100 733.1100 490.1100L733.1100 490.1100L703.2300 490.1100Q703.2300 490.1100 703.2300 490.3800Q703.2300 490.6500 703.2300 490.8300L703.2300 490.8300Q703.3200 493.9800 704.4450 496.6350Q705.5700 499.2900 707.7750 500.9100Q709.9800 502.5300 713.0400 502.5300L713.0400 502.5300Q715.5600 502.5300 717.2700 501.7650Q718.9800 501 720.0600 500.0100Q721.1400 499.0200 721.5900 498.3900L721.5900 498.3900Q722.4000 497.3100 722.8950 497.0850Q723.3900 496.8600 724.3800 496.8600L724.3800 496.8600L732.1200 496.8600Q733.0200 496.8600 733.6050 497.4000Q734.1900 497.9400 734.1000 498.7500L734.1000 498.7500Q734.0100 500.1900 732.6150 502.2600Q731.2200 504.3300 728.6100 506.3100Q726 508.2900 722.0850 509.5950Q718.1700 510.9000 713.1300 510.9000ZM703.2300 482.2800L703.2300 482.5500L723.1200 482.5500L723.1200 482.2800Q723.1200 478.7700 721.9500 476.1150Q720.7800 473.4600 718.5300 471.9750Q716.2800 470.4900 713.1300 470.4900L713.1300 470.4900Q709.9800 470.4900 707.7300 471.9750Q705.4800 473.4600 704.3550 476.1150Q703.2300 478.7700 703.2300 482.2800L703.2300 482.2800ZM795.0300 488.1300L767.4000 488.1300Q766.4100 488.1300 765.8250 487.5000Q765.2400 486.8700 765.2400 485.9700L765.2400 485.9700L765.2400 480.0300Q765.2400 479.1300 765.8250 478.5000Q766.4100 477.8700 767.4000 477.8700L767.4000 477.8700L795.0300 477.8700Q795.9300 477.8700 796.5600 478.5000Q797.1900 479.1300 797.1900 480.0300L797.1900 480.0300L797.1900 485.9700Q797.1900 486.8700 796.5600 487.5000Q795.9300 488.1300 795.0300 488.1300L795.0300 488.1300ZM167.7300 600L159.1800 600Q158.2800 600 157.6500 599.3700Q157.0200 598.7400 157.0200 597.8400L157.0200 597.8400L157.0200 539.2500Q157.0200 538.2600 157.6500 537.6300Q158.2800 537 159.1800 537L159.1800 537L183.3000 537Q190.3200 537 195.5400 539.2050Q200.7600 541.4100 203.6400 545.8650Q206.5200 550.3200 206.5200 556.9800L206.5200 556.9800Q206.5200 563.7300 203.6400 568.0950Q200.7600 572.4600 195.5400 574.6200Q190.3200 576.7800 183.3000 576.7800L183.3000 576.7800L169.8900 576.7800L169.8900 597.8400Q169.8900 598.7400 169.3050 599.3700Q168.7200 600 167.7300 600L167.7300 600ZM169.7100 546.9900L169.7100 566.7900L182.8500 566.7900Q188.0700 566.7900 190.8600 564.3150Q193.6500 561.8400 193.6500 556.9800L193.6500 556.9800Q193.6500 552.4800 191.0400 549.7350Q188.4300 546.9900 182.8500 546.9900L182.8500 546.9900L169.7100 546.9900ZM225.2400 600L217.4100 600Q216.5100 600 215.8800 599.3700Q215.2500 598.7400 215.2500 597.8400L215.2500 597.8400L215.2500 555.4500Q215.2500 554.4600 215.8800 553.8300Q216.5100 553.2000 217.4100 553.2000L217.4100 553.2000L224.7000 553.2000Q225.6000 553.2000 226.2750 553.8300Q226.9500 554.4600 226.9500 555.4500L226.9500 555.4500L226.9500 559.1400Q229.0200 556.2600 232.3050 554.7300Q235.5900 553.2000 239.9100 553.2000L239.9100 553.2000L243.6000 553.2000Q244.5900 553.2000 245.1750 553.8300Q245.7600 554.4600 245.7600 555.3600L245.7600 555.3600L245.7600 561.8400Q245.7600 562.7400 245.1750 563.3700Q244.5900 564 243.6000 564L243.6000 564L236.5800 564Q232.2600 564 229.8750 566.3850Q227.4900 568.7700 227.4900 573.0900L227.4900 573.0900L227.4900 597.8400Q227.4900 598.7400 226.8600 599.3700Q226.2300 600 225.2400 600L225.2400 600ZM273.4800 600.9000L273.4800 600.9000Q266.2800 600.9000 261.3750 598.3800Q256.4700 595.8600 253.9050 591.2700Q251.3400 586.6800 250.9800 580.5600L250.9800 580.5600Q250.8900 578.9400 250.8900 576.6000Q250.8900 574.2600 250.9800 572.6400L250.9800 572.6400Q251.3400 566.4300 253.9950 561.8850Q256.6500 557.3400 261.5550 554.8200Q266.4600 552.3000 273.4800 552.3000L273.4800 552.3000Q280.5000 552.3000 285.4050 554.8200Q290.3100 557.3400 292.9650 561.8850Q295.6200 566.4300 295.9800 572.6400L295.9800 572.6400Q296.0700 574.2600 296.0700 576.6000Q296.0700 578.9400 295.9800 580.5600L295.9800 580.5600Q295.6200 586.6800 293.0550 591.2700Q290.4900 595.8600 285.5850 598.3800Q280.6800 600.9000 273.4800 600.9000ZM273.4800 591.9900L273.4800 591.9900Q278.2500 591.9900 280.8600 588.9750Q283.4700 585.9600 283.7400 580.1100L283.7400 580.1100Q283.8300 578.7600 283.8300 576.6000Q283.8300 574.4400 283.7400 573.0900L283.7400 573.0900Q283.4700 567.2400 280.8600 564.2250Q278.2500 561.2100 273.4800 561.2100L273.4800 561.2100Q268.7100 561.2100 266.1000 564.2250Q263.4900 567.2400 263.2200 573.0900L263.2200 573.0900Q263.1300 574.4400 263.1300 576.6000Q263.1300 578.7600 263.2200 580.1100L263.2200 580.1100Q263.4900 585.9600 266.1000 588.9750Q268.7100 591.9900 273.4800 591.9900ZM301.7400 617.1000L298.3200 617.1000Q297.4200 617.1000 296.7900 616.4700Q296.1600 615.8400 296.1600 614.9400L296.1600 614.9400L296.1600 609.7200Q296.1600 608.8200 296.7900 608.1900Q297.4200 607.5600 298.3200 607.5600L298.3200 607.5600L300.6600 607.5600Q303.4500 607.5600 304.8000 606.5700Q306.1500 605.5800 306.6000 603.8250Q307.0500 602.0700 307.0500 599.9100L307.0500 599.9100L307.0500 555.3600Q307.0500 554.4600 307.6800 553.8300Q308.3100 553.2000 309.2100 553.2000L309.2100 553.2000L317.0400 553.2000Q317.9400 553.2000 318.5700 553.8300Q319.2000 554.4600 319.2000 555.3600L319.2000 555.3600L319.2000 600.0900Q319.2000 605.4000 317.2650 609.1800Q315.3300 612.9600 311.5050 615.0300Q307.6800 617.1000 301.7400 617.1000L301.7400 617.1000ZM317.3100 545.4600L308.8500 545.4600Q307.8600 545.4600 307.2750 544.8300Q306.6900 544.2000 306.6900 543.3000L306.6900 543.3000L306.6900 536.8200Q306.6900 535.9200 307.2750 535.2900Q307.8600 534.6600 308.8500 534.6600L308.8500 534.6600L317.3100 534.6600Q318.3000 534.6600 318.9300 535.2900Q319.5600 535.9200 319.5600 536.8200L319.5600 536.8200L319.5600 543.3000Q319.5600 544.2000 318.9300 544.8300Q318.3000 545.4600 317.3100 545.4600L317.3100 545.4600ZM351.3300 600.9000L351.3300 600.9000Q341.3400 600.9000 335.4900 595.1400Q329.6400 589.3800 329.1900 578.7600L329.1900 578.7600Q329.1000 577.8600 329.1000 576.4650Q329.1000 575.0700 329.1900 574.2600L329.1900 574.2600Q329.5500 567.4200 332.2950 562.5150Q335.0400 557.6100 339.9000 554.9550Q344.7600 552.3000 351.3300 552.3000L351.3300 552.3000Q358.6200 552.3000 363.5700 555.3150Q368.5200 558.3300 371.0400 563.6850Q373.5600 569.0400 373.5600 576.0600L373.5600 576.0600L373.5600 577.9500Q373.5600 578.8500 372.9300 579.4800Q372.3000 580.1100 371.3100 580.1100L371.3100 580.1100L341.4300 580.1100Q341.4300 580.1100 341.4300 580.3800Q341.4300 580.6500 341.4300 580.8300L341.4300 580.8300Q341.5200 583.9800 342.6450 586.6350Q343.7700 589.2900 345.9750 590.9100Q348.1800 592.5300 351.2400 592.5300L351.2400 592.5300Q353.7600 592.5300 355.4700 591.7650Q357.1800 591 358.2600 590.0100Q359.3400 589.0200 359.7900 588.3900L359.7900 588.3900Q360.6000 587.3100 361.0950 587.0850Q361.5900 586.8600 362.5800 586.8600L362.5800 586.8600L370.3200 586.8600Q371.2200 586.8600 371.8050 587.4000Q372.3900 587.9400 372.3000 588.7500L372.3000 588.7500Q372.2100 590.1900 370.8150 592.2600Q369.4200 594.3300 366.8100 596.3100Q364.2000 598.2900 360.2850 599.5950Q356.3700 600.9000 351.3300 600.9000ZM341.4300 572.2800L341.4300 572.5500L361.3200 572.5500L361.3200 572.2800Q361.3200 568.7700 360.1500 566.1150Q358.9800 563.4600 356.7300 561.9750Q354.4800 560.4900 351.3300 560.4900L351.3300 560.4900Q348.1800 560.4900 345.9300 561.9750Q343.6800 563.4600 342.5550 566.1150Q341.4300 568.7700 341.4300 572.2800L341.4300 572.2800ZM411.5400 600L404.2500 600Q398.8500 600 395.1600 598.1100Q391.4700 596.2200 389.6700 592.4850Q387.8700 588.7500 387.8700 583.1700L387.8700 583.1700L387.8700 562.7400L380.7600 562.7400Q379.8600 562.7400 379.2300 562.1100Q378.6000 561.4800 378.6000 560.4900L378.6000 560.4900L378.6000 555.3600Q378.6000 554.4600 379.2300 553.8300Q379.8600 553.2000 380.7600 553.2000L380.7600 553.2000L387.8700 553.2000L387.8700 538.2600Q387.8700 537.3600 388.4550 536.7300Q389.0400 536.1000 390.0300 536.1000L390.0300 536.1000L397.3200 536.1000Q398.2200 536.1000 398.8500 536.7300Q399.4800 537.3600 399.4800 538.2600L399.4800 538.2600L399.4800 553.2000L410.7300 553.2000Q411.6300 553.2000 412.2600 553.8300Q412.8900 554.4600 412.8900 555.3600L412.8900 555.3600L412.8900 560.4900Q412.8900 561.4800 412.2600 562.1100Q411.6300 562.7400 410.7300 562.7400L410.7300 562.7400L399.4800 562.7400L399.4800 582.2700Q399.4800 585.9600 400.7850 588.0300Q402.0900 590.1000 405.3300 590.1000L405.3300 590.1000L411.5400 590.1000Q412.4400 590.1000 413.0700 590.7300Q413.7000 591.3600 413.7000 592.2600L413.7000 592.2600L413.7000 597.8400Q413.7000 598.7400 413.0700 599.3700Q412.4400 600 411.5400 600L411.5400 600ZM442.4100 600.9000L442.4100 600.9000Q435.2100 600.9000 430.3050 598.3800Q425.4000 595.8600 422.8350 591.2700Q420.2700 586.6800 419.9100 580.5600L419.9100 580.5600Q419.8200 578.9400 419.8200 576.6000Q419.8200 574.2600 419.9100 572.6400L419.9100 572.6400Q420.2700 566.4300 422.9250 561.8850Q425.5800 557.3400 430.4850 554.8200Q435.3900 552.3000 442.4100 552.3000L442.4100 552.3000Q449.4300 552.3000 454.3350 554.8200Q459.2400 557.3400 461.8950 561.8850Q464.5500 566.4300 464.9100 572.6400L464.9100 572.6400Q465.0000 574.2600 465.0000 576.6000Q465.0000 578.9400 464.9100 580.5600L464.9100 580.5600Q464.5500 586.6800 461.9850 591.2700Q459.4200 595.8600 454.5150 598.3800Q449.6100 600.9000 442.4100 600.9000ZM442.4100 591.9900L442.4100 591.9900Q447.1800 591.9900 449.7900 588.9750Q452.4000 585.9600 452.6700 580.1100L452.6700 580.1100Q452.7600 578.7600 452.7600 576.6000Q452.7600 574.4400 452.6700 573.0900L452.6700 573.0900Q452.4000 567.2400 449.7900 564.2250Q447.1800 561.2100 442.4100 561.2100L442.4100 561.2100Q437.6400 561.2100 435.0300 564.2250Q432.4200 567.2400 432.1500 573.0900L432.1500 573.0900Q432.0600 574.4400 432.0600 576.6000Q432.0600 578.7600 432.1500 580.1100L432.1500 580.1100Q432.4200 585.9600 435.0300 588.9750Q437.6400 591.9900 442.4100 591.9900ZM533.0400 600L525.2100 600Q524.3100 600 523.6800 599.3700Q523.0500 598.7400 523.0500 597.8400L523.0500 597.8400L523.0500 586.3200L494.5200 586.3200Q493.5300 586.3200 492.9450 585.6900Q492.3600 585.0600 492.3600 584.1600L492.3600 584.1600L492.3600 578.0400Q492.3600 577.5000 492.5850 576.7350Q492.8100 575.9700 493.3500 575.3400L493.3500 575.3400L519.9000 538.5300Q521.0700 537 523.2300 537L523.2300 537L533.0400 537Q533.9400 537 534.5700 537.6300Q535.2000 538.2600 535.2000 539.1600L535.2000 539.1600L535.2000 575.7000L543.2100 575.7000Q544.2900 575.7000 544.8750 576.2850Q545.4600 576.8700 545.4600 577.8600L545.4600 577.8600L545.4600 584.1600Q545.4600 585.0600 544.8300 585.6900Q544.2000 586.3200 543.3000 586.3200L543.3000 586.3200L535.2000 586.3200L535.2000 597.8400Q535.2000 598.7400 534.5700 599.3700Q533.9400 600 533.0400 600L533.0400 600ZM523.3200 550.0500L504.8700 576.0600L523.3200 576.0600L523.3200 550.0500ZM604.4100 578.1300L576.7800 578.1300Q575.7900 578.1300 575.2050 577.5000Q574.6200 576.8700 574.6200 575.9700L574.6200 575.9700L574.6200 570.0300Q574.6200 569.1300 575.2050 568.5000Q575.7900 567.8700 576.7800 567.8700L576.7800 567.8700L604.4100 567.8700Q605.3100 567.8700 605.9400 568.5000Q606.5700 569.1300 606.5700 570.0300L606.5700 570.0300L606.5700 575.9700Q606.5700 576.8700 605.9400 577.5000Q605.3100 578.1300 604.4100 578.1300L604.4100 578.1300ZM659.0400 600.9000L659.0400 600.9000Q652.5600 600.9000 647.6550 598.4700Q642.7500 596.0400 640.0050 591.4050Q637.2600 586.7700 636.9900 580.2000L636.9900 580.2000Q636.9000 578.8500 636.9000 576.6450Q636.9000 574.4400 636.9900 573L636.9900 573Q637.2600 566.4300 640.0050 561.7950Q642.7500 557.1600 647.6550 554.7300Q652.5600 552.3000 659.0400 552.3000L659.0400 552.3000Q664.8000 552.3000 668.8500 553.8750Q672.9000 555.4500 675.5100 557.9250Q678.1200 560.4000 679.4250 563.0550Q680.7300 565.7100 680.8200 567.8700L680.8200 567.8700Q680.9100 568.8600 680.2350 569.4450Q679.5600 570.0300 678.6600 570.0300L678.6600 570.0300L670.7400 570.0300Q669.8400 570.0300 669.3450 569.5800Q668.8500 569.1300 668.4000 568.2300L668.4000 568.2300Q667.0500 564.6300 664.8450 563.1450Q662.6400 561.6600 659.2200 561.6600L659.2200 561.6600Q654.7200 561.6600 652.0650 564.4950Q649.4100 567.3300 649.2300 573.4500L649.2300 573.4500Q649.0500 576.8700 649.2300 579.7500L649.2300 579.7500Q649.4100 585.9600 652.0650 588.7500Q654.7200 591.5400 659.2200 591.5400L659.2200 591.5400Q662.7300 591.5400 664.8900 590.0550Q667.0500 588.5700 668.4000 584.9700L668.4000 584.9700Q668.8500 584.0700 669.3450 583.6200Q669.8400 583.1700 670.7400 583.1700L670.7400 583.1700L678.6600 583.1700Q679.5600 583.1700 680.2350 583.7550Q680.9100 584.3400 680.8200 585.3300L680.8200 585.3300Q680.7300 586.9500 679.9650 588.9750Q679.2000 591 677.5350 593.1150Q675.8700 595.2300 673.3500 596.9850Q670.8300 598.7400 667.2750 599.8200Q663.7200 600.9000 659.0400 600.9000ZM699.9000 600L692.4300 600Q691.5300 600 690.9000 599.3700Q690.2700 598.7400 690.2700 597.8400L690.2700 597.8400L690.2700 538.2600Q690.2700 537.3600 690.9000 536.7300Q691.5300 536.1000 692.4300 536.1000L692.4300 536.1000L699.9000 536.1000Q700.8000 536.1000 701.4300 536.7300Q702.0600 537.3600 702.0600 538.2600L702.0600 538.2600L702.0600 597.8400Q702.0600 598.7400 701.4300 599.3700Q700.8000 600 699.9000 600L699.9000 600ZM734.7300 600.9000L734.7300 600.9000Q727.5300 600.9000 722.6250 598.3800Q717.7200 595.8600 715.1550 591.2700Q712.5900 586.6800 712.2300 580.5600L712.2300 580.5600Q712.1400 578.9400 712.1400 576.6000Q712.1400 574.2600 712.2300 572.6400L712.2300 572.6400Q712.5900 566.4300 715.2450 561.8850Q717.9000 557.3400 722.8050 554.8200Q727.7100 552.3000 734.7300 552.3000L734.7300 552.3000Q741.7500 552.3000 746.6550 554.8200Q751.5600 557.3400 754.2150 561.8850Q756.8700 566.4300 757.2300 572.6400L757.2300 572.6400Q757.3200 574.2600 757.3200 576.6000Q757.3200 578.9400 757.2300 580.5600L757.2300 580.5600Q756.8700 586.6800 754.3050 591.2700Q751.7400 595.8600 746.8350 598.3800Q741.9300 600.9000 734.7300 600.9000ZM734.7300 591.9900L734.7300 591.9900Q739.5000 591.9900 742.1100 588.9750Q744.7200 585.9600 744.9900 580.1100L744.9900 580.1100Q745.0800 578.7600 745.0800 576.6000Q745.0800 574.4400 744.9900 573.0900L744.9900 573.0900Q744.7200 567.2400 742.1100 564.2250Q739.5000 561.2100 734.7300 561.2100L734.7300 561.2100Q729.9600 561.2100 727.3500 564.2250Q724.7400 567.2400 724.4700 573.0900L724.4700 573.0900Q724.3800 574.4400 724.3800 576.6000Q724.3800 578.7600 724.4700 580.1100L724.4700 580.1100Q724.7400 585.9600 727.3500 588.9750Q729.9600 591.9900 734.7300 591.9900ZM777.3900 600L769.4700 600Q768.5700 600 767.9400 599.3700Q767.3100 598.7400 767.3100 597.8400L767.3100 597.8400L767.3100 555.3600Q767.3100 554.4600 767.9400 553.8300Q768.5700 553.2000 769.4700 553.2000L769.4700 553.2000L776.8500 553.2000Q777.7500 553.2000 778.3800 553.8300Q779.0100 554.4600 779.0100 555.3600L779.0100 555.3600L779.0100 559.0500Q781.3500 556.1700 784.9950 554.2350Q788.6400 552.3000 794.0400 552.3000L794.0400 552.3000Q799.5300 552.3000 803.5800 554.7750Q807.6300 557.2500 809.8350 561.7500Q812.0400 566.2500 812.0400 572.5500L812.0400 572.5500L812.0400 597.8400Q812.0400 598.7400 811.4100 599.3700Q810.7800 600 809.8800 600L809.8800 600L801.9600 600Q801.0600 600 800.4300 599.3700Q799.8000 598.7400 799.8000 597.8400L799.8000 597.8400L799.8000 573.0900Q799.8000 567.8700 797.2350 564.9000Q794.6700 561.9300 789.8100 561.9300L789.8100 561.9300Q785.1300 561.9300 782.3400 564.9000Q779.5500 567.8700 779.5500 573.0900L779.5500 573.0900L779.5500 597.8400Q779.5500 598.7400 778.9200 599.3700Q778.2900 600 777.3900 600L777.3900 600ZM843.6300 600.9000L843.6300 600.9000Q833.6400 600.9000 827.7900 595.1400Q821.9400 589.3800 821.4900 578.7600L821.4900 578.7600Q821.4000 577.8600 821.4000 576.4650Q821.4000 575.0700 821.4900 574.2600L821.4900 574.2600Q821.8500 567.4200 824.5950 562.5150Q827.3400 557.6100 832.2000 554.9550Q837.0600 552.3000 843.6300 552.3000L843.6300 552.3000Q850.9200 552.3000 855.8700 555.3150Q860.8200 558.3300 863.3400 563.6850Q865.8600 569.0400 865.8600 576.0600L865.8600 576.0600L865.8600 577.9500Q865.8600 578.8500 865.2300 579.4800Q864.6000 580.1100 863.6100 580.1100L863.6100 580.1100L833.7300 580.1100Q833.7300 580.1100 833.7300 580.3800Q833.7300 580.6500 833.7300 580.8300L833.7300 580.8300Q833.8200 583.9800 834.9450 586.6350Q836.0700 589.2900 838.2750 590.9100Q840.4800 592.5300 843.5400 592.5300L843.5400 592.5300Q846.0600 592.5300 847.7700 591.7650Q849.4800 591 850.5600 590.0100Q851.6400 589.0200 852.0900 588.3900L852.0900 588.3900Q852.9000 587.3100 853.3950 587.0850Q853.8900 586.8600 854.8800 586.8600L854.8800 586.8600L862.6200 586.8600Q863.5200 586.8600 864.1050 587.4000Q864.6900 587.9400 864.6000 588.7500L864.6000 588.7500Q864.5100 590.1900 863.1150 592.2600Q861.7200 594.3300 859.1100 596.3100Q856.5000 598.2900 852.5850 599.5950Q848.6700 600.9000 843.6300 600.9000ZM833.7300 572.2800L833.7300 572.5500L853.6200 572.5500L853.6200 572.2800Q853.6200 568.7700 852.4500 566.1150Q851.2800 563.4600 849.0300 561.9750Q846.7800 560.4900 843.6300 560.4900L843.6300 560.4900Q840.4800 560.4900 838.2300 561.9750Q835.9800 563.4600 834.8550 566.1150Q833.7300 568.7700 833.7300 572.2800L833.7300 572.2800ZM913.3800 600.9000L913.3800 600.9000Q908.7000 600.9000 905.1450 599.3250Q901.5900 597.7500 899.2500 594.8700Q896.9100 591.9900 895.6500 588.0750Q894.3900 584.1600 894.2100 579.4800L894.2100 579.4800Q894.1200 577.8600 894.1200 576.5550Q894.1200 575.2500 894.2100 573.6300L894.2100 573.6300Q894.3900 569.1300 895.6050 565.2600Q896.8200 561.3900 899.2050 558.4650Q901.5900 555.5400 905.1450 553.9200Q908.7000 552.3000 913.3800 552.3000L913.3800 552.3000Q918.2400 552.3000 921.6150 553.9650Q924.9900 555.6300 927.2400 558.2400L927.2400 558.2400L927.2400 538.2600Q927.2400 537.3600 927.8250 536.7300Q928.4100 536.1000 929.4000 536.1000L929.4000 536.1000L937.0500 536.1000Q937.9500 536.1000 938.5800 536.7300Q939.2100 537.3600 939.2100 538.2600L939.2100 538.2600L939.2100 597.8400Q939.2100 598.7400 938.5800 599.3700Q937.9500 600 937.0500 600L937.0500 600L929.9400 600Q928.9500 600 928.3650 599.3700Q927.7800 598.7400 927.7800 597.8400L927.7800 597.8400L927.7800 594.5100Q925.5300 597.3000 922.0650 599.1000Q918.6000 600.9000 913.3800 600.9000ZM916.7100 591.2700L916.7100 591.2700Q920.4900 591.2700 922.7400 589.5600Q924.9900 587.8500 926.0700 585.1950Q927.1500 582.5400 927.2400 579.7500L927.2400 579.7500Q927.3300 578.1300 927.3300 576.2850Q927.3300 574.4400 927.2400 572.8200L927.2400 572.8200Q927.1500 570.1200 925.9800 567.6450Q924.8100 565.1700 922.5600 563.5500Q920.3100 561.9300 916.7100 561.9300L916.7100 561.9300Q912.9300 561.9300 910.7250 563.5950Q908.5200 565.2600 907.5300 567.9600Q906.5400 570.6600 906.3600 573.9000L906.3600 573.9000Q906.2700 576.6000 906.3600 579.3000L906.3600 579.3000Q906.5400 582.5400 907.5300 585.2400Q908.5200 587.9400 910.7250 589.6050Q912.9300 591.2700 916.7100 591.2700ZM964.7700 600.9000L964.7700 600.9000Q960.0900 600.9000 956.3100 599.0550Q952.5300 597.2100 950.3250 594.1050Q948.1200 591 948.1200 587.1300L948.1200 587.1300Q948.1200 580.8300 953.2500 577.0950Q958.3800 573.3600 966.6600 572.1000L966.6600 572.1000L978.9900 570.3000L978.9900 568.4100Q978.9900 564.6300 977.1000 562.5600Q975.2100 560.4900 970.6200 560.4900L970.6200 560.4900Q967.3800 560.4900 965.3550 561.7950Q963.3300 563.1000 962.3400 565.2600L962.3400 565.2600Q961.6200 566.4300 960.2700 566.4300L960.2700 566.4300L953.1600 566.4300Q952.1700 566.4300 951.6750 565.8900Q951.1800 565.3500 951.1800 564.4500L951.1800 564.4500Q951.2700 563.0100 952.3950 560.9400Q953.5200 558.8700 955.8150 556.9350Q958.1100 555 961.8000 553.6500Q965.4900 552.3000 970.7100 552.3000L970.7100 552.3000Q976.3800 552.3000 980.2950 553.6950Q984.2100 555.0900 986.5500 557.4300Q988.8900 559.7700 989.9700 562.9200Q991.0500 566.0700 991.0500 569.5800L991.0500 569.5800L991.0500 597.8400Q991.0500 598.7400 990.4200 599.3700Q989.7900 600 988.8900 600L988.8900 600L981.6000 600Q980.6100 600 980.0250 599.3700Q979.4400 598.7400 979.4400 597.8400L979.4400 597.8400L979.4400 594.3300Q978.2700 595.9500 976.2900 597.4800Q974.3100 599.0100 971.4750 599.9550Q968.6400 600.9000 964.7700 600.9000ZM967.8300 592.3500L967.8300 592.3500Q970.9800 592.3500 973.5450 591Q976.1100 589.6500 977.5950 586.8150Q979.0800 583.9800 979.0800 579.6600L979.0800 579.6600L979.0800 577.7700L970.0800 579.2100Q964.7700 580.0200 962.1600 581.8200Q959.5500 583.6200 959.5500 586.2300L959.5500 586.2300Q959.5500 588.2100 960.7650 589.6050Q961.9800 591 963.8700 591.6750Q965.7600 592.3500 967.8300 592.3500ZM165.6600 690L158.1900 690Q157.2900 690 156.6600 689.3700Q156.0300 688.7400 156.0300 687.8400L156.0300 687.8400L156.0300 628.2600Q156.0300 627.3600 156.6600 626.7300Q157.2900 626.1000 158.1900 626.1000L158.1900 626.1000L165.6600 626.1000Q166.5600 626.1000 167.1900 626.7300Q167.8200 627.3600 167.8200 628.2600L167.8200 628.2600L167.8200 687.8400Q167.8200 688.7400 167.1900 689.3700Q166.5600 690 165.6600 690L165.6600 690ZM193.3800 690.9000L193.3800 690.9000Q188.7000 690.9000 184.9200 689.0550Q181.1400 687.2100 178.9350 684.1050Q176.7300 681 176.7300 677.1300L176.7300 677.1300Q176.7300 670.8300 181.8600 667.0950Q186.9900 663.3600 195.2700 662.1000L195.2700 662.1000L207.6000 660.3000L207.6000 658.4100Q207.6000 654.6300 205.7100 652.5600Q203.8200 650.4900 199.2300 650.4900L199.2300 650.4900Q195.9900 650.4900 193.9650 651.7950Q191.9400 653.1000 190.9500 655.2600L190.9500 655.2600Q190.2300 656.4300 188.8800 656.4300L188.8800 656.4300L181.7700 656.4300Q180.7800 656.4300 180.2850 655.8900Q179.7900 655.3500 179.7900 654.4500L179.7900 654.4500Q179.8800 653.0100 181.0050 650.9400Q182.1300 648.8700 184.4250 646.9350Q186.7200 645 190.4100 643.6500Q194.1000 642.3000 199.3200 642.3000L199.3200 642.3000Q204.9900 642.3000 208.9050 643.6950Q212.8200 645.0900 215.1600 647.4300Q217.5000 649.7700 218.5800 652.9200Q219.6600 656.0700 219.6600 659.5800L219.6600 659.5800L219.6600 687.8400Q219.6600 688.7400 219.0300 689.3700Q218.4000 690 217.5000 690L217.5000 690L210.2100 690Q209.2200 690 208.6350 689.3700Q208.0500 688.7400 208.0500 687.8400L208.0500 687.8400L208.0500 684.3300Q206.8800 685.9500 204.9000 687.4800Q202.9200 689.0100 200.0850 689.9550Q197.2500 690.9000 193.3800 690.9000ZM196.4400 682.3500L196.4400 682.3500Q199.5900 682.3500 202.1550 681Q204.7200 679.6500 206.2050 676.8150Q207.6900 673.9800 207.6900 669.6600L207.6900 669.6600L207.6900 667.7700L198.6900 669.2100Q193.3800 670.0200 190.7700 671.8200Q188.1600 673.6200 188.1600 676.2300L188.1600 676.2300Q188.1600 678.2100 189.3750 679.6050Q190.5900 681 192.4800 681.6750Q194.3700 682.3500 196.4400 682.3500ZM241.2600 690L233.3400 690Q232.4400 690 231.8100 689.3700Q231.1800 688.7400 231.1800 687.8400L231.1800 687.8400L231.1800 645.3600Q231.1800 644.4600 231.8100 643.8300Q232.4400 643.2000 233.3400 643.2000L233.3400 643.2000L240.7200 643.2000Q241.6200 643.2000 242.2500 643.8300Q242.8800 644.4600 242.8800 645.3600L242.8800 645.3600L242.8800 649.0500Q245.2200 646.1700 248.8650 644.2350Q252.5100 642.3000 257.9100 642.3000L257.9100 642.3000Q263.4000 642.3000 267.4500 644.7750Q271.5000 647.2500 273.7050 651.7500Q275.9100 656.2500 275.9100 662.5500L275.9100 662.5500L275.9100 687.8400Q275.9100 688.7400 275.2800 689.3700Q274.6500 690 273.7500 690L273.7500 690L265.8300 690Q264.9300 690 264.3000 689.3700Q263.6700 688.7400 263.6700 687.8400L263.6700 687.8400L263.6700 663.0900Q263.6700 657.8700 261.1050 654.9000Q258.5400 651.9300 253.6800 651.9300L253.6800 651.9300Q249 651.9300 246.2100 654.9000Q243.4200 657.8700 243.4200 663.0900L243.4200 663.0900L243.4200 687.8400Q243.4200 688.7400 242.7900 689.3700Q242.1600 690 241.2600 690L241.2600 690ZM304.7100 690.9000L304.7100 690.9000Q300.0300 690.9000 296.4750 689.3250Q292.9200 687.7500 290.5800 684.8700Q288.2400 681.9900 286.9800 678.0750Q285.7200 674.1600 285.5400 669.4800L285.5400 669.4800Q285.4500 667.8600 285.4500 666.5550Q285.4500 665.2500 285.5400 663.6300L285.5400 663.6300Q285.7200 659.1300 286.9350 655.2600Q288.1500 651.3900 290.5350 648.4650Q292.9200 645.5400 296.4750 643.9200Q300.0300 642.3000 304.7100 642.3000L304.7100 642.3000Q309.5700 642.3000 312.9450 643.9650Q316.3200 645.6300 318.5700 648.2400L318.5700 648.2400L318.5700 628.2600Q318.5700 627.3600 319.1550 626.7300Q319.7400 626.1000 320.7300 626.1000L320.7300 626.1000L328.3800 626.1000Q329.2800 626.1000 329.9100 626.7300Q330.5400 627.3600 330.5400 628.2600L330.5400 628.2600L330.5400 687.8400Q330.5400 688.7400 329.9100 689.3700Q329.2800 690 328.3800 690L328.3800 690L321.2700 690Q320.2800 690 319.6950 689.3700Q319.1100 688.7400 319.1100 687.8400L319.1100 687.8400L319.1100 684.5100Q316.8600 687.3000 313.3950 689.1000Q309.9300 690.9000 304.7100 690.9000ZM308.0400 681.2700L308.0400 681.2700Q311.8200 681.2700 314.0700 679.5600Q316.3200 677.8500 317.4000 675.1950Q318.4800 672.5400 318.5700 669.7500L318.5700 669.7500Q318.6600 668.1300 318.6600 666.2850Q318.6600 664.4400 318.5700 662.8200L318.5700 662.8200Q318.4800 660.1200 317.3100 657.6450Q316.1400 655.1700 313.8900 653.5500Q311.6400 651.9300 308.0400 651.9300L308.0400 651.9300Q304.2600 651.9300 302.0550 653.5950Q299.8500 655.2600 298.8600 657.9600Q297.8700 660.6600 297.6900 663.9000L297.6900 663.9000Q297.6000 666.6000 297.6900 669.3000L297.6900 669.3000Q297.8700 672.5400 298.8600 675.2400Q299.8500 677.9400 302.0550 679.6050Q304.2600 681.2700 308.0400 681.2700ZM352.1400 690L344.6700 690Q343.7700 690 343.1400 689.3700Q342.5100 688.7400 342.5100 687.8400L342.5100 687.8400L342.5100 645.3600Q342.5100 644.4600 343.1400 643.8300Q343.7700 643.2000 344.6700 643.2000L344.6700 643.2000L352.1400 643.2000Q353.1300 643.2000 353.7150 643.8300Q354.3000 644.4600 354.3000 645.3600L354.3000 645.3600L354.3000 687.8400Q354.3000 688.7400 353.7150 689.3700Q353.1300 690 352.1400 690L352.1400 690ZM352.5000 635.4600L344.3100 635.4600Q343.4100 635.4600 342.7800 634.8300Q342.1500 634.2000 342.1500 633.3000L342.1500 633.3000L342.1500 626.8200Q342.1500 625.9200 342.7800 625.2900Q343.4100 624.6600 344.3100 624.6600L344.3100 624.6600L352.5000 624.6600Q353.4900 624.6600 354.1200 625.2900Q354.7500 625.9200 354.7500 626.8200L354.7500 626.8200L354.7500 633.3000Q354.7500 634.2000 354.1200 634.8300Q353.4900 635.4600 352.5000 635.4600L352.5000 635.4600ZM376.3500 690L368.4300 690Q367.5300 690 366.9000 689.3700Q366.2700 688.7400 366.2700 687.8400L366.2700 687.8400L366.2700 645.3600Q366.2700 644.4600 366.9000 643.8300Q367.5300 643.2000 368.4300 643.2000L368.4300 643.2000L375.8100 643.2000Q376.7100 643.2000 377.3400 643.8300Q377.9700 644.4600 377.9700 645.3600L377.9700 645.3600L377.9700 649.0500Q380.3100 646.1700 383.9550 644.2350Q387.6000 642.3000 393 642.3000L393 642.3000Q398.4900 642.3000 402.5400 644.7750Q406.5900 647.2500 408.7950 651.7500Q411 656.2500 411 662.5500L411 662.5500L411 687.8400Q411 688.7400 410.3700 689.3700Q409.7400 690 408.8400 690L408.8400 690L400.9200 690Q400.0200 690 399.3900 689.3700Q398.7600 688.7400 398.7600 687.8400L398.7600 687.8400L398.7600 663.0900Q398.7600 657.8700 396.1950 654.9000Q393.6300 651.9300 388.7700 651.9300L388.7700 651.9300Q384.0900 651.9300 381.3000 654.9000Q378.5100 657.8700 378.5100 663.0900L378.5100 663.0900L378.5100 687.8400Q378.5100 688.7400 377.8800 689.3700Q377.2500 690 376.3500 690L376.3500 690ZM443.5800 709.8000L443.5800 709.8000Q437.0100 709.8000 432.7800 708.0900Q428.5500 706.3800 426.1200 703.9500Q423.6900 701.5200 422.6550 699.1350Q421.6200 696.7500 421.5300 695.4000L421.5300 695.4000Q421.4400 694.5000 422.1150 693.8250Q422.7900 693.1500 423.6900 693.1500L423.6900 693.1500L431.5200 693.1500Q432.4200 693.1500 432.9600 693.5550Q433.5000 693.9600 433.8600 695.0400L433.8600 695.0400Q434.4000 696.2100 435.3000 697.5600Q436.2000 698.9100 438.0450 699.8550Q439.8900 700.8000 443.1300 700.8000L443.1300 700.8000Q446.5500 700.8000 448.8900 699.8100Q451.2300 698.8200 452.4450 696.4800Q453.6600 694.1400 453.6600 690L453.6600 690L453.6600 683.8800Q451.5000 686.4900 448.1250 688.1100Q444.7500 689.7300 439.8000 689.7300L439.8000 689.7300Q435.0300 689.7300 431.4750 688.1550Q427.9200 686.5800 425.5800 683.7450Q423.2400 680.9100 422.0250 677.0400Q420.8100 673.1700 420.6300 668.4900L420.6300 668.4900Q420.5400 666.0600 420.6300 663.6300L420.6300 663.6300Q420.8100 659.1300 422.0250 655.2600Q423.2400 651.3900 425.5800 648.4650Q427.9200 645.5400 431.4750 643.9200Q435.0300 642.3000 439.8000 642.3000L439.8000 642.3000Q444.9300 642.3000 448.4400 644.2350Q451.9500 646.1700 454.2000 649.0500L454.2000 649.0500L454.2000 645.4500Q454.2000 644.4600 454.8300 643.8300Q455.4600 643.2000 456.3600 643.2000L456.3600 643.2000L463.6500 643.2000Q464.5500 643.2000 465.1800 643.8300Q465.8100 644.4600 465.8100 645.4500L465.8100 645.4500L465.9000 688.8300Q465.9000 695.3100 463.4700 699.9900Q461.0400 704.6700 456.1350 707.2350Q451.2300 709.8000 443.5800 709.8000ZM443.1300 680.1900L443.1300 680.1900Q446.8200 680.1900 449.0700 678.5700Q451.3200 676.9500 452.4000 674.3400Q453.4800 671.7300 453.6600 669.0300L453.6600 669.0300Q453.7500 667.8600 453.7500 666.0600Q453.7500 664.2600 453.6600 663.1800L453.6600 663.1800Q453.4800 660.3900 452.4000 657.8250Q451.3200 655.2600 449.0700 653.5950Q446.8200 651.9300 443.1300 651.9300L443.1300 651.9300Q439.4400 651.9300 437.1900 653.5950Q434.9400 655.2600 433.9950 657.9600Q433.0500 660.6600 432.8700 663.9000L432.8700 663.9000Q432.6900 666.0600 432.8700 668.3100L432.8700 668.3100Q433.0500 671.4600 433.9950 674.2050Q434.9400 676.9500 437.1900 678.5700Q439.4400 680.1900 443.1300 680.1900ZM515.8500 690.9000L515.8500 690.9000Q511.1700 690.9000 507.6150 689.3250Q504.0600 687.7500 501.7200 684.8700Q499.3800 681.9900 498.1200 678.0750Q496.8600 674.1600 496.6800 669.4800L496.6800 669.4800Q496.5900 667.8600 496.5900 666.5550Q496.5900 665.2500 496.6800 663.6300L496.6800 663.6300Q496.8600 659.1300 498.0750 655.2600Q499.2900 651.3900 501.6750 648.4650Q504.0600 645.5400 507.6150 643.9200Q511.1700 642.3000 515.8500 642.3000L515.8500 642.3000Q520.7100 642.3000 524.0850 643.9650Q527.4600 645.6300 529.7100 648.2400L529.7100 648.2400L529.7100 628.2600Q529.7100 627.3600 530.2950 626.7300Q530.8800 626.1000 531.8700 626.1000L531.8700 626.1000L539.5200 626.1000Q540.4200 626.1000 541.0500 626.7300Q541.6800 627.3600 541.6800 628.2600L541.6800 628.2600L541.6800 687.8400Q541.6800 688.7400 541.0500 689.3700Q540.4200 690 539.5200 690L539.5200 690L532.4100 690Q531.4200 690 530.8350 689.3700Q530.2500 688.7400 530.2500 687.8400L530.2500 687.8400L530.2500 684.5100Q528 687.3000 524.5350 689.1000Q521.0700 690.9000 515.8500 690.9000ZM519.1800 681.2700L519.1800 681.2700Q522.9600 681.2700 525.2100 679.5600Q527.4600 677.8500 528.5400 675.1950Q529.6200 672.5400 529.7100 669.7500L529.7100 669.7500Q529.8000 668.1300 529.8000 666.2850Q529.8000 664.4400 529.7100 662.8200L529.7100 662.8200Q529.6200 660.1200 528.4500 657.6450Q527.2800 655.1700 525.0300 653.5500Q522.7800 651.9300 519.1800 651.9300L519.1800 651.9300Q515.4000 651.9300 513.1950 653.5950Q510.9900 655.2600 510 657.9600Q509.0100 660.6600 508.8300 663.9000L508.8300 663.9000Q508.7400 666.6000 508.8300 669.3000L508.8300 669.3000Q509.0100 672.5400 510 675.2400Q510.9900 677.9400 513.1950 679.6050Q515.4000 681.2700 519.1800 681.2700ZM574.3500 690.9000L574.3500 690.9000Q567.1500 690.9000 562.2450 688.3800Q557.3400 685.8600 554.7750 681.2700Q552.2100 676.6800 551.8500 670.5600L551.8500 670.5600Q551.7600 668.9400 551.7600 666.6000Q551.7600 664.2600 551.8500 662.6400L551.8500 662.6400Q552.2100 656.4300 554.8650 651.8850Q557.5200 647.3400 562.4250 644.8200Q567.3300 642.3000 574.3500 642.3000L574.3500 642.3000Q581.3700 642.3000 586.2750 644.8200Q591.1800 647.3400 593.8350 651.8850Q596.4900 656.4300 596.8500 662.6400L596.8500 662.6400Q596.9400 664.2600 596.9400 666.6000Q596.9400 668.9400 596.8500 670.5600L596.8500 670.5600Q596.4900 676.6800 593.9250 681.2700Q591.3600 685.8600 586.4550 688.3800Q581.5500 690.9000 574.3500 690.9000ZM574.3500 681.9900L574.3500 681.9900Q579.1200 681.9900 581.7300 678.9750Q584.3400 675.9600 584.6100 670.1100L584.6100 670.1100Q584.7000 668.7600 584.7000 666.6000Q584.7000 664.4400 584.6100 663.0900L584.6100 663.0900Q584.3400 657.2400 581.7300 654.2250Q579.1200 651.2100 574.3500 651.2100L574.3500 651.2100Q569.5800 651.2100 566.9700 654.2250Q564.3600 657.2400 564.0900 663.0900L564.0900 663.0900Q564 664.4400 564 666.6000Q564 668.7600 564.0900 670.1100L564.0900 670.1100Q564.3600 675.9600 566.9700 678.9750Q569.5800 681.9900 574.3500 681.9900ZM653.1900 690L630.7800 690Q629.8800 690 629.2500 689.3700Q628.6200 688.7400 628.6200 687.8400L628.6200 687.8400L628.6200 629.2500Q628.6200 628.2600 629.2500 627.6300Q629.8800 627 630.7800 627L630.7800 627L652.7400 627Q661.8300 627 667.7250 629.7900Q673.6200 632.5800 676.6350 638.0700Q679.6500 643.5600 679.7400 651.4800L679.7400 651.4800Q679.9200 655.4400 679.9200 658.5000Q679.9200 661.5600 679.7400 665.4300L679.7400 665.4300Q679.5600 673.8000 676.6800 679.2450Q673.8000 684.6900 667.9950 687.3450Q662.1900 690 653.1900 690L653.1900 690ZM641.1300 637.3500L641.1300 679.6500L652.7400 679.6500Q657.7800 679.6500 660.9300 678.2100Q664.0800 676.7700 665.5650 673.5750Q667.0500 670.3800 667.1400 665.1600L667.1400 665.1600Q667.2300 662.4600 667.2750 660.4350Q667.3200 658.4100 667.2750 656.3850Q667.2300 654.3600 667.1400 651.7500L667.1400 651.7500Q666.9600 644.3700 663.4500 640.8600Q659.9400 637.3500 652.2900 637.3500L652.2900 637.3500L641.1300 637.3500ZM700.4400 690L692.9700 690Q692.0700 690 691.4400 689.3700Q690.8100 688.7400 690.8100 687.8400L690.8100 687.8400L690.8100 645.3600Q690.8100 644.4600 691.4400 643.8300Q692.0700 643.2000 692.9700 643.2000L692.9700 643.2000L700.4400 643.2000Q701.4300 643.2000 702.0150 643.8300Q702.6000 644.4600 702.6000 645.3600L702.6000 645.3600L702.6000 687.8400Q702.6000 688.7400 702.0150 689.3700Q701.4300 690 700.4400 690L700.4400 690ZM700.8000 635.4600L692.6100 635.4600Q691.7100 635.4600 691.0800 634.8300Q690.4500 634.2000 690.4500 633.3000L690.4500 633.3000L690.4500 626.8200Q690.4500 625.9200 691.0800 625.2900Q691.7100 624.6600 692.6100 624.6600L692.6100 624.6600L700.8000 624.6600Q701.7900 624.6600 702.4200 625.2900Q703.0500 625.9200 703.0500 626.8200L703.0500 626.8200L703.0500 633.3000Q703.0500 634.2000 702.4200 634.8300Q701.7900 635.4600 700.8000 635.4600L700.8000 635.4600ZM732.3000 690.9000L732.3000 690.9000Q726.9000 690.9000 723.0750 689.6400Q719.2500 688.3800 716.8200 686.4900Q714.3900 684.6000 713.2200 682.7100Q712.0500 680.8200 711.9600 679.5600L711.9600 679.5600Q711.8700 678.5700 712.5450 677.9850Q713.2200 677.4000 714.0300 677.4000L714.0300 677.4000L721.1400 677.4000Q721.5000 677.4000 721.7700 677.4900Q722.0400 677.5800 722.4900 678.0300L722.4900 678.0300Q723.6600 679.0200 724.9650 680.1000Q726.2700 681.1800 728.0700 681.9450Q729.8700 682.7100 732.5700 682.7100L732.5700 682.7100Q736.0800 682.7100 738.4650 681.3150Q740.8500 679.9200 740.8500 677.3100L740.8500 677.3100Q740.8500 675.4200 739.8150 674.2500Q738.7800 673.0800 735.9900 672.1350Q733.2000 671.1900 728.0700 670.1100L728.0700 670.1100Q723.0300 668.9400 719.7000 667.1400Q716.3700 665.3400 714.7500 662.6400Q713.1300 659.9400 713.1300 656.3400L713.1300 656.3400Q713.1300 652.8300 715.2450 649.6350Q717.3600 646.4400 721.5450 644.3700Q725.7300 642.3000 731.9400 642.3000L731.9400 642.3000Q736.8000 642.3000 740.4000 643.5150Q744 644.7300 746.3850 646.5300Q748.7700 648.3300 750.0300 650.1750Q751.2900 652.0200 751.3800 653.3700L751.3800 653.3700Q751.4700 654.3600 750.8400 654.9450Q750.2100 655.5300 749.4000 655.5300L749.4000 655.5300L742.7400 655.5300Q742.2900 655.5300 741.9300 655.3500Q741.5700 655.1700 741.2100 654.9000L741.2100 654.9000Q740.2200 654 739.0500 652.9650Q737.8800 651.9300 736.2150 651.2100Q734.5500 650.4900 731.8500 650.4900L731.8500 650.4900Q728.4300 650.4900 726.6300 651.9750Q724.8300 653.4600 724.8300 655.7100L724.8300 655.7100Q724.8300 657.2400 725.6850 658.3650Q726.5400 659.4900 729.1500 660.4800Q731.7600 661.4700 737.0700 662.5500L737.0700 662.5500Q743.1000 663.6300 746.6550 665.7450Q750.2100 667.8600 751.6950 670.6050Q753.1800 673.3500 753.1800 676.6800L753.1800 676.6800Q753.1800 680.7300 750.7950 683.9700Q748.4100 687.2100 743.7750 689.0550Q739.1400 690.9000 732.3000 690.9000ZM772.5300 690L764.6100 690Q763.7100 690 763.0800 689.3700Q762.4500 688.7400 762.4500 687.8400L762.4500 687.8400L762.4500 645.3600Q762.4500 644.4600 763.0800 643.8300Q763.7100 643.2000 764.6100 643.2000L764.6100 643.2000L771.9900 643.2000Q772.8900 643.2000 773.5200 643.8300Q774.1500 644.4600 774.1500 645.3600L774.1500 645.3600L774.1500 649.0500Q776.4900 646.1700 780.1350 644.2350Q783.7800 642.3000 789.1800 642.3000L789.1800 642.3000Q794.6700 642.3000 798.7200 644.7750Q802.7700 647.2500 804.9750 651.7500Q807.1800 656.2500 807.1800 662.5500L807.1800 662.5500L807.1800 687.8400Q807.1800 688.7400 806.5500 689.3700Q805.9200 690 805.0200 690L805.0200 690L797.1000 690Q796.2000 690 795.5700 689.3700Q794.9400 688.7400 794.9400 687.8400L794.9400 687.8400L794.9400 663.0900Q794.9400 657.8700 792.3750 654.9000Q789.8100 651.9300 784.9500 651.9300L784.9500 651.9300Q780.2700 651.9300 777.4800 654.9000Q774.6900 657.8700 774.6900 663.0900L774.6900 663.0900L774.6900 687.8400Q774.6900 688.7400 774.0600 689.3700Q773.4300 690 772.5300 690L772.5300 690ZM838.7700 690.9000L838.7700 690.9000Q828.7800 690.9000 822.9300 685.1400Q817.0800 679.3800 816.6300 668.7600L816.6300 668.7600Q816.5400 667.8600 816.5400 666.4650Q816.5400 665.0700 816.6300 664.2600L816.6300 664.2600Q816.9900 657.4200 819.7350 652.5150Q822.4800 647.6100 827.3400 644.9550Q832.2000 642.3000 838.7700 642.3000L838.7700 642.3000Q846.0600 642.3000 851.0100 645.3150Q855.9600 648.3300 858.4800 653.6850Q861 659.0400 861 666.0600L861 666.0600L861 667.9500Q861 668.8500 860.3700 669.4800Q859.7400 670.1100 858.7500 670.1100L858.7500 670.1100L828.8700 670.1100Q828.8700 670.1100 828.8700 670.3800Q828.8700 670.6500 828.8700 670.8300L828.8700 670.8300Q828.9600 673.9800 830.0850 676.6350Q831.2100 679.2900 833.4150 680.9100Q835.6200 682.5300 838.6800 682.5300L838.6800 682.5300Q841.2000 682.5300 842.9100 681.7650Q844.6200 681 845.7000 680.0100Q846.7800 679.0200 847.2300 678.3900L847.2300 678.3900Q848.0400 677.3100 848.5350 677.0850Q849.0300 676.8600 850.0200 676.8600L850.0200 676.8600L857.7600 676.8600Q858.6600 676.8600 859.2450 677.4000Q859.8300 677.9400 859.7400 678.7500L859.7400 678.7500Q859.6500 680.1900 858.2550 682.2600Q856.8600 684.3300 854.2500 686.3100Q851.6400 688.2900 847.7250 689.5950Q843.8100 690.9000 838.7700 690.9000ZM828.8700 662.2800L828.8700 662.5500L848.7600 662.5500L848.7600 662.2800Q848.7600 658.7700 847.5900 656.1150Q846.4200 653.4600 844.1700 651.9750Q841.9200 650.4900 838.7700 650.4900L838.7700 650.4900Q835.6200 650.4900 833.3700 651.9750Q831.1200 653.4600 829.9950 656.1150Q828.8700 658.7700 828.8700 662.2800L828.8700 662.2800ZM886.1100 707.1000L879.0000 707.1000Q878.2800 707.1000 877.7400 706.5600Q877.2000 706.0200 877.2000 705.3000L877.2000 705.3000Q877.2000 704.9400 877.2450 704.6250Q877.2900 704.3100 877.5600 703.8600L877.5600 703.8600L884.5800 687.2100L867.3000 646.4400Q866.9400 645.5400 866.9400 645.1800L866.9400 645.1800Q867.0300 644.3700 867.5700 643.7850Q868.1100 643.2000 868.9200 643.2000L868.9200 643.2000L876.2100 643.2000Q877.2900 643.2000 877.8300 643.7400Q878.3700 644.2800 878.6400 644.9100L878.6400 644.9100L890.6100 674.3400L902.9400 644.9100Q903.2100 644.1900 903.7500 643.6950Q904.2900 643.2000 905.3700 643.2000L905.3700 643.2000L912.5700 643.2000Q913.2900 643.2000 913.8750 643.7400Q914.4600 644.2800 914.4600 645L914.4600 645Q914.4600 645.5400 914.1000 646.4400L914.1000 646.4400L888.6300 705.3900Q888.2700 706.1100 887.7300 706.6050Q887.1900 707.1000 886.1100 707.1000L886.1100 707.1000ZM946.5000 687.0300L941.2800 687.0300Q940.3800 687.0300 939.7500 686.4000Q939.1200 685.7700 939.1200 684.8700L939.1200 684.8700L939.1200 667.3200L921.8400 667.3200Q920.9400 667.3200 920.3100 666.6900Q919.6800 666.0600 919.6800 665.0700L919.6800 665.0700L919.6800 660.3900Q919.6800 659.4000 920.3100 658.8150Q920.9400 658.2300 921.8400 658.2300L921.8400 658.2300L939.1200 658.2300L939.1200 641.1300Q939.1200 640.2300 939.7500 639.6000Q940.3800 638.9700 941.2800 638.9700L941.2800 638.9700L946.5000 638.9700Q947.4900 638.9700 948.0750 639.6000Q948.6600 640.2300 948.6600 641.1300L948.6600 641.1300L948.6600 658.2300L965.9400 658.2300Q966.8400 658.2300 967.4700 658.8150Q968.1000 659.4000 968.1000 660.3900L968.1000 660.3900L968.1000 665.0700Q968.1000 666.0600 967.4700 666.6900Q966.8400 667.3200 965.9400 667.3200L965.9400 667.3200L948.6600 667.3200L948.6600 684.8700Q948.6600 685.7700 948.0750 686.4000Q947.4900 687.0300 946.5000 687.0300L946.5000 687.0300Z" id="title"/><path d="M1448.3400 640L1343.1800 640Q1340.9800 640 1339.4400 638.4600Q1337.9000 636.9200 1337.9000 634.7200L1337.9000 634.7200L1337.9000 623.5000Q1337.9000 621.5200 1338.8900 618.7700Q1339.8800 616.0200 1343.4000 613.1600L1343.4000 613.1600L1378.1600 578.6200Q1392.6800 567.1800 1401.5900 559.1500Q1410.5000 551.1200 1414.5700 544.4100Q1418.6400 537.7000 1418.6400 531.1000L1418.6400 531.1000Q1418.6400 521.2000 1413.2500 515.0400Q1407.8600 508.8800 1396.2000 508.8800L1396.2000 508.8800Q1388.5000 508.8800 1383.2200 512.0700Q1377.9400 515.2600 1374.9700 520.5400Q1372 525.8200 1370.9000 532.2000L1370.9000 532.2000Q1370.4600 535.0600 1368.4800 536.1600Q1366.5000 537.2600 1364.5200 537.2600L1364.5200 537.2600L1344.9400 537.2600Q1342.9600 537.2600 1341.6400 535.9400Q1340.3200 534.6200 1340.3200 532.8600L1340.3200 532.8600Q1340.5400 523.4000 1344.2800 514.4900Q1348.0200 505.5800 1355.1700 498.6500Q1362.3200 491.7200 1372.6600 487.5400Q1383 483.3600 1395.9800 483.3600L1395.9800 483.3600Q1414.2400 483.3600 1426.2300 489.5200Q1438.2200 495.6800 1444.2700 506.2400Q1450.3200 516.8000 1450.3200 530L1450.3200 530Q1450.3200 540.3400 1446.3600 549.0300Q1442.4000 557.7200 1434.9200 565.7500Q1427.4400 573.7800 1416.8800 582.1400L1416.8800 582.1400L1385.6400 613.8200L1448.3400 613.8200Q1450.7600 613.8200 1452.1900 615.2500Q1453.6200 616.6800 1453.6200 619.1000L1453.6200 619.1000L1453.6200 634.7200Q1453.6200 636.9200 1452.1900 638.4600Q1450.7600 640 1448.3400 640L1448.3400 640ZM1545.1400 640L1525.1200 640Q1522.7000 640 1521.2700 638.4600Q1519.8400 636.9200 1519.8400 634.7200L1519.8400 634.7200L1519.8400 520.7600L1486.4000 546.5000Q1484.4200 547.8200 1482.4400 547.4900Q1480.4600 547.1600 1478.9200 545.1800L1478.9200 545.1800L1469.6800 533.3000Q1468.3600 531.3200 1468.6900 529.1200Q1469.0200 526.9200 1471 525.6000L1471 525.6000L1520.2800 487.5400Q1521.6000 486.4400 1522.9200 486.2200Q1524.2400 486 1525.7800 486L1525.7800 486L1545.1400 486Q1547.3400 486 1548.8800 487.5400Q1550.4200 489.0800 1550.4200 491.2800L1550.4200 491.2800L1550.4200 634.7200Q1550.4200 636.9200 1548.8800 638.4600Q1547.3400 640 1545.1400 640L1545.1400 640ZM1606.5200 640L1584.5200 640Q1582.3200 640 1580.7800 638.4600Q1579.2400 636.9200 1579.2400 634.7200L1579.2400 634.7200L1579.2400 612.9400Q1579.2400 610.5200 1580.7800 608.9800Q1582.3200 607.4400 1584.5200 607.4400L1584.5200 607.4400L1606.5200 607.4400Q1608.7200 607.4400 1610.2600 608.9800Q1611.8000 610.5200 1611.8000 612.9400L1611.8000 612.9400L1611.8000 634.7200Q1611.8000 636.9200 1610.2600 638.4600Q1608.7200 640 1606.5200 640L1606.5200 640ZM1692.3200 642.4200L1692.3200 642.4200Q1673.4000 642.4200 1660.4200 636.1500Q1647.4400 629.8800 1640.7300 619.7600Q1634.0200 609.6400 1633.5800 598.2000L1633.5800 598.2000Q1633.3600 596.2200 1634.7900 595.0100Q1636.2200 593.8000 1638.2000 593.8000L1638.2000 593.8000L1658.6600 593.8000Q1661.0800 593.8000 1662.7300 594.7900Q1664.3800 595.7800 1665.2600 598.2000L1665.2600 598.2000Q1667.4600 604.8000 1671.5300 608.9800Q1675.6000 613.1600 1680.9900 615.1400Q1686.3800 617.1200 1692.3200 617.1200L1692.3200 617.1200Q1700.2400 617.1200 1706.7300 613.9300Q1713.2200 610.7400 1717.1800 604.3600Q1721.1400 597.9800 1721.1400 588.7400L1721.1400 588.7400Q1721.1400 580.6000 1717.4000 574.6600Q1713.6600 568.7200 1707.1700 565.3100Q1700.6800 561.9000 1692.3200 561.9000L1692.3200 561.9000Q1686.1600 561.9000 1682.2000 563.4400Q1678.2400 564.9800 1675.4900 566.9600Q1672.7400 568.9400 1670.6500 570.4800Q1668.5600 572.0200 1665.9200 572.0200L1665.9200 572.0200L1645.6800 572.0200Q1643.7000 572.0200 1642.2700 570.5900Q1640.8400 569.1600 1640.8400 567.1800L1640.8400 567.1800L1648.5400 491.9400Q1648.7600 489.0800 1650.5200 487.5400Q1652.2800 486 1654.7000 486L1654.7000 486L1737.4200 486Q1739.6200 486 1741.1600 487.5400Q1742.7000 489.0800 1742.7000 491.2800L1742.7000 491.2800L1742.7000 506.0200Q1742.7000 508.2200 1741.1600 509.7600Q1739.6200 511.3000 1737.4200 511.3000L1737.4200 511.3000L1673.8400 511.3000L1670.3200 547.1600Q1674.2800 544.5200 1680.8800 542.1000Q1687.4800 539.6800 1699.1400 539.6800L1699.1400 539.6800Q1709.7000 539.6800 1719.2700 543.0900Q1728.8400 546.5000 1736.3200 552.9900Q1743.8000 559.4800 1748.0900 568.6100Q1752.3800 577.7400 1752.3800 589.4000L1752.3800 589.4000Q1752.3800 605.4600 1744.9000 617.3400Q1737.4200 629.2200 1724 635.8200Q1710.5800 642.4200 1692.3200 642.4200Z" id="lecture-full-number"/></g></svg>