<svg xmlns="http://www.w3.org/2000/svg" version="1.1" xmlns:xlink="http://www.w3.org/1999/xlink" xmlns:svgjs="http://svgjs.dev/svgjs" viewBox="0 0 1920 1080" id="3a0fc04e-e2dc-4f94-94f8-7fb44a1c0365"><g><rect width="1920" height="1080" fill="#5762d5"/></g><g fill="#8a721d"><path d="M865 270L865 2467C258.907 2467 -232 1976.03 -232 1369.87C-232 760.965 258.907 270 865 270Z"/></g><g fill="#ffffff" opacity="0.2"><path d="M1829.66 1149.02C1826.52 1125.1 1822.11 1101.18 1817.7 1077.89L1577.22 1318.37H1660.32L1829.66 1149.02Z"/><path d="M1798.82 998.567C1793.15 977.163 1786.23 955.759 1779.3 934.984L1395.92 1319H1479.02L1798.82 998.567Z"/><path d="M1752.86 863.214C1744.68 843.698 1736.5 824.183 1727.68 805.297L1214.61 1319H1297.71L1752.86 863.214Z"/><path d="M1694.32 739.83C1684.88 722.203 1674.17 704.576 1664.1 686.949L1147.89 1203.8C1152.92 1227.72 1156.7 1251.64 1158.59 1276.19L1694.32 739.83Z"/><path d="M1625.07 627.77C1613.73 611.402 1601.77 595.664 1589.81 579.926L1098.78 1071.59C1108.22 1089.85 1117.03 1109.36 1124.59 1128.88L1625.07 627.77Z"/><path d="M1546.38 525.789C1533.79 510.68 1520.57 496.201 1506.72 482.352L1025.12 964.574C1038.35 979.053 1050.31 994.791 1061.64 1011.16L1546.38 525.789Z"/><path d="M1457.61 433.249C1443.13 420.029 1428.65 406.809 1413.54 394.219L928.802 879.589C945.17 890.92 960.908 902.881 975.387 916.101L1457.61 433.249Z"/><path d="M1358.78 350.148C1343.04 338.187 1326.67 326.855 1310.3 315.523L808.564 817.891C828.709 825.445 847.595 833.629 866.481 843.072L1358.78 350.148Z"/><path d="M1251.12 276.495C1233.5 265.793 1215.87 255.72 1198.24 246.277L659.364 785.787C684.545 787.046 709.097 790.194 733.019 795.23L1251.12 276.495Z"/><path d="M1132.14 214.166C1113.26 205.352 1093.74 197.168 1074.23 188.984L626.627 637.212V720.31L1132.14 214.166Z"/><path d="M1001.83 163.175C980.427 156.25 959.023 149.955 937.619 144.289L626 455.908V539.006L1001.83 163.175Z"/><path d="M857.666 126.035C834.373 121.628 810.451 117.851 786.529 114.074L626.627 274.605V357.703L857.666 126.035Z"/><path d="M626.626 176.396L697.134 105.889C673.841 104.629 650.548 104 626.626 104V176.396Z"/></g><g><path d="M178.635 139.281L184.422 144.246V166.626H215.704L219.958 172.147L215.69 177.397H184.422V198.795L178.635 203.747L173 198.795V144.232L178.635 139.281ZM195.554 195.68H219.406L223.397 200.915L219.143 206.45H195.554L191.7 201.342L195.554 195.68ZM196.382 138H219.129L223.383 143.52L219.129 148.77H196.659L192.115 143.677L196.382 138ZM323.155 148.628L328.251 154.291L323.155 159.968H246.13L241.172 154.291L246.13 148.628H323.155ZM237.043 172.147L241.849 167.893L246.669 172.147V178.393C246.669 188.879 249.417 197.515 261.668 197.515H264.14C275.147 197.515 281.197 189.86 281.197 177.952V172.005L285.879 167.75L290.699 171.862V178.379C290.699 189.007 293.723 196.946 305.56 196.946H307.618C319.178 196.946 321.235 187.869 321.373 177.952V171.578L326.056 167.608L331 171.72V178.094C330.862 191.838 327.285 207.574 308.032 207.574H305.974C294.552 207.574 288.365 202.324 285.892 195.808C283.006 202.466 275.299 208.286 264.844 208.286H262.358C242.553 208.286 237.194 195.964 237.056 178.663V172.147H237.043ZM276.391 274.744L273.642 267.089L280.796 264.969L305.974 276.721V252.491L311.07 248.095L316.291 252.491V281.829L325.641 286.226L328.251 293.311L320.959 296L276.391 274.744ZM321.235 223.011L328.113 226.27L325.917 233.497L264.002 263.119L256.571 260.146L259.596 252.776L321.235 223.011ZM231.905 263.404L237.954 268.512C237.402 286.51 222.403 296 204.669 296H202.874C194.062 296 183.759 292.6 177.157 286.083L177.834 278.855L184.298 278.002C189.118 282.256 195.858 285.229 202.183 285.229H204.117C216.091 285.229 225.303 280.136 226.27 268.085L231.905 263.404ZM226.256 251.638C225.704 239.16 216.629 234.209 204.103 234.209H202.169C194.739 234.209 189.104 237.182 184.284 241.436L177.834 240.583L177.143 233.355C183.745 226.696 192.957 223.58 202.597 223.58H204.517C222.403 223.58 237.402 232.942 237.94 251.211L231.891 256.176L226.256 251.638Z" fill="#ffffff"/></g><path d="M1171 781L1171 339L1187 339L1187 781L1171 781Z" fill="#ffffff"/><g fill="#ffffff" id="info-group"><path d="M167.3700 600L159.1800 600Q158.2800 600 157.6500 599.3700Q157.0200 598.7400 157.0200 597.8400L157.0200 597.8400L157.0200 539.2500Q157.0200 538.2600 157.6500 537.6300Q158.2800 537 159.1800 537L159.1800 537L182.4900 537Q193.3800 537 199.6800 542.0400Q205.9800 547.0800 205.9800 556.7100L205.9800 556.7100Q205.9800 563.3700 202.6950 567.7800Q199.4100 572.1900 193.9200 574.1700L193.9200 574.1700L207.0600 597.1200Q207.3300 597.6600 207.3300 598.1100L207.3300 598.1100Q207.3300 598.9200 206.7450 599.4600Q206.1600 600 205.4400 600L205.4400 600L197.2500 600Q195.7200 600 194.9100 599.1900Q194.1000 598.3800 193.6500 597.5700L193.6500 597.5700L182.0400 576.2400L169.5300 576.2400L169.5300 597.8400Q169.5300 598.7400 168.9450 599.3700Q168.3600 600 167.3700 600L167.3700 600ZM169.5300 546.9900L169.5300 566.0700L182.2200 566.0700Q187.7100 566.0700 190.4100 563.5950Q193.1100 561.1200 193.1100 556.6200L193.1100 556.6200Q193.1100 552.1200 190.4550 549.5550Q187.8000 546.9900 182.2200 546.9900L182.2200 546.9900L169.5300 546.9900ZM236.6700 600.9000L236.6700 600.9000Q226.6800 600.9000 220.8300 595.1400Q214.9800 589.3800 214.5300 578.7600L214.5300 578.7600Q214.4400 577.8600 214.4400 576.4650Q214.4400 575.0700 214.5300 574.2600L214.5300 574.2600Q214.8900 567.4200 217.6350 562.5150Q220.3800 557.6100 225.2400 554.9550Q230.1000 552.3000 236.6700 552.3000L236.6700 552.3000Q243.9600 552.3000 248.9100 555.3150Q253.8600 558.3300 256.3800 563.6850Q258.9000 569.0400 258.9000 576.0600L258.9000 576.0600L258.9000 577.9500Q258.9000 578.8500 258.2700 579.4800Q257.6400 580.1100 256.6500 580.1100L256.6500 580.1100L226.7700 580.1100Q226.7700 580.1100 226.7700 580.3800Q226.7700 580.6500 226.7700 580.8300L226.7700 580.8300Q226.8600 583.9800 227.9850 586.6350Q229.1100 589.2900 231.3150 590.9100Q233.5200 592.5300 236.5800 592.5300L236.5800 592.5300Q239.1000 592.5300 240.8100 591.7650Q242.5200 591 243.6000 590.0100Q244.6800 589.0200 245.1300 588.3900L245.1300 588.3900Q245.9400 587.3100 246.4350 587.0850Q246.9300 586.8600 247.9200 586.8600L247.9200 586.8600L255.6600 586.8600Q256.5600 586.8600 257.1450 587.4000Q257.7300 587.9400 257.6400 588.7500L257.6400 588.7500Q257.5500 590.1900 256.1550 592.2600Q254.7600 594.3300 252.1500 596.3100Q249.5400 598.2900 245.6250 599.5950Q241.7100 600.9000 236.6700 600.9000ZM226.7700 572.2800L226.7700 572.5500L246.6600 572.5500L246.6600 572.2800Q246.6600 568.7700 245.4900 566.1150Q244.3200 563.4600 242.0700 561.9750Q239.8200 560.4900 236.6700 560.4900L236.6700 560.4900Q233.5200 560.4900 231.2700 561.9750Q229.0200 563.4600 227.8950 566.1150Q226.7700 568.7700 226.7700 572.2800L226.7700 572.2800ZM288.6900 600.9000L288.6900 600.9000Q282.2100 600.9000 277.3050 598.4700Q272.4000 596.0400 269.6550 591.4050Q266.9100 586.7700 266.6400 580.2000L266.6400 580.2000Q266.5500 578.8500 266.5500 576.6450Q266.5500 574.4400 266.6400 573L266.6400 573Q266.9100 566.4300 269.6550 561.7950Q272.4000 557.1600 277.3050 554.7300Q282.2100 552.3000 288.6900 552.3000L288.6900 552.3000Q294.4500 552.3000 298.5000 553.8750Q302.5500 555.4500 305.1600 557.9250Q307.7700 560.4000 309.0750 563.0550Q310.3800 565.7100 310.4700 567.8700L310.4700 567.8700Q310.5600 568.8600 309.8850 569.4450Q309.2100 570.0300 308.3100 570.0300L308.3100 570.0300L300.3900 570.0300Q299.4900 570.0300 298.9950 569.5800Q298.5000 569.1300 298.0500 568.2300L298.0500 568.2300Q296.7000 564.6300 294.4950 563.1450Q292.2900 561.6600 288.8700 561.6600L288.8700 561.6600Q284.3700 561.6600 281.7150 564.4950Q279.0600 567.3300 278.8800 573.4500L278.8800 573.4500Q278.7000 576.8700 278.8800 579.7500L278.8800 579.7500Q279.0600 585.9600 281.7150 588.7500Q284.3700 591.5400 288.8700 591.5400L288.8700 591.5400Q292.3800 591.5400 294.5400 590.0550Q296.7000 588.5700 298.0500 584.9700L298.0500 584.9700Q298.5000 584.0700 298.9950 583.6200Q299.4900 583.1700 300.3900 583.1700L300.3900 583.1700L308.3100 583.1700Q309.2100 583.1700 309.8850 583.7550Q310.5600 584.3400 310.4700 585.3300L310.4700 585.3300Q310.3800 586.9500 309.6150 588.9750Q308.8500 591 307.1850 593.1150Q305.5200 595.2300 303 596.9850Q300.4800 598.7400 296.9250 599.8200Q293.3700 600.9000 288.6900 600.9000ZM337.2000 600.9000L337.2000 600.9000Q331.7100 600.9000 327.7050 598.4250Q323.7000 595.9500 321.5400 591.4050Q319.3800 586.8600 319.3800 580.6500L319.3800 580.6500L319.3800 555.3600Q319.3800 554.4600 320.0100 553.8300Q320.6400 553.2000 321.5400 553.2000L321.5400 553.2000L329.4600 553.2000Q330.4500 553.2000 331.0350 553.8300Q331.6200 554.4600 331.6200 555.3600L331.6200 555.3600L331.6200 580.1100Q331.6200 591.2700 341.4300 591.2700L341.4300 591.2700Q346.1100 591.2700 348.8550 588.3000Q351.6000 585.3300 351.6000 580.1100L351.6000 580.1100L351.6000 555.3600Q351.6000 554.4600 352.2300 553.8300Q352.8600 553.2000 353.7600 553.2000L353.7600 553.2000L361.6800 553.2000Q362.5800 553.2000 363.2100 553.8300Q363.8400 554.4600 363.8400 555.3600L363.8400 555.3600L363.8400 597.8400Q363.8400 598.7400 363.2100 599.3700Q362.5800 600 361.6800 600L361.6800 600L354.3900 600Q353.4000 600 352.8150 599.3700Q352.2300 598.7400 352.2300 597.8400L352.2300 597.8400L352.2300 594.1500Q349.8000 597.3000 346.2000 599.1000Q342.6000 600.9000 337.2000 600.9000ZM385.7100 600L377.8800 600Q376.9800 600 376.3500 599.3700Q375.7200 598.7400 375.7200 597.8400L375.7200 597.8400L375.7200 555.4500Q375.7200 554.4600 376.3500 553.8300Q376.9800 553.2000 377.8800 553.2000L377.8800 553.2000L385.1700 553.2000Q386.0700 553.2000 386.7450 553.8300Q387.4200 554.4600 387.4200 555.4500L387.4200 555.4500L387.4200 559.1400Q389.4900 556.2600 392.7750 554.7300Q396.0600 553.2000 400.3800 553.2000L400.3800 553.2000L404.0700 553.2000Q405.0600 553.2000 405.6450 553.8300Q406.2300 554.4600 406.2300 555.3600L406.2300 555.3600L406.2300 561.8400Q406.2300 562.7400 405.6450 563.3700Q405.0600 564 404.0700 564L404.0700 564L397.0500 564Q392.7300 564 390.3450 566.3850Q387.9600 568.7700 387.9600 573.0900L387.9600 573.0900L387.9600 597.8400Q387.9600 598.7400 387.3300 599.3700Q386.7000 600 385.7100 600L385.7100 600ZM430.9800 600.9000L430.9800 600.9000Q425.5800 600.9000 421.7550 599.6400Q417.9300 598.3800 415.5000 596.4900Q413.0700 594.6000 411.9000 592.7100Q410.7300 590.8200 410.6400 589.5600L410.6400 589.5600Q410.5500 588.5700 411.2250 587.9850Q411.9000 587.4000 412.7100 587.4000L412.7100 587.4000L419.8200 587.4000Q420.1800 587.4000 420.4500 587.4900Q420.7200 587.5800 421.1700 588.0300L421.1700 588.0300Q422.3400 589.0200 423.6450 590.1000Q424.9500 591.1800 426.7500 591.9450Q428.5500 592.7100 431.2500 592.7100L431.2500 592.7100Q434.7600 592.7100 437.1450 591.3150Q439.5300 589.9200 439.5300 587.3100L439.5300 587.3100Q439.5300 585.4200 438.4950 584.2500Q437.4600 583.0800 434.6700 582.1350Q431.8800 581.1900 426.7500 580.1100L426.7500 580.1100Q421.7100 578.9400 418.3800 577.1400Q415.0500 575.3400 413.4300 572.6400Q411.8100 569.9400 411.8100 566.3400L411.8100 566.3400Q411.8100 562.8300 413.9250 559.6350Q416.0400 556.4400 420.2250 554.3700Q424.4100 552.3000 430.6200 552.3000L430.6200 552.3000Q435.4800 552.3000 439.0800 553.5150Q442.6800 554.7300 445.0650 556.5300Q447.4500 558.3300 448.7100 560.1750Q449.9700 562.0200 450.0600 563.3700L450.0600 563.3700Q450.1500 564.3600 449.5200 564.9450Q448.8900 565.5300 448.0800 565.5300L448.0800 565.5300L441.4200 565.5300Q440.9700 565.5300 440.6100 565.3500Q440.2500 565.1700 439.8900 564.9000L439.8900 564.9000Q438.9000 564 437.7300 562.9650Q436.5600 561.9300 434.8950 561.2100Q433.2300 560.4900 430.5300 560.4900L430.5300 560.4900Q427.1100 560.4900 425.3100 561.9750Q423.5100 563.4600 423.5100 565.7100L423.5100 565.7100Q423.5100 567.2400 424.3650 568.3650Q425.2200 569.4900 427.8300 570.4800Q430.4400 571.4700 435.7500 572.5500L435.7500 572.5500Q441.7800 573.6300 445.3350 575.7450Q448.8900 577.8600 450.3750 580.6050Q451.8600 583.3500 451.8600 586.6800L451.8600 586.6800Q451.8600 590.7300 449.4750 593.9700Q447.0900 597.2100 442.4550 599.0550Q437.8200 600.9000 430.9800 600.9000ZM481.8300 600.9000L481.8300 600.9000Q474.6300 600.9000 469.7250 598.3800Q464.8200 595.8600 462.2550 591.2700Q459.6900 586.6800 459.3300 580.5600L459.3300 580.5600Q459.2400 578.9400 459.2400 576.6000Q459.2400 574.2600 459.3300 572.6400L459.3300 572.6400Q459.6900 566.4300 462.3450 561.8850Q465.0000 557.3400 469.9050 554.8200Q474.8100 552.3000 481.8300 552.3000L481.8300 552.3000Q488.8500 552.3000 493.7550 554.8200Q498.6600 557.3400 501.3150 561.8850Q503.9700 566.4300 504.3300 572.6400L504.3300 572.6400Q504.4200 574.2600 504.4200 576.6000Q504.4200 578.9400 504.3300 580.5600L504.3300 580.5600Q503.9700 586.6800 501.4050 591.2700Q498.8400 595.8600 493.9350 598.3800Q489.0300 600.9000 481.8300 600.9000ZM481.8300 591.9900L481.8300 591.9900Q486.6000 591.9900 489.2100 588.9750Q491.8200 585.9600 492.0900 580.1100L492.0900 580.1100Q492.1800 578.7600 492.1800 576.6000Q492.1800 574.4400 492.0900 573.0900L492.0900 573.0900Q491.8200 567.2400 489.2100 564.2250Q486.6000 561.2100 481.8300 561.2100L481.8300 561.2100Q477.0600 561.2100 474.4500 564.2250Q471.8400 567.2400 471.5700 573.0900L471.5700 573.0900Q471.4800 574.4400 471.4800 576.6000Q471.4800 578.7600 471.5700 580.1100L471.5700 580.1100Q471.8400 585.9600 474.4500 588.9750Q477.0600 591.9900 481.8300 591.9900ZM532.1400 600.9000L532.1400 600.9000Q526.7400 600.9000 522.9150 599.6400Q519.0900 598.3800 516.6600 596.4900Q514.2300 594.6000 513.0600 592.7100Q511.8900 590.8200 511.8000 589.5600L511.8000 589.5600Q511.7100 588.5700 512.3850 587.9850Q513.0600 587.4000 513.8700 587.4000L513.8700 587.4000L520.9800 587.4000Q521.3400 587.4000 521.6100 587.4900Q521.8800 587.5800 522.3300 588.0300L522.3300 588.0300Q523.5000 589.0200 524.8050 590.1000Q526.1100 591.1800 527.9100 591.9450Q529.7100 592.7100 532.4100 592.7100L532.4100 592.7100Q535.9200 592.7100 538.3050 591.3150Q540.6900 589.9200 540.6900 587.3100L540.6900 587.3100Q540.6900 585.4200 539.6550 584.2500Q538.6200 583.0800 535.8300 582.1350Q533.0400 581.1900 527.9100 580.1100L527.9100 580.1100Q522.8700 578.9400 519.5400 577.1400Q516.2100 575.3400 514.5900 572.6400Q512.9700 569.9400 512.9700 566.3400L512.9700 566.3400Q512.9700 562.8300 515.0850 559.6350Q517.2000 556.4400 521.3850 554.3700Q525.5700 552.3000 531.7800 552.3000L531.7800 552.3000Q536.6400 552.3000 540.2400 553.5150Q543.8400 554.7300 546.2250 556.5300Q548.6100 558.3300 549.8700 560.1750Q551.1300 562.0200 551.2200 563.3700L551.2200 563.3700Q551.3100 564.3600 550.6800 564.9450Q550.0500 565.5300 549.2400 565.5300L549.2400 565.5300L542.5800 565.5300Q542.1300 565.5300 541.7700 565.3500Q541.4100 565.1700 541.0500 564.9000L541.0500 564.9000Q540.0600 564 538.8900 562.9650Q537.7200 561.9300 536.0550 561.2100Q534.3900 560.4900 531.6900 560.4900L531.6900 560.4900Q528.2700 560.4900 526.4700 561.9750Q524.6700 563.4600 524.6700 565.7100L524.6700 565.7100Q524.6700 567.2400 525.5250 568.3650Q526.3800 569.4900 528.9900 570.4800Q531.6000 571.4700 536.9100 572.5500L536.9100 572.5500Q542.9400 573.6300 546.4950 575.7450Q550.0500 577.8600 551.5350 580.6050Q553.0200 583.3500 553.0200 586.6800L553.0200 586.6800Q553.0200 590.7300 550.6350 593.9700Q548.2500 597.2100 543.6150 599.0550Q538.9800 600.9000 532.1400 600.9000ZM600.2700 600.9000L600.2700 600.9000Q595.5900 600.9000 592.0350 599.3250Q588.4800 597.7500 586.1400 594.8700Q583.8000 591.9900 582.5400 588.0750Q581.2800 584.1600 581.1000 579.4800L581.1000 579.4800Q581.0100 577.8600 581.0100 576.5550Q581.0100 575.2500 581.1000 573.6300L581.1000 573.6300Q581.2800 569.1300 582.4950 565.2600Q583.7100 561.3900 586.0950 558.4650Q588.4800 555.5400 592.0350 553.9200Q595.5900 552.3000 600.2700 552.3000L600.2700 552.3000Q605.1300 552.3000 608.5050 553.9650Q611.8800 555.6300 614.1300 558.2400L614.1300 558.2400L614.1300 538.2600Q614.1300 537.3600 614.7150 536.7300Q615.3000 536.1000 616.2900 536.1000L616.2900 536.1000L623.9400 536.1000Q624.8400 536.1000 625.4700 536.7300Q626.1000 537.3600 626.1000 538.2600L626.1000 538.2600L626.1000 597.8400Q626.1000 598.7400 625.4700 599.3700Q624.8400 600 623.9400 600L623.9400 600L616.8300 600Q615.8400 600 615.2550 599.3700Q614.6700 598.7400 614.6700 597.8400L614.6700 597.8400L614.6700 594.5100Q612.4200 597.3000 608.9550 599.1000Q605.4900 600.9000 600.2700 600.9000ZM603.6000 591.2700L603.6000 591.2700Q607.3800 591.2700 609.6300 589.5600Q611.8800 587.8500 612.9600 585.1950Q614.0400 582.5400 614.1300 579.7500L614.1300 579.7500Q614.2200 578.1300 614.2200 576.2850Q614.2200 574.4400 614.1300 572.8200L614.1300 572.8200Q614.0400 570.1200 612.8700 567.6450Q611.7000 565.1700 609.4500 563.5500Q607.2000 561.9300 603.6000 561.9300L603.6000 561.9300Q599.8200 561.9300 597.6150 563.5950Q595.4100 565.2600 594.4200 567.9600Q593.4300 570.6600 593.2500 573.9000L593.2500 573.9000Q593.1600 576.6000 593.2500 579.3000L593.2500 579.3000Q593.4300 582.5400 594.4200 585.2400Q595.4100 587.9400 597.6150 589.6050Q599.8200 591.2700 603.6000 591.2700ZM658.7700 600.9000L658.7700 600.9000Q651.5700 600.9000 646.6650 598.3800Q641.7600 595.8600 639.1950 591.2700Q636.6300 586.6800 636.2700 580.5600L636.2700 580.5600Q636.1800 578.9400 636.1800 576.6000Q636.1800 574.2600 636.2700 572.6400L636.2700 572.6400Q636.6300 566.4300 639.2850 561.8850Q641.9400 557.3400 646.8450 554.8200Q651.7500 552.3000 658.7700 552.3000L658.7700 552.3000Q665.7900 552.3000 670.6950 554.8200Q675.6000 557.3400 678.2550 561.8850Q680.9100 566.4300 681.2700 572.6400L681.2700 572.6400Q681.3600 574.2600 681.3600 576.6000Q681.3600 578.9400 681.2700 580.5600L681.2700 580.5600Q680.9100 586.6800 678.3450 591.2700Q675.7800 595.8600 670.8750 598.3800Q665.9700 600.9000 658.7700 600.9000ZM658.7700 591.9900L658.7700 591.9900Q663.5400 591.9900 666.1500 588.9750Q668.7600 585.9600 669.0300 580.1100L669.0300 580.1100Q669.1200 578.7600 669.1200 576.6000Q669.1200 574.4400 669.0300 573.0900L669.0300 573.0900Q668.7600 567.2400 666.1500 564.2250Q663.5400 561.2100 658.7700 561.2100L658.7700 561.2100Q654.0000 561.2100 651.3900 564.2250Q648.7800 567.2400 648.5100 573.0900L648.5100 573.0900Q648.4200 574.4400 648.4200 576.6000Q648.4200 578.7600 648.5100 580.1100L648.5100 580.1100Q648.7800 585.9600 651.3900 588.9750Q654.0000 591.9900 658.7700 591.9900ZM755.5200 600L715.2000 600Q714.3000 600 713.6700 599.3700Q713.0400 598.7400 713.0400 597.8400L713.0400 597.8400L713.0400 539.2500Q713.0400 538.2600 713.6700 537.6300Q714.3000 537 715.2000 537L715.2000 537L754.8000 537Q755.7900 537 756.4200 537.6300Q757.0500 538.2600 757.0500 539.2500L757.0500 539.2500L757.0500 545.1900Q757.0500 546.0900 756.4200 546.7200Q755.7900 547.3500 754.8000 547.3500L754.8000 547.3500L725.1900 547.3500L725.1900 563.2800L752.8200 563.2800Q753.8100 563.2800 754.4400 563.8650Q755.0700 564.4500 755.0700 565.4400L755.0700 565.4400L755.0700 571.0200Q755.0700 572.0100 754.4400 572.5950Q753.8100 573.1800 752.8200 573.1800L752.8200 573.1800L725.1900 573.1800L725.1900 589.6500L755.5200 589.6500Q756.5100 589.6500 757.1400 590.2800Q757.7700 590.9100 757.7700 591.9000L757.7700 591.9000L757.7700 597.8400Q757.7700 598.7400 757.1400 599.3700Q756.5100 600 755.5200 600L755.5200 600ZM790.8900 600.9000L790.8900 600.9000Q782.5200 600.9000 776.8950 598.4250Q771.2700 595.9500 768.3450 591.9450Q765.4200 587.9400 765.2400 583.5300L765.2400 583.5300Q765.2400 582.7200 765.7800 582.1800Q766.3200 581.6400 767.1300 581.6400L767.1300 581.6400L775.1400 581.6400Q776.3100 581.6400 776.8950 582.1350Q777.4800 582.6300 777.9300 583.3500L777.9300 583.3500Q778.4700 585.0600 780.0000 586.7250Q781.5300 588.3900 784.1850 589.4700Q786.8400 590.5500 790.8900 590.5500L790.8900 590.5500Q797.3700 590.5500 800.5650 588.3900Q803.7600 586.2300 803.7600 582.5400L803.7600 582.5400Q803.7600 579.9300 802.0500 578.3550Q800.3400 576.7800 796.7850 575.4750Q793.2300 574.1700 787.3800 572.7300L787.3800 572.7300Q780.6300 571.1100 776.0850 568.8150Q771.5400 566.5200 769.2450 563.0100Q766.9500 559.5000 766.9500 554.1000L766.9500 554.1000Q766.9500 548.8800 769.7850 544.8300Q772.6200 540.7800 777.8850 538.4400Q783.1500 536.1000 790.4400 536.1000L790.4400 536.1000Q796.2900 536.1000 800.7900 537.6750Q805.2900 539.2500 808.2600 541.8150Q811.2300 544.3800 812.8050 547.3050Q814.3800 550.2300 814.4700 553.0200L814.4700 553.0200Q814.4700 553.7400 813.9750 554.3250Q813.4800 554.9100 812.5800 554.9100L812.5800 554.9100L804.2100 554.9100Q803.4900 554.9100 802.7700 554.5500Q802.0500 554.1900 801.6000 553.2000L801.6000 553.2000Q801.0600 550.4100 798.0900 548.4300Q795.1200 546.4500 790.4400 546.4500L790.4400 546.4500Q785.5800 546.4500 782.6100 548.2500Q779.6400 550.0500 779.6400 553.8300L779.6400 553.8300Q779.6400 556.3500 781.1250 558.0150Q782.6100 559.6800 785.8950 560.9400Q789.1800 562.2000 794.5800 563.6400L794.5800 563.6400Q802.2300 565.3500 807.0900 567.6000Q811.9500 569.8500 814.2000 573.3150Q816.4500 576.7800 816.4500 582.0900L816.4500 582.0900Q816.4500 588.0300 813.2550 592.2150Q810.0600 596.4000 804.3000 598.6500Q798.5400 600.9000 790.8900 600.9000ZM848.4900 600.9000L848.4900 600.9000Q840.7500 600.9000 835.1700 597.9750Q829.5900 595.0500 826.5300 590.0550Q823.4700 585.0600 823.4700 578.8500L823.4700 578.8500Q823.4700 576.0600 824.1900 573.4500Q824.9100 570.8400 826.0800 568.5000Q827.2500 566.1600 828.3750 564.3150Q829.5000 562.4700 830.4000 561.3900L830.4000 561.3900L846.8700 538.8000Q847.2300 538.3500 847.9500 537.6750Q848.6700 537 849.9300 537L849.9300 537L858.3000 537Q859.1100 537 859.6500 537.5850Q860.1900 538.1700 860.1900 538.9800L860.1900 538.9800Q860.1900 539.3400 860.0550 539.6550Q859.9200 539.9700 859.7400 540.1500L859.7400 540.1500L847.1400 557.6100Q847.9500 557.3400 849.0300 557.2500Q850.1100 557.1600 851.0100 557.1600L851.0100 557.1600Q855.5100 557.2500 859.5600 558.9150Q863.6100 560.5800 866.6700 563.4600Q869.7300 566.3400 871.4850 570.2100Q873.2400 574.0800 873.2400 578.6700L873.2400 578.6700Q873.2400 584.6100 870.2700 589.6950Q867.3000 594.7800 861.7650 597.8400Q856.2300 600.9000 848.4900 600.9000ZM848.4000 590.5500L848.4000 590.5500Q851.6400 590.5500 854.3850 589.2000Q857.1300 587.8500 858.8400 585.2400Q860.5500 582.6300 860.5500 578.7600L860.5500 578.7600Q860.5500 574.9800 858.8400 572.3700Q857.1300 569.7600 854.3850 568.4100Q851.6400 567.0600 848.4000 567.0600L848.4000 567.0600Q845.1600 567.0600 842.4150 568.4100Q839.6700 569.7600 837.9600 572.3700Q836.2500 574.9800 836.2500 578.7600L836.2500 578.7600Q836.2500 582.6300 837.9600 585.2400Q839.6700 587.8500 842.4150 589.2000Q845.1600 590.5500 848.4000 590.5500ZM906.4500 597.0300L901.2300 597.0300Q900.3300 597.0300 899.7000 596.4000Q899.0700 595.7700 899.0700 594.8700L899.0700 594.8700L899.0700 577.3200L881.7900 577.3200Q880.8900 577.3200 880.2600 576.6900Q879.6300 576.0600 879.6300 575.0700L879.6300 575.0700L879.6300 570.3900Q879.6300 569.4000 880.2600 568.8150Q880.8900 568.2300 881.7900 568.2300L881.7900 568.2300L899.0700 568.2300L899.0700 551.1300Q899.0700 550.2300 899.7000 549.6000Q900.3300 548.9700 901.2300 548.9700L901.2300 548.9700L906.4500 548.9700Q907.4400 548.9700 908.0250 549.6000Q908.6100 550.2300 908.6100 551.1300L908.6100 551.1300L908.6100 568.2300L925.8900 568.2300Q926.7900 568.2300 927.4200 568.8150Q928.0500 569.4000 928.0500 570.3900L928.0500 570.3900L928.0500 575.0700Q928.0500 576.0600 927.4200 576.6900Q926.7900 577.3200 925.8900 577.3200L925.8900 577.3200L908.6100 577.3200L908.6100 594.8700Q908.6100 595.7700 908.0250 596.4000Q907.4400 597.0300 906.4500 597.0300L906.4500 597.0300Z" id="title"/><path d="M1448.3400 640L1343.1800 640Q1340.9800 640 1339.4400 638.4600Q1337.9000 636.9200 1337.9000 634.7200L1337.9000 634.7200L1337.9000 623.5000Q1337.9000 621.5200 1338.8900 618.7700Q1339.8800 616.0200 1343.4000 613.1600L1343.4000 613.1600L1378.1600 578.6200Q1392.6800 567.1800 1401.5900 559.1500Q1410.5000 551.1200 1414.5700 544.4100Q1418.6400 537.7000 1418.6400 531.1000L1418.6400 531.1000Q1418.6400 521.2000 1413.2500 515.0400Q1407.8600 508.8800 1396.2000 508.8800L1396.2000 508.8800Q1388.5000 508.8800 1383.2200 512.0700Q1377.9400 515.2600 1374.9700 520.5400Q1372 525.8200 1370.9000 532.2000L1370.9000 532.2000Q1370.4600 535.0600 1368.4800 536.1600Q1366.5000 537.2600 1364.5200 537.2600L1364.5200 537.2600L1344.9400 537.2600Q1342.9600 537.2600 1341.6400 535.9400Q1340.3200 534.6200 1340.3200 532.8600L1340.3200 532.8600Q1340.5400 523.4000 1344.2800 514.4900Q1348.0200 505.5800 1355.1700 498.6500Q1362.3200 491.7200 1372.6600 487.5400Q1383 483.3600 1395.9800 483.3600L1395.9800 483.3600Q1414.2400 483.3600 1426.2300 489.5200Q1438.2200 495.6800 1444.2700 506.2400Q1450.3200 516.8000 1450.3200 530L1450.3200 530Q1450.3200 540.3400 1446.3600 549.0300Q1442.4000 557.7200 1434.9200 565.7500Q1427.4400 573.7800 1416.8800 582.1400L1416.8800 582.1400L1385.6400 613.8200L1448.3400 613.8200Q1450.7600 613.8200 1452.1900 615.2500Q1453.6200 616.6800 1453.6200 619.1000L1453.6200 619.1000L1453.6200 634.7200Q1453.6200 636.9200 1452.1900 638.4600Q1450.7600 640 1448.3400 640L1448.3400 640ZM1531.5000 642.4200L1531.5000 642.4200Q1512.5800 642.4200 1499.6000 636.1500Q1486.6200 629.8800 1479.9100 619.7600Q1473.2000 609.6400 1472.7600 598.2000L1472.7600 598.2000Q1472.5400 596.2200 1473.9700 595.0100Q1475.4000 593.8000 1477.3800 593.8000L1477.3800 593.8000L1497.8400 593.8000Q1500.2600 593.8000 1501.9100 594.7900Q1503.5600 595.7800 1504.4400 598.2000L1504.4400 598.2000Q1506.6400 604.8000 1510.7100 608.9800Q1514.7800 613.1600 1520.1700 615.1400Q1525.5600 617.1200 1531.5000 617.1200L1531.5000 617.1200Q1539.4200 617.1200 1545.9100 613.9300Q1552.4000 610.7400 1556.3600 604.3600Q1560.3200 597.9800 1560.3200 588.7400L1560.3200 588.7400Q1560.3200 580.6000 1556.5800 574.6600Q1552.8400 568.7200 1546.3500 565.3100Q1539.8600 561.9000 1531.5000 561.9000L1531.5000 561.9000Q1525.3400 561.9000 1521.3800 563.4400Q1517.4200 564.9800 1514.6700 566.9600Q1511.9200 568.9400 1509.8300 570.4800Q1507.7400 572.0200 1505.1000 572.0200L1505.1000 572.0200L1484.8600 572.0200Q1482.8800 572.0200 1481.4500 570.5900Q1480.0200 569.1600 1480.0200 567.1800L1480.0200 567.1800L1487.7200 491.9400Q1487.9400 489.0800 1489.7000 487.5400Q1491.4600 486 1493.8800 486L1493.8800 486L1576.6000 486Q1578.8000 486 1580.3400 487.5400Q1581.8800 489.0800 1581.8800 491.2800L1581.8800 491.2800L1581.8800 506.0200Q1581.8800 508.2200 1580.3400 509.7600Q1578.8000 511.3000 1576.6000 511.3000L1576.6000 511.3000L1513.0200 511.3000L1509.5000 547.1600Q1513.4600 544.5200 1520.0600 542.1000Q1526.6600 539.6800 1538.3200 539.6800L1538.3200 539.6800Q1548.8800 539.6800 1558.4500 543.0900Q1568.0200 546.5000 1575.5000 552.9900Q1582.9800 559.4800 1587.2700 568.6100Q1591.5600 577.7400 1591.5600 589.4000L1591.5600 589.4000Q1591.5600 605.4600 1584.0800 617.3400Q1576.6000 629.2200 1563.1800 635.8200Q1549.7600 642.4200 1531.5000 642.4200ZM1639.5200 640L1617.5200 640Q1615.3200 640 1613.7800 638.4600Q1612.2400 636.9200 1612.2400 634.7200L1612.2400 634.7200L1612.2400 612.9400Q1612.2400 610.5200 1613.7800 608.9800Q1615.3200 607.4400 1617.5200 607.4400L1617.5200 607.4400L1639.5200 607.4400Q1641.7200 607.4400 1643.2600 608.9800Q1644.8000 610.5200 1644.8000 612.9400L1644.8000 612.9400L1644.8000 634.7200Q1644.8000 636.9200 1643.2600 638.4600Q1641.7200 640 1639.5200 640L1639.5200 640ZM1725.3200 642.4200L1725.3200 642.4200Q1706.4000 642.4200 1693.4200 636.1500Q1680.4400 629.8800 1673.7300 619.7600Q1667.0200 609.6400 1666.5800 598.2000L1666.5800 598.2000Q1666.3600 596.2200 1667.7900 595.0100Q1669.2200 593.8000 1671.2000 593.8000L1671.2000 593.8000L1691.6600 593.8000Q1694.0800 593.8000 1695.7300 594.7900Q1697.3800 595.7800 1698.2600 598.2000L1698.2600 598.2000Q1700.4600 604.8000 1704.5300 608.9800Q1708.6000 613.1600 1713.9900 615.1400Q1719.3800 617.1200 1725.3200 617.1200L1725.3200 617.1200Q1733.2400 617.1200 1739.7300 613.9300Q1746.2200 610.7400 1750.1800 604.3600Q1754.1400 597.9800 1754.1400 588.7400L1754.1400 588.7400Q1754.1400 580.6000 1750.4000 574.6600Q1746.6600 568.7200 1740.1700 565.3100Q1733.6800 561.9000 1725.3200 561.9000L1725.3200 561.9000Q1719.1600 561.9000 1715.2000 563.4400Q1711.2400 564.9800 1708.4900 566.9600Q1705.7400 568.9400 1703.6500 570.4800Q1701.5600 572.0200 1698.9200 572.0200L1698.9200 572.0200L1678.6800 572.0200Q1676.7000 572.0200 1675.2700 570.5900Q1673.8400 569.1600 1673.8400 567.1800L1673.8400 567.1800L1681.5400 491.9400Q1681.7600 489.0800 1683.5200 487.5400Q1685.2800 486 1687.7000 486L1687.7000 486L1770.4200 486Q1772.6200 486 1774.1600 487.5400Q1775.7000 489.0800 1775.7000 491.2800L1775.7000 491.2800L1775.7000 506.0200Q1775.7000 508.2200 1774.1600 509.7600Q1772.6200 511.3000 1770.4200 511.3000L1770.4200 511.3000L1706.8400 511.3000L1703.3200 547.1600Q1707.2800 544.5200 1713.8800 542.1000Q1720.4800 539.6800 1732.1400 539.6800L1732.1400 539.6800Q1742.7000 539.6800 1752.2700 543.0900Q1761.8400 546.5000 1769.3200 552.9900Q1776.8000 559.4800 1781.0900 568.6100Q1785.3800 577.7400 1785.3800 589.4000L1785.3800 589.4000Q1785.3800 605.4600 1777.9000 617.3400Q1770.4200 629.2200 1757.0000 635.8200Q1743.5800 642.4200 1725.3200 642.4200Z" id="lecture-full-number"/></g></svg>