<svg xmlns="http://www.w3.org/2000/svg" version="1.1" xmlns:xlink="http://www.w3.org/1999/xlink" xmlns:svgjs="http://svgjs.dev/svgjs" viewBox="0 0 1920 1080" id="719e5113-2bd2-4030-b540-e431642234af"><g><rect width="1920" height="1080" fill="#68a357"/></g><g fill="#c97064"><path d="M745.478 668.096L1087.28 1009.97L1200.88 896.347L859.076 554.473L745.478 668.096Z"/><path d="M858.951 554.294L517.152 896.168L630.75 1009.79L972.549 667.917L858.951 554.294Z"/><path d="M289.239 668.391L631.038 1010.27L744.636 896.643L402.837 554.769L289.239 668.391Z"/><path d="M402.706 554L60.907 895.874L174.505 1009.5L516.304 667.623L402.706 554Z"/><path d="M-166 667.682L175.799 1009.56L289.397 895.933L-52.4021 554.059L-166 667.682Z"/></g><g fill="#ffffff" opacity="0.2"><path d="M1134 160C1540.91 160 1872 491.086 1872 898C1872 1304.91 1540.91 1636 1134 1636C727.086 1635.56 396 1304.91 396 898C396 491.086 727.086 160 1134 160ZM1134 1611.31C1527.25 1611.31 1847.31 1291.25 1847.31 898C1847.31 504.753 1527.25 184.247 1134 184.247C740.753 184.247 420.247 504.312 420.247 898C420.247 1291.69 740.312 1611.31 1134 1611.31Z"/><path d="M1134 251.699C1490.22 251.699 1780.3 541.785 1780.3 898C1780.3 1254.22 1490.22 1544.3 1134 1544.3C777.785 1544.3 487.699 1254.22 487.699 898C487.699 541.785 777.344 251.699 1134 251.699ZM1134 1519.61C1476.99 1519.61 1756.05 1240.55 1756.05 897.559C1756.05 554.57 1476.99 275.947 1134 275.947C791.011 275.947 511.946 555.011 511.946 898C511.946 1240.99 791.011 1519.61 1134 1519.61Z"/><path d="M1134 342.957C1439.96 342.957 1688.6 592.043 1688.6 897.559C1688.6 1203.52 1439.52 1452.16 1134 1452.16C828.043 1452.16 579.398 1203.08 579.398 897.559C578.957 592.043 828.043 342.957 1134 342.957ZM1134 1428.35C1426.29 1428.35 1664.35 1190.29 1664.35 898C1664.35 605.71 1426.29 367.645 1134 367.645C841.71 367.645 603.645 605.71 603.645 898C603.645 1190.29 841.269 1428.35 1134 1428.35Z"/><path d="M1134 434.656C1389.26 434.656 1597.34 642.301 1597.34 898C1597.34 1153.7 1389.7 1361.34 1134 1361.34C878.742 1361.34 670.656 1153.7 670.656 898C670.656 642.301 878.301 434.656 1134 434.656ZM1134 1336.66C1376.03 1336.66 1572.66 1139.59 1572.66 898C1572.66 656.408 1375.59 459.344 1134 459.344C891.968 459.344 695.344 656.408 695.344 898C695.344 1139.59 891.968 1336.66 1134 1336.66Z"/><path d="M1134 526.354C1339 526.354 1505.65 693 1505.65 898C1505.65 1103 1339 1269.64 1134 1269.64C929 1269.64 762.355 1103 762.355 898C762.355 693 929 526.354 1134 526.354ZM1134 1244.96C1325.33 1244.96 1481.4 1089.33 1481.4 897.559C1481.4 706.225 1325.77 550.161 1134 550.161C942.667 550.161 786.602 705.785 786.602 897.559C786.602 1089.33 942.226 1244.96 1134 1244.96Z"/><path d="M1134 617.613C1288.3 617.613 1414.39 743.258 1414.39 898C1414.39 1052.74 1288.74 1178.39 1134 1178.39C979.699 1178.39 853.613 1052.74 853.613 898C853.613 743.258 979.258 617.613 1134 617.613ZM1134 1153.7C1275.08 1153.7 1389.7 1039.08 1389.7 898C1389.7 756.925 1275.08 642.301 1134 642.301C992.925 642.301 878.301 756.925 878.301 898C878.301 1039.08 992.925 1153.7 1134 1153.7Z"/><path d="M1134 709.312C1238.04 709.312 1322.69 793.957 1322.69 898C1322.69 1002.04 1238.04 1086.69 1134 1086.69C1029.96 1086.69 945.312 1002.04 945.312 898C945.312 793.957 1029.96 709.312 1134 709.312ZM1134 1062C1224.38 1062 1298.44 988.377 1298.44 897.559C1298.44 807.183 1224.82 733.118 1134 733.118C1043.62 733.118 969.559 806.742 969.559 897.559C969.559 988.377 1043.18 1062 1134 1062Z"/><path d="M1134 800.57C1187.34 800.57 1230.99 844.215 1230.99 897.56C1230.99 950.904 1187.34 994.549 1134 994.549C1080.66 994.549 1037.01 950.904 1037.01 897.56C1036.57 844.215 1080.22 800.57 1134 800.57ZM1134 970.742C1174.12 970.742 1206.74 938.119 1206.74 898C1206.74 857.882 1174.12 825.258 1134 825.258C1093.88 825.258 1061.26 857.882 1061.26 898C1061.26 938.119 1093.88 970.742 1134 970.742Z"/></g><g><path d="M178.635 139.281L184.422 144.246V166.626H215.704L219.958 172.147L215.69 177.397H184.422V198.795L178.635 203.747L173 198.795V144.232L178.635 139.281ZM195.554 195.68H219.406L223.397 200.915L219.143 206.45H195.554L191.7 201.342L195.554 195.68ZM196.382 138H219.129L223.383 143.52L219.129 148.77H196.659L192.115 143.677L196.382 138ZM323.155 148.628L328.251 154.291L323.155 159.968H246.13L241.172 154.291L246.13 148.628H323.155ZM237.043 172.147L241.849 167.893L246.669 172.147V178.393C246.669 188.879 249.417 197.515 261.668 197.515H264.14C275.147 197.515 281.197 189.86 281.197 177.952V172.005L285.879 167.75L290.699 171.862V178.379C290.699 189.007 293.723 196.946 305.56 196.946H307.618C319.178 196.946 321.235 187.869 321.373 177.952V171.578L326.056 167.608L331 171.72V178.094C330.862 191.838 327.285 207.574 308.032 207.574H305.974C294.552 207.574 288.365 202.324 285.892 195.808C283.006 202.466 275.299 208.286 264.844 208.286H262.358C242.553 208.286 237.194 195.964 237.056 178.663V172.147H237.043ZM276.391 274.744L273.642 267.089L280.796 264.969L305.974 276.721V252.491L311.07 248.095L316.291 252.491V281.829L325.641 286.226L328.251 293.311L320.959 296L276.391 274.744ZM321.235 223.011L328.113 226.27L325.917 233.497L264.002 263.119L256.571 260.146L259.596 252.776L321.235 223.011ZM231.905 263.404L237.954 268.512C237.402 286.51 222.403 296 204.669 296H202.874C194.062 296 183.759 292.6 177.157 286.083L177.834 278.855L184.298 278.002C189.118 282.256 195.858 285.229 202.183 285.229H204.117C216.091 285.229 225.303 280.136 226.27 268.085L231.905 263.404ZM226.256 251.638C225.704 239.16 216.629 234.209 204.103 234.209H202.169C194.739 234.209 189.104 237.182 184.284 241.436L177.834 240.583L177.143 233.355C183.745 226.696 192.957 223.58 202.597 223.58H204.517C222.403 223.58 237.402 232.942 237.94 251.211L231.891 256.176L226.256 251.638Z" fill="#ffffff"/></g><path d="M1171 781L1171 339L1187 339L1187 781L1171 781Z" fill="#ffffff"/><g fill="#ffffff" id="info-group"><path d="M167.7300 600L159.1800 600Q158.2800 600 157.6500 599.3700Q157.0200 598.7400 157.0200 597.8400L157.0200 597.8400L157.0200 539.2500Q157.0200 538.2600 157.6500 537.6300Q158.2800 537 159.1800 537L159.1800 537L183.3000 537Q190.3200 537 195.5400 539.2050Q200.7600 541.4100 203.6400 545.8650Q206.5200 550.3200 206.5200 556.9800L206.5200 556.9800Q206.5200 563.7300 203.6400 568.0950Q200.7600 572.4600 195.5400 574.6200Q190.3200 576.7800 183.3000 576.7800L183.3000 576.7800L169.8900 576.7800L169.8900 597.8400Q169.8900 598.7400 169.3050 599.3700Q168.7200 600 167.7300 600L167.7300 600ZM169.7100 546.9900L169.7100 566.7900L182.8500 566.7900Q188.0700 566.7900 190.8600 564.3150Q193.6500 561.8400 193.6500 556.9800L193.6500 556.9800Q193.6500 552.4800 191.0400 549.7350Q188.4300 546.9900 182.8500 546.9900L182.8500 546.9900L169.7100 546.9900ZM225.2400 600L217.4100 600Q216.5100 600 215.8800 599.3700Q215.2500 598.7400 215.2500 597.8400L215.2500 597.8400L215.2500 555.4500Q215.2500 554.4600 215.8800 553.8300Q216.5100 553.2000 217.4100 553.2000L217.4100 553.2000L224.7000 553.2000Q225.6000 553.2000 226.2750 553.8300Q226.9500 554.4600 226.9500 555.4500L226.9500 555.4500L226.9500 559.1400Q229.0200 556.2600 232.3050 554.7300Q235.5900 553.2000 239.9100 553.2000L239.9100 553.2000L243.6000 553.2000Q244.5900 553.2000 245.1750 553.8300Q245.7600 554.4600 245.7600 555.3600L245.7600 555.3600L245.7600 561.8400Q245.7600 562.7400 245.1750 563.3700Q244.5900 564 243.6000 564L243.6000 564L236.5800 564Q232.2600 564 229.8750 566.3850Q227.4900 568.7700 227.4900 573.0900L227.4900 573.0900L227.4900 597.8400Q227.4900 598.7400 226.8600 599.3700Q226.2300 600 225.2400 600L225.2400 600ZM273.4800 600.9000L273.4800 600.9000Q266.2800 600.9000 261.3750 598.3800Q256.4700 595.8600 253.9050 591.2700Q251.3400 586.6800 250.9800 580.5600L250.9800 580.5600Q250.8900 578.9400 250.8900 576.6000Q250.8900 574.2600 250.9800 572.6400L250.9800 572.6400Q251.3400 566.4300 253.9950 561.8850Q256.6500 557.3400 261.5550 554.8200Q266.4600 552.3000 273.4800 552.3000L273.4800 552.3000Q280.5000 552.3000 285.4050 554.8200Q290.3100 557.3400 292.9650 561.8850Q295.6200 566.4300 295.9800 572.6400L295.9800 572.6400Q296.0700 574.2600 296.0700 576.6000Q296.0700 578.9400 295.9800 580.5600L295.9800 580.5600Q295.6200 586.6800 293.0550 591.2700Q290.4900 595.8600 285.5850 598.3800Q280.6800 600.9000 273.4800 600.9000ZM273.4800 591.9900L273.4800 591.9900Q278.2500 591.9900 280.8600 588.9750Q283.4700 585.9600 283.7400 580.1100L283.7400 580.1100Q283.8300 578.7600 283.8300 576.6000Q283.8300 574.4400 283.7400 573.0900L283.7400 573.0900Q283.4700 567.2400 280.8600 564.2250Q278.2500 561.2100 273.4800 561.2100L273.4800 561.2100Q268.7100 561.2100 266.1000 564.2250Q263.4900 567.2400 263.2200 573.0900L263.2200 573.0900Q263.1300 574.4400 263.1300 576.6000Q263.1300 578.7600 263.2200 580.1100L263.2200 580.1100Q263.4900 585.9600 266.1000 588.9750Q268.7100 591.9900 273.4800 591.9900ZM301.7400 617.1000L298.3200 617.1000Q297.4200 617.1000 296.7900 616.4700Q296.1600 615.8400 296.1600 614.9400L296.1600 614.9400L296.1600 609.7200Q296.1600 608.8200 296.7900 608.1900Q297.4200 607.5600 298.3200 607.5600L298.3200 607.5600L300.6600 607.5600Q303.4500 607.5600 304.8000 606.5700Q306.1500 605.5800 306.6000 603.8250Q307.0500 602.0700 307.0500 599.9100L307.0500 599.9100L307.0500 555.3600Q307.0500 554.4600 307.6800 553.8300Q308.3100 553.2000 309.2100 553.2000L309.2100 553.2000L317.0400 553.2000Q317.9400 553.2000 318.5700 553.8300Q319.2000 554.4600 319.2000 555.3600L319.2000 555.3600L319.2000 600.0900Q319.2000 605.4000 317.2650 609.1800Q315.3300 612.9600 311.5050 615.0300Q307.6800 617.1000 301.7400 617.1000L301.7400 617.1000ZM317.3100 545.4600L308.8500 545.4600Q307.8600 545.4600 307.2750 544.8300Q306.6900 544.2000 306.6900 543.3000L306.6900 543.3000L306.6900 536.8200Q306.6900 535.9200 307.2750 535.2900Q307.8600 534.6600 308.8500 534.6600L308.8500 534.6600L317.3100 534.6600Q318.3000 534.6600 318.9300 535.2900Q319.5600 535.9200 319.5600 536.8200L319.5600 536.8200L319.5600 543.3000Q319.5600 544.2000 318.9300 544.8300Q318.3000 545.4600 317.3100 545.4600L317.3100 545.4600ZM351.3300 600.9000L351.3300 600.9000Q341.3400 600.9000 335.4900 595.1400Q329.6400 589.3800 329.1900 578.7600L329.1900 578.7600Q329.1000 577.8600 329.1000 576.4650Q329.1000 575.0700 329.1900 574.2600L329.1900 574.2600Q329.5500 567.4200 332.2950 562.5150Q335.0400 557.6100 339.9000 554.9550Q344.7600 552.3000 351.3300 552.3000L351.3300 552.3000Q358.6200 552.3000 363.5700 555.3150Q368.5200 558.3300 371.0400 563.6850Q373.5600 569.0400 373.5600 576.0600L373.5600 576.0600L373.5600 577.9500Q373.5600 578.8500 372.9300 579.4800Q372.3000 580.1100 371.3100 580.1100L371.3100 580.1100L341.4300 580.1100Q341.4300 580.1100 341.4300 580.3800Q341.4300 580.6500 341.4300 580.8300L341.4300 580.8300Q341.5200 583.9800 342.6450 586.6350Q343.7700 589.2900 345.9750 590.9100Q348.1800 592.5300 351.2400 592.5300L351.2400 592.5300Q353.7600 592.5300 355.4700 591.7650Q357.1800 591 358.2600 590.0100Q359.3400 589.0200 359.7900 588.3900L359.7900 588.3900Q360.6000 587.3100 361.0950 587.0850Q361.5900 586.8600 362.5800 586.8600L362.5800 586.8600L370.3200 586.8600Q371.2200 586.8600 371.8050 587.4000Q372.3900 587.9400 372.3000 588.7500L372.3000 588.7500Q372.2100 590.1900 370.8150 592.2600Q369.4200 594.3300 366.8100 596.3100Q364.2000 598.2900 360.2850 599.5950Q356.3700 600.9000 351.3300 600.9000ZM341.4300 572.2800L341.4300 572.5500L361.3200 572.5500L361.3200 572.2800Q361.3200 568.7700 360.1500 566.1150Q358.9800 563.4600 356.7300 561.9750Q354.4800 560.4900 351.3300 560.4900L351.3300 560.4900Q348.1800 560.4900 345.9300 561.9750Q343.6800 563.4600 342.5550 566.1150Q341.4300 568.7700 341.4300 572.2800L341.4300 572.2800ZM411.5400 600L404.2500 600Q398.8500 600 395.1600 598.1100Q391.4700 596.2200 389.6700 592.4850Q387.8700 588.7500 387.8700 583.1700L387.8700 583.1700L387.8700 562.7400L380.7600 562.7400Q379.8600 562.7400 379.2300 562.1100Q378.6000 561.4800 378.6000 560.4900L378.6000 560.4900L378.6000 555.3600Q378.6000 554.4600 379.2300 553.8300Q379.8600 553.2000 380.7600 553.2000L380.7600 553.2000L387.8700 553.2000L387.8700 538.2600Q387.8700 537.3600 388.4550 536.7300Q389.0400 536.1000 390.0300 536.1000L390.0300 536.1000L397.3200 536.1000Q398.2200 536.1000 398.8500 536.7300Q399.4800 537.3600 399.4800 538.2600L399.4800 538.2600L399.4800 553.2000L410.7300 553.2000Q411.6300 553.2000 412.2600 553.8300Q412.8900 554.4600 412.8900 555.3600L412.8900 555.3600L412.8900 560.4900Q412.8900 561.4800 412.2600 562.1100Q411.6300 562.7400 410.7300 562.7400L410.7300 562.7400L399.4800 562.7400L399.4800 582.2700Q399.4800 585.9600 400.7850 588.0300Q402.0900 590.1000 405.3300 590.1000L405.3300 590.1000L411.5400 590.1000Q412.4400 590.1000 413.0700 590.7300Q413.7000 591.3600 413.7000 592.2600L413.7000 592.2600L413.7000 597.8400Q413.7000 598.7400 413.0700 599.3700Q412.4400 600 411.5400 600L411.5400 600ZM442.4100 600.9000L442.4100 600.9000Q435.2100 600.9000 430.3050 598.3800Q425.4000 595.8600 422.8350 591.2700Q420.2700 586.6800 419.9100 580.5600L419.9100 580.5600Q419.8200 578.9400 419.8200 576.6000Q419.8200 574.2600 419.9100 572.6400L419.9100 572.6400Q420.2700 566.4300 422.9250 561.8850Q425.5800 557.3400 430.4850 554.8200Q435.3900 552.3000 442.4100 552.3000L442.4100 552.3000Q449.4300 552.3000 454.3350 554.8200Q459.2400 557.3400 461.8950 561.8850Q464.5500 566.4300 464.9100 572.6400L464.9100 572.6400Q465.0000 574.2600 465.0000 576.6000Q465.0000 578.9400 464.9100 580.5600L464.9100 580.5600Q464.5500 586.6800 461.9850 591.2700Q459.4200 595.8600 454.5150 598.3800Q449.6100 600.9000 442.4100 600.9000ZM442.4100 591.9900L442.4100 591.9900Q447.1800 591.9900 449.7900 588.9750Q452.4000 585.9600 452.6700 580.1100L452.6700 580.1100Q452.7600 578.7600 452.7600 576.6000Q452.7600 574.4400 452.6700 573.0900L452.6700 573.0900Q452.4000 567.2400 449.7900 564.2250Q447.1800 561.2100 442.4100 561.2100L442.4100 561.2100Q437.6400 561.2100 435.0300 564.2250Q432.4200 567.2400 432.1500 573.0900L432.1500 573.0900Q432.0600 574.4400 432.0600 576.6000Q432.0600 578.7600 432.1500 580.1100L432.1500 580.1100Q432.4200 585.9600 435.0300 588.9750Q437.6400 591.9900 442.4100 591.9900ZM538.8900 600L495.8700 600Q494.9700 600 494.3400 599.3700Q493.7100 598.7400 493.7100 597.8400L493.7100 597.8400L493.7100 593.2500Q493.7100 592.4400 494.1150 591.3150Q494.5200 590.1900 495.9600 589.0200L495.9600 589.0200L510.1800 574.8900Q516.1200 570.2100 519.7650 566.9250Q523.4100 563.6400 525.0750 560.8950Q526.7400 558.1500 526.7400 555.4500L526.7400 555.4500Q526.7400 551.4000 524.5350 548.8800Q522.3300 546.3600 517.5600 546.3600L517.5600 546.3600Q514.4100 546.3600 512.2500 547.6650Q510.0900 548.9700 508.8750 551.1300Q507.6600 553.2900 507.2100 555.9000L507.2100 555.9000Q507.0300 557.0700 506.2200 557.5200Q505.4100 557.9700 504.6000 557.9700L504.6000 557.9700L496.5900 557.9700Q495.7800 557.9700 495.2400 557.4300Q494.7000 556.8900 494.7000 556.1700L494.7000 556.1700Q494.7900 552.3000 496.3200 548.6550Q497.8500 545.0100 500.7750 542.1750Q503.7000 539.3400 507.9300 537.6300Q512.1600 535.9200 517.4700 535.9200L517.4700 535.9200Q524.9400 535.9200 529.8450 538.4400Q534.7500 540.9600 537.2250 545.2800Q539.7000 549.6000 539.7000 555L539.7000 555Q539.7000 559.2300 538.0800 562.7850Q536.4600 566.3400 533.4000 569.6250Q530.3400 572.9100 526.0200 576.3300L526.0200 576.3300L513.2400 589.2900L538.8900 589.2900Q539.8800 589.2900 540.4650 589.8750Q541.0500 590.4600 541.0500 591.4500L541.0500 591.4500L541.0500 597.8400Q541.0500 598.7400 540.4650 599.3700Q539.8800 600 538.8900 600L538.8900 600Z" id="title"/><path d="M1438.7200 652.4000L1438.7200 652.4000Q1422.8800 652.4000 1410.4000 648.5600Q1397.9200 644.7200 1389.4000 637.7600Q1380.8800 630.8000 1376.4400 621.4400Q1372 612.0800 1372 600.5600L1372 600.5600Q1372 586.6400 1378.8400 576.4400Q1385.6800 566.2400 1396.7200 560.7200L1396.7200 560.7200Q1387.8400 555.2000 1382.9200 546.5600Q1378 537.9200 1378 526.4000L1378 526.4000Q1378 512.4800 1385.0800 502.0400Q1392.1600 491.6000 1405.7200 485.6000Q1419.2800 479.6000 1438.7200 479.6000L1438.7200 479.6000Q1458.1600 479.6000 1471.6000 485.4800Q1485.0400 491.3600 1492 501.8000Q1498.9600 512.2400 1498.9600 526.1600L1498.9600 526.1600Q1498.9600 537.6800 1494.1600 546.3200Q1489.3600 554.9600 1480.7200 560.7200L1480.7200 560.7200Q1492 566 1498.7200 576.4400Q1505.4400 586.8800 1505.4400 600.8000L1505.4400 600.8000Q1505.4400 615.9200 1497.6400 627.5600Q1489.8400 639.2000 1474.8400 645.8000Q1459.8400 652.4000 1438.7200 652.4000ZM1438.7200 627.4400L1438.7200 627.4400Q1448.0800 627.4400 1455.6400 624.2000Q1463.2000 620.9600 1467.6400 614.9600Q1472.0800 608.9600 1472.0800 600.8000L1472.0800 600.8000Q1472.0800 592.4000 1467.6400 586.5200Q1463.2000 580.6400 1455.6400 577.4000Q1448.0800 574.1600 1438.7200 574.1600L1438.7200 574.1600Q1429.3600 574.1600 1421.8000 577.4000Q1414.2400 580.6400 1409.8000 586.5200Q1405.3600 592.4000 1405.3600 600.8000L1405.3600 600.8000Q1405.3600 608.9600 1409.8000 614.9600Q1414.2400 620.9600 1421.8000 624.2000Q1429.3600 627.4400 1438.7200 627.4400ZM1438.7200 550.4000L1438.7200 550.4000Q1446.6400 550.1600 1453.2400 547.2800Q1459.8400 544.4000 1463.8000 539.3600Q1467.7600 534.3200 1467.7600 527.6000L1467.7600 527.6000Q1467.7600 520.6400 1464.0400 515.4800Q1460.3200 510.3200 1453.7200 507.4400Q1447.1200 504.5600 1438.7200 504.5600L1438.7200 504.5600Q1430.3200 504.5600 1423.7200 507.4400Q1417.1200 510.3200 1413.4000 515.4800Q1409.6800 520.6400 1409.6800 527.6000L1409.6800 527.6000Q1409.6800 534.5600 1413.4000 539.6000Q1417.1200 544.6400 1423.7200 547.5200Q1430.3200 550.4000 1438.7200 550.4000ZM1559.9200 650L1535.9200 650Q1533.5200 650 1531.8400 648.3200Q1530.1600 646.6400 1530.1600 644.2400L1530.1600 644.2400L1530.1600 620.4800Q1530.1600 617.8400 1531.8400 616.1600Q1533.5200 614.4800 1535.9200 614.4800L1535.9200 614.4800L1559.9200 614.4800Q1562.3200 614.4800 1564 616.1600Q1565.6800 617.8400 1565.6800 620.4800L1565.6800 620.4800L1565.6800 644.2400Q1565.6800 646.6400 1564 648.3200Q1562.3200 650 1559.9200 650L1559.9200 650ZM1654.7200 652.4000L1654.7200 652.4000Q1637.9200 652.4000 1625.6800 648.3200Q1613.4400 644.2400 1605.4000 637.6400Q1597.3600 631.0400 1593.2800 623.2400Q1589.2000 615.4400 1588.9600 607.7600L1588.9600 607.7600Q1588.9600 605.6000 1590.5200 604.2800Q1592.0800 602.9600 1594.2400 602.9600L1594.2400 602.9600L1615.8400 602.9600Q1618.2400 602.9600 1619.9200 603.9200Q1621.6000 604.8800 1622.8000 607.7600L1622.8000 607.7600Q1624.9600 614.2400 1629.8800 618.0800Q1634.8000 621.9200 1641.2800 623.4800Q1647.7600 625.0400 1654.9600 625.0400L1654.9600 625.0400Q1669.3600 625.0400 1677.8800 618.2000Q1686.4000 611.3600 1686.4000 598.6400L1686.4000 598.6400Q1686.4000 585.9200 1678.4800 580.2800Q1670.5600 574.6400 1656.4000 574.6400L1656.4000 574.6400L1631.6800 574.6400Q1629.0400 574.6400 1627.3600 573.0800Q1625.6800 571.5200 1625.6800 568.8800L1625.6800 568.8800L1625.6800 558.8000Q1625.6800 556.4000 1626.7600 554.6000Q1627.8400 552.8000 1629.0400 551.6000L1629.0400 551.6000L1672 509.6000L1603.3600 509.6000Q1600.7200 509.6000 1599.1600 507.9200Q1597.6000 506.2400 1597.6000 503.8400L1597.6000 503.8400L1597.6000 488Q1597.6000 485.3600 1599.1600 483.6800Q1600.7200 482 1603.3600 482L1603.3600 482L1706.3200 482Q1708.9600 482 1710.6400 483.6800Q1712.3200 485.3600 1712.3200 488L1712.3200 488L1712.3200 502.4000Q1712.3200 504.5600 1711.3600 506.2400Q1710.4000 507.9200 1709.2000 509.1200L1709.2000 509.1200L1667.6800 551.8400L1670.5600 552.0800Q1685.2000 553.2800 1696.6000 558.6800Q1708 564.0800 1714.3600 574.4000Q1720.7200 584.7200 1720.7200 600.3200L1720.7200 600.3200Q1720.7200 616.6400 1712.2000 628.2800Q1703.6800 639.9200 1688.8000 646.1600Q1673.9200 652.4000 1654.7200 652.4000Z" id="lecture-full-number"/></g></svg>