<svg xmlns="http://www.w3.org/2000/svg" version="1.1" xmlns:xlink="http://www.w3.org/1999/xlink" xmlns:svgjs="http://svgjs.dev/svgjs" viewBox="0 0 1920 1080" id="531aee1d-c337-431b-9968-2828213af3cd"><g><rect width="1920" height="1080" fill="#9d9c62"/></g><g fill="#e06b49"><path d="M865 270L865 2467C258.907 2467 -232 1976.03 -232 1369.87C-232 760.965 258.907 270 865 270Z"/></g><g fill="#ffffff" opacity="0.2"><path d="M1829.66 1149.02C1826.52 1125.1 1822.11 1101.18 1817.7 1077.89L1577.22 1318.37H1660.32L1829.66 1149.02Z"/><path d="M1798.82 998.567C1793.15 977.163 1786.23 955.759 1779.3 934.984L1395.92 1319H1479.02L1798.82 998.567Z"/><path d="M1752.86 863.214C1744.68 843.698 1736.5 824.183 1727.68 805.297L1214.61 1319H1297.71L1752.86 863.214Z"/><path d="M1694.32 739.83C1684.88 722.203 1674.17 704.576 1664.1 686.949L1147.89 1203.8C1152.92 1227.72 1156.7 1251.64 1158.59 1276.19L1694.32 739.83Z"/><path d="M1625.07 627.77C1613.73 611.402 1601.77 595.664 1589.81 579.926L1098.78 1071.59C1108.22 1089.85 1117.03 1109.36 1124.59 1128.88L1625.07 627.77Z"/><path d="M1546.38 525.789C1533.79 510.68 1520.57 496.201 1506.72 482.352L1025.12 964.574C1038.35 979.053 1050.31 994.791 1061.64 1011.16L1546.38 525.789Z"/><path d="M1457.61 433.249C1443.13 420.029 1428.65 406.809 1413.54 394.219L928.802 879.589C945.17 890.92 960.908 902.881 975.387 916.101L1457.61 433.249Z"/><path d="M1358.78 350.148C1343.04 338.187 1326.67 326.855 1310.3 315.523L808.564 817.891C828.709 825.445 847.595 833.629 866.481 843.072L1358.78 350.148Z"/><path d="M1251.12 276.495C1233.5 265.793 1215.87 255.72 1198.24 246.277L659.364 785.787C684.545 787.046 709.097 790.194 733.019 795.23L1251.12 276.495Z"/><path d="M1132.14 214.166C1113.26 205.352 1093.74 197.168 1074.23 188.984L626.627 637.212V720.31L1132.14 214.166Z"/><path d="M1001.83 163.175C980.427 156.25 959.023 149.955 937.619 144.289L626 455.908V539.006L1001.83 163.175Z"/><path d="M857.666 126.035C834.373 121.628 810.451 117.851 786.529 114.074L626.627 274.605V357.703L857.666 126.035Z"/><path d="M626.626 176.396L697.134 105.889C673.841 104.629 650.548 104 626.626 104V176.396Z"/></g><g><path d="M178.635 139.281L184.422 144.246V166.626H215.704L219.958 172.147L215.69 177.397H184.422V198.795L178.635 203.747L173 198.795V144.232L178.635 139.281ZM195.554 195.68H219.406L223.397 200.915L219.143 206.45H195.554L191.7 201.342L195.554 195.68ZM196.382 138H219.129L223.383 143.52L219.129 148.77H196.659L192.115 143.677L196.382 138ZM323.155 148.628L328.251 154.291L323.155 159.968H246.13L241.172 154.291L246.13 148.628H323.155ZM237.043 172.147L241.849 167.893L246.669 172.147V178.393C246.669 188.879 249.417 197.515 261.668 197.515H264.14C275.147 197.515 281.197 189.86 281.197 177.952V172.005L285.879 167.75L290.699 171.862V178.379C290.699 189.007 293.723 196.946 305.56 196.946H307.618C319.178 196.946 321.235 187.869 321.373 177.952V171.578L326.056 167.608L331 171.72V178.094C330.862 191.838 327.285 207.574 308.032 207.574H305.974C294.552 207.574 288.365 202.324 285.892 195.808C283.006 202.466 275.299 208.286 264.844 208.286H262.358C242.553 208.286 237.194 195.964 237.056 178.663V172.147H237.043ZM276.391 274.744L273.642 267.089L280.796 264.969L305.974 276.721V252.491L311.07 248.095L316.291 252.491V281.829L325.641 286.226L328.251 293.311L320.959 296L276.391 274.744ZM321.235 223.011L328.113 226.27L325.917 233.497L264.002 263.119L256.571 260.146L259.596 252.776L321.235 223.011ZM231.905 263.404L237.954 268.512C237.402 286.51 222.403 296 204.669 296H202.874C194.062 296 183.759 292.6 177.157 286.083L177.834 278.855L184.298 278.002C189.118 282.256 195.858 285.229 202.183 285.229H204.117C216.091 285.229 225.303 280.136 226.27 268.085L231.905 263.404ZM226.256 251.638C225.704 239.16 216.629 234.209 204.103 234.209H202.169C194.739 234.209 189.104 237.182 184.284 241.436L177.834 240.583L177.143 233.355C183.745 226.696 192.957 223.58 202.597 223.58H204.517C222.403 223.58 237.402 232.942 237.94 251.211L231.891 256.176L226.256 251.638Z" fill="#ffffff"/></g><path d="M1171 781L1171 339L1187 339L1187 781L1171 781Z" fill="#ffffff"/><g fill="#ffffff" id="info-group"><path d="M167.6400 555L159.1800 555Q158.2800 555 157.6500 554.3700Q157.0200 553.7400 157.0200 552.8400L157.0200 552.8400L157.0200 494.1600Q157.0200 493.2600 157.6500 492.6300Q158.2800 492 159.1800 492L159.1800 492L167.6400 492Q168.6300 492 169.2150 492.6300Q169.8000 493.2600 169.8000 494.1600L169.8000 494.1600L169.8000 552.8400Q169.8000 553.7400 169.2150 554.3700Q168.6300 555 167.6400 555L167.6400 555ZM192.9300 555L185.0100 555Q184.1100 555 183.4800 554.3700Q182.8500 553.7400 182.8500 552.8400L182.8500 552.8400L182.8500 510.3600Q182.8500 509.4600 183.4800 508.8300Q184.1100 508.2000 185.0100 508.2000L185.0100 508.2000L192.3900 508.2000Q193.2900 508.2000 193.9200 508.8300Q194.5500 509.4600 194.5500 510.3600L194.5500 510.3600L194.5500 514.0500Q196.8900 511.1700 200.5350 509.2350Q204.1800 507.3000 209.5800 507.3000L209.5800 507.3000Q215.0700 507.3000 219.1200 509.7750Q223.1700 512.2500 225.3750 516.7500Q227.5800 521.2500 227.5800 527.5500L227.5800 527.5500L227.5800 552.8400Q227.5800 553.7400 226.9500 554.3700Q226.3200 555 225.4200 555L225.4200 555L217.5000 555Q216.6000 555 215.9700 554.3700Q215.3400 553.7400 215.3400 552.8400L215.3400 552.8400L215.3400 528.0900Q215.3400 522.8700 212.7750 519.9000Q210.2100 516.9300 205.3500 516.9300L205.3500 516.9300Q200.6700 516.9300 197.8800 519.9000Q195.0900 522.8700 195.0900 528.0900L195.0900 528.0900L195.0900 552.8400Q195.0900 553.7400 194.4600 554.3700Q193.8300 555 192.9300 555L192.9300 555ZM267.4500 555L260.1600 555Q254.7600 555 251.0700 553.1100Q247.3800 551.2200 245.5800 547.4850Q243.7800 543.7500 243.7800 538.1700L243.7800 538.1700L243.7800 517.7400L236.6700 517.7400Q235.7700 517.7400 235.1400 517.1100Q234.5100 516.4800 234.5100 515.4900L234.5100 515.4900L234.5100 510.3600Q234.5100 509.4600 235.1400 508.8300Q235.7700 508.2000 236.6700 508.2000L236.6700 508.2000L243.7800 508.2000L243.7800 493.2600Q243.7800 492.3600 244.3650 491.7300Q244.9500 491.1000 245.9400 491.1000L245.9400 491.1000L253.2300 491.1000Q254.1300 491.1000 254.7600 491.7300Q255.3900 492.3600 255.3900 493.2600L255.3900 493.2600L255.3900 508.2000L266.6400 508.2000Q267.5400 508.2000 268.1700 508.8300Q268.8000 509.4600 268.8000 510.3600L268.8000 510.3600L268.8000 515.4900Q268.8000 516.4800 268.1700 517.1100Q267.5400 517.7400 266.6400 517.7400L266.6400 517.7400L255.3900 517.7400L255.3900 537.2700Q255.3900 540.9600 256.6950 543.0300Q258 545.1000 261.2400 545.1000L261.2400 545.1000L267.4500 545.1000Q268.3500 545.1000 268.9800 545.7300Q269.6100 546.3600 269.6100 547.2600L269.6100 547.2600L269.6100 552.8400Q269.6100 553.7400 268.9800 554.3700Q268.3500 555 267.4500 555L267.4500 555ZM287.6100 555L279.7800 555Q278.8800 555 278.2500 554.3700Q277.6200 553.7400 277.6200 552.8400L277.6200 552.8400L277.6200 510.4500Q277.6200 509.4600 278.2500 508.8300Q278.8800 508.2000 279.7800 508.2000L279.7800 508.2000L287.0700 508.2000Q287.9700 508.2000 288.6450 508.8300Q289.3200 509.4600 289.3200 510.4500L289.3200 510.4500L289.3200 514.1400Q291.3900 511.2600 294.6750 509.7300Q297.9600 508.2000 302.2800 508.2000L302.2800 508.2000L305.9700 508.2000Q306.9600 508.2000 307.5450 508.8300Q308.1300 509.4600 308.1300 510.3600L308.1300 510.3600L308.1300 516.8400Q308.1300 517.7400 307.5450 518.3700Q306.9600 519 305.9700 519L305.9700 519L298.9500 519Q294.6300 519 292.2450 521.3850Q289.8600 523.7700 289.8600 528.0900L289.8600 528.0900L289.8600 552.8400Q289.8600 553.7400 289.2300 554.3700Q288.6000 555 287.6100 555L287.6100 555ZM335.8500 555.9000L335.8500 555.9000Q328.6500 555.9000 323.7450 553.3800Q318.8400 550.8600 316.2750 546.2700Q313.7100 541.6800 313.3500 535.5600L313.3500 535.5600Q313.2600 533.9400 313.2600 531.6000Q313.2600 529.2600 313.3500 527.6400L313.3500 527.6400Q313.7100 521.4300 316.3650 516.8850Q319.0200 512.3400 323.9250 509.8200Q328.8300 507.3000 335.8500 507.3000L335.8500 507.3000Q342.8700 507.3000 347.7750 509.8200Q352.6800 512.3400 355.3350 516.8850Q357.9900 521.4300 358.3500 527.6400L358.3500 527.6400Q358.4400 529.2600 358.4400 531.6000Q358.4400 533.9400 358.3500 535.5600L358.3500 535.5600Q357.9900 541.6800 355.4250 546.2700Q352.8600 550.8600 347.9550 553.3800Q343.0500 555.9000 335.8500 555.9000ZM335.8500 546.9900L335.8500 546.9900Q340.6200 546.9900 343.2300 543.9750Q345.8400 540.9600 346.1100 535.1100L346.1100 535.1100Q346.2000 533.7600 346.2000 531.6000Q346.2000 529.4400 346.1100 528.0900L346.1100 528.0900Q345.8400 522.2400 343.2300 519.2250Q340.6200 516.2100 335.8500 516.2100L335.8500 516.2100Q331.0800 516.2100 328.4700 519.2250Q325.8600 522.2400 325.5900 528.0900L325.5900 528.0900Q325.5000 529.4400 325.5000 531.6000Q325.5000 533.7600 325.5900 535.1100L325.5900 535.1100Q325.8600 540.9600 328.4700 543.9750Q331.0800 546.9900 335.8500 546.9900ZM385.8000 555.9000L385.8000 555.9000Q381.1200 555.9000 377.5650 554.3250Q374.0100 552.7500 371.6700 549.8700Q369.3300 546.9900 368.0700 543.0750Q366.8100 539.1600 366.6300 534.4800L366.6300 534.4800Q366.5400 532.8600 366.5400 531.5550Q366.5400 530.2500 366.6300 528.6300L366.6300 528.6300Q366.8100 524.1300 368.0250 520.2600Q369.2400 516.3900 371.6250 513.4650Q374.0100 510.5400 377.5650 508.9200Q381.1200 507.3000 385.8000 507.3000L385.8000 507.3000Q390.6600 507.3000 394.0350 508.9650Q397.4100 510.6300 399.6600 513.2400L399.6600 513.2400L399.6600 493.2600Q399.6600 492.3600 400.2450 491.7300Q400.8300 491.1000 401.8200 491.1000L401.8200 491.1000L409.4700 491.1000Q410.3700 491.1000 411 491.7300Q411.6300 492.3600 411.6300 493.2600L411.6300 493.2600L411.6300 552.8400Q411.6300 553.7400 411 554.3700Q410.3700 555 409.4700 555L409.4700 555L402.3600 555Q401.3700 555 400.7850 554.3700Q400.2000 553.7400 400.2000 552.8400L400.2000 552.8400L400.2000 549.5100Q397.9500 552.3000 394.4850 554.1000Q391.0200 555.9000 385.8000 555.9000ZM389.1300 546.2700L389.1300 546.2700Q392.9100 546.2700 395.1600 544.5600Q397.4100 542.8500 398.4900 540.1950Q399.5700 537.5400 399.6600 534.7500L399.6600 534.7500Q399.7500 533.1300 399.7500 531.2850Q399.7500 529.4400 399.6600 527.8200L399.6600 527.8200Q399.5700 525.1200 398.4000 522.6450Q397.2300 520.1700 394.9800 518.5500Q392.7300 516.9300 389.1300 516.9300L389.1300 516.9300Q385.3500 516.9300 383.1450 518.5950Q380.9400 520.2600 379.9500 522.9600Q378.9600 525.6600 378.7800 528.9000L378.7800 528.9000Q378.6900 531.6000 378.7800 534.3000L378.7800 534.3000Q378.9600 537.5400 379.9500 540.2400Q380.9400 542.9400 383.1450 544.6050Q385.3500 546.2700 389.1300 546.2700ZM440.9700 555.9000L440.9700 555.9000Q435.4800 555.9000 431.4750 553.4250Q427.4700 550.9500 425.3100 546.4050Q423.1500 541.8600 423.1500 535.6500L423.1500 535.6500L423.1500 510.3600Q423.1500 509.4600 423.7800 508.8300Q424.4100 508.2000 425.3100 508.2000L425.3100 508.2000L433.2300 508.2000Q434.2200 508.2000 434.8050 508.8300Q435.3900 509.4600 435.3900 510.3600L435.3900 510.3600L435.3900 535.1100Q435.3900 546.2700 445.2000 546.2700L445.2000 546.2700Q449.8800 546.2700 452.6250 543.3000Q455.3700 540.3300 455.3700 535.1100L455.3700 535.1100L455.3700 510.3600Q455.3700 509.4600 456 508.8300Q456.6300 508.2000 457.5300 508.2000L457.5300 508.2000L465.4500 508.2000Q466.3500 508.2000 466.9800 508.8300Q467.6100 509.4600 467.6100 510.3600L467.6100 510.3600L467.6100 552.8400Q467.6100 553.7400 466.9800 554.3700Q466.3500 555 465.4500 555L465.4500 555L458.1600 555Q457.1700 555 456.5850 554.3700Q456 553.7400 456 552.8400L456 552.8400L456 549.1500Q453.5700 552.3000 449.9700 554.1000Q446.3700 555.9000 440.9700 555.9000ZM499.6500 574.8000L499.6500 574.8000Q497.1300 574.7100 495.1950 573.9000Q493.2600 573.0900 492.4050 572.0100Q491.5500 570.9300 492.4500 570.2100L492.4500 570.2100L493.9800 568.8600Q494.7900 568.1400 495.3750 568.4550Q495.9600 568.7700 496.9050 569.3550Q497.8500 569.9400 499.6500 569.9400L499.6500 569.9400Q501 569.9400 501.9900 569.0850Q502.9800 568.2300 502.9800 566.8800L502.9800 566.8800Q502.9800 565.6200 502.0350 564.8100Q501.0900 564 499.6500 564L499.6500 564Q498.3900 564 497.4900 564.3150Q496.5900 564.6300 495.8700 564.7650Q495.1500 564.9000 494.4300 564.1800L494.4300 564.1800L492.8100 562.5600Q492.2700 561.9300 492.4500 561.2550Q492.6300 560.5800 492.9900 559.7700L492.9900 559.7700L494.8800 555.4500Q487.1400 554.2800 482.5500 549.0150Q477.9600 543.7500 477.6900 535.2000L477.6900 535.2000Q477.6000 533.8500 477.6000 531.6450Q477.6000 529.4400 477.6900 528L477.6900 528Q477.9600 521.4300 480.7050 516.7950Q483.4500 512.1600 488.3550 509.7300Q493.2600 507.3000 499.7400 507.3000L499.7400 507.3000Q505.5000 507.3000 509.5500 508.8750Q513.6000 510.4500 516.2100 512.9250Q518.8200 515.4000 520.1250 518.0550Q521.4300 520.7100 521.5200 522.8700L521.5200 522.8700Q521.6100 523.8600 520.9350 524.4450Q520.2600 525.0300 519.3600 525.0300L519.3600 525.0300L511.4400 525.0300Q510.5400 525.0300 510.0450 524.5800Q509.5500 524.1300 509.1000 523.2300L509.1000 523.2300Q507.7500 519.6300 505.5450 518.1450Q503.3400 516.6600 499.9200 516.6600L499.9200 516.6600Q495.4200 516.6600 492.7650 519.4950Q490.1100 522.3300 489.9300 528.4500L489.9300 528.4500Q489.7500 531.8700 489.9300 534.7500L489.9300 534.7500Q490.1100 540.9600 492.7650 543.7500Q495.4200 546.5400 499.9200 546.5400L499.9200 546.5400Q503.4300 546.5400 505.5900 545.0550Q507.7500 543.5700 509.1000 539.9700L509.1000 539.9700Q509.5500 539.0700 510.0450 538.6200Q510.5400 538.1700 511.4400 538.1700L511.4400 538.1700L519.3600 538.1700Q520.2600 538.1700 520.9350 538.7550Q521.6100 539.3400 521.5200 540.3300L521.5200 540.3300Q521.4300 542.3100 520.1700 544.9650Q518.9100 547.6200 516.3900 550.0950Q513.8700 552.5700 509.8200 554.2350Q505.7700 555.9000 500.0100 555.9000L500.0100 555.9000L498.1200 559.7700Q498.6600 559.5000 499.6050 559.3200Q500.5500 559.1400 501.2700 559.1400L501.2700 559.1400Q504.4200 559.1400 506.3550 561.3000Q508.2900 563.4600 508.2900 566.7900L508.2900 566.7900Q508.2900 570.2100 506.0400 572.5500Q503.7900 574.8900 499.6500 574.8000ZM544.4700 555.9000L544.4700 555.9000Q539.7900 555.9000 536.0100 554.0550Q532.2300 552.2100 530.0250 549.1050Q527.8200 546 527.8200 542.1300L527.8200 542.1300Q527.8200 535.8300 532.9500 532.0950Q538.0800 528.3600 546.3600 527.1000L546.3600 527.1000L558.6900 525.3000L558.6900 523.4100Q558.6900 519.6300 556.8000 517.5600Q554.9100 515.4900 550.3200 515.4900L550.3200 515.4900Q547.0800 515.4900 545.0550 516.7950Q543.0300 518.1000 542.0400 520.2600L542.0400 520.2600Q541.3200 521.4300 539.9700 521.4300L539.9700 521.4300L532.8600 521.4300Q531.8700 521.4300 531.3750 520.8900Q530.8800 520.3500 530.8800 519.4500L530.8800 519.4500Q530.9700 518.0100 532.0950 515.9400Q533.2200 513.8700 535.5150 511.9350Q537.8100 510 541.5000 508.6500Q545.1900 507.3000 550.4100 507.3000L550.4100 507.3000Q556.0800 507.3000 559.9950 508.6950Q563.9100 510.0900 566.2500 512.4300Q568.5900 514.7700 569.6700 517.9200Q570.7500 521.0700 570.7500 524.5800L570.7500 524.5800L570.7500 552.8400Q570.7500 553.7400 570.1200 554.3700Q569.4900 555 568.5900 555L568.5900 555L561.3000 555Q560.3100 555 559.7250 554.3700Q559.1400 553.7400 559.1400 552.8400L559.1400 552.8400L559.1400 549.3300Q557.9700 550.9500 555.9900 552.4800Q554.0100 554.0100 551.1750 554.9550Q548.3400 555.9000 544.4700 555.9000ZM547.5300 547.3500L547.5300 547.3500Q550.6800 547.3500 553.2450 546Q555.8100 544.6500 557.2950 541.8150Q558.7800 538.9800 558.7800 534.6600L558.7800 534.6600L558.7800 532.7700L549.7800 534.2100Q544.4700 535.0200 541.8600 536.8200Q539.2500 538.6200 539.2500 541.2300L539.2500 541.2300Q539.2500 543.2100 540.4650 544.6050Q541.6800 546 543.5700 546.6750Q545.4600 547.3500 547.5300 547.3500ZM555.3600 501.9000L555.3600 501.9000Q553.0200 501.9000 551.5800 501.1350Q550.1400 500.3700 548.9250 499.5600Q547.7100 498.7500 546.2700 498.7500L546.2700 498.7500Q545.1000 498.7500 544.6050 499.4250Q544.1100 500.1000 543.6600 500.7750Q543.2100 501.4500 542.2200 501.4500L542.2200 501.4500L538.0800 501.4500Q537.4500 501.4500 537 501Q536.5500 500.5500 536.5500 499.9200L536.5500 499.9200Q536.5500 498.5700 537.0450 496.9050Q537.5400 495.2400 538.6200 493.7100Q539.7000 492.1800 541.3650 491.2350Q543.0300 490.2900 545.2800 490.2900L545.2800 490.2900Q547.7100 490.2900 549.1500 491.0550Q550.5900 491.8200 551.8050 492.6300Q553.0200 493.4400 554.4600 493.4400L554.4600 493.4400Q555.6300 493.4400 556.1250 492.7200Q556.6200 492 557.0700 491.3250Q557.5200 490.6500 558.5100 490.6500L558.5100 490.6500L562.6500 490.6500Q563.3700 490.6500 563.7750 491.1450Q564.1800 491.6400 564.1800 492.2700L564.1800 492.2700Q564.1800 493.6200 563.6850 495.2850Q563.1900 496.9500 562.1100 498.4800Q561.0300 500.0100 559.3650 500.9550Q557.7000 501.9000 555.3600 501.9000ZM602.9700 555.9000L602.9700 555.9000Q595.7700 555.9000 590.8650 553.3800Q585.9600 550.8600 583.3950 546.2700Q580.8300 541.6800 580.4700 535.5600L580.4700 535.5600Q580.3800 533.9400 580.3800 531.6000Q580.3800 529.2600 580.4700 527.6400L580.4700 527.6400Q580.8300 521.4300 583.4850 516.8850Q586.1400 512.3400 591.0450 509.8200Q595.9500 507.3000 602.9700 507.3000L602.9700 507.3000Q609.9900 507.3000 614.8950 509.8200Q619.8000 512.3400 622.4550 516.8850Q625.1100 521.4300 625.4700 527.6400L625.4700 527.6400Q625.5600 529.2600 625.5600 531.6000Q625.5600 533.9400 625.4700 535.5600L625.4700 535.5600Q625.1100 541.6800 622.5450 546.2700Q619.9800 550.8600 615.0750 553.3800Q610.1700 555.9000 602.9700 555.9000ZM602.9700 546.9900L602.9700 546.9900Q607.7400 546.9900 610.3500 543.9750Q612.9600 540.9600 613.2300 535.1100L613.2300 535.1100Q613.3200 533.7600 613.3200 531.6000Q613.3200 529.4400 613.2300 528.0900L613.2300 528.0900Q612.9600 522.2400 610.3500 519.2250Q607.7400 516.2100 602.9700 516.2100L602.9700 516.2100Q598.2000 516.2100 595.5900 519.2250Q592.9800 522.2400 592.7100 528.0900L592.7100 528.0900Q592.6200 529.4400 592.6200 531.6000Q592.6200 533.7600 592.7100 535.1100L592.7100 535.1100Q592.9800 540.9600 595.5900 543.9750Q598.2000 546.9900 602.9700 546.9900ZM669.7500 555.9000L669.7500 555.9000Q665.0700 555.9000 661.2900 554.0550Q657.5100 552.2100 655.3050 549.1050Q653.1000 546 653.1000 542.1300L653.1000 542.1300Q653.1000 535.8300 658.2300 532.0950Q663.3600 528.3600 671.6400 527.1000L671.6400 527.1000L683.9700 525.3000L683.9700 523.4100Q683.9700 519.6300 682.0800 517.5600Q680.1900 515.4900 675.6000 515.4900L675.6000 515.4900Q672.3600 515.4900 670.3350 516.7950Q668.3100 518.1000 667.3200 520.2600L667.3200 520.2600Q666.6000 521.4300 665.2500 521.4300L665.2500 521.4300L658.1400 521.4300Q657.1500 521.4300 656.6550 520.8900Q656.1600 520.3500 656.1600 519.4500L656.1600 519.4500Q656.2500 518.0100 657.3750 515.9400Q658.5000 513.8700 660.7950 511.9350Q663.0900 510 666.7800 508.6500Q670.4700 507.3000 675.6900 507.3000L675.6900 507.3000Q681.3600 507.3000 685.2750 508.6950Q689.1900 510.0900 691.5300 512.4300Q693.8700 514.7700 694.9500 517.9200Q696.0300 521.0700 696.0300 524.5800L696.0300 524.5800L696.0300 552.8400Q696.0300 553.7400 695.4000 554.3700Q694.7700 555 693.8700 555L693.8700 555L686.5800 555Q685.5900 555 685.0050 554.3700Q684.4200 553.7400 684.4200 552.8400L684.4200 552.8400L684.4200 549.3300Q683.2500 550.9500 681.2700 552.4800Q679.2900 554.0100 676.4550 554.9550Q673.6200 555.9000 669.7500 555.9000ZM672.8100 547.3500L672.8100 547.3500Q675.9600 547.3500 678.5250 546Q681.0900 544.6500 682.5750 541.8150Q684.0600 538.9800 684.0600 534.6600L684.0600 534.6600L684.0600 532.7700L675.0600 534.2100Q669.7500 535.0200 667.1400 536.8200Q664.5300 538.6200 664.5300 541.2300L664.5300 541.2300Q664.5300 543.2100 665.7450 544.6050Q666.9600 546 668.8500 546.6750Q670.7400 547.3500 672.8100 547.3500ZM728.2500 555.9000L728.2500 555.9000Q721.0500 555.9000 716.1450 553.3800Q711.2400 550.8600 708.6750 546.2700Q706.1100 541.6800 705.7500 535.5600L705.7500 535.5600Q705.6600 533.9400 705.6600 531.6000Q705.6600 529.2600 705.7500 527.6400L705.7500 527.6400Q706.1100 521.4300 708.7650 516.8850Q711.4200 512.3400 716.3250 509.8200Q721.2300 507.3000 728.2500 507.3000L728.2500 507.3000Q735.2700 507.3000 740.1750 509.8200Q745.0800 512.3400 747.7350 516.8850Q750.3900 521.4300 750.7500 527.6400L750.7500 527.6400Q750.8400 529.2600 750.8400 531.6000Q750.8400 533.9400 750.7500 535.5600L750.7500 535.5600Q750.3900 541.6800 747.8250 546.2700Q745.2600 550.8600 740.3550 553.3800Q735.4500 555.9000 728.2500 555.9000ZM728.2500 546.9900L728.2500 546.9900Q733.0200 546.9900 735.6300 543.9750Q738.2400 540.9600 738.5100 535.1100L738.5100 535.1100Q738.6000 533.7600 738.6000 531.6000Q738.6000 529.4400 738.5100 528.0900L738.5100 528.0900Q738.2400 522.2400 735.6300 519.2250Q733.0200 516.2100 728.2500 516.2100L728.2500 516.2100Q723.4800 516.2100 720.8700 519.2250Q718.2600 522.2400 717.9900 528.0900L717.9900 528.0900Q717.9000 529.4400 717.9000 531.6000Q717.9000 533.7600 717.9900 535.1100L717.9900 535.1100Q718.2600 540.9600 720.8700 543.9750Q723.4800 546.9900 728.2500 546.9900ZM806.8200 555.9000L806.8200 555.9000Q798.4500 555.9000 792.6450 552.9750Q786.8400 550.0500 783.7800 544.6050Q780.7200 539.1600 780.3600 531.5100L780.3600 531.5100Q780.2700 527.8200 780.2700 523.5900Q780.2700 519.3600 780.3600 515.4900L780.3600 515.4900Q780.7200 507.9300 783.8250 502.4400Q786.9300 496.9500 792.7350 494.0250Q798.5400 491.1000 806.8200 491.1000L806.8200 491.1000Q812.9400 491.1000 817.8000 492.7200Q822.6600 494.3400 826.0800 497.1750Q829.5000 500.0100 831.3900 503.7900Q833.2800 507.5700 833.3700 511.9800L833.3700 511.9800Q833.4600 512.7900 832.8750 513.3300Q832.2900 513.8700 831.4800 513.8700L831.4800 513.8700L822.9300 513.8700Q821.9400 513.8700 821.3100 513.3750Q820.6800 512.8800 820.4100 511.7100L820.4100 511.7100Q818.9700 505.7700 815.4600 503.6100Q811.9500 501.4500 806.7300 501.4500L806.7300 501.4500Q800.7000 501.4500 797.1000 504.8250Q793.5000 508.2000 793.2300 515.9400L793.2300 515.9400Q792.9600 523.3200 793.2300 531.0600L793.2300 531.0600Q793.5000 538.8000 797.1000 542.1750Q800.7000 545.5500 806.7300 545.5500L806.7300 545.5500Q811.9500 545.5500 815.5050 543.3450Q819.0600 541.1400 820.4100 535.2900L820.4100 535.2900Q820.6800 534.0300 821.3100 533.5800Q821.9400 533.1300 822.9300 533.1300L822.9300 533.1300L831.4800 533.1300Q832.2900 533.1300 832.8750 533.6700Q833.4600 534.2100 833.3700 535.0200L833.3700 535.0200Q833.2800 539.4300 831.3900 543.2100Q829.5000 546.9900 826.0800 549.8250Q822.6600 552.6600 817.8000 554.2800Q812.9400 555.9000 806.8200 555.9000ZM865.9500 555.9000L865.9500 555.9000Q857.5800 555.9000 851.9550 553.4250Q846.3300 550.9500 843.4050 546.9450Q840.4800 542.9400 840.3000 538.5300L840.3000 538.5300Q840.3000 537.7200 840.8400 537.1800Q841.3800 536.6400 842.1900 536.6400L842.1900 536.6400L850.2000 536.6400Q851.3700 536.6400 851.9550 537.1350Q852.5400 537.6300 852.9900 538.3500L852.9900 538.3500Q853.5300 540.0600 855.0600 541.7250Q856.5900 543.3900 859.2450 544.4700Q861.9000 545.5500 865.9500 545.5500L865.9500 545.5500Q872.4300 545.5500 875.6250 543.3900Q878.8200 541.2300 878.8200 537.5400L878.8200 537.5400Q878.8200 534.9300 877.1100 533.3550Q875.4000 531.7800 871.8450 530.4750Q868.2900 529.1700 862.4400 527.7300L862.4400 527.7300Q855.6900 526.1100 851.1450 523.8150Q846.6000 521.5200 844.3050 518.0100Q842.0100 514.5000 842.0100 509.1000L842.0100 509.1000Q842.0100 503.8800 844.8450 499.8300Q847.6800 495.7800 852.9450 493.4400Q858.2100 491.1000 865.5000 491.1000L865.5000 491.1000Q871.3500 491.1000 875.8500 492.6750Q880.3500 494.2500 883.3200 496.8150Q886.2900 499.3800 887.8650 502.3050Q889.4400 505.2300 889.5300 508.0200L889.5300 508.0200Q889.5300 508.7400 889.0350 509.3250Q888.5400 509.9100 887.6400 509.9100L887.6400 509.9100L879.2700 509.9100Q878.5500 509.9100 877.8300 509.5500Q877.1100 509.1900 876.6600 508.2000L876.6600 508.2000Q876.1200 505.4100 873.1500 503.4300Q870.1800 501.4500 865.5000 501.4500L865.5000 501.4500Q860.6400 501.4500 857.6700 503.2500Q854.7000 505.0500 854.7000 508.8300L854.7000 508.8300Q854.7000 511.3500 856.1850 513.0150Q857.6700 514.6800 860.9550 515.9400Q864.2400 517.2000 869.6400 518.6400L869.6400 518.6400Q877.2900 520.3500 882.1500 522.6000Q887.0100 524.8500 889.2600 528.3150Q891.5100 531.7800 891.5100 537.0900L891.5100 537.0900Q891.5100 543.0300 888.3150 547.2150Q885.1200 551.4000 879.3600 553.6500Q873.6000 555.9000 865.9500 555.9000ZM923.7300 555.9000L923.7300 555.9000Q915.3600 555.9000 909.7350 553.4250Q904.1100 550.9500 901.1850 546.9450Q898.2600 542.9400 898.0800 538.5300L898.0800 538.5300Q898.0800 537.7200 898.6200 537.1800Q899.1600 536.6400 899.9700 536.6400L899.9700 536.6400L907.9800 536.6400Q909.1500 536.6400 909.7350 537.1350Q910.3200 537.6300 910.7700 538.3500L910.7700 538.3500Q911.3100 540.0600 912.8400 541.7250Q914.3700 543.3900 917.0250 544.4700Q919.6800 545.5500 923.7300 545.5500L923.7300 545.5500Q930.2100 545.5500 933.4050 543.3900Q936.6000 541.2300 936.6000 537.5400L936.6000 537.5400Q936.6000 534.9300 934.8900 533.3550Q933.1800 531.7800 929.6250 530.4750Q926.0700 529.1700 920.2200 527.7300L920.2200 527.7300Q913.4700 526.1100 908.9250 523.8150Q904.3800 521.5200 902.0850 518.0100Q899.7900 514.5000 899.7900 509.1000L899.7900 509.1000Q899.7900 503.8800 902.6250 499.8300Q905.4600 495.7800 910.7250 493.4400Q915.9900 491.1000 923.2800 491.1000L923.2800 491.1000Q929.1300 491.1000 933.6300 492.6750Q938.1300 494.2500 941.1000 496.8150Q944.0700 499.3800 945.6450 502.3050Q947.2200 505.2300 947.3100 508.0200L947.3100 508.0200Q947.3100 508.7400 946.8150 509.3250Q946.3200 509.9100 945.4200 509.9100L945.4200 509.9100L937.0500 509.9100Q936.3300 509.9100 935.6100 509.5500Q934.8900 509.1900 934.4400 508.2000L934.4400 508.2000Q933.9000 505.4100 930.9300 503.4300Q927.9600 501.4500 923.2800 501.4500L923.2800 501.4500Q918.4200 501.4500 915.4500 503.2500Q912.4800 505.0500 912.4800 508.8300L912.4800 508.8300Q912.4800 511.3500 913.9650 513.0150Q915.4500 514.6800 918.7350 515.9400Q922.0200 517.2000 927.4200 518.6400L927.4200 518.6400Q935.0700 520.3500 939.9300 522.6000Q944.7900 524.8500 947.0400 528.3150Q949.2900 531.7800 949.2900 537.0900L949.2900 537.0900Q949.2900 543.0300 946.0950 547.2150Q942.9000 551.4000 937.1400 553.6500Q931.3800 555.9000 923.7300 555.9000ZM988.8000 555L981.3300 555Q980.4300 555 979.8000 554.3700Q979.1700 553.7400 979.1700 552.8400L979.1700 552.8400L979.1700 510.3600Q979.1700 509.4600 979.8000 508.8300Q980.4300 508.2000 981.3300 508.2000L981.3300 508.2000L988.8000 508.2000Q989.7900 508.2000 990.3750 508.8300Q990.9600 509.4600 990.9600 510.3600L990.9600 510.3600L990.9600 552.8400Q990.9600 553.7400 990.3750 554.3700Q989.7900 555 988.8000 555L988.8000 555ZM989.1600 500.4600L980.9700 500.4600Q980.0700 500.4600 979.4400 499.8300Q978.8100 499.2000 978.8100 498.3000L978.8100 498.3000L978.8100 491.8200Q978.8100 490.9200 979.4400 490.2900Q980.0700 489.6600 980.9700 489.6600L980.9700 489.6600L989.1600 489.6600Q990.1500 489.6600 990.7800 490.2900Q991.4100 490.9200 991.4100 491.8200L991.4100 491.8200L991.4100 498.3000Q991.4100 499.2000 990.7800 499.8300Q990.1500 500.4600 989.1600 500.4600L989.1600 500.4600ZM1013.0100 555L1005.0900 555Q1004.1900 555 1003.5600 554.3700Q1002.9300 553.7400 1002.9300 552.8400L1002.9300 552.8400L1002.9300 510.3600Q1002.9300 509.4600 1003.5600 508.8300Q1004.1900 508.2000 1005.0900 508.2000L1005.0900 508.2000L1012.4700 508.2000Q1013.3700 508.2000 1014.0000 508.8300Q1014.6300 509.4600 1014.6300 510.3600L1014.6300 510.3600L1014.6300 514.0500Q1016.9700 511.1700 1020.6150 509.2350Q1024.2600 507.3000 1029.6600 507.3000L1029.6600 507.3000Q1035.1500 507.3000 1039.2000 509.7750Q1043.2500 512.2500 1045.4550 516.7500Q1047.6600 521.2500 1047.6600 527.5500L1047.6600 527.5500L1047.6600 552.8400Q1047.6600 553.7400 1047.0300 554.3700Q1046.4000 555 1045.5000 555L1045.5000 555L1037.5800 555Q1036.6800 555 1036.0500 554.3700Q1035.4200 553.7400 1035.4200 552.8400L1035.4200 552.8400L1035.4200 528.0900Q1035.4200 522.8700 1032.8550 519.9000Q1030.2900 516.9300 1025.4300 516.9300L1025.4300 516.9300Q1020.7500 516.9300 1017.9600 519.9000Q1015.1700 522.8700 1015.1700 528.0900L1015.1700 528.0900L1015.1700 552.8400Q1015.1700 553.7400 1014.5400 554.3700Q1013.9100 555 1013.0100 555L1013.0100 555ZM177.3600 645.9000L177.3600 645.9000Q172.5000 645.9000 168.1350 644.6850Q163.7700 643.4700 160.3500 640.9500Q156.9300 638.4300 154.9050 634.7400Q152.8800 631.0500 152.7900 626.0100L152.7900 626.0100Q152.7900 625.2000 153.3300 624.6150Q153.8700 624.0300 154.6800 624.0300L154.6800 624.0300L163.2300 624.0300Q164.4000 624.0300 164.9850 624.6600Q165.5700 625.2900 165.9300 626.3700L165.9300 626.3700Q166.3800 629.6100 168 631.6350Q169.6200 633.6600 172.0950 634.6050Q174.5700 635.5500 177.6300 635.5500L177.6300 635.5500Q183.3000 635.5500 186.3150 631.8600Q189.3300 628.1700 189.3300 621.6000L189.3300 621.6000L189.3300 592.6200L158.8200 592.6200Q157.8300 592.6200 157.2450 591.9900Q156.6600 591.3600 156.6600 590.4600L156.6600 590.4600L156.6600 584.1600Q156.6600 583.2600 157.2450 582.6300Q157.8300 582 158.8200 582L158.8200 582L199.9500 582Q200.9400 582 201.5700 582.6300Q202.2000 583.2600 202.2000 584.2500L202.2000 584.2500L202.2000 621.9600Q202.2000 629.4300 199.0950 634.8300Q195.9900 640.2300 190.4550 643.0650Q184.9200 645.9000 177.3600 645.9000ZM237.5700 645.9000L237.5700 645.9000Q229.2000 645.9000 223.5750 643.4250Q217.9500 640.9500 215.0250 636.9450Q212.1000 632.9400 211.9200 628.5300L211.9200 628.5300Q211.9200 627.7200 212.4600 627.1800Q213 626.6400 213.8100 626.6400L213.8100 626.6400L221.8200 626.6400Q222.9900 626.6400 223.5750 627.1350Q224.1600 627.6300 224.6100 628.3500L224.6100 628.3500Q225.1500 630.0600 226.6800 631.7250Q228.2100 633.3900 230.8650 634.4700Q233.5200 635.5500 237.5700 635.5500L237.5700 635.5500Q244.0500 635.5500 247.2450 633.3900Q250.4400 631.2300 250.4400 627.5400L250.4400 627.5400Q250.4400 624.9300 248.7300 623.3550Q247.0200 621.7800 243.4650 620.4750Q239.9100 619.1700 234.0600 617.7300L234.0600 617.7300Q227.3100 616.1100 222.7650 613.8150Q218.2200 611.5200 215.9250 608.0100Q213.6300 604.5000 213.6300 599.1000L213.6300 599.1000Q213.6300 593.8800 216.4650 589.8300Q219.3000 585.7800 224.5650 583.4400Q229.8300 581.1000 237.1200 581.1000L237.1200 581.1000Q242.9700 581.1000 247.4700 582.6750Q251.9700 584.2500 254.9400 586.8150Q257.9100 589.3800 259.4850 592.3050Q261.0600 595.2300 261.1500 598.0200L261.1500 598.0200Q261.1500 598.7400 260.6550 599.3250Q260.1600 599.9100 259.2600 599.9100L259.2600 599.9100L250.8900 599.9100Q250.1700 599.9100 249.4500 599.5500Q248.7300 599.1900 248.2800 598.2000L248.2800 598.2000Q247.7400 595.4100 244.7700 593.4300Q241.8000 591.4500 237.1200 591.4500L237.1200 591.4500Q232.2600 591.4500 229.2900 593.2500Q226.3200 595.0500 226.3200 598.8300L226.3200 598.8300Q226.3200 601.3500 227.8050 603.0150Q229.2900 604.6800 232.5750 605.9400Q235.8600 607.2000 241.2600 608.6400L241.2600 608.6400Q248.9100 610.3500 253.7700 612.6000Q258.6300 614.8500 260.8800 618.3150Q263.1300 621.7800 263.1300 627.0900L263.1300 627.0900Q263.1300 633.0300 259.9350 637.2150Q256.7400 641.4000 250.9800 643.6500Q245.2200 645.9000 237.5700 645.9000ZM313.2600 645.9000L313.2600 645.9000Q306.7800 645.9000 301.8750 643.4700Q296.9700 641.0400 294.2250 636.4050Q291.4800 631.7700 291.2100 625.2000L291.2100 625.2000Q291.1200 623.8500 291.1200 621.6450Q291.1200 619.4400 291.2100 618L291.2100 618Q291.4800 611.4300 294.2250 606.7950Q296.9700 602.1600 301.8750 599.7300Q306.7800 597.3000 313.2600 597.3000L313.2600 597.3000Q319.0200 597.3000 323.0700 598.8750Q327.1200 600.4500 329.7300 602.9250Q332.3400 605.4000 333.6450 608.0550Q334.9500 610.7100 335.0400 612.8700L335.0400 612.8700Q335.1300 613.8600 334.4550 614.4450Q333.7800 615.0300 332.8800 615.0300L332.8800 615.0300L324.9600 615.0300Q324.0600 615.0300 323.5650 614.5800Q323.0700 614.1300 322.6200 613.2300L322.6200 613.2300Q321.2700 609.6300 319.0650 608.1450Q316.8600 606.6600 313.4400 606.6600L313.4400 606.6600Q308.9400 606.6600 306.2850 609.4950Q303.6300 612.3300 303.4500 618.4500L303.4500 618.4500Q303.2700 621.8700 303.4500 624.7500L303.4500 624.7500Q303.6300 630.9600 306.2850 633.7500Q308.9400 636.5400 313.4400 636.5400L313.4400 636.5400Q316.9500 636.5400 319.1100 635.0550Q321.2700 633.5700 322.6200 629.9700L322.6200 629.9700Q323.0700 629.0700 323.5650 628.6200Q324.0600 628.1700 324.9600 628.1700L324.9600 628.1700L332.8800 628.1700Q333.7800 628.1700 334.4550 628.7550Q335.1300 629.3400 335.0400 630.3300L335.0400 630.3300Q334.9500 631.9500 334.1850 633.9750Q333.4200 636 331.7550 638.1150Q330.0900 640.2300 327.5700 641.9850Q325.0500 643.7400 321.4950 644.8200Q317.9400 645.9000 313.2600 645.9000ZM365.1000 645.9000L365.1000 645.9000Q357.9000 645.9000 352.9950 643.3800Q348.0900 640.8600 345.5250 636.2700Q342.9600 631.6800 342.6000 625.5600L342.6000 625.5600Q342.5100 623.9400 342.5100 621.6000Q342.5100 619.2600 342.6000 617.6400L342.6000 617.6400Q342.9600 611.4300 345.6150 606.8850Q348.2700 602.3400 353.1750 599.8200Q358.0800 597.3000 365.1000 597.3000L365.1000 597.3000Q372.1200 597.3000 377.0250 599.8200Q381.9300 602.3400 384.5850 606.8850Q387.2400 611.4300 387.6000 617.6400L387.6000 617.6400Q387.6900 619.2600 387.6900 621.6000Q387.6900 623.9400 387.6000 625.5600L387.6000 625.5600Q387.2400 631.6800 384.6750 636.2700Q382.1100 640.8600 377.2050 643.3800Q372.3000 645.9000 365.1000 645.9000ZM365.1000 636.9900L365.1000 636.9900Q369.8700 636.9900 372.4800 633.9750Q375.0900 630.9600 375.3600 625.1100L375.3600 625.1100Q375.4500 623.7600 375.4500 621.6000Q375.4500 619.4400 375.3600 618.0900L375.3600 618.0900Q375.0900 612.2400 372.4800 609.2250Q369.8700 606.2100 365.1000 606.2100L365.1000 606.2100Q360.3300 606.2100 357.7200 609.2250Q355.1100 612.2400 354.8400 618.0900L354.8400 618.0900Q354.7500 619.4400 354.7500 621.6000Q354.7500 623.7600 354.8400 625.1100L354.8400 625.1100Q355.1100 630.9600 357.7200 633.9750Q360.3300 636.9900 365.1000 636.9900ZM407.4000 645L399.8400 645Q398.9400 645 398.3100 644.3700Q397.6800 643.7400 397.6800 642.8400L397.6800 642.8400L397.6800 600.3600Q397.6800 599.4600 398.3100 598.8300Q398.9400 598.2000 399.8400 598.2000L399.8400 598.2000L406.8600 598.2000Q407.7600 598.2000 408.3900 598.8300Q409.0200 599.4600 409.0200 600.3600L409.0200 600.3600L409.0200 603.4200Q410.9100 600.9000 414.1050 599.1450Q417.3000 597.3900 421.7100 597.3000L421.7100 597.3000Q431.9700 597.1200 436.0200 605.3100L436.0200 605.3100Q438.0900 601.7100 442.0050 599.5050Q445.9200 597.3000 450.6900 597.3000L450.6900 597.3000Q455.3700 597.3000 459.1950 599.4600Q463.0200 601.6200 465.2250 605.9850Q467.4300 610.3500 467.4300 617.0100L467.4300 617.0100L467.4300 642.8400Q467.4300 643.7400 466.8000 644.3700Q466.1700 645 465.2700 645L465.2700 645L457.8900 645Q456.9900 645 456.3600 644.3700Q455.7300 643.7400 455.7300 642.8400L455.7300 642.8400L455.7300 617.7300Q455.7300 613.6800 454.5600 611.2950Q453.3900 608.9100 451.4100 607.9200Q449.4300 606.9300 447 606.9300L447 606.9300Q445.0200 606.9300 443.0400 607.9200Q441.0600 608.9100 439.8000 611.2950Q438.5400 613.6800 438.5400 617.7300L438.5400 617.7300L438.5400 642.8400Q438.5400 643.7400 437.9100 644.3700Q437.2800 645 436.3800 645L436.3800 645L429 645Q428.1000 645 427.4700 644.3700Q426.8400 643.7400 426.8400 642.8400L426.8400 642.8400L426.8400 617.7300Q426.8400 613.6800 425.5800 611.2950Q424.3200 608.9100 422.3400 607.9200Q420.3600 606.9300 418.1100 606.9300L418.1100 606.9300Q416.0400 606.9300 414.0600 607.9650Q412.0800 609 410.8200 611.3400Q409.5600 613.6800 409.5600 617.7300L409.5600 617.7300L409.5600 642.8400Q409.5600 643.7400 408.9300 644.3700Q408.3000 645 407.4000 645L407.4000 645ZM510.9000 645L502.7100 645Q501.8100 645 501.1800 644.3700Q500.5500 643.7400 500.5500 642.8400L500.5500 642.8400L500.5500 584.2500Q500.5500 583.2600 501.1800 582.6300Q501.8100 582 502.7100 582L502.7100 582L526.0200 582Q536.9100 582 543.2100 587.0400Q549.5100 592.0800 549.5100 601.7100L549.5100 601.7100Q549.5100 608.3700 546.2250 612.7800Q542.9400 617.1900 537.4500 619.1700L537.4500 619.1700L550.5900 642.1200Q550.8600 642.6600 550.8600 643.1100L550.8600 643.1100Q550.8600 643.9200 550.2750 644.4600Q549.6900 645 548.9700 645L548.9700 645L540.7800 645Q539.2500 645 538.4400 644.1900Q537.6300 643.3800 537.1800 642.5700L537.1800 642.5700L525.5700 621.2400L513.0600 621.2400L513.0600 642.8400Q513.0600 643.7400 512.4750 644.3700Q511.8900 645 510.9000 645L510.9000 645ZM513.0600 591.9900L513.0600 611.0700L525.7500 611.0700Q531.2400 611.0700 533.9400 608.5950Q536.6400 606.1200 536.6400 601.6200L536.6400 601.6200Q536.6400 597.1200 533.9850 594.5550Q531.3300 591.9900 525.7500 591.9900L525.7500 591.9900L513.0600 591.9900ZM580.2000 645.9000L580.2000 645.9000Q570.2100 645.9000 564.3600 640.1400Q558.5100 634.3800 558.0600 623.7600L558.0600 623.7600Q557.9700 622.8600 557.9700 621.4650Q557.9700 620.0700 558.0600 619.2600L558.0600 619.2600Q558.4200 612.4200 561.1650 607.5150Q563.9100 602.6100 568.7700 599.9550Q573.6300 597.3000 580.2000 597.3000L580.2000 597.3000Q587.4900 597.3000 592.4400 600.3150Q597.3900 603.3300 599.9100 608.6850Q602.4300 614.0400 602.4300 621.0600L602.4300 621.0600L602.4300 622.9500Q602.4300 623.8500 601.8000 624.4800Q601.1700 625.1100 600.1800 625.1100L600.1800 625.1100L570.3000 625.1100Q570.3000 625.1100 570.3000 625.3800Q570.3000 625.6500 570.3000 625.8300L570.3000 625.8300Q570.3900 628.9800 571.5150 631.6350Q572.6400 634.2900 574.8450 635.9100Q577.0500 637.5300 580.1100 637.5300L580.1100 637.5300Q582.6300 637.5300 584.3400 636.7650Q586.0500 636 587.1300 635.0100Q588.2100 634.0200 588.6600 633.3900L588.6600 633.3900Q589.4700 632.3100 589.9650 632.0850Q590.4600 631.8600 591.4500 631.8600L591.4500 631.8600L599.1900 631.8600Q600.0900 631.8600 600.6750 632.4000Q601.2600 632.9400 601.1700 633.7500L601.1700 633.7500Q601.0800 635.1900 599.6850 637.2600Q598.2900 639.3300 595.6800 641.3100Q593.0700 643.2900 589.1550 644.5950Q585.2400 645.9000 580.2000 645.9000ZM570.3000 617.2800L570.3000 617.5500L590.1900 617.5500L590.1900 617.2800Q590.1900 613.7700 589.0200 611.1150Q587.8500 608.4600 585.6000 606.9750Q583.3500 605.4900 580.2000 605.4900L580.2000 605.4900Q577.0500 605.4900 574.8000 606.9750Q572.5500 608.4600 571.4250 611.1150Q570.3000 613.7700 570.3000 617.2800L570.3000 617.2800ZM625.5600 645.9000L625.5600 645.9000Q620.8800 645.9000 617.1000 644.0550Q613.3200 642.2100 611.1150 639.1050Q608.9100 636 608.9100 632.1300L608.9100 632.1300Q608.9100 625.8300 614.0400 622.0950Q619.1700 618.3600 627.4500 617.1000L627.4500 617.1000L639.7800 615.3000L639.7800 613.4100Q639.7800 609.6300 637.8900 607.5600Q636 605.4900 631.4100 605.4900L631.4100 605.4900Q628.1700 605.4900 626.1450 606.7950Q624.1200 608.1000 623.1300 610.2600L623.1300 610.2600Q622.4100 611.4300 621.0600 611.4300L621.0600 611.4300L613.9500 611.4300Q612.9600 611.4300 612.4650 610.8900Q611.9700 610.3500 611.9700 609.4500L611.9700 609.4500Q612.0600 608.0100 613.1850 605.9400Q614.3100 603.8700 616.6050 601.9350Q618.9000 600 622.5900 598.6500Q626.2800 597.3000 631.5000 597.3000L631.5000 597.3000Q637.1700 597.3000 641.0850 598.6950Q645 600.0900 647.3400 602.4300Q649.6800 604.7700 650.7600 607.9200Q651.8400 611.0700 651.8400 614.5800L651.8400 614.5800L651.8400 642.8400Q651.8400 643.7400 651.2100 644.3700Q650.5800 645 649.6800 645L649.6800 645L642.3900 645Q641.4000 645 640.8150 644.3700Q640.2300 643.7400 640.2300 642.8400L640.2300 642.8400L640.2300 639.3300Q639.0600 640.9500 637.0800 642.4800Q635.1000 644.0100 632.2650 644.9550Q629.4300 645.9000 625.5600 645.9000ZM628.6200 637.3500L628.6200 637.3500Q631.7700 637.3500 634.3350 636Q636.9000 634.6500 638.3850 631.8150Q639.8700 628.9800 639.8700 624.6600L639.8700 624.6600L639.8700 622.7700L630.8700 624.2100Q625.5600 625.0200 622.9500 626.8200Q620.3400 628.6200 620.3400 631.2300L620.3400 631.2300Q620.3400 633.2100 621.5550 634.6050Q622.7700 636 624.6600 636.6750Q626.5500 637.3500 628.6200 637.3500ZM683.6100 645.9000L683.6100 645.9000Q677.1300 645.9000 672.2250 643.4700Q667.3200 641.0400 664.5750 636.4050Q661.8300 631.7700 661.5600 625.2000L661.5600 625.2000Q661.4700 623.8500 661.4700 621.6450Q661.4700 619.4400 661.5600 618L661.5600 618Q661.8300 611.4300 664.5750 606.7950Q667.3200 602.1600 672.2250 599.7300Q677.1300 597.3000 683.6100 597.3000L683.6100 597.3000Q689.3700 597.3000 693.4200 598.8750Q697.4700 600.4500 700.0800 602.9250Q702.6900 605.4000 703.9950 608.0550Q705.3000 610.7100 705.3900 612.8700L705.3900 612.8700Q705.4800 613.8600 704.8050 614.4450Q704.1300 615.0300 703.2300 615.0300L703.2300 615.0300L695.3100 615.0300Q694.4100 615.0300 693.9150 614.5800Q693.4200 614.1300 692.9700 613.2300L692.9700 613.2300Q691.6200 609.6300 689.4150 608.1450Q687.2100 606.6600 683.7900 606.6600L683.7900 606.6600Q679.2900 606.6600 676.6350 609.4950Q673.9800 612.3300 673.8000 618.4500L673.8000 618.4500Q673.6200 621.8700 673.8000 624.7500L673.8000 624.7500Q673.9800 630.9600 676.6350 633.7500Q679.2900 636.5400 683.7900 636.5400L683.7900 636.5400Q687.3000 636.5400 689.4600 635.0550Q691.6200 633.5700 692.9700 629.9700L692.9700 629.9700Q693.4200 629.0700 693.9150 628.6200Q694.4100 628.1700 695.3100 628.1700L695.3100 628.1700L703.2300 628.1700Q704.1300 628.1700 704.8050 628.7550Q705.4800 629.3400 705.3900 630.3300L705.3900 630.3300Q705.3000 631.9500 704.5350 633.9750Q703.7700 636 702.1050 638.1150Q700.4400 640.2300 697.9200 641.9850Q695.4000 643.7400 691.8450 644.8200Q688.2900 645.9000 683.6100 645.9000ZM743.1900 645L735.9000 645Q730.5000 645 726.8100 643.1100Q723.1200 641.2200 721.3200 637.4850Q719.5200 633.7500 719.5200 628.1700L719.5200 628.1700L719.5200 607.7400L712.4100 607.7400Q711.5100 607.7400 710.8800 607.1100Q710.2500 606.4800 710.2500 605.4900L710.2500 605.4900L710.2500 600.3600Q710.2500 599.4600 710.8800 598.8300Q711.5100 598.2000 712.4100 598.2000L712.4100 598.2000L719.5200 598.2000L719.5200 583.2600Q719.5200 582.3600 720.1050 581.7300Q720.6900 581.1000 721.6800 581.1000L721.6800 581.1000L728.9700 581.1000Q729.8700 581.1000 730.5000 581.7300Q731.1300 582.3600 731.1300 583.2600L731.1300 583.2600L731.1300 598.2000L742.3800 598.2000Q743.2800 598.2000 743.9100 598.8300Q744.5400 599.4600 744.5400 600.3600L744.5400 600.3600L744.5400 605.4900Q744.5400 606.4800 743.9100 607.1100Q743.2800 607.7400 742.3800 607.7400L742.3800 607.7400L731.1300 607.7400L731.1300 627.2700Q731.1300 630.9600 732.4350 633.0300Q733.7400 635.1000 736.9800 635.1000L736.9800 635.1000L743.1900 635.1000Q744.0900 635.1000 744.7200 635.7300Q745.3500 636.3600 745.3500 637.2600L745.3500 637.2600L745.3500 642.8400Q745.3500 643.7400 744.7200 644.3700Q744.0900 645 743.1900 645L743.1900 645Z" id="title"/><path d="M1448.3400 640L1343.1800 640Q1340.9800 640 1339.4400 638.4600Q1337.9000 636.9200 1337.9000 634.7200L1337.9000 634.7200L1337.9000 623.5000Q1337.9000 621.5200 1338.8900 618.7700Q1339.8800 616.0200 1343.4000 613.1600L1343.4000 613.1600L1378.1600 578.6200Q1392.6800 567.1800 1401.5900 559.1500Q1410.5000 551.1200 1414.5700 544.4100Q1418.6400 537.7000 1418.6400 531.1000L1418.6400 531.1000Q1418.6400 521.2000 1413.2500 515.0400Q1407.8600 508.8800 1396.2000 508.8800L1396.2000 508.8800Q1388.5000 508.8800 1383.2200 512.0700Q1377.9400 515.2600 1374.9700 520.5400Q1372 525.8200 1370.9000 532.2000L1370.9000 532.2000Q1370.4600 535.0600 1368.4800 536.1600Q1366.5000 537.2600 1364.5200 537.2600L1364.5200 537.2600L1344.9400 537.2600Q1342.9600 537.2600 1341.6400 535.9400Q1340.3200 534.6200 1340.3200 532.8600L1340.3200 532.8600Q1340.5400 523.4000 1344.2800 514.4900Q1348.0200 505.5800 1355.1700 498.6500Q1362.3200 491.7200 1372.6600 487.5400Q1383 483.3600 1395.9800 483.3600L1395.9800 483.3600Q1414.2400 483.3600 1426.2300 489.5200Q1438.2200 495.6800 1444.2700 506.2400Q1450.3200 516.8000 1450.3200 530L1450.3200 530Q1450.3200 540.3400 1446.3600 549.0300Q1442.4000 557.7200 1434.9200 565.7500Q1427.4400 573.7800 1416.8800 582.1400L1416.8800 582.1400L1385.6400 613.8200L1448.3400 613.8200Q1450.7600 613.8200 1452.1900 615.2500Q1453.6200 616.6800 1453.6200 619.1000L1453.6200 619.1000L1453.6200 634.7200Q1453.6200 636.9200 1452.1900 638.4600Q1450.7600 640 1448.3400 640L1448.3400 640ZM1525.1200 640L1504.6600 640Q1502.6800 640 1501.3600 638.5700Q1500.0400 637.1400 1500.0400 635.1600L1500.0400 635.1600Q1500.0400 634.0600 1500.3700 633.4000Q1500.7000 632.7400 1500.9200 632.3000L1500.9200 632.3000L1533.2600 587.6400Q1529.0800 588.7400 1524.2400 588.5200L1524.2400 588.5200Q1513.0200 588.3000 1503.4500 584.2300Q1493.8800 580.1600 1486.7300 573.2300Q1479.5800 566.3000 1475.5100 557.1700Q1471.4400 548.0400 1471.4400 537.2600L1471.4400 537.2600Q1471.4400 527.3600 1475.1800 517.7900Q1478.9200 508.2200 1486.2900 500.5200Q1493.6600 492.8200 1504.7700 488.3100Q1515.8800 483.8000 1530.8400 483.8000L1530.8400 483.8000Q1545.5800 483.8000 1556.8000 487.9800Q1568.0200 492.1600 1575.6100 499.5300Q1583.2000 506.9000 1587.0500 516.3600Q1590.9000 525.8200 1590.9000 536.3800L1590.9000 536.3800Q1590.9000 545.8400 1587.8200 553.9800Q1584.7400 562.1200 1580.2300 568.8300Q1575.7200 575.5400 1571.3200 581.9200L1571.3200 581.9200L1532.6000 635.6000Q1531.7200 636.7000 1530.0700 638.3500Q1528.4200 640 1525.1200 640L1525.1200 640ZM1531.0600 565.2000L1531.0600 565.2000Q1538.9800 565.2000 1545.4700 561.7900Q1551.9600 558.3800 1555.8100 552.1100Q1559.6600 545.8400 1559.6600 537.2600L1559.6600 537.2600Q1559.6600 528.4600 1555.8100 522.1900Q1551.9600 515.9200 1545.3600 512.5100Q1538.7600 509.1000 1531.0600 509.1000L1531.0600 509.1000Q1523.1400 509.1000 1516.6500 512.5100Q1510.1600 515.9200 1506.3100 522.1900Q1502.4600 528.4600 1502.4600 537.2600L1502.4600 537.2600Q1502.4600 545.8400 1506.3100 552.1100Q1510.1600 558.3800 1516.6500 561.7900Q1523.1400 565.2000 1531.0600 565.2000ZM1627.6400 640L1605.6400 640Q1603.4400 640 1601.9000 638.4600Q1600.3600 636.9200 1600.3600 634.7200L1600.3600 634.7200L1600.3600 612.9400Q1600.3600 610.5200 1601.9000 608.9800Q1603.4400 607.4400 1605.6400 607.4400L1605.6400 607.4400L1627.6400 607.4400Q1629.8400 607.4400 1631.3800 608.9800Q1632.9200 610.5200 1632.9200 612.9400L1632.9200 612.9400L1632.9200 634.7200Q1632.9200 636.9200 1631.3800 638.4600Q1629.8400 640 1627.6400 640L1627.6400 640ZM1697.6000 640L1677.1400 640Q1675.1600 640 1673.8400 638.5700Q1672.5200 637.1400 1672.5200 635.1600L1672.5200 635.1600Q1672.5200 634.0600 1672.8500 633.4000Q1673.1800 632.7400 1673.4000 632.3000L1673.4000 632.3000L1705.7400 587.6400Q1701.5600 588.7400 1696.7200 588.5200L1696.7200 588.5200Q1685.5000 588.3000 1675.9300 584.2300Q1666.3600 580.1600 1659.2100 573.2300Q1652.0600 566.3000 1647.9900 557.1700Q1643.9200 548.0400 1643.9200 537.2600L1643.9200 537.2600Q1643.9200 527.3600 1647.6600 517.7900Q1651.4000 508.2200 1658.7700 500.5200Q1666.1400 492.8200 1677.2500 488.3100Q1688.3600 483.8000 1703.3200 483.8000L1703.3200 483.8000Q1718.0600 483.8000 1729.2800 487.9800Q1740.5000 492.1600 1748.0900 499.5300Q1755.6800 506.9000 1759.5300 516.3600Q1763.3800 525.8200 1763.3800 536.3800L1763.3800 536.3800Q1763.3800 545.8400 1760.3000 553.9800Q1757.2200 562.1200 1752.7100 568.8300Q1748.2000 575.5400 1743.8000 581.9200L1743.8000 581.9200L1705.0800 635.6000Q1704.2000 636.7000 1702.5500 638.3500Q1700.9000 640 1697.6000 640L1697.6000 640ZM1703.5400 565.2000L1703.5400 565.2000Q1711.4600 565.2000 1717.9500 561.7900Q1724.4400 558.3800 1728.2900 552.1100Q1732.1400 545.8400 1732.1400 537.2600L1732.1400 537.2600Q1732.1400 528.4600 1728.2900 522.1900Q1724.4400 515.9200 1717.8400 512.5100Q1711.2400 509.1000 1703.5400 509.1000L1703.5400 509.1000Q1695.6200 509.1000 1689.1300 512.5100Q1682.6400 515.9200 1678.7900 522.1900Q1674.9400 528.4600 1674.9400 537.2600L1674.9400 537.2600Q1674.9400 545.8400 1678.7900 552.1100Q1682.6400 558.3800 1689.1300 561.7900Q1695.6200 565.2000 1703.5400 565.2000Z" id="lecture-full-number"/></g></svg>