<svg xmlns="http://www.w3.org/2000/svg" version="1.1" xmlns:xlink="http://www.w3.org/1999/xlink" xmlns:svgjs="http://svgjs.dev/svgjs" viewBox="0 0 1920 1080" id="d1aa3599-a270-43a1-9af7-fd13b2d28c04"><g><rect width="1920" height="1080" fill="#eb4d88"/></g><g fill="#2c889e"><path d="M865 270L865 2467C258.907 2467 -232 1976.03 -232 1369.87C-232 760.965 258.907 270 865 270Z"/></g><g fill="#ffffff" opacity="0.2"><path d="M1829.66 1149.02C1826.52 1125.1 1822.11 1101.18 1817.7 1077.89L1577.22 1318.37H1660.32L1829.66 1149.02Z"/><path d="M1798.82 998.567C1793.15 977.163 1786.23 955.759 1779.3 934.984L1395.92 1319H1479.02L1798.82 998.567Z"/><path d="M1752.86 863.214C1744.68 843.698 1736.5 824.183 1727.68 805.297L1214.61 1319H1297.71L1752.86 863.214Z"/><path d="M1694.32 739.83C1684.88 722.203 1674.17 704.576 1664.1 686.949L1147.89 1203.8C1152.92 1227.72 1156.7 1251.64 1158.59 1276.19L1694.32 739.83Z"/><path d="M1625.07 627.77C1613.73 611.402 1601.77 595.664 1589.81 579.926L1098.78 1071.59C1108.22 1089.85 1117.03 1109.36 1124.59 1128.88L1625.07 627.77Z"/><path d="M1546.38 525.789C1533.79 510.68 1520.57 496.201 1506.72 482.352L1025.12 964.574C1038.35 979.053 1050.31 994.791 1061.64 1011.16L1546.38 525.789Z"/><path d="M1457.61 433.249C1443.13 420.029 1428.65 406.809 1413.54 394.219L928.802 879.589C945.17 890.92 960.908 902.881 975.387 916.101L1457.61 433.249Z"/><path d="M1358.78 350.148C1343.04 338.187 1326.67 326.855 1310.3 315.523L808.564 817.891C828.709 825.445 847.595 833.629 866.481 843.072L1358.78 350.148Z"/><path d="M1251.12 276.495C1233.5 265.793 1215.87 255.72 1198.24 246.277L659.364 785.787C684.545 787.046 709.097 790.194 733.019 795.23L1251.12 276.495Z"/><path d="M1132.14 214.166C1113.26 205.352 1093.74 197.168 1074.23 188.984L626.627 637.212V720.31L1132.14 214.166Z"/><path d="M1001.83 163.175C980.427 156.25 959.023 149.955 937.619 144.289L626 455.908V539.006L1001.83 163.175Z"/><path d="M857.666 126.035C834.373 121.628 810.451 117.851 786.529 114.074L626.627 274.605V357.703L857.666 126.035Z"/><path d="M626.626 176.396L697.134 105.889C673.841 104.629 650.548 104 626.626 104V176.396Z"/></g><g><path d="M178.635 139.281L184.422 144.246V166.626H215.704L219.958 172.147L215.69 177.397H184.422V198.795L178.635 203.747L173 198.795V144.232L178.635 139.281ZM195.554 195.68H219.406L223.397 200.915L219.143 206.45H195.554L191.7 201.342L195.554 195.68ZM196.382 138H219.129L223.383 143.52L219.129 148.77H196.659L192.115 143.677L196.382 138ZM323.155 148.628L328.251 154.291L323.155 159.968H246.13L241.172 154.291L246.13 148.628H323.155ZM237.043 172.147L241.849 167.893L246.669 172.147V178.393C246.669 188.879 249.417 197.515 261.668 197.515H264.14C275.147 197.515 281.197 189.86 281.197 177.952V172.005L285.879 167.75L290.699 171.862V178.379C290.699 189.007 293.723 196.946 305.56 196.946H307.618C319.178 196.946 321.235 187.869 321.373 177.952V171.578L326.056 167.608L331 171.72V178.094C330.862 191.838 327.285 207.574 308.032 207.574H305.974C294.552 207.574 288.365 202.324 285.892 195.808C283.006 202.466 275.299 208.286 264.844 208.286H262.358C242.553 208.286 237.194 195.964 237.056 178.663V172.147H237.043ZM276.391 274.744L273.642 267.089L280.796 264.969L305.974 276.721V252.491L311.07 248.095L316.291 252.491V281.829L325.641 286.226L328.251 293.311L320.959 296L276.391 274.744ZM321.235 223.011L328.113 226.27L325.917 233.497L264.002 263.119L256.571 260.146L259.596 252.776L321.235 223.011ZM231.905 263.404L237.954 268.512C237.402 286.51 222.403 296 204.669 296H202.874C194.062 296 183.759 292.6 177.157 286.083L177.834 278.855L184.298 278.002C189.118 282.256 195.858 285.229 202.183 285.229H204.117C216.091 285.229 225.303 280.136 226.27 268.085L231.905 263.404ZM226.256 251.638C225.704 239.16 216.629 234.209 204.103 234.209H202.169C194.739 234.209 189.104 237.182 184.284 241.436L177.834 240.583L177.143 233.355C183.745 226.696 192.957 223.58 202.597 223.58H204.517C222.403 223.58 237.402 232.942 237.94 251.211L231.891 256.176L226.256 251.638Z" fill="#ffffff"/></g><path d="M1171 781L1171 339L1187 339L1187 781L1171 781Z" fill="#ffffff"/><g fill="#ffffff" id="info-group"><path d="M186 600L159.1800 600Q158.2800 600 157.6500 599.3700Q157.0200 598.7400 157.0200 597.8400L157.0200 597.8400L157.0200 539.2500Q157.0200 538.2600 157.6500 537.6300Q158.2800 537 159.1800 537L159.1800 537L185.2800 537Q192.5700 537 197.1600 539.2050Q201.7500 541.4100 203.9550 545.2800Q206.1600 549.1500 206.1600 554.2800L206.1600 554.2800Q206.1600 557.7000 204.9450 560.2650Q203.7300 562.8300 201.9750 564.4500Q200.2200 566.0700 198.5100 566.9700L198.5100 566.9700Q202.0200 568.5900 204.7200 572.3700Q207.4200 576.1500 207.4200 581.3700L207.4200 581.3700Q207.4200 586.7700 204.9900 591Q202.5600 595.2300 197.7900 597.6150Q193.0200 600 186 600L186 600ZM169.5300 572.1900L169.5300 590.4600L184.5600 590.4600Q189.4200 590.4600 191.9400 587.8050Q194.4600 585.1500 194.4600 581.3700L194.4600 581.3700Q194.4600 577.4100 191.8950 574.8000Q189.3300 572.1900 184.5600 572.1900L184.5600 572.1900L169.5300 572.1900ZM169.5300 546.4500L169.5300 562.8300L183.6600 562.8300Q188.4300 562.8300 190.8150 560.5350Q193.2000 558.2400 193.2000 554.5500L193.2000 554.5500Q193.2000 550.7700 190.8150 548.6100Q188.4300 546.4500 183.6600 546.4500L183.6600 546.4500L169.5300 546.4500ZM238.3800 600.9000L238.3800 600.9000Q231.1800 600.9000 226.2750 598.3800Q221.3700 595.8600 218.8050 591.2700Q216.2400 586.6800 215.8800 580.5600L215.8800 580.5600Q215.7900 578.9400 215.7900 576.6000Q215.7900 574.2600 215.8800 572.6400L215.8800 572.6400Q216.2400 566.4300 218.8950 561.8850Q221.5500 557.3400 226.4550 554.8200Q231.3600 552.3000 238.3800 552.3000L238.3800 552.3000Q245.4000 552.3000 250.3050 554.8200Q255.2100 557.3400 257.8650 561.8850Q260.5200 566.4300 260.8800 572.6400L260.8800 572.6400Q260.9700 574.2600 260.9700 576.6000Q260.9700 578.9400 260.8800 580.5600L260.8800 580.5600Q260.5200 586.6800 257.9550 591.2700Q255.3900 595.8600 250.4850 598.3800Q245.5800 600.9000 238.3800 600.9000ZM238.3800 591.9900L238.3800 591.9900Q243.1500 591.9900 245.7600 588.9750Q248.3700 585.9600 248.6400 580.1100L248.6400 580.1100Q248.7300 578.7600 248.7300 576.6000Q248.7300 574.4400 248.6400 573.0900L248.6400 573.0900Q248.3700 567.2400 245.7600 564.2250Q243.1500 561.2100 238.3800 561.2100L238.3800 561.2100Q233.6100 561.2100 231 564.2250Q228.3900 567.2400 228.1200 573.0900L228.1200 573.0900Q228.0300 574.4400 228.0300 576.6000Q228.0300 578.7600 228.1200 580.1100L228.1200 580.1100Q228.3900 585.9600 231 588.9750Q233.6100 591.9900 238.3800 591.9900ZM284.5500 600.9000L284.5500 600.9000Q279.8700 600.9000 276.0900 599.0550Q272.3100 597.2100 270.1050 594.1050Q267.9000 591 267.9000 587.1300L267.9000 587.1300Q267.9000 580.8300 273.0300 577.0950Q278.1600 573.3600 286.4400 572.1000L286.4400 572.1000L298.7700 570.3000L298.7700 568.4100Q298.7700 564.6300 296.8800 562.5600Q294.9900 560.4900 290.4000 560.4900L290.4000 560.4900Q287.1600 560.4900 285.1350 561.7950Q283.1100 563.1000 282.1200 565.2600L282.1200 565.2600Q281.4000 566.4300 280.0500 566.4300L280.0500 566.4300L272.9400 566.4300Q271.9500 566.4300 271.4550 565.8900Q270.9600 565.3500 270.9600 564.4500L270.9600 564.4500Q271.0500 563.0100 272.1750 560.9400Q273.3000 558.8700 275.5950 556.9350Q277.8900 555 281.5800 553.6500Q285.2700 552.3000 290.4900 552.3000L290.4900 552.3000Q296.1600 552.3000 300.0750 553.6950Q303.9900 555.0900 306.3300 557.4300Q308.6700 559.7700 309.7500 562.9200Q310.8300 566.0700 310.8300 569.5800L310.8300 569.5800L310.8300 597.8400Q310.8300 598.7400 310.2000 599.3700Q309.5700 600 308.6700 600L308.6700 600L301.3800 600Q300.3900 600 299.8050 599.3700Q299.2200 598.7400 299.2200 597.8400L299.2200 597.8400L299.2200 594.3300Q298.0500 595.9500 296.0700 597.4800Q294.0900 599.0100 291.2550 599.9550Q288.4200 600.9000 284.5500 600.9000ZM287.6100 592.3500L287.6100 592.3500Q290.7600 592.3500 293.3250 591Q295.8900 589.6500 297.3750 586.8150Q298.8600 583.9800 298.8600 579.6600L298.8600 579.6600L298.8600 577.7700L289.8600 579.2100Q284.5500 580.0200 281.9400 581.8200Q279.3300 583.6200 279.3300 586.2300L279.3300 586.2300Q279.3300 588.2100 280.5450 589.6050Q281.7600 591 283.6500 591.6750Q285.5400 592.3500 287.6100 592.3500ZM340.0800 600.9000L340.0800 600.9000Q334.6800 600.9000 330.8550 599.6400Q327.0300 598.3800 324.6000 596.4900Q322.1700 594.6000 321.0000 592.7100Q319.8300 590.8200 319.7400 589.5600L319.7400 589.5600Q319.6500 588.5700 320.3250 587.9850Q321.0000 587.4000 321.8100 587.4000L321.8100 587.4000L328.9200 587.4000Q329.2800 587.4000 329.5500 587.4900Q329.8200 587.5800 330.2700 588.0300L330.2700 588.0300Q331.4400 589.0200 332.7450 590.1000Q334.0500 591.1800 335.8500 591.9450Q337.6500 592.7100 340.3500 592.7100L340.3500 592.7100Q343.8600 592.7100 346.2450 591.3150Q348.6300 589.9200 348.6300 587.3100L348.6300 587.3100Q348.6300 585.4200 347.5950 584.2500Q346.5600 583.0800 343.7700 582.1350Q340.9800 581.1900 335.8500 580.1100L335.8500 580.1100Q330.8100 578.9400 327.4800 577.1400Q324.1500 575.3400 322.5300 572.6400Q320.9100 569.9400 320.9100 566.3400L320.9100 566.3400Q320.9100 562.8300 323.0250 559.6350Q325.1400 556.4400 329.3250 554.3700Q333.5100 552.3000 339.7200 552.3000L339.7200 552.3000Q344.5800 552.3000 348.1800 553.5150Q351.7800 554.7300 354.1650 556.5300Q356.5500 558.3300 357.8100 560.1750Q359.0700 562.0200 359.1600 563.3700L359.1600 563.3700Q359.2500 564.3600 358.6200 564.9450Q357.9900 565.5300 357.1800 565.5300L357.1800 565.5300L350.5200 565.5300Q350.0700 565.5300 349.7100 565.3500Q349.3500 565.1700 348.9900 564.9000L348.9900 564.9000Q348.0000 564 346.8300 562.9650Q345.6600 561.9300 343.9950 561.2100Q342.3300 560.4900 339.6300 560.4900L339.6300 560.4900Q336.2100 560.4900 334.4100 561.9750Q332.6100 563.4600 332.6100 565.7100L332.6100 565.7100Q332.6100 567.2400 333.4650 568.3650Q334.3200 569.4900 336.9300 570.4800Q339.5400 571.4700 344.8500 572.5500L344.8500 572.5500Q350.8800 573.6300 354.4350 575.7450Q357.9900 577.8600 359.4750 580.6050Q360.9600 583.3500 360.9600 586.6800L360.9600 586.6800Q360.9600 590.7300 358.5750 593.9700Q356.1900 597.2100 351.5550 599.0550Q346.9200 600.9000 340.0800 600.9000ZM400.7400 617.1000L393.0900 617.1000Q392.1900 617.1000 391.5600 616.4700Q390.9300 615.8400 390.9300 614.9400L390.9300 614.9400L390.9300 555.3600Q390.9300 554.4600 391.5600 553.8300Q392.1900 553.2000 393.0900 553.2000L393.0900 553.2000L400.2000 553.2000Q401.1900 553.2000 401.7750 553.8300Q402.3600 554.4600 402.3600 555.3600L402.3600 555.3600L402.3600 558.9600Q404.5200 556.0800 408.0300 554.1900Q411.5400 552.3000 416.7600 552.3000L416.7600 552.3000Q421.5300 552.3000 425.0400 553.8300Q428.5500 555.3600 430.8900 558.1950Q433.2300 561.0300 434.4900 564.9000Q435.7500 568.7700 435.9300 573.4500L435.9300 573.4500Q436.0200 574.9800 436.0200 576.6000Q436.0200 578.2200 435.9300 579.8400L435.9300 579.8400Q435.8400 584.3400 434.5800 588.1650Q433.3200 591.9900 430.9350 594.8250Q428.5500 597.6600 425.0400 599.2800Q421.5300 600.9000 416.7600 600.9000L416.7600 600.9000Q411.9000 600.9000 408.4800 599.1450Q405.0600 597.3900 402.9000 594.5100L402.9000 594.5100L402.9000 614.9400Q402.9000 615.8400 402.3150 616.4700Q401.7300 617.1000 400.7400 617.1000L400.7400 617.1000ZM413.4300 591.2700L413.4300 591.2700Q417.3000 591.2700 419.4600 589.6050Q421.6200 587.9400 422.6100 585.2400Q423.6000 582.5400 423.7800 579.3000L423.7800 579.3000Q423.8700 576.6000 423.7800 573.9000L423.7800 573.9000Q423.6000 570.6600 422.6100 567.9600Q421.6200 565.2600 419.4600 563.5950Q417.3000 561.9300 413.4300 561.9300L413.4300 561.9300Q409.7400 561.9300 407.4450 563.6400Q405.1500 565.3500 404.1150 568.0050Q403.0800 570.6600 402.9000 573.4500L402.9000 573.4500Q402.8100 575.0700 402.8100 576.8700Q402.8100 578.6700 402.9000 580.3800L402.9000 580.3800Q402.9900 583.0800 404.1600 585.5550Q405.3300 588.0300 407.5800 589.6500Q409.8300 591.2700 413.4300 591.2700ZM456.0900 600L448.2600 600Q447.3600 600 446.7300 599.3700Q446.1000 598.7400 446.1000 597.8400L446.1000 597.8400L446.1000 555.4500Q446.1000 554.4600 446.7300 553.8300Q447.3600 553.2000 448.2600 553.2000L448.2600 553.2000L455.5500 553.2000Q456.4500 553.2000 457.1250 553.8300Q457.8000 554.4600 457.8000 555.4500L457.8000 555.4500L457.8000 559.1400Q459.8700 556.2600 463.1550 554.7300Q466.4400 553.2000 470.7600 553.2000L470.7600 553.2000L474.4500 553.2000Q475.4400 553.2000 476.0250 553.8300Q476.6100 554.4600 476.6100 555.3600L476.6100 555.3600L476.6100 561.8400Q476.6100 562.7400 476.0250 563.3700Q475.4400 564 474.4500 564L474.4500 564L467.4300 564Q463.1100 564 460.7250 566.3850Q458.3400 568.7700 458.3400 573.0900L458.3400 573.0900L458.3400 597.8400Q458.3400 598.7400 457.7100 599.3700Q457.0800 600 456.0900 600L456.0900 600ZM497.2200 600.9000L497.2200 600.9000Q492.5400 600.9000 488.7600 599.0550Q484.9800 597.2100 482.7750 594.1050Q480.5700 591 480.5700 587.1300L480.5700 587.1300Q480.5700 580.8300 485.7000 577.0950Q490.8300 573.3600 499.1100 572.1000L499.1100 572.1000L511.4400 570.3000L511.4400 568.4100Q511.4400 564.6300 509.5500 562.5600Q507.6600 560.4900 503.0700 560.4900L503.0700 560.4900Q499.8300 560.4900 497.8050 561.7950Q495.7800 563.1000 494.7900 565.2600L494.7900 565.2600Q494.0700 566.4300 492.7200 566.4300L492.7200 566.4300L485.6100 566.4300Q484.6200 566.4300 484.1250 565.8900Q483.6300 565.3500 483.6300 564.4500L483.6300 564.4500Q483.7200 563.0100 484.8450 560.9400Q485.9700 558.8700 488.2650 556.9350Q490.5600 555 494.2500 553.6500Q497.9400 552.3000 503.1600 552.3000L503.1600 552.3000Q508.8300 552.3000 512.7450 553.6950Q516.6600 555.0900 519.0000 557.4300Q521.3400 559.7700 522.4200 562.9200Q523.5000 566.0700 523.5000 569.5800L523.5000 569.5800L523.5000 597.8400Q523.5000 598.7400 522.8700 599.3700Q522.2400 600 521.3400 600L521.3400 600L514.0500 600Q513.0600 600 512.4750 599.3700Q511.8900 598.7400 511.8900 597.8400L511.8900 597.8400L511.8900 594.3300Q510.7200 595.9500 508.7400 597.4800Q506.7600 599.0100 503.9250 599.9550Q501.0900 600.9000 497.2200 600.9000ZM500.2800 592.3500L500.2800 592.3500Q503.4300 592.3500 505.9950 591Q508.5600 589.6500 510.0450 586.8150Q511.5300 583.9800 511.5300 579.6600L511.5300 579.6600L511.5300 577.7700L502.5300 579.2100Q497.2200 580.0200 494.6100 581.8200Q492.0000 583.6200 492.0000 586.2300L492.0000 586.2300Q492.0000 588.2100 493.2150 589.6050Q494.4300 591 496.3200 591.6750Q498.2100 592.3500 500.2800 592.3500ZM504.8700 546.4500L499.3800 546.4500Q497.9400 546.4500 497.9400 545.0100L497.9400 545.0100Q497.9400 544.2900 498.3900 543.8400L498.3900 543.8400L505.6800 534.9300Q506.5800 533.9400 507.2100 533.6250Q507.8400 533.3100 509.0100 533.3100L509.0100 533.3100L518.0100 533.3100Q519.7200 533.3100 519.7200 535.0200L519.7200 535.0200Q519.7200 535.6500 519.2700 536.1000L519.2700 536.1000L508.1100 545.2800Q507.3900 545.9100 506.7150 546.1800Q506.0400 546.4500 504.8700 546.4500L504.8700 546.4500ZM563.4600 600L556.1700 600Q550.7700 600 547.0800 598.1100Q543.3900 596.2200 541.5900 592.4850Q539.7900 588.7500 539.7900 583.1700L539.7900 583.1700L539.7900 562.7400L532.6800 562.7400Q531.7800 562.7400 531.1500 562.1100Q530.5200 561.4800 530.5200 560.4900L530.5200 560.4900L530.5200 555.3600Q530.5200 554.4600 531.1500 553.8300Q531.7800 553.2000 532.6800 553.2000L532.6800 553.2000L539.7900 553.2000L539.7900 538.2600Q539.7900 537.3600 540.3750 536.7300Q540.9600 536.1000 541.9500 536.1000L541.9500 536.1000L549.2400 536.1000Q550.1400 536.1000 550.7700 536.7300Q551.4000 537.3600 551.4000 538.2600L551.4000 538.2600L551.4000 553.2000L562.6500 553.2000Q563.5500 553.2000 564.1800 553.8300Q564.8100 554.4600 564.8100 555.3600L564.8100 555.3600L564.8100 560.4900Q564.8100 561.4800 564.1800 562.1100Q563.5500 562.7400 562.6500 562.7400L562.6500 562.7400L551.4000 562.7400L551.4000 582.2700Q551.4000 585.9600 552.7050 588.0300Q554.0100 590.1000 557.2500 590.1000L557.2500 590.1000L563.4600 590.1000Q564.3600 590.1000 564.9900 590.7300Q565.6200 591.3600 565.6200 592.2600L565.6200 592.2600L565.6200 597.8400Q565.6200 598.7400 564.9900 599.3700Q564.3600 600 563.4600 600L563.4600 600ZM583.2600 600L575.7900 600Q574.8900 600 574.2600 599.3700Q573.6300 598.7400 573.6300 597.8400L573.6300 597.8400L573.6300 555.3600Q573.6300 554.4600 574.2600 553.8300Q574.8900 553.2000 575.7900 553.2000L575.7900 553.2000L583.2600 553.2000Q584.2500 553.2000 584.8350 553.8300Q585.4200 554.4600 585.4200 555.3600L585.4200 555.3600L585.4200 597.8400Q585.4200 598.7400 584.8350 599.3700Q584.2500 600 583.2600 600L583.2600 600ZM583.6200 545.4600L575.4300 545.4600Q574.5300 545.4600 573.9000 544.8300Q573.2700 544.2000 573.2700 543.3000L573.2700 543.3000L573.2700 536.8200Q573.2700 535.9200 573.9000 535.2900Q574.5300 534.6600 575.4300 534.6600L575.4300 534.6600L583.6200 534.6600Q584.6100 534.6600 585.2400 535.2900Q585.8700 535.9200 585.8700 536.8200L585.8700 536.8200L585.8700 543.3000Q585.8700 544.2000 585.2400 544.8300Q584.6100 545.4600 583.6200 545.4600L583.6200 545.4600ZM617.6400 600.9000L617.6400 600.9000Q611.1600 600.9000 606.2550 598.4700Q601.3500 596.0400 598.6050 591.4050Q595.8600 586.7700 595.5900 580.2000L595.5900 580.2000Q595.5000 578.8500 595.5000 576.6450Q595.5000 574.4400 595.5900 573L595.5900 573Q595.8600 566.4300 598.6050 561.7950Q601.3500 557.1600 606.2550 554.7300Q611.1600 552.3000 617.6400 552.3000L617.6400 552.3000Q623.4000 552.3000 627.4500 553.8750Q631.5000 555.4500 634.1100 557.9250Q636.7200 560.4000 638.0250 563.0550Q639.3300 565.7100 639.4200 567.8700L639.4200 567.8700Q639.5100 568.8600 638.8350 569.4450Q638.1600 570.0300 637.2600 570.0300L637.2600 570.0300L629.3400 570.0300Q628.4400 570.0300 627.9450 569.5800Q627.4500 569.1300 627.0000 568.2300L627.0000 568.2300Q625.6500 564.6300 623.4450 563.1450Q621.2400 561.6600 617.8200 561.6600L617.8200 561.6600Q613.3200 561.6600 610.6650 564.4950Q608.0100 567.3300 607.8300 573.4500L607.8300 573.4500Q607.6500 576.8700 607.8300 579.7500L607.8300 579.7500Q608.0100 585.9600 610.6650 588.7500Q613.3200 591.5400 617.8200 591.5400L617.8200 591.5400Q621.3300 591.5400 623.4900 590.0550Q625.6500 588.5700 627.0000 584.9700L627.0000 584.9700Q627.4500 584.0700 627.9450 583.6200Q628.4400 583.1700 629.3400 583.1700L629.3400 583.1700L637.2600 583.1700Q638.1600 583.1700 638.8350 583.7550Q639.5100 584.3400 639.4200 585.3300L639.4200 585.3300Q639.3300 586.9500 638.5650 588.9750Q637.8000 591 636.1350 593.1150Q634.4700 595.2300 631.9500 596.9850Q629.4300 598.7400 625.8750 599.8200Q622.3200 600.9000 617.6400 600.9000ZM662.3700 600.9000L662.3700 600.9000Q657.6900 600.9000 653.9100 599.0550Q650.1300 597.2100 647.9250 594.1050Q645.7200 591 645.7200 587.1300L645.7200 587.1300Q645.7200 580.8300 650.8500 577.0950Q655.9800 573.3600 664.2600 572.1000L664.2600 572.1000L676.5900 570.3000L676.5900 568.4100Q676.5900 564.6300 674.7000 562.5600Q672.8100 560.4900 668.2200 560.4900L668.2200 560.4900Q664.9800 560.4900 662.9550 561.7950Q660.9300 563.1000 659.9400 565.2600L659.9400 565.2600Q659.2200 566.4300 657.8700 566.4300L657.8700 566.4300L650.7600 566.4300Q649.7700 566.4300 649.2750 565.8900Q648.7800 565.3500 648.7800 564.4500L648.7800 564.4500Q648.8700 563.0100 649.9950 560.9400Q651.1200 558.8700 653.4150 556.9350Q655.7100 555 659.4000 553.6500Q663.0900 552.3000 668.3100 552.3000L668.3100 552.3000Q673.9800 552.3000 677.8950 553.6950Q681.8100 555.0900 684.1500 557.4300Q686.4900 559.7700 687.5700 562.9200Q688.6500 566.0700 688.6500 569.5800L688.6500 569.5800L688.6500 597.8400Q688.6500 598.7400 688.0200 599.3700Q687.3900 600 686.4900 600L686.4900 600L679.2000 600Q678.2100 600 677.6250 599.3700Q677.0400 598.7400 677.0400 597.8400L677.0400 597.8400L677.0400 594.3300Q675.8700 595.9500 673.8900 597.4800Q671.9100 599.0100 669.0750 599.9550Q666.2400 600.9000 662.3700 600.9000ZM665.4300 592.3500L665.4300 592.3500Q668.5800 592.3500 671.1450 591Q673.7100 589.6500 675.1950 586.8150Q676.6800 583.9800 676.6800 579.6600L676.6800 579.6600L676.6800 577.7700L667.6800 579.2100Q662.3700 580.0200 659.7600 581.8200Q657.1500 583.6200 657.1500 586.2300L657.1500 586.2300Q657.1500 588.2100 658.3650 589.6050Q659.5800 591 661.4700 591.6750Q663.3600 592.3500 665.4300 592.3500ZM717.9000 600.9000L717.9000 600.9000Q712.5000 600.9000 708.6750 599.6400Q704.8500 598.3800 702.4200 596.4900Q699.9900 594.6000 698.8200 592.7100Q697.6500 590.8200 697.5600 589.5600L697.5600 589.5600Q697.4700 588.5700 698.1450 587.9850Q698.8200 587.4000 699.6300 587.4000L699.6300 587.4000L706.7400 587.4000Q707.1000 587.4000 707.3700 587.4900Q707.6400 587.5800 708.0900 588.0300L708.0900 588.0300Q709.2600 589.0200 710.5650 590.1000Q711.8700 591.1800 713.6700 591.9450Q715.4700 592.7100 718.1700 592.7100L718.1700 592.7100Q721.6800 592.7100 724.0650 591.3150Q726.4500 589.9200 726.4500 587.3100L726.4500 587.3100Q726.4500 585.4200 725.4150 584.2500Q724.3800 583.0800 721.5900 582.1350Q718.8000 581.1900 713.6700 580.1100L713.6700 580.1100Q708.6300 578.9400 705.3000 577.1400Q701.9700 575.3400 700.3500 572.6400Q698.7300 569.9400 698.7300 566.3400L698.7300 566.3400Q698.7300 562.8300 700.8450 559.6350Q702.9600 556.4400 707.1450 554.3700Q711.3300 552.3000 717.5400 552.3000L717.5400 552.3000Q722.4000 552.3000 726.0000 553.5150Q729.6000 554.7300 731.9850 556.5300Q734.3700 558.3300 735.6300 560.1750Q736.8900 562.0200 736.9800 563.3700L736.9800 563.3700Q737.0700 564.3600 736.4400 564.9450Q735.8100 565.5300 735.0000 565.5300L735.0000 565.5300L728.3400 565.5300Q727.8900 565.5300 727.5300 565.3500Q727.1700 565.1700 726.8100 564.9000L726.8100 564.9000Q725.8200 564 724.6500 562.9650Q723.4800 561.9300 721.8150 561.2100Q720.1500 560.4900 717.4500 560.4900L717.4500 560.4900Q714.0300 560.4900 712.2300 561.9750Q710.4300 563.4600 710.4300 565.7100L710.4300 565.7100Q710.4300 567.2400 711.2850 568.3650Q712.1400 569.4900 714.7500 570.4800Q717.3600 571.4700 722.6700 572.5500L722.6700 572.5500Q728.7000 573.6300 732.2550 575.7450Q735.8100 577.8600 737.2950 580.6050Q738.7800 583.3500 738.7800 586.6800L738.7800 586.6800Q738.7800 590.7300 736.3950 593.9700Q734.0100 597.2100 729.3750 599.0550Q724.7400 600.9000 717.9000 600.9000ZM786.0300 600.9000L786.0300 600.9000Q781.3500 600.9000 777.7950 599.3250Q774.2400 597.7500 771.9000 594.8700Q769.5600 591.9900 768.3000 588.0750Q767.0400 584.1600 766.8600 579.4800L766.8600 579.4800Q766.7700 577.8600 766.7700 576.5550Q766.7700 575.2500 766.8600 573.6300L766.8600 573.6300Q767.0400 569.1300 768.2550 565.2600Q769.4700 561.3900 771.8550 558.4650Q774.2400 555.5400 777.7950 553.9200Q781.3500 552.3000 786.0300 552.3000L786.0300 552.3000Q790.8900 552.3000 794.2650 553.9650Q797.6400 555.6300 799.8900 558.2400L799.8900 558.2400L799.8900 538.2600Q799.8900 537.3600 800.4750 536.7300Q801.0600 536.1000 802.0500 536.1000L802.0500 536.1000L809.7000 536.1000Q810.6000 536.1000 811.2300 536.7300Q811.8600 537.3600 811.8600 538.2600L811.8600 538.2600L811.8600 597.8400Q811.8600 598.7400 811.2300 599.3700Q810.6000 600 809.7000 600L809.7000 600L802.5900 600Q801.6000 600 801.0150 599.3700Q800.4300 598.7400 800.4300 597.8400L800.4300 597.8400L800.4300 594.5100Q798.1800 597.3000 794.7150 599.1000Q791.2500 600.9000 786.0300 600.9000ZM789.3600 591.2700L789.3600 591.2700Q793.1400 591.2700 795.3900 589.5600Q797.6400 587.8500 798.7200 585.1950Q799.8000 582.5400 799.8900 579.7500L799.8900 579.7500Q799.9800 578.1300 799.9800 576.2850Q799.9800 574.4400 799.8900 572.8200L799.8900 572.8200Q799.8000 570.1200 798.6300 567.6450Q797.4600 565.1700 795.2100 563.5500Q792.9600 561.9300 789.3600 561.9300L789.3600 561.9300Q785.5800 561.9300 783.3750 563.5950Q781.1700 565.2600 780.1800 567.9600Q779.1900 570.6600 779.0100 573.9000L779.0100 573.9000Q778.9200 576.6000 779.0100 579.3000L779.0100 579.3000Q779.1900 582.5400 780.1800 585.2400Q781.1700 587.9400 783.3750 589.6050Q785.5800 591.2700 789.3600 591.2700ZM843.9900 600.9000L843.9900 600.9000Q834.0000 600.9000 828.1500 595.1400Q822.3000 589.3800 821.8500 578.7600L821.8500 578.7600Q821.7600 577.8600 821.7600 576.4650Q821.7600 575.0700 821.8500 574.2600L821.8500 574.2600Q822.2100 567.4200 824.9550 562.5150Q827.7000 557.6100 832.5600 554.9550Q837.4200 552.3000 843.9900 552.3000L843.9900 552.3000Q851.2800 552.3000 856.2300 555.3150Q861.1800 558.3300 863.7000 563.6850Q866.2200 569.0400 866.2200 576.0600L866.2200 576.0600L866.2200 577.9500Q866.2200 578.8500 865.5900 579.4800Q864.9600 580.1100 863.9700 580.1100L863.9700 580.1100L834.0900 580.1100Q834.0900 580.1100 834.0900 580.3800Q834.0900 580.6500 834.0900 580.8300L834.0900 580.8300Q834.1800 583.9800 835.3050 586.6350Q836.4300 589.2900 838.6350 590.9100Q840.8400 592.5300 843.9000 592.5300L843.9000 592.5300Q846.4200 592.5300 848.1300 591.7650Q849.8400 591 850.9200 590.0100Q852.0000 589.0200 852.4500 588.3900L852.4500 588.3900Q853.2600 587.3100 853.7550 587.0850Q854.2500 586.8600 855.2400 586.8600L855.2400 586.8600L862.9800 586.8600Q863.8800 586.8600 864.4650 587.4000Q865.0500 587.9400 864.9600 588.7500L864.9600 588.7500Q864.8700 590.1900 863.4750 592.2600Q862.0800 594.3300 859.4700 596.3100Q856.8600 598.2900 852.9450 599.5950Q849.0300 600.9000 843.9900 600.9000ZM834.0900 572.2800L834.0900 572.5500L853.9800 572.5500L853.9800 572.2800Q853.9800 568.7700 852.8100 566.1150Q851.6400 563.4600 849.3900 561.9750Q847.1400 560.4900 843.9900 560.4900L843.9900 560.4900Q840.8400 560.4900 838.5900 561.9750Q836.3400 563.4600 835.2150 566.1150Q834.0900 568.7700 834.0900 572.2800L834.0900 572.2800ZM921.7500 600.9000L921.7500 600.9000Q913.3800 600.9000 907.5750 597.9750Q901.7700 595.0500 898.7100 589.6050Q895.6500 584.1600 895.2900 576.5100L895.2900 576.5100Q895.2000 572.8200 895.2000 568.5900Q895.2000 564.3600 895.2900 560.4900L895.2900 560.4900Q895.6500 552.9300 898.7550 547.4400Q901.8600 541.9500 907.6650 539.0250Q913.4700 536.1000 921.7500 536.1000L921.7500 536.1000Q927.8700 536.1000 932.7300 537.7200Q937.5900 539.3400 941.0100 542.1750Q944.4300 545.0100 946.3200 548.7900Q948.2100 552.5700 948.3000 556.9800L948.3000 556.9800Q948.3900 557.7900 947.8050 558.3300Q947.2200 558.8700 946.4100 558.8700L946.4100 558.8700L937.8600 558.8700Q936.8700 558.8700 936.2400 558.3750Q935.6100 557.8800 935.3400 556.7100L935.3400 556.7100Q933.9000 550.7700 930.3900 548.6100Q926.8800 546.4500 921.6600 546.4500L921.6600 546.4500Q915.6300 546.4500 912.0300 549.8250Q908.4300 553.2000 908.1600 560.9400L908.1600 560.9400Q907.8900 568.3200 908.1600 576.0600L908.1600 576.0600Q908.4300 583.8000 912.0300 587.1750Q915.6300 590.5500 921.6600 590.5500L921.6600 590.5500Q926.8800 590.5500 930.4350 588.3450Q933.9900 586.1400 935.3400 580.2900L935.3400 580.2900Q935.6100 579.0300 936.2400 578.5800Q936.8700 578.1300 937.8600 578.1300L937.8600 578.1300L946.4100 578.1300Q947.2200 578.1300 947.8050 578.6700Q948.3900 579.2100 948.3000 580.0200L948.3000 580.0200Q948.2100 584.4300 946.3200 588.2100Q944.4300 591.9900 941.0100 594.8250Q937.5900 597.6600 932.7300 599.2800Q927.8700 600.9000 921.7500 600.9000ZM980.8800 600.9000L980.8800 600.9000Q972.5100 600.9000 966.8850 598.4250Q961.2600 595.9500 958.3350 591.9450Q955.4100 587.9400 955.2300 583.5300L955.2300 583.5300Q955.2300 582.7200 955.7700 582.1800Q956.3100 581.6400 957.1200 581.6400L957.1200 581.6400L965.1300 581.6400Q966.3000 581.6400 966.8850 582.1350Q967.4700 582.6300 967.9200 583.3500L967.9200 583.3500Q968.4600 585.0600 969.9900 586.7250Q971.5200 588.3900 974.1750 589.4700Q976.8300 590.5500 980.8800 590.5500L980.8800 590.5500Q987.3600 590.5500 990.5550 588.3900Q993.7500 586.2300 993.7500 582.5400L993.7500 582.5400Q993.7500 579.9300 992.0400 578.3550Q990.3300 576.7800 986.7750 575.4750Q983.2200 574.1700 977.3700 572.7300L977.3700 572.7300Q970.6200 571.1100 966.0750 568.8150Q961.5300 566.5200 959.2350 563.0100Q956.9400 559.5000 956.9400 554.1000L956.9400 554.1000Q956.9400 548.8800 959.7750 544.8300Q962.6100 540.7800 967.8750 538.4400Q973.1400 536.1000 980.4300 536.1000L980.4300 536.1000Q986.2800 536.1000 990.7800 537.6750Q995.2800 539.2500 998.2500 541.8150Q1001.2200 544.3800 1002.7950 547.3050Q1004.3700 550.2300 1004.4600 553.0200L1004.4600 553.0200Q1004.4600 553.7400 1003.9650 554.3250Q1003.4700 554.9100 1002.5700 554.9100L1002.5700 554.9100L994.2000 554.9100Q993.4800 554.9100 992.7600 554.5500Q992.0400 554.1900 991.5900 553.2000L991.5900 553.2000Q991.0500 550.4100 988.0800 548.4300Q985.1100 546.4500 980.4300 546.4500L980.4300 546.4500Q975.5700 546.4500 972.6000 548.2500Q969.6300 550.0500 969.6300 553.8300L969.6300 553.8300Q969.6300 556.3500 971.1150 558.0150Q972.6000 559.6800 975.8850 560.9400Q979.1700 562.2000 984.5700 563.6400L984.5700 563.6400Q992.2200 565.3500 997.0800 567.6000Q1001.9400 569.8500 1004.1900 573.3150Q1006.4400 576.7800 1006.4400 582.0900L1006.4400 582.0900Q1006.4400 588.0300 1003.2450 592.2150Q1000.0500 596.4000 994.2900 598.6500Q988.5300 600.9000 980.8800 600.9000ZM1038.6600 600.9000L1038.6600 600.9000Q1030.2900 600.9000 1024.6650 598.4250Q1019.0400 595.9500 1016.1150 591.9450Q1013.1900 587.9400 1013.0100 583.5300L1013.0100 583.5300Q1013.0100 582.7200 1013.5500 582.1800Q1014.0900 581.6400 1014.9000 581.6400L1014.9000 581.6400L1022.9100 581.6400Q1024.0800 581.6400 1024.6650 582.1350Q1025.2500 582.6300 1025.7000 583.3500L1025.7000 583.3500Q1026.2400 585.0600 1027.7700 586.7250Q1029.3000 588.3900 1031.9550 589.4700Q1034.6100 590.5500 1038.6600 590.5500L1038.6600 590.5500Q1045.1400 590.5500 1048.3350 588.3900Q1051.5300 586.2300 1051.5300 582.5400L1051.5300 582.5400Q1051.5300 579.9300 1049.8200 578.3550Q1048.1100 576.7800 1044.5550 575.4750Q1041.0000 574.1700 1035.1500 572.7300L1035.1500 572.7300Q1028.4000 571.1100 1023.8550 568.8150Q1019.3100 566.5200 1017.0150 563.0100Q1014.7200 559.5000 1014.7200 554.1000L1014.7200 554.1000Q1014.7200 548.8800 1017.5550 544.8300Q1020.3900 540.7800 1025.6550 538.4400Q1030.9200 536.1000 1038.2100 536.1000L1038.2100 536.1000Q1044.0600 536.1000 1048.5600 537.6750Q1053.0600 539.2500 1056.0300 541.8150Q1059.0000 544.3800 1060.5750 547.3050Q1062.1500 550.2300 1062.2400 553.0200L1062.2400 553.0200Q1062.2400 553.7400 1061.7450 554.3250Q1061.2500 554.9100 1060.3500 554.9100L1060.3500 554.9100L1051.9800 554.9100Q1051.2600 554.9100 1050.5400 554.5500Q1049.8200 554.1900 1049.3700 553.2000L1049.3700 553.2000Q1048.8300 550.4100 1045.8600 548.4300Q1042.8900 546.4500 1038.2100 546.4500L1038.2100 546.4500Q1033.3500 546.4500 1030.3800 548.2500Q1027.4100 550.0500 1027.4100 553.8300L1027.4100 553.8300Q1027.4100 556.3500 1028.8950 558.0150Q1030.3800 559.6800 1033.6650 560.9400Q1036.9500 562.2000 1042.3500 563.6400L1042.3500 563.6400Q1050.0000 565.3500 1054.8600 567.6000Q1059.7200 569.8500 1061.9700 573.3150Q1064.2200 576.7800 1064.2200 582.0900L1064.2200 582.0900Q1064.2200 588.0300 1061.0250 592.2150Q1057.8300 596.4000 1052.0700 598.6500Q1046.3100 600.9000 1038.6600 600.9000Z" id="title"/><path d="M1408.9600 640L1388.9400 640Q1386.5200 640 1385.0900 638.4600Q1383.6600 636.9200 1383.6600 634.7200L1383.6600 634.7200L1383.6600 520.7600L1350.2200 546.5000Q1348.2400 547.8200 1346.2600 547.4900Q1344.2800 547.1600 1342.7400 545.1800L1342.7400 545.1800L1333.5000 533.3000Q1332.1800 531.3200 1332.5100 529.1200Q1332.8400 526.9200 1334.8200 525.6000L1334.8200 525.6000L1384.1000 487.5400Q1385.4200 486.4400 1386.7400 486.2200Q1388.0600 486 1389.6000 486L1389.6000 486L1408.9600 486Q1411.1600 486 1412.7000 487.5400Q1414.2400 489.0800 1414.2400 491.2800L1414.2400 491.2800L1414.2400 634.7200Q1414.2400 636.9200 1412.7000 638.4600Q1411.1600 640 1408.9600 640L1408.9600 640ZM1490.8000 640L1470.3400 640Q1468.3600 640 1467.0400 638.5700Q1465.7200 637.1400 1465.7200 635.1600L1465.7200 635.1600Q1465.7200 634.0600 1466.0500 633.4000Q1466.3800 632.7400 1466.6000 632.3000L1466.6000 632.3000L1498.9400 587.6400Q1494.7600 588.7400 1489.9200 588.5200L1489.9200 588.5200Q1478.7000 588.3000 1469.1300 584.2300Q1459.5600 580.1600 1452.4100 573.2300Q1445.2600 566.3000 1441.1900 557.1700Q1437.1200 548.0400 1437.1200 537.2600L1437.1200 537.2600Q1437.1200 527.3600 1440.8600 517.7900Q1444.6000 508.2200 1451.9700 500.5200Q1459.3400 492.8200 1470.4500 488.3100Q1481.5600 483.8000 1496.5200 483.8000L1496.5200 483.8000Q1511.2600 483.8000 1522.4800 487.9800Q1533.7000 492.1600 1541.2900 499.5300Q1548.8800 506.9000 1552.7300 516.3600Q1556.5800 525.8200 1556.5800 536.3800L1556.5800 536.3800Q1556.5800 545.8400 1553.5000 553.9800Q1550.4200 562.1200 1545.9100 568.8300Q1541.4000 575.5400 1537 581.9200L1537 581.9200L1498.2800 635.6000Q1497.4000 636.7000 1495.7500 638.3500Q1494.1000 640 1490.8000 640L1490.8000 640ZM1496.7400 565.2000L1496.7400 565.2000Q1504.6600 565.2000 1511.1500 561.7900Q1517.6400 558.3800 1521.4900 552.1100Q1525.3400 545.8400 1525.3400 537.2600L1525.3400 537.2600Q1525.3400 528.4600 1521.4900 522.1900Q1517.6400 515.9200 1511.0400 512.5100Q1504.4400 509.1000 1496.7400 509.1000L1496.7400 509.1000Q1488.8200 509.1000 1482.3300 512.5100Q1475.8400 515.9200 1471.9900 522.1900Q1468.1400 528.4600 1468.1400 537.2600L1468.1400 537.2600Q1468.1400 545.8400 1471.9900 552.1100Q1475.8400 558.3800 1482.3300 561.7900Q1488.8200 565.2000 1496.7400 565.2000ZM1593.3200 640L1571.3200 640Q1569.1200 640 1567.5800 638.4600Q1566.0400 636.9200 1566.0400 634.7200L1566.0400 634.7200L1566.0400 612.9400Q1566.0400 610.5200 1567.5800 608.9800Q1569.1200 607.4400 1571.3200 607.4400L1571.3200 607.4400L1593.3200 607.4400Q1595.5200 607.4400 1597.0600 608.9800Q1598.6000 610.5200 1598.6000 612.9400L1598.6000 612.9400L1598.6000 634.7200Q1598.6000 636.9200 1597.0600 638.4600Q1595.5200 640 1593.3200 640L1593.3200 640ZM1680.2200 642.2000L1680.2200 642.2000Q1664.8200 642.2000 1653.6000 638.4600Q1642.3800 634.7200 1635.0100 628.6700Q1627.6400 622.6200 1623.9000 615.4700Q1620.1600 608.3200 1619.9400 601.2800L1619.9400 601.2800Q1619.9400 599.3000 1621.3700 598.0900Q1622.8000 596.8800 1624.7800 596.8800L1624.7800 596.8800L1644.5800 596.8800Q1646.7800 596.8800 1648.3200 597.7600Q1649.8600 598.6400 1650.9600 601.2800L1650.9600 601.2800Q1652.9400 607.2200 1657.4500 610.7400Q1661.9600 614.2600 1667.9000 615.6900Q1673.8400 617.1200 1680.4400 617.1200L1680.4400 617.1200Q1693.6400 617.1200 1701.4500 610.8500Q1709.2600 604.5800 1709.2600 592.9200L1709.2600 592.9200Q1709.2600 581.2600 1702 576.0900Q1694.7400 570.9200 1681.7600 570.9200L1681.7600 570.9200L1659.1000 570.9200Q1656.6800 570.9200 1655.1400 569.4900Q1653.6000 568.0600 1653.6000 565.6400L1653.6000 565.6400L1653.6000 556.4000Q1653.6000 554.2000 1654.5900 552.5500Q1655.5800 550.9000 1656.6800 549.8000L1656.6800 549.8000L1696.0600 511.3000L1633.1400 511.3000Q1630.7200 511.3000 1629.2900 509.7600Q1627.8600 508.2200 1627.8600 506.0200L1627.8600 506.0200L1627.8600 491.5000Q1627.8600 489.0800 1629.2900 487.5400Q1630.7200 486 1633.1400 486L1633.1400 486L1727.5200 486Q1729.9400 486 1731.4800 487.5400Q1733.0200 489.0800 1733.0200 491.5000L1733.0200 491.5000L1733.0200 504.7000Q1733.0200 506.6800 1732.1400 508.2200Q1731.2600 509.7600 1730.1600 510.8600L1730.1600 510.8600L1692.1000 550.0200L1694.7400 550.2400Q1708.1600 551.3400 1718.6100 556.2900Q1729.0600 561.2400 1734.8900 570.7000Q1740.7200 580.1600 1740.7200 594.4600L1740.7200 594.4600Q1740.7200 609.4200 1732.9100 620.0900Q1725.1000 630.7600 1711.4600 636.4800Q1697.8200 642.2000 1680.2200 642.2000Z" id="lecture-full-number"/></g></svg>