<svg xmlns="http://www.w3.org/2000/svg" version="1.1" xmlns:xlink="http://www.w3.org/1999/xlink" xmlns:svgjs="http://svgjs.dev/svgjs" viewBox="0 0 1920 1080" id="9418cd68-5053-4dee-ba5f-1d3ac7187d01"><g><rect width="1920" height="1080" fill="#c0e6de"/></g><g fill="#e6c9be"><path d="M865 270L865 2467C258.907 2467 -232 1976.03 -232 1369.87C-232 760.965 258.907 270 865 270Z"/></g><g fill="#ffffff" opacity="0.4"><path d="M1829.66 1149.02C1826.52 1125.1 1822.11 1101.18 1817.7 1077.89L1577.22 1318.37H1660.32L1829.66 1149.02Z"/><path d="M1798.82 998.567C1793.15 977.163 1786.23 955.759 1779.3 934.984L1395.92 1319H1479.02L1798.82 998.567Z"/><path d="M1752.86 863.214C1744.68 843.698 1736.5 824.183 1727.68 805.297L1214.61 1319H1297.71L1752.86 863.214Z"/><path d="M1694.32 739.83C1684.88 722.203 1674.17 704.576 1664.1 686.949L1147.89 1203.8C1152.92 1227.72 1156.7 1251.64 1158.59 1276.19L1694.32 739.83Z"/><path d="M1625.07 627.77C1613.73 611.402 1601.77 595.664 1589.81 579.926L1098.78 1071.59C1108.22 1089.85 1117.03 1109.36 1124.59 1128.88L1625.07 627.77Z"/><path d="M1546.38 525.789C1533.79 510.68 1520.57 496.201 1506.72 482.352L1025.12 964.574C1038.35 979.053 1050.31 994.791 1061.64 1011.16L1546.38 525.789Z"/><path d="M1457.61 433.249C1443.13 420.029 1428.65 406.809 1413.54 394.219L928.802 879.589C945.17 890.92 960.908 902.881 975.387 916.101L1457.61 433.249Z"/><path d="M1358.78 350.148C1343.04 338.187 1326.67 326.855 1310.3 315.523L808.564 817.891C828.709 825.445 847.595 833.629 866.481 843.072L1358.78 350.148Z"/><path d="M1251.12 276.495C1233.5 265.793 1215.87 255.72 1198.24 246.277L659.364 785.787C684.545 787.046 709.097 790.194 733.019 795.23L1251.12 276.495Z"/><path d="M1132.14 214.166C1113.26 205.352 1093.74 197.168 1074.23 188.984L626.627 637.212V720.31L1132.14 214.166Z"/><path d="M1001.83 163.175C980.427 156.25 959.023 149.955 937.619 144.289L626 455.908V539.006L1001.83 163.175Z"/><path d="M857.666 126.035C834.373 121.628 810.451 117.851 786.529 114.074L626.627 274.605V357.703L857.666 126.035Z"/><path d="M626.626 176.396L697.134 105.889C673.841 104.629 650.548 104 626.626 104V176.396Z"/></g><g><path d="M178.635 139.281L184.422 144.246V166.626H215.704L219.958 172.147L215.69 177.397H184.422V198.795L178.635 203.747L173 198.795V144.232L178.635 139.281ZM195.554 195.68H219.406L223.397 200.915L219.143 206.45H195.554L191.7 201.342L195.554 195.68ZM196.382 138H219.129L223.383 143.52L219.129 148.77H196.659L192.115 143.677L196.382 138ZM323.155 148.628L328.251 154.291L323.155 159.968H246.13L241.172 154.291L246.13 148.628H323.155ZM237.043 172.147L241.849 167.893L246.669 172.147V178.393C246.669 188.879 249.417 197.515 261.668 197.515H264.14C275.147 197.515 281.197 189.86 281.197 177.952V172.005L285.879 167.75L290.699 171.862V178.379C290.699 189.007 293.723 196.946 305.56 196.946H307.618C319.178 196.946 321.235 187.869 321.373 177.952V171.578L326.056 167.608L331 171.72V178.094C330.862 191.838 327.285 207.574 308.032 207.574H305.974C294.552 207.574 288.365 202.324 285.892 195.808C283.006 202.466 275.299 208.286 264.844 208.286H262.358C242.553 208.286 237.194 195.964 237.056 178.663V172.147H237.043ZM276.391 274.744L273.642 267.089L280.796 264.969L305.974 276.721V252.491L311.07 248.095L316.291 252.491V281.829L325.641 286.226L328.251 293.311L320.959 296L276.391 274.744ZM321.235 223.011L328.113 226.27L325.917 233.497L264.002 263.119L256.571 260.146L259.596 252.776L321.235 223.011ZM231.905 263.404L237.954 268.512C237.402 286.51 222.403 296 204.669 296H202.874C194.062 296 183.759 292.6 177.157 286.083L177.834 278.855L184.298 278.002C189.118 282.256 195.858 285.229 202.183 285.229H204.117C216.091 285.229 225.303 280.136 226.27 268.085L231.905 263.404ZM226.256 251.638C225.704 239.16 216.629 234.209 204.103 234.209H202.169C194.739 234.209 189.104 237.182 184.284 241.436L177.834 240.583L177.143 233.355C183.745 226.696 192.957 223.58 202.597 223.58H204.517C222.403 223.58 237.402 232.942 237.94 251.211L231.891 256.176L226.256 251.638Z" fill="#000000"/></g><path d="M1171 781L1171 339L1187 339L1187 781L1171 781Z" fill="#000000"/><g fill="#000000" id="info-group"><path d="M167.3700 600L159.1800 600Q158.2800 600 157.6500 599.4150Q157.0200 598.8300 157.0200 597.8400L157.0200 597.8400L157.0200 539.2500Q157.0200 538.2600 157.6500 537.6300Q158.2800 537 159.1800 537L159.1800 537L167.3700 537Q168.3600 537 168.9450 537.6300Q169.5300 538.2600 169.5300 539.2500L169.5300 539.2500L169.5300 562.4700L196.0800 562.4700L196.0800 539.2500Q196.0800 538.2600 196.7100 537.6300Q197.3400 537 198.2400 537L198.2400 537L206.3400 537Q207.3300 537 207.9600 537.6300Q208.5900 538.2600 208.5900 539.2500L208.5900 539.2500L208.5900 597.8400Q208.5900 598.7400 207.9600 599.3700Q207.3300 600 206.3400 600L206.3400 600L198.2400 600Q197.3400 600 196.7100 599.3700Q196.0800 598.7400 196.0800 597.8400L196.0800 597.8400L196.0800 573.7200L169.5300 573.7200L169.5300 597.8400Q169.5300 598.7400 168.9450 599.3700Q168.3600 600 167.3700 600L167.3700 600ZM246.9300 600L238.6500 600Q237.7500 600 237.1200 599.3700Q236.4900 598.7400 236.4900 597.8400L236.4900 597.8400L236.4900 548.0700L219.8400 548.0700Q218.9400 548.0700 218.3100 547.4400Q217.6800 546.8100 217.6800 545.9100L217.6800 545.9100L217.6800 539.2500Q217.6800 538.2600 218.3100 537.6300Q218.9400 537 219.8400 537L219.8400 537L265.7400 537Q266.7300 537 267.3600 537.6300Q267.9900 538.2600 267.9900 539.2500L267.9900 539.2500L267.9900 545.9100Q267.9900 546.8100 267.3600 547.4400Q266.7300 548.0700 265.7400 548.0700L265.7400 548.0700L249.1800 548.0700L249.1800 597.8400Q249.1800 598.7400 248.5500 599.3700Q247.9200 600 246.9300 600L246.9300 600ZM286.8900 600L279.3300 600Q278.3400 600 277.7100 599.3700Q277.0800 598.7400 277.0800 597.8400L277.0800 597.8400L277.0800 539.2500Q277.0800 538.2600 277.7100 537.6300Q278.3400 537 279.3300 537L279.3300 537L286.4400 537Q287.7000 537 288.3300 537.6750Q288.9600 538.3500 289.1400 538.7100L289.1400 538.7100L306.5100 571.1100L324.0600 538.7100Q324.2400 538.3500 324.8700 537.6750Q325.5000 537 326.7600 537L326.7600 537L333.7800 537Q334.7700 537 335.4000 537.6300Q336.0300 538.2600 336.0300 539.2500L336.0300 539.2500L336.0300 597.8400Q336.0300 598.7400 335.4000 599.3700Q334.7700 600 333.7800 600L333.7800 600L326.2200 600Q325.2300 600 324.6450 599.3700Q324.0600 598.7400 324.0600 597.8400L324.0600 597.8400L324.0600 558.8700L311.4600 582.9000Q311.0100 583.7100 310.2900 584.2950Q309.5700 584.8800 308.4000 584.8800L308.4000 584.8800L304.7100 584.8800Q303.4500 584.8800 302.7750 584.2950Q302.1000 583.7100 301.6500 582.9000L301.6500 582.9000L289.0500 558.8700L289.0500 597.8400Q289.0500 598.7400 288.4200 599.3700Q287.7900 600 286.8900 600L286.8900 600ZM391.2900 600L352.2300 600Q351.3300 600 350.7000 599.3700Q350.0700 598.7400 350.0700 597.8400L350.0700 597.8400L350.0700 539.1600Q350.0700 538.2600 350.7000 537.6300Q351.3300 537 352.2300 537L352.2300 537L360.6000 537Q361.5000 537 362.1300 537.6300Q362.7600 538.2600 362.7600 539.1600L362.7600 539.1600L362.7600 589.2900L391.2900 589.2900Q392.2800 589.2900 392.9100 589.9200Q393.5400 590.5500 393.5400 591.5400L393.5400 591.5400L393.5400 597.8400Q393.5400 598.7400 392.9100 599.3700Q392.2800 600 391.2900 600L391.2900 600Z" id="title"/><path d="M1434.6400 652.4000L1434.6400 652.4000Q1417.8400 652.4000 1405.6000 648.3200Q1393.3600 644.2400 1385.3200 637.6400Q1377.2800 631.0400 1373.2000 623.2400Q1369.1200 615.4400 1368.8800 607.7600L1368.8800 607.7600Q1368.8800 605.6000 1370.4400 604.2800Q1372 602.9600 1374.1600 602.9600L1374.1600 602.9600L1395.7600 602.9600Q1398.1600 602.9600 1399.8400 603.9200Q1401.5200 604.8800 1402.7200 607.7600L1402.7200 607.7600Q1404.8800 614.2400 1409.8000 618.0800Q1414.7200 621.9200 1421.2000 623.4800Q1427.6800 625.0400 1434.8800 625.0400L1434.8800 625.0400Q1449.2800 625.0400 1457.8000 618.2000Q1466.3200 611.3600 1466.3200 598.6400L1466.3200 598.6400Q1466.3200 585.9200 1458.4000 580.2800Q1450.4800 574.6400 1436.3200 574.6400L1436.3200 574.6400L1411.6000 574.6400Q1408.9600 574.6400 1407.2800 573.0800Q1405.6000 571.5200 1405.6000 568.8800L1405.6000 568.8800L1405.6000 558.8000Q1405.6000 556.4000 1406.6800 554.6000Q1407.7600 552.8000 1408.9600 551.6000L1408.9600 551.6000L1451.9200 509.6000L1383.2800 509.6000Q1380.6400 509.6000 1379.0800 507.9200Q1377.5200 506.2400 1377.5200 503.8400L1377.5200 503.8400L1377.5200 488Q1377.5200 485.3600 1379.0800 483.6800Q1380.6400 482 1383.2800 482L1383.2800 482L1486.2400 482Q1488.8800 482 1490.5600 483.6800Q1492.2400 485.3600 1492.2400 488L1492.2400 488L1492.2400 502.4000Q1492.2400 504.5600 1491.2800 506.2400Q1490.3200 507.9200 1489.1200 509.1200L1489.1200 509.1200L1447.6000 551.8400L1450.4800 552.0800Q1465.1200 553.2800 1476.5200 558.6800Q1487.9200 564.0800 1494.2800 574.4000Q1500.6400 584.7200 1500.6400 600.3200L1500.6400 600.3200Q1500.6400 616.6400 1492.1200 628.2800Q1483.6000 639.9200 1468.7200 646.1600Q1453.8400 652.4000 1434.6400 652.4000ZM1555.3600 650L1531.3600 650Q1528.9600 650 1527.2800 648.3200Q1525.6000 646.6400 1525.6000 644.2400L1525.6000 644.2400L1525.6000 620.4800Q1525.6000 617.8400 1527.2800 616.1600Q1528.9600 614.4800 1531.3600 614.4800L1531.3600 614.4800L1555.3600 614.4800Q1557.7600 614.4800 1559.4400 616.1600Q1561.1200 617.8400 1561.1200 620.4800L1561.1200 620.4800L1561.1200 644.2400Q1561.1200 646.6400 1559.4400 648.3200Q1557.7600 650 1555.3600 650L1555.3600 650ZM1648.9600 652.6400L1648.9600 652.6400Q1628.3200 652.6400 1614.1600 645.8000Q1600 638.9600 1592.6800 627.9200Q1585.3600 616.8800 1584.8800 604.4000L1584.8800 604.4000Q1584.6400 602.2400 1586.2000 600.9200Q1587.7600 599.6000 1589.9200 599.6000L1589.9200 599.6000L1612.2400 599.6000Q1614.8800 599.6000 1616.6800 600.6800Q1618.4800 601.7600 1619.4400 604.4000L1619.4400 604.4000Q1621.8400 611.6000 1626.2800 616.1600Q1630.7200 620.7200 1636.6000 622.8800Q1642.4800 625.0400 1648.9600 625.0400L1648.9600 625.0400Q1657.6000 625.0400 1664.6800 621.5600Q1671.7600 618.0800 1676.0800 611.1200Q1680.4000 604.1600 1680.4000 594.0800L1680.4000 594.0800Q1680.4000 585.2000 1676.3200 578.7200Q1672.2400 572.2400 1665.1600 568.5200Q1658.0800 564.8000 1648.9600 564.8000L1648.9600 564.8000Q1642.2400 564.8000 1637.9200 566.4800Q1633.6000 568.1600 1630.6000 570.3200Q1627.6000 572.4800 1625.3200 574.1600Q1623.0400 575.8400 1620.1600 575.8400L1620.1600 575.8400L1598.0800 575.8400Q1595.9200 575.8400 1594.3600 574.2800Q1592.8000 572.7200 1592.8000 570.5600L1592.8000 570.5600L1601.2000 488.4800Q1601.4400 485.3600 1603.3600 483.6800Q1605.2800 482 1607.9200 482L1607.9200 482L1698.1600 482Q1700.5600 482 1702.2400 483.6800Q1703.9200 485.3600 1703.9200 487.7600L1703.9200 487.7600L1703.9200 503.8400Q1703.9200 506.2400 1702.2400 507.9200Q1700.5600 509.6000 1698.1600 509.6000L1698.1600 509.6000L1628.8000 509.6000L1624.9600 548.7200Q1629.2800 545.8400 1636.4800 543.2000Q1643.6800 540.5600 1656.4000 540.5600L1656.4000 540.5600Q1667.9200 540.5600 1678.3600 544.2800Q1688.8000 548 1696.9600 555.0800Q1705.1200 562.1600 1709.8000 572.1200Q1714.4800 582.0800 1714.4800 594.8000L1714.4800 594.8000Q1714.4800 612.3200 1706.3200 625.2800Q1698.1600 638.2400 1683.5200 645.4400Q1668.8800 652.6400 1648.9600 652.6400Z" id="lecture-full-number"/></g></svg>