<svg xmlns="http://www.w3.org/2000/svg" version="1.1" xmlns:xlink="http://www.w3.org/1999/xlink" xmlns:svgjs="http://svgjs.dev/svgjs" viewBox="0 0 1920 1080" id="87b523e6-4ed0-4202-9db1-e0137066ab74"><g><rect width="1920" height="1080" fill="#07393c"/></g><g fill="#3d0d2c"><path d="M865 270L865 2467C258.907 2467 -232 1976.03 -232 1369.87C-232 760.965 258.907 270 865 270Z"/></g><g fill="#ffffff" opacity="0.2"><path d="M1829.66 1149.02C1826.52 1125.1 1822.11 1101.18 1817.7 1077.89L1577.22 1318.37H1660.32L1829.66 1149.02Z"/><path d="M1798.82 998.567C1793.15 977.163 1786.23 955.759 1779.3 934.984L1395.92 1319H1479.02L1798.82 998.567Z"/><path d="M1752.86 863.214C1744.68 843.698 1736.5 824.183 1727.68 805.297L1214.61 1319H1297.71L1752.86 863.214Z"/><path d="M1694.32 739.83C1684.88 722.203 1674.17 704.576 1664.1 686.949L1147.89 1203.8C1152.92 1227.72 1156.7 1251.64 1158.59 1276.19L1694.32 739.83Z"/><path d="M1625.07 627.77C1613.73 611.402 1601.77 595.664 1589.81 579.926L1098.78 1071.59C1108.22 1089.85 1117.03 1109.36 1124.59 1128.88L1625.07 627.77Z"/><path d="M1546.38 525.789C1533.79 510.68 1520.57 496.201 1506.72 482.352L1025.12 964.574C1038.35 979.053 1050.31 994.791 1061.64 1011.16L1546.38 525.789Z"/><path d="M1457.61 433.249C1443.13 420.029 1428.65 406.809 1413.54 394.219L928.802 879.589C945.17 890.92 960.908 902.881 975.387 916.101L1457.61 433.249Z"/><path d="M1358.78 350.148C1343.04 338.187 1326.67 326.855 1310.3 315.523L808.564 817.891C828.709 825.445 847.595 833.629 866.481 843.072L1358.78 350.148Z"/><path d="M1251.12 276.495C1233.5 265.793 1215.87 255.72 1198.24 246.277L659.364 785.787C684.545 787.046 709.097 790.194 733.019 795.23L1251.12 276.495Z"/><path d="M1132.14 214.166C1113.26 205.352 1093.74 197.168 1074.23 188.984L626.627 637.212V720.31L1132.14 214.166Z"/><path d="M1001.83 163.175C980.427 156.25 959.023 149.955 937.619 144.289L626 455.908V539.006L1001.83 163.175Z"/><path d="M857.666 126.035C834.373 121.628 810.451 117.851 786.529 114.074L626.627 274.605V357.703L857.666 126.035Z"/><path d="M626.626 176.396L697.134 105.889C673.841 104.629 650.548 104 626.626 104V176.396Z"/></g><g><path d="M178.635 139.281L184.422 144.246V166.626H215.704L219.958 172.147L215.69 177.397H184.422V198.795L178.635 203.747L173 198.795V144.232L178.635 139.281ZM195.554 195.68H219.406L223.397 200.915L219.143 206.45H195.554L191.7 201.342L195.554 195.68ZM196.382 138H219.129L223.383 143.52L219.129 148.77H196.659L192.115 143.677L196.382 138ZM323.155 148.628L328.251 154.291L323.155 159.968H246.13L241.172 154.291L246.13 148.628H323.155ZM237.043 172.147L241.849 167.893L246.669 172.147V178.393C246.669 188.879 249.417 197.515 261.668 197.515H264.14C275.147 197.515 281.197 189.86 281.197 177.952V172.005L285.879 167.75L290.699 171.862V178.379C290.699 189.007 293.723 196.946 305.56 196.946H307.618C319.178 196.946 321.235 187.869 321.373 177.952V171.578L326.056 167.608L331 171.72V178.094C330.862 191.838 327.285 207.574 308.032 207.574H305.974C294.552 207.574 288.365 202.324 285.892 195.808C283.006 202.466 275.299 208.286 264.844 208.286H262.358C242.553 208.286 237.194 195.964 237.056 178.663V172.147H237.043ZM276.391 274.744L273.642 267.089L280.796 264.969L305.974 276.721V252.491L311.07 248.095L316.291 252.491V281.829L325.641 286.226L328.251 293.311L320.959 296L276.391 274.744ZM321.235 223.011L328.113 226.27L325.917 233.497L264.002 263.119L256.571 260.146L259.596 252.776L321.235 223.011ZM231.905 263.404L237.954 268.512C237.402 286.51 222.403 296 204.669 296H202.874C194.062 296 183.759 292.6 177.157 286.083L177.834 278.855L184.298 278.002C189.118 282.256 195.858 285.229 202.183 285.229H204.117C216.091 285.229 225.303 280.136 226.27 268.085L231.905 263.404ZM226.256 251.638C225.704 239.16 216.629 234.209 204.103 234.209H202.169C194.739 234.209 189.104 237.182 184.284 241.436L177.834 240.583L177.143 233.355C183.745 226.696 192.957 223.58 202.597 223.58H204.517C222.403 223.58 237.402 232.942 237.94 251.211L231.891 256.176L226.256 251.638Z" fill="#ffffff"/></g><path d="M1171 781L1171 339L1187 339L1187 781L1171 781Z" fill="#ffffff"/><g fill="#ffffff" id="info-group"><path d="M185.2800 600L175.3800 600Q173.9400 600 173.1300 599.2800Q172.3200 598.5600 171.9600 597.4800L171.9600 597.4800L152.7000 539.7000Q152.5200 539.2500 152.5200 538.8900L152.5200 538.8900Q152.5200 538.0800 153.0600 537.5400Q153.6000 537 154.4100 537L154.4100 537L162.3300 537Q163.5900 537 164.2650 537.6750Q164.9400 538.3500 165.1200 538.9800L165.1200 538.9800L180.3300 585.3300L195.5400 538.9800Q195.7200 538.3500 196.3950 537.6750Q197.0700 537 198.3300 537L198.3300 537L206.2500 537Q206.9700 537 207.5550 537.5400Q208.1400 538.0800 208.1400 538.8900L208.1400 538.8900Q208.1400 539.2500 207.9600 539.7000L207.9600 539.7000L188.7000 597.4800Q188.3400 598.5600 187.5300 599.2800Q186.7200 600 185.2800 600L185.2800 600ZM226.2300 600L218.7600 600Q217.8600 600 217.2300 599.3700Q216.6000 598.7400 216.6000 597.8400L216.6000 597.8400L216.6000 555.3600Q216.6000 554.4600 217.2300 553.8300Q217.8600 553.2000 218.7600 553.2000L218.7600 553.2000L226.2300 553.2000Q227.2200 553.2000 227.8050 553.8300Q228.3900 554.4600 228.3900 555.3600L228.3900 555.3600L228.3900 597.8400Q228.3900 598.7400 227.8050 599.3700Q227.2200 600 226.2300 600L226.2300 600ZM226.5900 545.4600L218.4000 545.4600Q217.5000 545.4600 216.8700 544.8300Q216.2400 544.2000 216.2400 543.3000L216.2400 543.3000L216.2400 536.8200Q216.2400 535.9200 216.8700 535.2900Q217.5000 534.6600 218.4000 534.6600L218.4000 534.6600L226.5900 534.6600Q227.5800 534.6600 228.2100 535.2900Q228.8400 535.9200 228.8400 536.8200L228.8400 536.8200L228.8400 543.3000Q228.8400 544.2000 228.2100 544.8300Q227.5800 545.4600 226.5900 545.4600L226.5900 545.4600ZM258.0900 600.9000L258.0900 600.9000Q252.6900 600.9000 248.8650 599.6400Q245.0400 598.3800 242.6100 596.4900Q240.1800 594.6000 239.0100 592.7100Q237.8400 590.8200 237.7500 589.5600L237.7500 589.5600Q237.6600 588.5700 238.3350 587.9850Q239.0100 587.4000 239.8200 587.4000L239.8200 587.4000L246.9300 587.4000Q247.2900 587.4000 247.5600 587.4900Q247.8300 587.5800 248.2800 588.0300L248.2800 588.0300Q249.4500 589.0200 250.7550 590.1000Q252.0600 591.1800 253.8600 591.9450Q255.6600 592.7100 258.3600 592.7100L258.3600 592.7100Q261.8700 592.7100 264.2550 591.3150Q266.6400 589.9200 266.6400 587.3100L266.6400 587.3100Q266.6400 585.4200 265.6050 584.2500Q264.5700 583.0800 261.7800 582.1350Q258.9900 581.1900 253.8600 580.1100L253.8600 580.1100Q248.8200 578.9400 245.4900 577.1400Q242.1600 575.3400 240.5400 572.6400Q238.9200 569.9400 238.9200 566.3400L238.9200 566.3400Q238.9200 562.8300 241.0350 559.6350Q243.1500 556.4400 247.3350 554.3700Q251.5200 552.3000 257.7300 552.3000L257.7300 552.3000Q262.5900 552.3000 266.1900 553.5150Q269.7900 554.7300 272.1750 556.5300Q274.5600 558.3300 275.8200 560.1750Q277.0800 562.0200 277.1700 563.3700L277.1700 563.3700Q277.2600 564.3600 276.6300 564.9450Q276 565.5300 275.1900 565.5300L275.1900 565.5300L268.5300 565.5300Q268.0800 565.5300 267.7200 565.3500Q267.3600 565.1700 267 564.9000L267 564.9000Q266.0100 564 264.8400 562.9650Q263.6700 561.9300 262.0050 561.2100Q260.3400 560.4900 257.6400 560.4900L257.6400 560.4900Q254.2200 560.4900 252.4200 561.9750Q250.6200 563.4600 250.6200 565.7100L250.6200 565.7100Q250.6200 567.2400 251.4750 568.3650Q252.3300 569.4900 254.9400 570.4800Q257.5500 571.4700 262.8600 572.5500L262.8600 572.5500Q268.8900 573.6300 272.4450 575.7450Q276 577.8600 277.4850 580.6050Q278.9700 583.3500 278.9700 586.6800L278.9700 586.6800Q278.9700 590.7300 276.5850 593.9700Q274.2000 597.2100 269.5650 599.0550Q264.9300 600.9000 258.0900 600.9000ZM301.8300 600.9000L301.8300 600.9000Q297.1500 600.9000 293.3700 599.0550Q289.5900 597.2100 287.3850 594.1050Q285.1800 591 285.1800 587.1300L285.1800 587.1300Q285.1800 580.8300 290.3100 577.0950Q295.4400 573.3600 303.7200 572.1000L303.7200 572.1000L316.0500 570.3000L316.0500 568.4100Q316.0500 564.6300 314.1600 562.5600Q312.2700 560.4900 307.6800 560.4900L307.6800 560.4900Q304.4400 560.4900 302.4150 561.7950Q300.3900 563.1000 299.4000 565.2600L299.4000 565.2600Q298.6800 566.4300 297.3300 566.4300L297.3300 566.4300L290.2200 566.4300Q289.2300 566.4300 288.7350 565.8900Q288.2400 565.3500 288.2400 564.4500L288.2400 564.4500Q288.3300 563.0100 289.4550 560.9400Q290.5800 558.8700 292.8750 556.9350Q295.1700 555 298.8600 553.6500Q302.5500 552.3000 307.7700 552.3000L307.7700 552.3000Q313.4400 552.3000 317.3550 553.6950Q321.2700 555.0900 323.6100 557.4300Q325.9500 559.7700 327.0300 562.9200Q328.1100 566.0700 328.1100 569.5800L328.1100 569.5800L328.1100 597.8400Q328.1100 598.7400 327.4800 599.3700Q326.8500 600 325.9500 600L325.9500 600L318.6600 600Q317.6700 600 317.0850 599.3700Q316.5000 598.7400 316.5000 597.8400L316.5000 597.8400L316.5000 594.3300Q315.3300 595.9500 313.3500 597.4800Q311.3700 599.0100 308.5350 599.9550Q305.7000 600.9000 301.8300 600.9000ZM304.8900 592.3500L304.8900 592.3500Q308.0400 592.3500 310.6050 591Q313.1700 589.6500 314.6550 586.8150Q316.1400 583.9800 316.1400 579.6600L316.1400 579.6600L316.1400 577.7700L307.1400 579.2100Q301.8300 580.0200 299.2200 581.8200Q296.6100 583.6200 296.6100 586.2300L296.6100 586.2300Q296.6100 588.2100 297.8250 589.6050Q299.0400 591 300.9300 591.6750Q302.8200 592.3500 304.8900 592.3500ZM312.7200 546.9000L312.7200 546.9000Q310.3800 546.9000 308.9400 546.1350Q307.5000 545.3700 306.2850 544.5600Q305.0700 543.7500 303.6300 543.7500L303.6300 543.7500Q302.4600 543.7500 301.9650 544.4250Q301.4700 545.1000 301.0200 545.7750Q300.5700 546.4500 299.5800 546.4500L299.5800 546.4500L295.4400 546.4500Q294.8100 546.4500 294.3600 546Q293.9100 545.5500 293.9100 544.9200L293.9100 544.9200Q293.9100 543.5700 294.4050 541.9050Q294.9000 540.2400 295.9800 538.7100Q297.0600 537.1800 298.7250 536.2350Q300.3900 535.2900 302.6400 535.2900L302.6400 535.2900Q305.0700 535.2900 306.5100 536.0550Q307.9500 536.8200 309.1650 537.6300Q310.3800 538.4400 311.8200 538.4400L311.8200 538.4400Q312.9900 538.4400 313.4850 537.7200Q313.9800 537 314.4300 536.3250Q314.8800 535.6500 315.8700 535.6500L315.8700 535.6500L320.0100 535.6500Q320.7300 535.6500 321.1350 536.1450Q321.5400 536.6400 321.5400 537.2700L321.5400 537.2700Q321.5400 538.6200 321.0450 540.2850Q320.5500 541.9500 319.4700 543.4800Q318.3900 545.0100 316.7250 545.9550Q315.0600 546.9000 312.7200 546.9000ZM360.3300 600.9000L360.3300 600.9000Q353.1300 600.9000 348.2250 598.3800Q343.3200 595.8600 340.7550 591.2700Q338.1900 586.6800 337.8300 580.5600L337.8300 580.5600Q337.7400 578.9400 337.7400 576.6000Q337.7400 574.2600 337.8300 572.6400L337.8300 572.6400Q338.1900 566.4300 340.8450 561.8850Q343.5000 557.3400 348.4050 554.8200Q353.3100 552.3000 360.3300 552.3000L360.3300 552.3000Q367.3500 552.3000 372.2550 554.8200Q377.1600 557.3400 379.8150 561.8850Q382.4700 566.4300 382.8300 572.6400L382.8300 572.6400Q382.9200 574.2600 382.9200 576.6000Q382.9200 578.9400 382.8300 580.5600L382.8300 580.5600Q382.4700 586.6800 379.9050 591.2700Q377.3400 595.8600 372.4350 598.3800Q367.5300 600.9000 360.3300 600.9000ZM360.3300 591.9900L360.3300 591.9900Q365.1000 591.9900 367.7100 588.9750Q370.3200 585.9600 370.5900 580.1100L370.5900 580.1100Q370.6800 578.7600 370.6800 576.6000Q370.6800 574.4400 370.5900 573.0900L370.5900 573.0900Q370.3200 567.2400 367.7100 564.2250Q365.1000 561.2100 360.3300 561.2100L360.3300 561.2100Q355.5600 561.2100 352.9500 564.2250Q350.3400 567.2400 350.0700 573.0900L350.0700 573.0900Q349.9800 574.4400 349.9800 576.6000Q349.9800 578.7600 350.0700 580.1100L350.0700 580.1100Q350.3400 585.9600 352.9500 588.9750Q355.5600 591.9900 360.3300 591.9900ZM422.4300 578.1300L394.8000 578.1300Q393.8100 578.1300 393.2250 577.5000Q392.6400 576.8700 392.6400 575.9700L392.6400 575.9700L392.6400 570.0300Q392.6400 569.1300 393.2250 568.5000Q393.8100 567.8700 394.8000 567.8700L394.8000 567.8700L422.4300 567.8700Q423.3300 567.8700 423.9600 568.5000Q424.5900 569.1300 424.5900 570.0300L424.5900 570.0300L424.5900 575.9700Q424.5900 576.8700 423.9600 577.5000Q423.3300 578.1300 422.4300 578.1300L422.4300 578.1300ZM461.7600 600.9000L461.7600 600.9000Q453.4800 600.9000 447.6750 598.0200Q441.8700 595.1400 438.6750 589.6950Q435.4800 584.2500 435.2100 576.6900L435.2100 576.6900Q435.1200 572.8200 435.1200 568.3650Q435.1200 563.9100 435.2100 559.9500L435.2100 559.9500Q435.4800 552.4800 438.6750 547.1700Q441.8700 541.8600 447.7650 538.9800Q453.6600 536.1000 461.7600 536.1000L461.7600 536.1000Q468.3300 536.1000 473.2800 537.8550Q478.2300 539.6100 481.5150 542.3550Q484.8000 545.1000 486.4650 548.2500Q488.1300 551.4000 488.2200 554.1000L488.2200 554.1000Q488.3100 554.9100 487.7700 555.4500Q487.2300 555.9900 486.3300 555.9900L486.3300 555.9900L477.0600 555.9900Q476.1600 555.9900 475.7100 555.6300Q475.2600 555.2700 474.9000 554.5500L474.9000 554.5500Q474.1800 552.6600 472.6500 550.8150Q471.1200 548.9700 468.5100 547.7100Q465.9000 546.4500 461.7600 546.4500L461.7600 546.4500Q455.6400 546.4500 451.9950 549.6900Q448.3500 552.9300 448.0800 560.4000L448.0800 560.4000Q447.8100 568.2300 448.0800 576.2400L448.0800 576.2400Q448.3500 583.8900 452.0850 587.2200Q455.8200 590.5500 461.9400 590.5500L461.9400 590.5500Q465.9900 590.5500 469.1850 589.1100Q472.3800 587.6700 474.2250 584.6100Q476.0700 581.5500 476.0700 576.7800L476.0700 576.7800L476.0700 573.9900L465.0900 573.9900Q464.1900 573.9900 463.5600 573.3600Q462.9300 572.7300 462.9300 571.7400L462.9300 571.7400L462.9300 566.9700Q462.9300 565.9800 463.5600 565.3500Q464.1900 564.7200 465.0900 564.7200L465.0900 564.7200L486.6000 564.7200Q487.5900 564.7200 488.1750 565.3500Q488.7600 565.9800 488.7600 566.9700L488.7600 566.9700L488.7600 576.4200Q488.7600 583.9800 485.4750 589.4700Q482.1900 594.9600 476.1150 597.9300Q470.0400 600.9000 461.7600 600.9000ZM519.3600 600.9000L519.3600 600.9000Q509.3700 600.9000 503.5200 595.1400Q497.6700 589.3800 497.2200 578.7600L497.2200 578.7600Q497.1300 577.8600 497.1300 576.4650Q497.1300 575.0700 497.2200 574.2600L497.2200 574.2600Q497.5800 567.4200 500.3250 562.5150Q503.0700 557.6100 507.9300 554.9550Q512.7900 552.3000 519.3600 552.3000L519.3600 552.3000Q526.6500 552.3000 531.6000 555.3150Q536.5500 558.3300 539.0700 563.6850Q541.5900 569.0400 541.5900 576.0600L541.5900 576.0600L541.5900 577.9500Q541.5900 578.8500 540.9600 579.4800Q540.3300 580.1100 539.3400 580.1100L539.3400 580.1100L509.4600 580.1100Q509.4600 580.1100 509.4600 580.3800Q509.4600 580.6500 509.4600 580.8300L509.4600 580.8300Q509.5500 583.9800 510.6750 586.6350Q511.8000 589.2900 514.0050 590.9100Q516.2100 592.5300 519.2700 592.5300L519.2700 592.5300Q521.7900 592.5300 523.5000 591.7650Q525.2100 591 526.2900 590.0100Q527.3700 589.0200 527.8200 588.3900L527.8200 588.3900Q528.6300 587.3100 529.1250 587.0850Q529.6200 586.8600 530.6100 586.8600L530.6100 586.8600L538.3500 586.8600Q539.2500 586.8600 539.8350 587.4000Q540.4200 587.9400 540.3300 588.7500L540.3300 588.7500Q540.2400 590.1900 538.8450 592.2600Q537.4500 594.3300 534.8400 596.3100Q532.2300 598.2900 528.3150 599.5950Q524.4000 600.9000 519.3600 600.9000ZM509.4600 572.2800L509.4600 572.5500L529.3500 572.5500L529.3500 572.2800Q529.3500 568.7700 528.1800 566.1150Q527.0100 563.4600 524.7600 561.9750Q522.5100 560.4900 519.3600 560.4900L519.3600 560.4900Q516.2100 560.4900 513.9600 561.9750Q511.7100 563.4600 510.5850 566.1150Q509.4600 568.7700 509.4600 572.2800L509.4600 572.2800ZM561.1200 600L553.2900 600Q552.3900 600 551.7600 599.3700Q551.1300 598.7400 551.1300 597.8400L551.1300 597.8400L551.1300 555.4500Q551.1300 554.4600 551.7600 553.8300Q552.3900 553.2000 553.2900 553.2000L553.2900 553.2000L560.5800 553.2000Q561.4800 553.2000 562.1550 553.8300Q562.8300 554.4600 562.8300 555.4500L562.8300 555.4500L562.8300 559.1400Q564.9000 556.2600 568.1850 554.7300Q571.4700 553.2000 575.7900 553.2000L575.7900 553.2000L579.4800 553.2000Q580.4700 553.2000 581.0550 553.8300Q581.6400 554.4600 581.6400 555.3600L581.6400 555.3600L581.6400 561.8400Q581.6400 562.7400 581.0550 563.3700Q580.4700 564 579.4800 564L579.4800 564L572.4600 564Q568.1400 564 565.7550 566.3850Q563.3700 568.7700 563.3700 573.0900L563.3700 573.0900L563.3700 597.8400Q563.3700 598.7400 562.7400 599.3700Q562.1100 600 561.1200 600L561.1200 600ZM602.2500 600.9000L602.2500 600.9000Q597.5700 600.9000 593.7900 599.0550Q590.0100 597.2100 587.8050 594.1050Q585.6000 591 585.6000 587.1300L585.6000 587.1300Q585.6000 580.8300 590.7300 577.0950Q595.8600 573.3600 604.1400 572.1000L604.1400 572.1000L616.4700 570.3000L616.4700 568.4100Q616.4700 564.6300 614.5800 562.5600Q612.6900 560.4900 608.1000 560.4900L608.1000 560.4900Q604.8600 560.4900 602.8350 561.7950Q600.8100 563.1000 599.8200 565.2600L599.8200 565.2600Q599.1000 566.4300 597.7500 566.4300L597.7500 566.4300L590.6400 566.4300Q589.6500 566.4300 589.1550 565.8900Q588.6600 565.3500 588.6600 564.4500L588.6600 564.4500Q588.7500 563.0100 589.8750 560.9400Q591.0000 558.8700 593.2950 556.9350Q595.5900 555 599.2800 553.6500Q602.9700 552.3000 608.1900 552.3000L608.1900 552.3000Q613.8600 552.3000 617.7750 553.6950Q621.6900 555.0900 624.0300 557.4300Q626.3700 559.7700 627.4500 562.9200Q628.5300 566.0700 628.5300 569.5800L628.5300 569.5800L628.5300 597.8400Q628.5300 598.7400 627.9000 599.3700Q627.2700 600 626.3700 600L626.3700 600L619.0800 600Q618.0900 600 617.5050 599.3700Q616.9200 598.7400 616.9200 597.8400L616.9200 597.8400L616.9200 594.3300Q615.7500 595.9500 613.7700 597.4800Q611.7900 599.0100 608.9550 599.9550Q606.1200 600.9000 602.2500 600.9000ZM605.3100 592.3500L605.3100 592.3500Q608.4600 592.3500 611.0250 591Q613.5900 589.6500 615.0750 586.8150Q616.5600 583.9800 616.5600 579.6600L616.5600 579.6600L616.5600 577.7700L607.5600 579.2100Q602.2500 580.0200 599.6400 581.8200Q597.0300 583.6200 597.0300 586.2300L597.0300 586.2300Q597.0300 588.2100 598.2450 589.6050Q599.4600 591 601.3500 591.6750Q603.2400 592.3500 605.3100 592.3500ZM649.7700 600L642.3000 600Q641.4000 600 640.7700 599.3700Q640.1400 598.7400 640.1400 597.8400L640.1400 597.8400L640.1400 538.2600Q640.1400 537.3600 640.7700 536.7300Q641.4000 536.1000 642.3000 536.1000L642.3000 536.1000L649.7700 536.1000Q650.6700 536.1000 651.3000 536.7300Q651.9300 537.3600 651.9300 538.2600L651.9300 538.2600L651.9300 597.8400Q651.9300 598.7400 651.3000 599.3700Q650.6700 600 649.7700 600L649.7700 600ZM713.8500 600L703.9500 600Q702.5100 600 701.7000 599.2800Q700.8900 598.5600 700.5300 597.4800L700.5300 597.4800L681.2700 539.7000Q681.0900 539.2500 681.0900 538.8900L681.0900 538.8900Q681.0900 538.0800 681.6300 537.5400Q682.1700 537 682.9800 537L682.9800 537L690.9000 537Q692.1600 537 692.8350 537.6750Q693.5100 538.3500 693.6900 538.9800L693.6900 538.9800L708.9000 585.3300L724.1100 538.9800Q724.2900 538.3500 724.9650 537.6750Q725.6400 537 726.9000 537L726.9000 537L734.8200 537Q735.5400 537 736.1250 537.5400Q736.7100 538.0800 736.7100 538.8900L736.7100 538.8900Q736.7100 539.2500 736.5300 539.7000L736.5300 539.7000L717.2700 597.4800Q716.9100 598.5600 716.1000 599.2800Q715.2900 600 713.8500 600L713.8500 600ZM762.5400 600.9000L762.5400 600.9000Q757.0500 600.9000 753.0450 598.4250Q749.0400 595.9500 746.8800 591.4050Q744.7200 586.8600 744.7200 580.6500L744.7200 580.6500L744.7200 555.3600Q744.7200 554.4600 745.3500 553.8300Q745.9800 553.2000 746.8800 553.2000L746.8800 553.2000L754.8000 553.2000Q755.7900 553.2000 756.3750 553.8300Q756.9600 554.4600 756.9600 555.3600L756.9600 555.3600L756.9600 580.1100Q756.9600 591.2700 766.7700 591.2700L766.7700 591.2700Q771.4500 591.2700 774.1950 588.3000Q776.9400 585.3300 776.9400 580.1100L776.9400 580.1100L776.9400 555.3600Q776.9400 554.4600 777.5700 553.8300Q778.2000 553.2000 779.1000 553.2000L779.1000 553.2000L787.0200 553.2000Q787.9200 553.2000 788.5500 553.8300Q789.1800 554.4600 789.1800 555.3600L789.1800 555.3600L789.1800 597.8400Q789.1800 598.7400 788.5500 599.3700Q787.9200 600 787.0200 600L787.0200 600L779.7300 600Q778.7400 600 778.1550 599.3700Q777.5700 598.7400 777.5700 597.8400L777.5700 597.8400L777.5700 594.1500Q775.1400 597.3000 771.5400 599.1000Q767.9400 600.9000 762.5400 600.9000ZM821.2200 600.9000L821.2200 600.9000Q811.2300 600.9000 805.3800 595.1400Q799.5300 589.3800 799.0800 578.7600L799.0800 578.7600Q798.9900 577.8600 798.9900 576.4650Q798.9900 575.0700 799.0800 574.2600L799.0800 574.2600Q799.4400 567.4200 802.1850 562.5150Q804.9300 557.6100 809.7900 554.9550Q814.6500 552.3000 821.2200 552.3000L821.2200 552.3000Q828.5100 552.3000 833.4600 555.3150Q838.4100 558.3300 840.9300 563.6850Q843.4500 569.0400 843.4500 576.0600L843.4500 576.0600L843.4500 577.9500Q843.4500 578.8500 842.8200 579.4800Q842.1900 580.1100 841.2000 580.1100L841.2000 580.1100L811.3200 580.1100Q811.3200 580.1100 811.3200 580.3800Q811.3200 580.6500 811.3200 580.8300L811.3200 580.8300Q811.4100 583.9800 812.5350 586.6350Q813.6600 589.2900 815.8650 590.9100Q818.0700 592.5300 821.1300 592.5300L821.1300 592.5300Q823.6500 592.5300 825.3600 591.7650Q827.0700 591 828.1500 590.0100Q829.2300 589.0200 829.6800 588.3900L829.6800 588.3900Q830.4900 587.3100 830.9850 587.0850Q831.4800 586.8600 832.4700 586.8600L832.4700 586.8600L840.2100 586.8600Q841.1100 586.8600 841.6950 587.4000Q842.2800 587.9400 842.1900 588.7500L842.1900 588.7500Q842.1000 590.1900 840.7050 592.2600Q839.3100 594.3300 836.7000 596.3100Q834.0900 598.2900 830.1750 599.5950Q826.2600 600.9000 821.2200 600.9000ZM811.3200 572.2800L811.3200 572.5500L831.2100 572.5500L831.2100 572.2800Q831.2100 568.7700 830.0400 566.1150Q828.8700 563.4600 826.6200 561.9750Q824.3700 560.4900 821.2200 560.4900L821.2200 560.4900Q818.0700 560.4900 815.8200 561.9750Q813.5700 563.4600 812.4450 566.1150Q811.3200 568.7700 811.3200 572.2800L811.3200 572.2800ZM874.4100 600.9000L874.4100 600.9000Q869.5500 600.9000 865.1850 599.6850Q860.8200 598.4700 857.4000 595.9500Q853.9800 593.4300 851.9550 589.7400Q849.9300 586.0500 849.8400 581.0100L849.8400 581.0100Q849.8400 580.2000 850.3800 579.6150Q850.9200 579.0300 851.7300 579.0300L851.7300 579.0300L860.2800 579.0300Q861.4500 579.0300 862.0350 579.6600Q862.6200 580.2900 862.9800 581.3700L862.9800 581.3700Q863.4300 584.6100 865.0500 586.6350Q866.6700 588.6600 869.1450 589.6050Q871.6200 590.5500 874.6800 590.5500L874.6800 590.5500Q880.3500 590.5500 883.3650 586.8600Q886.3800 583.1700 886.3800 576.6000L886.3800 576.6000L886.3800 547.6200L855.8700 547.6200Q854.8800 547.6200 854.2950 546.9900Q853.7100 546.3600 853.7100 545.4600L853.7100 545.4600L853.7100 539.1600Q853.7100 538.2600 854.2950 537.6300Q854.8800 537 855.8700 537L855.8700 537L897.0000 537Q897.9900 537 898.6200 537.6300Q899.2500 538.2600 899.2500 539.2500L899.2500 539.2500L899.2500 576.9600Q899.2500 584.4300 896.1450 589.8300Q893.0400 595.2300 887.5050 598.0650Q881.9700 600.9000 874.4100 600.9000ZM934.6200 600.9000L934.6200 600.9000Q926.2500 600.9000 920.6250 598.4250Q915.0000 595.9500 912.0750 591.9450Q909.1500 587.9400 908.9700 583.5300L908.9700 583.5300Q908.9700 582.7200 909.5100 582.1800Q910.0500 581.6400 910.8600 581.6400L910.8600 581.6400L918.8700 581.6400Q920.0400 581.6400 920.6250 582.1350Q921.2100 582.6300 921.6600 583.3500L921.6600 583.3500Q922.2000 585.0600 923.7300 586.7250Q925.2600 588.3900 927.9150 589.4700Q930.5700 590.5500 934.6200 590.5500L934.6200 590.5500Q941.1000 590.5500 944.2950 588.3900Q947.4900 586.2300 947.4900 582.5400L947.4900 582.5400Q947.4900 579.9300 945.7800 578.3550Q944.0700 576.7800 940.5150 575.4750Q936.9600 574.1700 931.1100 572.7300L931.1100 572.7300Q924.3600 571.1100 919.8150 568.8150Q915.2700 566.5200 912.9750 563.0100Q910.6800 559.5000 910.6800 554.1000L910.6800 554.1000Q910.6800 548.8800 913.5150 544.8300Q916.3500 540.7800 921.6150 538.4400Q926.8800 536.1000 934.1700 536.1000L934.1700 536.1000Q940.0200 536.1000 944.5200 537.6750Q949.0200 539.2500 951.9900 541.8150Q954.9600 544.3800 956.5350 547.3050Q958.1100 550.2300 958.2000 553.0200L958.2000 553.0200Q958.2000 553.7400 957.7050 554.3250Q957.2100 554.9100 956.3100 554.9100L956.3100 554.9100L947.9400 554.9100Q947.2200 554.9100 946.5000 554.5500Q945.7800 554.1900 945.3300 553.2000L945.3300 553.2000Q944.7900 550.4100 941.8200 548.4300Q938.8500 546.4500 934.1700 546.4500L934.1700 546.4500Q929.3100 546.4500 926.3400 548.2500Q923.3700 550.0500 923.3700 553.8300L923.3700 553.8300Q923.3700 556.3500 924.8550 558.0150Q926.3400 559.6800 929.6250 560.9400Q932.9100 562.2000 938.3100 563.6400L938.3100 563.6400Q945.9600 565.3500 950.8200 567.6000Q955.6800 569.8500 957.9300 573.3150Q960.1800 576.7800 960.1800 582.0900L960.1800 582.0900Q960.1800 588.0300 956.9850 592.2150Q953.7900 596.4000 948.0300 598.6500Q942.2700 600.9000 934.6200 600.9000Z" id="title"/><path d="M1448.3400 640L1343.1800 640Q1340.9800 640 1339.4400 638.4600Q1337.9000 636.9200 1337.9000 634.7200L1337.9000 634.7200L1337.9000 623.5000Q1337.9000 621.5200 1338.8900 618.7700Q1339.8800 616.0200 1343.4000 613.1600L1343.4000 613.1600L1378.1600 578.6200Q1392.6800 567.1800 1401.5900 559.1500Q1410.5000 551.1200 1414.5700 544.4100Q1418.6400 537.7000 1418.6400 531.1000L1418.6400 531.1000Q1418.6400 521.2000 1413.2500 515.0400Q1407.8600 508.8800 1396.2000 508.8800L1396.2000 508.8800Q1388.5000 508.8800 1383.2200 512.0700Q1377.9400 515.2600 1374.9700 520.5400Q1372 525.8200 1370.9000 532.2000L1370.9000 532.2000Q1370.4600 535.0600 1368.4800 536.1600Q1366.5000 537.2600 1364.5200 537.2600L1364.5200 537.2600L1344.9400 537.2600Q1342.9600 537.2600 1341.6400 535.9400Q1340.3200 534.6200 1340.3200 532.8600L1340.3200 532.8600Q1340.5400 523.4000 1344.2800 514.4900Q1348.0200 505.5800 1355.1700 498.6500Q1362.3200 491.7200 1372.6600 487.5400Q1383 483.3600 1395.9800 483.3600L1395.9800 483.3600Q1414.2400 483.3600 1426.2300 489.5200Q1438.2200 495.6800 1444.2700 506.2400Q1450.3200 516.8000 1450.3200 530L1450.3200 530Q1450.3200 540.3400 1446.3600 549.0300Q1442.4000 557.7200 1434.9200 565.7500Q1427.4400 573.7800 1416.8800 582.1400L1416.8800 582.1400L1385.6400 613.8200L1448.3400 613.8200Q1450.7600 613.8200 1452.1900 615.2500Q1453.6200 616.6800 1453.6200 619.1000L1453.6200 619.1000L1453.6200 634.7200Q1453.6200 636.9200 1452.1900 638.4600Q1450.7600 640 1448.3400 640L1448.3400 640ZM1516.1000 640L1496.0800 640Q1494.1000 640 1492.7800 638.5700Q1491.4600 637.1400 1491.4600 635.1600L1491.4600 635.1600Q1491.4600 634.2800 1491.9000 633.1800L1491.9000 633.1800L1544.9200 512.1800L1475.8400 512.1800Q1473.4200 512.1800 1471.9900 510.6400Q1470.5600 509.1000 1470.5600 506.9000L1470.5600 506.9000L1470.5600 491.5000Q1470.5600 489.0800 1471.9900 487.5400Q1473.4200 486 1475.8400 486L1475.8400 486L1572.4200 486Q1574.8400 486 1576.2700 487.5400Q1577.7000 489.0800 1577.7000 491.5000L1577.7000 491.5000L1577.7000 505.1400Q1577.7000 508.2200 1577.1500 510.3100Q1576.6000 512.4000 1575.7200 514.6000L1575.7200 514.6000L1523.1400 634.7200Q1522.4800 636.2600 1520.8300 638.1300Q1519.1800 640 1516.1000 640L1516.1000 640ZM1610.7000 640L1588.7000 640Q1586.5000 640 1584.9600 638.4600Q1583.4200 636.9200 1583.4200 634.7200L1583.4200 634.7200L1583.4200 612.9400Q1583.4200 610.5200 1584.9600 608.9800Q1586.5000 607.4400 1588.7000 607.4400L1588.7000 607.4400L1610.7000 607.4400Q1612.9000 607.4400 1614.4400 608.9800Q1615.9800 610.5200 1615.9800 612.9400L1615.9800 612.9400L1615.9800 634.7200Q1615.9800 636.9200 1614.4400 638.4600Q1612.9000 640 1610.7000 640L1610.7000 640ZM1674.5000 640L1654.4800 640Q1652.5000 640 1651.1800 638.5700Q1649.8600 637.1400 1649.8600 635.1600L1649.8600 635.1600Q1649.8600 634.2800 1650.3000 633.1800L1650.3000 633.1800L1703.3200 512.1800L1634.2400 512.1800Q1631.8200 512.1800 1630.3900 510.6400Q1628.9600 509.1000 1628.9600 506.9000L1628.9600 506.9000L1628.9600 491.5000Q1628.9600 489.0800 1630.3900 487.5400Q1631.8200 486 1634.2400 486L1634.2400 486L1730.8200 486Q1733.2400 486 1734.6700 487.5400Q1736.1000 489.0800 1736.1000 491.5000L1736.1000 491.5000L1736.1000 505.1400Q1736.1000 508.2200 1735.5500 510.3100Q1735.0000 512.4000 1734.1200 514.6000L1734.1200 514.6000L1681.5400 634.7200Q1680.8800 636.2600 1679.2300 638.1300Q1677.5800 640 1674.5000 640L1674.5000 640Z" id="lecture-full-number"/></g></svg>