<svg xmlns="http://www.w3.org/2000/svg" version="1.1" xmlns:xlink="http://www.w3.org/1999/xlink" xmlns:svgjs="http://svgjs.dev/svgjs" viewBox="0 0 1920 1080" id="9feed3ae-d141-4dae-bdab-04bed641cd52"><g><rect width="1920" height="1080" fill="#ffa3a5"/></g><g fill="#ffdc5e"><path d="M745.478 668.096L1087.28 1009.97L1200.88 896.347L859.076 554.473L745.478 668.096Z"/><path d="M858.951 554.294L517.152 896.168L630.75 1009.79L972.549 667.917L858.951 554.294Z"/><path d="M289.239 668.391L631.038 1010.27L744.636 896.643L402.837 554.769L289.239 668.391Z"/><path d="M402.706 554L60.907 895.874L174.505 1009.5L516.304 667.623L402.706 554Z"/><path d="M-166 667.682L175.799 1009.56L289.397 895.933L-52.4021 554.059L-166 667.682Z"/></g><g fill="#ffffff" opacity="0.4"><path d="M1134 160C1540.91 160 1872 491.086 1872 898C1872 1304.91 1540.91 1636 1134 1636C727.086 1635.56 396 1304.91 396 898C396 491.086 727.086 160 1134 160ZM1134 1611.31C1527.25 1611.31 1847.31 1291.25 1847.31 898C1847.31 504.753 1527.25 184.247 1134 184.247C740.753 184.247 420.247 504.312 420.247 898C420.247 1291.69 740.312 1611.31 1134 1611.31Z"/><path d="M1134 251.699C1490.22 251.699 1780.3 541.785 1780.3 898C1780.3 1254.22 1490.22 1544.3 1134 1544.3C777.785 1544.3 487.699 1254.22 487.699 898C487.699 541.785 777.344 251.699 1134 251.699ZM1134 1519.61C1476.99 1519.61 1756.05 1240.55 1756.05 897.559C1756.05 554.57 1476.99 275.947 1134 275.947C791.011 275.947 511.946 555.011 511.946 898C511.946 1240.99 791.011 1519.61 1134 1519.61Z"/><path d="M1134 342.957C1439.96 342.957 1688.6 592.043 1688.6 897.559C1688.6 1203.52 1439.52 1452.16 1134 1452.16C828.043 1452.16 579.398 1203.08 579.398 897.559C578.957 592.043 828.043 342.957 1134 342.957ZM1134 1428.35C1426.29 1428.35 1664.35 1190.29 1664.35 898C1664.35 605.71 1426.29 367.645 1134 367.645C841.71 367.645 603.645 605.71 603.645 898C603.645 1190.29 841.269 1428.35 1134 1428.35Z"/><path d="M1134 434.656C1389.26 434.656 1597.34 642.301 1597.34 898C1597.34 1153.7 1389.7 1361.34 1134 1361.34C878.742 1361.34 670.656 1153.7 670.656 898C670.656 642.301 878.301 434.656 1134 434.656ZM1134 1336.66C1376.03 1336.66 1572.66 1139.59 1572.66 898C1572.66 656.408 1375.59 459.344 1134 459.344C891.968 459.344 695.344 656.408 695.344 898C695.344 1139.59 891.968 1336.66 1134 1336.66Z"/><path d="M1134 526.354C1339 526.354 1505.65 693 1505.65 898C1505.65 1103 1339 1269.64 1134 1269.64C929 1269.64 762.355 1103 762.355 898C762.355 693 929 526.354 1134 526.354ZM1134 1244.96C1325.33 1244.96 1481.4 1089.33 1481.4 897.559C1481.4 706.225 1325.77 550.161 1134 550.161C942.667 550.161 786.602 705.785 786.602 897.559C786.602 1089.33 942.226 1244.96 1134 1244.96Z"/><path d="M1134 617.613C1288.3 617.613 1414.39 743.258 1414.39 898C1414.39 1052.74 1288.74 1178.39 1134 1178.39C979.699 1178.39 853.613 1052.74 853.613 898C853.613 743.258 979.258 617.613 1134 617.613ZM1134 1153.7C1275.08 1153.7 1389.7 1039.08 1389.7 898C1389.7 756.925 1275.08 642.301 1134 642.301C992.925 642.301 878.301 756.925 878.301 898C878.301 1039.08 992.925 1153.7 1134 1153.7Z"/><path d="M1134 709.312C1238.04 709.312 1322.69 793.957 1322.69 898C1322.69 1002.04 1238.04 1086.69 1134 1086.69C1029.96 1086.69 945.312 1002.04 945.312 898C945.312 793.957 1029.96 709.312 1134 709.312ZM1134 1062C1224.38 1062 1298.44 988.377 1298.44 897.559C1298.44 807.183 1224.82 733.118 1134 733.118C1043.62 733.118 969.559 806.742 969.559 897.559C969.559 988.377 1043.18 1062 1134 1062Z"/><path d="M1134 800.57C1187.34 800.57 1230.99 844.215 1230.99 897.56C1230.99 950.904 1187.34 994.549 1134 994.549C1080.66 994.549 1037.01 950.904 1037.01 897.56C1036.57 844.215 1080.22 800.57 1134 800.57ZM1134 970.742C1174.12 970.742 1206.74 938.119 1206.74 898C1206.74 857.882 1174.12 825.258 1134 825.258C1093.88 825.258 1061.26 857.882 1061.26 898C1061.26 938.119 1093.88 970.742 1134 970.742Z"/></g><g><path d="M178.635 139.281L184.422 144.246V166.626H215.704L219.958 172.147L215.69 177.397H184.422V198.795L178.635 203.747L173 198.795V144.232L178.635 139.281ZM195.554 195.68H219.406L223.397 200.915L219.143 206.45H195.554L191.7 201.342L195.554 195.68ZM196.382 138H219.129L223.383 143.52L219.129 148.77H196.659L192.115 143.677L196.382 138ZM323.155 148.628L328.251 154.291L323.155 159.968H246.13L241.172 154.291L246.13 148.628H323.155ZM237.043 172.147L241.849 167.893L246.669 172.147V178.393C246.669 188.879 249.417 197.515 261.668 197.515H264.14C275.147 197.515 281.197 189.86 281.197 177.952V172.005L285.879 167.75L290.699 171.862V178.379C290.699 189.007 293.723 196.946 305.56 196.946H307.618C319.178 196.946 321.235 187.869 321.373 177.952V171.578L326.056 167.608L331 171.72V178.094C330.862 191.838 327.285 207.574 308.032 207.574H305.974C294.552 207.574 288.365 202.324 285.892 195.808C283.006 202.466 275.299 208.286 264.844 208.286H262.358C242.553 208.286 237.194 195.964 237.056 178.663V172.147H237.043ZM276.391 274.744L273.642 267.089L280.796 264.969L305.974 276.721V252.491L311.07 248.095L316.291 252.491V281.829L325.641 286.226L328.251 293.311L320.959 296L276.391 274.744ZM321.235 223.011L328.113 226.27L325.917 233.497L264.002 263.119L256.571 260.146L259.596 252.776L321.235 223.011ZM231.905 263.404L237.954 268.512C237.402 286.51 222.403 296 204.669 296H202.874C194.062 296 183.759 292.6 177.157 286.083L177.834 278.855L184.298 278.002C189.118 282.256 195.858 285.229 202.183 285.229H204.117C216.091 285.229 225.303 280.136 226.27 268.085L231.905 263.404ZM226.256 251.638C225.704 239.16 216.629 234.209 204.103 234.209H202.169C194.739 234.209 189.104 237.182 184.284 241.436L177.834 240.583L177.143 233.355C183.745 226.696 192.957 223.58 202.597 223.58H204.517C222.403 223.58 237.402 232.942 237.94 251.211L231.891 256.176L226.256 251.638Z" fill="#000000"/></g><path d="M1171 781L1171 339L1187 339L1187 781L1171 781Z" fill="#000000"/><g fill="#000000" id="info-group"><path d="M185.2800 555L175.3800 555Q173.9400 555 173.1300 554.2800Q172.3200 553.5600 171.9600 552.4800L171.9600 552.4800L152.7000 494.7000Q152.5200 494.2500 152.5200 493.8900L152.5200 493.8900Q152.5200 493.0800 153.0600 492.5400Q153.6000 492 154.4100 492L154.4100 492L162.3300 492Q163.5900 492 164.2650 492.6750Q164.9400 493.3500 165.1200 493.9800L165.1200 493.9800L180.3300 540.3300L195.5400 493.9800Q195.7200 493.3500 196.3950 492.6750Q197.0700 492 198.3300 492L198.3300 492L206.2500 492Q206.9700 492 207.5550 492.5400Q208.1400 493.0800 208.1400 493.8900L208.1400 493.8900Q208.1400 494.2500 207.9600 494.7000L207.9600 494.7000L188.7000 552.4800Q188.3400 553.5600 187.5300 554.2800Q186.7200 555 185.2800 555L185.2800 555ZM236.7600 555.9000L236.7600 555.9000Q226.7700 555.9000 220.9200 550.1400Q215.0700 544.3800 214.6200 533.7600L214.6200 533.7600Q214.5300 532.8600 214.5300 531.4650Q214.5300 530.0700 214.6200 529.2600L214.6200 529.2600Q214.9800 522.4200 217.7250 517.5150Q220.4700 512.6100 225.3300 509.9550Q230.1900 507.3000 236.7600 507.3000L236.7600 507.3000Q244.0500 507.3000 249 510.3150Q253.9500 513.3300 256.4700 518.6850Q258.9900 524.0400 258.9900 531.0600L258.9900 531.0600L258.9900 532.9500Q258.9900 533.8500 258.3600 534.4800Q257.7300 535.1100 256.7400 535.1100L256.7400 535.1100L226.8600 535.1100Q226.8600 535.1100 226.8600 535.3800Q226.8600 535.6500 226.8600 535.8300L226.8600 535.8300Q226.9500 538.9800 228.0750 541.6350Q229.2000 544.2900 231.4050 545.9100Q233.6100 547.5300 236.6700 547.5300L236.6700 547.5300Q239.1900 547.5300 240.9000 546.7650Q242.6100 546 243.6900 545.0100Q244.7700 544.0200 245.2200 543.3900L245.2200 543.3900Q246.0300 542.3100 246.5250 542.0850Q247.0200 541.8600 248.0100 541.8600L248.0100 541.8600L255.7500 541.8600Q256.6500 541.8600 257.2350 542.4000Q257.8200 542.9400 257.7300 543.7500L257.7300 543.7500Q257.6400 545.1900 256.2450 547.2600Q254.8500 549.3300 252.2400 551.3100Q249.6300 553.2900 245.7150 554.5950Q241.8000 555.9000 236.7600 555.9000ZM226.8600 527.2800L226.8600 527.5500L246.7500 527.5500L246.7500 527.2800Q246.7500 523.7700 245.5800 521.1150Q244.4100 518.4600 242.1600 516.9750Q239.9100 515.4900 236.7600 515.4900L236.7600 515.4900Q233.6100 515.4900 231.3600 516.9750Q229.1100 518.4600 227.9850 521.1150Q226.8600 523.7700 226.8600 527.2800L226.8600 527.2800ZM278.5200 555L270.6900 555Q269.7900 555 269.1600 554.3700Q268.5300 553.7400 268.5300 552.8400L268.5300 552.8400L268.5300 510.4500Q268.5300 509.4600 269.1600 508.8300Q269.7900 508.2000 270.6900 508.2000L270.6900 508.2000L277.9800 508.2000Q278.8800 508.2000 279.5550 508.8300Q280.2300 509.4600 280.2300 510.4500L280.2300 510.4500L280.2300 514.1400Q282.3000 511.2600 285.5850 509.7300Q288.8700 508.2000 293.1900 508.2000L293.1900 508.2000L296.8800 508.2000Q297.8700 508.2000 298.4550 508.8300Q299.0400 509.4600 299.0400 510.3600L299.0400 510.3600L299.0400 516.8400Q299.0400 517.7400 298.4550 518.3700Q297.8700 519 296.8800 519L296.8800 519L289.8600 519Q285.5400 519 283.1550 521.3850Q280.7700 523.7700 280.7700 528.0900L280.7700 528.0900L280.7700 552.8400Q280.7700 553.7400 280.1400 554.3700Q279.5100 555 278.5200 555L278.5200 555ZM323.7900 555.9000L323.7900 555.9000Q318.3900 555.9000 314.5650 554.6400Q310.7400 553.3800 308.3100 551.4900Q305.8800 549.6000 304.7100 547.7100Q303.5400 545.8200 303.4500 544.5600L303.4500 544.5600Q303.3600 543.5700 304.0350 542.9850Q304.7100 542.4000 305.5200 542.4000L305.5200 542.4000L312.6300 542.4000Q312.9900 542.4000 313.2600 542.4900Q313.5300 542.5800 313.9800 543.0300L313.9800 543.0300Q315.1500 544.0200 316.4550 545.1000Q317.7600 546.1800 319.5600 546.9450Q321.3600 547.7100 324.0600 547.7100L324.0600 547.7100Q327.5700 547.7100 329.9550 546.3150Q332.3400 544.9200 332.3400 542.3100L332.3400 542.3100Q332.3400 540.4200 331.3050 539.2500Q330.2700 538.0800 327.4800 537.1350Q324.6900 536.1900 319.5600 535.1100L319.5600 535.1100Q314.5200 533.9400 311.1900 532.1400Q307.8600 530.3400 306.2400 527.6400Q304.6200 524.9400 304.6200 521.3400L304.6200 521.3400Q304.6200 517.8300 306.7350 514.6350Q308.8500 511.4400 313.0350 509.3700Q317.2200 507.3000 323.4300 507.3000L323.4300 507.3000Q328.2900 507.3000 331.8900 508.5150Q335.4900 509.7300 337.8750 511.5300Q340.2600 513.3300 341.5200 515.1750Q342.7800 517.0200 342.8700 518.3700L342.8700 518.3700Q342.9600 519.3600 342.3300 519.9450Q341.7000 520.5300 340.8900 520.5300L340.8900 520.5300L334.2300 520.5300Q333.7800 520.5300 333.4200 520.3500Q333.0600 520.1700 332.7000 519.9000L332.7000 519.9000Q331.7100 519 330.5400 517.9650Q329.3700 516.9300 327.7050 516.2100Q326.0400 515.4900 323.3400 515.4900L323.3400 515.4900Q319.9200 515.4900 318.1200 516.9750Q316.3200 518.4600 316.3200 520.7100L316.3200 520.7100Q316.3200 522.2400 317.1750 523.3650Q318.0300 524.4900 320.6400 525.4800Q323.2500 526.4700 328.5600 527.5500L328.5600 527.5500Q334.5900 528.6300 338.1450 530.7450Q341.7000 532.8600 343.1850 535.6050Q344.6700 538.3500 344.6700 541.6800L344.6700 541.6800Q344.6700 545.7300 342.2850 548.9700Q339.9000 552.2100 335.2650 554.0550Q330.6300 555.9000 323.7900 555.9000ZM363.5700 555L356.1000 555Q355.2000 555 354.5700 554.3700Q353.9400 553.7400 353.9400 552.8400L353.9400 552.8400L353.9400 510.3600Q353.9400 509.4600 354.5700 508.8300Q355.2000 508.2000 356.1000 508.2000L356.1000 508.2000L363.5700 508.2000Q364.5600 508.2000 365.1450 508.8300Q365.7300 509.4600 365.7300 510.3600L365.7300 510.3600L365.7300 552.8400Q365.7300 553.7400 365.1450 554.3700Q364.5600 555 363.5700 555L363.5700 555ZM363.9300 500.4600L355.7400 500.4600Q354.8400 500.4600 354.2100 499.8300Q353.5800 499.2000 353.5800 498.3000L353.5800 498.3000L353.5800 491.8200Q353.5800 490.9200 354.2100 490.2900Q354.8400 489.6600 355.7400 489.6600L355.7400 489.6600L363.9300 489.6600Q364.9200 489.6600 365.5500 490.2900Q366.1800 490.9200 366.1800 491.8200L366.1800 491.8200L366.1800 498.3000Q366.1800 499.2000 365.5500 499.8300Q364.9200 500.4600 363.9300 500.4600L363.9300 500.4600ZM398.4000 555.9000L398.4000 555.9000Q391.2000 555.9000 386.2950 553.3800Q381.3900 550.8600 378.8250 546.2700Q376.2600 541.6800 375.9000 535.5600L375.9000 535.5600Q375.8100 533.9400 375.8100 531.6000Q375.8100 529.2600 375.9000 527.6400L375.9000 527.6400Q376.2600 521.4300 378.9150 516.8850Q381.5700 512.3400 386.4750 509.8200Q391.3800 507.3000 398.4000 507.3000L398.4000 507.3000Q405.4200 507.3000 410.3250 509.8200Q415.2300 512.3400 417.8850 516.8850Q420.5400 521.4300 420.9000 527.6400L420.9000 527.6400Q420.9900 529.2600 420.9900 531.6000Q420.9900 533.9400 420.9000 535.5600L420.9000 535.5600Q420.5400 541.6800 417.9750 546.2700Q415.4100 550.8600 410.5050 553.3800Q405.6000 555.9000 398.4000 555.9000ZM398.4000 546.9900L398.4000 546.9900Q403.1700 546.9900 405.7800 543.9750Q408.3900 540.9600 408.6600 535.1100L408.6600 535.1100Q408.7500 533.7600 408.7500 531.6000Q408.7500 529.4400 408.6600 528.0900L408.6600 528.0900Q408.3900 522.2400 405.7800 519.2250Q403.1700 516.2100 398.4000 516.2100L398.4000 516.2100Q393.6300 516.2100 391.0200 519.2250Q388.4100 522.2400 388.1400 528.0900L388.1400 528.0900Q388.0500 529.4400 388.0500 531.6000Q388.0500 533.7600 388.1400 535.1100L388.1400 535.1100Q388.4100 540.9600 391.0200 543.9750Q393.6300 546.9900 398.4000 546.9900ZM441.0600 555L433.1400 555Q432.2400 555 431.6100 554.3700Q430.9800 553.7400 430.9800 552.8400L430.9800 552.8400L430.9800 510.3600Q430.9800 509.4600 431.6100 508.8300Q432.2400 508.2000 433.1400 508.2000L433.1400 508.2000L440.5200 508.2000Q441.4200 508.2000 442.0500 508.8300Q442.6800 509.4600 442.6800 510.3600L442.6800 510.3600L442.6800 514.0500Q445.0200 511.1700 448.6650 509.2350Q452.3100 507.3000 457.7100 507.3000L457.7100 507.3000Q463.2000 507.3000 467.2500 509.7750Q471.3000 512.2500 473.5050 516.7500Q475.7100 521.2500 475.7100 527.5500L475.7100 527.5500L475.7100 552.8400Q475.7100 553.7400 475.0800 554.3700Q474.4500 555 473.5500 555L473.5500 555L465.6300 555Q464.7300 555 464.1000 554.3700Q463.4700 553.7400 463.4700 552.8400L463.4700 552.8400L463.4700 528.0900Q463.4700 522.8700 460.9050 519.9000Q458.3400 516.9300 453.4800 516.9300L453.4800 516.9300Q448.8000 516.9300 446.0100 519.9000Q443.2200 522.8700 443.2200 528.0900L443.2200 528.0900L443.2200 552.8400Q443.2200 553.7400 442.5900 554.3700Q441.9600 555 441.0600 555L441.0600 555ZM500.7300 555.9000L500.7300 555.9000Q496.0500 555.9000 492.2700 554.0550Q488.4900 552.2100 486.2850 549.1050Q484.0800 546 484.0800 542.1300L484.0800 542.1300Q484.0800 535.8300 489.2100 532.0950Q494.3400 528.3600 502.6200 527.1000L502.6200 527.1000L514.9500 525.3000L514.9500 523.4100Q514.9500 519.6300 513.0600 517.5600Q511.1700 515.4900 506.5800 515.4900L506.5800 515.4900Q503.3400 515.4900 501.3150 516.7950Q499.2900 518.1000 498.3000 520.2600L498.3000 520.2600Q497.5800 521.4300 496.2300 521.4300L496.2300 521.4300L489.1200 521.4300Q488.1300 521.4300 487.6350 520.8900Q487.1400 520.3500 487.1400 519.4500L487.1400 519.4500Q487.2300 518.0100 488.3550 515.9400Q489.4800 513.8700 491.7750 511.9350Q494.0700 510 497.7600 508.6500Q501.4500 507.3000 506.6700 507.3000L506.6700 507.3000Q512.3400 507.3000 516.2550 508.6950Q520.1700 510.0900 522.5100 512.4300Q524.8500 514.7700 525.9300 517.9200Q527.0100 521.0700 527.0100 524.5800L527.0100 524.5800L527.0100 552.8400Q527.0100 553.7400 526.3800 554.3700Q525.7500 555 524.8500 555L524.8500 555L517.5600 555Q516.5700 555 515.9850 554.3700Q515.4000 553.7400 515.4000 552.8400L515.4000 552.8400L515.4000 549.3300Q514.2300 550.9500 512.2500 552.4800Q510.2700 554.0100 507.4350 554.9550Q504.6000 555.9000 500.7300 555.9000ZM503.7900 547.3500L503.7900 547.3500Q506.9400 547.3500 509.5050 546Q512.0700 544.6500 513.5550 541.8150Q515.0400 538.9800 515.0400 534.6600L515.0400 534.6600L515.0400 532.7700L506.0400 534.2100Q500.7300 535.0200 498.1200 536.8200Q495.5100 538.6200 495.5100 541.2300L495.5100 541.2300Q495.5100 543.2100 496.7250 544.6050Q497.9400 546 499.8300 546.6750Q501.7200 547.3500 503.7900 547.3500ZM548.2500 555L540.6900 555Q539.7900 555 539.1600 554.3700Q538.5300 553.7400 538.5300 552.8400L538.5300 552.8400L538.5300 510.3600Q538.5300 509.4600 539.1600 508.8300Q539.7900 508.2000 540.6900 508.2000L540.6900 508.2000L547.7100 508.2000Q548.6100 508.2000 549.2400 508.8300Q549.8700 509.4600 549.8700 510.3600L549.8700 510.3600L549.8700 513.4200Q551.7600 510.9000 554.9550 509.1450Q558.1500 507.3900 562.5600 507.3000L562.5600 507.3000Q572.8200 507.1200 576.8700 515.3100L576.8700 515.3100Q578.9400 511.7100 582.8550 509.5050Q586.7700 507.3000 591.5400 507.3000L591.5400 507.3000Q596.2200 507.3000 600.0450 509.4600Q603.8700 511.6200 606.0750 515.9850Q608.2800 520.3500 608.2800 527.0100L608.2800 527.0100L608.2800 552.8400Q608.2800 553.7400 607.6500 554.3700Q607.0200 555 606.1200 555L606.1200 555L598.7400 555Q597.8400 555 597.2100 554.3700Q596.5800 553.7400 596.5800 552.8400L596.5800 552.8400L596.5800 527.7300Q596.5800 523.6800 595.4100 521.2950Q594.2400 518.9100 592.2600 517.9200Q590.2800 516.9300 587.8500 516.9300L587.8500 516.9300Q585.8700 516.9300 583.8900 517.9200Q581.9100 518.9100 580.6500 521.2950Q579.3900 523.6800 579.3900 527.7300L579.3900 527.7300L579.3900 552.8400Q579.3900 553.7400 578.7600 554.3700Q578.1300 555 577.2300 555L577.2300 555L569.8500 555Q568.9500 555 568.3200 554.3700Q567.6900 553.7400 567.6900 552.8400L567.6900 552.8400L567.6900 527.7300Q567.6900 523.6800 566.4300 521.2950Q565.1700 518.9100 563.1900 517.9200Q561.2100 516.9300 558.9600 516.9300L558.9600 516.9300Q556.8900 516.9300 554.9100 517.9650Q552.9300 519 551.6700 521.3400Q550.4100 523.6800 550.4100 527.7300L550.4100 527.7300L550.4100 552.8400Q550.4100 553.7400 549.7800 554.3700Q549.1500 555 548.2500 555L548.2500 555ZM639.8700 555.9000L639.8700 555.9000Q629.8800 555.9000 624.0300 550.1400Q618.1800 544.3800 617.7300 533.7600L617.7300 533.7600Q617.6400 532.8600 617.6400 531.4650Q617.6400 530.0700 617.7300 529.2600L617.7300 529.2600Q618.0900 522.4200 620.8350 517.5150Q623.5800 512.6100 628.4400 509.9550Q633.3000 507.3000 639.8700 507.3000L639.8700 507.3000Q647.1600 507.3000 652.1100 510.3150Q657.0600 513.3300 659.5800 518.6850Q662.1000 524.0400 662.1000 531.0600L662.1000 531.0600L662.1000 532.9500Q662.1000 533.8500 661.4700 534.4800Q660.8400 535.1100 659.8500 535.1100L659.8500 535.1100L629.9700 535.1100Q629.9700 535.1100 629.9700 535.3800Q629.9700 535.6500 629.9700 535.8300L629.9700 535.8300Q630.0600 538.9800 631.1850 541.6350Q632.3100 544.2900 634.5150 545.9100Q636.7200 547.5300 639.7800 547.5300L639.7800 547.5300Q642.3000 547.5300 644.0100 546.7650Q645.7200 546 646.8000 545.0100Q647.8800 544.0200 648.3300 543.3900L648.3300 543.3900Q649.1400 542.3100 649.6350 542.0850Q650.1300 541.8600 651.1200 541.8600L651.1200 541.8600L658.8600 541.8600Q659.7600 541.8600 660.3450 542.4000Q660.9300 542.9400 660.8400 543.7500L660.8400 543.7500Q660.7500 545.1900 659.3550 547.2600Q657.9600 549.3300 655.3500 551.3100Q652.7400 553.2900 648.8250 554.5950Q644.9100 555.9000 639.8700 555.9000ZM629.9700 527.2800L629.9700 527.5500L649.8600 527.5500L649.8600 527.2800Q649.8600 523.7700 648.6900 521.1150Q647.5200 518.4600 645.2700 516.9750Q643.0200 515.4900 639.8700 515.4900L639.8700 515.4900Q636.7200 515.4900 634.4700 516.9750Q632.2200 518.4600 631.0950 521.1150Q629.9700 523.7700 629.9700 527.2800L629.9700 527.2800ZM681.7200 555L673.8000 555Q672.9000 555 672.2700 554.3700Q671.6400 553.7400 671.6400 552.8400L671.6400 552.8400L671.6400 510.3600Q671.6400 509.4600 672.2700 508.8300Q672.9000 508.2000 673.8000 508.2000L673.8000 508.2000L681.1800 508.2000Q682.0800 508.2000 682.7100 508.8300Q683.3400 509.4600 683.3400 510.3600L683.3400 510.3600L683.3400 514.0500Q685.6800 511.1700 689.3250 509.2350Q692.9700 507.3000 698.3700 507.3000L698.3700 507.3000Q703.8600 507.3000 707.9100 509.7750Q711.9600 512.2500 714.1650 516.7500Q716.3700 521.2500 716.3700 527.5500L716.3700 527.5500L716.3700 552.8400Q716.3700 553.7400 715.7400 554.3700Q715.1100 555 714.2100 555L714.2100 555L706.2900 555Q705.3900 555 704.7600 554.3700Q704.1300 553.7400 704.1300 552.8400L704.1300 552.8400L704.1300 528.0900Q704.1300 522.8700 701.5650 519.9000Q699.0000 516.9300 694.1400 516.9300L694.1400 516.9300Q689.4600 516.9300 686.6700 519.9000Q683.8800 522.8700 683.8800 528.0900L683.8800 528.0900L683.8800 552.8400Q683.8800 553.7400 683.2500 554.3700Q682.6200 555 681.7200 555L681.7200 555ZM756.2400 555L748.9500 555Q743.5500 555 739.8600 553.1100Q736.1700 551.2200 734.3700 547.4850Q732.5700 543.7500 732.5700 538.1700L732.5700 538.1700L732.5700 517.7400L725.4600 517.7400Q724.5600 517.7400 723.9300 517.1100Q723.3000 516.4800 723.3000 515.4900L723.3000 515.4900L723.3000 510.3600Q723.3000 509.4600 723.9300 508.8300Q724.5600 508.2000 725.4600 508.2000L725.4600 508.2000L732.5700 508.2000L732.5700 493.2600Q732.5700 492.3600 733.1550 491.7300Q733.7400 491.1000 734.7300 491.1000L734.7300 491.1000L742.0200 491.1000Q742.9200 491.1000 743.5500 491.7300Q744.1800 492.3600 744.1800 493.2600L744.1800 493.2600L744.1800 508.2000L755.4300 508.2000Q756.3300 508.2000 756.9600 508.8300Q757.5900 509.4600 757.5900 510.3600L757.5900 510.3600L757.5900 515.4900Q757.5900 516.4800 756.9600 517.1100Q756.3300 517.7400 755.4300 517.7400L755.4300 517.7400L744.1800 517.7400L744.1800 537.2700Q744.1800 540.9600 745.4850 543.0300Q746.7900 545.1000 750.0300 545.1000L750.0300 545.1000L756.2400 545.1000Q757.1400 545.1000 757.7700 545.7300Q758.4000 546.3600 758.4000 547.2600L758.4000 547.2600L758.4000 552.8400Q758.4000 553.7400 757.7700 554.3700Q757.1400 555 756.2400 555L756.2400 555ZM787.1100 555.9000L787.1100 555.9000Q779.9100 555.9000 775.0050 553.3800Q770.1000 550.8600 767.5350 546.2700Q764.9700 541.6800 764.6100 535.5600L764.6100 535.5600Q764.5200 533.9400 764.5200 531.6000Q764.5200 529.2600 764.6100 527.6400L764.6100 527.6400Q764.9700 521.4300 767.6250 516.8850Q770.2800 512.3400 775.1850 509.8200Q780.0900 507.3000 787.1100 507.3000L787.1100 507.3000Q794.1300 507.3000 799.0350 509.8200Q803.9400 512.3400 806.5950 516.8850Q809.2500 521.4300 809.6100 527.6400L809.6100 527.6400Q809.7000 529.2600 809.7000 531.6000Q809.7000 533.9400 809.6100 535.5600L809.6100 535.5600Q809.2500 541.6800 806.6850 546.2700Q804.1200 550.8600 799.2150 553.3800Q794.3100 555.9000 787.1100 555.9000ZM787.1100 546.9900L787.1100 546.9900Q791.8800 546.9900 794.4900 543.9750Q797.1000 540.9600 797.3700 535.1100L797.3700 535.1100Q797.4600 533.7600 797.4600 531.6000Q797.4600 529.4400 797.3700 528.0900L797.3700 528.0900Q797.1000 522.2400 794.4900 519.2250Q791.8800 516.2100 787.1100 516.2100L787.1100 516.2100Q782.3400 516.2100 779.7300 519.2250Q777.1200 522.2400 776.8500 528.0900L776.8500 528.0900Q776.7600 529.4400 776.7600 531.6000Q776.7600 533.7600 776.8500 535.1100L776.8500 535.1100Q777.1200 540.9600 779.7300 543.9750Q782.3400 546.9900 787.1100 546.9900ZM857.6700 555.9000L857.6700 555.9000Q852.9900 555.9000 849.4350 554.3250Q845.8800 552.7500 843.5400 549.8700Q841.2000 546.9900 839.9400 543.0750Q838.6800 539.1600 838.5000 534.4800L838.5000 534.4800Q838.4100 532.8600 838.4100 531.5550Q838.4100 530.2500 838.5000 528.6300L838.5000 528.6300Q838.6800 524.1300 839.8950 520.2600Q841.1100 516.3900 843.4950 513.4650Q845.8800 510.5400 849.4350 508.9200Q852.9900 507.3000 857.6700 507.3000L857.6700 507.3000Q862.5300 507.3000 865.9050 508.9650Q869.2800 510.6300 871.5300 513.2400L871.5300 513.2400L871.5300 493.2600Q871.5300 492.3600 872.1150 491.7300Q872.7000 491.1000 873.6900 491.1000L873.6900 491.1000L881.3400 491.1000Q882.2400 491.1000 882.8700 491.7300Q883.5000 492.3600 883.5000 493.2600L883.5000 493.2600L883.5000 552.8400Q883.5000 553.7400 882.8700 554.3700Q882.2400 555 881.3400 555L881.3400 555L874.2300 555Q873.2400 555 872.6550 554.3700Q872.0700 553.7400 872.0700 552.8400L872.0700 552.8400L872.0700 549.5100Q869.8200 552.3000 866.3550 554.1000Q862.8900 555.9000 857.6700 555.9000ZM861.0000 546.2700L861.0000 546.2700Q864.7800 546.2700 867.0300 544.5600Q869.2800 542.8500 870.3600 540.1950Q871.4400 537.5400 871.5300 534.7500L871.5300 534.7500Q871.6200 533.1300 871.6200 531.2850Q871.6200 529.4400 871.5300 527.8200L871.5300 527.8200Q871.4400 525.1200 870.2700 522.6450Q869.1000 520.1700 866.8500 518.5500Q864.6000 516.9300 861.0000 516.9300L861.0000 516.9300Q857.2200 516.9300 855.0150 518.5950Q852.8100 520.2600 851.8200 522.9600Q850.8300 525.6600 850.6500 528.9000L850.6500 528.9000Q850.5600 531.6000 850.6500 534.3000L850.6500 534.3000Q850.8300 537.5400 851.8200 540.2400Q852.8100 542.9400 855.0150 544.6050Q857.2200 546.2700 861.0000 546.2700ZM915.6300 555.9000L915.6300 555.9000Q905.6400 555.9000 899.7900 550.1400Q893.9400 544.3800 893.4900 533.7600L893.4900 533.7600Q893.4000 532.8600 893.4000 531.4650Q893.4000 530.0700 893.4900 529.2600L893.4900 529.2600Q893.8500 522.4200 896.5950 517.5150Q899.3400 512.6100 904.2000 509.9550Q909.0600 507.3000 915.6300 507.3000L915.6300 507.3000Q922.9200 507.3000 927.8700 510.3150Q932.8200 513.3300 935.3400 518.6850Q937.8600 524.0400 937.8600 531.0600L937.8600 531.0600L937.8600 532.9500Q937.8600 533.8500 937.2300 534.4800Q936.6000 535.1100 935.6100 535.1100L935.6100 535.1100L905.7300 535.1100Q905.7300 535.1100 905.7300 535.3800Q905.7300 535.6500 905.7300 535.8300L905.7300 535.8300Q905.8200 538.9800 906.9450 541.6350Q908.0700 544.2900 910.2750 545.9100Q912.4800 547.5300 915.5400 547.5300L915.5400 547.5300Q918.0600 547.5300 919.7700 546.7650Q921.4800 546 922.5600 545.0100Q923.6400 544.0200 924.0900 543.3900L924.0900 543.3900Q924.9000 542.3100 925.3950 542.0850Q925.8900 541.8600 926.8800 541.8600L926.8800 541.8600L934.6200 541.8600Q935.5200 541.8600 936.1050 542.4000Q936.6900 542.9400 936.6000 543.7500L936.6000 543.7500Q936.5100 545.1900 935.1150 547.2600Q933.7200 549.3300 931.1100 551.3100Q928.5000 553.2900 924.5850 554.5950Q920.6700 555.9000 915.6300 555.9000ZM905.7300 527.2800L905.7300 527.5500L925.6200 527.5500L925.6200 527.2800Q925.6200 523.7700 924.4500 521.1150Q923.2800 518.4600 921.0300 516.9750Q918.7800 515.4900 915.6300 515.4900L915.6300 515.4900Q912.4800 515.4900 910.2300 516.9750Q907.9800 518.4600 906.8550 521.1150Q905.7300 523.7700 905.7300 527.2800L905.7300 527.2800ZM176.1900 645.9000L176.1900 645.9000Q169.7100 645.9000 164.8050 643.4700Q159.9000 641.0400 157.1550 636.4050Q154.4100 631.7700 154.1400 625.2000L154.1400 625.2000Q154.0500 623.8500 154.0500 621.6450Q154.0500 619.4400 154.1400 618L154.1400 618Q154.4100 611.4300 157.1550 606.7950Q159.9000 602.1600 164.8050 599.7300Q169.7100 597.3000 176.1900 597.3000L176.1900 597.3000Q181.9500 597.3000 186 598.8750Q190.0500 600.4500 192.6600 602.9250Q195.2700 605.4000 196.5750 608.0550Q197.8800 610.7100 197.9700 612.8700L197.9700 612.8700Q198.0600 613.8600 197.3850 614.4450Q196.7100 615.0300 195.8100 615.0300L195.8100 615.0300L187.8900 615.0300Q186.9900 615.0300 186.4950 614.5800Q186 614.1300 185.5500 613.2300L185.5500 613.2300Q184.2000 609.6300 181.9950 608.1450Q179.7900 606.6600 176.3700 606.6600L176.3700 606.6600Q171.8700 606.6600 169.2150 609.4950Q166.5600 612.3300 166.3800 618.4500L166.3800 618.4500Q166.2000 621.8700 166.3800 624.7500L166.3800 624.7500Q166.5600 630.9600 169.2150 633.7500Q171.8700 636.5400 176.3700 636.5400L176.3700 636.5400Q179.8800 636.5400 182.0400 635.0550Q184.2000 633.5700 185.5500 629.9700L185.5500 629.9700Q186 629.0700 186.4950 628.6200Q186.9900 628.1700 187.8900 628.1700L187.8900 628.1700L195.8100 628.1700Q196.7100 628.1700 197.3850 628.7550Q198.0600 629.3400 197.9700 630.3300L197.9700 630.3300Q197.8800 631.9500 197.1150 633.9750Q196.3500 636 194.6850 638.1150Q193.0200 640.2300 190.5000 641.9850Q187.9800 643.7400 184.4250 644.8200Q180.8700 645.9000 176.1900 645.9000ZM228.0300 645.9000L228.0300 645.9000Q220.8300 645.9000 215.9250 643.3800Q211.0200 640.8600 208.4550 636.2700Q205.8900 631.6800 205.5300 625.5600L205.5300 625.5600Q205.4400 623.9400 205.4400 621.6000Q205.4400 619.2600 205.5300 617.6400L205.5300 617.6400Q205.8900 611.4300 208.5450 606.8850Q211.2000 602.3400 216.1050 599.8200Q221.0100 597.3000 228.0300 597.3000L228.0300 597.3000Q235.0500 597.3000 239.9550 599.8200Q244.8600 602.3400 247.5150 606.8850Q250.1700 611.4300 250.5300 617.6400L250.5300 617.6400Q250.6200 619.2600 250.6200 621.6000Q250.6200 623.9400 250.5300 625.5600L250.5300 625.5600Q250.1700 631.6800 247.6050 636.2700Q245.0400 640.8600 240.1350 643.3800Q235.2300 645.9000 228.0300 645.9000ZM228.0300 636.9900L228.0300 636.9900Q232.8000 636.9900 235.4100 633.9750Q238.0200 630.9600 238.2900 625.1100L238.2900 625.1100Q238.3800 623.7600 238.3800 621.6000Q238.3800 619.4400 238.2900 618.0900L238.2900 618.0900Q238.0200 612.2400 235.4100 609.2250Q232.8000 606.2100 228.0300 606.2100L228.0300 606.2100Q223.2600 606.2100 220.6500 609.2250Q218.0400 612.2400 217.7700 618.0900L217.7700 618.0900Q217.6800 619.4400 217.6800 621.6000Q217.6800 623.7600 217.7700 625.1100L217.7700 625.1100Q218.0400 630.9600 220.6500 633.9750Q223.2600 636.9900 228.0300 636.9900ZM229.6500 591.4500L224.1600 591.4500Q222.7200 591.4500 222.7200 590.0100L222.7200 590.0100Q222.7200 589.2900 223.1700 588.8400L223.1700 588.8400L230.4600 579.9300Q231.3600 578.9400 231.9900 578.6250Q232.6200 578.3100 233.7900 578.3100L233.7900 578.3100L242.7900 578.3100Q244.5000 578.3100 244.5000 580.0200L244.5000 580.0200Q244.5000 580.6500 244.0500 581.1000L244.0500 581.1000L232.8900 590.2800Q232.1700 590.9100 231.4950 591.1800Q230.8200 591.4500 229.6500 591.4500L229.6500 591.4500ZM277.9800 645.9000L277.9800 645.9000Q273.3000 645.9000 269.7450 644.3250Q266.1900 642.7500 263.8500 639.8700Q261.5100 636.9900 260.2500 633.0750Q258.9900 629.1600 258.8100 624.4800L258.8100 624.4800Q258.7200 622.8600 258.7200 621.5550Q258.7200 620.2500 258.8100 618.6300L258.8100 618.6300Q258.9900 614.1300 260.2050 610.2600Q261.4200 606.3900 263.8050 603.4650Q266.1900 600.5400 269.7450 598.9200Q273.3000 597.3000 277.9800 597.3000L277.9800 597.3000Q282.8400 597.3000 286.2150 598.9650Q289.5900 600.6300 291.8400 603.2400L291.8400 603.2400L291.8400 583.2600Q291.8400 582.3600 292.4250 581.7300Q293.0100 581.1000 294 581.1000L294 581.1000L301.6500 581.1000Q302.5500 581.1000 303.1800 581.7300Q303.8100 582.3600 303.8100 583.2600L303.8100 583.2600L303.8100 642.8400Q303.8100 643.7400 303.1800 644.3700Q302.5500 645 301.6500 645L301.6500 645L294.5400 645Q293.5500 645 292.9650 644.3700Q292.3800 643.7400 292.3800 642.8400L292.3800 642.8400L292.3800 639.5100Q290.1300 642.3000 286.6650 644.1000Q283.2000 645.9000 277.9800 645.9000ZM281.3100 636.2700L281.3100 636.2700Q285.0900 636.2700 287.3400 634.5600Q289.5900 632.8500 290.6700 630.1950Q291.7500 627.5400 291.8400 624.7500L291.8400 624.7500Q291.9300 623.1300 291.9300 621.2850Q291.9300 619.4400 291.8400 617.8200L291.8400 617.8200Q291.7500 615.1200 290.5800 612.6450Q289.4100 610.1700 287.1600 608.5500Q284.9100 606.9300 281.3100 606.9300L281.3100 606.9300Q277.5300 606.9300 275.3250 608.5950Q273.1200 610.2600 272.1300 612.9600Q271.1400 615.6600 270.9600 618.9000L270.9600 618.9000Q270.8700 621.6000 270.9600 624.3000L270.9600 624.3000Q271.1400 627.5400 272.1300 630.2400Q273.1200 632.9400 275.3250 634.6050Q277.5300 636.2700 281.3100 636.2700ZM325.4100 645L317.9400 645Q317.0400 645 316.4100 644.3700Q315.7800 643.7400 315.7800 642.8400L315.7800 642.8400L315.7800 600.3600Q315.7800 599.4600 316.4100 598.8300Q317.0400 598.2000 317.9400 598.2000L317.9400 598.2000L325.4100 598.2000Q326.4000 598.2000 326.9850 598.8300Q327.5700 599.4600 327.5700 600.3600L327.5700 600.3600L327.5700 642.8400Q327.5700 643.7400 326.9850 644.3700Q326.4000 645 325.4100 645L325.4100 645ZM325.7700 590.4600L317.5800 590.4600Q316.6800 590.4600 316.0500 589.8300Q315.4200 589.2000 315.4200 588.3000L315.4200 588.3000L315.4200 581.8200Q315.4200 580.9200 316.0500 580.2900Q316.6800 579.6600 317.5800 579.6600L317.5800 579.6600L325.7700 579.6600Q326.7600 579.6600 327.3900 580.2900Q328.0200 580.9200 328.0200 581.8200L328.0200 581.8200L328.0200 588.3000Q328.0200 589.2000 327.3900 589.8300Q326.7600 590.4600 325.7700 590.4600L325.7700 590.4600ZM360.6900 664.8000L360.6900 664.8000Q354.1200 664.8000 349.8900 663.0900Q345.6600 661.3800 343.2300 658.9500Q340.8000 656.5200 339.7650 654.1350Q338.7300 651.7500 338.6400 650.4000L338.6400 650.4000Q338.5500 649.5000 339.2250 648.8250Q339.9000 648.1500 340.8000 648.1500L340.8000 648.1500L348.6300 648.1500Q349.5300 648.1500 350.0700 648.5550Q350.6100 648.9600 350.9700 650.0400L350.9700 650.0400Q351.5100 651.2100 352.4100 652.5600Q353.3100 653.9100 355.1550 654.8550Q357.0000 655.8000 360.2400 655.8000L360.2400 655.8000Q363.6600 655.8000 366.0000 654.8100Q368.3400 653.8200 369.5550 651.4800Q370.7700 649.1400 370.7700 645L370.7700 645L370.7700 638.8800Q368.6100 641.4900 365.2350 643.1100Q361.8600 644.7300 356.9100 644.7300L356.9100 644.7300Q352.1400 644.7300 348.5850 643.1550Q345.0300 641.5800 342.6900 638.7450Q340.3500 635.9100 339.1350 632.0400Q337.9200 628.1700 337.7400 623.4900L337.7400 623.4900Q337.6500 621.0600 337.7400 618.6300L337.7400 618.6300Q337.9200 614.1300 339.1350 610.2600Q340.3500 606.3900 342.6900 603.4650Q345.0300 600.5400 348.5850 598.9200Q352.1400 597.3000 356.9100 597.3000L356.9100 597.3000Q362.0400 597.3000 365.5500 599.2350Q369.0600 601.1700 371.3100 604.0500L371.3100 604.0500L371.3100 600.4500Q371.3100 599.4600 371.9400 598.8300Q372.5700 598.2000 373.4700 598.2000L373.4700 598.2000L380.7600 598.2000Q381.6600 598.2000 382.2900 598.8300Q382.9200 599.4600 382.9200 600.4500L382.9200 600.4500L383.0100 643.8300Q383.0100 650.3100 380.5800 654.9900Q378.1500 659.6700 373.2450 662.2350Q368.3400 664.8000 360.6900 664.8000ZM360.2400 635.1900L360.2400 635.1900Q363.9300 635.1900 366.1800 633.5700Q368.4300 631.9500 369.5100 629.3400Q370.5900 626.7300 370.7700 624.0300L370.7700 624.0300Q370.8600 622.8600 370.8600 621.0600Q370.8600 619.2600 370.7700 618.1800L370.7700 618.1800Q370.5900 615.3900 369.5100 612.8250Q368.4300 610.2600 366.1800 608.5950Q363.9300 606.9300 360.2400 606.9300L360.2400 606.9300Q356.5500 606.9300 354.3000 608.5950Q352.0500 610.2600 351.1050 612.9600Q350.1600 615.6600 349.9800 618.9000L349.9800 618.9000Q349.8000 621.0600 349.9800 623.3100L349.9800 623.3100Q350.1600 626.4600 351.1050 629.2050Q352.0500 631.9500 354.3000 633.5700Q356.5500 635.1900 360.2400 635.1900ZM415.6800 645.9000L415.6800 645.9000Q408.4800 645.9000 403.5750 643.3800Q398.6700 640.8600 396.1050 636.2700Q393.5400 631.6800 393.1800 625.5600L393.1800 625.5600Q393.0900 623.9400 393.0900 621.6000Q393.0900 619.2600 393.1800 617.6400L393.1800 617.6400Q393.5400 611.4300 396.1950 606.8850Q398.8500 602.3400 403.7550 599.8200Q408.6600 597.3000 415.6800 597.3000L415.6800 597.3000Q422.7000 597.3000 427.6050 599.8200Q432.5100 602.3400 435.1650 606.8850Q437.8200 611.4300 438.1800 617.6400L438.1800 617.6400Q438.2700 619.2600 438.2700 621.6000Q438.2700 623.9400 438.1800 625.5600L438.1800 625.5600Q437.8200 631.6800 435.2550 636.2700Q432.6900 640.8600 427.7850 643.3800Q422.8800 645.9000 415.6800 645.9000ZM415.6800 636.9900L415.6800 636.9900Q420.4500 636.9900 423.0600 633.9750Q425.6700 630.9600 425.9400 625.1100L425.9400 625.1100Q426.0300 623.7600 426.0300 621.6000Q426.0300 619.4400 425.9400 618.0900L425.9400 618.0900Q425.6700 612.2400 423.0600 609.2250Q420.4500 606.2100 415.6800 606.2100L415.6800 606.2100Q410.9100 606.2100 408.3000 609.2250Q405.6900 612.2400 405.4200 618.0900L405.4200 618.0900Q405.3300 619.4400 405.3300 621.6000Q405.3300 623.7600 405.4200 625.1100L405.4200 625.1100Q405.6900 630.9600 408.3000 633.9750Q410.9100 636.9900 415.6800 636.9900ZM486.2400 645.9000L486.2400 645.9000Q480.7500 645.9000 476.7450 643.4250Q472.7400 640.9500 470.5800 636.4050Q468.4200 631.8600 468.4200 625.6500L468.4200 625.6500L468.4200 600.3600Q468.4200 599.4600 469.0500 598.8300Q469.6800 598.2000 470.5800 598.2000L470.5800 598.2000L478.5000 598.2000Q479.4900 598.2000 480.0750 598.8300Q480.6600 599.4600 480.6600 600.3600L480.6600 600.3600L480.6600 625.1100Q480.6600 636.2700 490.4700 636.2700L490.4700 636.2700Q495.1500 636.2700 497.8950 633.3000Q500.6400 630.3300 500.6400 625.1100L500.6400 625.1100L500.6400 600.3600Q500.6400 599.4600 501.2700 598.8300Q501.9000 598.2000 502.8000 598.2000L502.8000 598.2000L510.7200 598.2000Q511.6200 598.2000 512.2500 598.8300Q512.8800 599.4600 512.8800 600.3600L512.8800 600.3600L512.8800 642.8400Q512.8800 643.7400 512.2500 644.3700Q511.6200 645 510.7200 645L510.7200 645L503.4300 645Q502.4400 645 501.8550 644.3700Q501.2700 643.7400 501.2700 642.8400L501.2700 642.8400L501.2700 639.1500Q498.8400 642.3000 495.2400 644.1000Q491.6400 645.9000 486.2400 645.9000ZM542.4900 645.9000L542.4900 645.9000Q537.0900 645.9000 533.2650 644.6400Q529.4400 643.3800 527.0100 641.4900Q524.5800 639.6000 523.4100 637.7100Q522.2400 635.8200 522.1500 634.5600L522.1500 634.5600Q522.0600 633.5700 522.7350 632.9850Q523.4100 632.4000 524.2200 632.4000L524.2200 632.4000L531.3300 632.4000Q531.6900 632.4000 531.9600 632.4900Q532.2300 632.5800 532.6800 633.0300L532.6800 633.0300Q533.8500 634.0200 535.1550 635.1000Q536.4600 636.1800 538.2600 636.9450Q540.0600 637.7100 542.7600 637.7100L542.7600 637.7100Q546.2700 637.7100 548.6550 636.3150Q551.0400 634.9200 551.0400 632.3100L551.0400 632.3100Q551.0400 630.4200 550.0050 629.2500Q548.9700 628.0800 546.1800 627.1350Q543.3900 626.1900 538.2600 625.1100L538.2600 625.1100Q533.2200 623.9400 529.8900 622.1400Q526.5600 620.3400 524.9400 617.6400Q523.3200 614.9400 523.3200 611.3400L523.3200 611.3400Q523.3200 607.8300 525.4350 604.6350Q527.5500 601.4400 531.7350 599.3700Q535.9200 597.3000 542.1300 597.3000L542.1300 597.3000Q546.9900 597.3000 550.5900 598.5150Q554.1900 599.7300 556.5750 601.5300Q558.9600 603.3300 560.2200 605.1750Q561.4800 607.0200 561.5700 608.3700L561.5700 608.3700Q561.6600 609.3600 561.0300 609.9450Q560.4000 610.5300 559.5900 610.5300L559.5900 610.5300L552.9300 610.5300Q552.4800 610.5300 552.1200 610.3500Q551.7600 610.1700 551.4000 609.9000L551.4000 609.9000Q550.4100 609 549.2400 607.9650Q548.0700 606.9300 546.4050 606.2100Q544.7400 605.4900 542.0400 605.4900L542.0400 605.4900Q538.6200 605.4900 536.8200 606.9750Q535.0200 608.4600 535.0200 610.7100L535.0200 610.7100Q535.0200 612.2400 535.8750 613.3650Q536.7300 614.4900 539.3400 615.4800Q541.9500 616.4700 547.2600 617.5500L547.2600 617.5500Q553.2900 618.6300 556.8450 620.7450Q560.4000 622.8600 561.8850 625.6050Q563.3700 628.3500 563.3700 631.6800L563.3700 631.6800Q563.3700 635.7300 560.9850 638.9700Q558.6000 642.2100 553.9650 644.0550Q549.3300 645.9000 542.4900 645.9000ZM586.2300 645.9000L586.2300 645.9000Q581.5500 645.9000 577.7700 644.0550Q573.9900 642.2100 571.7850 639.1050Q569.5800 636 569.5800 632.1300L569.5800 632.1300Q569.5800 625.8300 574.7100 622.0950Q579.8400 618.3600 588.1200 617.1000L588.1200 617.1000L600.4500 615.3000L600.4500 613.4100Q600.4500 609.6300 598.5600 607.5600Q596.6700 605.4900 592.0800 605.4900L592.0800 605.4900Q588.8400 605.4900 586.8150 606.7950Q584.7900 608.1000 583.8000 610.2600L583.8000 610.2600Q583.0800 611.4300 581.7300 611.4300L581.7300 611.4300L574.6200 611.4300Q573.6300 611.4300 573.1350 610.8900Q572.6400 610.3500 572.6400 609.4500L572.6400 609.4500Q572.7300 608.0100 573.8550 605.9400Q574.9800 603.8700 577.2750 601.9350Q579.5700 600 583.2600 598.6500Q586.9500 597.3000 592.1700 597.3000L592.1700 597.3000Q597.8400 597.3000 601.7550 598.6950Q605.6700 600.0900 608.0100 602.4300Q610.3500 604.7700 611.4300 607.9200Q612.5100 611.0700 612.5100 614.5800L612.5100 614.5800L612.5100 642.8400Q612.5100 643.7400 611.8800 644.3700Q611.2500 645 610.3500 645L610.3500 645L603.0600 645Q602.0700 645 601.4850 644.3700Q600.9000 643.7400 600.9000 642.8400L600.9000 642.8400L600.9000 639.3300Q599.7300 640.9500 597.7500 642.4800Q595.7700 644.0100 592.9350 644.9550Q590.1000 645.9000 586.2300 645.9000ZM589.2900 637.3500L589.2900 637.3500Q592.4400 637.3500 595.0050 636Q597.5700 634.6500 599.0550 631.8150Q600.5400 628.9800 600.5400 624.6600L600.5400 624.6600L600.5400 622.7700L591.5400 624.2100Q586.2300 625.0200 583.6200 626.8200Q581.0100 628.6200 581.0100 631.2300L581.0100 631.2300Q581.0100 633.2100 582.2250 634.6050Q583.4400 636 585.3300 636.6750Q587.2200 637.3500 589.2900 637.3500ZM634.1100 645L626.1900 645Q625.2900 645 624.6600 644.3700Q624.0300 643.7400 624.0300 642.8400L624.0300 642.8400L624.0300 600.3600Q624.0300 599.4600 624.6600 598.8300Q625.2900 598.2000 626.1900 598.2000L626.1900 598.2000L633.5700 598.2000Q634.4700 598.2000 635.1000 598.8300Q635.7300 599.4600 635.7300 600.3600L635.7300 600.3600L635.7300 604.0500Q638.0700 601.1700 641.7150 599.2350Q645.3600 597.3000 650.7600 597.3000L650.7600 597.3000Q656.2500 597.3000 660.3000 599.7750Q664.3500 602.2500 666.5550 606.7500Q668.7600 611.2500 668.7600 617.5500L668.7600 617.5500L668.7600 642.8400Q668.7600 643.7400 668.1300 644.3700Q667.5000 645 666.6000 645L666.6000 645L658.6800 645Q657.7800 645 657.1500 644.3700Q656.5200 643.7400 656.5200 642.8400L656.5200 642.8400L656.5200 618.0900Q656.5200 612.8700 653.9550 609.9000Q651.3900 606.9300 646.5300 606.9300L646.5300 606.9300Q641.8500 606.9300 639.0600 609.9000Q636.2700 612.8700 636.2700 618.0900L636.2700 618.0900L636.2700 642.8400Q636.2700 643.7400 635.6400 644.3700Q635.0100 645 634.1100 645L634.1100 645ZM697.5600 645.9000L697.5600 645.9000Q692.8800 645.9000 689.3250 644.3250Q685.7700 642.7500 683.4300 639.8700Q681.0900 636.9900 679.8300 633.0750Q678.5700 629.1600 678.3900 624.4800L678.3900 624.4800Q678.3000 622.8600 678.3000 621.5550Q678.3000 620.2500 678.3900 618.6300L678.3900 618.6300Q678.5700 614.1300 679.7850 610.2600Q681.0000 606.3900 683.3850 603.4650Q685.7700 600.5400 689.3250 598.9200Q692.8800 597.3000 697.5600 597.3000L697.5600 597.3000Q702.4200 597.3000 705.7950 598.9650Q709.1700 600.6300 711.4200 603.2400L711.4200 603.2400L711.4200 583.2600Q711.4200 582.3600 712.0050 581.7300Q712.5900 581.1000 713.5800 581.1000L713.5800 581.1000L721.2300 581.1000Q722.1300 581.1000 722.7600 581.7300Q723.3900 582.3600 723.3900 583.2600L723.3900 583.2600L723.3900 642.8400Q723.3900 643.7400 722.7600 644.3700Q722.1300 645 721.2300 645L721.2300 645L714.1200 645Q713.1300 645 712.5450 644.3700Q711.9600 643.7400 711.9600 642.8400L711.9600 642.8400L711.9600 639.5100Q709.7100 642.3000 706.2450 644.1000Q702.7800 645.9000 697.5600 645.9000ZM700.8900 636.2700L700.8900 636.2700Q704.6700 636.2700 706.9200 634.5600Q709.1700 632.8500 710.2500 630.1950Q711.3300 627.5400 711.4200 624.7500L711.4200 624.7500Q711.5100 623.1300 711.5100 621.2850Q711.5100 619.4400 711.4200 617.8200L711.4200 617.8200Q711.3300 615.1200 710.1600 612.6450Q708.9900 610.1700 706.7400 608.5500Q704.4900 606.9300 700.8900 606.9300L700.8900 606.9300Q697.1100 606.9300 694.9050 608.5950Q692.7000 610.2600 691.7100 612.9600Q690.7200 615.6600 690.5400 618.9000L690.5400 618.9000Q690.4500 621.6000 690.5400 624.3000L690.5400 624.3000Q690.7200 627.5400 691.7100 630.2400Q692.7000 632.9400 694.9050 634.6050Q697.1100 636.2700 700.8900 636.2700ZM756.0600 645.9000L756.0600 645.9000Q748.8600 645.9000 743.9550 643.3800Q739.0500 640.8600 736.4850 636.2700Q733.9200 631.6800 733.5600 625.5600L733.5600 625.5600Q733.4700 623.9400 733.4700 621.6000Q733.4700 619.2600 733.5600 617.6400L733.5600 617.6400Q733.9200 611.4300 736.5750 606.8850Q739.2300 602.3400 744.1350 599.8200Q749.0400 597.3000 756.0600 597.3000L756.0600 597.3000Q763.0800 597.3000 767.9850 599.8200Q772.8900 602.3400 775.5450 606.8850Q778.2000 611.4300 778.5600 617.6400L778.5600 617.6400Q778.6500 619.2600 778.6500 621.6000Q778.6500 623.9400 778.5600 625.5600L778.5600 625.5600Q778.2000 631.6800 775.6350 636.2700Q773.0700 640.8600 768.1650 643.3800Q763.2600 645.9000 756.0600 645.9000ZM756.0600 636.9900L756.0600 636.9900Q760.8300 636.9900 763.4400 633.9750Q766.0500 630.9600 766.3200 625.1100L766.3200 625.1100Q766.4100 623.7600 766.4100 621.6000Q766.4100 619.4400 766.3200 618.0900L766.3200 618.0900Q766.0500 612.2400 763.4400 609.2250Q760.8300 606.2100 756.0600 606.2100L756.0600 606.2100Q751.2900 606.2100 748.6800 609.2250Q746.0700 612.2400 745.8000 618.0900L745.8000 618.0900Q745.7100 619.4400 745.7100 621.6000Q745.7100 623.7600 745.8000 625.1100L745.8000 625.1100Q746.0700 630.9600 748.6800 633.9750Q751.2900 636.9900 756.0600 636.9900ZM829.9500 645.9000L829.9500 645.9000Q822.7500 645.9000 817.8450 643.3800Q812.9400 640.8600 810.3750 636.2700Q807.8100 631.6800 807.4500 625.5600L807.4500 625.5600Q807.3600 623.9400 807.3600 621.6000Q807.3600 619.2600 807.4500 617.6400L807.4500 617.6400Q807.8100 611.4300 810.4650 606.8850Q813.1200 602.3400 818.0250 599.8200Q822.9300 597.3000 829.9500 597.3000L829.9500 597.3000Q836.9700 597.3000 841.8750 599.8200Q846.7800 602.3400 849.4350 606.8850Q852.0900 611.4300 852.4500 617.6400L852.4500 617.6400Q852.5400 619.2600 852.5400 621.6000Q852.5400 623.9400 852.4500 625.5600L852.4500 625.5600Q852.0900 631.6800 849.5250 636.2700Q846.9600 640.8600 842.0550 643.3800Q837.1500 645.9000 829.9500 645.9000ZM829.9500 636.9900L829.9500 636.9900Q834.7200 636.9900 837.3300 633.9750Q839.9400 630.9600 840.2100 625.1100L840.2100 625.1100Q840.3000 623.7600 840.3000 621.6000Q840.3000 619.4400 840.2100 618.0900L840.2100 618.0900Q839.9400 612.2400 837.3300 609.2250Q834.7200 606.2100 829.9500 606.2100L829.9500 606.2100Q825.1800 606.2100 822.5700 609.2250Q819.9600 612.2400 819.6900 618.0900L819.6900 618.0900Q819.6000 619.4400 819.6000 621.6000Q819.6000 623.7600 819.6900 625.1100L819.6900 625.1100Q819.9600 630.9600 822.5700 633.9750Q825.1800 636.9900 829.9500 636.9900ZM908.7000 645.9000L908.7000 645.9000Q900.4200 645.9000 894.6150 643.0200Q888.8100 640.1400 885.6150 634.6950Q882.4200 629.2500 882.1500 621.6900L882.1500 621.6900Q882.0600 617.8200 882.0600 613.3650Q882.0600 608.9100 882.1500 604.9500L882.1500 604.9500Q882.4200 597.4800 885.6150 592.1700Q888.8100 586.8600 894.7050 583.9800Q900.6000 581.1000 908.7000 581.1000L908.7000 581.1000Q915.2700 581.1000 920.2200 582.8550Q925.1700 584.6100 928.4550 587.3550Q931.7400 590.1000 933.4050 593.2500Q935.0700 596.4000 935.1600 599.1000L935.1600 599.1000Q935.2500 599.9100 934.7100 600.4500Q934.1700 600.9900 933.2700 600.9900L933.2700 600.9900L924.0000 600.9900Q923.1000 600.9900 922.6500 600.6300Q922.2000 600.2700 921.8400 599.5500L921.8400 599.5500Q921.1200 597.6600 919.5900 595.8150Q918.0600 593.9700 915.4500 592.7100Q912.8400 591.4500 908.7000 591.4500L908.7000 591.4500Q902.5800 591.4500 898.9350 594.6900Q895.2900 597.9300 895.0200 605.4000L895.0200 605.4000Q894.7500 613.2300 895.0200 621.2400L895.0200 621.2400Q895.2900 628.8900 899.0250 632.2200Q902.7600 635.5500 908.8800 635.5500L908.8800 635.5500Q912.9300 635.5500 916.1250 634.1100Q919.3200 632.6700 921.1650 629.6100Q923.0100 626.5500 923.0100 621.7800L923.0100 621.7800L923.0100 618.9900L912.0300 618.9900Q911.1300 618.9900 910.5000 618.3600Q909.8700 617.7300 909.8700 616.7400L909.8700 616.7400L909.8700 611.9700Q909.8700 610.9800 910.5000 610.3500Q911.1300 609.7200 912.0300 609.7200L912.0300 609.7200L933.5400 609.7200Q934.5300 609.7200 935.1150 610.3500Q935.7000 610.9800 935.7000 611.9700L935.7000 611.9700L935.7000 621.4200Q935.7000 628.9800 932.4150 634.4700Q929.1300 639.9600 923.0550 642.9300Q916.9800 645.9000 908.7000 645.9000ZM955.7700 645L948.3000 645Q947.4000 645 946.7700 644.3700Q946.1400 643.7400 946.1400 642.8400L946.1400 642.8400L946.1400 600.3600Q946.1400 599.4600 946.7700 598.8300Q947.4000 598.2000 948.3000 598.2000L948.3000 598.2000L955.7700 598.2000Q956.7600 598.2000 957.3450 598.8300Q957.9300 599.4600 957.9300 600.3600L957.9300 600.3600L957.9300 642.8400Q957.9300 643.7400 957.3450 644.3700Q956.7600 645 955.7700 645L955.7700 645ZM956.1300 590.4600L947.9400 590.4600Q947.0400 590.4600 946.4100 589.8300Q945.7800 589.2000 945.7800 588.3000L945.7800 588.3000L945.7800 581.8200Q945.7800 580.9200 946.4100 580.2900Q947.0400 579.6600 947.9400 579.6600L947.9400 579.6600L956.1300 579.6600Q957.1200 579.6600 957.7500 580.2900Q958.3800 580.9200 958.3800 581.8200L958.3800 581.8200L958.3800 588.3000Q958.3800 589.2000 957.7500 589.8300Q957.1200 590.4600 956.1300 590.4600L956.1300 590.4600ZM998.3400 645L991.0500 645Q985.6500 645 981.9600 643.1100Q978.2700 641.2200 976.4700 637.4850Q974.6700 633.7500 974.6700 628.1700L974.6700 628.1700L974.6700 607.7400L967.5600 607.7400Q966.6600 607.7400 966.0300 607.1100Q965.4000 606.4800 965.4000 605.4900L965.4000 605.4900L965.4000 600.3600Q965.4000 599.4600 966.0300 598.8300Q966.6600 598.2000 967.5600 598.2000L967.5600 598.2000L974.6700 598.2000L974.6700 583.2600Q974.6700 582.3600 975.2550 581.7300Q975.8400 581.1000 976.8300 581.1000L976.8300 581.1000L984.1200 581.1000Q985.0200 581.1000 985.6500 581.7300Q986.2800 582.3600 986.2800 583.2600L986.2800 583.2600L986.2800 598.2000L997.5300 598.2000Q998.4300 598.2000 999.0600 598.8300Q999.6900 599.4600 999.6900 600.3600L999.6900 600.3600L999.6900 605.4900Q999.6900 606.4800 999.0600 607.1100Q998.4300 607.7400 997.5300 607.7400L997.5300 607.7400L986.2800 607.7400L986.2800 627.2700Q986.2800 630.9600 987.5850 633.0300Q988.8900 635.1000 992.1300 635.1000L992.1300 635.1000L998.3400 635.1000Q999.2400 635.1000 999.8700 635.7300Q1000.5000 636.3600 1000.5000 637.2600L1000.5000 637.2600L1000.5000 642.8400Q1000.5000 643.7400 999.8700 644.3700Q999.2400 645 998.3400 645L998.3400 645Z" id="title"/><path d="M1491.2800 650L1376.5600 650Q1374.1600 650 1372.4800 648.3200Q1370.8000 646.6400 1370.8000 644.2400L1370.8000 644.2400L1370.8000 632Q1370.8000 629.8400 1371.8800 626.8400Q1372.9600 623.8400 1376.8000 620.7200L1376.8000 620.7200L1414.7200 583.0400Q1430.5600 570.5600 1440.2800 561.8000Q1450 553.0400 1454.4400 545.7200Q1458.8800 538.4000 1458.8800 531.2000L1458.8800 531.2000Q1458.8800 520.4000 1453 513.6800Q1447.1200 506.9600 1434.4000 506.9600L1434.4000 506.9600Q1426 506.9600 1420.2400 510.4400Q1414.4800 513.9200 1411.2400 519.6800Q1408 525.4400 1406.8000 532.4000L1406.8000 532.4000Q1406.3200 535.5200 1404.1600 536.7200Q1402 537.9200 1399.8400 537.9200L1399.8400 537.9200L1378.4800 537.9200Q1376.3200 537.9200 1374.8800 536.4800Q1373.4400 535.0400 1373.4400 533.1200L1373.4400 533.1200Q1373.6800 522.8000 1377.7600 513.0800Q1381.8400 503.3600 1389.6400 495.8000Q1397.4400 488.2400 1408.7200 483.6800Q1420 479.1200 1434.1600 479.1200L1434.1600 479.1200Q1454.0800 479.1200 1467.1600 485.8400Q1480.2400 492.5600 1486.8400 504.0800Q1493.4400 515.6000 1493.4400 530L1493.4400 530Q1493.4400 541.2800 1489.1200 550.7600Q1484.8000 560.2400 1476.6400 569Q1468.4800 577.7600 1456.9600 586.8800L1456.9600 586.8800L1422.8800 621.4400L1491.2800 621.4400Q1493.9200 621.4400 1495.4800 623Q1497.0400 624.5600 1497.0400 627.2000L1497.0400 627.2000L1497.0400 644.2400Q1497.0400 646.6400 1495.4800 648.3200Q1493.9200 650 1491.2800 650L1491.2800 650ZM1552.7200 650L1528.7200 650Q1526.3200 650 1524.6400 648.3200Q1522.9600 646.6400 1522.9600 644.2400L1522.9600 644.2400L1522.9600 620.4800Q1522.9600 617.8400 1524.6400 616.1600Q1526.3200 614.4800 1528.7200 614.4800L1528.7200 614.4800L1552.7200 614.4800Q1555.1200 614.4800 1556.8000 616.1600Q1558.4800 617.8400 1558.4800 620.4800L1558.4800 620.4800L1558.4800 644.2400Q1558.4800 646.6400 1556.8000 648.3200Q1555.1200 650 1552.7200 650L1552.7200 650ZM1704.1600 650L1589.4400 650Q1587.0400 650 1585.3600 648.3200Q1583.6800 646.6400 1583.6800 644.2400L1583.6800 644.2400L1583.6800 632Q1583.6800 629.8400 1584.7600 626.8400Q1585.8400 623.8400 1589.6800 620.7200L1589.6800 620.7200L1627.6000 583.0400Q1643.4400 570.5600 1653.1600 561.8000Q1662.8800 553.0400 1667.3200 545.7200Q1671.7600 538.4000 1671.7600 531.2000L1671.7600 531.2000Q1671.7600 520.4000 1665.8800 513.6800Q1660.0000 506.9600 1647.2800 506.9600L1647.2800 506.9600Q1638.8800 506.9600 1633.1200 510.4400Q1627.3600 513.9200 1624.1200 519.6800Q1620.8800 525.4400 1619.6800 532.4000L1619.6800 532.4000Q1619.2000 535.5200 1617.0400 536.7200Q1614.8800 537.9200 1612.7200 537.9200L1612.7200 537.9200L1591.3600 537.9200Q1589.2000 537.9200 1587.7600 536.4800Q1586.3200 535.0400 1586.3200 533.1200L1586.3200 533.1200Q1586.5600 522.8000 1590.6400 513.0800Q1594.7200 503.3600 1602.5200 495.8000Q1610.3200 488.2400 1621.6000 483.6800Q1632.8800 479.1200 1647.0400 479.1200L1647.0400 479.1200Q1666.9600 479.1200 1680.0400 485.8400Q1693.1200 492.5600 1699.7200 504.0800Q1706.3200 515.6000 1706.3200 530L1706.3200 530Q1706.3200 541.2800 1702 550.7600Q1697.6800 560.2400 1689.5200 569Q1681.3600 577.7600 1669.8400 586.8800L1669.8400 586.8800L1635.7600 621.4400L1704.1600 621.4400Q1706.8000 621.4400 1708.3600 623Q1709.9200 624.5600 1709.9200 627.2000L1709.9200 627.2000L1709.9200 644.2400Q1709.9200 646.6400 1708.3600 648.3200Q1706.8000 650 1704.1600 650L1704.1600 650Z" id="lecture-full-number"/></g></svg>