<svg xmlns="http://www.w3.org/2000/svg" version="1.1" xmlns:xlink="http://www.w3.org/1999/xlink" xmlns:svgjs="http://svgjs.dev/svgjs" viewBox="0 0 1920 1080" id="821346c6-a29f-435f-b17f-c7dd3bcb941c"><g><rect width="1920" height="1080" fill="#988f2a"/></g><g fill="#991c47"><path d="M745.478 668.096L1087.28 1009.97L1200.88 896.347L859.076 554.473L745.478 668.096Z"/><path d="M858.951 554.294L517.152 896.168L630.75 1009.79L972.549 667.917L858.951 554.294Z"/><path d="M289.239 668.391L631.038 1010.27L744.636 896.643L402.837 554.769L289.239 668.391Z"/><path d="M402.706 554L60.907 895.874L174.505 1009.5L516.304 667.623L402.706 554Z"/><path d="M-166 667.682L175.799 1009.56L289.397 895.933L-52.4021 554.059L-166 667.682Z"/></g><g fill="#ffffff" opacity="0.2"><path d="M1134 160C1540.91 160 1872 491.086 1872 898C1872 1304.91 1540.91 1636 1134 1636C727.086 1635.56 396 1304.91 396 898C396 491.086 727.086 160 1134 160ZM1134 1611.31C1527.25 1611.31 1847.31 1291.25 1847.31 898C1847.31 504.753 1527.25 184.247 1134 184.247C740.753 184.247 420.247 504.312 420.247 898C420.247 1291.69 740.312 1611.31 1134 1611.31Z"/><path d="M1134 251.699C1490.22 251.699 1780.3 541.785 1780.3 898C1780.3 1254.22 1490.22 1544.3 1134 1544.3C777.785 1544.3 487.699 1254.22 487.699 898C487.699 541.785 777.344 251.699 1134 251.699ZM1134 1519.61C1476.99 1519.61 1756.05 1240.55 1756.05 897.559C1756.05 554.57 1476.99 275.947 1134 275.947C791.011 275.947 511.946 555.011 511.946 898C511.946 1240.99 791.011 1519.61 1134 1519.61Z"/><path d="M1134 342.957C1439.96 342.957 1688.6 592.043 1688.6 897.559C1688.6 1203.52 1439.52 1452.16 1134 1452.16C828.043 1452.16 579.398 1203.08 579.398 897.559C578.957 592.043 828.043 342.957 1134 342.957ZM1134 1428.35C1426.29 1428.35 1664.35 1190.29 1664.35 898C1664.35 605.71 1426.29 367.645 1134 367.645C841.71 367.645 603.645 605.71 603.645 898C603.645 1190.29 841.269 1428.35 1134 1428.35Z"/><path d="M1134 434.656C1389.26 434.656 1597.34 642.301 1597.34 898C1597.34 1153.7 1389.7 1361.34 1134 1361.34C878.742 1361.34 670.656 1153.7 670.656 898C670.656 642.301 878.301 434.656 1134 434.656ZM1134 1336.66C1376.03 1336.66 1572.66 1139.59 1572.66 898C1572.66 656.408 1375.59 459.344 1134 459.344C891.968 459.344 695.344 656.408 695.344 898C695.344 1139.59 891.968 1336.66 1134 1336.66Z"/><path d="M1134 526.354C1339 526.354 1505.65 693 1505.65 898C1505.65 1103 1339 1269.64 1134 1269.64C929 1269.64 762.355 1103 762.355 898C762.355 693 929 526.354 1134 526.354ZM1134 1244.96C1325.33 1244.96 1481.4 1089.33 1481.4 897.559C1481.4 706.225 1325.77 550.161 1134 550.161C942.667 550.161 786.602 705.785 786.602 897.559C786.602 1089.33 942.226 1244.96 1134 1244.96Z"/><path d="M1134 617.613C1288.3 617.613 1414.39 743.258 1414.39 898C1414.39 1052.74 1288.74 1178.39 1134 1178.39C979.699 1178.39 853.613 1052.74 853.613 898C853.613 743.258 979.258 617.613 1134 617.613ZM1134 1153.7C1275.08 1153.7 1389.7 1039.08 1389.7 898C1389.7 756.925 1275.08 642.301 1134 642.301C992.925 642.301 878.301 756.925 878.301 898C878.301 1039.08 992.925 1153.7 1134 1153.7Z"/><path d="M1134 709.312C1238.04 709.312 1322.69 793.957 1322.69 898C1322.69 1002.04 1238.04 1086.69 1134 1086.69C1029.96 1086.69 945.312 1002.04 945.312 898C945.312 793.957 1029.96 709.312 1134 709.312ZM1134 1062C1224.38 1062 1298.44 988.377 1298.44 897.559C1298.44 807.183 1224.82 733.118 1134 733.118C1043.62 733.118 969.559 806.742 969.559 897.559C969.559 988.377 1043.18 1062 1134 1062Z"/><path d="M1134 800.57C1187.34 800.57 1230.99 844.215 1230.99 897.56C1230.99 950.904 1187.34 994.549 1134 994.549C1080.66 994.549 1037.01 950.904 1037.01 897.56C1036.57 844.215 1080.22 800.57 1134 800.57ZM1134 970.742C1174.12 970.742 1206.74 938.119 1206.74 898C1206.74 857.882 1174.12 825.258 1134 825.258C1093.88 825.258 1061.26 857.882 1061.26 898C1061.26 938.119 1093.88 970.742 1134 970.742Z"/></g><g><path d="M178.635 139.281L184.422 144.246V166.626H215.704L219.958 172.147L215.69 177.397H184.422V198.795L178.635 203.747L173 198.795V144.232L178.635 139.281ZM195.554 195.68H219.406L223.397 200.915L219.143 206.45H195.554L191.7 201.342L195.554 195.68ZM196.382 138H219.129L223.383 143.52L219.129 148.77H196.659L192.115 143.677L196.382 138ZM323.155 148.628L328.251 154.291L323.155 159.968H246.13L241.172 154.291L246.13 148.628H323.155ZM237.043 172.147L241.849 167.893L246.669 172.147V178.393C246.669 188.879 249.417 197.515 261.668 197.515H264.14C275.147 197.515 281.197 189.86 281.197 177.952V172.005L285.879 167.75L290.699 171.862V178.379C290.699 189.007 293.723 196.946 305.56 196.946H307.618C319.178 196.946 321.235 187.869 321.373 177.952V171.578L326.056 167.608L331 171.72V178.094C330.862 191.838 327.285 207.574 308.032 207.574H305.974C294.552 207.574 288.365 202.324 285.892 195.808C283.006 202.466 275.299 208.286 264.844 208.286H262.358C242.553 208.286 237.194 195.964 237.056 178.663V172.147H237.043ZM276.391 274.744L273.642 267.089L280.796 264.969L305.974 276.721V252.491L311.07 248.095L316.291 252.491V281.829L325.641 286.226L328.251 293.311L320.959 296L276.391 274.744ZM321.235 223.011L328.113 226.27L325.917 233.497L264.002 263.119L256.571 260.146L259.596 252.776L321.235 223.011ZM231.905 263.404L237.954 268.512C237.402 286.51 222.403 296 204.669 296H202.874C194.062 296 183.759 292.6 177.157 286.083L177.834 278.855L184.298 278.002C189.118 282.256 195.858 285.229 202.183 285.229H204.117C216.091 285.229 225.303 280.136 226.27 268.085L231.905 263.404ZM226.256 251.638C225.704 239.16 216.629 234.209 204.103 234.209H202.169C194.739 234.209 189.104 237.182 184.284 241.436L177.834 240.583L177.143 233.355C183.745 226.696 192.957 223.58 202.597 223.58H204.517C222.403 223.58 237.402 232.942 237.94 251.211L231.891 256.176L226.256 251.638Z" fill="#ffffff"/></g><path d="M1171 781L1171 339L1187 339L1187 781L1171 781Z" fill="#ffffff"/><g fill="#ffffff" id="info-group"><path d="M198.2400 510L159.1800 510Q158.2800 510 157.6500 509.3700Q157.0200 508.7400 157.0200 507.8400L157.0200 507.8400L157.0200 449.1600Q157.0200 448.2600 157.6500 447.6300Q158.2800 447 159.1800 447L159.1800 447L167.5500 447Q168.4500 447 169.0800 447.6300Q169.7100 448.2600 169.7100 449.1600L169.7100 449.1600L169.7100 499.2900L198.2400 499.2900Q199.2300 499.2900 199.8600 499.9200Q200.4900 500.5500 200.4900 501.5400L200.4900 501.5400L200.4900 507.8400Q200.4900 508.7400 199.8600 509.3700Q199.2300 510 198.2400 510L198.2400 510ZM221.7300 510.9000L221.7300 510.9000Q217.0500 510.9000 213.2700 509.0550Q209.4900 507.2100 207.2850 504.1050Q205.0800 501 205.0800 497.1300L205.0800 497.1300Q205.0800 490.8300 210.2100 487.0950Q215.3400 483.3600 223.6200 482.1000L223.6200 482.1000L235.9500 480.3000L235.9500 478.4100Q235.9500 474.6300 234.0600 472.5600Q232.1700 470.4900 227.5800 470.4900L227.5800 470.4900Q224.3400 470.4900 222.3150 471.7950Q220.2900 473.1000 219.3000 475.2600L219.3000 475.2600Q218.5800 476.4300 217.2300 476.4300L217.2300 476.4300L210.1200 476.4300Q209.1300 476.4300 208.6350 475.8900Q208.1400 475.3500 208.1400 474.4500L208.1400 474.4500Q208.2300 473.0100 209.3550 470.9400Q210.4800 468.8700 212.7750 466.9350Q215.0700 465 218.7600 463.6500Q222.4500 462.3000 227.6700 462.3000L227.6700 462.3000Q233.3400 462.3000 237.2550 463.6950Q241.1700 465.0900 243.5100 467.4300Q245.8500 469.7700 246.9300 472.9200Q248.0100 476.0700 248.0100 479.5800L248.0100 479.5800L248.0100 507.8400Q248.0100 508.7400 247.3800 509.3700Q246.7500 510 245.8500 510L245.8500 510L238.5600 510Q237.5700 510 236.9850 509.3700Q236.4000 508.7400 236.4000 507.8400L236.4000 507.8400L236.4000 504.3300Q235.2300 505.9500 233.2500 507.4800Q231.2700 509.0100 228.4350 509.9550Q225.6000 510.9000 221.7300 510.9000ZM224.7900 502.3500L224.7900 502.3500Q227.9400 502.3500 230.5050 501Q233.0700 499.6500 234.5550 496.8150Q236.0400 493.9800 236.0400 489.6600L236.0400 489.6600L236.0400 487.7700L227.0400 489.2100Q221.7300 490.0200 219.1200 491.8200Q216.5100 493.6200 216.5100 496.2300L216.5100 496.2300Q216.5100 498.2100 217.7250 499.6050Q218.9400 501 220.8300 501.6750Q222.7200 502.3500 224.7900 502.3500ZM269.6100 510L261.6900 510Q260.7900 510 260.1600 509.3700Q259.5300 508.7400 259.5300 507.8400L259.5300 507.8400L259.5300 465.3600Q259.5300 464.4600 260.1600 463.8300Q260.7900 463.2000 261.6900 463.2000L261.6900 463.2000L269.0700 463.2000Q269.9700 463.2000 270.6000 463.8300Q271.2300 464.4600 271.2300 465.3600L271.2300 465.3600L271.2300 469.0500Q273.5700 466.1700 277.2150 464.2350Q280.8600 462.3000 286.2600 462.3000L286.2600 462.3000Q291.7500 462.3000 295.8000 464.7750Q299.8500 467.2500 302.0550 471.7500Q304.2600 476.2500 304.2600 482.5500L304.2600 482.5500L304.2600 507.8400Q304.2600 508.7400 303.6300 509.3700Q303 510 302.1000 510L302.1000 510L294.1800 510Q293.2800 510 292.6500 509.3700Q292.0200 508.7400 292.0200 507.8400L292.0200 507.8400L292.0200 483.0900Q292.0200 477.8700 289.4550 474.9000Q286.8900 471.9300 282.0300 471.9300L282.0300 471.9300Q277.3500 471.9300 274.5600 474.9000Q271.7700 477.8700 271.7700 483.0900L271.7700 483.0900L271.7700 507.8400Q271.7700 508.7400 271.1400 509.3700Q270.5100 510 269.6100 510L269.6100 510ZM333.0600 510.9000L333.0600 510.9000Q328.3800 510.9000 324.8250 509.3250Q321.2700 507.7500 318.9300 504.8700Q316.5900 501.9900 315.3300 498.0750Q314.0700 494.1600 313.8900 489.4800L313.8900 489.4800Q313.8000 487.8600 313.8000 486.5550Q313.8000 485.2500 313.8900 483.6300L313.8900 483.6300Q314.0700 479.1300 315.2850 475.2600Q316.5000 471.3900 318.8850 468.4650Q321.2700 465.5400 324.8250 463.9200Q328.3800 462.3000 333.0600 462.3000L333.0600 462.3000Q337.9200 462.3000 341.2950 463.9650Q344.6700 465.6300 346.9200 468.2400L346.9200 468.2400L346.9200 448.2600Q346.9200 447.3600 347.5050 446.7300Q348.0900 446.1000 349.0800 446.1000L349.0800 446.1000L356.7300 446.1000Q357.6300 446.1000 358.2600 446.7300Q358.8900 447.3600 358.8900 448.2600L358.8900 448.2600L358.8900 507.8400Q358.8900 508.7400 358.2600 509.3700Q357.6300 510 356.7300 510L356.7300 510L349.6200 510Q348.6300 510 348.0450 509.3700Q347.4600 508.7400 347.4600 507.8400L347.4600 507.8400L347.4600 504.5100Q345.2100 507.3000 341.7450 509.1000Q338.2800 510.9000 333.0600 510.9000ZM336.3900 501.2700L336.3900 501.2700Q340.1700 501.2700 342.4200 499.5600Q344.6700 497.8500 345.7500 495.1950Q346.8300 492.5400 346.9200 489.7500L346.9200 489.7500Q347.0100 488.1300 347.0100 486.2850Q347.0100 484.4400 346.9200 482.8200L346.9200 482.8200Q346.8300 480.1200 345.6600 477.6450Q344.4900 475.1700 342.2400 473.5500Q339.9900 471.9300 336.3900 471.9300L336.3900 471.9300Q332.6100 471.9300 330.4050 473.5950Q328.2000 475.2600 327.2100 477.9600Q326.2200 480.6600 326.0400 483.9000L326.0400 483.9000Q325.9500 486.6000 326.0400 489.3000L326.0400 489.3000Q326.2200 492.5400 327.2100 495.2400Q328.2000 497.9400 330.4050 499.6050Q332.6100 501.2700 336.3900 501.2700ZM380.4900 510L373.0200 510Q372.1200 510 371.4900 509.3700Q370.8600 508.7400 370.8600 507.8400L370.8600 507.8400L370.8600 465.3600Q370.8600 464.4600 371.4900 463.8300Q372.1200 463.2000 373.0200 463.2000L373.0200 463.2000L380.4900 463.2000Q381.4800 463.2000 382.0650 463.8300Q382.6500 464.4600 382.6500 465.3600L382.6500 465.3600L382.6500 507.8400Q382.6500 508.7400 382.0650 509.3700Q381.4800 510 380.4900 510L380.4900 510ZM380.8500 455.4600L372.6600 455.4600Q371.7600 455.4600 371.1300 454.8300Q370.5000 454.2000 370.5000 453.3000L370.5000 453.3000L370.5000 446.8200Q370.5000 445.9200 371.1300 445.2900Q371.7600 444.6600 372.6600 444.6600L372.6600 444.6600L380.8500 444.6600Q381.8400 444.6600 382.4700 445.2900Q383.1000 445.9200 383.1000 446.8200L383.1000 446.8200L383.1000 453.3000Q383.1000 454.2000 382.4700 454.8300Q381.8400 455.4600 380.8500 455.4600L380.8500 455.4600ZM404.7000 510L396.7800 510Q395.8800 510 395.2500 509.3700Q394.6200 508.7400 394.6200 507.8400L394.6200 507.8400L394.6200 465.3600Q394.6200 464.4600 395.2500 463.8300Q395.8800 463.2000 396.7800 463.2000L396.7800 463.2000L404.1600 463.2000Q405.0600 463.2000 405.6900 463.8300Q406.3200 464.4600 406.3200 465.3600L406.3200 465.3600L406.3200 469.0500Q408.6600 466.1700 412.3050 464.2350Q415.9500 462.3000 421.3500 462.3000L421.3500 462.3000Q426.8400 462.3000 430.8900 464.7750Q434.9400 467.2500 437.1450 471.7500Q439.3500 476.2500 439.3500 482.5500L439.3500 482.5500L439.3500 507.8400Q439.3500 508.7400 438.7200 509.3700Q438.0900 510 437.1900 510L437.1900 510L429.2700 510Q428.3700 510 427.7400 509.3700Q427.1100 508.7400 427.1100 507.8400L427.1100 507.8400L427.1100 483.0900Q427.1100 477.8700 424.5450 474.9000Q421.9800 471.9300 417.1200 471.9300L417.1200 471.9300Q412.4400 471.9300 409.6500 474.9000Q406.8600 477.8700 406.8600 483.0900L406.8600 483.0900L406.8600 507.8400Q406.8600 508.7400 406.2300 509.3700Q405.6000 510 404.7000 510L404.7000 510ZM471.9300 529.8000L471.9300 529.8000Q465.3600 529.8000 461.1300 528.0900Q456.9000 526.3800 454.4700 523.9500Q452.0400 521.5200 451.0050 519.1350Q449.9700 516.7500 449.8800 515.4000L449.8800 515.4000Q449.7900 514.5000 450.4650 513.8250Q451.1400 513.1500 452.0400 513.1500L452.0400 513.1500L459.8700 513.1500Q460.7700 513.1500 461.3100 513.5550Q461.8500 513.9600 462.2100 515.0400L462.2100 515.0400Q462.7500 516.2100 463.6500 517.5600Q464.5500 518.9100 466.3950 519.8550Q468.2400 520.8000 471.4800 520.8000L471.4800 520.8000Q474.9000 520.8000 477.2400 519.8100Q479.5800 518.8200 480.7950 516.4800Q482.0100 514.1400 482.0100 510L482.0100 510L482.0100 503.8800Q479.8500 506.4900 476.4750 508.1100Q473.1000 509.7300 468.1500 509.7300L468.1500 509.7300Q463.3800 509.7300 459.8250 508.1550Q456.2700 506.5800 453.9300 503.7450Q451.5900 500.9100 450.3750 497.0400Q449.1600 493.1700 448.9800 488.4900L448.9800 488.4900Q448.8900 486.0600 448.9800 483.6300L448.9800 483.6300Q449.1600 479.1300 450.3750 475.2600Q451.5900 471.3900 453.9300 468.4650Q456.2700 465.5400 459.8250 463.9200Q463.3800 462.3000 468.1500 462.3000L468.1500 462.3000Q473.2800 462.3000 476.7900 464.2350Q480.3000 466.1700 482.5500 469.0500L482.5500 469.0500L482.5500 465.4500Q482.5500 464.4600 483.1800 463.8300Q483.8100 463.2000 484.7100 463.2000L484.7100 463.2000L492 463.2000Q492.9000 463.2000 493.5300 463.8300Q494.1600 464.4600 494.1600 465.4500L494.1600 465.4500L494.2500 508.8300Q494.2500 515.3100 491.8200 519.9900Q489.3900 524.6700 484.4850 527.2350Q479.5800 529.8000 471.9300 529.8000ZM471.4800 500.1900L471.4800 500.1900Q475.1700 500.1900 477.4200 498.5700Q479.6700 496.9500 480.7500 494.3400Q481.8300 491.7300 482.0100 489.0300L482.0100 489.0300Q482.1000 487.8600 482.1000 486.0600Q482.1000 484.2600 482.0100 483.1800L482.0100 483.1800Q481.8300 480.3900 480.7500 477.8250Q479.6700 475.2600 477.4200 473.5950Q475.1700 471.9300 471.4800 471.9300L471.4800 471.9300Q467.7900 471.9300 465.5400 473.5950Q463.2900 475.2600 462.3450 477.9600Q461.4000 480.6600 461.2200 483.9000L461.2200 483.9000Q461.0400 486.0600 461.2200 488.3100L461.2200 488.3100Q461.4000 491.4600 462.3450 494.2050Q463.2900 496.9500 465.5400 498.5700Q467.7900 500.1900 471.4800 500.1900ZM538.6200 510L530.0700 510Q529.1700 510 528.5400 509.3700Q527.9100 508.7400 527.9100 507.8400L527.9100 507.8400L527.9100 449.2500Q527.9100 448.2600 528.5400 447.6300Q529.1700 447 530.0700 447L530.0700 447L554.1900 447Q561.2100 447 566.4300 449.2050Q571.6500 451.4100 574.5300 455.8650Q577.4100 460.3200 577.4100 466.9800L577.4100 466.9800Q577.4100 473.7300 574.5300 478.0950Q571.6500 482.4600 566.4300 484.6200Q561.2100 486.7800 554.1900 486.7800L554.1900 486.7800L540.7800 486.7800L540.7800 507.8400Q540.7800 508.7400 540.1950 509.3700Q539.6100 510 538.6200 510L538.6200 510ZM540.6000 456.9900L540.6000 476.7900L553.7400 476.7900Q558.9600 476.7900 561.7500 474.3150Q564.5400 471.8400 564.5400 466.9800L564.5400 466.9800Q564.5400 462.4800 561.9300 459.7350Q559.3200 456.9900 553.7400 456.9900L553.7400 456.9900L540.6000 456.9900ZM599.7300 510.9000L599.7300 510.9000Q595.0500 510.9000 591.2700 509.0550Q587.4900 507.2100 585.2850 504.1050Q583.0800 501 583.0800 497.1300L583.0800 497.1300Q583.0800 490.8300 588.2100 487.0950Q593.3400 483.3600 601.6200 482.1000L601.6200 482.1000L613.9500 480.3000L613.9500 478.4100Q613.9500 474.6300 612.0600 472.5600Q610.1700 470.4900 605.5800 470.4900L605.5800 470.4900Q602.3400 470.4900 600.3150 471.7950Q598.2900 473.1000 597.3000 475.2600L597.3000 475.2600Q596.5800 476.4300 595.2300 476.4300L595.2300 476.4300L588.1200 476.4300Q587.1300 476.4300 586.6350 475.8900Q586.1400 475.3500 586.1400 474.4500L586.1400 474.4500Q586.2300 473.0100 587.3550 470.9400Q588.4800 468.8700 590.7750 466.9350Q593.0700 465 596.7600 463.6500Q600.4500 462.3000 605.6700 462.3000L605.6700 462.3000Q611.3400 462.3000 615.2550 463.6950Q619.1700 465.0900 621.5100 467.4300Q623.8500 469.7700 624.9300 472.9200Q626.0100 476.0700 626.0100 479.5800L626.0100 479.5800L626.0100 507.8400Q626.0100 508.7400 625.3800 509.3700Q624.7500 510 623.8500 510L623.8500 510L616.5600 510Q615.5700 510 614.9850 509.3700Q614.4000 508.7400 614.4000 507.8400L614.4000 507.8400L614.4000 504.3300Q613.2300 505.9500 611.2500 507.4800Q609.2700 509.0100 606.4350 509.9550Q603.6000 510.9000 599.7300 510.9000ZM602.7900 502.3500L602.7900 502.3500Q605.9400 502.3500 608.5050 501Q611.0700 499.6500 612.5550 496.8150Q614.0400 493.9800 614.0400 489.6600L614.0400 489.6600L614.0400 487.7700L605.0400 489.2100Q599.7300 490.0200 597.1200 491.8200Q594.5100 493.6200 594.5100 496.2300L594.5100 496.2300Q594.5100 498.2100 595.7250 499.6050Q596.9400 501 598.8300 501.6750Q600.7200 502.3500 602.7900 502.3500ZM658.6800 529.8000L658.6800 529.8000Q652.1100 529.8000 647.8800 528.0900Q643.6500 526.3800 641.2200 523.9500Q638.7900 521.5200 637.7550 519.1350Q636.7200 516.7500 636.6300 515.4000L636.6300 515.4000Q636.5400 514.5000 637.2150 513.8250Q637.8900 513.1500 638.7900 513.1500L638.7900 513.1500L646.6200 513.1500Q647.5200 513.1500 648.0600 513.5550Q648.6000 513.9600 648.9600 515.0400L648.9600 515.0400Q649.5000 516.2100 650.4000 517.5600Q651.3000 518.9100 653.1450 519.8550Q654.9900 520.8000 658.2300 520.8000L658.2300 520.8000Q661.6500 520.8000 663.9900 519.8100Q666.3300 518.8200 667.5450 516.4800Q668.7600 514.1400 668.7600 510L668.7600 510L668.7600 503.8800Q666.6000 506.4900 663.2250 508.1100Q659.8500 509.7300 654.9000 509.7300L654.9000 509.7300Q650.1300 509.7300 646.5750 508.1550Q643.0200 506.5800 640.6800 503.7450Q638.3400 500.9100 637.1250 497.0400Q635.9100 493.1700 635.7300 488.4900L635.7300 488.4900Q635.6400 486.0600 635.7300 483.6300L635.7300 483.6300Q635.9100 479.1300 637.1250 475.2600Q638.3400 471.3900 640.6800 468.4650Q643.0200 465.5400 646.5750 463.9200Q650.1300 462.3000 654.9000 462.3000L654.9000 462.3000Q660.0300 462.3000 663.5400 464.2350Q667.0500 466.1700 669.3000 469.0500L669.3000 469.0500L669.3000 465.4500Q669.3000 464.4600 669.9300 463.8300Q670.5600 463.2000 671.4600 463.2000L671.4600 463.2000L678.7500 463.2000Q679.6500 463.2000 680.2800 463.8300Q680.9100 464.4600 680.9100 465.4500L680.9100 465.4500L681.0000 508.8300Q681.0000 515.3100 678.5700 519.9900Q676.1400 524.6700 671.2350 527.2350Q666.3300 529.8000 658.6800 529.8000ZM658.2300 500.1900L658.2300 500.1900Q661.9200 500.1900 664.1700 498.5700Q666.4200 496.9500 667.5000 494.3400Q668.5800 491.7300 668.7600 489.0300L668.7600 489.0300Q668.8500 487.8600 668.8500 486.0600Q668.8500 484.2600 668.7600 483.1800L668.7600 483.1800Q668.5800 480.3900 667.5000 477.8250Q666.4200 475.2600 664.1700 473.5950Q661.9200 471.9300 658.2300 471.9300L658.2300 471.9300Q654.5400 471.9300 652.2900 473.5950Q650.0400 475.2600 649.0950 477.9600Q648.1500 480.6600 647.9700 483.9000L647.9700 483.9000Q647.7900 486.0600 647.9700 488.3100L647.9700 488.3100Q648.1500 491.4600 649.0950 494.2050Q650.0400 496.9500 652.2900 498.5700Q654.5400 500.1900 658.2300 500.1900ZM713.1300 510.9000L713.1300 510.9000Q703.1400 510.9000 697.2900 505.1400Q691.4400 499.3800 690.9900 488.7600L690.9900 488.7600Q690.9000 487.8600 690.9000 486.4650Q690.9000 485.0700 690.9900 484.2600L690.9900 484.2600Q691.3500 477.4200 694.0950 472.5150Q696.8400 467.6100 701.7000 464.9550Q706.5600 462.3000 713.1300 462.3000L713.1300 462.3000Q720.4200 462.3000 725.3700 465.3150Q730.3200 468.3300 732.8400 473.6850Q735.3600 479.0400 735.3600 486.0600L735.3600 486.0600L735.3600 487.9500Q735.3600 488.8500 734.7300 489.4800Q734.1000 490.1100 733.1100 490.1100L733.1100 490.1100L703.2300 490.1100Q703.2300 490.1100 703.2300 490.3800Q703.2300 490.6500 703.2300 490.8300L703.2300 490.8300Q703.3200 493.9800 704.4450 496.6350Q705.5700 499.2900 707.7750 500.9100Q709.9800 502.5300 713.0400 502.5300L713.0400 502.5300Q715.5600 502.5300 717.2700 501.7650Q718.9800 501 720.0600 500.0100Q721.1400 499.0200 721.5900 498.3900L721.5900 498.3900Q722.4000 497.3100 722.8950 497.0850Q723.3900 496.8600 724.3800 496.8600L724.3800 496.8600L732.1200 496.8600Q733.0200 496.8600 733.6050 497.4000Q734.1900 497.9400 734.1000 498.7500L734.1000 498.7500Q734.0100 500.1900 732.6150 502.2600Q731.2200 504.3300 728.6100 506.3100Q726 508.2900 722.0850 509.5950Q718.1700 510.9000 713.1300 510.9000ZM703.2300 482.2800L703.2300 482.5500L723.1200 482.5500L723.1200 482.2800Q723.1200 478.7700 721.9500 476.1150Q720.7800 473.4600 718.5300 471.9750Q716.2800 470.4900 713.1300 470.4900L713.1300 470.4900Q709.9800 470.4900 707.7300 471.9750Q705.4800 473.4600 704.3550 476.1150Q703.2300 478.7700 703.2300 482.2800L703.2300 482.2800ZM795.0300 488.1300L767.4000 488.1300Q766.4100 488.1300 765.8250 487.5000Q765.2400 486.8700 765.2400 485.9700L765.2400 485.9700L765.2400 480.0300Q765.2400 479.1300 765.8250 478.5000Q766.4100 477.8700 767.4000 477.8700L767.4000 477.8700L795.0300 477.8700Q795.9300 477.8700 796.5600 478.5000Q797.1900 479.1300 797.1900 480.0300L797.1900 480.0300L797.1900 485.9700Q797.1900 486.8700 796.5600 487.5000Q795.9300 488.1300 795.0300 488.1300L795.0300 488.1300ZM165.8400 617.1000L158.1900 617.1000Q157.2900 617.1000 156.6600 616.4700Q156.0300 615.8400 156.0300 614.9400L156.0300 614.9400L156.0300 555.3600Q156.0300 554.4600 156.6600 553.8300Q157.2900 553.2000 158.1900 553.2000L158.1900 553.2000L165.3000 553.2000Q166.2900 553.2000 166.8750 553.8300Q167.4600 554.4600 167.4600 555.3600L167.4600 555.3600L167.4600 558.9600Q169.6200 556.0800 173.1300 554.1900Q176.6400 552.3000 181.8600 552.3000L181.8600 552.3000Q186.6300 552.3000 190.1400 553.8300Q193.6500 555.3600 195.9900 558.1950Q198.3300 561.0300 199.5900 564.9000Q200.8500 568.7700 201.0300 573.4500L201.0300 573.4500Q201.1200 574.9800 201.1200 576.6000Q201.1200 578.2200 201.0300 579.8400L201.0300 579.8400Q200.9400 584.3400 199.6800 588.1650Q198.4200 591.9900 196.0350 594.8250Q193.6500 597.6600 190.1400 599.2800Q186.6300 600.9000 181.8600 600.9000L181.8600 600.9000Q177 600.9000 173.5800 599.1450Q170.1600 597.3900 168 594.5100L168 594.5100L168 614.9400Q168 615.8400 167.4150 616.4700Q166.8300 617.1000 165.8400 617.1000L165.8400 617.1000ZM178.5300 591.2700L178.5300 591.2700Q182.4000 591.2700 184.5600 589.6050Q186.7200 587.9400 187.7100 585.2400Q188.7000 582.5400 188.8800 579.3000L188.8800 579.3000Q188.9700 576.6000 188.8800 573.9000L188.8800 573.9000Q188.7000 570.6600 187.7100 567.9600Q186.7200 565.2600 184.5600 563.5950Q182.4000 561.9300 178.5300 561.9300L178.5300 561.9300Q174.8400 561.9300 172.5450 563.6400Q170.2500 565.3500 169.2150 568.0050Q168.1800 570.6600 168 573.4500L168 573.4500Q167.9100 575.0700 167.9100 576.8700Q167.9100 578.6700 168 580.3800L168 580.3800Q168.0900 583.0800 169.2600 585.5550Q170.4300 588.0300 172.6800 589.6500Q174.9300 591.2700 178.5300 591.2700ZM224.7900 600.9000L224.7900 600.9000Q220.1100 600.9000 216.3300 599.0550Q212.5500 597.2100 210.3450 594.1050Q208.1400 591 208.1400 587.1300L208.1400 587.1300Q208.1400 580.8300 213.2700 577.0950Q218.4000 573.3600 226.6800 572.1000L226.6800 572.1000L239.0100 570.3000L239.0100 568.4100Q239.0100 564.6300 237.1200 562.5600Q235.2300 560.4900 230.6400 560.4900L230.6400 560.4900Q227.4000 560.4900 225.3750 561.7950Q223.3500 563.1000 222.3600 565.2600L222.3600 565.2600Q221.6400 566.4300 220.2900 566.4300L220.2900 566.4300L213.1800 566.4300Q212.1900 566.4300 211.6950 565.8900Q211.2000 565.3500 211.2000 564.4500L211.2000 564.4500Q211.2900 563.0100 212.4150 560.9400Q213.5400 558.8700 215.8350 556.9350Q218.1300 555 221.8200 553.6500Q225.5100 552.3000 230.7300 552.3000L230.7300 552.3000Q236.4000 552.3000 240.3150 553.6950Q244.2300 555.0900 246.5700 557.4300Q248.9100 559.7700 249.9900 562.9200Q251.0700 566.0700 251.0700 569.5800L251.0700 569.5800L251.0700 597.8400Q251.0700 598.7400 250.4400 599.3700Q249.8100 600 248.9100 600L248.9100 600L241.6200 600Q240.6300 600 240.0450 599.3700Q239.4600 598.7400 239.4600 597.8400L239.4600 597.8400L239.4600 594.3300Q238.2900 595.9500 236.3100 597.4800Q234.3300 599.0100 231.4950 599.9550Q228.6600 600.9000 224.7900 600.9000ZM227.8500 592.3500L227.8500 592.3500Q231 592.3500 233.5650 591Q236.1300 589.6500 237.6150 586.8150Q239.1000 583.9800 239.1000 579.6600L239.1000 579.6600L239.1000 577.7700L230.1000 579.2100Q224.7900 580.0200 222.1800 581.8200Q219.5700 583.6200 219.5700 586.2300L219.5700 586.2300Q219.5700 588.2100 220.7850 589.6050Q222 591 223.8900 591.6750Q225.7800 592.3500 227.8500 592.3500ZM232.4400 546.4500L226.9500 546.4500Q225.5100 546.4500 225.5100 545.0100L225.5100 545.0100Q225.5100 544.2900 225.9600 543.8400L225.9600 543.8400L233.2500 534.9300Q234.1500 533.9400 234.7800 533.6250Q235.4100 533.3100 236.5800 533.3100L236.5800 533.3100L245.5800 533.3100Q247.2900 533.3100 247.2900 535.0200L247.2900 535.0200Q247.2900 535.6500 246.8400 536.1000L246.8400 536.1000L235.6800 545.2800Q234.9600 545.9100 234.2850 546.1800Q233.6100 546.4500 232.4400 546.4500L232.4400 546.4500ZM283.7400 619.8000L283.7400 619.8000Q277.1700 619.8000 272.9400 618.0900Q268.7100 616.3800 266.2800 613.9500Q263.8500 611.5200 262.8150 609.1350Q261.7800 606.7500 261.6900 605.4000L261.6900 605.4000Q261.6000 604.5000 262.2750 603.8250Q262.9500 603.1500 263.8500 603.1500L263.8500 603.1500L271.6800 603.1500Q272.5800 603.1500 273.1200 603.5550Q273.6600 603.9600 274.0200 605.0400L274.0200 605.0400Q274.5600 606.2100 275.4600 607.5600Q276.3600 608.9100 278.2050 609.8550Q280.0500 610.8000 283.2900 610.8000L283.2900 610.8000Q286.7100 610.8000 289.0500 609.8100Q291.3900 608.8200 292.6050 606.4800Q293.8200 604.1400 293.8200 600L293.8200 600L293.8200 593.8800Q291.6600 596.4900 288.2850 598.1100Q284.9100 599.7300 279.9600 599.7300L279.9600 599.7300Q275.1900 599.7300 271.6350 598.1550Q268.0800 596.5800 265.7400 593.7450Q263.4000 590.9100 262.1850 587.0400Q260.9700 583.1700 260.7900 578.4900L260.7900 578.4900Q260.7000 576.0600 260.7900 573.6300L260.7900 573.6300Q260.9700 569.1300 262.1850 565.2600Q263.4000 561.3900 265.7400 558.4650Q268.0800 555.5400 271.6350 553.9200Q275.1900 552.3000 279.9600 552.3000L279.9600 552.3000Q285.0900 552.3000 288.6000 554.2350Q292.1100 556.1700 294.3600 559.0500L294.3600 559.0500L294.3600 555.4500Q294.3600 554.4600 294.9900 553.8300Q295.6200 553.2000 296.5200 553.2000L296.5200 553.2000L303.8100 553.2000Q304.7100 553.2000 305.3400 553.8300Q305.9700 554.4600 305.9700 555.4500L305.9700 555.4500L306.0600 598.8300Q306.0600 605.3100 303.6300 609.9900Q301.2000 614.6700 296.2950 617.2350Q291.3900 619.8000 283.7400 619.8000ZM283.2900 590.1900L283.2900 590.1900Q286.9800 590.1900 289.2300 588.5700Q291.4800 586.9500 292.5600 584.3400Q293.6400 581.7300 293.8200 579.0300L293.8200 579.0300Q293.9100 577.8600 293.9100 576.0600Q293.9100 574.2600 293.8200 573.1800L293.8200 573.1800Q293.6400 570.3900 292.5600 567.8250Q291.4800 565.2600 289.2300 563.5950Q286.9800 561.9300 283.2900 561.9300L283.2900 561.9300Q279.6000 561.9300 277.3500 563.5950Q275.1000 565.2600 274.1550 567.9600Q273.2100 570.6600 273.0300 573.9000L273.0300 573.9000Q272.8500 576.0600 273.0300 578.3100L273.0300 578.3100Q273.2100 581.4600 274.1550 584.2050Q275.1000 586.9500 277.3500 588.5700Q279.6000 590.1900 283.2900 590.1900ZM327.6600 600L320.1900 600Q319.2900 600 318.6600 599.3700Q318.0300 598.7400 318.0300 597.8400L318.0300 597.8400L318.0300 555.3600Q318.0300 554.4600 318.6600 553.8300Q319.2900 553.2000 320.1900 553.2000L320.1900 553.2000L327.6600 553.2000Q328.6500 553.2000 329.2350 553.8300Q329.8200 554.4600 329.8200 555.3600L329.8200 555.3600L329.8200 597.8400Q329.8200 598.7400 329.2350 599.3700Q328.6500 600 327.6600 600L327.6600 600ZM328.0200 545.4600L319.8300 545.4600Q318.9300 545.4600 318.3000 544.8300Q317.6700 544.2000 317.6700 543.3000L317.6700 543.3000L317.6700 536.8200Q317.6700 535.9200 318.3000 535.2900Q318.9300 534.6600 319.8300 534.6600L319.8300 534.6600L328.0200 534.6600Q329.0100 534.6600 329.6400 535.2900Q330.2700 535.9200 330.2700 536.8200L330.2700 536.8200L330.2700 543.3000Q330.2700 544.2000 329.6400 544.8300Q329.0100 545.4600 328.0200 545.4600L328.0200 545.4600ZM351.8700 600L343.9500 600Q343.0500 600 342.4200 599.3700Q341.7900 598.7400 341.7900 597.8400L341.7900 597.8400L341.7900 555.3600Q341.7900 554.4600 342.4200 553.8300Q343.0500 553.2000 343.9500 553.2000L343.9500 553.2000L351.3300 553.2000Q352.2300 553.2000 352.8600 553.8300Q353.4900 554.4600 353.4900 555.3600L353.4900 555.3600L353.4900 559.0500Q355.8300 556.1700 359.4750 554.2350Q363.1200 552.3000 368.5200 552.3000L368.5200 552.3000Q374.0100 552.3000 378.0600 554.7750Q382.1100 557.2500 384.3150 561.7500Q386.5200 566.2500 386.5200 572.5500L386.5200 572.5500L386.5200 597.8400Q386.5200 598.7400 385.8900 599.3700Q385.2600 600 384.3600 600L384.3600 600L376.4400 600Q375.5400 600 374.9100 599.3700Q374.2800 598.7400 374.2800 597.8400L374.2800 597.8400L374.2800 573.0900Q374.2800 567.8700 371.7150 564.9000Q369.1500 561.9300 364.2900 561.9300L364.2900 561.9300Q359.6100 561.9300 356.8200 564.9000Q354.0300 567.8700 354.0300 573.0900L354.0300 573.0900L354.0300 597.8400Q354.0300 598.7400 353.4000 599.3700Q352.7700 600 351.8700 600L351.8700 600ZM411.5400 600.9000L411.5400 600.9000Q406.8600 600.9000 403.0800 599.0550Q399.3000 597.2100 397.0950 594.1050Q394.8900 591 394.8900 587.1300L394.8900 587.1300Q394.8900 580.8300 400.0200 577.0950Q405.1500 573.3600 413.4300 572.1000L413.4300 572.1000L425.7600 570.3000L425.7600 568.4100Q425.7600 564.6300 423.8700 562.5600Q421.9800 560.4900 417.3900 560.4900L417.3900 560.4900Q414.1500 560.4900 412.1250 561.7950Q410.1000 563.1000 409.1100 565.2600L409.1100 565.2600Q408.3900 566.4300 407.0400 566.4300L407.0400 566.4300L399.9300 566.4300Q398.9400 566.4300 398.4450 565.8900Q397.9500 565.3500 397.9500 564.4500L397.9500 564.4500Q398.0400 563.0100 399.1650 560.9400Q400.2900 558.8700 402.5850 556.9350Q404.8800 555 408.5700 553.6500Q412.2600 552.3000 417.4800 552.3000L417.4800 552.3000Q423.1500 552.3000 427.0650 553.6950Q430.9800 555.0900 433.3200 557.4300Q435.6600 559.7700 436.7400 562.9200Q437.8200 566.0700 437.8200 569.5800L437.8200 569.5800L437.8200 597.8400Q437.8200 598.7400 437.1900 599.3700Q436.5600 600 435.6600 600L435.6600 600L428.3700 600Q427.3800 600 426.7950 599.3700Q426.2100 598.7400 426.2100 597.8400L426.2100 597.8400L426.2100 594.3300Q425.0400 595.9500 423.0600 597.4800Q421.0800 599.0100 418.2450 599.9550Q415.4100 600.9000 411.5400 600.9000ZM414.6000 592.3500L414.6000 592.3500Q417.7500 592.3500 420.3150 591Q422.8800 589.6500 424.3650 586.8150Q425.8500 583.9800 425.8500 579.6600L425.8500 579.6600L425.8500 577.7700L416.8500 579.2100Q411.5400 580.0200 408.9300 581.8200Q406.3200 583.6200 406.3200 586.2300L406.3200 586.2300Q406.3200 588.2100 407.5350 589.6050Q408.7500 591 410.6400 591.6750Q412.5300 592.3500 414.6000 592.3500ZM487.3200 600.9000L487.3200 600.9000Q482.6400 600.9000 479.0850 599.3250Q475.5300 597.7500 473.1900 594.8700Q470.8500 591.9900 469.5900 588.0750Q468.3300 584.1600 468.1500 579.4800L468.1500 579.4800Q468.0600 577.8600 468.0600 576.5550Q468.0600 575.2500 468.1500 573.6300L468.1500 573.6300Q468.3300 569.1300 469.5450 565.2600Q470.7600 561.3900 473.1450 558.4650Q475.5300 555.5400 479.0850 553.9200Q482.6400 552.3000 487.3200 552.3000L487.3200 552.3000Q492.1800 552.3000 495.5550 553.9650Q498.9300 555.6300 501.1800 558.2400L501.1800 558.2400L501.1800 538.2600Q501.1800 537.3600 501.7650 536.7300Q502.3500 536.1000 503.3400 536.1000L503.3400 536.1000L510.9900 536.1000Q511.8900 536.1000 512.5200 536.7300Q513.1500 537.3600 513.1500 538.2600L513.1500 538.2600L513.1500 597.8400Q513.1500 598.7400 512.5200 599.3700Q511.8900 600 510.9900 600L510.9900 600L503.8800 600Q502.8900 600 502.3050 599.3700Q501.7200 598.7400 501.7200 597.8400L501.7200 597.8400L501.7200 594.5100Q499.4700 597.3000 496.0050 599.1000Q492.5400 600.9000 487.3200 600.9000ZM490.6500 591.2700L490.6500 591.2700Q494.4300 591.2700 496.6800 589.5600Q498.9300 587.8500 500.0100 585.1950Q501.0900 582.5400 501.1800 579.7500L501.1800 579.7500Q501.2700 578.1300 501.2700 576.2850Q501.2700 574.4400 501.1800 572.8200L501.1800 572.8200Q501.0900 570.1200 499.9200 567.6450Q498.7500 565.1700 496.5000 563.5500Q494.2500 561.9300 490.6500 561.9300L490.6500 561.9300Q486.8700 561.9300 484.6650 563.5950Q482.4600 565.2600 481.4700 567.9600Q480.4800 570.6600 480.3000 573.9000L480.3000 573.9000Q480.2100 576.6000 480.3000 579.3000L480.3000 579.3000Q480.4800 582.5400 481.4700 585.2400Q482.4600 587.9400 484.6650 589.6050Q486.8700 591.2700 490.6500 591.2700ZM545.2800 600.9000L545.2800 600.9000Q535.2900 600.9000 529.4400 595.1400Q523.5900 589.3800 523.1400 578.7600L523.1400 578.7600Q523.0500 577.8600 523.0500 576.4650Q523.0500 575.0700 523.1400 574.2600L523.1400 574.2600Q523.5000 567.4200 526.2450 562.5150Q528.9900 557.6100 533.8500 554.9550Q538.7100 552.3000 545.2800 552.3000L545.2800 552.3000Q552.5700 552.3000 557.5200 555.3150Q562.4700 558.3300 564.9900 563.6850Q567.5100 569.0400 567.5100 576.0600L567.5100 576.0600L567.5100 577.9500Q567.5100 578.8500 566.8800 579.4800Q566.2500 580.1100 565.2600 580.1100L565.2600 580.1100L535.3800 580.1100Q535.3800 580.1100 535.3800 580.3800Q535.3800 580.6500 535.3800 580.8300L535.3800 580.8300Q535.4700 583.9800 536.5950 586.6350Q537.7200 589.2900 539.9250 590.9100Q542.1300 592.5300 545.1900 592.5300L545.1900 592.5300Q547.7100 592.5300 549.4200 591.7650Q551.1300 591 552.2100 590.0100Q553.2900 589.0200 553.7400 588.3900L553.7400 588.3900Q554.5500 587.3100 555.0450 587.0850Q555.5400 586.8600 556.5300 586.8600L556.5300 586.8600L564.2700 586.8600Q565.1700 586.8600 565.7550 587.4000Q566.3400 587.9400 566.2500 588.7500L566.2500 588.7500Q566.1600 590.1900 564.7650 592.2600Q563.3700 594.3300 560.7600 596.3100Q558.1500 598.2900 554.2350 599.5950Q550.3200 600.9000 545.2800 600.9000ZM535.3800 572.2800L535.3800 572.5500L555.2700 572.5500L555.2700 572.2800Q555.2700 568.7700 554.1000 566.1150Q552.9300 563.4600 550.6800 561.9750Q548.4300 560.4900 545.2800 560.4900L545.2800 560.4900Q542.1300 560.4900 539.8800 561.9750Q537.6300 563.4600 536.5050 566.1150Q535.3800 568.7700 535.3800 572.2800L535.3800 572.2800ZM615.0300 600.9000L615.0300 600.9000Q609.5400 600.9000 605.5350 598.4250Q601.5300 595.9500 599.3700 591.4050Q597.2100 586.8600 597.2100 580.6500L597.2100 580.6500L597.2100 555.3600Q597.2100 554.4600 597.8400 553.8300Q598.4700 553.2000 599.3700 553.2000L599.3700 553.2000L607.2900 553.2000Q608.2800 553.2000 608.8650 553.8300Q609.4500 554.4600 609.4500 555.3600L609.4500 555.3600L609.4500 580.1100Q609.4500 591.2700 619.2600 591.2700L619.2600 591.2700Q623.9400 591.2700 626.6850 588.3000Q629.4300 585.3300 629.4300 580.1100L629.4300 580.1100L629.4300 555.3600Q629.4300 554.4600 630.0600 553.8300Q630.6900 553.2000 631.5900 553.2000L631.5900 553.2000L639.5100 553.2000Q640.4100 553.2000 641.0400 553.8300Q641.6700 554.4600 641.6700 555.3600L641.6700 555.3600L641.6700 597.8400Q641.6700 598.7400 641.0400 599.3700Q640.4100 600 639.5100 600L639.5100 600L632.2200 600Q631.2300 600 630.6450 599.3700Q630.0600 598.7400 630.0600 597.8400L630.0600 597.8400L630.0600 594.1500Q627.6300 597.3000 624.0300 599.1000Q620.4300 600.9000 615.0300 600.9000ZM663.2700 600L655.7100 600Q654.8100 600 654.1800 599.3700Q653.5500 598.7400 653.5500 597.8400L653.5500 597.8400L653.5500 555.3600Q653.5500 554.4600 654.1800 553.8300Q654.8100 553.2000 655.7100 553.2000L655.7100 553.2000L662.7300 553.2000Q663.6300 553.2000 664.2600 553.8300Q664.8900 554.4600 664.8900 555.3600L664.8900 555.3600L664.8900 558.4200Q666.7800 555.9000 669.9750 554.1450Q673.1700 552.3900 677.5800 552.3000L677.5800 552.3000Q687.8400 552.1200 691.8900 560.3100L691.8900 560.3100Q693.9600 556.7100 697.8750 554.5050Q701.7900 552.3000 706.5600 552.3000L706.5600 552.3000Q711.2400 552.3000 715.0650 554.4600Q718.8900 556.6200 721.0950 560.9850Q723.3000 565.3500 723.3000 572.0100L723.3000 572.0100L723.3000 597.8400Q723.3000 598.7400 722.6700 599.3700Q722.0400 600 721.1400 600L721.1400 600L713.7600 600Q712.8600 600 712.2300 599.3700Q711.6000 598.7400 711.6000 597.8400L711.6000 597.8400L711.6000 572.7300Q711.6000 568.6800 710.4300 566.2950Q709.2600 563.9100 707.2800 562.9200Q705.3000 561.9300 702.8700 561.9300L702.8700 561.9300Q700.8900 561.9300 698.9100 562.9200Q696.9300 563.9100 695.6700 566.2950Q694.4100 568.6800 694.4100 572.7300L694.4100 572.7300L694.4100 597.8400Q694.4100 598.7400 693.7800 599.3700Q693.1500 600 692.2500 600L692.2500 600L684.8700 600Q683.9700 600 683.3400 599.3700Q682.7100 598.7400 682.7100 597.8400L682.7100 597.8400L682.7100 572.7300Q682.7100 568.6800 681.4500 566.2950Q680.1900 563.9100 678.2100 562.9200Q676.2300 561.9300 673.9800 561.9300L673.9800 561.9300Q671.9100 561.9300 669.9300 562.9650Q667.9500 564 666.6900 566.3400Q665.4300 568.6800 665.4300 572.7300L665.4300 572.7300L665.4300 597.8400Q665.4300 598.7400 664.8000 599.3700Q664.1700 600 663.2700 600L663.2700 600ZM775.5000 600.9000L775.5000 600.9000Q765.5100 600.9000 759.6600 595.1400Q753.8100 589.3800 753.3600 578.7600L753.3600 578.7600Q753.2700 577.8600 753.2700 576.4650Q753.2700 575.0700 753.3600 574.2600L753.3600 574.2600Q753.7200 567.4200 756.4650 562.5150Q759.2100 557.6100 764.0700 554.9550Q768.9300 552.3000 775.5000 552.3000L775.5000 552.3000Q782.7900 552.3000 787.7400 555.3150Q792.6900 558.3300 795.2100 563.6850Q797.7300 569.0400 797.7300 576.0600L797.7300 576.0600L797.7300 577.9500Q797.7300 578.8500 797.1000 579.4800Q796.4700 580.1100 795.4800 580.1100L795.4800 580.1100L765.6000 580.1100Q765.6000 580.1100 765.6000 580.3800Q765.6000 580.6500 765.6000 580.8300L765.6000 580.8300Q765.6900 583.9800 766.8150 586.6350Q767.9400 589.2900 770.1450 590.9100Q772.3500 592.5300 775.4100 592.5300L775.4100 592.5300Q777.9300 592.5300 779.6400 591.7650Q781.3500 591 782.4300 590.0100Q783.5100 589.0200 783.9600 588.3900L783.9600 588.3900Q784.7700 587.3100 785.2650 587.0850Q785.7600 586.8600 786.7500 586.8600L786.7500 586.8600L794.4900 586.8600Q795.3900 586.8600 795.9750 587.4000Q796.5600 587.9400 796.4700 588.7500L796.4700 588.7500Q796.3800 590.1900 794.9850 592.2600Q793.5900 594.3300 790.9800 596.3100Q788.3700 598.2900 784.4550 599.5950Q780.5400 600.9000 775.5000 600.9000ZM765.6000 572.2800L765.6000 572.5500L785.4900 572.5500L785.4900 572.2800Q785.4900 568.7700 784.3200 566.1150Q783.1500 563.4600 780.9000 561.9750Q778.6500 560.4900 775.5000 560.4900L775.5000 560.4900Q772.3500 560.4900 770.1000 561.9750Q767.8500 563.4600 766.7250 566.1150Q765.6000 568.7700 765.6000 572.2800L765.6000 572.2800ZM830.4900 600L823.8300 600Q822.3900 600 821.7150 599.3250Q821.0400 598.6500 820.5900 597.7500L820.5900 597.7500L803.7600 555.9900Q803.5800 555.5400 803.5800 555.1800L803.5800 555.1800Q803.5800 554.3700 804.1650 553.7850Q804.7500 553.2000 805.5600 553.2000L805.5600 553.2000L812.8500 553.2000Q813.9300 553.2000 814.4700 553.7850Q815.0100 554.3700 815.1900 554.9100L815.1900 554.9100L827.1600 586.5000L839.1300 554.9100Q839.3100 554.3700 839.8500 553.7850Q840.3900 553.2000 841.4700 553.2000L841.4700 553.2000L848.8500 553.2000Q849.5700 553.2000 850.1550 553.7850Q850.7400 554.3700 850.7400 555.1800L850.7400 555.1800Q850.7400 555.5400 850.6500 555.9900L850.6500 555.9900L833.7300 597.7500Q833.3700 598.6500 832.6500 599.3250Q831.9300 600 830.4900 600L830.4900 600ZM879.0900 600.9000L879.0900 600.9000Q869.1000 600.9000 863.2500 595.1400Q857.4000 589.3800 856.9500 578.7600L856.9500 578.7600Q856.8600 577.8600 856.8600 576.4650Q856.8600 575.0700 856.9500 574.2600L856.9500 574.2600Q857.3100 567.4200 860.0550 562.5150Q862.8000 557.6100 867.6600 554.9550Q872.5200 552.3000 879.0900 552.3000L879.0900 552.3000Q886.3800 552.3000 891.3300 555.3150Q896.2800 558.3300 898.8000 563.6850Q901.3200 569.0400 901.3200 576.0600L901.3200 576.0600L901.3200 577.9500Q901.3200 578.8500 900.6900 579.4800Q900.0600 580.1100 899.0700 580.1100L899.0700 580.1100L869.1900 580.1100Q869.1900 580.1100 869.1900 580.3800Q869.1900 580.6500 869.1900 580.8300L869.1900 580.8300Q869.2800 583.9800 870.4050 586.6350Q871.5300 589.2900 873.7350 590.9100Q875.9400 592.5300 879.0000 592.5300L879.0000 592.5300Q881.5200 592.5300 883.2300 591.7650Q884.9400 591 886.0200 590.0100Q887.1000 589.0200 887.5500 588.3900L887.5500 588.3900Q888.3600 587.3100 888.8550 587.0850Q889.3500 586.8600 890.3400 586.8600L890.3400 586.8600L898.0800 586.8600Q898.9800 586.8600 899.5650 587.4000Q900.1500 587.9400 900.0600 588.7500L900.0600 588.7500Q899.9700 590.1900 898.5750 592.2600Q897.1800 594.3300 894.5700 596.3100Q891.9600 598.2900 888.0450 599.5950Q884.1300 600.9000 879.0900 600.9000ZM869.1900 572.2800L869.1900 572.5500L889.0800 572.5500L889.0800 572.2800Q889.0800 568.7700 887.9100 566.1150Q886.7400 563.4600 884.4900 561.9750Q882.2400 560.4900 879.0900 560.4900L879.0900 560.4900Q875.9400 560.4900 873.6900 561.9750Q871.4400 563.4600 870.3150 566.1150Q869.1900 568.7700 869.1900 572.2800L869.1900 572.2800ZM920.9400 600L913.0200 600Q912.1200 600 911.4900 599.3700Q910.8600 598.7400 910.8600 597.8400L910.8600 597.8400L910.8600 555.3600Q910.8600 554.4600 911.4900 553.8300Q912.1200 553.2000 913.0200 553.2000L913.0200 553.2000L920.4000 553.2000Q921.3000 553.2000 921.9300 553.8300Q922.5600 554.4600 922.5600 555.3600L922.5600 555.3600L922.5600 559.0500Q924.9000 556.1700 928.5450 554.2350Q932.1900 552.3000 937.5900 552.3000L937.5900 552.3000Q943.0800 552.3000 947.1300 554.7750Q951.1800 557.2500 953.3850 561.7500Q955.5900 566.2500 955.5900 572.5500L955.5900 572.5500L955.5900 597.8400Q955.5900 598.7400 954.9600 599.3700Q954.3300 600 953.4300 600L953.4300 600L945.5100 600Q944.6100 600 943.9800 599.3700Q943.3500 598.7400 943.3500 597.8400L943.3500 597.8400L943.3500 573.0900Q943.3500 567.8700 940.7850 564.9000Q938.2200 561.9300 933.3600 561.9300L933.3600 561.9300Q928.6800 561.9300 925.8900 564.9000Q923.1000 567.8700 923.1000 573.0900L923.1000 573.0900L923.1000 597.8400Q923.1000 598.7400 922.4700 599.3700Q921.8400 600 920.9400 600L920.9400 600ZM995.4600 600L988.1700 600Q982.7700 600 979.0800 598.1100Q975.3900 596.2200 973.5900 592.4850Q971.7900 588.7500 971.7900 583.1700L971.7900 583.1700L971.7900 562.7400L964.6800 562.7400Q963.7800 562.7400 963.1500 562.1100Q962.5200 561.4800 962.5200 560.4900L962.5200 560.4900L962.5200 555.3600Q962.5200 554.4600 963.1500 553.8300Q963.7800 553.2000 964.6800 553.2000L964.6800 553.2000L971.7900 553.2000L971.7900 538.2600Q971.7900 537.3600 972.3750 536.7300Q972.9600 536.1000 973.9500 536.1000L973.9500 536.1000L981.2400 536.1000Q982.1400 536.1000 982.7700 536.7300Q983.4000 537.3600 983.4000 538.2600L983.4000 538.2600L983.4000 553.2000L994.6500 553.2000Q995.5500 553.2000 996.1800 553.8300Q996.8100 554.4600 996.8100 555.3600L996.8100 555.3600L996.8100 560.4900Q996.8100 561.4800 996.1800 562.1100Q995.5500 562.7400 994.6500 562.7400L994.6500 562.7400L983.4000 562.7400L983.4000 582.2700Q983.4000 585.9600 984.7050 588.0300Q986.0100 590.1000 989.2500 590.1000L989.2500 590.1000L995.4600 590.1000Q996.3600 590.1000 996.9900 590.7300Q997.6200 591.3600 997.6200 592.2600L997.6200 592.2600L997.6200 597.8400Q997.6200 598.7400 996.9900 599.3700Q996.3600 600 995.4600 600L995.4600 600ZM1026.3300 600.9000L1026.3300 600.9000Q1019.1300 600.9000 1014.2250 598.3800Q1009.3200 595.8600 1006.7550 591.2700Q1004.1900 586.6800 1003.8300 580.5600L1003.8300 580.5600Q1003.7400 578.9400 1003.7400 576.6000Q1003.7400 574.2600 1003.8300 572.6400L1003.8300 572.6400Q1004.1900 566.4300 1006.8450 561.8850Q1009.5000 557.3400 1014.4050 554.8200Q1019.3100 552.3000 1026.3300 552.3000L1026.3300 552.3000Q1033.3500 552.3000 1038.2550 554.8200Q1043.1600 557.3400 1045.8150 561.8850Q1048.4700 566.4300 1048.8300 572.6400L1048.8300 572.6400Q1048.9200 574.2600 1048.9200 576.6000Q1048.9200 578.9400 1048.8300 580.5600L1048.8300 580.5600Q1048.4700 586.6800 1045.9050 591.2700Q1043.3400 595.8600 1038.4350 598.3800Q1033.5300 600.9000 1026.3300 600.9000ZM1026.3300 591.9900L1026.3300 591.9900Q1031.1000 591.9900 1033.7100 588.9750Q1036.3200 585.9600 1036.5900 580.1100L1036.5900 580.1100Q1036.6800 578.7600 1036.6800 576.6000Q1036.6800 574.4400 1036.5900 573.0900L1036.5900 573.0900Q1036.3200 567.2400 1033.7100 564.2250Q1031.1000 561.2100 1026.3300 561.2100L1026.3300 561.2100Q1021.5600 561.2100 1018.9500 564.2250Q1016.3400 567.2400 1016.0700 573.0900L1016.0700 573.0900Q1015.9800 574.4400 1015.9800 576.6000Q1015.9800 578.7600 1016.0700 580.1100L1016.0700 580.1100Q1016.3400 585.9600 1018.9500 588.9750Q1021.5600 591.9900 1026.3300 591.9900ZM170.5200 690L163.1400 690Q162.2400 690 161.6100 689.3700Q160.9800 688.7400 160.9800 687.8400L160.9800 687.8400L160.9800 652.7400L153.6900 652.7400Q152.7900 652.7400 152.1600 652.1100Q151.5300 651.4800 151.5300 650.4900L151.5300 650.4900L151.5300 645.3600Q151.5300 644.4600 152.1600 643.8300Q152.7900 643.2000 153.6900 643.2000L153.6900 643.2000L160.9800 643.2000L160.9800 639.5100Q160.9800 634.1100 162.9600 630.5550Q164.9400 627 168.8100 625.2000Q172.6800 623.4000 178.6200 623.4000L178.6200 623.4000L184.7400 623.4000Q185.7300 623.4000 186.3150 624.0300Q186.9000 624.6600 186.9000 625.5600L186.9000 625.5600L186.9000 630.6900Q186.9000 631.6800 186.3150 632.3100Q185.7300 632.9400 184.7400 632.9400L184.7400 632.9400L178.9800 632.9400Q175.3800 632.9400 174.0300 634.7400Q172.6800 636.5400 172.6800 639.9600L172.6800 639.9600L172.6800 643.2000L183.8400 643.2000Q184.8300 643.2000 185.4150 643.8300Q186 644.4600 186 645.3600L186 645.3600L186 650.4900Q186 651.4800 185.4150 652.1100Q184.8300 652.7400 183.8400 652.7400L183.8400 652.7400L172.6800 652.7400L172.6800 687.8400Q172.6800 688.7400 172.0500 689.3700Q171.4200 690 170.5200 690L170.5200 690ZM202.8300 690L195.3600 690Q194.4600 690 193.8300 689.3700Q193.2000 688.7400 193.2000 687.8400L193.2000 687.8400L193.2000 645.3600Q193.2000 644.4600 193.8300 643.8300Q194.4600 643.2000 195.3600 643.2000L195.3600 643.2000L202.8300 643.2000Q203.8200 643.2000 204.4050 643.8300Q204.9900 644.4600 204.9900 645.3600L204.9900 645.3600L204.9900 687.8400Q204.9900 688.7400 204.4050 689.3700Q203.8200 690 202.8300 690L202.8300 690ZM203.1900 635.4600L195 635.4600Q194.1000 635.4600 193.4700 634.8300Q192.8400 634.2000 192.8400 633.3000L192.8400 633.3000L192.8400 626.8200Q192.8400 625.9200 193.4700 625.2900Q194.1000 624.6600 195 624.6600L195 624.6600L203.1900 624.6600Q204.1800 624.6600 204.8100 625.2900Q205.4400 625.9200 205.4400 626.8200L205.4400 626.8200L205.4400 633.3000Q205.4400 634.2000 204.8100 634.8300Q204.1800 635.4600 203.1900 635.4600L203.1900 635.4600ZM237.2100 690.9000L237.2100 690.9000Q230.7300 690.9000 225.8250 688.4700Q220.9200 686.0400 218.1750 681.4050Q215.4300 676.7700 215.1600 670.2000L215.1600 670.2000Q215.0700 668.8500 215.0700 666.6450Q215.0700 664.4400 215.1600 663L215.1600 663Q215.4300 656.4300 218.1750 651.7950Q220.9200 647.1600 225.8250 644.7300Q230.7300 642.3000 237.2100 642.3000L237.2100 642.3000Q242.9700 642.3000 247.0200 643.8750Q251.0700 645.4500 253.6800 647.9250Q256.2900 650.4000 257.5950 653.0550Q258.9000 655.7100 258.9900 657.8700L258.9900 657.8700Q259.0800 658.8600 258.4050 659.4450Q257.7300 660.0300 256.8300 660.0300L256.8300 660.0300L248.9100 660.0300Q248.0100 660.0300 247.5150 659.5800Q247.0200 659.1300 246.5700 658.2300L246.5700 658.2300Q245.2200 654.6300 243.0150 653.1450Q240.8100 651.6600 237.3900 651.6600L237.3900 651.6600Q232.8900 651.6600 230.2350 654.4950Q227.5800 657.3300 227.4000 663.4500L227.4000 663.4500Q227.2200 666.8700 227.4000 669.7500L227.4000 669.7500Q227.5800 675.9600 230.2350 678.7500Q232.8900 681.5400 237.3900 681.5400L237.3900 681.5400Q240.9000 681.5400 243.0600 680.0550Q245.2200 678.5700 246.5700 674.9700L246.5700 674.9700Q247.0200 674.0700 247.5150 673.6200Q248.0100 673.1700 248.9100 673.1700L248.9100 673.1700L256.8300 673.1700Q257.7300 673.1700 258.4050 673.7550Q259.0800 674.3400 258.9900 675.3300L258.9900 675.3300Q258.9000 676.9500 258.1350 678.9750Q257.3700 681 255.7050 683.1150Q254.0400 685.2300 251.5200 686.9850Q249.0000 688.7400 245.4450 689.8200Q241.8900 690.9000 237.2100 690.9000ZM296.7900 690L289.5000 690Q284.1000 690 280.4100 688.1100Q276.7200 686.2200 274.9200 682.4850Q273.1200 678.7500 273.1200 673.1700L273.1200 673.1700L273.1200 652.7400L266.0100 652.7400Q265.1100 652.7400 264.4800 652.1100Q263.8500 651.4800 263.8500 650.4900L263.8500 650.4900L263.8500 645.3600Q263.8500 644.4600 264.4800 643.8300Q265.1100 643.2000 266.0100 643.2000L266.0100 643.2000L273.1200 643.2000L273.1200 628.2600Q273.1200 627.3600 273.7050 626.7300Q274.2900 626.1000 275.2800 626.1000L275.2800 626.1000L282.5700 626.1000Q283.4700 626.1000 284.1000 626.7300Q284.7300 627.3600 284.7300 628.2600L284.7300 628.2600L284.7300 643.2000L295.9800 643.2000Q296.8800 643.2000 297.5100 643.8300Q298.1400 644.4600 298.1400 645.3600L298.1400 645.3600L298.1400 650.4900Q298.1400 651.4800 297.5100 652.1100Q296.8800 652.7400 295.9800 652.7400L295.9800 652.7400L284.7300 652.7400L284.7300 672.2700Q284.7300 675.9600 286.0350 678.0300Q287.3400 680.1000 290.5800 680.1000L290.5800 680.1000L296.7900 680.1000Q297.6900 680.1000 298.3200 680.7300Q298.9500 681.3600 298.9500 682.2600L298.9500 682.2600L298.9500 687.8400Q298.9500 688.7400 298.3200 689.3700Q297.6900 690 296.7900 690L296.7900 690ZM316.5900 690L309.1200 690Q308.2200 690 307.5900 689.3700Q306.9600 688.7400 306.9600 687.8400L306.9600 687.8400L306.9600 645.3600Q306.9600 644.4600 307.5900 643.8300Q308.2200 643.2000 309.1200 643.2000L309.1200 643.2000L316.5900 643.2000Q317.5800 643.2000 318.1650 643.8300Q318.7500 644.4600 318.7500 645.3600L318.7500 645.3600L318.7500 687.8400Q318.7500 688.7400 318.1650 689.3700Q317.5800 690 316.5900 690L316.5900 690ZM314.6100 636.4500L309.1200 636.4500Q307.6800 636.4500 307.6800 635.0100L307.6800 635.0100Q307.6800 634.2900 308.1300 633.8400L308.1300 633.8400L315.4200 624.9300Q316.3200 623.9400 316.9500 623.6250Q317.5800 623.3100 318.7500 623.3100L318.7500 623.3100L327.7500 623.3100Q329.4600 623.3100 329.4600 625.0200L329.4600 625.0200Q329.4600 625.6500 329.0100 626.1000L329.0100 626.1000L317.8500 635.2800Q317.1300 635.9100 316.4550 636.1800Q315.7800 636.4500 314.6100 636.4500L314.6100 636.4500ZM350.9700 690.9000L350.9700 690.9000Q344.4900 690.9000 339.5850 688.4700Q334.6800 686.0400 331.9350 681.4050Q329.1900 676.7700 328.9200 670.2000L328.9200 670.2000Q328.8300 668.8500 328.8300 666.6450Q328.8300 664.4400 328.9200 663L328.9200 663Q329.1900 656.4300 331.9350 651.7950Q334.6800 647.1600 339.5850 644.7300Q344.4900 642.3000 350.9700 642.3000L350.9700 642.3000Q356.7300 642.3000 360.7800 643.8750Q364.8300 645.4500 367.4400 647.9250Q370.0500 650.4000 371.3550 653.0550Q372.6600 655.7100 372.7500 657.8700L372.7500 657.8700Q372.8400 658.8600 372.1650 659.4450Q371.4900 660.0300 370.5900 660.0300L370.5900 660.0300L362.6700 660.0300Q361.7700 660.0300 361.2750 659.5800Q360.7800 659.1300 360.3300 658.2300L360.3300 658.2300Q358.9800 654.6300 356.7750 653.1450Q354.5700 651.6600 351.1500 651.6600L351.1500 651.6600Q346.6500 651.6600 343.9950 654.4950Q341.3400 657.3300 341.1600 663.4500L341.1600 663.4500Q340.9800 666.8700 341.1600 669.7500L341.1600 669.7500Q341.3400 675.9600 343.9950 678.7500Q346.6500 681.5400 351.1500 681.5400L351.1500 681.5400Q354.6600 681.5400 356.8200 680.0550Q358.9800 678.5700 360.3300 674.9700L360.3300 674.9700Q360.7800 674.0700 361.2750 673.6200Q361.7700 673.1700 362.6700 673.1700L362.6700 673.1700L370.5900 673.1700Q371.4900 673.1700 372.1650 673.7550Q372.8400 674.3400 372.7500 675.3300L372.7500 675.3300Q372.6600 676.9500 371.8950 678.9750Q371.1300 681 369.4650 683.1150Q367.8000 685.2300 365.2800 686.9850Q362.7600 688.7400 359.2050 689.8200Q355.6500 690.9000 350.9700 690.9000ZM391.7400 690L384.2700 690Q383.3700 690 382.7400 689.3700Q382.1100 688.7400 382.1100 687.8400L382.1100 687.8400L382.1100 645.3600Q382.1100 644.4600 382.7400 643.8300Q383.3700 643.2000 384.2700 643.2000L384.2700 643.2000L391.7400 643.2000Q392.7300 643.2000 393.3150 643.8300Q393.9000 644.4600 393.9000 645.3600L393.9000 645.3600L393.9000 687.8400Q393.9000 688.7400 393.3150 689.3700Q392.7300 690 391.7400 690L391.7400 690ZM392.1000 635.4600L383.9100 635.4600Q383.0100 635.4600 382.3800 634.8300Q381.7500 634.2000 381.7500 633.3000L381.7500 633.3000L381.7500 626.8200Q381.7500 625.9200 382.3800 625.2900Q383.0100 624.6600 383.9100 624.6600L383.9100 624.6600L392.1000 624.6600Q393.0900 624.6600 393.7200 625.2900Q394.3500 625.9200 394.3500 626.8200L394.3500 626.8200L394.3500 633.3000Q394.3500 634.2000 393.7200 634.8300Q393.0900 635.4600 392.1000 635.4600L392.1000 635.4600ZM426.5700 690.9000L426.5700 690.9000Q419.3700 690.9000 414.4650 688.3800Q409.5600 685.8600 406.9950 681.2700Q404.4300 676.6800 404.0700 670.5600L404.0700 670.5600Q403.9800 668.9400 403.9800 666.6000Q403.9800 664.2600 404.0700 662.6400L404.0700 662.6400Q404.4300 656.4300 407.0850 651.8850Q409.7400 647.3400 414.6450 644.8200Q419.5500 642.3000 426.5700 642.3000L426.5700 642.3000Q433.5900 642.3000 438.4950 644.8200Q443.4000 647.3400 446.0550 651.8850Q448.7100 656.4300 449.0700 662.6400L449.0700 662.6400Q449.1600 664.2600 449.1600 666.6000Q449.1600 668.9400 449.0700 670.5600L449.0700 670.5600Q448.7100 676.6800 446.1450 681.2700Q443.5800 685.8600 438.6750 688.3800Q433.7700 690.9000 426.5700 690.9000ZM426.5700 681.9900L426.5700 681.9900Q431.3400 681.9900 433.9500 678.9750Q436.5600 675.9600 436.8300 670.1100L436.8300 670.1100Q436.9200 668.7600 436.9200 666.6000Q436.9200 664.4400 436.8300 663.0900L436.8300 663.0900Q436.5600 657.2400 433.9500 654.2250Q431.3400 651.2100 426.5700 651.2100L426.5700 651.2100Q421.8000 651.2100 419.1900 654.2250Q416.5800 657.2400 416.3100 663.0900L416.3100 663.0900Q416.2200 664.4400 416.2200 666.6000Q416.2200 668.7600 416.3100 670.1100L416.3100 670.1100Q416.5800 675.9600 419.1900 678.9750Q421.8000 681.9900 426.5700 681.9900Z" id="title"/><path d="M1448.3400 640L1343.1800 640Q1340.9800 640 1339.4400 638.4600Q1337.9000 636.9200 1337.9000 634.7200L1337.9000 634.7200L1337.9000 623.5000Q1337.9000 621.5200 1338.8900 618.7700Q1339.8800 616.0200 1343.4000 613.1600L1343.4000 613.1600L1378.1600 578.6200Q1392.6800 567.1800 1401.5900 559.1500Q1410.5000 551.1200 1414.5700 544.4100Q1418.6400 537.7000 1418.6400 531.1000L1418.6400 531.1000Q1418.6400 521.2000 1413.2500 515.0400Q1407.8600 508.8800 1396.2000 508.8800L1396.2000 508.8800Q1388.5000 508.8800 1383.2200 512.0700Q1377.9400 515.2600 1374.9700 520.5400Q1372 525.8200 1370.9000 532.2000L1370.9000 532.2000Q1370.4600 535.0600 1368.4800 536.1600Q1366.5000 537.2600 1364.5200 537.2600L1364.5200 537.2600L1344.9400 537.2600Q1342.9600 537.2600 1341.6400 535.9400Q1340.3200 534.6200 1340.3200 532.8600L1340.3200 532.8600Q1340.5400 523.4000 1344.2800 514.4900Q1348.0200 505.5800 1355.1700 498.6500Q1362.3200 491.7200 1372.6600 487.5400Q1383 483.3600 1395.9800 483.3600L1395.9800 483.3600Q1414.2400 483.3600 1426.2300 489.5200Q1438.2200 495.6800 1444.2700 506.2400Q1450.3200 516.8000 1450.3200 530L1450.3200 530Q1450.3200 540.3400 1446.3600 549.0300Q1442.4000 557.7200 1434.9200 565.7500Q1427.4400 573.7800 1416.8800 582.1400L1416.8800 582.1400L1385.6400 613.8200L1448.3400 613.8200Q1450.7600 613.8200 1452.1900 615.2500Q1453.6200 616.6800 1453.6200 619.1000L1453.6200 619.1000L1453.6200 634.7200Q1453.6200 636.9200 1452.1900 638.4600Q1450.7600 640 1448.3400 640L1448.3400 640ZM1584.5200 640L1479.3600 640Q1477.1600 640 1475.6200 638.4600Q1474.0800 636.9200 1474.0800 634.7200L1474.0800 634.7200L1474.0800 623.5000Q1474.0800 621.5200 1475.0700 618.7700Q1476.0600 616.0200 1479.5800 613.1600L1479.5800 613.1600L1514.3400 578.6200Q1528.8600 567.1800 1537.7700 559.1500Q1546.6800 551.1200 1550.7500 544.4100Q1554.8200 537.7000 1554.8200 531.1000L1554.8200 531.1000Q1554.8200 521.2000 1549.4300 515.0400Q1544.0400 508.8800 1532.3800 508.8800L1532.3800 508.8800Q1524.6800 508.8800 1519.4000 512.0700Q1514.1200 515.2600 1511.1500 520.5400Q1508.1800 525.8200 1507.0800 532.2000L1507.0800 532.2000Q1506.6400 535.0600 1504.6600 536.1600Q1502.6800 537.2600 1500.7000 537.2600L1500.7000 537.2600L1481.1200 537.2600Q1479.1400 537.2600 1477.8200 535.9400Q1476.5000 534.6200 1476.5000 532.8600L1476.5000 532.8600Q1476.7200 523.4000 1480.4600 514.4900Q1484.2000 505.5800 1491.3500 498.6500Q1498.5000 491.7200 1508.8400 487.5400Q1519.1800 483.3600 1532.1600 483.3600L1532.1600 483.3600Q1550.4200 483.3600 1562.4100 489.5200Q1574.4000 495.6800 1580.4500 506.2400Q1586.5000 516.8000 1586.5000 530L1586.5000 530Q1586.5000 540.3400 1582.5400 549.0300Q1578.5800 557.7200 1571.1000 565.7500Q1563.6200 573.7800 1553.0600 582.1400L1553.0600 582.1400L1521.8200 613.8200L1584.5200 613.8200Q1586.9400 613.8200 1588.3700 615.2500Q1589.8000 616.6800 1589.8000 619.1000L1589.8000 619.1000L1589.8000 634.7200Q1589.8000 636.9200 1588.3700 638.4600Q1586.9400 640 1584.5200 640L1584.5200 640ZM1640.8400 640L1618.8400 640Q1616.6400 640 1615.1000 638.4600Q1613.5600 636.9200 1613.5600 634.7200L1613.5600 634.7200L1613.5600 612.9400Q1613.5600 610.5200 1615.1000 608.9800Q1616.6400 607.4400 1618.8400 607.4400L1618.8400 607.4400L1640.8400 607.4400Q1643.0400 607.4400 1644.5800 608.9800Q1646.1200 610.5200 1646.1200 612.9400L1646.1200 612.9400L1646.1200 634.7200Q1646.1200 636.9200 1644.5800 638.4600Q1643.0400 640 1640.8400 640L1640.8400 640ZM1725.7600 640L1705.7400 640Q1703.3200 640 1701.8900 638.4600Q1700.4600 636.9200 1700.4600 634.7200L1700.4600 634.7200L1700.4600 520.7600L1667.0200 546.5000Q1665.0400 547.8200 1663.0600 547.4900Q1661.0800 547.1600 1659.5400 545.1800L1659.5400 545.1800L1650.3000 533.3000Q1648.9800 531.3200 1649.3100 529.1200Q1649.6400 526.9200 1651.6200 525.6000L1651.6200 525.6000L1700.9000 487.5400Q1702.2200 486.4400 1703.5400 486.2200Q1704.8600 486 1706.4000 486L1706.4000 486L1725.7600 486Q1727.9600 486 1729.5000 487.5400Q1731.0400 489.0800 1731.0400 491.2800L1731.0400 491.2800L1731.0400 634.7200Q1731.0400 636.9200 1729.5000 638.4600Q1727.9600 640 1725.7600 640L1725.7600 640Z" id="lecture-full-number"/></g></svg>