<svg xmlns="http://www.w3.org/2000/svg" version="1.1" xmlns:xlink="http://www.w3.org/1999/xlink" xmlns:svgjs="http://svgjs.dev/svgjs" viewBox="0 0 1920 1080" id="1f7903bb-6f1b-4ea0-b534-86a7d23fed70"><g><rect width="1920" height="1080" fill="#10635e"/></g><g fill="#631a58"><path d="M865 270L865 2467C258.907 2467 -232 1976.03 -232 1369.87C-232 760.965 258.907 270 865 270Z"/></g><g fill="#ffffff" opacity="0.2"><path d="M1829.66 1149.02C1826.52 1125.1 1822.11 1101.18 1817.7 1077.89L1577.22 1318.37H1660.32L1829.66 1149.02Z"/><path d="M1798.82 998.567C1793.15 977.163 1786.23 955.759 1779.3 934.984L1395.92 1319H1479.02L1798.82 998.567Z"/><path d="M1752.86 863.214C1744.68 843.698 1736.5 824.183 1727.68 805.297L1214.61 1319H1297.71L1752.86 863.214Z"/><path d="M1694.32 739.83C1684.88 722.203 1674.17 704.576 1664.1 686.949L1147.89 1203.8C1152.92 1227.72 1156.7 1251.64 1158.59 1276.19L1694.32 739.83Z"/><path d="M1625.07 627.77C1613.73 611.402 1601.77 595.664 1589.81 579.926L1098.78 1071.59C1108.22 1089.85 1117.03 1109.36 1124.59 1128.88L1625.07 627.77Z"/><path d="M1546.38 525.789C1533.79 510.68 1520.57 496.201 1506.72 482.352L1025.12 964.574C1038.35 979.053 1050.31 994.791 1061.64 1011.16L1546.38 525.789Z"/><path d="M1457.61 433.249C1443.13 420.029 1428.65 406.809 1413.54 394.219L928.802 879.589C945.17 890.92 960.908 902.881 975.387 916.101L1457.61 433.249Z"/><path d="M1358.78 350.148C1343.04 338.187 1326.67 326.855 1310.3 315.523L808.564 817.891C828.709 825.445 847.595 833.629 866.481 843.072L1358.78 350.148Z"/><path d="M1251.12 276.495C1233.5 265.793 1215.87 255.72 1198.24 246.277L659.364 785.787C684.545 787.046 709.097 790.194 733.019 795.23L1251.12 276.495Z"/><path d="M1132.14 214.166C1113.26 205.352 1093.74 197.168 1074.23 188.984L626.627 637.212V720.31L1132.14 214.166Z"/><path d="M1001.83 163.175C980.427 156.25 959.023 149.955 937.619 144.289L626 455.908V539.006L1001.83 163.175Z"/><path d="M857.666 126.035C834.373 121.628 810.451 117.851 786.529 114.074L626.627 274.605V357.703L857.666 126.035Z"/><path d="M626.626 176.396L697.134 105.889C673.841 104.629 650.548 104 626.626 104V176.396Z"/></g><g><path d="M178.635 139.281L184.422 144.246V166.626H215.704L219.958 172.147L215.69 177.397H184.422V198.795L178.635 203.747L173 198.795V144.232L178.635 139.281ZM195.554 195.68H219.406L223.397 200.915L219.143 206.45H195.554L191.7 201.342L195.554 195.68ZM196.382 138H219.129L223.383 143.52L219.129 148.77H196.659L192.115 143.677L196.382 138ZM323.155 148.628L328.251 154.291L323.155 159.968H246.13L241.172 154.291L246.13 148.628H323.155ZM237.043 172.147L241.849 167.893L246.669 172.147V178.393C246.669 188.879 249.417 197.515 261.668 197.515H264.14C275.147 197.515 281.197 189.86 281.197 177.952V172.005L285.879 167.75L290.699 171.862V178.379C290.699 189.007 293.723 196.946 305.56 196.946H307.618C319.178 196.946 321.235 187.869 321.373 177.952V171.578L326.056 167.608L331 171.72V178.094C330.862 191.838 327.285 207.574 308.032 207.574H305.974C294.552 207.574 288.365 202.324 285.892 195.808C283.006 202.466 275.299 208.286 264.844 208.286H262.358C242.553 208.286 237.194 195.964 237.056 178.663V172.147H237.043ZM276.391 274.744L273.642 267.089L280.796 264.969L305.974 276.721V252.491L311.07 248.095L316.291 252.491V281.829L325.641 286.226L328.251 293.311L320.959 296L276.391 274.744ZM321.235 223.011L328.113 226.27L325.917 233.497L264.002 263.119L256.571 260.146L259.596 252.776L321.235 223.011ZM231.905 263.404L237.954 268.512C237.402 286.51 222.403 296 204.669 296H202.874C194.062 296 183.759 292.6 177.157 286.083L177.834 278.855L184.298 278.002C189.118 282.256 195.858 285.229 202.183 285.229H204.117C216.091 285.229 225.303 280.136 226.27 268.085L231.905 263.404ZM226.256 251.638C225.704 239.16 216.629 234.209 204.103 234.209H202.169C194.739 234.209 189.104 237.182 184.284 241.436L177.834 240.583L177.143 233.355C183.745 226.696 192.957 223.58 202.597 223.58H204.517C222.403 223.58 237.402 232.942 237.94 251.211L231.891 256.176L226.256 251.638Z" fill="#ffffff"/></g><path d="M1171 781L1171 339L1187 339L1187 781L1171 781Z" fill="#ffffff"/><g fill="#ffffff" id="info-group"><path d="M167.6400 510L159.1800 510Q158.2800 510 157.6500 509.3700Q157.0200 508.7400 157.0200 507.8400L157.0200 507.8400L157.0200 449.1600Q157.0200 448.2600 157.6500 447.6300Q158.2800 447 159.1800 447L159.1800 447L167.6400 447Q168.6300 447 169.2150 447.6300Q169.8000 448.2600 169.8000 449.1600L169.8000 449.1600L169.8000 507.8400Q169.8000 508.7400 169.2150 509.3700Q168.6300 510 167.6400 510L167.6400 510ZM192.9300 510L185.0100 510Q184.1100 510 183.4800 509.3700Q182.8500 508.7400 182.8500 507.8400L182.8500 507.8400L182.8500 465.3600Q182.8500 464.4600 183.4800 463.8300Q184.1100 463.2000 185.0100 463.2000L185.0100 463.2000L192.3900 463.2000Q193.2900 463.2000 193.9200 463.8300Q194.5500 464.4600 194.5500 465.3600L194.5500 465.3600L194.5500 469.0500Q196.8900 466.1700 200.5350 464.2350Q204.1800 462.3000 209.5800 462.3000L209.5800 462.3000Q215.0700 462.3000 219.1200 464.7750Q223.1700 467.2500 225.3750 471.7500Q227.5800 476.2500 227.5800 482.5500L227.5800 482.5500L227.5800 507.8400Q227.5800 508.7400 226.9500 509.3700Q226.3200 510 225.4200 510L225.4200 510L217.5000 510Q216.6000 510 215.9700 509.3700Q215.3400 508.7400 215.3400 507.8400L215.3400 507.8400L215.3400 483.0900Q215.3400 477.8700 212.7750 474.9000Q210.2100 471.9300 205.3500 471.9300L205.3500 471.9300Q200.6700 471.9300 197.8800 474.9000Q195.0900 477.8700 195.0900 483.0900L195.0900 483.0900L195.0900 507.8400Q195.0900 508.7400 194.4600 509.3700Q193.8300 510 192.9300 510L192.9300 510ZM267.4500 510L260.1600 510Q254.7600 510 251.0700 508.1100Q247.3800 506.2200 245.5800 502.4850Q243.7800 498.7500 243.7800 493.1700L243.7800 493.1700L243.7800 472.7400L236.6700 472.7400Q235.7700 472.7400 235.1400 472.1100Q234.5100 471.4800 234.5100 470.4900L234.5100 470.4900L234.5100 465.3600Q234.5100 464.4600 235.1400 463.8300Q235.7700 463.2000 236.6700 463.2000L236.6700 463.2000L243.7800 463.2000L243.7800 448.2600Q243.7800 447.3600 244.3650 446.7300Q244.9500 446.1000 245.9400 446.1000L245.9400 446.1000L253.2300 446.1000Q254.1300 446.1000 254.7600 446.7300Q255.3900 447.3600 255.3900 448.2600L255.3900 448.2600L255.3900 463.2000L266.6400 463.2000Q267.5400 463.2000 268.1700 463.8300Q268.8000 464.4600 268.8000 465.3600L268.8000 465.3600L268.8000 470.4900Q268.8000 471.4800 268.1700 472.1100Q267.5400 472.7400 266.6400 472.7400L266.6400 472.7400L255.3900 472.7400L255.3900 492.2700Q255.3900 495.9600 256.6950 498.0300Q258 500.1000 261.2400 500.1000L261.2400 500.1000L267.4500 500.1000Q268.3500 500.1000 268.9800 500.7300Q269.6100 501.3600 269.6100 502.2600L269.6100 502.2600L269.6100 507.8400Q269.6100 508.7400 268.9800 509.3700Q268.3500 510 267.4500 510L267.4500 510ZM287.6100 510L279.7800 510Q278.8800 510 278.2500 509.3700Q277.6200 508.7400 277.6200 507.8400L277.6200 507.8400L277.6200 465.4500Q277.6200 464.4600 278.2500 463.8300Q278.8800 463.2000 279.7800 463.2000L279.7800 463.2000L287.0700 463.2000Q287.9700 463.2000 288.6450 463.8300Q289.3200 464.4600 289.3200 465.4500L289.3200 465.4500L289.3200 469.1400Q291.3900 466.2600 294.6750 464.7300Q297.9600 463.2000 302.2800 463.2000L302.2800 463.2000L305.9700 463.2000Q306.9600 463.2000 307.5450 463.8300Q308.1300 464.4600 308.1300 465.3600L308.1300 465.3600L308.1300 471.8400Q308.1300 472.7400 307.5450 473.3700Q306.9600 474 305.9700 474L305.9700 474L298.9500 474Q294.6300 474 292.2450 476.3850Q289.8600 478.7700 289.8600 483.0900L289.8600 483.0900L289.8600 507.8400Q289.8600 508.7400 289.2300 509.3700Q288.6000 510 287.6100 510L287.6100 510ZM335.8500 510.9000L335.8500 510.9000Q328.6500 510.9000 323.7450 508.3800Q318.8400 505.8600 316.2750 501.2700Q313.7100 496.6800 313.3500 490.5600L313.3500 490.5600Q313.2600 488.9400 313.2600 486.6000Q313.2600 484.2600 313.3500 482.6400L313.3500 482.6400Q313.7100 476.4300 316.3650 471.8850Q319.0200 467.3400 323.9250 464.8200Q328.8300 462.3000 335.8500 462.3000L335.8500 462.3000Q342.8700 462.3000 347.7750 464.8200Q352.6800 467.3400 355.3350 471.8850Q357.9900 476.4300 358.3500 482.6400L358.3500 482.6400Q358.4400 484.2600 358.4400 486.6000Q358.4400 488.9400 358.3500 490.5600L358.3500 490.5600Q357.9900 496.6800 355.4250 501.2700Q352.8600 505.8600 347.9550 508.3800Q343.0500 510.9000 335.8500 510.9000ZM335.8500 501.9900L335.8500 501.9900Q340.6200 501.9900 343.2300 498.9750Q345.8400 495.9600 346.1100 490.1100L346.1100 490.1100Q346.2000 488.7600 346.2000 486.6000Q346.2000 484.4400 346.1100 483.0900L346.1100 483.0900Q345.8400 477.2400 343.2300 474.2250Q340.6200 471.2100 335.8500 471.2100L335.8500 471.2100Q331.0800 471.2100 328.4700 474.2250Q325.8600 477.2400 325.5900 483.0900L325.5900 483.0900Q325.5000 484.4400 325.5000 486.6000Q325.5000 488.7600 325.5900 490.1100L325.5900 490.1100Q325.8600 495.9600 328.4700 498.9750Q331.0800 501.9900 335.8500 501.9900ZM385.8000 510.9000L385.8000 510.9000Q381.1200 510.9000 377.5650 509.3250Q374.0100 507.7500 371.6700 504.8700Q369.3300 501.9900 368.0700 498.0750Q366.8100 494.1600 366.6300 489.4800L366.6300 489.4800Q366.5400 487.8600 366.5400 486.5550Q366.5400 485.2500 366.6300 483.6300L366.6300 483.6300Q366.8100 479.1300 368.0250 475.2600Q369.2400 471.3900 371.6250 468.4650Q374.0100 465.5400 377.5650 463.9200Q381.1200 462.3000 385.8000 462.3000L385.8000 462.3000Q390.6600 462.3000 394.0350 463.9650Q397.4100 465.6300 399.6600 468.2400L399.6600 468.2400L399.6600 448.2600Q399.6600 447.3600 400.2450 446.7300Q400.8300 446.1000 401.8200 446.1000L401.8200 446.1000L409.4700 446.1000Q410.3700 446.1000 411 446.7300Q411.6300 447.3600 411.6300 448.2600L411.6300 448.2600L411.6300 507.8400Q411.6300 508.7400 411 509.3700Q410.3700 510 409.4700 510L409.4700 510L402.3600 510Q401.3700 510 400.7850 509.3700Q400.2000 508.7400 400.2000 507.8400L400.2000 507.8400L400.2000 504.5100Q397.9500 507.3000 394.4850 509.1000Q391.0200 510.9000 385.8000 510.9000ZM389.1300 501.2700L389.1300 501.2700Q392.9100 501.2700 395.1600 499.5600Q397.4100 497.8500 398.4900 495.1950Q399.5700 492.5400 399.6600 489.7500L399.6600 489.7500Q399.7500 488.1300 399.7500 486.2850Q399.7500 484.4400 399.6600 482.8200L399.6600 482.8200Q399.5700 480.1200 398.4000 477.6450Q397.2300 475.1700 394.9800 473.5500Q392.7300 471.9300 389.1300 471.9300L389.1300 471.9300Q385.3500 471.9300 383.1450 473.5950Q380.9400 475.2600 379.9500 477.9600Q378.9600 480.6600 378.7800 483.9000L378.7800 483.9000Q378.6900 486.6000 378.7800 489.3000L378.7800 489.3000Q378.9600 492.5400 379.9500 495.2400Q380.9400 497.9400 383.1450 499.6050Q385.3500 501.2700 389.1300 501.2700ZM440.9700 510.9000L440.9700 510.9000Q435.4800 510.9000 431.4750 508.4250Q427.4700 505.9500 425.3100 501.4050Q423.1500 496.8600 423.1500 490.6500L423.1500 490.6500L423.1500 465.3600Q423.1500 464.4600 423.7800 463.8300Q424.4100 463.2000 425.3100 463.2000L425.3100 463.2000L433.2300 463.2000Q434.2200 463.2000 434.8050 463.8300Q435.3900 464.4600 435.3900 465.3600L435.3900 465.3600L435.3900 490.1100Q435.3900 501.2700 445.2000 501.2700L445.2000 501.2700Q449.8800 501.2700 452.6250 498.3000Q455.3700 495.3300 455.3700 490.1100L455.3700 490.1100L455.3700 465.3600Q455.3700 464.4600 456 463.8300Q456.6300 463.2000 457.5300 463.2000L457.5300 463.2000L465.4500 463.2000Q466.3500 463.2000 466.9800 463.8300Q467.6100 464.4600 467.6100 465.3600L467.6100 465.3600L467.6100 507.8400Q467.6100 508.7400 466.9800 509.3700Q466.3500 510 465.4500 510L465.4500 510L458.1600 510Q457.1700 510 456.5850 509.3700Q456 508.7400 456 507.8400L456 507.8400L456 504.1500Q453.5700 507.3000 449.9700 509.1000Q446.3700 510.9000 440.9700 510.9000ZM499.6500 529.8000L499.6500 529.8000Q497.1300 529.7100 495.1950 528.9000Q493.2600 528.0900 492.4050 527.0100Q491.5500 525.9300 492.4500 525.2100L492.4500 525.2100L493.9800 523.8600Q494.7900 523.1400 495.3750 523.4550Q495.9600 523.7700 496.9050 524.3550Q497.8500 524.9400 499.6500 524.9400L499.6500 524.9400Q501 524.9400 501.9900 524.0850Q502.9800 523.2300 502.9800 521.8800L502.9800 521.8800Q502.9800 520.6200 502.0350 519.8100Q501.0900 519 499.6500 519L499.6500 519Q498.3900 519 497.4900 519.3150Q496.5900 519.6300 495.8700 519.7650Q495.1500 519.9000 494.4300 519.1800L494.4300 519.1800L492.8100 517.5600Q492.2700 516.9300 492.4500 516.2550Q492.6300 515.5800 492.9900 514.7700L492.9900 514.7700L494.8800 510.4500Q487.1400 509.2800 482.5500 504.0150Q477.9600 498.7500 477.6900 490.2000L477.6900 490.2000Q477.6000 488.8500 477.6000 486.6450Q477.6000 484.4400 477.6900 483L477.6900 483Q477.9600 476.4300 480.7050 471.7950Q483.4500 467.1600 488.3550 464.7300Q493.2600 462.3000 499.7400 462.3000L499.7400 462.3000Q505.5000 462.3000 509.5500 463.8750Q513.6000 465.4500 516.2100 467.9250Q518.8200 470.4000 520.1250 473.0550Q521.4300 475.7100 521.5200 477.8700L521.5200 477.8700Q521.6100 478.8600 520.9350 479.4450Q520.2600 480.0300 519.3600 480.0300L519.3600 480.0300L511.4400 480.0300Q510.5400 480.0300 510.0450 479.5800Q509.5500 479.1300 509.1000 478.2300L509.1000 478.2300Q507.7500 474.6300 505.5450 473.1450Q503.3400 471.6600 499.9200 471.6600L499.9200 471.6600Q495.4200 471.6600 492.7650 474.4950Q490.1100 477.3300 489.9300 483.4500L489.9300 483.4500Q489.7500 486.8700 489.9300 489.7500L489.9300 489.7500Q490.1100 495.9600 492.7650 498.7500Q495.4200 501.5400 499.9200 501.5400L499.9200 501.5400Q503.4300 501.5400 505.5900 500.0550Q507.7500 498.5700 509.1000 494.9700L509.1000 494.9700Q509.5500 494.0700 510.0450 493.6200Q510.5400 493.1700 511.4400 493.1700L511.4400 493.1700L519.3600 493.1700Q520.2600 493.1700 520.9350 493.7550Q521.6100 494.3400 521.5200 495.3300L521.5200 495.3300Q521.4300 497.3100 520.1700 499.9650Q518.9100 502.6200 516.3900 505.0950Q513.8700 507.5700 509.8200 509.2350Q505.7700 510.9000 500.0100 510.9000L500.0100 510.9000L498.1200 514.7700Q498.6600 514.5000 499.6050 514.3200Q500.5500 514.1400 501.2700 514.1400L501.2700 514.1400Q504.4200 514.1400 506.3550 516.3000Q508.2900 518.4600 508.2900 521.7900L508.2900 521.7900Q508.2900 525.2100 506.0400 527.5500Q503.7900 529.8900 499.6500 529.8000ZM544.4700 510.9000L544.4700 510.9000Q539.7900 510.9000 536.0100 509.0550Q532.2300 507.2100 530.0250 504.1050Q527.8200 501 527.8200 497.1300L527.8200 497.1300Q527.8200 490.8300 532.9500 487.0950Q538.0800 483.3600 546.3600 482.1000L546.3600 482.1000L558.6900 480.3000L558.6900 478.4100Q558.6900 474.6300 556.8000 472.5600Q554.9100 470.4900 550.3200 470.4900L550.3200 470.4900Q547.0800 470.4900 545.0550 471.7950Q543.0300 473.1000 542.0400 475.2600L542.0400 475.2600Q541.3200 476.4300 539.9700 476.4300L539.9700 476.4300L532.8600 476.4300Q531.8700 476.4300 531.3750 475.8900Q530.8800 475.3500 530.8800 474.4500L530.8800 474.4500Q530.9700 473.0100 532.0950 470.9400Q533.2200 468.8700 535.5150 466.9350Q537.8100 465 541.5000 463.6500Q545.1900 462.3000 550.4100 462.3000L550.4100 462.3000Q556.0800 462.3000 559.9950 463.6950Q563.9100 465.0900 566.2500 467.4300Q568.5900 469.7700 569.6700 472.9200Q570.7500 476.0700 570.7500 479.5800L570.7500 479.5800L570.7500 507.8400Q570.7500 508.7400 570.1200 509.3700Q569.4900 510 568.5900 510L568.5900 510L561.3000 510Q560.3100 510 559.7250 509.3700Q559.1400 508.7400 559.1400 507.8400L559.1400 507.8400L559.1400 504.3300Q557.9700 505.9500 555.9900 507.4800Q554.0100 509.0100 551.1750 509.9550Q548.3400 510.9000 544.4700 510.9000ZM547.5300 502.3500L547.5300 502.3500Q550.6800 502.3500 553.2450 501Q555.8100 499.6500 557.2950 496.8150Q558.7800 493.9800 558.7800 489.6600L558.7800 489.6600L558.7800 487.7700L549.7800 489.2100Q544.4700 490.0200 541.8600 491.8200Q539.2500 493.6200 539.2500 496.2300L539.2500 496.2300Q539.2500 498.2100 540.4650 499.6050Q541.6800 501 543.5700 501.6750Q545.4600 502.3500 547.5300 502.3500ZM555.3600 456.9000L555.3600 456.9000Q553.0200 456.9000 551.5800 456.1350Q550.1400 455.3700 548.9250 454.5600Q547.7100 453.7500 546.2700 453.7500L546.2700 453.7500Q545.1000 453.7500 544.6050 454.4250Q544.1100 455.1000 543.6600 455.7750Q543.2100 456.4500 542.2200 456.4500L542.2200 456.4500L538.0800 456.4500Q537.4500 456.4500 537 456Q536.5500 455.5500 536.5500 454.9200L536.5500 454.9200Q536.5500 453.5700 537.0450 451.9050Q537.5400 450.2400 538.6200 448.7100Q539.7000 447.1800 541.3650 446.2350Q543.0300 445.2900 545.2800 445.2900L545.2800 445.2900Q547.7100 445.2900 549.1500 446.0550Q550.5900 446.8200 551.8050 447.6300Q553.0200 448.4400 554.4600 448.4400L554.4600 448.4400Q555.6300 448.4400 556.1250 447.7200Q556.6200 447 557.0700 446.3250Q557.5200 445.6500 558.5100 445.6500L558.5100 445.6500L562.6500 445.6500Q563.3700 445.6500 563.7750 446.1450Q564.1800 446.6400 564.1800 447.2700L564.1800 447.2700Q564.1800 448.6200 563.6850 450.2850Q563.1900 451.9500 562.1100 453.4800Q561.0300 455.0100 559.3650 455.9550Q557.7000 456.9000 555.3600 456.9000ZM602.9700 510.9000L602.9700 510.9000Q595.7700 510.9000 590.8650 508.3800Q585.9600 505.8600 583.3950 501.2700Q580.8300 496.6800 580.4700 490.5600L580.4700 490.5600Q580.3800 488.9400 580.3800 486.6000Q580.3800 484.2600 580.4700 482.6400L580.4700 482.6400Q580.8300 476.4300 583.4850 471.8850Q586.1400 467.3400 591.0450 464.8200Q595.9500 462.3000 602.9700 462.3000L602.9700 462.3000Q609.9900 462.3000 614.8950 464.8200Q619.8000 467.3400 622.4550 471.8850Q625.1100 476.4300 625.4700 482.6400L625.4700 482.6400Q625.5600 484.2600 625.5600 486.6000Q625.5600 488.9400 625.4700 490.5600L625.4700 490.5600Q625.1100 496.6800 622.5450 501.2700Q619.9800 505.8600 615.0750 508.3800Q610.1700 510.9000 602.9700 510.9000ZM602.9700 501.9900L602.9700 501.9900Q607.7400 501.9900 610.3500 498.9750Q612.9600 495.9600 613.2300 490.1100L613.2300 490.1100Q613.3200 488.7600 613.3200 486.6000Q613.3200 484.4400 613.2300 483.0900L613.2300 483.0900Q612.9600 477.2400 610.3500 474.2250Q607.7400 471.2100 602.9700 471.2100L602.9700 471.2100Q598.2000 471.2100 595.5900 474.2250Q592.9800 477.2400 592.7100 483.0900L592.7100 483.0900Q592.6200 484.4400 592.6200 486.6000Q592.6200 488.7600 592.7100 490.1100L592.7100 490.1100Q592.9800 495.9600 595.5900 498.9750Q598.2000 501.9900 602.9700 501.9900ZM669.7500 510.9000L669.7500 510.9000Q665.0700 510.9000 661.2900 509.0550Q657.5100 507.2100 655.3050 504.1050Q653.1000 501 653.1000 497.1300L653.1000 497.1300Q653.1000 490.8300 658.2300 487.0950Q663.3600 483.3600 671.6400 482.1000L671.6400 482.1000L683.9700 480.3000L683.9700 478.4100Q683.9700 474.6300 682.0800 472.5600Q680.1900 470.4900 675.6000 470.4900L675.6000 470.4900Q672.3600 470.4900 670.3350 471.7950Q668.3100 473.1000 667.3200 475.2600L667.3200 475.2600Q666.6000 476.4300 665.2500 476.4300L665.2500 476.4300L658.1400 476.4300Q657.1500 476.4300 656.6550 475.8900Q656.1600 475.3500 656.1600 474.4500L656.1600 474.4500Q656.2500 473.0100 657.3750 470.9400Q658.5000 468.8700 660.7950 466.9350Q663.0900 465 666.7800 463.6500Q670.4700 462.3000 675.6900 462.3000L675.6900 462.3000Q681.3600 462.3000 685.2750 463.6950Q689.1900 465.0900 691.5300 467.4300Q693.8700 469.7700 694.9500 472.9200Q696.0300 476.0700 696.0300 479.5800L696.0300 479.5800L696.0300 507.8400Q696.0300 508.7400 695.4000 509.3700Q694.7700 510 693.8700 510L693.8700 510L686.5800 510Q685.5900 510 685.0050 509.3700Q684.4200 508.7400 684.4200 507.8400L684.4200 507.8400L684.4200 504.3300Q683.2500 505.9500 681.2700 507.4800Q679.2900 509.0100 676.4550 509.9550Q673.6200 510.9000 669.7500 510.9000ZM672.8100 502.3500L672.8100 502.3500Q675.9600 502.3500 678.5250 501Q681.0900 499.6500 682.5750 496.8150Q684.0600 493.9800 684.0600 489.6600L684.0600 489.6600L684.0600 487.7700L675.0600 489.2100Q669.7500 490.0200 667.1400 491.8200Q664.5300 493.6200 664.5300 496.2300L664.5300 496.2300Q664.5300 498.2100 665.7450 499.6050Q666.9600 501 668.8500 501.6750Q670.7400 502.3500 672.8100 502.3500ZM728.2500 510.9000L728.2500 510.9000Q721.0500 510.9000 716.1450 508.3800Q711.2400 505.8600 708.6750 501.2700Q706.1100 496.6800 705.7500 490.5600L705.7500 490.5600Q705.6600 488.9400 705.6600 486.6000Q705.6600 484.2600 705.7500 482.6400L705.7500 482.6400Q706.1100 476.4300 708.7650 471.8850Q711.4200 467.3400 716.3250 464.8200Q721.2300 462.3000 728.2500 462.3000L728.2500 462.3000Q735.2700 462.3000 740.1750 464.8200Q745.0800 467.3400 747.7350 471.8850Q750.3900 476.4300 750.7500 482.6400L750.7500 482.6400Q750.8400 484.2600 750.8400 486.6000Q750.8400 488.9400 750.7500 490.5600L750.7500 490.5600Q750.3900 496.6800 747.8250 501.2700Q745.2600 505.8600 740.3550 508.3800Q735.4500 510.9000 728.2500 510.9000ZM728.2500 501.9900L728.2500 501.9900Q733.0200 501.9900 735.6300 498.9750Q738.2400 495.9600 738.5100 490.1100L738.5100 490.1100Q738.6000 488.7600 738.6000 486.6000Q738.6000 484.4400 738.5100 483.0900L738.5100 483.0900Q738.2400 477.2400 735.6300 474.2250Q733.0200 471.2100 728.2500 471.2100L728.2500 471.2100Q723.4800 471.2100 720.8700 474.2250Q718.2600 477.2400 717.9900 483.0900L717.9900 483.0900Q717.9000 484.4400 717.9000 486.6000Q717.9000 488.7600 717.9900 490.1100L717.9900 490.1100Q718.2600 495.9600 720.8700 498.9750Q723.4800 501.9900 728.2500 501.9900ZM173.3100 600.9000L173.3100 600.9000Q168.6300 600.9000 165.0750 599.3250Q161.5200 597.7500 159.1800 594.8700Q156.8400 591.9900 155.5800 588.0750Q154.3200 584.1600 154.1400 579.4800L154.1400 579.4800Q154.0500 577.8600 154.0500 576.5550Q154.0500 575.2500 154.1400 573.6300L154.1400 573.6300Q154.3200 569.1300 155.5350 565.2600Q156.7500 561.3900 159.1350 558.4650Q161.5200 555.5400 165.0750 553.9200Q168.6300 552.3000 173.3100 552.3000L173.3100 552.3000Q178.1700 552.3000 181.5450 553.9650Q184.9200 555.6300 187.1700 558.2400L187.1700 558.2400L187.1700 538.2600Q187.1700 537.3600 187.7550 536.7300Q188.3400 536.1000 189.3300 536.1000L189.3300 536.1000L196.9800 536.1000Q197.8800 536.1000 198.5100 536.7300Q199.1400 537.3600 199.1400 538.2600L199.1400 538.2600L199.1400 597.8400Q199.1400 598.7400 198.5100 599.3700Q197.8800 600 196.9800 600L196.9800 600L189.8700 600Q188.8800 600 188.2950 599.3700Q187.7100 598.7400 187.7100 597.8400L187.7100 597.8400L187.7100 594.5100Q185.4600 597.3000 181.9950 599.1000Q178.5300 600.9000 173.3100 600.9000ZM176.6400 591.2700L176.6400 591.2700Q180.4200 591.2700 182.6700 589.5600Q184.9200 587.8500 186 585.1950Q187.0800 582.5400 187.1700 579.7500L187.1700 579.7500Q187.2600 578.1300 187.2600 576.2850Q187.2600 574.4400 187.1700 572.8200L187.1700 572.8200Q187.0800 570.1200 185.9100 567.6450Q184.7400 565.1700 182.4900 563.5500Q180.2400 561.9300 176.6400 561.9300L176.6400 561.9300Q172.8600 561.9300 170.6550 563.5950Q168.4500 565.2600 167.4600 567.9600Q166.4700 570.6600 166.2900 573.9000L166.2900 573.9000Q166.2000 576.6000 166.2900 579.3000L166.2900 579.3000Q166.4700 582.5400 167.4600 585.2400Q168.4500 587.9400 170.6550 589.6050Q172.8600 591.2700 176.6400 591.2700ZM231.2700 600.9000L231.2700 600.9000Q221.2800 600.9000 215.4300 595.1400Q209.5800 589.3800 209.1300 578.7600L209.1300 578.7600Q209.0400 577.8600 209.0400 576.4650Q209.0400 575.0700 209.1300 574.2600L209.1300 574.2600Q209.4900 567.4200 212.2350 562.5150Q214.9800 557.6100 219.8400 554.9550Q224.7000 552.3000 231.2700 552.3000L231.2700 552.3000Q238.5600 552.3000 243.5100 555.3150Q248.4600 558.3300 250.9800 563.6850Q253.5000 569.0400 253.5000 576.0600L253.5000 576.0600L253.5000 577.9500Q253.5000 578.8500 252.8700 579.4800Q252.2400 580.1100 251.2500 580.1100L251.2500 580.1100L221.3700 580.1100Q221.3700 580.1100 221.3700 580.3800Q221.3700 580.6500 221.3700 580.8300L221.3700 580.8300Q221.4600 583.9800 222.5850 586.6350Q223.7100 589.2900 225.9150 590.9100Q228.1200 592.5300 231.1800 592.5300L231.1800 592.5300Q233.7000 592.5300 235.4100 591.7650Q237.1200 591 238.2000 590.0100Q239.2800 589.0200 239.7300 588.3900L239.7300 588.3900Q240.5400 587.3100 241.0350 587.0850Q241.5300 586.8600 242.5200 586.8600L242.5200 586.8600L250.2600 586.8600Q251.1600 586.8600 251.7450 587.4000Q252.3300 587.9400 252.2400 588.7500L252.2400 588.7500Q252.1500 590.1900 250.7550 592.2600Q249.3600 594.3300 246.7500 596.3100Q244.1400 598.2900 240.2250 599.5950Q236.3100 600.9000 231.2700 600.9000ZM221.3700 572.2800L221.3700 572.5500L241.2600 572.5500L241.2600 572.2800Q241.2600 568.7700 240.0900 566.1150Q238.9200 563.4600 236.6700 561.9750Q234.4200 560.4900 231.2700 560.4900L231.2700 560.4900Q228.1200 560.4900 225.8700 561.9750Q223.6200 563.4600 222.4950 566.1150Q221.3700 568.7700 221.3700 572.2800L221.3700 572.2800ZM280.7700 600.9000L280.7700 600.9000Q275.3700 600.9000 271.5450 599.6400Q267.7200 598.3800 265.2900 596.4900Q262.8600 594.6000 261.6900 592.7100Q260.5200 590.8200 260.4300 589.5600L260.4300 589.5600Q260.3400 588.5700 261.0150 587.9850Q261.6900 587.4000 262.5000 587.4000L262.5000 587.4000L269.6100 587.4000Q269.9700 587.4000 270.2400 587.4900Q270.5100 587.5800 270.9600 588.0300L270.9600 588.0300Q272.1300 589.0200 273.4350 590.1000Q274.7400 591.1800 276.5400 591.9450Q278.3400 592.7100 281.0400 592.7100L281.0400 592.7100Q284.5500 592.7100 286.9350 591.3150Q289.3200 589.9200 289.3200 587.3100L289.3200 587.3100Q289.3200 585.4200 288.2850 584.2500Q287.2500 583.0800 284.4600 582.1350Q281.6700 581.1900 276.5400 580.1100L276.5400 580.1100Q271.5000 578.9400 268.1700 577.1400Q264.8400 575.3400 263.2200 572.6400Q261.6000 569.9400 261.6000 566.3400L261.6000 566.3400Q261.6000 562.8300 263.7150 559.6350Q265.8300 556.4400 270.0150 554.3700Q274.2000 552.3000 280.4100 552.3000L280.4100 552.3000Q285.2700 552.3000 288.8700 553.5150Q292.4700 554.7300 294.8550 556.5300Q297.2400 558.3300 298.5000 560.1750Q299.7600 562.0200 299.8500 563.3700L299.8500 563.3700Q299.9400 564.3600 299.3100 564.9450Q298.6800 565.5300 297.8700 565.5300L297.8700 565.5300L291.2100 565.5300Q290.7600 565.5300 290.4000 565.3500Q290.0400 565.1700 289.6800 564.9000L289.6800 564.9000Q288.6900 564 287.5200 562.9650Q286.3500 561.9300 284.6850 561.2100Q283.0200 560.4900 280.3200 560.4900L280.3200 560.4900Q276.9000 560.4900 275.1000 561.9750Q273.3000 563.4600 273.3000 565.7100L273.3000 565.7100Q273.3000 567.2400 274.1550 568.3650Q275.0100 569.4900 277.6200 570.4800Q280.2300 571.4700 285.5400 572.5500L285.5400 572.5500Q291.5700 573.6300 295.1250 575.7450Q298.6800 577.8600 300.1650 580.6050Q301.6500 583.3500 301.6500 586.6800L301.6500 586.6800Q301.6500 590.7300 299.2650 593.9700Q296.8800 597.2100 292.2450 599.0550Q287.6100 600.9000 280.7700 600.9000ZM331.0800 600.9000L331.0800 600.9000Q321.0900 600.9000 315.2400 595.1400Q309.3900 589.3800 308.9400 578.7600L308.9400 578.7600Q308.8500 577.8600 308.8500 576.4650Q308.8500 575.0700 308.9400 574.2600L308.9400 574.2600Q309.3000 567.4200 312.0450 562.5150Q314.7900 557.6100 319.6500 554.9550Q324.5100 552.3000 331.0800 552.3000L331.0800 552.3000Q338.3700 552.3000 343.3200 555.3150Q348.2700 558.3300 350.7900 563.6850Q353.3100 569.0400 353.3100 576.0600L353.3100 576.0600L353.3100 577.9500Q353.3100 578.8500 352.6800 579.4800Q352.0500 580.1100 351.0600 580.1100L351.0600 580.1100L321.1800 580.1100Q321.1800 580.1100 321.1800 580.3800Q321.1800 580.6500 321.1800 580.8300L321.1800 580.8300Q321.2700 583.9800 322.3950 586.6350Q323.5200 589.2900 325.7250 590.9100Q327.9300 592.5300 330.9900 592.5300L330.9900 592.5300Q333.5100 592.5300 335.2200 591.7650Q336.9300 591 338.0100 590.0100Q339.0900 589.0200 339.5400 588.3900L339.5400 588.3900Q340.3500 587.3100 340.8450 587.0850Q341.3400 586.8600 342.3300 586.8600L342.3300 586.8600L350.0700 586.8600Q350.9700 586.8600 351.5550 587.4000Q352.1400 587.9400 352.0500 588.7500L352.0500 588.7500Q351.9600 590.1900 350.5650 592.2600Q349.1700 594.3300 346.5600 596.3100Q343.9500 598.2900 340.0350 599.5950Q336.1200 600.9000 331.0800 600.9000ZM321.1800 572.2800L321.1800 572.5500L341.0700 572.5500L341.0700 572.2800Q341.0700 568.7700 339.9000 566.1150Q338.7300 563.4600 336.4800 561.9750Q334.2300 560.4900 331.0800 560.4900L331.0800 560.4900Q327.9300 560.4900 325.6800 561.9750Q323.4300 563.4600 322.3050 566.1150Q321.1800 568.7700 321.1800 572.2800L321.1800 572.2800ZM372.9300 600L365.0100 600Q364.1100 600 363.4800 599.3700Q362.8500 598.7400 362.8500 597.8400L362.8500 597.8400L362.8500 555.3600Q362.8500 554.4600 363.4800 553.8300Q364.1100 553.2000 365.0100 553.2000L365.0100 553.2000L372.3900 553.2000Q373.2900 553.2000 373.9200 553.8300Q374.5500 554.4600 374.5500 555.3600L374.5500 555.3600L374.5500 559.0500Q376.8900 556.1700 380.5350 554.2350Q384.1800 552.3000 389.5800 552.3000L389.5800 552.3000Q395.0700 552.3000 399.1200 554.7750Q403.1700 557.2500 405.3750 561.7500Q407.5800 566.2500 407.5800 572.5500L407.5800 572.5500L407.5800 597.8400Q407.5800 598.7400 406.9500 599.3700Q406.3200 600 405.4200 600L405.4200 600L397.5000 600Q396.6000 600 395.9700 599.3700Q395.3400 598.7400 395.3400 597.8400L395.3400 597.8400L395.3400 573.0900Q395.3400 567.8700 392.7750 564.9000Q390.2100 561.9300 385.3500 561.9300L385.3500 561.9300Q380.6700 561.9300 377.8800 564.9000Q375.0900 567.8700 375.0900 573.0900L375.0900 573.0900L375.0900 597.8400Q375.0900 598.7400 374.4600 599.3700Q373.8300 600 372.9300 600L372.9300 600ZM442.2300 600L435.5700 600Q434.1300 600 433.4550 599.3250Q432.7800 598.6500 432.3300 597.7500L432.3300 597.7500L415.5000 555.9900Q415.3200 555.5400 415.3200 555.1800L415.3200 555.1800Q415.3200 554.3700 415.9050 553.7850Q416.4900 553.2000 417.3000 553.2000L417.3000 553.2000L424.5900 553.2000Q425.6700 553.2000 426.2100 553.7850Q426.7500 554.3700 426.9300 554.9100L426.9300 554.9100L438.9000 586.5000L450.8700 554.9100Q451.0500 554.3700 451.5900 553.7850Q452.1300 553.2000 453.2100 553.2000L453.2100 553.2000L460.5900 553.2000Q461.3100 553.2000 461.8950 553.7850Q462.4800 554.3700 462.4800 555.1800L462.4800 555.1800Q462.4800 555.5400 462.3900 555.9900L462.3900 555.9900L445.4700 597.7500Q445.1100 598.6500 444.3900 599.3250Q443.6700 600 442.2300 600L442.2300 600ZM491.3700 600.9000L491.3700 600.9000Q484.1700 600.9000 479.2650 598.3800Q474.3600 595.8600 471.7950 591.2700Q469.2300 586.6800 468.8700 580.5600L468.8700 580.5600Q468.7800 578.9400 468.7800 576.6000Q468.7800 574.2600 468.8700 572.6400L468.8700 572.6400Q469.2300 566.4300 471.8850 561.8850Q474.5400 557.3400 479.4450 554.8200Q484.3500 552.3000 491.3700 552.3000L491.3700 552.3000Q498.3900 552.3000 503.2950 554.8200Q508.2000 557.3400 510.8550 561.8850Q513.5100 566.4300 513.8700 572.6400L513.8700 572.6400Q513.9600 574.2600 513.9600 576.6000Q513.9600 578.9400 513.8700 580.5600L513.8700 580.5600Q513.5100 586.6800 510.9450 591.2700Q508.3800 595.8600 503.4750 598.3800Q498.5700 600.9000 491.3700 600.9000ZM491.3700 591.9900L491.3700 591.9900Q496.1400 591.9900 498.7500 588.9750Q501.3600 585.9600 501.6300 580.1100L501.6300 580.1100Q501.7200 578.7600 501.7200 576.6000Q501.7200 574.4400 501.6300 573.0900L501.6300 573.0900Q501.3600 567.2400 498.7500 564.2250Q496.1400 561.2100 491.3700 561.2100L491.3700 561.2100Q486.6000 561.2100 483.9900 564.2250Q481.3800 567.2400 481.1100 573.0900L481.1100 573.0900Q481.0200 574.4400 481.0200 576.6000Q481.0200 578.7600 481.1100 580.1100L481.1100 580.1100Q481.3800 585.9600 483.9900 588.9750Q486.6000 591.9900 491.3700 591.9900ZM533.6700 600L526.2000 600Q525.3000 600 524.6700 599.3700Q524.0400 598.7400 524.0400 597.8400L524.0400 597.8400L524.0400 538.2600Q524.0400 537.3600 524.6700 536.7300Q525.3000 536.1000 526.2000 536.1000L526.2000 536.1000L533.6700 536.1000Q534.5700 536.1000 535.2000 536.7300Q535.8300 537.3600 535.8300 538.2600L535.8300 538.2600L535.8300 597.8400Q535.8300 598.7400 535.2000 599.3700Q534.5700 600 533.6700 600L533.6700 600ZM571.0200 600L564.3600 600Q562.9200 600 562.2450 599.3250Q561.5700 598.6500 561.1200 597.7500L561.1200 597.7500L544.2900 555.9900Q544.1100 555.5400 544.1100 555.1800L544.1100 555.1800Q544.1100 554.3700 544.6950 553.7850Q545.2800 553.2000 546.0900 553.2000L546.0900 553.2000L553.3800 553.2000Q554.4600 553.2000 555.0000 553.7850Q555.5400 554.3700 555.7200 554.9100L555.7200 554.9100L567.6900 586.5000L579.6600 554.9100Q579.8400 554.3700 580.3800 553.7850Q580.9200 553.2000 582.0000 553.2000L582.0000 553.2000L589.3800 553.2000Q590.1000 553.2000 590.6850 553.7850Q591.2700 554.3700 591.2700 555.1800L591.2700 555.1800Q591.2700 555.5400 591.1800 555.9900L591.1800 555.9900L574.2600 597.7500Q573.9000 598.6500 573.1800 599.3250Q572.4600 600 571.0200 600L571.0200 600ZM609.0900 600L601.6200 600Q600.7200 600 600.0900 599.3700Q599.4600 598.7400 599.4600 597.8400L599.4600 597.8400L599.4600 555.3600Q599.4600 554.4600 600.0900 553.8300Q600.7200 553.2000 601.6200 553.2000L601.6200 553.2000L609.0900 553.2000Q610.0800 553.2000 610.6650 553.8300Q611.2500 554.4600 611.2500 555.3600L611.2500 555.3600L611.2500 597.8400Q611.2500 598.7400 610.6650 599.3700Q610.0800 600 609.0900 600L609.0900 600ZM609.4500 545.4600L601.2600 545.4600Q600.3600 545.4600 599.7300 544.8300Q599.1000 544.2000 599.1000 543.3000L599.1000 543.3000L599.1000 536.8200Q599.1000 535.9200 599.7300 535.2900Q600.3600 534.6600 601.2600 534.6600L601.2600 534.6600L609.4500 534.6600Q610.4400 534.6600 611.0700 535.2900Q611.7000 535.9200 611.7000 536.8200L611.7000 536.8200L611.7000 543.3000Q611.7000 544.2000 611.0700 544.8300Q610.4400 545.4600 609.4500 545.4600L609.4500 545.4600ZM632.9400 600L625.3800 600Q624.4800 600 623.8500 599.3700Q623.2200 598.7400 623.2200 597.8400L623.2200 597.8400L623.2200 555.3600Q623.2200 554.4600 623.8500 553.8300Q624.4800 553.2000 625.3800 553.2000L625.3800 553.2000L632.4000 553.2000Q633.3000 553.2000 633.9300 553.8300Q634.5600 554.4600 634.5600 555.3600L634.5600 555.3600L634.5600 558.4200Q636.4500 555.9000 639.6450 554.1450Q642.8400 552.3900 647.2500 552.3000L647.2500 552.3000Q657.5100 552.1200 661.5600 560.3100L661.5600 560.3100Q663.6300 556.7100 667.5450 554.5050Q671.4600 552.3000 676.2300 552.3000L676.2300 552.3000Q680.9100 552.3000 684.7350 554.4600Q688.5600 556.6200 690.7650 560.9850Q692.9700 565.3500 692.9700 572.0100L692.9700 572.0100L692.9700 597.8400Q692.9700 598.7400 692.3400 599.3700Q691.7100 600 690.8100 600L690.8100 600L683.4300 600Q682.5300 600 681.9000 599.3700Q681.2700 598.7400 681.2700 597.8400L681.2700 597.8400L681.2700 572.7300Q681.2700 568.6800 680.1000 566.2950Q678.9300 563.9100 676.9500 562.9200Q674.9700 561.9300 672.5400 561.9300L672.5400 561.9300Q670.5600 561.9300 668.5800 562.9200Q666.6000 563.9100 665.3400 566.2950Q664.0800 568.6800 664.0800 572.7300L664.0800 572.7300L664.0800 597.8400Q664.0800 598.7400 663.4500 599.3700Q662.8200 600 661.9200 600L661.9200 600L654.5400 600Q653.6400 600 653.0100 599.3700Q652.3800 598.7400 652.3800 597.8400L652.3800 597.8400L652.3800 572.7300Q652.3800 568.6800 651.1200 566.2950Q649.8600 563.9100 647.8800 562.9200Q645.9000 561.9300 643.6500 561.9300L643.6500 561.9300Q641.5800 561.9300 639.6000 562.9650Q637.6200 564 636.3600 566.3400Q635.1000 568.6800 635.1000 572.7300L635.1000 572.7300L635.1000 597.8400Q635.1000 598.7400 634.4700 599.3700Q633.8400 600 632.9400 600L632.9400 600ZM724.5600 600.9000L724.5600 600.9000Q714.5700 600.9000 708.7200 595.1400Q702.8700 589.3800 702.4200 578.7600L702.4200 578.7600Q702.3300 577.8600 702.3300 576.4650Q702.3300 575.0700 702.4200 574.2600L702.4200 574.2600Q702.7800 567.4200 705.5250 562.5150Q708.2700 557.6100 713.1300 554.9550Q717.9900 552.3000 724.5600 552.3000L724.5600 552.3000Q731.8500 552.3000 736.8000 555.3150Q741.7500 558.3300 744.2700 563.6850Q746.7900 569.0400 746.7900 576.0600L746.7900 576.0600L746.7900 577.9500Q746.7900 578.8500 746.1600 579.4800Q745.5300 580.1100 744.5400 580.1100L744.5400 580.1100L714.6600 580.1100Q714.6600 580.1100 714.6600 580.3800Q714.6600 580.6500 714.6600 580.8300L714.6600 580.8300Q714.7500 583.9800 715.8750 586.6350Q717.0000 589.2900 719.2050 590.9100Q721.4100 592.5300 724.4700 592.5300L724.4700 592.5300Q726.9900 592.5300 728.7000 591.7650Q730.4100 591 731.4900 590.0100Q732.5700 589.0200 733.0200 588.3900L733.0200 588.3900Q733.8300 587.3100 734.3250 587.0850Q734.8200 586.8600 735.8100 586.8600L735.8100 586.8600L743.5500 586.8600Q744.4500 586.8600 745.0350 587.4000Q745.6200 587.9400 745.5300 588.7500L745.5300 588.7500Q745.4400 590.1900 744.0450 592.2600Q742.6500 594.3300 740.0400 596.3100Q737.4300 598.2900 733.5150 599.5950Q729.6000 600.9000 724.5600 600.9000ZM714.6600 572.2800L714.6600 572.5500L734.5500 572.5500L734.5500 572.2800Q734.5500 568.7700 733.3800 566.1150Q732.2100 563.4600 729.9600 561.9750Q727.7100 560.4900 724.5600 560.4900L724.5600 560.4900Q721.4100 560.4900 719.1600 561.9750Q716.9100 563.4600 715.7850 566.1150Q714.6600 568.7700 714.6600 572.2800L714.6600 572.2800ZM766.4100 600L758.4900 600Q757.5900 600 756.9600 599.3700Q756.3300 598.7400 756.3300 597.8400L756.3300 597.8400L756.3300 555.3600Q756.3300 554.4600 756.9600 553.8300Q757.5900 553.2000 758.4900 553.2000L758.4900 553.2000L765.8700 553.2000Q766.7700 553.2000 767.4000 553.8300Q768.0300 554.4600 768.0300 555.3600L768.0300 555.3600L768.0300 559.0500Q770.3700 556.1700 774.0150 554.2350Q777.6600 552.3000 783.0600 552.3000L783.0600 552.3000Q788.5500 552.3000 792.6000 554.7750Q796.6500 557.2500 798.8550 561.7500Q801.0600 566.2500 801.0600 572.5500L801.0600 572.5500L801.0600 597.8400Q801.0600 598.7400 800.4300 599.3700Q799.8000 600 798.9000 600L798.9000 600L790.9800 600Q790.0800 600 789.4500 599.3700Q788.8200 598.7400 788.8200 597.8400L788.8200 597.8400L788.8200 573.0900Q788.8200 567.8700 786.2550 564.9000Q783.6900 561.9300 778.8300 561.9300L778.8300 561.9300Q774.1500 561.9300 771.3600 564.9000Q768.5700 567.8700 768.5700 573.0900L768.5700 573.0900L768.5700 597.8400Q768.5700 598.7400 767.9400 599.3700Q767.3100 600 766.4100 600L766.4100 600ZM840.9300 600L833.6400 600Q828.2400 600 824.5500 598.1100Q820.8600 596.2200 819.0600 592.4850Q817.2600 588.7500 817.2600 583.1700L817.2600 583.1700L817.2600 562.7400L810.1500 562.7400Q809.2500 562.7400 808.6200 562.1100Q807.9900 561.4800 807.9900 560.4900L807.9900 560.4900L807.9900 555.3600Q807.9900 554.4600 808.6200 553.8300Q809.2500 553.2000 810.1500 553.2000L810.1500 553.2000L817.2600 553.2000L817.2600 538.2600Q817.2600 537.3600 817.8450 536.7300Q818.4300 536.1000 819.4200 536.1000L819.4200 536.1000L826.7100 536.1000Q827.6100 536.1000 828.2400 536.7300Q828.8700 537.3600 828.8700 538.2600L828.8700 538.2600L828.8700 553.2000L840.1200 553.2000Q841.0200 553.2000 841.6500 553.8300Q842.2800 554.4600 842.2800 555.3600L842.2800 555.3600L842.2800 560.4900Q842.2800 561.4800 841.6500 562.1100Q841.0200 562.7400 840.1200 562.7400L840.1200 562.7400L828.8700 562.7400L828.8700 582.2700Q828.8700 585.9600 830.1750 588.0300Q831.4800 590.1000 834.7200 590.1000L834.7200 590.1000L840.9300 590.1000Q841.8300 590.1000 842.4600 590.7300Q843.0900 591.3600 843.0900 592.2600L843.0900 592.2600L843.0900 597.8400Q843.0900 598.7400 842.4600 599.3700Q841.8300 600 840.9300 600L840.9300 600ZM871.8000 600.9000L871.8000 600.9000Q864.6000 600.9000 859.6950 598.3800Q854.7900 595.8600 852.2250 591.2700Q849.6600 586.6800 849.3000 580.5600L849.3000 580.5600Q849.2100 578.9400 849.2100 576.6000Q849.2100 574.2600 849.3000 572.6400L849.3000 572.6400Q849.6600 566.4300 852.3150 561.8850Q854.9700 557.3400 859.8750 554.8200Q864.7800 552.3000 871.8000 552.3000L871.8000 552.3000Q878.8200 552.3000 883.7250 554.8200Q888.6300 557.3400 891.2850 561.8850Q893.9400 566.4300 894.3000 572.6400L894.3000 572.6400Q894.3900 574.2600 894.3900 576.6000Q894.3900 578.9400 894.3000 580.5600L894.3000 580.5600Q893.9400 586.6800 891.3750 591.2700Q888.8100 595.8600 883.9050 598.3800Q879.0000 600.9000 871.8000 600.9000ZM871.8000 591.9900L871.8000 591.9900Q876.5700 591.9900 879.1800 588.9750Q881.7900 585.9600 882.0600 580.1100L882.0600 580.1100Q882.1500 578.7600 882.1500 576.6000Q882.1500 574.4400 882.0600 573.0900L882.0600 573.0900Q881.7900 567.2400 879.1800 564.2250Q876.5700 561.2100 871.8000 561.2100L871.8000 561.2100Q867.0300 561.2100 864.4200 564.2250Q861.8100 567.2400 861.5400 573.0900L861.5400 573.0900Q861.4500 574.4400 861.4500 576.6000Q861.4500 578.7600 861.5400 580.1100L861.5400 580.1100Q861.8100 585.9600 864.4200 588.9750Q867.0300 591.9900 871.8000 591.9900ZM167.1000 690L159.1800 690Q158.2800 690 157.6500 689.3700Q157.0200 688.7400 157.0200 687.8400L157.0200 687.8400L157.0200 629.2500Q157.0200 628.2600 157.6500 627.6300Q158.2800 627 159.1800 627L159.1800 627L198.2400 627Q199.2300 627 199.8600 627.6300Q200.4900 628.2600 200.4900 629.2500L200.4900 629.2500L200.4900 635.5500Q200.4900 636.5400 199.8600 637.1250Q199.2300 637.7100 198.2400 637.7100L198.2400 637.7100L169.3500 637.7100L169.3500 654.8100L196.4400 654.8100Q197.4300 654.8100 198.0600 655.4400Q198.6900 656.0700 198.6900 657.0600L198.6900 657.0600L198.6900 663.3600Q198.6900 664.2600 198.0600 664.8900Q197.4300 665.5200 196.4400 665.5200L196.4400 665.5200L169.3500 665.5200L169.3500 687.8400Q169.3500 688.7400 168.7200 689.3700Q168.0900 690 167.1000 690L167.1000 690ZM220.0200 690L212.1900 690Q211.2900 690 210.6600 689.3700Q210.0300 688.7400 210.0300 687.8400L210.0300 687.8400L210.0300 645.4500Q210.0300 644.4600 210.6600 643.8300Q211.2900 643.2000 212.1900 643.2000L212.1900 643.2000L219.4800 643.2000Q220.3800 643.2000 221.0550 643.8300Q221.7300 644.4600 221.7300 645.4500L221.7300 645.4500L221.7300 649.1400Q223.8000 646.2600 227.0850 644.7300Q230.3700 643.2000 234.6900 643.2000L234.6900 643.2000L238.3800 643.2000Q239.3700 643.2000 239.9550 643.8300Q240.5400 644.4600 240.5400 645.3600L240.5400 645.3600L240.5400 651.8400Q240.5400 652.7400 239.9550 653.3700Q239.3700 654 238.3800 654L238.3800 654L231.3600 654Q227.0400 654 224.6550 656.3850Q222.2700 658.7700 222.2700 663.0900L222.2700 663.0900L222.2700 687.8400Q222.2700 688.7400 221.6400 689.3700Q221.0100 690 220.0200 690L220.0200 690ZM268.2600 690.9000L268.2600 690.9000Q261.0600 690.9000 256.1550 688.3800Q251.2500 685.8600 248.6850 681.2700Q246.1200 676.6800 245.7600 670.5600L245.7600 670.5600Q245.6700 668.9400 245.6700 666.6000Q245.6700 664.2600 245.7600 662.6400L245.7600 662.6400Q246.1200 656.4300 248.7750 651.8850Q251.4300 647.3400 256.3350 644.8200Q261.2400 642.3000 268.2600 642.3000L268.2600 642.3000Q275.2800 642.3000 280.1850 644.8200Q285.0900 647.3400 287.7450 651.8850Q290.4000 656.4300 290.7600 662.6400L290.7600 662.6400Q290.8500 664.2600 290.8500 666.6000Q290.8500 668.9400 290.7600 670.5600L290.7600 670.5600Q290.4000 676.6800 287.8350 681.2700Q285.2700 685.8600 280.3650 688.3800Q275.4600 690.9000 268.2600 690.9000ZM268.2600 681.9900L268.2600 681.9900Q273.0300 681.9900 275.6400 678.9750Q278.2500 675.9600 278.5200 670.1100L278.5200 670.1100Q278.6100 668.7600 278.6100 666.6000Q278.6100 664.4400 278.5200 663.0900L278.5200 663.0900Q278.2500 657.2400 275.6400 654.2250Q273.0300 651.2100 268.2600 651.2100L268.2600 651.2100Q263.4900 651.2100 260.8800 654.2250Q258.2700 657.2400 258 663.0900L258 663.0900Q257.9100 664.4400 257.9100 666.6000Q257.9100 668.7600 258 670.1100L258 670.1100Q258.2700 675.9600 260.8800 678.9750Q263.4900 681.9900 268.2600 681.9900ZM310.9200 690L303 690Q302.1000 690 301.4700 689.3700Q300.8400 688.7400 300.8400 687.8400L300.8400 687.8400L300.8400 645.3600Q300.8400 644.4600 301.4700 643.8300Q302.1000 643.2000 303 643.2000L303 643.2000L310.3800 643.2000Q311.2800 643.2000 311.9100 643.8300Q312.5400 644.4600 312.5400 645.3600L312.5400 645.3600L312.5400 649.0500Q314.8800 646.1700 318.5250 644.2350Q322.1700 642.3000 327.5700 642.3000L327.5700 642.3000Q333.0600 642.3000 337.1100 644.7750Q341.1600 647.2500 343.3650 651.7500Q345.5700 656.2500 345.5700 662.5500L345.5700 662.5500L345.5700 687.8400Q345.5700 688.7400 344.9400 689.3700Q344.3100 690 343.4100 690L343.4100 690L335.4900 690Q334.5900 690 333.9600 689.3700Q333.3300 688.7400 333.3300 687.8400L333.3300 687.8400L333.3300 663.0900Q333.3300 657.8700 330.7650 654.9000Q328.2000 651.9300 323.3400 651.9300L323.3400 651.9300Q318.6600 651.9300 315.8700 654.9000Q313.0800 657.8700 313.0800 663.0900L313.0800 663.0900L313.0800 687.8400Q313.0800 688.7400 312.4500 689.3700Q311.8200 690 310.9200 690L310.9200 690ZM385.4400 690L378.1500 690Q372.7500 690 369.0600 688.1100Q365.3700 686.2200 363.5700 682.4850Q361.7700 678.7500 361.7700 673.1700L361.7700 673.1700L361.7700 652.7400L354.6600 652.7400Q353.7600 652.7400 353.1300 652.1100Q352.5000 651.4800 352.5000 650.4900L352.5000 650.4900L352.5000 645.3600Q352.5000 644.4600 353.1300 643.8300Q353.7600 643.2000 354.6600 643.2000L354.6600 643.2000L361.7700 643.2000L361.7700 628.2600Q361.7700 627.3600 362.3550 626.7300Q362.9400 626.1000 363.9300 626.1000L363.9300 626.1000L371.2200 626.1000Q372.1200 626.1000 372.7500 626.7300Q373.3800 627.3600 373.3800 628.2600L373.3800 628.2600L373.3800 643.2000L384.6300 643.2000Q385.5300 643.2000 386.1600 643.8300Q386.7900 644.4600 386.7900 645.3600L386.7900 645.3600L386.7900 650.4900Q386.7900 651.4800 386.1600 652.1100Q385.5300 652.7400 384.6300 652.7400L384.6300 652.7400L373.3800 652.7400L373.3800 672.2700Q373.3800 675.9600 374.6850 678.0300Q375.9900 680.1000 379.2300 680.1000L379.2300 680.1000L385.4400 680.1000Q386.3400 680.1000 386.9700 680.7300Q387.6000 681.3600 387.6000 682.2600L387.6000 682.2600L387.6000 687.8400Q387.6000 688.7400 386.9700 689.3700Q386.3400 690 385.4400 690L385.4400 690ZM425.1300 668.1300L397.5000 668.1300Q396.5100 668.1300 395.9250 667.5000Q395.3400 666.8700 395.3400 665.9700L395.3400 665.9700L395.3400 660.0300Q395.3400 659.1300 395.9250 658.5000Q396.5100 657.8700 397.5000 657.8700L397.5000 657.8700L425.1300 657.8700Q426.0300 657.8700 426.6600 658.5000Q427.2900 659.1300 427.2900 660.0300L427.2900 660.0300L427.2900 665.9700Q427.2900 666.8700 426.6600 667.5000Q426.0300 668.1300 425.1300 668.1300L425.1300 668.1300ZM459.0600 690.9000L459.0600 690.9000Q449.0700 690.9000 443.2200 685.1400Q437.3700 679.3800 436.9200 668.7600L436.9200 668.7600Q436.8300 667.8600 436.8300 666.4650Q436.8300 665.0700 436.9200 664.2600L436.9200 664.2600Q437.2800 657.4200 440.0250 652.5150Q442.7700 647.6100 447.6300 644.9550Q452.4900 642.3000 459.0600 642.3000L459.0600 642.3000Q466.3500 642.3000 471.3000 645.3150Q476.2500 648.3300 478.7700 653.6850Q481.2900 659.0400 481.2900 666.0600L481.2900 666.0600L481.2900 667.9500Q481.2900 668.8500 480.6600 669.4800Q480.0300 670.1100 479.0400 670.1100L479.0400 670.1100L449.1600 670.1100Q449.1600 670.1100 449.1600 670.3800Q449.1600 670.6500 449.1600 670.8300L449.1600 670.8300Q449.2500 673.9800 450.3750 676.6350Q451.5000 679.2900 453.7050 680.9100Q455.9100 682.5300 458.9700 682.5300L458.9700 682.5300Q461.4900 682.5300 463.2000 681.7650Q464.9100 681 465.9900 680.0100Q467.0700 679.0200 467.5200 678.3900L467.5200 678.3900Q468.3300 677.3100 468.8250 677.0850Q469.3200 676.8600 470.3100 676.8600L470.3100 676.8600L478.0500 676.8600Q478.9500 676.8600 479.5350 677.4000Q480.1200 677.9400 480.0300 678.7500L480.0300 678.7500Q479.9400 680.1900 478.5450 682.2600Q477.1500 684.3300 474.5400 686.3100Q471.9300 688.2900 468.0150 689.5950Q464.1000 690.9000 459.0600 690.9000ZM449.1600 662.2800L449.1600 662.5500L469.0500 662.5500L469.0500 662.2800Q469.0500 658.7700 467.8800 656.1150Q466.7100 653.4600 464.4600 651.9750Q462.2100 650.4900 459.0600 650.4900L459.0600 650.4900Q455.9100 650.4900 453.6600 651.9750Q451.4100 653.4600 450.2850 656.1150Q449.1600 658.7700 449.1600 662.2800L449.1600 662.2800ZM500.9100 690L492.9900 690Q492.0900 690 491.4600 689.3700Q490.8300 688.7400 490.8300 687.8400L490.8300 687.8400L490.8300 645.3600Q490.8300 644.4600 491.4600 643.8300Q492.0900 643.2000 492.9900 643.2000L492.9900 643.2000L500.3700 643.2000Q501.2700 643.2000 501.9000 643.8300Q502.5300 644.4600 502.5300 645.3600L502.5300 645.3600L502.5300 649.0500Q504.8700 646.1700 508.5150 644.2350Q512.1600 642.3000 517.5600 642.3000L517.5600 642.3000Q523.0500 642.3000 527.1000 644.7750Q531.1500 647.2500 533.3550 651.7500Q535.5600 656.2500 535.5600 662.5500L535.5600 662.5500L535.5600 687.8400Q535.5600 688.7400 534.9300 689.3700Q534.3000 690 533.4000 690L533.4000 690L525.4800 690Q524.5800 690 523.9500 689.3700Q523.3200 688.7400 523.3200 687.8400L523.3200 687.8400L523.3200 663.0900Q523.3200 657.8700 520.7550 654.9000Q518.1900 651.9300 513.3300 651.9300L513.3300 651.9300Q508.6500 651.9300 505.8600 654.9000Q503.0700 657.8700 503.0700 663.0900L503.0700 663.0900L503.0700 687.8400Q503.0700 688.7400 502.4400 689.3700Q501.8100 690 500.9100 690L500.9100 690ZM564.3600 690.9000L564.3600 690.9000Q559.6800 690.9000 556.1250 689.3250Q552.5700 687.7500 550.2300 684.8700Q547.8900 681.9900 546.6300 678.0750Q545.3700 674.1600 545.1900 669.4800L545.1900 669.4800Q545.1000 667.8600 545.1000 666.5550Q545.1000 665.2500 545.1900 663.6300L545.1900 663.6300Q545.3700 659.1300 546.5850 655.2600Q547.8000 651.3900 550.1850 648.4650Q552.5700 645.5400 556.1250 643.9200Q559.6800 642.3000 564.3600 642.3000L564.3600 642.3000Q569.2200 642.3000 572.5950 643.9650Q575.9700 645.6300 578.2200 648.2400L578.2200 648.2400L578.2200 628.2600Q578.2200 627.3600 578.8050 626.7300Q579.3900 626.1000 580.3800 626.1000L580.3800 626.1000L588.0300 626.1000Q588.9300 626.1000 589.5600 626.7300Q590.1900 627.3600 590.1900 628.2600L590.1900 628.2600L590.1900 687.8400Q590.1900 688.7400 589.5600 689.3700Q588.9300 690 588.0300 690L588.0300 690L580.9200 690Q579.9300 690 579.3450 689.3700Q578.7600 688.7400 578.7600 687.8400L578.7600 687.8400L578.7600 684.5100Q576.5100 687.3000 573.0450 689.1000Q569.5800 690.9000 564.3600 690.9000ZM567.6900 681.2700L567.6900 681.2700Q571.4700 681.2700 573.7200 679.5600Q575.9700 677.8500 577.0500 675.1950Q578.1300 672.5400 578.2200 669.7500L578.2200 669.7500Q578.3100 668.1300 578.3100 666.2850Q578.3100 664.4400 578.2200 662.8200L578.2200 662.8200Q578.1300 660.1200 576.9600 657.6450Q575.7900 655.1700 573.5400 653.5500Q571.2900 651.9300 567.6900 651.9300L567.6900 651.9300Q563.9100 651.9300 561.7050 653.5950Q559.5000 655.2600 558.5100 657.9600Q557.5200 660.6600 557.3400 663.9000L557.3400 663.9000Q557.2500 666.6000 557.3400 669.3000L557.3400 669.3000Q557.5200 672.5400 558.5100 675.2400Q559.5000 677.9400 561.7050 679.6050Q563.9100 681.2700 567.6900 681.2700Z" id="title"/><path d="M1448.3200 650L1426.4800 650Q1423.8400 650 1422.2800 648.3200Q1420.7200 646.6400 1420.7200 644.2400L1420.7200 644.2400L1420.7200 519.9200L1384.2400 548Q1382.0800 549.4400 1379.9200 549.0800Q1377.7600 548.7200 1376.0800 546.5600L1376.0800 546.5600L1366 533.6000Q1364.5600 531.4400 1364.9200 529.0400Q1365.2800 526.6400 1367.4400 525.2000L1367.4400 525.2000L1421.2000 483.6800Q1422.6400 482.4800 1424.0800 482.2400Q1425.5200 482 1427.2000 482L1427.2000 482L1448.3200 482Q1450.7200 482 1452.4000 483.6800Q1454.0800 485.3600 1454.0800 487.7600L1454.0800 487.7600L1454.0800 644.2400Q1454.0800 646.6400 1452.4000 648.3200Q1450.7200 650 1448.3200 650L1448.3200 650ZM1515.2800 650L1491.2800 650Q1488.8800 650 1487.2000 648.3200Q1485.5200 646.6400 1485.5200 644.2400L1485.5200 644.2400L1485.5200 620.4800Q1485.5200 617.8400 1487.2000 616.1600Q1488.8800 614.4800 1491.2800 614.4800L1491.2800 614.4800L1515.2800 614.4800Q1517.6800 614.4800 1519.3600 616.1600Q1521.0400 617.8400 1521.0400 620.4800L1521.0400 620.4800L1521.0400 644.2400Q1521.0400 646.6400 1519.3600 648.3200Q1517.6800 650 1515.2800 650L1515.2800 650ZM1607.9200 650L1586.0800 650Q1583.4400 650 1581.8800 648.3200Q1580.3200 646.6400 1580.3200 644.2400L1580.3200 644.2400L1580.3200 519.9200L1543.8400 548Q1541.6800 549.4400 1539.5200 549.0800Q1537.3600 548.7200 1535.6800 546.5600L1535.6800 546.5600L1525.6000 533.6000Q1524.1600 531.4400 1524.5200 529.0400Q1524.8800 526.6400 1527.0400 525.2000L1527.0400 525.2000L1580.8000 483.6800Q1582.2400 482.4800 1583.6800 482.2400Q1585.1200 482 1586.8000 482L1586.8000 482L1607.9200 482Q1610.3200 482 1612 483.6800Q1613.6800 485.3600 1613.6800 487.7600L1613.6800 487.7600L1613.6800 644.2400Q1613.6800 646.6400 1612 648.3200Q1610.3200 650 1607.9200 650L1607.9200 650Z" id="lecture-full-number"/></g></svg>