<svg xmlns="http://www.w3.org/2000/svg" version="1.1" xmlns:xlink="http://www.w3.org/1999/xlink" xmlns:svgjs="http://svgjs.dev/svgjs" viewBox="0 0 1920 1080" id="2e853737-2014-410c-9539-e63b9f44efbe"><g><rect width="1920" height="1080" fill="#50b2c0"/></g><g fill="#e35f79"><path d="M865 270L865 2467C258.907 2467 -232 1976.03 -232 1369.87C-232 760.965 258.907 270 865 270Z"/></g><g fill="#ffffff" opacity="0.2"><path d="M1829.66 1149.02C1826.52 1125.1 1822.11 1101.18 1817.7 1077.89L1577.22 1318.37H1660.32L1829.66 1149.02Z"/><path d="M1798.82 998.567C1793.15 977.163 1786.23 955.759 1779.3 934.984L1395.92 1319H1479.02L1798.82 998.567Z"/><path d="M1752.86 863.214C1744.68 843.698 1736.5 824.183 1727.68 805.297L1214.61 1319H1297.71L1752.86 863.214Z"/><path d="M1694.32 739.83C1684.88 722.203 1674.17 704.576 1664.1 686.949L1147.89 1203.8C1152.92 1227.72 1156.7 1251.64 1158.59 1276.19L1694.32 739.83Z"/><path d="M1625.07 627.77C1613.73 611.402 1601.77 595.664 1589.81 579.926L1098.78 1071.59C1108.22 1089.85 1117.03 1109.36 1124.59 1128.88L1625.07 627.77Z"/><path d="M1546.38 525.789C1533.79 510.68 1520.57 496.201 1506.72 482.352L1025.12 964.574C1038.35 979.053 1050.31 994.791 1061.64 1011.16L1546.38 525.789Z"/><path d="M1457.61 433.249C1443.13 420.029 1428.65 406.809 1413.54 394.219L928.802 879.589C945.17 890.92 960.908 902.881 975.387 916.101L1457.61 433.249Z"/><path d="M1358.78 350.148C1343.04 338.187 1326.67 326.855 1310.3 315.523L808.564 817.891C828.709 825.445 847.595 833.629 866.481 843.072L1358.78 350.148Z"/><path d="M1251.12 276.495C1233.5 265.793 1215.87 255.72 1198.24 246.277L659.364 785.787C684.545 787.046 709.097 790.194 733.019 795.23L1251.12 276.495Z"/><path d="M1132.14 214.166C1113.26 205.352 1093.74 197.168 1074.23 188.984L626.627 637.212V720.31L1132.14 214.166Z"/><path d="M1001.83 163.175C980.427 156.25 959.023 149.955 937.619 144.289L626 455.908V539.006L1001.83 163.175Z"/><path d="M857.666 126.035C834.373 121.628 810.451 117.851 786.529 114.074L626.627 274.605V357.703L857.666 126.035Z"/><path d="M626.626 176.396L697.134 105.889C673.841 104.629 650.548 104 626.626 104V176.396Z"/></g><g><path d="M178.635 139.281L184.422 144.246V166.626H215.704L219.958 172.147L215.69 177.397H184.422V198.795L178.635 203.747L173 198.795V144.232L178.635 139.281ZM195.554 195.68H219.406L223.397 200.915L219.143 206.45H195.554L191.7 201.342L195.554 195.68ZM196.382 138H219.129L223.383 143.52L219.129 148.77H196.659L192.115 143.677L196.382 138ZM323.155 148.628L328.251 154.291L323.155 159.968H246.13L241.172 154.291L246.13 148.628H323.155ZM237.043 172.147L241.849 167.893L246.669 172.147V178.393C246.669 188.879 249.417 197.515 261.668 197.515H264.14C275.147 197.515 281.197 189.86 281.197 177.952V172.005L285.879 167.75L290.699 171.862V178.379C290.699 189.007 293.723 196.946 305.56 196.946H307.618C319.178 196.946 321.235 187.869 321.373 177.952V171.578L326.056 167.608L331 171.72V178.094C330.862 191.838 327.285 207.574 308.032 207.574H305.974C294.552 207.574 288.365 202.324 285.892 195.808C283.006 202.466 275.299 208.286 264.844 208.286H262.358C242.553 208.286 237.194 195.964 237.056 178.663V172.147H237.043ZM276.391 274.744L273.642 267.089L280.796 264.969L305.974 276.721V252.491L311.07 248.095L316.291 252.491V281.829L325.641 286.226L328.251 293.311L320.959 296L276.391 274.744ZM321.235 223.011L328.113 226.27L325.917 233.497L264.002 263.119L256.571 260.146L259.596 252.776L321.235 223.011ZM231.905 263.404L237.954 268.512C237.402 286.51 222.403 296 204.669 296H202.874C194.062 296 183.759 292.6 177.157 286.083L177.834 278.855L184.298 278.002C189.118 282.256 195.858 285.229 202.183 285.229H204.117C216.091 285.229 225.303 280.136 226.27 268.085L231.905 263.404ZM226.256 251.638C225.704 239.16 216.629 234.209 204.103 234.209H202.169C194.739 234.209 189.104 237.182 184.284 241.436L177.834 240.583L177.143 233.355C183.745 226.696 192.957 223.58 202.597 223.58H204.517C222.403 223.58 237.402 232.942 237.94 251.211L231.891 256.176L226.256 251.638Z" fill="#ffffff"/></g><path d="M1171 781L1171 339L1187 339L1187 781L1171 781Z" fill="#ffffff"/><g fill="#ffffff" id="info-group"><path d="M160.9800 600L153.1500 600Q152.4300 600 151.8450 599.4600Q151.2600 598.9200 151.2600 598.1100L151.2600 598.1100Q151.2600 597.7500 151.4400 597.3000L151.4400 597.3000L173.1300 539.2500Q173.4000 538.3500 174.1650 537.6750Q174.9300 537 176.2800 537L176.2800 537L186.0900 537Q187.4400 537 188.1600 537.6750Q188.8800 538.3500 189.2400 539.2500L189.2400 539.2500L210.9300 597.3000Q211.0200 597.7500 211.0200 598.1100L211.0200 598.1100Q211.0200 598.9200 210.4800 599.4600Q209.9400 600 209.2200 600L209.2200 600L201.3900 600Q200.1300 600 199.5450 599.4150Q198.9600 598.8300 198.7800 598.2900L198.7800 598.2900L194.5500 587.3100L167.8200 587.3100L163.5900 598.2900Q163.4100 598.8300 162.8250 599.4150Q162.2400 600 160.9800 600L160.9800 600ZM181.1400 549.1500L170.9700 576.9600L191.4000 576.9600L181.1400 549.1500ZM213.9900 617.1000L210.5700 617.1000Q209.6700 617.1000 209.0400 616.4700Q208.4100 615.8400 208.4100 614.9400L208.4100 614.9400L208.4100 609.7200Q208.4100 608.8200 209.0400 608.1900Q209.6700 607.5600 210.5700 607.5600L210.5700 607.5600L212.9100 607.5600Q215.7000 607.5600 217.0500 606.5700Q218.4000 605.5800 218.8500 603.8250Q219.3000 602.0700 219.3000 599.9100L219.3000 599.9100L219.3000 555.3600Q219.3000 554.4600 219.9300 553.8300Q220.5600 553.2000 221.4600 553.2000L221.4600 553.2000L229.2900 553.2000Q230.1900 553.2000 230.8200 553.8300Q231.4500 554.4600 231.4500 555.3600L231.4500 555.3600L231.4500 600.0900Q231.4500 605.4000 229.5150 609.1800Q227.5800 612.9600 223.7550 615.0300Q219.9300 617.1000 213.9900 617.1000L213.9900 617.1000ZM229.5600 545.4600L221.1000 545.4600Q220.1100 545.4600 219.5250 544.8300Q218.9400 544.2000 218.9400 543.3000L218.9400 543.3000L218.9400 536.8200Q218.9400 535.9200 219.5250 535.2900Q220.1100 534.6600 221.1000 534.6600L221.1000 534.6600L229.5600 534.6600Q230.5500 534.6600 231.1800 535.2900Q231.8100 535.9200 231.8100 536.8200L231.8100 536.8200L231.8100 543.3000Q231.8100 544.2000 231.1800 544.8300Q230.5500 545.4600 229.5600 545.4600L229.5600 545.4600ZM257.0100 600.9000L257.0100 600.9000Q252.3300 600.9000 248.5500 599.0550Q244.7700 597.2100 242.5650 594.1050Q240.3600 591 240.3600 587.1300L240.3600 587.1300Q240.3600 580.8300 245.4900 577.0950Q250.6200 573.3600 258.9000 572.1000L258.9000 572.1000L271.2300 570.3000L271.2300 568.4100Q271.2300 564.6300 269.3400 562.5600Q267.4500 560.4900 262.8600 560.4900L262.8600 560.4900Q259.6200 560.4900 257.5950 561.7950Q255.5700 563.1000 254.5800 565.2600L254.5800 565.2600Q253.8600 566.4300 252.5100 566.4300L252.5100 566.4300L245.4000 566.4300Q244.4100 566.4300 243.9150 565.8900Q243.4200 565.3500 243.4200 564.4500L243.4200 564.4500Q243.5100 563.0100 244.6350 560.9400Q245.7600 558.8700 248.0550 556.9350Q250.3500 555 254.0400 553.6500Q257.7300 552.3000 262.9500 552.3000L262.9500 552.3000Q268.6200 552.3000 272.5350 553.6950Q276.4500 555.0900 278.7900 557.4300Q281.1300 559.7700 282.2100 562.9200Q283.2900 566.0700 283.2900 569.5800L283.2900 569.5800L283.2900 597.8400Q283.2900 598.7400 282.6600 599.3700Q282.0300 600 281.1300 600L281.1300 600L273.8400 600Q272.8500 600 272.2650 599.3700Q271.6800 598.7400 271.6800 597.8400L271.6800 597.8400L271.6800 594.3300Q270.5100 595.9500 268.5300 597.4800Q266.5500 599.0100 263.7150 599.9550Q260.8800 600.9000 257.0100 600.9000ZM260.0700 592.3500L260.0700 592.3500Q263.2200 592.3500 265.7850 591Q268.3500 589.6500 269.8350 586.8150Q271.3200 583.9800 271.3200 579.6600L271.3200 579.6600L271.3200 577.7700L262.3200 579.2100Q257.0100 580.0200 254.4000 581.8200Q251.7900 583.6200 251.7900 586.2300L251.7900 586.2300Q251.7900 588.2100 253.0050 589.6050Q254.2200 591 256.1100 591.6750Q258 592.3500 260.0700 592.3500ZM300.7500 600L292.8300 600Q292.0200 600 291.4350 599.4150Q290.8500 598.8300 290.8500 598.0200L290.8500 598.0200Q290.8500 597.7500 290.9850 597.3900Q291.1200 597.0300 291.4800 596.4900L291.4800 596.4900L306.7800 575.9700L292.5600 556.7100Q292.2900 556.2600 292.1550 555.9000Q292.0200 555.5400 292.0200 555.1800L292.0200 555.1800Q292.0200 554.3700 292.6050 553.7850Q293.1900 553.2000 294 553.2000L294 553.2000L301.8300 553.2000Q302.9100 553.2000 303.4500 553.7400Q303.9900 554.2800 304.2600 554.7300L304.2600 554.7300L314.4300 568.2300L324.6000 554.7300Q324.9600 554.2800 325.4550 553.7400Q325.9500 553.2000 327.0300 553.2000L327.0300 553.2000L334.5000 553.2000Q335.3100 553.2000 335.8950 553.7850Q336.4800 554.3700 336.4800 555.0900L336.4800 555.0900Q336.4800 555.5400 336.3450 555.9000Q336.2100 556.2600 335.9400 556.7100L335.9400 556.7100L321.5400 576.1500L336.9300 596.4900Q337.2900 597.0300 337.4250 597.3900Q337.5600 597.7500 337.5600 598.0200L337.5600 598.0200Q337.5600 598.8300 336.9750 599.4150Q336.3900 600 335.5800 600L335.5800 600L327.3900 600Q326.4000 600 325.8600 599.5050Q325.3200 599.0100 324.9600 598.5600L324.9600 598.5600L314.1600 584.2500L303.1800 598.5600Q302.8200 599.0100 302.3250 599.5050Q301.8300 600 300.7500 600L300.7500 600ZM386.3400 600.9000L386.3400 600.9000Q376.3500 600.9000 370.5000 595.1400Q364.6500 589.3800 364.2000 578.7600L364.2000 578.7600Q364.1100 577.8600 364.1100 576.4650Q364.1100 575.0700 364.2000 574.2600L364.2000 574.2600Q364.5600 567.4200 367.3050 562.5150Q370.0500 557.6100 374.9100 554.9550Q379.7700 552.3000 386.3400 552.3000L386.3400 552.3000Q393.6300 552.3000 398.5800 555.3150Q403.5300 558.3300 406.0500 563.6850Q408.5700 569.0400 408.5700 576.0600L408.5700 576.0600L408.5700 577.9500Q408.5700 578.8500 407.9400 579.4800Q407.3100 580.1100 406.3200 580.1100L406.3200 580.1100L376.4400 580.1100Q376.4400 580.1100 376.4400 580.3800Q376.4400 580.6500 376.4400 580.8300L376.4400 580.8300Q376.5300 583.9800 377.6550 586.6350Q378.7800 589.2900 380.9850 590.9100Q383.1900 592.5300 386.2500 592.5300L386.2500 592.5300Q388.7700 592.5300 390.4800 591.7650Q392.1900 591 393.2700 590.0100Q394.3500 589.0200 394.8000 588.3900L394.8000 588.3900Q395.6100 587.3100 396.1050 587.0850Q396.6000 586.8600 397.5900 586.8600L397.5900 586.8600L405.3300 586.8600Q406.2300 586.8600 406.8150 587.4000Q407.4000 587.9400 407.3100 588.7500L407.3100 588.7500Q407.2200 590.1900 405.8250 592.2600Q404.4300 594.3300 401.8200 596.3100Q399.2100 598.2900 395.2950 599.5950Q391.3800 600.9000 386.3400 600.9000ZM376.4400 572.2800L376.4400 572.5500L396.3300 572.5500L396.3300 572.2800Q396.3300 568.7700 395.1600 566.1150Q393.9900 563.4600 391.7400 561.9750Q389.4900 560.4900 386.3400 560.4900L386.3400 560.4900Q383.1900 560.4900 380.9400 561.9750Q378.6900 563.4600 377.5650 566.1150Q376.4400 568.7700 376.4400 572.2800L376.4400 572.2800ZM482.2800 600L441.9600 600Q441.0600 600 440.4300 599.3700Q439.8000 598.7400 439.8000 597.8400L439.8000 597.8400L439.8000 539.2500Q439.8000 538.2600 440.4300 537.6300Q441.0600 537 441.9600 537L441.9600 537L481.5600 537Q482.5500 537 483.1800 537.6300Q483.8100 538.2600 483.8100 539.2500L483.8100 539.2500L483.8100 545.1900Q483.8100 546.0900 483.1800 546.7200Q482.5500 547.3500 481.5600 547.3500L481.5600 547.3500L451.9500 547.3500L451.9500 563.2800L479.5800 563.2800Q480.5700 563.2800 481.2000 563.8650Q481.8300 564.4500 481.8300 565.4400L481.8300 565.4400L481.8300 571.0200Q481.8300 572.0100 481.2000 572.5950Q480.5700 573.1800 479.5800 573.1800L479.5800 573.1800L451.9500 573.1800L451.9500 589.6500L482.2800 589.6500Q483.2700 589.6500 483.9000 590.2800Q484.5300 590.9100 484.5300 591.9000L484.5300 591.9000L484.5300 597.8400Q484.5300 598.7400 483.9000 599.3700Q483.2700 600 482.2800 600L482.2800 600ZM500.6400 600L492.7200 600Q491.9100 600 491.3250 599.4150Q490.7400 598.8300 490.7400 598.0200L490.7400 598.0200Q490.7400 597.7500 490.8750 597.3900Q491.0100 597.0300 491.3700 596.4900L491.3700 596.4900L506.6700 575.9700L492.4500 556.7100Q492.1800 556.2600 492.0450 555.9000Q491.9100 555.5400 491.9100 555.1800L491.9100 555.1800Q491.9100 554.3700 492.4950 553.7850Q493.0800 553.2000 493.8900 553.2000L493.8900 553.2000L501.7200 553.2000Q502.8000 553.2000 503.3400 553.7400Q503.8800 554.2800 504.1500 554.7300L504.1500 554.7300L514.3200 568.2300L524.4900 554.7300Q524.8500 554.2800 525.3450 553.7400Q525.8400 553.2000 526.9200 553.2000L526.9200 553.2000L534.3900 553.2000Q535.2000 553.2000 535.7850 553.7850Q536.3700 554.3700 536.3700 555.0900L536.3700 555.0900Q536.3700 555.5400 536.2350 555.9000Q536.1000 556.2600 535.8300 556.7100L535.8300 556.7100L521.4300 576.1500L536.8200 596.4900Q537.1800 597.0300 537.3150 597.3900Q537.4500 597.7500 537.4500 598.0200L537.4500 598.0200Q537.4500 598.8300 536.8650 599.4150Q536.2800 600 535.4700 600L535.4700 600L527.2800 600Q526.2900 600 525.7500 599.5050Q525.2100 599.0100 524.8500 598.5600L524.8500 598.5600L514.0500 584.2500L503.0700 598.5600Q502.7100 599.0100 502.2150 599.5050Q501.7200 600 500.6400 600L500.6400 600ZM565.7100 600.9000L565.7100 600.9000Q559.2300 600.9000 554.3250 598.4700Q549.4200 596.0400 546.6750 591.4050Q543.9300 586.7700 543.6600 580.2000L543.6600 580.2000Q543.5700 578.8500 543.5700 576.6450Q543.5700 574.4400 543.6600 573L543.6600 573Q543.9300 566.4300 546.6750 561.7950Q549.4200 557.1600 554.3250 554.7300Q559.2300 552.3000 565.7100 552.3000L565.7100 552.3000Q571.4700 552.3000 575.5200 553.8750Q579.5700 555.4500 582.1800 557.9250Q584.7900 560.4000 586.0950 563.0550Q587.4000 565.7100 587.4900 567.8700L587.4900 567.8700Q587.5800 568.8600 586.9050 569.4450Q586.2300 570.0300 585.3300 570.0300L585.3300 570.0300L577.4100 570.0300Q576.5100 570.0300 576.0150 569.5800Q575.5200 569.1300 575.0700 568.2300L575.0700 568.2300Q573.7200 564.6300 571.5150 563.1450Q569.3100 561.6600 565.8900 561.6600L565.8900 561.6600Q561.3900 561.6600 558.7350 564.4950Q556.0800 567.3300 555.9000 573.4500L555.9000 573.4500Q555.7200 576.8700 555.9000 579.7500L555.9000 579.7500Q556.0800 585.9600 558.7350 588.7500Q561.3900 591.5400 565.8900 591.5400L565.8900 591.5400Q569.4000 591.5400 571.5600 590.0550Q573.7200 588.5700 575.0700 584.9700L575.0700 584.9700Q575.5200 584.0700 576.0150 583.6200Q576.5100 583.1700 577.4100 583.1700L577.4100 583.1700L585.3300 583.1700Q586.2300 583.1700 586.9050 583.7550Q587.5800 584.3400 587.4900 585.3300L587.4900 585.3300Q587.4000 586.9500 586.6350 588.9750Q585.8700 591 584.2050 593.1150Q582.5400 595.2300 580.0200 596.9850Q577.5000 598.7400 573.9450 599.8200Q570.3900 600.9000 565.7100 600.9000ZM617.0100 600.9000L617.0100 600.9000Q607.0200 600.9000 601.1700 595.1400Q595.3200 589.3800 594.8700 578.7600L594.8700 578.7600Q594.7800 577.8600 594.7800 576.4650Q594.7800 575.0700 594.8700 574.2600L594.8700 574.2600Q595.2300 567.4200 597.9750 562.5150Q600.7200 557.6100 605.5800 554.9550Q610.4400 552.3000 617.0100 552.3000L617.0100 552.3000Q624.3000 552.3000 629.2500 555.3150Q634.2000 558.3300 636.7200 563.6850Q639.2400 569.0400 639.2400 576.0600L639.2400 576.0600L639.2400 577.9500Q639.2400 578.8500 638.6100 579.4800Q637.9800 580.1100 636.9900 580.1100L636.9900 580.1100L607.1100 580.1100Q607.1100 580.1100 607.1100 580.3800Q607.1100 580.6500 607.1100 580.8300L607.1100 580.8300Q607.2000 583.9800 608.3250 586.6350Q609.4500 589.2900 611.6550 590.9100Q613.8600 592.5300 616.9200 592.5300L616.9200 592.5300Q619.4400 592.5300 621.1500 591.7650Q622.8600 591 623.9400 590.0100Q625.0200 589.0200 625.4700 588.3900L625.4700 588.3900Q626.2800 587.3100 626.7750 587.0850Q627.2700 586.8600 628.2600 586.8600L628.2600 586.8600L636.0000 586.8600Q636.9000 586.8600 637.4850 587.4000Q638.0700 587.9400 637.9800 588.7500L637.9800 588.7500Q637.8900 590.1900 636.4950 592.2600Q635.1000 594.3300 632.4900 596.3100Q629.8800 598.2900 625.9650 599.5950Q622.0500 600.9000 617.0100 600.9000ZM607.1100 572.2800L607.1100 572.5500L627.0000 572.5500L627.0000 572.2800Q627.0000 568.7700 625.8300 566.1150Q624.6600 563.4600 622.4100 561.9750Q620.1600 560.4900 617.0100 560.4900L617.0100 560.4900Q613.8600 560.4900 611.6100 561.9750Q609.3600 563.4600 608.2350 566.1150Q607.1100 568.7700 607.1100 572.2800L607.1100 572.2800ZM668.9400 619.8000L668.9400 619.8000Q666.4200 619.7100 664.4850 618.9000Q662.5500 618.0900 661.6950 617.0100Q660.8400 615.9300 661.7400 615.2100L661.7400 615.2100L663.2700 613.8600Q664.0800 613.1400 664.6650 613.4550Q665.2500 613.7700 666.1950 614.3550Q667.1400 614.9400 668.9400 614.9400L668.9400 614.9400Q670.2900 614.9400 671.2800 614.0850Q672.2700 613.2300 672.2700 611.8800L672.2700 611.8800Q672.2700 610.6200 671.3250 609.8100Q670.3800 609 668.9400 609L668.9400 609Q667.6800 609 666.7800 609.3150Q665.8800 609.6300 665.1600 609.7650Q664.4400 609.9000 663.7200 609.1800L663.7200 609.1800L662.1000 607.5600Q661.5600 606.9300 661.7400 606.2550Q661.9200 605.5800 662.2800 604.7700L662.2800 604.7700L664.1700 600.4500Q656.4300 599.2800 651.8400 594.0150Q647.2500 588.7500 646.9800 580.2000L646.9800 580.2000Q646.8900 578.8500 646.8900 576.6450Q646.8900 574.4400 646.9800 573L646.9800 573Q647.2500 566.4300 649.9950 561.7950Q652.7400 557.1600 657.6450 554.7300Q662.5500 552.3000 669.0300 552.3000L669.0300 552.3000Q674.7900 552.3000 678.8400 553.8750Q682.8900 555.4500 685.5000 557.9250Q688.1100 560.4000 689.4150 563.0550Q690.7200 565.7100 690.8100 567.8700L690.8100 567.8700Q690.9000 568.8600 690.2250 569.4450Q689.5500 570.0300 688.6500 570.0300L688.6500 570.0300L680.7300 570.0300Q679.8300 570.0300 679.3350 569.5800Q678.8400 569.1300 678.3900 568.2300L678.3900 568.2300Q677.0400 564.6300 674.8350 563.1450Q672.6300 561.6600 669.2100 561.6600L669.2100 561.6600Q664.7100 561.6600 662.0550 564.4950Q659.4000 567.3300 659.2200 573.4500L659.2200 573.4500Q659.0400 576.8700 659.2200 579.7500L659.2200 579.7500Q659.4000 585.9600 662.0550 588.7500Q664.7100 591.5400 669.2100 591.5400L669.2100 591.5400Q672.7200 591.5400 674.8800 590.0550Q677.0400 588.5700 678.3900 584.9700L678.3900 584.9700Q678.8400 584.0700 679.3350 583.6200Q679.8300 583.1700 680.7300 583.1700L680.7300 583.1700L688.6500 583.1700Q689.5500 583.1700 690.2250 583.7550Q690.9000 584.3400 690.8100 585.3300L690.8100 585.3300Q690.7200 587.3100 689.4600 589.9650Q688.2000 592.6200 685.6800 595.0950Q683.1600 597.5700 679.1100 599.2350Q675.0600 600.9000 669.3000 600.9000L669.3000 600.9000L667.4100 604.7700Q667.9500 604.5000 668.8950 604.3200Q669.8400 604.1400 670.5600 604.1400L670.5600 604.1400Q673.7100 604.1400 675.6450 606.3000Q677.5800 608.4600 677.5800 611.7900L677.5800 611.7900Q677.5800 615.2100 675.3300 617.5500Q673.0800 619.8900 668.9400 619.8000ZM720.8700 600.9000L720.8700 600.9000Q713.6700 600.9000 708.7650 598.3800Q703.8600 595.8600 701.2950 591.2700Q698.7300 586.6800 698.3700 580.5600L698.3700 580.5600Q698.2800 578.9400 698.2800 576.6000Q698.2800 574.2600 698.3700 572.6400L698.3700 572.6400Q698.7300 566.4300 701.3850 561.8850Q704.0400 557.3400 708.9450 554.8200Q713.8500 552.3000 720.8700 552.3000L720.8700 552.3000Q727.8900 552.3000 732.7950 554.8200Q737.7000 557.3400 740.3550 561.8850Q743.0100 566.4300 743.3700 572.6400L743.3700 572.6400Q743.4600 574.2600 743.4600 576.6000Q743.4600 578.9400 743.3700 580.5600L743.3700 580.5600Q743.0100 586.6800 740.4450 591.2700Q737.8800 595.8600 732.9750 598.3800Q728.0700 600.9000 720.8700 600.9000ZM720.8700 591.9900L720.8700 591.9900Q725.6400 591.9900 728.2500 588.9750Q730.8600 585.9600 731.1300 580.1100L731.1300 580.1100Q731.2200 578.7600 731.2200 576.6000Q731.2200 574.4400 731.1300 573.0900L731.1300 573.0900Q730.8600 567.2400 728.2500 564.2250Q725.6400 561.2100 720.8700 561.2100L720.8700 561.2100Q716.1000 561.2100 713.4900 564.2250Q710.8800 567.2400 710.6100 573.0900L710.6100 573.0900Q710.5200 574.4400 710.5200 576.6000Q710.5200 578.7600 710.6100 580.1100L710.6100 580.1100Q710.8800 585.9600 713.4900 588.9750Q716.1000 591.9900 720.8700 591.9900ZM725.8200 546.9000L725.8200 546.9000Q723.4800 546.9000 722.0400 546.1350Q720.6000 545.3700 719.3850 544.5600Q718.1700 543.7500 716.7300 543.7500L716.7300 543.7500Q715.5600 543.7500 715.0650 544.4250Q714.5700 545.1000 714.1200 545.7750Q713.6700 546.4500 712.6800 546.4500L712.6800 546.4500L708.5400 546.4500Q707.9100 546.4500 707.4600 546Q707.0100 545.5500 707.0100 544.9200L707.0100 544.9200Q707.0100 543.5700 707.5050 541.9050Q708 540.2400 709.0800 538.7100Q710.1600 537.1800 711.8250 536.2350Q713.4900 535.2900 715.7400 535.2900L715.7400 535.2900Q718.1700 535.2900 719.6100 536.0550Q721.0500 536.8200 722.2650 537.6300Q723.4800 538.4400 724.9200 538.4400L724.9200 538.4400Q726.0900 538.4400 726.5850 537.7200Q727.0800 537 727.5300 536.3250Q727.9800 535.6500 728.9700 535.6500L728.9700 535.6500L733.1100 535.6500Q733.8300 535.6500 734.2350 536.1450Q734.6400 536.6400 734.6400 537.2700L734.6400 537.2700Q734.6400 538.6200 734.1450 540.2850Q733.6500 541.9500 732.5700 543.4800Q731.4900 545.0100 729.8250 545.9550Q728.1600 546.9000 725.8200 546.9000ZM773.6100 600.9000L773.6100 600.9000Q763.6200 600.9000 757.7700 595.1400Q751.9200 589.3800 751.4700 578.7600L751.4700 578.7600Q751.3800 577.8600 751.3800 576.4650Q751.3800 575.0700 751.4700 574.2600L751.4700 574.2600Q751.8300 567.4200 754.5750 562.5150Q757.3200 557.6100 762.1800 554.9550Q767.0400 552.3000 773.6100 552.3000L773.6100 552.3000Q780.9000 552.3000 785.8500 555.3150Q790.8000 558.3300 793.3200 563.6850Q795.8400 569.0400 795.8400 576.0600L795.8400 576.0600L795.8400 577.9500Q795.8400 578.8500 795.2100 579.4800Q794.5800 580.1100 793.5900 580.1100L793.5900 580.1100L763.7100 580.1100Q763.7100 580.1100 763.7100 580.3800Q763.7100 580.6500 763.7100 580.8300L763.7100 580.8300Q763.8000 583.9800 764.9250 586.6350Q766.0500 589.2900 768.2550 590.9100Q770.4600 592.5300 773.5200 592.5300L773.5200 592.5300Q776.0400 592.5300 777.7500 591.7650Q779.4600 591 780.5400 590.0100Q781.6200 589.0200 782.0700 588.3900L782.0700 588.3900Q782.8800 587.3100 783.3750 587.0850Q783.8700 586.8600 784.8600 586.8600L784.8600 586.8600L792.6000 586.8600Q793.5000 586.8600 794.0850 587.4000Q794.6700 587.9400 794.5800 588.7500L794.5800 588.7500Q794.4900 590.1900 793.0950 592.2600Q791.7000 594.3300 789.0900 596.3100Q786.4800 598.2900 782.5650 599.5950Q778.6500 600.9000 773.6100 600.9000ZM763.7100 572.2800L763.7100 572.5500L783.6000 572.5500L783.6000 572.2800Q783.6000 568.7700 782.4300 566.1150Q781.2600 563.4600 779.0100 561.9750Q776.7600 560.4900 773.6100 560.4900L773.6100 560.4900Q770.4600 560.4900 768.2100 561.9750Q765.9600 563.4600 764.8350 566.1150Q763.7100 568.7700 763.7100 572.2800L763.7100 572.2800ZM823.1100 600.9000L823.1100 600.9000Q817.7100 600.9000 813.8850 599.6400Q810.0600 598.3800 807.6300 596.4900Q805.2000 594.6000 804.0300 592.7100Q802.8600 590.8200 802.7700 589.5600L802.7700 589.5600Q802.6800 588.5700 803.3550 587.9850Q804.0300 587.4000 804.8400 587.4000L804.8400 587.4000L811.9500 587.4000Q812.3100 587.4000 812.5800 587.4900Q812.8500 587.5800 813.3000 588.0300L813.3000 588.0300Q814.4700 589.0200 815.7750 590.1000Q817.0800 591.1800 818.8800 591.9450Q820.6800 592.7100 823.3800 592.7100L823.3800 592.7100Q826.8900 592.7100 829.2750 591.3150Q831.6600 589.9200 831.6600 587.3100L831.6600 587.3100Q831.6600 585.4200 830.6250 584.2500Q829.5900 583.0800 826.8000 582.1350Q824.0100 581.1900 818.8800 580.1100L818.8800 580.1100Q813.8400 578.9400 810.5100 577.1400Q807.1800 575.3400 805.5600 572.6400Q803.9400 569.9400 803.9400 566.3400L803.9400 566.3400Q803.9400 562.8300 806.0550 559.6350Q808.1700 556.4400 812.3550 554.3700Q816.5400 552.3000 822.7500 552.3000L822.7500 552.3000Q827.6100 552.3000 831.2100 553.5150Q834.8100 554.7300 837.1950 556.5300Q839.5800 558.3300 840.8400 560.1750Q842.1000 562.0200 842.1900 563.3700L842.1900 563.3700Q842.2800 564.3600 841.6500 564.9450Q841.0200 565.5300 840.2100 565.5300L840.2100 565.5300L833.5500 565.5300Q833.1000 565.5300 832.7400 565.3500Q832.3800 565.1700 832.0200 564.9000L832.0200 564.9000Q831.0300 564 829.8600 562.9650Q828.6900 561.9300 827.0250 561.2100Q825.3600 560.4900 822.6600 560.4900L822.6600 560.4900Q819.2400 560.4900 817.4400 561.9750Q815.6400 563.4600 815.6400 565.7100L815.6400 565.7100Q815.6400 567.2400 816.4950 568.3650Q817.3500 569.4900 819.9600 570.4800Q822.5700 571.4700 827.8800 572.5500L827.8800 572.5500Q833.9100 573.6300 837.4650 575.7450Q841.0200 577.8600 842.5050 580.6050Q843.9900 583.3500 843.9900 586.6800L843.9900 586.6800Q843.9900 590.7300 841.6050 593.9700Q839.2200 597.2100 834.5850 599.0550Q829.9500 600.9000 823.1100 600.9000Z" id="title"/><path d="M1448.3400 640L1343.1800 640Q1340.9800 640 1339.4400 638.4600Q1337.9000 636.9200 1337.9000 634.7200L1337.9000 634.7200L1337.9000 623.5000Q1337.9000 621.5200 1338.8900 618.7700Q1339.8800 616.0200 1343.4000 613.1600L1343.4000 613.1600L1378.1600 578.6200Q1392.6800 567.1800 1401.5900 559.1500Q1410.5000 551.1200 1414.5700 544.4100Q1418.6400 537.7000 1418.6400 531.1000L1418.6400 531.1000Q1418.6400 521.2000 1413.2500 515.0400Q1407.8600 508.8800 1396.2000 508.8800L1396.2000 508.8800Q1388.5000 508.8800 1383.2200 512.0700Q1377.9400 515.2600 1374.9700 520.5400Q1372 525.8200 1370.9000 532.2000L1370.9000 532.2000Q1370.4600 535.0600 1368.4800 536.1600Q1366.5000 537.2600 1364.5200 537.2600L1364.5200 537.2600L1344.9400 537.2600Q1342.9600 537.2600 1341.6400 535.9400Q1340.3200 534.6200 1340.3200 532.8600L1340.3200 532.8600Q1340.5400 523.4000 1344.2800 514.4900Q1348.0200 505.5800 1355.1700 498.6500Q1362.3200 491.7200 1372.6600 487.5400Q1383 483.3600 1395.9800 483.3600L1395.9800 483.3600Q1414.2400 483.3600 1426.2300 489.5200Q1438.2200 495.6800 1444.2700 506.2400Q1450.3200 516.8000 1450.3200 530L1450.3200 530Q1450.3200 540.3400 1446.3600 549.0300Q1442.4000 557.7200 1434.9200 565.7500Q1427.4400 573.7800 1416.8800 582.1400L1416.8800 582.1400L1385.6400 613.8200L1448.3400 613.8200Q1450.7600 613.8200 1452.1900 615.2500Q1453.6200 616.6800 1453.6200 619.1000L1453.6200 619.1000L1453.6200 634.7200Q1453.6200 636.9200 1452.1900 638.4600Q1450.7600 640 1448.3400 640L1448.3400 640ZM1532.6000 642.2000L1532.6000 642.2000Q1517.2000 642.2000 1505.9800 638.4600Q1494.7600 634.7200 1487.3900 628.6700Q1480.0200 622.6200 1476.2800 615.4700Q1472.5400 608.3200 1472.3200 601.2800L1472.3200 601.2800Q1472.3200 599.3000 1473.7500 598.0900Q1475.1800 596.8800 1477.1600 596.8800L1477.1600 596.8800L1496.9600 596.8800Q1499.1600 596.8800 1500.7000 597.7600Q1502.2400 598.6400 1503.3400 601.2800L1503.3400 601.2800Q1505.3200 607.2200 1509.8300 610.7400Q1514.3400 614.2600 1520.2800 615.6900Q1526.2200 617.1200 1532.8200 617.1200L1532.8200 617.1200Q1546.0200 617.1200 1553.8300 610.8500Q1561.6400 604.5800 1561.6400 592.9200L1561.6400 592.9200Q1561.6400 581.2600 1554.3800 576.0900Q1547.1200 570.9200 1534.1400 570.9200L1534.1400 570.9200L1511.4800 570.9200Q1509.0600 570.9200 1507.5200 569.4900Q1505.9800 568.0600 1505.9800 565.6400L1505.9800 565.6400L1505.9800 556.4000Q1505.9800 554.2000 1506.9700 552.5500Q1507.9600 550.9000 1509.0600 549.8000L1509.0600 549.8000L1548.4400 511.3000L1485.5200 511.3000Q1483.1000 511.3000 1481.6700 509.7600Q1480.2400 508.2200 1480.2400 506.0200L1480.2400 506.0200L1480.2400 491.5000Q1480.2400 489.0800 1481.6700 487.5400Q1483.1000 486 1485.5200 486L1485.5200 486L1579.9000 486Q1582.3200 486 1583.8600 487.5400Q1585.4000 489.0800 1585.4000 491.5000L1585.4000 491.5000L1585.4000 504.7000Q1585.4000 506.6800 1584.5200 508.2200Q1583.6400 509.7600 1582.5400 510.8600L1582.5400 510.8600L1544.4800 550.0200L1547.1200 550.2400Q1560.5400 551.3400 1570.9900 556.2900Q1581.4400 561.2400 1587.2700 570.7000Q1593.1000 580.1600 1593.1000 594.4600L1593.1000 594.4600Q1593.1000 609.4200 1585.2900 620.0900Q1577.4800 630.7600 1563.8400 636.4800Q1550.2000 642.2000 1532.6000 642.2000ZM1643.2600 640L1621.2600 640Q1619.0600 640 1617.5200 638.4600Q1615.9800 636.9200 1615.9800 634.7200L1615.9800 634.7200L1615.9800 612.9400Q1615.9800 610.5200 1617.5200 608.9800Q1619.0600 607.4400 1621.2600 607.4400L1621.2600 607.4400L1643.2600 607.4400Q1645.4600 607.4400 1647 608.9800Q1648.5400 610.5200 1648.5400 612.9400L1648.5400 612.9400L1648.5400 634.7200Q1648.5400 636.9200 1647 638.4600Q1645.4600 640 1643.2600 640L1643.2600 640ZM1730.1600 642.2000L1730.1600 642.2000Q1714.7600 642.2000 1703.5400 638.4600Q1692.3200 634.7200 1684.9500 628.6700Q1677.5800 622.6200 1673.8400 615.4700Q1670.1000 608.3200 1669.8800 601.2800L1669.8800 601.2800Q1669.8800 599.3000 1671.3100 598.0900Q1672.7400 596.8800 1674.7200 596.8800L1674.7200 596.8800L1694.5200 596.8800Q1696.7200 596.8800 1698.2600 597.7600Q1699.8000 598.6400 1700.9000 601.2800L1700.9000 601.2800Q1702.8800 607.2200 1707.3900 610.7400Q1711.9000 614.2600 1717.8400 615.6900Q1723.7800 617.1200 1730.3800 617.1200L1730.3800 617.1200Q1743.5800 617.1200 1751.3900 610.8500Q1759.2000 604.5800 1759.2000 592.9200L1759.2000 592.9200Q1759.2000 581.2600 1751.9400 576.0900Q1744.6800 570.9200 1731.7000 570.9200L1731.7000 570.9200L1709.0400 570.9200Q1706.6200 570.9200 1705.0800 569.4900Q1703.5400 568.0600 1703.5400 565.6400L1703.5400 565.6400L1703.5400 556.4000Q1703.5400 554.2000 1704.5300 552.5500Q1705.5200 550.9000 1706.6200 549.8000L1706.6200 549.8000L1746 511.3000L1683.0800 511.3000Q1680.6600 511.3000 1679.2300 509.7600Q1677.8000 508.2200 1677.8000 506.0200L1677.8000 506.0200L1677.8000 491.5000Q1677.8000 489.0800 1679.2300 487.5400Q1680.6600 486 1683.0800 486L1683.0800 486L1777.4600 486Q1779.8800 486 1781.4200 487.5400Q1782.9600 489.0800 1782.9600 491.5000L1782.9600 491.5000L1782.9600 504.7000Q1782.9600 506.6800 1782.0800 508.2200Q1781.2000 509.7600 1780.1000 510.8600L1780.1000 510.8600L1742.0400 550.0200L1744.6800 550.2400Q1758.1000 551.3400 1768.5500 556.2900Q1779 561.2400 1784.8300 570.7000Q1790.6600 580.1600 1790.6600 594.4600L1790.6600 594.4600Q1790.6600 609.4200 1782.8500 620.0900Q1775.0400 630.7600 1761.4000 636.4800Q1747.7600 642.2000 1730.1600 642.2000Z" id="lecture-full-number"/></g></svg>