<svg xmlns="http://www.w3.org/2000/svg" version="1.1" xmlns:xlink="http://www.w3.org/1999/xlink" xmlns:svgjs="http://svgjs.dev/svgjs" viewBox="0 0 1920 1080" id="298b0e90-477f-47d1-bfc2-4d1473443d91"><g><rect width="1920" height="1080" fill="#3e517a"/></g><g fill="#865070"><path d="M865 270L865 2467C258.907 2467 -232 1976.03 -232 1369.87C-232 760.965 258.907 270 865 270Z"/></g><g fill="#ffffff" opacity="0.2"><path d="M1829.66 1149.02C1826.52 1125.1 1822.11 1101.18 1817.7 1077.89L1577.22 1318.37H1660.32L1829.66 1149.02Z"/><path d="M1798.82 998.567C1793.15 977.163 1786.23 955.759 1779.3 934.984L1395.92 1319H1479.02L1798.82 998.567Z"/><path d="M1752.86 863.214C1744.68 843.698 1736.5 824.183 1727.68 805.297L1214.61 1319H1297.71L1752.86 863.214Z"/><path d="M1694.32 739.83C1684.88 722.203 1674.17 704.576 1664.1 686.949L1147.89 1203.8C1152.92 1227.72 1156.7 1251.64 1158.59 1276.19L1694.32 739.83Z"/><path d="M1625.07 627.77C1613.73 611.402 1601.77 595.664 1589.81 579.926L1098.78 1071.59C1108.22 1089.85 1117.03 1109.36 1124.59 1128.88L1625.07 627.77Z"/><path d="M1546.38 525.789C1533.79 510.68 1520.57 496.201 1506.72 482.352L1025.12 964.574C1038.35 979.053 1050.31 994.791 1061.64 1011.16L1546.38 525.789Z"/><path d="M1457.61 433.249C1443.13 420.029 1428.65 406.809 1413.54 394.219L928.802 879.589C945.17 890.92 960.908 902.881 975.387 916.101L1457.61 433.249Z"/><path d="M1358.78 350.148C1343.04 338.187 1326.67 326.855 1310.3 315.523L808.564 817.891C828.709 825.445 847.595 833.629 866.481 843.072L1358.78 350.148Z"/><path d="M1251.12 276.495C1233.5 265.793 1215.87 255.72 1198.24 246.277L659.364 785.787C684.545 787.046 709.097 790.194 733.019 795.23L1251.12 276.495Z"/><path d="M1132.14 214.166C1113.26 205.352 1093.74 197.168 1074.23 188.984L626.627 637.212V720.31L1132.14 214.166Z"/><path d="M1001.83 163.175C980.427 156.25 959.023 149.955 937.619 144.289L626 455.908V539.006L1001.83 163.175Z"/><path d="M857.666 126.035C834.373 121.628 810.451 117.851 786.529 114.074L626.627 274.605V357.703L857.666 126.035Z"/><path d="M626.626 176.396L697.134 105.889C673.841 104.629 650.548 104 626.626 104V176.396Z"/></g><g><path d="M178.635 139.281L184.422 144.246V166.626H215.704L219.958 172.147L215.69 177.397H184.422V198.795L178.635 203.747L173 198.795V144.232L178.635 139.281ZM195.554 195.68H219.406L223.397 200.915L219.143 206.45H195.554L191.7 201.342L195.554 195.68ZM196.382 138H219.129L223.383 143.52L219.129 148.77H196.659L192.115 143.677L196.382 138ZM323.155 148.628L328.251 154.291L323.155 159.968H246.13L241.172 154.291L246.13 148.628H323.155ZM237.043 172.147L241.849 167.893L246.669 172.147V178.393C246.669 188.879 249.417 197.515 261.668 197.515H264.14C275.147 197.515 281.197 189.86 281.197 177.952V172.005L285.879 167.75L290.699 171.862V178.379C290.699 189.007 293.723 196.946 305.56 196.946H307.618C319.178 196.946 321.235 187.869 321.373 177.952V171.578L326.056 167.608L331 171.72V178.094C330.862 191.838 327.285 207.574 308.032 207.574H305.974C294.552 207.574 288.365 202.324 285.892 195.808C283.006 202.466 275.299 208.286 264.844 208.286H262.358C242.553 208.286 237.194 195.964 237.056 178.663V172.147H237.043ZM276.391 274.744L273.642 267.089L280.796 264.969L305.974 276.721V252.491L311.07 248.095L316.291 252.491V281.829L325.641 286.226L328.251 293.311L320.959 296L276.391 274.744ZM321.235 223.011L328.113 226.27L325.917 233.497L264.002 263.119L256.571 260.146L259.596 252.776L321.235 223.011ZM231.905 263.404L237.954 268.512C237.402 286.51 222.403 296 204.669 296H202.874C194.062 296 183.759 292.6 177.157 286.083L177.834 278.855L184.298 278.002C189.118 282.256 195.858 285.229 202.183 285.229H204.117C216.091 285.229 225.303 280.136 226.27 268.085L231.905 263.404ZM226.256 251.638C225.704 239.16 216.629 234.209 204.103 234.209H202.169C194.739 234.209 189.104 237.182 184.284 241.436L177.834 240.583L177.143 233.355C183.745 226.696 192.957 223.58 202.597 223.58H204.517C222.403 223.58 237.402 232.942 237.94 251.211L231.891 256.176L226.256 251.638Z" fill="#ffffff"/></g><path d="M1171 781L1171 339L1187 339L1187 781L1171 781Z" fill="#ffffff"/><g fill="#ffffff" id="info-group"><path d="M167.7300 600L159.1800 600Q158.2800 600 157.6500 599.3700Q157.0200 598.7400 157.0200 597.8400L157.0200 597.8400L157.0200 539.2500Q157.0200 538.2600 157.6500 537.6300Q158.2800 537 159.1800 537L159.1800 537L183.3000 537Q190.3200 537 195.5400 539.2050Q200.7600 541.4100 203.6400 545.8650Q206.5200 550.3200 206.5200 556.9800L206.5200 556.9800Q206.5200 563.7300 203.6400 568.0950Q200.7600 572.4600 195.5400 574.6200Q190.3200 576.7800 183.3000 576.7800L183.3000 576.7800L169.8900 576.7800L169.8900 597.8400Q169.8900 598.7400 169.3050 599.3700Q168.7200 600 167.7300 600L167.7300 600ZM169.7100 546.9900L169.7100 566.7900L182.8500 566.7900Q188.0700 566.7900 190.8600 564.3150Q193.6500 561.8400 193.6500 556.9800L193.6500 556.9800Q193.6500 552.4800 191.0400 549.7350Q188.4300 546.9900 182.8500 546.9900L182.8500 546.9900L169.7100 546.9900ZM225.2400 600L217.4100 600Q216.5100 600 215.8800 599.3700Q215.2500 598.7400 215.2500 597.8400L215.2500 597.8400L215.2500 555.4500Q215.2500 554.4600 215.8800 553.8300Q216.5100 553.2000 217.4100 553.2000L217.4100 553.2000L224.7000 553.2000Q225.6000 553.2000 226.2750 553.8300Q226.9500 554.4600 226.9500 555.4500L226.9500 555.4500L226.9500 559.1400Q229.0200 556.2600 232.3050 554.7300Q235.5900 553.2000 239.9100 553.2000L239.9100 553.2000L243.6000 553.2000Q244.5900 553.2000 245.1750 553.8300Q245.7600 554.4600 245.7600 555.3600L245.7600 555.3600L245.7600 561.8400Q245.7600 562.7400 245.1750 563.3700Q244.5900 564 243.6000 564L243.6000 564L236.5800 564Q232.2600 564 229.8750 566.3850Q227.4900 568.7700 227.4900 573.0900L227.4900 573.0900L227.4900 597.8400Q227.4900 598.7400 226.8600 599.3700Q226.2300 600 225.2400 600L225.2400 600ZM273.4800 600.9000L273.4800 600.9000Q266.2800 600.9000 261.3750 598.3800Q256.4700 595.8600 253.9050 591.2700Q251.3400 586.6800 250.9800 580.5600L250.9800 580.5600Q250.8900 578.9400 250.8900 576.6000Q250.8900 574.2600 250.9800 572.6400L250.9800 572.6400Q251.3400 566.4300 253.9950 561.8850Q256.6500 557.3400 261.5550 554.8200Q266.4600 552.3000 273.4800 552.3000L273.4800 552.3000Q280.5000 552.3000 285.4050 554.8200Q290.3100 557.3400 292.9650 561.8850Q295.6200 566.4300 295.9800 572.6400L295.9800 572.6400Q296.0700 574.2600 296.0700 576.6000Q296.0700 578.9400 295.9800 580.5600L295.9800 580.5600Q295.6200 586.6800 293.0550 591.2700Q290.4900 595.8600 285.5850 598.3800Q280.6800 600.9000 273.4800 600.9000ZM273.4800 591.9900L273.4800 591.9900Q278.2500 591.9900 280.8600 588.9750Q283.4700 585.9600 283.7400 580.1100L283.7400 580.1100Q283.8300 578.7600 283.8300 576.6000Q283.8300 574.4400 283.7400 573.0900L283.7400 573.0900Q283.4700 567.2400 280.8600 564.2250Q278.2500 561.2100 273.4800 561.2100L273.4800 561.2100Q268.7100 561.2100 266.1000 564.2250Q263.4900 567.2400 263.2200 573.0900L263.2200 573.0900Q263.1300 574.4400 263.1300 576.6000Q263.1300 578.7600 263.2200 580.1100L263.2200 580.1100Q263.4900 585.9600 266.1000 588.9750Q268.7100 591.9900 273.4800 591.9900ZM301.7400 617.1000L298.3200 617.1000Q297.4200 617.1000 296.7900 616.4700Q296.1600 615.8400 296.1600 614.9400L296.1600 614.9400L296.1600 609.7200Q296.1600 608.8200 296.7900 608.1900Q297.4200 607.5600 298.3200 607.5600L298.3200 607.5600L300.6600 607.5600Q303.4500 607.5600 304.8000 606.5700Q306.1500 605.5800 306.6000 603.8250Q307.0500 602.0700 307.0500 599.9100L307.0500 599.9100L307.0500 555.3600Q307.0500 554.4600 307.6800 553.8300Q308.3100 553.2000 309.2100 553.2000L309.2100 553.2000L317.0400 553.2000Q317.9400 553.2000 318.5700 553.8300Q319.2000 554.4600 319.2000 555.3600L319.2000 555.3600L319.2000 600.0900Q319.2000 605.4000 317.2650 609.1800Q315.3300 612.9600 311.5050 615.0300Q307.6800 617.1000 301.7400 617.1000L301.7400 617.1000ZM317.3100 545.4600L308.8500 545.4600Q307.8600 545.4600 307.2750 544.8300Q306.6900 544.2000 306.6900 543.3000L306.6900 543.3000L306.6900 536.8200Q306.6900 535.9200 307.2750 535.2900Q307.8600 534.6600 308.8500 534.6600L308.8500 534.6600L317.3100 534.6600Q318.3000 534.6600 318.9300 535.2900Q319.5600 535.9200 319.5600 536.8200L319.5600 536.8200L319.5600 543.3000Q319.5600 544.2000 318.9300 544.8300Q318.3000 545.4600 317.3100 545.4600L317.3100 545.4600ZM351.3300 600.9000L351.3300 600.9000Q341.3400 600.9000 335.4900 595.1400Q329.6400 589.3800 329.1900 578.7600L329.1900 578.7600Q329.1000 577.8600 329.1000 576.4650Q329.1000 575.0700 329.1900 574.2600L329.1900 574.2600Q329.5500 567.4200 332.2950 562.5150Q335.0400 557.6100 339.9000 554.9550Q344.7600 552.3000 351.3300 552.3000L351.3300 552.3000Q358.6200 552.3000 363.5700 555.3150Q368.5200 558.3300 371.0400 563.6850Q373.5600 569.0400 373.5600 576.0600L373.5600 576.0600L373.5600 577.9500Q373.5600 578.8500 372.9300 579.4800Q372.3000 580.1100 371.3100 580.1100L371.3100 580.1100L341.4300 580.1100Q341.4300 580.1100 341.4300 580.3800Q341.4300 580.6500 341.4300 580.8300L341.4300 580.8300Q341.5200 583.9800 342.6450 586.6350Q343.7700 589.2900 345.9750 590.9100Q348.1800 592.5300 351.2400 592.5300L351.2400 592.5300Q353.7600 592.5300 355.4700 591.7650Q357.1800 591 358.2600 590.0100Q359.3400 589.0200 359.7900 588.3900L359.7900 588.3900Q360.6000 587.3100 361.0950 587.0850Q361.5900 586.8600 362.5800 586.8600L362.5800 586.8600L370.3200 586.8600Q371.2200 586.8600 371.8050 587.4000Q372.3900 587.9400 372.3000 588.7500L372.3000 588.7500Q372.2100 590.1900 370.8150 592.2600Q369.4200 594.3300 366.8100 596.3100Q364.2000 598.2900 360.2850 599.5950Q356.3700 600.9000 351.3300 600.9000ZM341.4300 572.2800L341.4300 572.5500L361.3200 572.5500L361.3200 572.2800Q361.3200 568.7700 360.1500 566.1150Q358.9800 563.4600 356.7300 561.9750Q354.4800 560.4900 351.3300 560.4900L351.3300 560.4900Q348.1800 560.4900 345.9300 561.9750Q343.6800 563.4600 342.5550 566.1150Q341.4300 568.7700 341.4300 572.2800L341.4300 572.2800ZM411.5400 600L404.2500 600Q398.8500 600 395.1600 598.1100Q391.4700 596.2200 389.6700 592.4850Q387.8700 588.7500 387.8700 583.1700L387.8700 583.1700L387.8700 562.7400L380.7600 562.7400Q379.8600 562.7400 379.2300 562.1100Q378.6000 561.4800 378.6000 560.4900L378.6000 560.4900L378.6000 555.3600Q378.6000 554.4600 379.2300 553.8300Q379.8600 553.2000 380.7600 553.2000L380.7600 553.2000L387.8700 553.2000L387.8700 538.2600Q387.8700 537.3600 388.4550 536.7300Q389.0400 536.1000 390.0300 536.1000L390.0300 536.1000L397.3200 536.1000Q398.2200 536.1000 398.8500 536.7300Q399.4800 537.3600 399.4800 538.2600L399.4800 538.2600L399.4800 553.2000L410.7300 553.2000Q411.6300 553.2000 412.2600 553.8300Q412.8900 554.4600 412.8900 555.3600L412.8900 555.3600L412.8900 560.4900Q412.8900 561.4800 412.2600 562.1100Q411.6300 562.7400 410.7300 562.7400L410.7300 562.7400L399.4800 562.7400L399.4800 582.2700Q399.4800 585.9600 400.7850 588.0300Q402.0900 590.1000 405.3300 590.1000L405.3300 590.1000L411.5400 590.1000Q412.4400 590.1000 413.0700 590.7300Q413.7000 591.3600 413.7000 592.2600L413.7000 592.2600L413.7000 597.8400Q413.7000 598.7400 413.0700 599.3700Q412.4400 600 411.5400 600L411.5400 600ZM442.4100 600.9000L442.4100 600.9000Q435.2100 600.9000 430.3050 598.3800Q425.4000 595.8600 422.8350 591.2700Q420.2700 586.6800 419.9100 580.5600L419.9100 580.5600Q419.8200 578.9400 419.8200 576.6000Q419.8200 574.2600 419.9100 572.6400L419.9100 572.6400Q420.2700 566.4300 422.9250 561.8850Q425.5800 557.3400 430.4850 554.8200Q435.3900 552.3000 442.4100 552.3000L442.4100 552.3000Q449.4300 552.3000 454.3350 554.8200Q459.2400 557.3400 461.8950 561.8850Q464.5500 566.4300 464.9100 572.6400L464.9100 572.6400Q465.0000 574.2600 465.0000 576.6000Q465.0000 578.9400 464.9100 580.5600L464.9100 580.5600Q464.5500 586.6800 461.9850 591.2700Q459.4200 595.8600 454.5150 598.3800Q449.6100 600.9000 442.4100 600.9000ZM442.4100 591.9900L442.4100 591.9900Q447.1800 591.9900 449.7900 588.9750Q452.4000 585.9600 452.6700 580.1100L452.6700 580.1100Q452.7600 578.7600 452.7600 576.6000Q452.7600 574.4400 452.6700 573.0900L452.6700 573.0900Q452.4000 567.2400 449.7900 564.2250Q447.1800 561.2100 442.4100 561.2100L442.4100 561.2100Q437.6400 561.2100 435.0300 564.2250Q432.4200 567.2400 432.1500 573.0900L432.1500 573.0900Q432.0600 574.4400 432.0600 576.6000Q432.0600 578.7600 432.1500 580.1100L432.1500 580.1100Q432.4200 585.9600 435.0300 588.9750Q437.6400 591.9900 442.4100 591.9900ZM522.7800 600L514.5900 600Q513.6000 600 513.0150 599.3700Q512.4300 598.7400 512.4300 597.8400L512.4300 597.8400L512.4300 551.2200L498.7500 561.7500Q497.9400 562.2900 497.1300 562.1550Q496.3200 562.0200 495.6900 561.2100L495.6900 561.2100L491.9100 556.3500Q491.3700 555.5400 491.5050 554.6400Q491.6400 553.7400 492.4500 553.2000L492.4500 553.2000L512.6100 537.6300Q513.1500 537.1800 513.6900 537.0900Q514.2300 537 514.8600 537L514.8600 537L522.7800 537Q523.6800 537 524.3100 537.6300Q524.9400 538.2600 524.9400 539.1600L524.9400 539.1600L524.9400 597.8400Q524.9400 598.7400 524.3100 599.3700Q523.6800 600 522.7800 600L522.7800 600Z" id="title"/><path d="M1433.4400 652.6400L1433.4400 652.6400Q1412.8000 652.6400 1398.6400 645.8000Q1384.4800 638.9600 1377.1600 627.9200Q1369.8400 616.8800 1369.3600 604.4000L1369.3600 604.4000Q1369.1200 602.2400 1370.6800 600.9200Q1372.2400 599.6000 1374.4000 599.6000L1374.4000 599.6000L1396.7200 599.6000Q1399.3600 599.6000 1401.1600 600.6800Q1402.9600 601.7600 1403.9200 604.4000L1403.9200 604.4000Q1406.3200 611.6000 1410.7600 616.1600Q1415.2000 620.7200 1421.0800 622.8800Q1426.9600 625.0400 1433.4400 625.0400L1433.4400 625.0400Q1442.0800 625.0400 1449.1600 621.5600Q1456.2400 618.0800 1460.5600 611.1200Q1464.8800 604.1600 1464.8800 594.0800L1464.8800 594.0800Q1464.8800 585.2000 1460.8000 578.7200Q1456.7200 572.2400 1449.6400 568.5200Q1442.5600 564.8000 1433.4400 564.8000L1433.4400 564.8000Q1426.7200 564.8000 1422.4000 566.4800Q1418.0800 568.1600 1415.0800 570.3200Q1412.0800 572.4800 1409.8000 574.1600Q1407.5200 575.8400 1404.6400 575.8400L1404.6400 575.8400L1382.5600 575.8400Q1380.4000 575.8400 1378.8400 574.2800Q1377.2800 572.7200 1377.2800 570.5600L1377.2800 570.5600L1385.6800 488.4800Q1385.9200 485.3600 1387.8400 483.6800Q1389.7600 482 1392.4000 482L1392.4000 482L1482.6400 482Q1485.0400 482 1486.7200 483.6800Q1488.4000 485.3600 1488.4000 487.7600L1488.4000 487.7600L1488.4000 503.8400Q1488.4000 506.2400 1486.7200 507.9200Q1485.0400 509.6000 1482.6400 509.6000L1482.6400 509.6000L1413.2800 509.6000L1409.4400 548.7200Q1413.7600 545.8400 1420.9600 543.2000Q1428.1600 540.5600 1440.8800 540.5600L1440.8800 540.5600Q1452.4000 540.5600 1462.8400 544.2800Q1473.2800 548 1481.4400 555.0800Q1489.6000 562.1600 1494.2800 572.1200Q1498.9600 582.0800 1498.9600 594.8000L1498.9600 594.8000Q1498.9600 612.3200 1490.8000 625.2800Q1482.6400 638.2400 1468 645.4400Q1453.3600 652.6400 1433.4400 652.6400ZM1551.2800 650L1527.2800 650Q1524.8800 650 1523.2000 648.3200Q1521.5200 646.6400 1521.5200 644.2400L1521.5200 644.2400L1521.5200 620.4800Q1521.5200 617.8400 1523.2000 616.1600Q1524.8800 614.4800 1527.2800 614.4800L1527.2800 614.4800L1551.2800 614.4800Q1553.6800 614.4800 1555.3600 616.1600Q1557.0400 617.8400 1557.0400 620.4800L1557.0400 620.4800L1557.0400 644.2400Q1557.0400 646.6400 1555.3600 648.3200Q1553.6800 650 1551.2800 650L1551.2800 650ZM1644.8800 652.6400L1644.8800 652.6400Q1624.2400 652.6400 1610.0800 645.8000Q1595.9200 638.9600 1588.6000 627.9200Q1581.2800 616.8800 1580.8000 604.4000L1580.8000 604.4000Q1580.5600 602.2400 1582.1200 600.9200Q1583.6800 599.6000 1585.8400 599.6000L1585.8400 599.6000L1608.1600 599.6000Q1610.8000 599.6000 1612.6000 600.6800Q1614.4000 601.7600 1615.3600 604.4000L1615.3600 604.4000Q1617.7600 611.6000 1622.2000 616.1600Q1626.6400 620.7200 1632.5200 622.8800Q1638.4000 625.0400 1644.8800 625.0400L1644.8800 625.0400Q1653.5200 625.0400 1660.6000 621.5600Q1667.6800 618.0800 1672.0000 611.1200Q1676.3200 604.1600 1676.3200 594.0800L1676.3200 594.0800Q1676.3200 585.2000 1672.2400 578.7200Q1668.1600 572.2400 1661.0800 568.5200Q1654.0000 564.8000 1644.8800 564.8000L1644.8800 564.8000Q1638.1600 564.8000 1633.8400 566.4800Q1629.5200 568.1600 1626.5200 570.3200Q1623.5200 572.4800 1621.2400 574.1600Q1618.9600 575.8400 1616.0800 575.8400L1616.0800 575.8400L1594.0000 575.8400Q1591.8400 575.8400 1590.2800 574.2800Q1588.7200 572.7200 1588.7200 570.5600L1588.7200 570.5600L1597.1200 488.4800Q1597.3600 485.3600 1599.2800 483.6800Q1601.2000 482 1603.8400 482L1603.8400 482L1694.0800 482Q1696.4800 482 1698.1600 483.6800Q1699.8400 485.3600 1699.8400 487.7600L1699.8400 487.7600L1699.8400 503.8400Q1699.8400 506.2400 1698.1600 507.9200Q1696.4800 509.6000 1694.0800 509.6000L1694.0800 509.6000L1624.7200 509.6000L1620.8800 548.7200Q1625.2000 545.8400 1632.4000 543.2000Q1639.6000 540.5600 1652.3200 540.5600L1652.3200 540.5600Q1663.8400 540.5600 1674.2800 544.2800Q1684.7200 548 1692.8800 555.0800Q1701.0400 562.1600 1705.7200 572.1200Q1710.4000 582.0800 1710.4000 594.8000L1710.4000 594.8000Q1710.4000 612.3200 1702.2400 625.2800Q1694.0800 638.2400 1679.4400 645.4400Q1664.8000 652.6400 1644.8800 652.6400Z" id="lecture-full-number"/></g></svg>