<svg xmlns="http://www.w3.org/2000/svg" version="1.1" xmlns:xlink="http://www.w3.org/1999/xlink" xmlns:svgjs="http://svgjs.dev/svgjs" viewBox="0 0 1920 1080" id="dfd977b3-6d46-4180-95ec-ec328f607461"><g><rect width="1920" height="1080" fill="#cdcdcd"/></g><g fill="#c6ebd7"><path d="M865 270L865 2467C258.907 2467 -232 1976.03 -232 1369.87C-232 760.965 258.907 270 865 270Z"/></g><g fill="#ffffff" opacity="0.4"><path d="M1829.66 1149.02C1826.52 1125.1 1822.11 1101.18 1817.7 1077.89L1577.22 1318.37H1660.32L1829.66 1149.02Z"/><path d="M1798.82 998.567C1793.15 977.163 1786.23 955.759 1779.3 934.984L1395.92 1319H1479.02L1798.82 998.567Z"/><path d="M1752.86 863.214C1744.68 843.698 1736.5 824.183 1727.68 805.297L1214.61 1319H1297.71L1752.86 863.214Z"/><path d="M1694.32 739.83C1684.88 722.203 1674.17 704.576 1664.1 686.949L1147.89 1203.8C1152.92 1227.72 1156.7 1251.64 1158.59 1276.19L1694.32 739.83Z"/><path d="M1625.07 627.77C1613.73 611.402 1601.77 595.664 1589.81 579.926L1098.78 1071.59C1108.22 1089.85 1117.03 1109.36 1124.59 1128.88L1625.07 627.77Z"/><path d="M1546.38 525.789C1533.79 510.68 1520.57 496.201 1506.72 482.352L1025.12 964.574C1038.35 979.053 1050.31 994.791 1061.64 1011.16L1546.38 525.789Z"/><path d="M1457.61 433.249C1443.13 420.029 1428.65 406.809 1413.54 394.219L928.802 879.589C945.17 890.92 960.908 902.881 975.387 916.101L1457.61 433.249Z"/><path d="M1358.78 350.148C1343.04 338.187 1326.67 326.855 1310.3 315.523L808.564 817.891C828.709 825.445 847.595 833.629 866.481 843.072L1358.78 350.148Z"/><path d="M1251.12 276.495C1233.5 265.793 1215.87 255.72 1198.24 246.277L659.364 785.787C684.545 787.046 709.097 790.194 733.019 795.23L1251.12 276.495Z"/><path d="M1132.14 214.166C1113.26 205.352 1093.74 197.168 1074.23 188.984L626.627 637.212V720.31L1132.14 214.166Z"/><path d="M1001.83 163.175C980.427 156.25 959.023 149.955 937.619 144.289L626 455.908V539.006L1001.83 163.175Z"/><path d="M857.666 126.035C834.373 121.628 810.451 117.851 786.529 114.074L626.627 274.605V357.703L857.666 126.035Z"/><path d="M626.626 176.396L697.134 105.889C673.841 104.629 650.548 104 626.626 104V176.396Z"/></g><g><path d="M178.635 139.281L184.422 144.246V166.626H215.704L219.958 172.147L215.69 177.397H184.422V198.795L178.635 203.747L173 198.795V144.232L178.635 139.281ZM195.554 195.68H219.406L223.397 200.915L219.143 206.45H195.554L191.7 201.342L195.554 195.68ZM196.382 138H219.129L223.383 143.52L219.129 148.77H196.659L192.115 143.677L196.382 138ZM323.155 148.628L328.251 154.291L323.155 159.968H246.13L241.172 154.291L246.13 148.628H323.155ZM237.043 172.147L241.849 167.893L246.669 172.147V178.393C246.669 188.879 249.417 197.515 261.668 197.515H264.14C275.147 197.515 281.197 189.86 281.197 177.952V172.005L285.879 167.75L290.699 171.862V178.379C290.699 189.007 293.723 196.946 305.56 196.946H307.618C319.178 196.946 321.235 187.869 321.373 177.952V171.578L326.056 167.608L331 171.72V178.094C330.862 191.838 327.285 207.574 308.032 207.574H305.974C294.552 207.574 288.365 202.324 285.892 195.808C283.006 202.466 275.299 208.286 264.844 208.286H262.358C242.553 208.286 237.194 195.964 237.056 178.663V172.147H237.043ZM276.391 274.744L273.642 267.089L280.796 264.969L305.974 276.721V252.491L311.07 248.095L316.291 252.491V281.829L325.641 286.226L328.251 293.311L320.959 296L276.391 274.744ZM321.235 223.011L328.113 226.27L325.917 233.497L264.002 263.119L256.571 260.146L259.596 252.776L321.235 223.011ZM231.905 263.404L237.954 268.512C237.402 286.51 222.403 296 204.669 296H202.874C194.062 296 183.759 292.6 177.157 286.083L177.834 278.855L184.298 278.002C189.118 282.256 195.858 285.229 202.183 285.229H204.117C216.091 285.229 225.303 280.136 226.27 268.085L231.905 263.404ZM226.256 251.638C225.704 239.16 216.629 234.209 204.103 234.209H202.169C194.739 234.209 189.104 237.182 184.284 241.436L177.834 240.583L177.143 233.355C183.745 226.696 192.957 223.58 202.597 223.58H204.517C222.403 223.58 237.402 232.942 237.94 251.211L231.891 256.176L226.256 251.638Z" fill="#000000"/></g><path d="M1171 781L1171 339L1187 339L1187 781L1171 781Z" fill="#000000"/><g fill="#000000" id="info-group"><path d="M167.7300 555L159.1800 555Q158.2800 555 157.6500 554.3700Q157.0200 553.7400 157.0200 552.8400L157.0200 552.8400L157.0200 494.2500Q157.0200 493.2600 157.6500 492.6300Q158.2800 492 159.1800 492L159.1800 492L183.3000 492Q190.3200 492 195.5400 494.2050Q200.7600 496.4100 203.6400 500.8650Q206.5200 505.3200 206.5200 511.9800L206.5200 511.9800Q206.5200 518.7300 203.6400 523.0950Q200.7600 527.4600 195.5400 529.6200Q190.3200 531.7800 183.3000 531.7800L183.3000 531.7800L169.8900 531.7800L169.8900 552.8400Q169.8900 553.7400 169.3050 554.3700Q168.7200 555 167.7300 555L167.7300 555ZM169.7100 501.9900L169.7100 521.7900L182.8500 521.7900Q188.0700 521.7900 190.8600 519.3150Q193.6500 516.8400 193.6500 511.9800L193.6500 511.9800Q193.6500 507.4800 191.0400 504.7350Q188.4300 501.9900 182.8500 501.9900L182.8500 501.9900L169.7100 501.9900ZM225.2400 555L217.4100 555Q216.5100 555 215.8800 554.3700Q215.2500 553.7400 215.2500 552.8400L215.2500 552.8400L215.2500 510.4500Q215.2500 509.4600 215.8800 508.8300Q216.5100 508.2000 217.4100 508.2000L217.4100 508.2000L224.7000 508.2000Q225.6000 508.2000 226.2750 508.8300Q226.9500 509.4600 226.9500 510.4500L226.9500 510.4500L226.9500 514.1400Q229.0200 511.2600 232.3050 509.7300Q235.5900 508.2000 239.9100 508.2000L239.9100 508.2000L243.6000 508.2000Q244.5900 508.2000 245.1750 508.8300Q245.7600 509.4600 245.7600 510.3600L245.7600 510.3600L245.7600 516.8400Q245.7600 517.7400 245.1750 518.3700Q244.5900 519 243.6000 519L243.6000 519L236.5800 519Q232.2600 519 229.8750 521.3850Q227.4900 523.7700 227.4900 528.0900L227.4900 528.0900L227.4900 552.8400Q227.4900 553.7400 226.8600 554.3700Q226.2300 555 225.2400 555L225.2400 555ZM273.4800 555.9000L273.4800 555.9000Q266.2800 555.9000 261.3750 553.3800Q256.4700 550.8600 253.9050 546.2700Q251.3400 541.6800 250.9800 535.5600L250.9800 535.5600Q250.8900 533.9400 250.8900 531.6000Q250.8900 529.2600 250.9800 527.6400L250.9800 527.6400Q251.3400 521.4300 253.9950 516.8850Q256.6500 512.3400 261.5550 509.8200Q266.4600 507.3000 273.4800 507.3000L273.4800 507.3000Q280.5000 507.3000 285.4050 509.8200Q290.3100 512.3400 292.9650 516.8850Q295.6200 521.4300 295.9800 527.6400L295.9800 527.6400Q296.0700 529.2600 296.0700 531.6000Q296.0700 533.9400 295.9800 535.5600L295.9800 535.5600Q295.6200 541.6800 293.0550 546.2700Q290.4900 550.8600 285.5850 553.3800Q280.6800 555.9000 273.4800 555.9000ZM273.4800 546.9900L273.4800 546.9900Q278.2500 546.9900 280.8600 543.9750Q283.4700 540.9600 283.7400 535.1100L283.7400 535.1100Q283.8300 533.7600 283.8300 531.6000Q283.8300 529.4400 283.7400 528.0900L283.7400 528.0900Q283.4700 522.2400 280.8600 519.2250Q278.2500 516.2100 273.4800 516.2100L273.4800 516.2100Q268.7100 516.2100 266.1000 519.2250Q263.4900 522.2400 263.2200 528.0900L263.2200 528.0900Q263.1300 529.4400 263.1300 531.6000Q263.1300 533.7600 263.2200 535.1100L263.2200 535.1100Q263.4900 540.9600 266.1000 543.9750Q268.7100 546.9900 273.4800 546.9900ZM301.7400 572.1000L298.3200 572.1000Q297.4200 572.1000 296.7900 571.4700Q296.1600 570.8400 296.1600 569.9400L296.1600 569.9400L296.1600 564.7200Q296.1600 563.8200 296.7900 563.1900Q297.4200 562.5600 298.3200 562.5600L298.3200 562.5600L300.6600 562.5600Q303.4500 562.5600 304.8000 561.5700Q306.1500 560.5800 306.6000 558.8250Q307.0500 557.0700 307.0500 554.9100L307.0500 554.9100L307.0500 510.3600Q307.0500 509.4600 307.6800 508.8300Q308.3100 508.2000 309.2100 508.2000L309.2100 508.2000L317.0400 508.2000Q317.9400 508.2000 318.5700 508.8300Q319.2000 509.4600 319.2000 510.3600L319.2000 510.3600L319.2000 555.0900Q319.2000 560.4000 317.2650 564.1800Q315.3300 567.9600 311.5050 570.0300Q307.6800 572.1000 301.7400 572.1000L301.7400 572.1000ZM317.3100 500.4600L308.8500 500.4600Q307.8600 500.4600 307.2750 499.8300Q306.6900 499.2000 306.6900 498.3000L306.6900 498.3000L306.6900 491.8200Q306.6900 490.9200 307.2750 490.2900Q307.8600 489.6600 308.8500 489.6600L308.8500 489.6600L317.3100 489.6600Q318.3000 489.6600 318.9300 490.2900Q319.5600 490.9200 319.5600 491.8200L319.5600 491.8200L319.5600 498.3000Q319.5600 499.2000 318.9300 499.8300Q318.3000 500.4600 317.3100 500.4600L317.3100 500.4600ZM351.3300 555.9000L351.3300 555.9000Q341.3400 555.9000 335.4900 550.1400Q329.6400 544.3800 329.1900 533.7600L329.1900 533.7600Q329.1000 532.8600 329.1000 531.4650Q329.1000 530.0700 329.1900 529.2600L329.1900 529.2600Q329.5500 522.4200 332.2950 517.5150Q335.0400 512.6100 339.9000 509.9550Q344.7600 507.3000 351.3300 507.3000L351.3300 507.3000Q358.6200 507.3000 363.5700 510.3150Q368.5200 513.3300 371.0400 518.6850Q373.5600 524.0400 373.5600 531.0600L373.5600 531.0600L373.5600 532.9500Q373.5600 533.8500 372.9300 534.4800Q372.3000 535.1100 371.3100 535.1100L371.3100 535.1100L341.4300 535.1100Q341.4300 535.1100 341.4300 535.3800Q341.4300 535.6500 341.4300 535.8300L341.4300 535.8300Q341.5200 538.9800 342.6450 541.6350Q343.7700 544.2900 345.9750 545.9100Q348.1800 547.5300 351.2400 547.5300L351.2400 547.5300Q353.7600 547.5300 355.4700 546.7650Q357.1800 546 358.2600 545.0100Q359.3400 544.0200 359.7900 543.3900L359.7900 543.3900Q360.6000 542.3100 361.0950 542.0850Q361.5900 541.8600 362.5800 541.8600L362.5800 541.8600L370.3200 541.8600Q371.2200 541.8600 371.8050 542.4000Q372.3900 542.9400 372.3000 543.7500L372.3000 543.7500Q372.2100 545.1900 370.8150 547.2600Q369.4200 549.3300 366.8100 551.3100Q364.2000 553.2900 360.2850 554.5950Q356.3700 555.9000 351.3300 555.9000ZM341.4300 527.2800L341.4300 527.5500L361.3200 527.5500L361.3200 527.2800Q361.3200 523.7700 360.1500 521.1150Q358.9800 518.4600 356.7300 516.9750Q354.4800 515.4900 351.3300 515.4900L351.3300 515.4900Q348.1800 515.4900 345.9300 516.9750Q343.6800 518.4600 342.5550 521.1150Q341.4300 523.7700 341.4300 527.2800L341.4300 527.2800ZM411.5400 555L404.2500 555Q398.8500 555 395.1600 553.1100Q391.4700 551.2200 389.6700 547.4850Q387.8700 543.7500 387.8700 538.1700L387.8700 538.1700L387.8700 517.7400L380.7600 517.7400Q379.8600 517.7400 379.2300 517.1100Q378.6000 516.4800 378.6000 515.4900L378.6000 515.4900L378.6000 510.3600Q378.6000 509.4600 379.2300 508.8300Q379.8600 508.2000 380.7600 508.2000L380.7600 508.2000L387.8700 508.2000L387.8700 493.2600Q387.8700 492.3600 388.4550 491.7300Q389.0400 491.1000 390.0300 491.1000L390.0300 491.1000L397.3200 491.1000Q398.2200 491.1000 398.8500 491.7300Q399.4800 492.3600 399.4800 493.2600L399.4800 493.2600L399.4800 508.2000L410.7300 508.2000Q411.6300 508.2000 412.2600 508.8300Q412.8900 509.4600 412.8900 510.3600L412.8900 510.3600L412.8900 515.4900Q412.8900 516.4800 412.2600 517.1100Q411.6300 517.7400 410.7300 517.7400L410.7300 517.7400L399.4800 517.7400L399.4800 537.2700Q399.4800 540.9600 400.7850 543.0300Q402.0900 545.1000 405.3300 545.1000L405.3300 545.1000L411.5400 545.1000Q412.4400 545.1000 413.0700 545.7300Q413.7000 546.3600 413.7000 547.2600L413.7000 547.2600L413.7000 552.8400Q413.7000 553.7400 413.0700 554.3700Q412.4400 555 411.5400 555L411.5400 555ZM442.4100 555.9000L442.4100 555.9000Q435.2100 555.9000 430.3050 553.3800Q425.4000 550.8600 422.8350 546.2700Q420.2700 541.6800 419.9100 535.5600L419.9100 535.5600Q419.8200 533.9400 419.8200 531.6000Q419.8200 529.2600 419.9100 527.6400L419.9100 527.6400Q420.2700 521.4300 422.9250 516.8850Q425.5800 512.3400 430.4850 509.8200Q435.3900 507.3000 442.4100 507.3000L442.4100 507.3000Q449.4300 507.3000 454.3350 509.8200Q459.2400 512.3400 461.8950 516.8850Q464.5500 521.4300 464.9100 527.6400L464.9100 527.6400Q465.0000 529.2600 465.0000 531.6000Q465.0000 533.9400 464.9100 535.5600L464.9100 535.5600Q464.5500 541.6800 461.9850 546.2700Q459.4200 550.8600 454.5150 553.3800Q449.6100 555.9000 442.4100 555.9000ZM442.4100 546.9900L442.4100 546.9900Q447.1800 546.9900 449.7900 543.9750Q452.4000 540.9600 452.6700 535.1100L452.6700 535.1100Q452.7600 533.7600 452.7600 531.6000Q452.7600 529.4400 452.6700 528.0900L452.6700 528.0900Q452.4000 522.2400 449.7900 519.2250Q447.1800 516.2100 442.4100 516.2100L442.4100 516.2100Q437.6400 516.2100 435.0300 519.2250Q432.4200 522.2400 432.1500 528.0900L432.1500 528.0900Q432.0600 529.4400 432.0600 531.6000Q432.0600 533.7600 432.1500 535.1100L432.1500 535.1100Q432.4200 540.9600 435.0300 543.9750Q437.6400 546.9900 442.4100 546.9900ZM517.2000 555.9900L517.2000 555.9900Q509.4600 555.9900 504.1500 553.4250Q498.8400 550.8600 496.0950 546.7200Q493.3500 542.5800 493.1700 537.9000L493.1700 537.9000Q493.0800 537.0900 493.6650 536.5950Q494.2500 536.1000 495.0600 536.1000L495.0600 536.1000L503.4300 536.1000Q504.4200 536.1000 505.0950 536.5050Q505.7700 536.9100 506.1300 537.9000L506.1300 537.9000Q507.0300 540.6000 508.6950 542.3100Q510.3600 544.0200 512.5650 544.8300Q514.7700 545.6400 517.2000 545.6400L517.2000 545.6400Q520.4400 545.6400 523.0950 544.3350Q525.7500 543.0300 527.3700 540.4200Q528.9900 537.8100 528.9900 534.0300L528.9900 534.0300Q528.9900 530.7000 527.4600 528.2700Q525.9300 525.8400 523.2750 524.4450Q520.6200 523.0500 517.2000 523.0500L517.2000 523.0500Q514.6800 523.0500 513.0600 523.6800Q511.4400 524.3100 510.3150 525.1200Q509.1900 525.9300 508.3350 526.5600Q507.4800 527.1900 506.4000 527.1900L506.4000 527.1900L498.1200 527.1900Q497.3100 527.1900 496.7250 526.6050Q496.1400 526.0200 496.1400 525.2100L496.1400 525.2100L499.2900 494.4300Q499.3800 493.2600 500.1000 492.6300Q500.8200 492 501.8100 492L501.8100 492L535.6500 492Q536.5500 492 537.1800 492.6300Q537.8100 493.2600 537.8100 494.1600L537.8100 494.1600L537.8100 500.1900Q537.8100 501.0900 537.1800 501.7200Q536.5500 502.3500 535.6500 502.3500L535.6500 502.3500L509.6400 502.3500L508.2000 517.0200Q509.8200 515.9400 512.5200 514.9500Q515.2200 513.9600 519.9900 513.9600L519.9900 513.9600Q524.3100 513.9600 528.2250 515.3550Q532.1400 516.7500 535.2000 519.4050Q538.2600 522.0600 540.0150 525.7950Q541.7700 529.5300 541.7700 534.3000L541.7700 534.3000Q541.7700 540.8700 538.7100 545.7300Q535.6500 550.5900 530.1600 553.2900Q524.6700 555.9900 517.2000 555.9900ZM601.5300 533.1300L573.9000 533.1300Q572.9100 533.1300 572.3250 532.5000Q571.7400 531.8700 571.7400 530.9700L571.7400 530.9700L571.7400 525.0300Q571.7400 524.1300 572.3250 523.5000Q572.9100 522.8700 573.9000 522.8700L573.9000 522.8700L601.5300 522.8700Q602.4300 522.8700 603.0600 523.5000Q603.6900 524.1300 603.6900 525.0300L603.6900 525.0300L603.6900 530.9700Q603.6900 531.8700 603.0600 532.5000Q602.4300 533.1300 601.5300 533.1300L601.5300 533.1300ZM661.2900 555L653.0100 555Q652.1100 555 651.4800 554.3700Q650.8500 553.7400 650.8500 552.8400L650.8500 552.8400L650.8500 503.0700L634.2000 503.0700Q633.3000 503.0700 632.6700 502.4400Q632.0400 501.8100 632.0400 500.9100L632.0400 500.9100L632.0400 494.2500Q632.0400 493.2600 632.6700 492.6300Q633.3000 492 634.2000 492L634.2000 492L680.1000 492Q681.0900 492 681.7200 492.6300Q682.3500 493.2600 682.3500 494.2500L682.3500 494.2500L682.3500 500.9100Q682.3500 501.8100 681.7200 502.4400Q681.0900 503.0700 680.1000 503.0700L680.1000 503.0700L663.5400 503.0700L663.5400 552.8400Q663.5400 553.7400 662.9100 554.3700Q662.2800 555 661.2900 555L661.2900 555ZM711.0600 555.9000L711.0600 555.9000Q703.8600 555.9000 698.9550 553.3800Q694.0500 550.8600 691.4850 546.2700Q688.9200 541.6800 688.5600 535.5600L688.5600 535.5600Q688.4700 533.9400 688.4700 531.6000Q688.4700 529.2600 688.5600 527.6400L688.5600 527.6400Q688.9200 521.4300 691.5750 516.8850Q694.2300 512.3400 699.1350 509.8200Q704.0400 507.3000 711.0600 507.3000L711.0600 507.3000Q718.0800 507.3000 722.9850 509.8200Q727.8900 512.3400 730.5450 516.8850Q733.2000 521.4300 733.5600 527.6400L733.5600 527.6400Q733.6500 529.2600 733.6500 531.6000Q733.6500 533.9400 733.5600 535.5600L733.5600 535.5600Q733.2000 541.6800 730.6350 546.2700Q728.0700 550.8600 723.1650 553.3800Q718.2600 555.9000 711.0600 555.9000ZM711.0600 546.9900L711.0600 546.9900Q715.8300 546.9900 718.4400 543.9750Q721.0500 540.9600 721.3200 535.1100L721.3200 535.1100Q721.4100 533.7600 721.4100 531.6000Q721.4100 529.4400 721.3200 528.0900L721.3200 528.0900Q721.0500 522.2400 718.4400 519.2250Q715.8300 516.2100 711.0600 516.2100L711.0600 516.2100Q706.2900 516.2100 703.6800 519.2250Q701.0700 522.2400 700.8000 528.0900L700.8000 528.0900Q700.7100 529.4400 700.7100 531.6000Q700.7100 533.7600 700.8000 535.1100L700.8000 535.1100Q701.0700 540.9600 703.6800 543.9750Q706.2900 546.9900 711.0600 546.9900ZM761.0100 555.9000L761.0100 555.9000Q756.3300 555.9000 752.7750 554.3250Q749.2200 552.7500 746.8800 549.8700Q744.5400 546.9900 743.2800 543.0750Q742.0200 539.1600 741.8400 534.4800L741.8400 534.4800Q741.7500 532.8600 741.7500 531.5550Q741.7500 530.2500 741.8400 528.6300L741.8400 528.6300Q742.0200 524.1300 743.2350 520.2600Q744.4500 516.3900 746.8350 513.4650Q749.2200 510.5400 752.7750 508.9200Q756.3300 507.3000 761.0100 507.3000L761.0100 507.3000Q765.8700 507.3000 769.2450 508.9650Q772.6200 510.6300 774.8700 513.2400L774.8700 513.2400L774.8700 493.2600Q774.8700 492.3600 775.4550 491.7300Q776.0400 491.1000 777.0300 491.1000L777.0300 491.1000L784.6800 491.1000Q785.5800 491.1000 786.2100 491.7300Q786.8400 492.3600 786.8400 493.2600L786.8400 493.2600L786.8400 552.8400Q786.8400 553.7400 786.2100 554.3700Q785.5800 555 784.6800 555L784.6800 555L777.5700 555Q776.5800 555 775.9950 554.3700Q775.4100 553.7400 775.4100 552.8400L775.4100 552.8400L775.4100 549.5100Q773.1600 552.3000 769.6950 554.1000Q766.2300 555.9000 761.0100 555.9000ZM764.3400 546.2700L764.3400 546.2700Q768.1200 546.2700 770.3700 544.5600Q772.6200 542.8500 773.7000 540.1950Q774.7800 537.5400 774.8700 534.7500L774.8700 534.7500Q774.9600 533.1300 774.9600 531.2850Q774.9600 529.4400 774.8700 527.8200L774.8700 527.8200Q774.7800 525.1200 773.6100 522.6450Q772.4400 520.1700 770.1900 518.5500Q767.9400 516.9300 764.3400 516.9300L764.3400 516.9300Q760.5600 516.9300 758.3550 518.5950Q756.1500 520.2600 755.1600 522.9600Q754.1700 525.6600 753.9900 528.9000L753.9900 528.9000Q753.9000 531.6000 753.9900 534.3000L753.9900 534.3000Q754.1700 537.5400 755.1600 540.2400Q756.1500 542.9400 758.3550 544.6050Q760.5600 546.2700 764.3400 546.2700ZM819.5100 555.9000L819.5100 555.9000Q812.3100 555.9000 807.4050 553.3800Q802.5000 550.8600 799.9350 546.2700Q797.3700 541.6800 797.0100 535.5600L797.0100 535.5600Q796.9200 533.9400 796.9200 531.6000Q796.9200 529.2600 797.0100 527.6400L797.0100 527.6400Q797.3700 521.4300 800.0250 516.8850Q802.6800 512.3400 807.5850 509.8200Q812.4900 507.3000 819.5100 507.3000L819.5100 507.3000Q826.5300 507.3000 831.4350 509.8200Q836.3400 512.3400 838.9950 516.8850Q841.6500 521.4300 842.0100 527.6400L842.0100 527.6400Q842.1000 529.2600 842.1000 531.6000Q842.1000 533.9400 842.0100 535.5600L842.0100 535.5600Q841.6500 541.6800 839.0850 546.2700Q836.5200 550.8600 831.6150 553.3800Q826.7100 555.9000 819.5100 555.9000ZM819.5100 546.9900L819.5100 546.9900Q824.2800 546.9900 826.8900 543.9750Q829.5000 540.9600 829.7700 535.1100L829.7700 535.1100Q829.8600 533.7600 829.8600 531.6000Q829.8600 529.4400 829.7700 528.0900L829.7700 528.0900Q829.5000 522.2400 826.8900 519.2250Q824.2800 516.2100 819.5100 516.2100L819.5100 516.2100Q814.7400 516.2100 812.1300 519.2250Q809.5200 522.2400 809.2500 528.0900L809.2500 528.0900Q809.1600 529.4400 809.1600 531.6000Q809.1600 533.7600 809.2500 535.1100L809.2500 535.1100Q809.5200 540.9600 812.1300 543.9750Q814.7400 546.9900 819.5100 546.9900ZM198.2400 645L159.1800 645Q158.2800 645 157.6500 644.3700Q157.0200 643.7400 157.0200 642.8400L157.0200 642.8400L157.0200 584.1600Q157.0200 583.2600 157.6500 582.6300Q158.2800 582 159.1800 582L159.1800 582L167.5500 582Q168.4500 582 169.0800 582.6300Q169.7100 583.2600 169.7100 584.1600L169.7100 584.1600L169.7100 634.2900L198.2400 634.2900Q199.2300 634.2900 199.8600 634.9200Q200.4900 635.5500 200.4900 636.5400L200.4900 636.5400L200.4900 642.8400Q200.4900 643.7400 199.8600 644.3700Q199.2300 645 198.2400 645L198.2400 645ZM217.7700 645L210.3000 645Q209.4000 645 208.7700 644.3700Q208.1400 643.7400 208.1400 642.8400L208.1400 642.8400L208.1400 600.3600Q208.1400 599.4600 208.7700 598.8300Q209.4000 598.2000 210.3000 598.2000L210.3000 598.2000L217.7700 598.2000Q218.7600 598.2000 219.3450 598.8300Q219.9300 599.4600 219.9300 600.3600L219.9300 600.3600L219.9300 642.8400Q219.9300 643.7400 219.3450 644.3700Q218.7600 645 217.7700 645L217.7700 645ZM218.1300 590.4600L209.9400 590.4600Q209.0400 590.4600 208.4100 589.8300Q207.7800 589.2000 207.7800 588.3000L207.7800 588.3000L207.7800 581.8200Q207.7800 580.9200 208.4100 580.2900Q209.0400 579.6600 209.9400 579.6600L209.9400 579.6600L218.1300 579.6600Q219.1200 579.6600 219.7500 580.2900Q220.3800 580.9200 220.3800 581.8200L220.3800 581.8200L220.3800 588.3000Q220.3800 589.2000 219.7500 589.8300Q219.1200 590.4600 218.1300 590.4600L218.1300 590.4600ZM249.6300 645.9000L249.6300 645.9000Q244.2300 645.9000 240.4050 644.6400Q236.5800 643.3800 234.1500 641.4900Q231.7200 639.6000 230.5500 637.7100Q229.3800 635.8200 229.2900 634.5600L229.2900 634.5600Q229.2000 633.5700 229.8750 632.9850Q230.5500 632.4000 231.3600 632.4000L231.3600 632.4000L238.4700 632.4000Q238.8300 632.4000 239.1000 632.4900Q239.3700 632.5800 239.8200 633.0300L239.8200 633.0300Q240.9900 634.0200 242.2950 635.1000Q243.6000 636.1800 245.4000 636.9450Q247.2000 637.7100 249.9000 637.7100L249.9000 637.7100Q253.4100 637.7100 255.7950 636.3150Q258.1800 634.9200 258.1800 632.3100L258.1800 632.3100Q258.1800 630.4200 257.1450 629.2500Q256.1100 628.0800 253.3200 627.1350Q250.5300 626.1900 245.4000 625.1100L245.4000 625.1100Q240.3600 623.9400 237.0300 622.1400Q233.7000 620.3400 232.0800 617.6400Q230.4600 614.9400 230.4600 611.3400L230.4600 611.3400Q230.4600 607.8300 232.5750 604.6350Q234.6900 601.4400 238.8750 599.3700Q243.0600 597.3000 249.2700 597.3000L249.2700 597.3000Q254.1300 597.3000 257.7300 598.5150Q261.3300 599.7300 263.7150 601.5300Q266.1000 603.3300 267.3600 605.1750Q268.6200 607.0200 268.7100 608.3700L268.7100 608.3700Q268.8000 609.3600 268.1700 609.9450Q267.5400 610.5300 266.7300 610.5300L266.7300 610.5300L260.0700 610.5300Q259.6200 610.5300 259.2600 610.3500Q258.9000 610.1700 258.5400 609.9000L258.5400 609.9000Q257.5500 609 256.3800 607.9650Q255.2100 606.9300 253.5450 606.2100Q251.8800 605.4900 249.1800 605.4900L249.1800 605.4900Q245.7600 605.4900 243.9600 606.9750Q242.1600 608.4600 242.1600 610.7100L242.1600 610.7100Q242.1600 612.2400 243.0150 613.3650Q243.8700 614.4900 246.4800 615.4800Q249.0900 616.4700 254.4000 617.5500L254.4000 617.5500Q260.4300 618.6300 263.9850 620.7450Q267.5400 622.8600 269.0250 625.6050Q270.5100 628.3500 270.5100 631.6800L270.5100 631.6800Q270.5100 635.7300 268.1250 638.9700Q265.7400 642.2100 261.1050 644.0550Q256.4700 645.9000 249.6300 645.9000ZM308.2200 645L300.9300 645Q295.5300 645 291.8400 643.1100Q288.1500 641.2200 286.3500 637.4850Q284.5500 633.7500 284.5500 628.1700L284.5500 628.1700L284.5500 607.7400L277.4400 607.7400Q276.5400 607.7400 275.9100 607.1100Q275.2800 606.4800 275.2800 605.4900L275.2800 605.4900L275.2800 600.3600Q275.2800 599.4600 275.9100 598.8300Q276.5400 598.2000 277.4400 598.2000L277.4400 598.2000L284.5500 598.2000L284.5500 583.2600Q284.5500 582.3600 285.1350 581.7300Q285.7200 581.1000 286.7100 581.1000L286.7100 581.1000L294 581.1000Q294.9000 581.1000 295.5300 581.7300Q296.1600 582.3600 296.1600 583.2600L296.1600 583.2600L296.1600 598.2000L307.4100 598.2000Q308.3100 598.2000 308.9400 598.8300Q309.5700 599.4600 309.5700 600.3600L309.5700 600.3600L309.5700 605.4900Q309.5700 606.4800 308.9400 607.1100Q308.3100 607.7400 307.4100 607.7400L307.4100 607.7400L296.1600 607.7400L296.1600 627.2700Q296.1600 630.9600 297.4650 633.0300Q298.7700 635.1000 302.0100 635.1000L302.0100 635.1000L308.2200 635.1000Q309.1200 635.1000 309.7500 635.7300Q310.3800 636.3600 310.3800 637.2600L310.3800 637.2600L310.3800 642.8400Q310.3800 643.7400 309.7500 644.3700Q309.1200 645 308.2200 645L308.2200 645Z" id="title"/><path d="M1396.4200 642.2000L1396.4200 642.2000Q1381.0200 642.2000 1369.8000 638.4600Q1358.5800 634.7200 1351.2100 628.6700Q1343.8400 622.6200 1340.1000 615.4700Q1336.3600 608.3200 1336.1400 601.2800L1336.1400 601.2800Q1336.1400 599.3000 1337.5700 598.0900Q1339 596.8800 1340.9800 596.8800L1340.9800 596.8800L1360.7800 596.8800Q1362.9800 596.8800 1364.5200 597.7600Q1366.0600 598.6400 1367.1600 601.2800L1367.1600 601.2800Q1369.1400 607.2200 1373.6500 610.7400Q1378.1600 614.2600 1384.1000 615.6900Q1390.0400 617.1200 1396.6400 617.1200L1396.6400 617.1200Q1409.8400 617.1200 1417.6500 610.8500Q1425.4600 604.5800 1425.4600 592.9200L1425.4600 592.9200Q1425.4600 581.2600 1418.2000 576.0900Q1410.9400 570.9200 1397.9600 570.9200L1397.9600 570.9200L1375.3000 570.9200Q1372.8800 570.9200 1371.3400 569.4900Q1369.8000 568.0600 1369.8000 565.6400L1369.8000 565.6400L1369.8000 556.4000Q1369.8000 554.2000 1370.7900 552.5500Q1371.7800 550.9000 1372.8800 549.8000L1372.8800 549.8000L1412.2600 511.3000L1349.3400 511.3000Q1346.9200 511.3000 1345.4900 509.7600Q1344.0600 508.2200 1344.0600 506.0200L1344.0600 506.0200L1344.0600 491.5000Q1344.0600 489.0800 1345.4900 487.5400Q1346.9200 486 1349.3400 486L1349.3400 486L1443.7200 486Q1446.1400 486 1447.6800 487.5400Q1449.2200 489.0800 1449.2200 491.5000L1449.2200 491.5000L1449.2200 504.7000Q1449.2200 506.6800 1448.3400 508.2200Q1447.4600 509.7600 1446.3600 510.8600L1446.3600 510.8600L1408.3000 550.0200L1410.9400 550.2400Q1424.3600 551.3400 1434.8100 556.2900Q1445.2600 561.2400 1451.0900 570.7000Q1456.9200 580.1600 1456.9200 594.4600L1456.9200 594.4600Q1456.9200 609.4200 1449.1100 620.0900Q1441.3000 630.7600 1427.6600 636.4800Q1414.0200 642.2000 1396.4200 642.2000ZM1544.0400 640L1524.0200 640Q1521.6000 640 1520.1700 638.4600Q1518.7400 636.9200 1518.7400 634.7200L1518.7400 634.7200L1518.7400 520.7600L1485.3000 546.5000Q1483.3200 547.8200 1481.3400 547.4900Q1479.3600 547.1600 1477.8200 545.1800L1477.8200 545.1800L1468.5800 533.3000Q1467.2600 531.3200 1467.5900 529.1200Q1467.9200 526.9200 1469.9000 525.6000L1469.9000 525.6000L1519.1800 487.5400Q1520.5000 486.4400 1521.8200 486.2200Q1523.1400 486 1524.6800 486L1524.6800 486L1544.0400 486Q1546.2400 486 1547.7800 487.5400Q1549.3200 489.0800 1549.3200 491.2800L1549.3200 491.2800L1549.3200 634.7200Q1549.3200 636.9200 1547.7800 638.4600Q1546.2400 640 1544.0400 640L1544.0400 640ZM1605.4200 640L1583.4200 640Q1581.2200 640 1579.6800 638.4600Q1578.1400 636.9200 1578.1400 634.7200L1578.1400 634.7200L1578.1400 612.9400Q1578.1400 610.5200 1579.6800 608.9800Q1581.2200 607.4400 1583.4200 607.4400L1583.4200 607.4400L1605.4200 607.4400Q1607.6200 607.4400 1609.1600 608.9800Q1610.7000 610.5200 1610.7000 612.9400L1610.7000 612.9400L1610.7000 634.7200Q1610.7000 636.9200 1609.1600 638.4600Q1607.6200 640 1605.4200 640L1605.4200 640ZM1675.3800 640L1654.9200 640Q1652.9400 640 1651.6200 638.5700Q1650.3000 637.1400 1650.3000 635.1600L1650.3000 635.1600Q1650.3000 634.0600 1650.6300 633.4000Q1650.9600 632.7400 1651.1800 632.3000L1651.1800 632.3000L1683.5200 587.6400Q1679.3400 588.7400 1674.5000 588.5200L1674.5000 588.5200Q1663.2800 588.3000 1653.7100 584.2300Q1644.1400 580.1600 1636.9900 573.2300Q1629.8400 566.3000 1625.7700 557.1700Q1621.7000 548.0400 1621.7000 537.2600L1621.7000 537.2600Q1621.7000 527.3600 1625.4400 517.7900Q1629.1800 508.2200 1636.5500 500.5200Q1643.9200 492.8200 1655.0300 488.3100Q1666.1400 483.8000 1681.1000 483.8000L1681.1000 483.8000Q1695.8400 483.8000 1707.0600 487.9800Q1718.2800 492.1600 1725.8700 499.5300Q1733.4600 506.9000 1737.3100 516.3600Q1741.1600 525.8200 1741.1600 536.3800L1741.1600 536.3800Q1741.1600 545.8400 1738.0800 553.9800Q1735.0000 562.1200 1730.4900 568.8300Q1725.9800 575.5400 1721.5800 581.9200L1721.5800 581.9200L1682.8600 635.6000Q1681.9800 636.7000 1680.3300 638.3500Q1678.6800 640 1675.3800 640L1675.3800 640ZM1681.3200 565.2000L1681.3200 565.2000Q1689.2400 565.2000 1695.7300 561.7900Q1702.2200 558.3800 1706.0700 552.1100Q1709.9200 545.8400 1709.9200 537.2600L1709.9200 537.2600Q1709.9200 528.4600 1706.0700 522.1900Q1702.2200 515.9200 1695.6200 512.5100Q1689.0200 509.1000 1681.3200 509.1000L1681.3200 509.1000Q1673.4000 509.1000 1666.9100 512.5100Q1660.4200 515.9200 1656.5700 522.1900Q1652.7200 528.4600 1652.7200 537.2600L1652.7200 537.2600Q1652.7200 545.8400 1656.5700 552.1100Q1660.4200 558.3800 1666.9100 561.7900Q1673.4000 565.2000 1681.3200 565.2000Z" id="lecture-full-number"/></g></svg>