<svg xmlns="http://www.w3.org/2000/svg" version="1.1" xmlns:xlink="http://www.w3.org/1999/xlink" xmlns:svgjs="http://svgjs.dev/svgjs" viewBox="0 0 1920 1080" id="34fdffe7-ff02-47fb-82bd-0b8bd7fbcac8"><g><rect width="1920" height="1080" fill="#b6244f"/></g><g fill="#b89685"><path d="M745.478 668.096L1087.28 1009.97L1200.88 896.347L859.076 554.473L745.478 668.096Z"/><path d="M858.951 554.294L517.152 896.168L630.75 1009.79L972.549 667.917L858.951 554.294Z"/><path d="M289.239 668.391L631.038 1010.27L744.636 896.643L402.837 554.769L289.239 668.391Z"/><path d="M402.706 554L60.907 895.874L174.505 1009.5L516.304 667.623L402.706 554Z"/><path d="M-166 667.682L175.799 1009.56L289.397 895.933L-52.4021 554.059L-166 667.682Z"/></g><g fill="#ffffff" opacity="0.2"><path d="M1134 160C1540.91 160 1872 491.086 1872 898C1872 1304.91 1540.91 1636 1134 1636C727.086 1635.56 396 1304.91 396 898C396 491.086 727.086 160 1134 160ZM1134 1611.31C1527.25 1611.31 1847.31 1291.25 1847.31 898C1847.31 504.753 1527.25 184.247 1134 184.247C740.753 184.247 420.247 504.312 420.247 898C420.247 1291.69 740.312 1611.31 1134 1611.31Z"/><path d="M1134 251.699C1490.22 251.699 1780.3 541.785 1780.3 898C1780.3 1254.22 1490.22 1544.3 1134 1544.3C777.785 1544.3 487.699 1254.22 487.699 898C487.699 541.785 777.344 251.699 1134 251.699ZM1134 1519.61C1476.99 1519.61 1756.05 1240.55 1756.05 897.559C1756.05 554.57 1476.99 275.947 1134 275.947C791.011 275.947 511.946 555.011 511.946 898C511.946 1240.99 791.011 1519.61 1134 1519.61Z"/><path d="M1134 342.957C1439.96 342.957 1688.6 592.043 1688.6 897.559C1688.6 1203.52 1439.52 1452.16 1134 1452.16C828.043 1452.16 579.398 1203.08 579.398 897.559C578.957 592.043 828.043 342.957 1134 342.957ZM1134 1428.35C1426.29 1428.35 1664.35 1190.29 1664.35 898C1664.35 605.71 1426.29 367.645 1134 367.645C841.71 367.645 603.645 605.71 603.645 898C603.645 1190.29 841.269 1428.35 1134 1428.35Z"/><path d="M1134 434.656C1389.26 434.656 1597.34 642.301 1597.34 898C1597.34 1153.7 1389.7 1361.34 1134 1361.34C878.742 1361.34 670.656 1153.7 670.656 898C670.656 642.301 878.301 434.656 1134 434.656ZM1134 1336.66C1376.03 1336.66 1572.66 1139.59 1572.66 898C1572.66 656.408 1375.59 459.344 1134 459.344C891.968 459.344 695.344 656.408 695.344 898C695.344 1139.59 891.968 1336.66 1134 1336.66Z"/><path d="M1134 526.354C1339 526.354 1505.65 693 1505.65 898C1505.65 1103 1339 1269.64 1134 1269.64C929 1269.64 762.355 1103 762.355 898C762.355 693 929 526.354 1134 526.354ZM1134 1244.96C1325.33 1244.96 1481.4 1089.33 1481.4 897.559C1481.4 706.225 1325.77 550.161 1134 550.161C942.667 550.161 786.602 705.785 786.602 897.559C786.602 1089.33 942.226 1244.96 1134 1244.96Z"/><path d="M1134 617.613C1288.3 617.613 1414.39 743.258 1414.39 898C1414.39 1052.74 1288.74 1178.39 1134 1178.39C979.699 1178.39 853.613 1052.74 853.613 898C853.613 743.258 979.258 617.613 1134 617.613ZM1134 1153.7C1275.08 1153.7 1389.7 1039.08 1389.7 898C1389.7 756.925 1275.08 642.301 1134 642.301C992.925 642.301 878.301 756.925 878.301 898C878.301 1039.08 992.925 1153.7 1134 1153.7Z"/><path d="M1134 709.312C1238.04 709.312 1322.69 793.957 1322.69 898C1322.69 1002.04 1238.04 1086.69 1134 1086.69C1029.96 1086.69 945.312 1002.04 945.312 898C945.312 793.957 1029.96 709.312 1134 709.312ZM1134 1062C1224.38 1062 1298.44 988.377 1298.44 897.559C1298.44 807.183 1224.82 733.118 1134 733.118C1043.62 733.118 969.559 806.742 969.559 897.559C969.559 988.377 1043.18 1062 1134 1062Z"/><path d="M1134 800.57C1187.34 800.57 1230.99 844.215 1230.99 897.56C1230.99 950.904 1187.34 994.549 1134 994.549C1080.66 994.549 1037.01 950.904 1037.01 897.56C1036.57 844.215 1080.22 800.57 1134 800.57ZM1134 970.742C1174.12 970.742 1206.74 938.119 1206.74 898C1206.74 857.882 1174.12 825.258 1134 825.258C1093.88 825.258 1061.26 857.882 1061.26 898C1061.26 938.119 1093.88 970.742 1134 970.742Z"/></g><g><path d="M178.635 139.281L184.422 144.246V166.626H215.704L219.958 172.147L215.69 177.397H184.422V198.795L178.635 203.747L173 198.795V144.232L178.635 139.281ZM195.554 195.68H219.406L223.397 200.915L219.143 206.45H195.554L191.7 201.342L195.554 195.68ZM196.382 138H219.129L223.383 143.52L219.129 148.77H196.659L192.115 143.677L196.382 138ZM323.155 148.628L328.251 154.291L323.155 159.968H246.13L241.172 154.291L246.13 148.628H323.155ZM237.043 172.147L241.849 167.893L246.669 172.147V178.393C246.669 188.879 249.417 197.515 261.668 197.515H264.14C275.147 197.515 281.197 189.86 281.197 177.952V172.005L285.879 167.75L290.699 171.862V178.379C290.699 189.007 293.723 196.946 305.56 196.946H307.618C319.178 196.946 321.235 187.869 321.373 177.952V171.578L326.056 167.608L331 171.72V178.094C330.862 191.838 327.285 207.574 308.032 207.574H305.974C294.552 207.574 288.365 202.324 285.892 195.808C283.006 202.466 275.299 208.286 264.844 208.286H262.358C242.553 208.286 237.194 195.964 237.056 178.663V172.147H237.043ZM276.391 274.744L273.642 267.089L280.796 264.969L305.974 276.721V252.491L311.07 248.095L316.291 252.491V281.829L325.641 286.226L328.251 293.311L320.959 296L276.391 274.744ZM321.235 223.011L328.113 226.27L325.917 233.497L264.002 263.119L256.571 260.146L259.596 252.776L321.235 223.011ZM231.905 263.404L237.954 268.512C237.402 286.51 222.403 296 204.669 296H202.874C194.062 296 183.759 292.6 177.157 286.083L177.834 278.855L184.298 278.002C189.118 282.256 195.858 285.229 202.183 285.229H204.117C216.091 285.229 225.303 280.136 226.27 268.085L231.905 263.404ZM226.256 251.638C225.704 239.16 216.629 234.209 204.103 234.209H202.169C194.739 234.209 189.104 237.182 184.284 241.436L177.834 240.583L177.143 233.355C183.745 226.696 192.957 223.58 202.597 223.58H204.517C222.403 223.58 237.402 232.942 237.94 251.211L231.891 256.176L226.256 251.638Z" fill="#ffffff"/></g><path d="M1171 781L1171 339L1187 339L1187 781L1171 781Z" fill="#ffffff"/><g fill="#ffffff" id="info-group"><path d="M181.3200 555.9000L181.3200 555.9000Q172.9500 555.9000 167.1450 552.9750Q161.3400 550.0500 158.2800 544.6050Q155.2200 539.1600 154.8600 531.5100L154.8600 531.5100Q154.7700 527.8200 154.7700 523.5900Q154.7700 519.3600 154.8600 515.4900L154.8600 515.4900Q155.2200 507.9300 158.3250 502.4400Q161.4300 496.9500 167.2350 494.0250Q173.0400 491.1000 181.3200 491.1000L181.3200 491.1000Q187.4400 491.1000 192.3000 492.7200Q197.1600 494.3400 200.5800 497.1750Q204 500.0100 205.8900 503.7900Q207.7800 507.5700 207.8700 511.9800L207.8700 511.9800Q207.9600 512.7900 207.3750 513.3300Q206.7900 513.8700 205.9800 513.8700L205.9800 513.8700L197.4300 513.8700Q196.4400 513.8700 195.8100 513.3750Q195.1800 512.8800 194.9100 511.7100L194.9100 511.7100Q193.4700 505.7700 189.9600 503.6100Q186.4500 501.4500 181.2300 501.4500L181.2300 501.4500Q175.2000 501.4500 171.6000 504.8250Q168 508.2000 167.7300 515.9400L167.7300 515.9400Q167.4600 523.3200 167.7300 531.0600L167.7300 531.0600Q168 538.8000 171.6000 542.1750Q175.2000 545.5500 181.2300 545.5500L181.2300 545.5500Q186.4500 545.5500 190.0050 543.3450Q193.5600 541.1400 194.9100 535.2900L194.9100 535.2900Q195.1800 534.0300 195.8100 533.5800Q196.4400 533.1300 197.4300 533.1300L197.4300 533.1300L205.9800 533.1300Q206.7900 533.1300 207.3750 533.6700Q207.9600 534.2100 207.8700 535.0200L207.8700 535.0200Q207.7800 539.4300 205.8900 543.2100Q204 546.9900 200.5800 549.8250Q197.1600 552.6600 192.3000 554.2800Q187.4400 555.9000 181.3200 555.9000ZM238.2000 555.9000L238.2000 555.9000Q231 555.9000 226.0950 553.3800Q221.1900 550.8600 218.6250 546.2700Q216.0600 541.6800 215.7000 535.5600L215.7000 535.5600Q215.6100 533.9400 215.6100 531.6000Q215.6100 529.2600 215.7000 527.6400L215.7000 527.6400Q216.0600 521.4300 218.7150 516.8850Q221.3700 512.3400 226.2750 509.8200Q231.1800 507.3000 238.2000 507.3000L238.2000 507.3000Q245.2200 507.3000 250.1250 509.8200Q255.0300 512.3400 257.6850 516.8850Q260.3400 521.4300 260.7000 527.6400L260.7000 527.6400Q260.7900 529.2600 260.7900 531.6000Q260.7900 533.9400 260.7000 535.5600L260.7000 535.5600Q260.3400 541.6800 257.7750 546.2700Q255.2100 550.8600 250.3050 553.3800Q245.4000 555.9000 238.2000 555.9000ZM238.2000 546.9900L238.2000 546.9900Q242.9700 546.9900 245.5800 543.9750Q248.1900 540.9600 248.4600 535.1100L248.4600 535.1100Q248.5500 533.7600 248.5500 531.6000Q248.5500 529.4400 248.4600 528.0900L248.4600 528.0900Q248.1900 522.2400 245.5800 519.2250Q242.9700 516.2100 238.2000 516.2100L238.2000 516.2100Q233.4300 516.2100 230.8200 519.2250Q228.2100 522.2400 227.9400 528.0900L227.9400 528.0900Q227.8500 529.4400 227.8500 531.6000Q227.8500 533.7600 227.9400 535.1100L227.9400 535.1100Q228.2100 540.9600 230.8200 543.9750Q233.4300 546.9900 238.2000 546.9900ZM280.8600 555L272.9400 555Q272.0400 555 271.4100 554.3700Q270.7800 553.7400 270.7800 552.8400L270.7800 552.8400L270.7800 510.3600Q270.7800 509.4600 271.4100 508.8300Q272.0400 508.2000 272.9400 508.2000L272.9400 508.2000L280.3200 508.2000Q281.2200 508.2000 281.8500 508.8300Q282.4800 509.4600 282.4800 510.3600L282.4800 510.3600L282.4800 514.0500Q284.8200 511.1700 288.4650 509.2350Q292.1100 507.3000 297.5100 507.3000L297.5100 507.3000Q303 507.3000 307.0500 509.7750Q311.1000 512.2500 313.3050 516.7500Q315.5100 521.2500 315.5100 527.5500L315.5100 527.5500L315.5100 552.8400Q315.5100 553.7400 314.8800 554.3700Q314.2500 555 313.3500 555L313.3500 555L305.4300 555Q304.5300 555 303.9000 554.3700Q303.2700 553.7400 303.2700 552.8400L303.2700 552.8400L303.2700 528.0900Q303.2700 522.8700 300.7050 519.9000Q298.1400 516.9300 293.2800 516.9300L293.2800 516.9300Q288.6000 516.9300 285.8100 519.9000Q283.0200 522.8700 283.0200 528.0900L283.0200 528.0900L283.0200 552.8400Q283.0200 553.7400 282.3900 554.3700Q281.7600 555 280.8600 555L280.8600 555ZM337.2000 555L329.1900 555Q328.2900 555 327.6600 554.3700Q327.0300 553.7400 327.0300 552.8400L327.0300 552.8400L327.0300 493.2600Q327.0300 492.3600 327.6600 491.7300Q328.2900 491.1000 329.1900 491.1000L329.1900 491.1000L337.2000 491.1000Q338.1900 491.1000 338.7750 491.7300Q339.3600 492.3600 339.3600 493.2600L339.3600 493.2600L339.3600 513.7800Q341.7900 510.9000 345.3000 509.1000Q348.8100 507.3000 353.9400 507.3000L353.9400 507.3000Q359.4300 507.3000 363.5250 509.7750Q367.6200 512.2500 369.8700 516.7500Q372.1200 521.2500 372.1200 527.5500L372.1200 527.5500L372.1200 552.8400Q372.1200 553.7400 371.4900 554.3700Q370.8600 555 369.9600 555L369.9600 555L361.8600 555Q360.9600 555 360.3300 554.3700Q359.7000 553.7400 359.7000 552.8400L359.7000 552.8400L359.7000 528.0900Q359.7000 522.8700 357.1350 519.9000Q354.5700 516.9300 349.7100 516.9300L349.7100 516.9300Q345.0300 516.9300 342.1950 519.9000Q339.3600 522.8700 339.3600 528.0900L339.3600 528.0900L339.3600 552.8400Q339.3600 553.7400 338.7750 554.3700Q338.1900 555 337.2000 555L337.2000 555ZM403.7100 555.9000L403.7100 555.9000Q393.7200 555.9000 387.8700 550.1400Q382.0200 544.3800 381.5700 533.7600L381.5700 533.7600Q381.4800 532.8600 381.4800 531.4650Q381.4800 530.0700 381.5700 529.2600L381.5700 529.2600Q381.9300 522.4200 384.6750 517.5150Q387.4200 512.6100 392.2800 509.9550Q397.1400 507.3000 403.7100 507.3000L403.7100 507.3000Q411 507.3000 415.9500 510.3150Q420.9000 513.3300 423.4200 518.6850Q425.9400 524.0400 425.9400 531.0600L425.9400 531.0600L425.9400 532.9500Q425.9400 533.8500 425.3100 534.4800Q424.6800 535.1100 423.6900 535.1100L423.6900 535.1100L393.8100 535.1100Q393.8100 535.1100 393.8100 535.3800Q393.8100 535.6500 393.8100 535.8300L393.8100 535.8300Q393.9000 538.9800 395.0250 541.6350Q396.1500 544.2900 398.3550 545.9100Q400.5600 547.5300 403.6200 547.5300L403.6200 547.5300Q406.1400 547.5300 407.8500 546.7650Q409.5600 546 410.6400 545.0100Q411.7200 544.0200 412.1700 543.3900L412.1700 543.3900Q412.9800 542.3100 413.4750 542.0850Q413.9700 541.8600 414.9600 541.8600L414.9600 541.8600L422.7000 541.8600Q423.6000 541.8600 424.1850 542.4000Q424.7700 542.9400 424.6800 543.7500L424.6800 543.7500Q424.5900 545.1900 423.1950 547.2600Q421.8000 549.3300 419.1900 551.3100Q416.5800 553.2900 412.6650 554.5950Q408.7500 555.9000 403.7100 555.9000ZM393.8100 527.2800L393.8100 527.5500L413.7000 527.5500L413.7000 527.2800Q413.7000 523.7700 412.5300 521.1150Q411.3600 518.4600 409.1100 516.9750Q406.8600 515.4900 403.7100 515.4900L403.7100 515.4900Q400.5600 515.4900 398.3100 516.9750Q396.0600 518.4600 394.9350 521.1150Q393.8100 523.7700 393.8100 527.2800L393.8100 527.2800ZM455.7300 555.9000L455.7300 555.9000Q449.2500 555.9000 444.3450 553.4700Q439.4400 551.0400 436.6950 546.4050Q433.9500 541.7700 433.6800 535.2000L433.6800 535.2000Q433.5900 533.8500 433.5900 531.6450Q433.5900 529.4400 433.6800 528L433.6800 528Q433.9500 521.4300 436.6950 516.7950Q439.4400 512.1600 444.3450 509.7300Q449.2500 507.3000 455.7300 507.3000L455.7300 507.3000Q461.4900 507.3000 465.5400 508.8750Q469.5900 510.4500 472.2000 512.9250Q474.8100 515.4000 476.1150 518.0550Q477.4200 520.7100 477.5100 522.8700L477.5100 522.8700Q477.6000 523.8600 476.9250 524.4450Q476.2500 525.0300 475.3500 525.0300L475.3500 525.0300L467.4300 525.0300Q466.5300 525.0300 466.0350 524.5800Q465.5400 524.1300 465.0900 523.2300L465.0900 523.2300Q463.7400 519.6300 461.5350 518.1450Q459.3300 516.6600 455.9100 516.6600L455.9100 516.6600Q451.4100 516.6600 448.7550 519.4950Q446.1000 522.3300 445.9200 528.4500L445.9200 528.4500Q445.7400 531.8700 445.9200 534.7500L445.9200 534.7500Q446.1000 540.9600 448.7550 543.7500Q451.4100 546.5400 455.9100 546.5400L455.9100 546.5400Q459.4200 546.5400 461.5800 545.0550Q463.7400 543.5700 465.0900 539.9700L465.0900 539.9700Q465.5400 539.0700 466.0350 538.6200Q466.5300 538.1700 467.4300 538.1700L467.4300 538.1700L475.3500 538.1700Q476.2500 538.1700 476.9250 538.7550Q477.6000 539.3400 477.5100 540.3300L477.5100 540.3300Q477.4200 541.9500 476.6550 543.9750Q475.8900 546 474.2250 548.1150Q472.5600 550.2300 470.0400 551.9850Q467.5200 553.7400 463.9650 554.8200Q460.4100 555.9000 455.7300 555.9000ZM507.0300 555.9000L507.0300 555.9000Q497.0400 555.9000 491.1900 550.1400Q485.3400 544.3800 484.8900 533.7600L484.8900 533.7600Q484.8000 532.8600 484.8000 531.4650Q484.8000 530.0700 484.8900 529.2600L484.8900 529.2600Q485.2500 522.4200 487.9950 517.5150Q490.7400 512.6100 495.6000 509.9550Q500.4600 507.3000 507.0300 507.3000L507.0300 507.3000Q514.3200 507.3000 519.2700 510.3150Q524.2200 513.3300 526.7400 518.6850Q529.2600 524.0400 529.2600 531.0600L529.2600 531.0600L529.2600 532.9500Q529.2600 533.8500 528.6300 534.4800Q528 535.1100 527.0100 535.1100L527.0100 535.1100L497.1300 535.1100Q497.1300 535.1100 497.1300 535.3800Q497.1300 535.6500 497.1300 535.8300L497.1300 535.8300Q497.2200 538.9800 498.3450 541.6350Q499.4700 544.2900 501.6750 545.9100Q503.8800 547.5300 506.9400 547.5300L506.9400 547.5300Q509.4600 547.5300 511.1700 546.7650Q512.8800 546 513.9600 545.0100Q515.0400 544.0200 515.4900 543.3900L515.4900 543.3900Q516.3000 542.3100 516.7950 542.0850Q517.2900 541.8600 518.2800 541.8600L518.2800 541.8600L526.0200 541.8600Q526.9200 541.8600 527.5050 542.4000Q528.0900 542.9400 528 543.7500L528 543.7500Q527.9100 545.1900 526.5150 547.2600Q525.1200 549.3300 522.5100 551.3100Q519.9000 553.2900 515.9850 554.5950Q512.0700 555.9000 507.0300 555.9000ZM497.1300 527.2800L497.1300 527.5500L517.0200 527.5500L517.0200 527.2800Q517.0200 523.7700 515.8500 521.1150Q514.6800 518.4600 512.4300 516.9750Q510.1800 515.4900 507.0300 515.4900L507.0300 515.4900Q503.8800 515.4900 501.6300 516.9750Q499.3800 518.4600 498.2550 521.1150Q497.1300 523.7700 497.1300 527.2800L497.1300 527.2800ZM548.8800 555L540.9600 555Q540.0600 555 539.4300 554.3700Q538.8000 553.7400 538.8000 552.8400L538.8000 552.8400L538.8000 510.3600Q538.8000 509.4600 539.4300 508.8300Q540.0600 508.2000 540.9600 508.2000L540.9600 508.2000L548.3400 508.2000Q549.2400 508.2000 549.8700 508.8300Q550.5000 509.4600 550.5000 510.3600L550.5000 510.3600L550.5000 514.0500Q552.8400 511.1700 556.4850 509.2350Q560.1300 507.3000 565.5300 507.3000L565.5300 507.3000Q571.0200 507.3000 575.0700 509.7750Q579.1200 512.2500 581.3250 516.7500Q583.5300 521.2500 583.5300 527.5500L583.5300 527.5500L583.5300 552.8400Q583.5300 553.7400 582.9000 554.3700Q582.2700 555 581.3700 555L581.3700 555L573.4500 555Q572.5500 555 571.9200 554.3700Q571.2900 553.7400 571.2900 552.8400L571.2900 552.8400L571.2900 528.0900Q571.2900 522.8700 568.7250 519.9000Q566.1600 516.9300 561.3000 516.9300L561.3000 516.9300Q556.6200 516.9300 553.8300 519.9000Q551.0400 522.8700 551.0400 528.0900L551.0400 528.0900L551.0400 552.8400Q551.0400 553.7400 550.4100 554.3700Q549.7800 555 548.8800 555L548.8800 555ZM612.3300 555.9000L612.3300 555.9000Q607.6500 555.9000 604.0950 554.3250Q600.5400 552.7500 598.2000 549.8700Q595.8600 546.9900 594.6000 543.0750Q593.3400 539.1600 593.1600 534.4800L593.1600 534.4800Q593.0700 532.8600 593.0700 531.5550Q593.0700 530.2500 593.1600 528.6300L593.1600 528.6300Q593.3400 524.1300 594.5550 520.2600Q595.7700 516.3900 598.1550 513.4650Q600.5400 510.5400 604.0950 508.9200Q607.6500 507.3000 612.3300 507.3000L612.3300 507.3000Q617.1900 507.3000 620.5650 508.9650Q623.9400 510.6300 626.1900 513.2400L626.1900 513.2400L626.1900 493.2600Q626.1900 492.3600 626.7750 491.7300Q627.3600 491.1000 628.3500 491.1000L628.3500 491.1000L636 491.1000Q636.9000 491.1000 637.5300 491.7300Q638.1600 492.3600 638.1600 493.2600L638.1600 493.2600L638.1600 552.8400Q638.1600 553.7400 637.5300 554.3700Q636.9000 555 636 555L636 555L628.8900 555Q627.9000 555 627.3150 554.3700Q626.7300 553.7400 626.7300 552.8400L626.7300 552.8400L626.7300 549.5100Q624.4800 552.3000 621.0150 554.1000Q617.5500 555.9000 612.3300 555.9000ZM615.6600 546.2700L615.6600 546.2700Q619.4400 546.2700 621.6900 544.5600Q623.9400 542.8500 625.0200 540.1950Q626.1000 537.5400 626.1900 534.7500L626.1900 534.7500Q626.2800 533.1300 626.2800 531.2850Q626.2800 529.4400 626.1900 527.8200L626.1900 527.8200Q626.1000 525.1200 624.9300 522.6450Q623.7600 520.1700 621.5100 518.5500Q619.2600 516.9300 615.6600 516.9300L615.6600 516.9300Q611.8800 516.9300 609.6750 518.5950Q607.4700 520.2600 606.4800 522.9600Q605.4900 525.6600 605.3100 528.9000L605.3100 528.9000Q605.2200 531.6000 605.3100 534.3000L605.3100 534.3000Q605.4900 537.5400 606.4800 540.2400Q607.4700 542.9400 609.6750 544.6050Q611.8800 546.2700 615.6600 546.2700ZM670.8300 555.9000L670.8300 555.9000Q663.6300 555.9000 658.7250 553.3800Q653.8200 550.8600 651.2550 546.2700Q648.6900 541.6800 648.3300 535.5600L648.3300 535.5600Q648.2400 533.9400 648.2400 531.6000Q648.2400 529.2600 648.3300 527.6400L648.3300 527.6400Q648.6900 521.4300 651.3450 516.8850Q654.0000 512.3400 658.9050 509.8200Q663.8100 507.3000 670.8300 507.3000L670.8300 507.3000Q677.8500 507.3000 682.7550 509.8200Q687.6600 512.3400 690.3150 516.8850Q692.9700 521.4300 693.3300 527.6400L693.3300 527.6400Q693.4200 529.2600 693.4200 531.6000Q693.4200 533.9400 693.3300 535.5600L693.3300 535.5600Q692.9700 541.6800 690.4050 546.2700Q687.8400 550.8600 682.9350 553.3800Q678.0300 555.9000 670.8300 555.9000ZM670.8300 546.9900L670.8300 546.9900Q675.6000 546.9900 678.2100 543.9750Q680.8200 540.9600 681.0900 535.1100L681.0900 535.1100Q681.1800 533.7600 681.1800 531.6000Q681.1800 529.4400 681.0900 528.0900L681.0900 528.0900Q680.8200 522.2400 678.2100 519.2250Q675.6000 516.2100 670.8300 516.2100L670.8300 516.2100Q666.0600 516.2100 663.4500 519.2250Q660.8400 522.2400 660.5700 528.0900L660.5700 528.0900Q660.4800 529.4400 660.4800 531.6000Q660.4800 533.7600 660.5700 535.1100L660.5700 535.1100Q660.8400 540.9600 663.4500 543.9750Q666.0600 546.9900 670.8300 546.9900ZM744.7200 555.9000L744.7200 555.9000Q737.5200 555.9000 732.6150 553.3800Q727.7100 550.8600 725.1450 546.2700Q722.5800 541.6800 722.2200 535.5600L722.2200 535.5600Q722.1300 533.9400 722.1300 531.6000Q722.1300 529.2600 722.2200 527.6400L722.2200 527.6400Q722.5800 521.4300 725.2350 516.8850Q727.8900 512.3400 732.7950 509.8200Q737.7000 507.3000 744.7200 507.3000L744.7200 507.3000Q751.7400 507.3000 756.6450 509.8200Q761.5500 512.3400 764.2050 516.8850Q766.8600 521.4300 767.2200 527.6400L767.2200 527.6400Q767.3100 529.2600 767.3100 531.6000Q767.3100 533.9400 767.2200 535.5600L767.2200 535.5600Q766.8600 541.6800 764.2950 546.2700Q761.7300 550.8600 756.8250 553.3800Q751.9200 555.9000 744.7200 555.9000ZM744.7200 546.9900L744.7200 546.9900Q749.4900 546.9900 752.1000 543.9750Q754.7100 540.9600 754.9800 535.1100L754.9800 535.1100Q755.0700 533.7600 755.0700 531.6000Q755.0700 529.4400 754.9800 528.0900L754.9800 528.0900Q754.7100 522.2400 752.1000 519.2250Q749.4900 516.2100 744.7200 516.2100L744.7200 516.2100Q739.9500 516.2100 737.3400 519.2250Q734.7300 522.2400 734.4600 528.0900L734.4600 528.0900Q734.3700 529.4400 734.3700 531.6000Q734.3700 533.7600 734.4600 535.1100L734.4600 535.1100Q734.7300 540.9600 737.3400 543.9750Q739.9500 546.9900 744.7200 546.9900ZM181.3200 645L173.0400 645Q172.1400 645 171.5100 644.3700Q170.8800 643.7400 170.8800 642.8400L170.8800 642.8400L170.8800 593.0700L154.2300 593.0700Q153.3300 593.0700 152.7000 592.4400Q152.0700 591.8100 152.0700 590.9100L152.0700 590.9100L152.0700 584.2500Q152.0700 583.2600 152.7000 582.6300Q153.3300 582 154.2300 582L154.2300 582L200.1300 582Q201.1200 582 201.7500 582.6300Q202.3800 583.2600 202.3800 584.2500L202.3800 584.2500L202.3800 590.9100Q202.3800 591.8100 201.7500 592.4400Q201.1200 593.0700 200.1300 593.0700L200.1300 593.0700L183.5700 593.0700L183.5700 642.8400Q183.5700 643.7400 182.9400 644.3700Q182.3100 645 181.3200 645L181.3200 645ZM225.9600 662.1000L218.8500 662.1000Q218.1300 662.1000 217.5900 661.5600Q217.0500 661.0200 217.0500 660.3000L217.0500 660.3000Q217.0500 659.9400 217.0950 659.6250Q217.1400 659.3100 217.4100 658.8600L217.4100 658.8600L224.4300 642.2100L207.1500 601.4400Q206.7900 600.5400 206.7900 600.1800L206.7900 600.1800Q206.8800 599.3700 207.4200 598.7850Q207.9600 598.2000 208.7700 598.2000L208.7700 598.2000L216.0600 598.2000Q217.1400 598.2000 217.6800 598.7400Q218.2200 599.2800 218.4900 599.9100L218.4900 599.9100L230.4600 629.3400L242.7900 599.9100Q243.0600 599.1900 243.6000 598.6950Q244.1400 598.2000 245.2200 598.2000L245.2200 598.2000L252.4200 598.2000Q253.1400 598.2000 253.7250 598.7400Q254.3100 599.2800 254.3100 600L254.3100 600Q254.3100 600.5400 253.9500 601.4400L253.9500 601.4400L228.4800 660.3900Q228.1200 661.1100 227.5800 661.6050Q227.0400 662.1000 225.9600 662.1000L225.9600 662.1000ZM271.9500 662.1000L264.3000 662.1000Q263.4000 662.1000 262.7700 661.4700Q262.1400 660.8400 262.1400 659.9400L262.1400 659.9400L262.1400 600.3600Q262.1400 599.4600 262.7700 598.8300Q263.4000 598.2000 264.3000 598.2000L264.3000 598.2000L271.4100 598.2000Q272.4000 598.2000 272.9850 598.8300Q273.5700 599.4600 273.5700 600.3600L273.5700 600.3600L273.5700 603.9600Q275.7300 601.0800 279.2400 599.1900Q282.7500 597.3000 287.9700 597.3000L287.9700 597.3000Q292.7400 597.3000 296.2500 598.8300Q299.7600 600.3600 302.1000 603.1950Q304.4400 606.0300 305.7000 609.9000Q306.9600 613.7700 307.1400 618.4500L307.1400 618.4500Q307.2300 619.9800 307.2300 621.6000Q307.2300 623.2200 307.1400 624.8400L307.1400 624.8400Q307.0500 629.3400 305.7900 633.1650Q304.5300 636.9900 302.1450 639.8250Q299.7600 642.6600 296.2500 644.2800Q292.7400 645.9000 287.9700 645.9000L287.9700 645.9000Q283.1100 645.9000 279.6900 644.1450Q276.2700 642.3900 274.1100 639.5100L274.1100 639.5100L274.1100 659.9400Q274.1100 660.8400 273.5250 661.4700Q272.9400 662.1000 271.9500 662.1000L271.9500 662.1000ZM284.6400 636.2700L284.6400 636.2700Q288.5100 636.2700 290.6700 634.6050Q292.8300 632.9400 293.8200 630.2400Q294.8100 627.5400 294.9900 624.3000L294.9900 624.3000Q295.0800 621.6000 294.9900 618.9000L294.9900 618.9000Q294.8100 615.6600 293.8200 612.9600Q292.8300 610.2600 290.6700 608.5950Q288.5100 606.9300 284.6400 606.9300L284.6400 606.9300Q280.9500 606.9300 278.6550 608.6400Q276.3600 610.3500 275.3250 613.0050Q274.2900 615.6600 274.1100 618.4500L274.1100 618.4500Q274.0200 620.0700 274.0200 621.8700Q274.0200 623.6700 274.1100 625.3800L274.1100 625.3800Q274.2000 628.0800 275.3700 630.5550Q276.5400 633.0300 278.7900 634.6500Q281.0400 636.2700 284.6400 636.2700ZM337.4700 645.9000L337.4700 645.9000Q327.4800 645.9000 321.6300 640.1400Q315.7800 634.3800 315.3300 623.7600L315.3300 623.7600Q315.2400 622.8600 315.2400 621.4650Q315.2400 620.0700 315.3300 619.2600L315.3300 619.2600Q315.6900 612.4200 318.4350 607.5150Q321.1800 602.6100 326.0400 599.9550Q330.9000 597.3000 337.4700 597.3000L337.4700 597.3000Q344.7600 597.3000 349.7100 600.3150Q354.6600 603.3300 357.1800 608.6850Q359.7000 614.0400 359.7000 621.0600L359.7000 621.0600L359.7000 622.9500Q359.7000 623.8500 359.0700 624.4800Q358.4400 625.1100 357.4500 625.1100L357.4500 625.1100L327.5700 625.1100Q327.5700 625.1100 327.5700 625.3800Q327.5700 625.6500 327.5700 625.8300L327.5700 625.8300Q327.6600 628.9800 328.7850 631.6350Q329.9100 634.2900 332.1150 635.9100Q334.3200 637.5300 337.3800 637.5300L337.3800 637.5300Q339.9000 637.5300 341.6100 636.7650Q343.3200 636 344.4000 635.0100Q345.4800 634.0200 345.9300 633.3900L345.9300 633.3900Q346.7400 632.3100 347.2350 632.0850Q347.7300 631.8600 348.7200 631.8600L348.7200 631.8600L356.4600 631.8600Q357.3600 631.8600 357.9450 632.4000Q358.5300 632.9400 358.4400 633.7500L358.4400 633.7500Q358.3500 635.1900 356.9550 637.2600Q355.5600 639.3300 352.9500 641.3100Q350.3400 643.2900 346.4250 644.5950Q342.5100 645.9000 337.4700 645.9000ZM327.5700 617.2800L327.5700 617.5500L347.4600 617.5500L347.4600 617.2800Q347.4600 613.7700 346.2900 611.1150Q345.1200 608.4600 342.8700 606.9750Q340.6200 605.4900 337.4700 605.4900L337.4700 605.4900Q334.3200 605.4900 332.0700 606.9750Q329.8200 608.4600 328.6950 611.1150Q327.5700 613.7700 327.5700 617.2800L327.5700 617.2800ZM392.1900 645.9000L392.1900 645.9000Q383.8200 645.9000 378.1950 643.4250Q372.5700 640.9500 369.6450 636.9450Q366.7200 632.9400 366.5400 628.5300L366.5400 628.5300Q366.5400 627.7200 367.0800 627.1800Q367.6200 626.6400 368.4300 626.6400L368.4300 626.6400L376.4400 626.6400Q377.6100 626.6400 378.1950 627.1350Q378.7800 627.6300 379.2300 628.3500L379.2300 628.3500Q379.7700 630.0600 381.3000 631.7250Q382.8300 633.3900 385.4850 634.4700Q388.1400 635.5500 392.1900 635.5500L392.1900 635.5500Q398.6700 635.5500 401.8650 633.3900Q405.0600 631.2300 405.0600 627.5400L405.0600 627.5400Q405.0600 624.9300 403.3500 623.3550Q401.6400 621.7800 398.0850 620.4750Q394.5300 619.1700 388.6800 617.7300L388.6800 617.7300Q381.9300 616.1100 377.3850 613.8150Q372.8400 611.5200 370.5450 608.0100Q368.2500 604.5000 368.2500 599.1000L368.2500 599.1000Q368.2500 593.8800 371.0850 589.8300Q373.9200 585.7800 379.1850 583.4400Q384.4500 581.1000 391.7400 581.1000L391.7400 581.1000Q397.5900 581.1000 402.0900 582.6750Q406.5900 584.2500 409.5600 586.8150Q412.5300 589.3800 414.1050 592.3050Q415.6800 595.2300 415.7700 598.0200L415.7700 598.0200Q415.7700 598.7400 415.2750 599.3250Q414.7800 599.9100 413.8800 599.9100L413.8800 599.9100L405.5100 599.9100Q404.7900 599.9100 404.0700 599.5500Q403.3500 599.1900 402.9000 598.2000L402.9000 598.2000Q402.3600 595.4100 399.3900 593.4300Q396.4200 591.4500 391.7400 591.4500L391.7400 591.4500Q386.8800 591.4500 383.9100 593.2500Q380.9400 595.0500 380.9400 598.8300L380.9400 598.8300Q380.9400 601.3500 382.4250 603.0150Q383.9100 604.6800 387.1950 605.9400Q390.4800 607.2000 395.8800 608.6400L395.8800 608.6400Q403.5300 610.3500 408.3900 612.6000Q413.2500 614.8500 415.5000 618.3150Q417.7500 621.7800 417.7500 627.0900L417.7500 627.0900Q417.7500 633.0300 414.5550 637.2150Q411.3600 641.4000 405.6000 643.6500Q399.8400 645.9000 392.1900 645.9000ZM447.2700 645.9000L447.2700 645.9000Q440.7900 645.9000 435.8850 643.4700Q430.9800 641.0400 428.2350 636.4050Q425.4900 631.7700 425.2200 625.2000L425.2200 625.2000Q425.1300 623.8500 425.1300 621.6450Q425.1300 619.4400 425.2200 618L425.2200 618Q425.4900 611.4300 428.2350 606.7950Q430.9800 602.1600 435.8850 599.7300Q440.7900 597.3000 447.2700 597.3000L447.2700 597.3000Q453.0300 597.3000 457.0800 598.8750Q461.1300 600.4500 463.7400 602.9250Q466.3500 605.4000 467.6550 608.0550Q468.9600 610.7100 469.0500 612.8700L469.0500 612.8700Q469.1400 613.8600 468.4650 614.4450Q467.7900 615.0300 466.8900 615.0300L466.8900 615.0300L458.9700 615.0300Q458.0700 615.0300 457.5750 614.5800Q457.0800 614.1300 456.6300 613.2300L456.6300 613.2300Q455.2800 609.6300 453.0750 608.1450Q450.8700 606.6600 447.4500 606.6600L447.4500 606.6600Q442.9500 606.6600 440.2950 609.4950Q437.6400 612.3300 437.4600 618.4500L437.4600 618.4500Q437.2800 621.8700 437.4600 624.7500L437.4600 624.7500Q437.6400 630.9600 440.2950 633.7500Q442.9500 636.5400 447.4500 636.5400L447.4500 636.5400Q450.9600 636.5400 453.1200 635.0550Q455.2800 633.5700 456.6300 629.9700L456.6300 629.9700Q457.0800 629.0700 457.5750 628.6200Q458.0700 628.1700 458.9700 628.1700L458.9700 628.1700L466.8900 628.1700Q467.7900 628.1700 468.4650 628.7550Q469.1400 629.3400 469.0500 630.3300L469.0500 630.3300Q468.9600 631.9500 468.1950 633.9750Q467.4300 636 465.7650 638.1150Q464.1000 640.2300 461.5800 641.9850Q459.0600 643.7400 455.5050 644.8200Q451.9500 645.9000 447.2700 645.9000ZM488.4000 645L480.5700 645Q479.6700 645 479.0400 644.3700Q478.4100 643.7400 478.4100 642.8400L478.4100 642.8400L478.4100 600.4500Q478.4100 599.4600 479.0400 598.8300Q479.6700 598.2000 480.5700 598.2000L480.5700 598.2000L487.8600 598.2000Q488.7600 598.2000 489.4350 598.8300Q490.1100 599.4600 490.1100 600.4500L490.1100 600.4500L490.1100 604.1400Q492.1800 601.2600 495.4650 599.7300Q498.7500 598.2000 503.0700 598.2000L503.0700 598.2000L506.7600 598.2000Q507.7500 598.2000 508.3350 598.8300Q508.9200 599.4600 508.9200 600.3600L508.9200 600.3600L508.9200 606.8400Q508.9200 607.7400 508.3350 608.3700Q507.7500 609 506.7600 609L506.7600 609L499.7400 609Q495.4200 609 493.0350 611.3850Q490.6500 613.7700 490.6500 618.0900L490.6500 618.0900L490.6500 642.8400Q490.6500 643.7400 490.0200 644.3700Q489.3900 645 488.4000 645L488.4000 645ZM525.5700 645L518.1000 645Q517.2000 645 516.5700 644.3700Q515.9400 643.7400 515.9400 642.8400L515.9400 642.8400L515.9400 600.3600Q515.9400 599.4600 516.5700 598.8300Q517.2000 598.2000 518.1000 598.2000L518.1000 598.2000L525.5700 598.2000Q526.5600 598.2000 527.1450 598.8300Q527.7300 599.4600 527.7300 600.3600L527.7300 600.3600L527.7300 642.8400Q527.7300 643.7400 527.1450 644.3700Q526.5600 645 525.5700 645L525.5700 645ZM525.9300 590.4600L517.7400 590.4600Q516.8400 590.4600 516.2100 589.8300Q515.5800 589.2000 515.5800 588.3000L515.5800 588.3000L515.5800 581.8200Q515.5800 580.9200 516.2100 580.2900Q516.8400 579.6600 517.7400 579.6600L517.7400 579.6600L525.9300 579.6600Q526.9200 579.6600 527.5500 580.2900Q528.1800 580.9200 528.1800 581.8200L528.1800 581.8200L528.1800 588.3000Q528.1800 589.2000 527.5500 589.8300Q526.9200 590.4600 525.9300 590.4600L525.9300 590.4600ZM549.6000 662.1000L541.9500 662.1000Q541.0500 662.1000 540.4200 661.4700Q539.7900 660.8400 539.7900 659.9400L539.7900 659.9400L539.7900 600.3600Q539.7900 599.4600 540.4200 598.8300Q541.0500 598.2000 541.9500 598.2000L541.9500 598.2000L549.0600 598.2000Q550.0500 598.2000 550.6350 598.8300Q551.2200 599.4600 551.2200 600.3600L551.2200 600.3600L551.2200 603.9600Q553.3800 601.0800 556.8900 599.1900Q560.4000 597.3000 565.6200 597.3000L565.6200 597.3000Q570.3900 597.3000 573.9000 598.8300Q577.4100 600.3600 579.7500 603.1950Q582.0900 606.0300 583.3500 609.9000Q584.6100 613.7700 584.7900 618.4500L584.7900 618.4500Q584.8800 619.9800 584.8800 621.6000Q584.8800 623.2200 584.7900 624.8400L584.7900 624.8400Q584.7000 629.3400 583.4400 633.1650Q582.1800 636.9900 579.7950 639.8250Q577.4100 642.6600 573.9000 644.2800Q570.3900 645.9000 565.6200 645.9000L565.6200 645.9000Q560.7600 645.9000 557.3400 644.1450Q553.9200 642.3900 551.7600 639.5100L551.7600 639.5100L551.7600 659.9400Q551.7600 660.8400 551.1750 661.4700Q550.5900 662.1000 549.6000 662.1000L549.6000 662.1000ZM562.2900 636.2700L562.2900 636.2700Q566.1600 636.2700 568.3200 634.6050Q570.4800 632.9400 571.4700 630.2400Q572.4600 627.5400 572.6400 624.3000L572.6400 624.3000Q572.7300 621.6000 572.6400 618.9000L572.6400 618.9000Q572.4600 615.6600 571.4700 612.9600Q570.4800 610.2600 568.3200 608.5950Q566.1600 606.9300 562.2900 606.9300L562.2900 606.9300Q558.6000 606.9300 556.3050 608.6400Q554.0100 610.3500 552.9750 613.0050Q551.9400 615.6600 551.7600 618.4500L551.7600 618.4500Q551.6700 620.0700 551.6700 621.8700Q551.6700 623.6700 551.7600 625.3800L551.7600 625.3800Q551.8500 628.0800 553.0200 630.5550Q554.1900 633.0300 556.4400 634.6500Q558.6900 636.2700 562.2900 636.2700ZM623.4000 645L616.1100 645Q610.7100 645 607.0200 643.1100Q603.3300 641.2200 601.5300 637.4850Q599.7300 633.7500 599.7300 628.1700L599.7300 628.1700L599.7300 607.7400L592.6200 607.7400Q591.7200 607.7400 591.0900 607.1100Q590.4600 606.4800 590.4600 605.4900L590.4600 605.4900L590.4600 600.3600Q590.4600 599.4600 591.0900 598.8300Q591.7200 598.2000 592.6200 598.2000L592.6200 598.2000L599.7300 598.2000L599.7300 583.2600Q599.7300 582.3600 600.3150 581.7300Q600.9000 581.1000 601.8900 581.1000L601.8900 581.1000L609.1800 581.1000Q610.0800 581.1000 610.7100 581.7300Q611.3400 582.3600 611.3400 583.2600L611.3400 583.2600L611.3400 598.2000L622.5900 598.2000Q623.4900 598.2000 624.1200 598.8300Q624.7500 599.4600 624.7500 600.3600L624.7500 600.3600L624.7500 605.4900Q624.7500 606.4800 624.1200 607.1100Q623.4900 607.7400 622.5900 607.7400L622.5900 607.7400L611.3400 607.7400L611.3400 627.2700Q611.3400 630.9600 612.6450 633.0300Q613.9500 635.1000 617.1900 635.1000L617.1900 635.1000L623.4000 635.1000Q624.3000 635.1000 624.9300 635.7300Q625.5600 636.3600 625.5600 637.2600L625.5600 637.2600L625.5600 642.8400Q625.5600 643.7400 624.9300 644.3700Q624.3000 645 623.4000 645L623.4000 645Z" id="title"/><path d="M1448.3400 640L1343.1800 640Q1340.9800 640 1339.4400 638.4600Q1337.9000 636.9200 1337.9000 634.7200L1337.9000 634.7200L1337.9000 623.5000Q1337.9000 621.5200 1338.8900 618.7700Q1339.8800 616.0200 1343.4000 613.1600L1343.4000 613.1600L1378.1600 578.6200Q1392.6800 567.1800 1401.5900 559.1500Q1410.5000 551.1200 1414.5700 544.4100Q1418.6400 537.7000 1418.6400 531.1000L1418.6400 531.1000Q1418.6400 521.2000 1413.2500 515.0400Q1407.8600 508.8800 1396.2000 508.8800L1396.2000 508.8800Q1388.5000 508.8800 1383.2200 512.0700Q1377.9400 515.2600 1374.9700 520.5400Q1372 525.8200 1370.9000 532.2000L1370.9000 532.2000Q1370.4600 535.0600 1368.4800 536.1600Q1366.5000 537.2600 1364.5200 537.2600L1364.5200 537.2600L1344.9400 537.2600Q1342.9600 537.2600 1341.6400 535.9400Q1340.3200 534.6200 1340.3200 532.8600L1340.3200 532.8600Q1340.5400 523.4000 1344.2800 514.4900Q1348.0200 505.5800 1355.1700 498.6500Q1362.3200 491.7200 1372.6600 487.5400Q1383 483.3600 1395.9800 483.3600L1395.9800 483.3600Q1414.2400 483.3600 1426.2300 489.5200Q1438.2200 495.6800 1444.2700 506.2400Q1450.3200 516.8000 1450.3200 530L1450.3200 530Q1450.3200 540.3400 1446.3600 549.0300Q1442.4000 557.7200 1434.9200 565.7500Q1427.4400 573.7800 1416.8800 582.1400L1416.8800 582.1400L1385.6400 613.8200L1448.3400 613.8200Q1450.7600 613.8200 1452.1900 615.2500Q1453.6200 616.6800 1453.6200 619.1000L1453.6200 619.1000L1453.6200 634.7200Q1453.6200 636.9200 1452.1900 638.4600Q1450.7600 640 1448.3400 640L1448.3400 640ZM1534.3600 642.2000L1534.3600 642.2000Q1515.4400 642.2000 1501.8000 635.0500Q1488.1600 627.9000 1480.6800 615.6900Q1473.2000 603.4800 1473.2000 588.3000L1473.2000 588.3000Q1473.2000 581.4800 1474.9600 575.1000Q1476.7200 568.7200 1479.5800 563Q1482.4400 557.2800 1485.1900 552.7700Q1487.9400 548.2600 1490.1400 545.6200L1490.1400 545.6200L1530.4000 490.4000Q1531.2800 489.3000 1533.0400 487.6500Q1534.8000 486 1537.8800 486L1537.8800 486L1558.3400 486Q1560.3200 486 1561.6400 487.4300Q1562.9600 488.8600 1562.9600 490.8400L1562.9600 490.8400Q1562.9600 491.7200 1562.6300 492.4900Q1562.3000 493.2600 1561.8600 493.7000L1561.8600 493.7000L1531.0600 536.3800Q1533.0400 535.7200 1535.6800 535.5000Q1538.3200 535.2800 1540.5200 535.2800L1540.5200 535.2800Q1551.5200 535.5000 1561.4200 539.5700Q1571.3200 543.6400 1578.8000 550.6800Q1586.2800 557.7200 1590.5700 567.1800Q1594.8600 576.6400 1594.8600 587.8600L1594.8600 587.8600Q1594.8600 602.3800 1587.6000 614.8100Q1580.3400 627.2400 1566.8100 634.7200Q1553.2800 642.2000 1534.3600 642.2000ZM1534.1400 616.9000L1534.1400 616.9000Q1542.0600 616.9000 1548.7700 613.6000Q1555.4800 610.3000 1559.6600 603.9200Q1563.8400 597.5400 1563.8400 588.0800L1563.8400 588.0800Q1563.8400 578.8400 1559.6600 572.4600Q1555.4800 566.0800 1548.7700 562.7800Q1542.0600 559.4800 1534.1400 559.4800L1534.1400 559.4800Q1526.2200 559.4800 1519.5100 562.7800Q1512.8000 566.0800 1508.6200 572.4600Q1504.4400 578.8400 1504.4400 588.0800L1504.4400 588.0800Q1504.4400 597.5400 1508.6200 603.9200Q1512.8000 610.3000 1519.5100 613.6000Q1526.2200 616.9000 1534.1400 616.9000ZM1642.6000 640L1620.6000 640Q1618.4000 640 1616.8600 638.4600Q1615.3200 636.9200 1615.3200 634.7200L1615.3200 634.7200L1615.3200 612.9400Q1615.3200 610.5200 1616.8600 608.9800Q1618.4000 607.4400 1620.6000 607.4400L1620.6000 607.4400L1642.6000 607.4400Q1644.8000 607.4400 1646.3400 608.9800Q1647.8800 610.5200 1647.8800 612.9400L1647.8800 612.9400L1647.8800 634.7200Q1647.8800 636.9200 1646.3400 638.4600Q1644.8000 640 1642.6000 640L1642.6000 640ZM1727.5200 640L1707.5000 640Q1705.0800 640 1703.6500 638.4600Q1702.2200 636.9200 1702.2200 634.7200L1702.2200 634.7200L1702.2200 520.7600L1668.7800 546.5000Q1666.8000 547.8200 1664.8200 547.4900Q1662.8400 547.1600 1661.3000 545.1800L1661.3000 545.1800L1652.0600 533.3000Q1650.7400 531.3200 1651.0700 529.1200Q1651.4000 526.9200 1653.3800 525.6000L1653.3800 525.6000L1702.6600 487.5400Q1703.9800 486.4400 1705.3000 486.2200Q1706.6200 486 1708.1600 486L1708.1600 486L1727.5200 486Q1729.7200 486 1731.2600 487.5400Q1732.8000 489.0800 1732.8000 491.2800L1732.8000 491.2800L1732.8000 634.7200Q1732.8000 636.9200 1731.2600 638.4600Q1729.7200 640 1727.5200 640L1727.5200 640Z" id="lecture-full-number"/></g></svg>