<svg xmlns="http://www.w3.org/2000/svg" version="1.1" xmlns:xlink="http://www.w3.org/1999/xlink" xmlns:svgjs="http://svgjs.dev/svgjs" viewBox="0 0 1920 1080" id="7cc98331-bdbf-461a-95ea-27de6107975f"><g><rect width="1920" height="1080" fill="#798086"/></g><g fill="#b949a4"><path d="M865 270L865 2467C258.907 2467 -232 1976.03 -232 1369.87C-232 760.965 258.907 270 865 270Z"/></g><g fill="#ffffff" opacity="0.2"><path d="M1829.66 1149.02C1826.52 1125.1 1822.11 1101.18 1817.7 1077.89L1577.22 1318.37H1660.32L1829.66 1149.02Z"/><path d="M1798.82 998.567C1793.15 977.163 1786.23 955.759 1779.3 934.984L1395.92 1319H1479.02L1798.82 998.567Z"/><path d="M1752.86 863.214C1744.68 843.698 1736.5 824.183 1727.68 805.297L1214.61 1319H1297.71L1752.86 863.214Z"/><path d="M1694.32 739.83C1684.88 722.203 1674.17 704.576 1664.1 686.949L1147.89 1203.8C1152.92 1227.72 1156.7 1251.64 1158.59 1276.19L1694.32 739.83Z"/><path d="M1625.07 627.77C1613.73 611.402 1601.77 595.664 1589.81 579.926L1098.78 1071.59C1108.22 1089.85 1117.03 1109.36 1124.59 1128.88L1625.07 627.77Z"/><path d="M1546.38 525.789C1533.79 510.68 1520.57 496.201 1506.72 482.352L1025.12 964.574C1038.35 979.053 1050.31 994.791 1061.64 1011.16L1546.38 525.789Z"/><path d="M1457.61 433.249C1443.13 420.029 1428.65 406.809 1413.54 394.219L928.802 879.589C945.17 890.92 960.908 902.881 975.387 916.101L1457.61 433.249Z"/><path d="M1358.78 350.148C1343.04 338.187 1326.67 326.855 1310.3 315.523L808.564 817.891C828.709 825.445 847.595 833.629 866.481 843.072L1358.78 350.148Z"/><path d="M1251.12 276.495C1233.5 265.793 1215.87 255.72 1198.24 246.277L659.364 785.787C684.545 787.046 709.097 790.194 733.019 795.23L1251.12 276.495Z"/><path d="M1132.14 214.166C1113.26 205.352 1093.74 197.168 1074.23 188.984L626.627 637.212V720.31L1132.14 214.166Z"/><path d="M1001.83 163.175C980.427 156.25 959.023 149.955 937.619 144.289L626 455.908V539.006L1001.83 163.175Z"/><path d="M857.666 126.035C834.373 121.628 810.451 117.851 786.529 114.074L626.627 274.605V357.703L857.666 126.035Z"/><path d="M626.626 176.396L697.134 105.889C673.841 104.629 650.548 104 626.626 104V176.396Z"/></g><g><path d="M178.635 139.281L184.422 144.246V166.626H215.704L219.958 172.147L215.69 177.397H184.422V198.795L178.635 203.747L173 198.795V144.232L178.635 139.281ZM195.554 195.68H219.406L223.397 200.915L219.143 206.45H195.554L191.7 201.342L195.554 195.68ZM196.382 138H219.129L223.383 143.52L219.129 148.77H196.659L192.115 143.677L196.382 138ZM323.155 148.628L328.251 154.291L323.155 159.968H246.13L241.172 154.291L246.13 148.628H323.155ZM237.043 172.147L241.849 167.893L246.669 172.147V178.393C246.669 188.879 249.417 197.515 261.668 197.515H264.14C275.147 197.515 281.197 189.86 281.197 177.952V172.005L285.879 167.75L290.699 171.862V178.379C290.699 189.007 293.723 196.946 305.56 196.946H307.618C319.178 196.946 321.235 187.869 321.373 177.952V171.578L326.056 167.608L331 171.72V178.094C330.862 191.838 327.285 207.574 308.032 207.574H305.974C294.552 207.574 288.365 202.324 285.892 195.808C283.006 202.466 275.299 208.286 264.844 208.286H262.358C242.553 208.286 237.194 195.964 237.056 178.663V172.147H237.043ZM276.391 274.744L273.642 267.089L280.796 264.969L305.974 276.721V252.491L311.07 248.095L316.291 252.491V281.829L325.641 286.226L328.251 293.311L320.959 296L276.391 274.744ZM321.235 223.011L328.113 226.27L325.917 233.497L264.002 263.119L256.571 260.146L259.596 252.776L321.235 223.011ZM231.905 263.404L237.954 268.512C237.402 286.51 222.403 296 204.669 296H202.874C194.062 296 183.759 292.6 177.157 286.083L177.834 278.855L184.298 278.002C189.118 282.256 195.858 285.229 202.183 285.229H204.117C216.091 285.229 225.303 280.136 226.27 268.085L231.905 263.404ZM226.256 251.638C225.704 239.16 216.629 234.209 204.103 234.209H202.169C194.739 234.209 189.104 237.182 184.284 241.436L177.834 240.583L177.143 233.355C183.745 226.696 192.957 223.58 202.597 223.58H204.517C222.403 223.58 237.402 232.942 237.94 251.211L231.891 256.176L226.256 251.638Z" fill="#ffffff"/></g><path d="M1171 781L1171 339L1187 339L1187 781L1171 781Z" fill="#ffffff"/><g fill="#ffffff" id="info-group"><path d="M167.3700 555L159.1800 555Q158.2800 555 157.6500 554.3700Q157.0200 553.7400 157.0200 552.8400L157.0200 552.8400L157.0200 494.2500Q157.0200 493.2600 157.6500 492.6300Q158.2800 492 159.1800 492L159.1800 492L182.4900 492Q193.3800 492 199.6800 497.0400Q205.9800 502.0800 205.9800 511.7100L205.9800 511.7100Q205.9800 518.3700 202.6950 522.7800Q199.4100 527.1900 193.9200 529.1700L193.9200 529.1700L207.0600 552.1200Q207.3300 552.6600 207.3300 553.1100L207.3300 553.1100Q207.3300 553.9200 206.7450 554.4600Q206.1600 555 205.4400 555L205.4400 555L197.2500 555Q195.7200 555 194.9100 554.1900Q194.1000 553.3800 193.6500 552.5700L193.6500 552.5700L182.0400 531.2400L169.5300 531.2400L169.5300 552.8400Q169.5300 553.7400 168.9450 554.3700Q168.3600 555 167.3700 555L167.3700 555ZM169.5300 501.9900L169.5300 521.0700L182.2200 521.0700Q187.7100 521.0700 190.4100 518.5950Q193.1100 516.1200 193.1100 511.6200L193.1100 511.6200Q193.1100 507.1200 190.4550 504.5550Q187.8000 501.9900 182.2200 501.9900L182.2200 501.9900L169.5300 501.9900ZM236.6700 555.9000L236.6700 555.9000Q226.6800 555.9000 220.8300 550.1400Q214.9800 544.3800 214.5300 533.7600L214.5300 533.7600Q214.4400 532.8600 214.4400 531.4650Q214.4400 530.0700 214.5300 529.2600L214.5300 529.2600Q214.8900 522.4200 217.6350 517.5150Q220.3800 512.6100 225.2400 509.9550Q230.1000 507.3000 236.6700 507.3000L236.6700 507.3000Q243.9600 507.3000 248.9100 510.3150Q253.8600 513.3300 256.3800 518.6850Q258.9000 524.0400 258.9000 531.0600L258.9000 531.0600L258.9000 532.9500Q258.9000 533.8500 258.2700 534.4800Q257.6400 535.1100 256.6500 535.1100L256.6500 535.1100L226.7700 535.1100Q226.7700 535.1100 226.7700 535.3800Q226.7700 535.6500 226.7700 535.8300L226.7700 535.8300Q226.8600 538.9800 227.9850 541.6350Q229.1100 544.2900 231.3150 545.9100Q233.5200 547.5300 236.5800 547.5300L236.5800 547.5300Q239.1000 547.5300 240.8100 546.7650Q242.5200 546 243.6000 545.0100Q244.6800 544.0200 245.1300 543.3900L245.1300 543.3900Q245.9400 542.3100 246.4350 542.0850Q246.9300 541.8600 247.9200 541.8600L247.9200 541.8600L255.6600 541.8600Q256.5600 541.8600 257.1450 542.4000Q257.7300 542.9400 257.6400 543.7500L257.6400 543.7500Q257.5500 545.1900 256.1550 547.2600Q254.7600 549.3300 252.1500 551.3100Q249.5400 553.2900 245.6250 554.5950Q241.7100 555.9000 236.6700 555.9000ZM226.7700 527.2800L226.7700 527.5500L246.6600 527.5500L246.6600 527.2800Q246.6600 523.7700 245.4900 521.1150Q244.3200 518.4600 242.0700 516.9750Q239.8200 515.4900 236.6700 515.4900L236.6700 515.4900Q233.5200 515.4900 231.2700 516.9750Q229.0200 518.4600 227.8950 521.1150Q226.7700 523.7700 226.7700 527.2800L226.7700 527.2800ZM282.0300 555.9000L282.0300 555.9000Q277.3500 555.9000 273.5700 554.0550Q269.7900 552.2100 267.5850 549.1050Q265.3800 546 265.3800 542.1300L265.3800 542.1300Q265.3800 535.8300 270.5100 532.0950Q275.6400 528.3600 283.9200 527.1000L283.9200 527.1000L296.2500 525.3000L296.2500 523.4100Q296.2500 519.6300 294.3600 517.5600Q292.4700 515.4900 287.8800 515.4900L287.8800 515.4900Q284.6400 515.4900 282.6150 516.7950Q280.5900 518.1000 279.6000 520.2600L279.6000 520.2600Q278.8800 521.4300 277.5300 521.4300L277.5300 521.4300L270.4200 521.4300Q269.4300 521.4300 268.9350 520.8900Q268.4400 520.3500 268.4400 519.4500L268.4400 519.4500Q268.5300 518.0100 269.6550 515.9400Q270.7800 513.8700 273.0750 511.9350Q275.3700 510 279.0600 508.6500Q282.7500 507.3000 287.9700 507.3000L287.9700 507.3000Q293.6400 507.3000 297.5550 508.6950Q301.4700 510.0900 303.8100 512.4300Q306.1500 514.7700 307.2300 517.9200Q308.3100 521.0700 308.3100 524.5800L308.3100 524.5800L308.3100 552.8400Q308.3100 553.7400 307.6800 554.3700Q307.0500 555 306.1500 555L306.1500 555L298.8600 555Q297.8700 555 297.2850 554.3700Q296.7000 553.7400 296.7000 552.8400L296.7000 552.8400L296.7000 549.3300Q295.5300 550.9500 293.5500 552.4800Q291.5700 554.0100 288.7350 554.9550Q285.9000 555.9000 282.0300 555.9000ZM285.0900 547.3500L285.0900 547.3500Q288.2400 547.3500 290.8050 546Q293.3700 544.6500 294.8550 541.8150Q296.3400 538.9800 296.3400 534.6600L296.3400 534.6600L296.3400 532.7700L287.3400 534.2100Q282.0300 535.0200 279.4200 536.8200Q276.8100 538.6200 276.8100 541.2300L276.8100 541.2300Q276.8100 543.2100 278.0250 544.6050Q279.2400 546 281.1300 546.6750Q283.0200 547.3500 285.0900 547.3500ZM340.0800 555.9000L340.0800 555.9000Q333.6000 555.9000 328.6950 553.4700Q323.7900 551.0400 321.0450 546.4050Q318.3000 541.7700 318.0300 535.2000L318.0300 535.2000Q317.9400 533.8500 317.9400 531.6450Q317.9400 529.4400 318.0300 528L318.0300 528Q318.3000 521.4300 321.0450 516.7950Q323.7900 512.1600 328.6950 509.7300Q333.6000 507.3000 340.0800 507.3000L340.0800 507.3000Q345.8400 507.3000 349.8900 508.8750Q353.9400 510.4500 356.5500 512.9250Q359.1600 515.4000 360.4650 518.0550Q361.7700 520.7100 361.8600 522.8700L361.8600 522.8700Q361.9500 523.8600 361.2750 524.4450Q360.6000 525.0300 359.7000 525.0300L359.7000 525.0300L351.7800 525.0300Q350.8800 525.0300 350.3850 524.5800Q349.8900 524.1300 349.4400 523.2300L349.4400 523.2300Q348.0900 519.6300 345.8850 518.1450Q343.6800 516.6600 340.2600 516.6600L340.2600 516.6600Q335.7600 516.6600 333.1050 519.4950Q330.4500 522.3300 330.2700 528.4500L330.2700 528.4500Q330.0900 531.8700 330.2700 534.7500L330.2700 534.7500Q330.4500 540.9600 333.1050 543.7500Q335.7600 546.5400 340.2600 546.5400L340.2600 546.5400Q343.7700 546.5400 345.9300 545.0550Q348.0900 543.5700 349.4400 539.9700L349.4400 539.9700Q349.8900 539.0700 350.3850 538.6200Q350.8800 538.1700 351.7800 538.1700L351.7800 538.1700L359.7000 538.1700Q360.6000 538.1700 361.2750 538.7550Q361.9500 539.3400 361.8600 540.3300L361.8600 540.3300Q361.7700 541.9500 361.0050 543.9750Q360.2400 546 358.5750 548.1150Q356.9100 550.2300 354.3900 551.9850Q351.8700 553.7400 348.3150 554.8200Q344.7600 555.9000 340.0800 555.9000ZM399.6600 555L392.3700 555Q386.9700 555 383.2800 553.1100Q379.5900 551.2200 377.7900 547.4850Q375.9900 543.7500 375.9900 538.1700L375.9900 538.1700L375.9900 517.7400L368.8800 517.7400Q367.9800 517.7400 367.3500 517.1100Q366.7200 516.4800 366.7200 515.4900L366.7200 515.4900L366.7200 510.3600Q366.7200 509.4600 367.3500 508.8300Q367.9800 508.2000 368.8800 508.2000L368.8800 508.2000L375.9900 508.2000L375.9900 493.2600Q375.9900 492.3600 376.5750 491.7300Q377.1600 491.1000 378.1500 491.1000L378.1500 491.1000L385.4400 491.1000Q386.3400 491.1000 386.9700 491.7300Q387.6000 492.3600 387.6000 493.2600L387.6000 493.2600L387.6000 508.2000L398.8500 508.2000Q399.7500 508.2000 400.3800 508.8300Q401.0100 509.4600 401.0100 510.3600L401.0100 510.3600L401.0100 515.4900Q401.0100 516.4800 400.3800 517.1100Q399.7500 517.7400 398.8500 517.7400L398.8500 517.7400L387.6000 517.7400L387.6000 537.2700Q387.6000 540.9600 388.9050 543.0300Q390.2100 545.1000 393.4500 545.1000L393.4500 545.1000L399.6600 545.1000Q400.5600 545.1000 401.1900 545.7300Q401.8200 546.3600 401.8200 547.2600L401.8200 547.2600L401.8200 552.8400Q401.8200 553.7400 401.1900 554.3700Q400.5600 555 399.6600 555L399.6600 555ZM455.8200 555L447.5400 555Q446.6400 555 446.0100 554.3700Q445.3800 553.7400 445.3800 552.8400L445.3800 552.8400L445.3800 503.0700L428.7300 503.0700Q427.8300 503.0700 427.2000 502.4400Q426.5700 501.8100 426.5700 500.9100L426.5700 500.9100L426.5700 494.2500Q426.5700 493.2600 427.2000 492.6300Q427.8300 492 428.7300 492L428.7300 492L474.6300 492Q475.6200 492 476.2500 492.6300Q476.8800 493.2600 476.8800 494.2500L476.8800 494.2500L476.8800 500.9100Q476.8800 501.8100 476.2500 502.4400Q475.6200 503.0700 474.6300 503.0700L474.6300 503.0700L458.0700 503.0700L458.0700 552.8400Q458.0700 553.7400 457.4400 554.3700Q456.8100 555 455.8200 555L455.8200 555ZM505.0500 555.9000L505.0500 555.9000Q495.0600 555.9000 489.2100 550.1400Q483.3600 544.3800 482.9100 533.7600L482.9100 533.7600Q482.8200 532.8600 482.8200 531.4650Q482.8200 530.0700 482.9100 529.2600L482.9100 529.2600Q483.2700 522.4200 486.0150 517.5150Q488.7600 512.6100 493.6200 509.9550Q498.4800 507.3000 505.0500 507.3000L505.0500 507.3000Q512.3400 507.3000 517.2900 510.3150Q522.2400 513.3300 524.7600 518.6850Q527.2800 524.0400 527.2800 531.0600L527.2800 531.0600L527.2800 532.9500Q527.2800 533.8500 526.6500 534.4800Q526.0200 535.1100 525.0300 535.1100L525.0300 535.1100L495.1500 535.1100Q495.1500 535.1100 495.1500 535.3800Q495.1500 535.6500 495.1500 535.8300L495.1500 535.8300Q495.2400 538.9800 496.3650 541.6350Q497.4900 544.2900 499.6950 545.9100Q501.9000 547.5300 504.9600 547.5300L504.9600 547.5300Q507.4800 547.5300 509.1900 546.7650Q510.9000 546 511.9800 545.0100Q513.0600 544.0200 513.5100 543.3900L513.5100 543.3900Q514.3200 542.3100 514.8150 542.0850Q515.3100 541.8600 516.3000 541.8600L516.3000 541.8600L524.0400 541.8600Q524.9400 541.8600 525.5250 542.4000Q526.1100 542.9400 526.0200 543.7500L526.0200 543.7500Q525.9300 545.1900 524.5350 547.2600Q523.1400 549.3300 520.5300 551.3100Q517.9200 553.2900 514.0050 554.5950Q510.0900 555.9000 505.0500 555.9000ZM495.1500 527.2800L495.1500 527.5500L515.0400 527.5500L515.0400 527.2800Q515.0400 523.7700 513.8700 521.1150Q512.7000 518.4600 510.4500 516.9750Q508.2000 515.4900 505.0500 515.4900L505.0500 515.4900Q501.9000 515.4900 499.6500 516.9750Q497.4000 518.4600 496.2750 521.1150Q495.1500 523.7700 495.1500 527.2800L495.1500 527.2800ZM554.5500 555.9000L554.5500 555.9000Q549.1500 555.9000 545.3250 554.6400Q541.5000 553.3800 539.0700 551.4900Q536.6400 549.6000 535.4700 547.7100Q534.3000 545.8200 534.2100 544.5600L534.2100 544.5600Q534.1200 543.5700 534.7950 542.9850Q535.4700 542.4000 536.2800 542.4000L536.2800 542.4000L543.3900 542.4000Q543.7500 542.4000 544.0200 542.4900Q544.2900 542.5800 544.7400 543.0300L544.7400 543.0300Q545.9100 544.0200 547.2150 545.1000Q548.5200 546.1800 550.3200 546.9450Q552.1200 547.7100 554.8200 547.7100L554.8200 547.7100Q558.3300 547.7100 560.7150 546.3150Q563.1000 544.9200 563.1000 542.3100L563.1000 542.3100Q563.1000 540.4200 562.0650 539.2500Q561.0300 538.0800 558.2400 537.1350Q555.4500 536.1900 550.3200 535.1100L550.3200 535.1100Q545.2800 533.9400 541.9500 532.1400Q538.6200 530.3400 537 527.6400Q535.3800 524.9400 535.3800 521.3400L535.3800 521.3400Q535.3800 517.8300 537.4950 514.6350Q539.6100 511.4400 543.7950 509.3700Q547.9800 507.3000 554.1900 507.3000L554.1900 507.3000Q559.0500 507.3000 562.6500 508.5150Q566.2500 509.7300 568.6350 511.5300Q571.0200 513.3300 572.2800 515.1750Q573.5400 517.0200 573.6300 518.3700L573.6300 518.3700Q573.7200 519.3600 573.0900 519.9450Q572.4600 520.5300 571.6500 520.5300L571.6500 520.5300L564.9900 520.5300Q564.5400 520.5300 564.1800 520.3500Q563.8200 520.1700 563.4600 519.9000L563.4600 519.9000Q562.4700 519 561.3000 517.9650Q560.1300 516.9300 558.4650 516.2100Q556.8000 515.4900 554.1000 515.4900L554.1000 515.4900Q550.6800 515.4900 548.8800 516.9750Q547.0800 518.4600 547.0800 520.7100L547.0800 520.7100Q547.0800 522.2400 547.9350 523.3650Q548.7900 524.4900 551.4000 525.4800Q554.0100 526.4700 559.3200 527.5500L559.3200 527.5500Q565.3500 528.6300 568.9050 530.7450Q572.4600 532.8600 573.9450 535.6050Q575.4300 538.3500 575.4300 541.6800L575.4300 541.6800Q575.4300 545.7300 573.0450 548.9700Q570.6600 552.2100 566.0250 554.0550Q561.3900 555.9000 554.5500 555.9000ZM613.1400 555L605.8500 555Q600.4500 555 596.7600 553.1100Q593.0700 551.2200 591.2700 547.4850Q589.4700 543.7500 589.4700 538.1700L589.4700 538.1700L589.4700 517.7400L582.3600 517.7400Q581.4600 517.7400 580.8300 517.1100Q580.2000 516.4800 580.2000 515.4900L580.2000 515.4900L580.2000 510.3600Q580.2000 509.4600 580.8300 508.8300Q581.4600 508.2000 582.3600 508.2000L582.3600 508.2000L589.4700 508.2000L589.4700 493.2600Q589.4700 492.3600 590.0550 491.7300Q590.6400 491.1000 591.6300 491.1000L591.6300 491.1000L598.9200 491.1000Q599.8200 491.1000 600.4500 491.7300Q601.0800 492.3600 601.0800 493.2600L601.0800 493.2600L601.0800 508.2000L612.3300 508.2000Q613.2300 508.2000 613.8600 508.8300Q614.4900 509.4600 614.4900 510.3600L614.4900 510.3600L614.4900 515.4900Q614.4900 516.4800 613.8600 517.1100Q613.2300 517.7400 612.3300 517.7400L612.3300 517.7400L601.0800 517.7400L601.0800 537.2700Q601.0800 540.9600 602.3850 543.0300Q603.6900 545.1000 606.9300 545.1000L606.9300 545.1000L613.1400 545.1000Q614.0400 545.1000 614.6700 545.7300Q615.3000 546.3600 615.3000 547.2600L615.3000 547.2600L615.3000 552.8400Q615.3000 553.7400 614.6700 554.3700Q614.0400 555 613.1400 555L613.1400 555ZM632.9400 555L625.4700 555Q624.5700 555 623.9400 554.3700Q623.3100 553.7400 623.3100 552.8400L623.3100 552.8400L623.3100 510.3600Q623.3100 509.4600 623.9400 508.8300Q624.5700 508.2000 625.4700 508.2000L625.4700 508.2000L632.9400 508.2000Q633.9300 508.2000 634.5150 508.8300Q635.1000 509.4600 635.1000 510.3600L635.1000 510.3600L635.1000 552.8400Q635.1000 553.7400 634.5150 554.3700Q633.9300 555 632.9400 555L632.9400 555ZM633.3000 500.4600L625.1100 500.4600Q624.2100 500.4600 623.5800 499.8300Q622.9500 499.2000 622.9500 498.3000L622.9500 498.3000L622.9500 491.8200Q622.9500 490.9200 623.5800 490.2900Q624.2100 489.6600 625.1100 489.6600L625.1100 489.6600L633.3000 489.6600Q634.2900 489.6600 634.9200 490.2900Q635.5500 490.9200 635.5500 491.8200L635.5500 491.8200L635.5500 498.3000Q635.5500 499.2000 634.9200 499.8300Q634.2900 500.4600 633.3000 500.4600L633.3000 500.4600ZM657.1500 555L649.2300 555Q648.3300 555 647.7000 554.3700Q647.0700 553.7400 647.0700 552.8400L647.0700 552.8400L647.0700 510.3600Q647.0700 509.4600 647.7000 508.8300Q648.3300 508.2000 649.2300 508.2000L649.2300 508.2000L656.6100 508.2000Q657.5100 508.2000 658.1400 508.8300Q658.7700 509.4600 658.7700 510.3600L658.7700 510.3600L658.7700 514.0500Q661.1100 511.1700 664.7550 509.2350Q668.4000 507.3000 673.8000 507.3000L673.8000 507.3000Q679.2900 507.3000 683.3400 509.7750Q687.3900 512.2500 689.5950 516.7500Q691.8000 521.2500 691.8000 527.5500L691.8000 527.5500L691.8000 552.8400Q691.8000 553.7400 691.1700 554.3700Q690.5400 555 689.6400 555L689.6400 555L681.7200 555Q680.8200 555 680.1900 554.3700Q679.5600 553.7400 679.5600 552.8400L679.5600 552.8400L679.5600 528.0900Q679.5600 522.8700 676.9950 519.9000Q674.4300 516.9300 669.5700 516.9300L669.5700 516.9300Q664.8900 516.9300 662.1000 519.9000Q659.3100 522.8700 659.3100 528.0900L659.3100 528.0900L659.3100 552.8400Q659.3100 553.7400 658.6800 554.3700Q658.0500 555 657.1500 555L657.1500 555ZM724.3800 574.8000L724.3800 574.8000Q717.8100 574.8000 713.5800 573.0900Q709.3500 571.3800 706.9200 568.9500Q704.4900 566.5200 703.4550 564.1350Q702.4200 561.7500 702.3300 560.4000L702.3300 560.4000Q702.2400 559.5000 702.9150 558.8250Q703.5900 558.1500 704.4900 558.1500L704.4900 558.1500L712.3200 558.1500Q713.2200 558.1500 713.7600 558.5550Q714.3000 558.9600 714.6600 560.0400L714.6600 560.0400Q715.2000 561.2100 716.1000 562.5600Q717 563.9100 718.8450 564.8550Q720.6900 565.8000 723.9300 565.8000L723.9300 565.8000Q727.3500 565.8000 729.6900 564.8100Q732.0300 563.8200 733.2450 561.4800Q734.4600 559.1400 734.4600 555L734.4600 555L734.4600 548.8800Q732.3000 551.4900 728.9250 553.1100Q725.5500 554.7300 720.6000 554.7300L720.6000 554.7300Q715.8300 554.7300 712.2750 553.1550Q708.7200 551.5800 706.3800 548.7450Q704.0400 545.9100 702.8250 542.0400Q701.6100 538.1700 701.4300 533.4900L701.4300 533.4900Q701.3400 531.0600 701.4300 528.6300L701.4300 528.6300Q701.6100 524.1300 702.8250 520.2600Q704.0400 516.3900 706.3800 513.4650Q708.7200 510.5400 712.2750 508.9200Q715.8300 507.3000 720.6000 507.3000L720.6000 507.3000Q725.7300 507.3000 729.2400 509.2350Q732.7500 511.1700 735 514.0500L735 514.0500L735 510.4500Q735 509.4600 735.6300 508.8300Q736.2600 508.2000 737.1600 508.2000L737.1600 508.2000L744.4500 508.2000Q745.3500 508.2000 745.9800 508.8300Q746.6100 509.4600 746.6100 510.4500L746.6100 510.4500L746.7000 553.8300Q746.7000 560.3100 744.2700 564.9900Q741.8400 569.6700 736.9350 572.2350Q732.0300 574.8000 724.3800 574.8000ZM723.9300 545.1900L723.9300 545.1900Q727.6200 545.1900 729.8700 543.5700Q732.1200 541.9500 733.2000 539.3400Q734.2800 536.7300 734.4600 534.0300L734.4600 534.0300Q734.5500 532.8600 734.5500 531.0600Q734.5500 529.2600 734.4600 528.1800L734.4600 528.1800Q734.2800 525.3900 733.2000 522.8250Q732.1200 520.2600 729.8700 518.5950Q727.6200 516.9300 723.9300 516.9300L723.9300 516.9300Q720.2400 516.9300 717.9900 518.5950Q715.7400 520.2600 714.7950 522.9600Q713.8500 525.6600 713.6700 528.9000L713.6700 528.9000Q713.4900 531.0600 713.6700 533.3100L713.6700 533.3100Q713.8500 536.4600 714.7950 539.2050Q715.7400 541.9500 717.9900 543.5700Q720.2400 545.1900 723.9300 545.1900ZM198.2400 645L159.1800 645Q158.2800 645 157.6500 644.3700Q157.0200 643.7400 157.0200 642.8400L157.0200 642.8400L157.0200 584.1600Q157.0200 583.2600 157.6500 582.6300Q158.2800 582 159.1800 582L159.1800 582L167.5500 582Q168.4500 582 169.0800 582.6300Q169.7100 583.2600 169.7100 584.1600L169.7100 584.1600L169.7100 634.2900L198.2400 634.2900Q199.2300 634.2900 199.8600 634.9200Q200.4900 635.5500 200.4900 636.5400L200.4900 636.5400L200.4900 642.8400Q200.4900 643.7400 199.8600 644.3700Q199.2300 645 198.2400 645L198.2400 645ZM217.7700 645L210.3000 645Q209.4000 645 208.7700 644.3700Q208.1400 643.7400 208.1400 642.8400L208.1400 642.8400L208.1400 600.3600Q208.1400 599.4600 208.7700 598.8300Q209.4000 598.2000 210.3000 598.2000L210.3000 598.2000L217.7700 598.2000Q218.7600 598.2000 219.3450 598.8300Q219.9300 599.4600 219.9300 600.3600L219.9300 600.3600L219.9300 642.8400Q219.9300 643.7400 219.3450 644.3700Q218.7600 645 217.7700 645L217.7700 645ZM218.1300 590.4600L209.9400 590.4600Q209.0400 590.4600 208.4100 589.8300Q207.7800 589.2000 207.7800 588.3000L207.7800 588.3000L207.7800 581.8200Q207.7800 580.9200 208.4100 580.2900Q209.0400 579.6600 209.9400 579.6600L209.9400 579.6600L218.1300 579.6600Q219.1200 579.6600 219.7500 580.2900Q220.3800 580.9200 220.3800 581.8200L220.3800 581.8200L220.3800 588.3000Q220.3800 589.2000 219.7500 589.8300Q219.1200 590.4600 218.1300 590.4600L218.1300 590.4600ZM257.8200 645.9000L257.8200 645.9000Q252.6000 645.9000 249.1350 644.1000Q245.6700 642.3000 243.4200 639.5100L243.4200 639.5100L243.4200 642.8400Q243.4200 643.7400 242.8350 644.3700Q242.2500 645 241.2600 645L241.2600 645L234.1500 645Q233.2500 645 232.6200 644.3700Q231.9900 643.7400 231.9900 642.8400L231.9900 642.8400L231.9900 583.2600Q231.9900 582.3600 232.6200 581.7300Q233.2500 581.1000 234.1500 581.1000L234.1500 581.1000L241.8000 581.1000Q242.7900 581.1000 243.3750 581.7300Q243.9600 582.3600 243.9600 583.2600L243.9600 583.2600L243.9600 603.2400Q246.2100 600.6300 249.5850 598.9650Q252.9600 597.3000 257.8200 597.3000L257.8200 597.3000Q262.5900 597.3000 266.1000 598.9200Q269.6100 600.5400 271.9950 603.4650Q274.3800 606.3900 275.6400 610.2600Q276.9000 614.1300 276.9900 618.6300L276.9900 618.6300Q277.0800 620.2500 277.0800 621.5550Q277.0800 622.8600 276.9900 624.4800L276.9900 624.4800Q276.8100 629.1600 275.5500 633.0750Q274.2900 636.9900 271.9500 639.8700Q269.6100 642.7500 266.1000 644.3250Q262.5900 645.9000 257.8200 645.9000ZM254.4900 636.2700L254.4900 636.2700Q258.3600 636.2700 260.5200 634.6050Q262.6800 632.9400 263.6700 630.2400Q264.6600 627.5400 264.8400 624.3000L264.8400 624.3000Q264.9300 621.6000 264.8400 618.9000L264.8400 618.9000Q264.6600 615.6600 263.6700 612.9600Q262.6800 610.2600 260.5200 608.5950Q258.3600 606.9300 254.4900 606.9300L254.4900 606.9300Q250.8900 606.9300 248.6400 608.5500Q246.3900 610.1700 245.2200 612.6450Q244.0500 615.1200 243.9600 617.8200L243.9600 617.8200Q243.8700 619.4400 243.8700 621.2850Q243.8700 623.1300 243.9600 624.7500L243.9600 624.7500Q244.1400 627.5400 245.1750 630.1950Q246.2100 632.8500 248.5050 634.5600Q250.8000 636.2700 254.4900 636.2700ZM297.0600 645L289.2300 645Q288.3300 645 287.7000 644.3700Q287.0700 643.7400 287.0700 642.8400L287.0700 642.8400L287.0700 600.4500Q287.0700 599.4600 287.7000 598.8300Q288.3300 598.2000 289.2300 598.2000L289.2300 598.2000L296.5200 598.2000Q297.4200 598.2000 298.0950 598.8300Q298.7700 599.4600 298.7700 600.4500L298.7700 600.4500L298.7700 604.1400Q300.8400 601.2600 304.1250 599.7300Q307.4100 598.2000 311.7300 598.2000L311.7300 598.2000L315.4200 598.2000Q316.4100 598.2000 316.9950 598.8300Q317.5800 599.4600 317.5800 600.3600L317.5800 600.3600L317.5800 606.8400Q317.5800 607.7400 316.9950 608.3700Q316.4100 609 315.4200 609L315.4200 609L308.4000 609Q304.0800 609 301.6950 611.3850Q299.3100 613.7700 299.3100 618.0900L299.3100 618.0900L299.3100 642.8400Q299.3100 643.7400 298.6800 644.3700Q298.0500 645 297.0600 645L297.0600 645ZM338.1900 645.9000L338.1900 645.9000Q333.5100 645.9000 329.7300 644.0550Q325.9500 642.2100 323.7450 639.1050Q321.5400 636 321.5400 632.1300L321.5400 632.1300Q321.5400 625.8300 326.6700 622.0950Q331.8000 618.3600 340.0800 617.1000L340.0800 617.1000L352.4100 615.3000L352.4100 613.4100Q352.4100 609.6300 350.5200 607.5600Q348.6300 605.4900 344.0400 605.4900L344.0400 605.4900Q340.8000 605.4900 338.7750 606.7950Q336.7500 608.1000 335.7600 610.2600L335.7600 610.2600Q335.0400 611.4300 333.6900 611.4300L333.6900 611.4300L326.5800 611.4300Q325.5900 611.4300 325.0950 610.8900Q324.6000 610.3500 324.6000 609.4500L324.6000 609.4500Q324.6900 608.0100 325.8150 605.9400Q326.9400 603.8700 329.2350 601.9350Q331.5300 600 335.2200 598.6500Q338.9100 597.3000 344.1300 597.3000L344.1300 597.3000Q349.8000 597.3000 353.7150 598.6950Q357.6300 600.0900 359.9700 602.4300Q362.3100 604.7700 363.3900 607.9200Q364.4700 611.0700 364.4700 614.5800L364.4700 614.5800L364.4700 642.8400Q364.4700 643.7400 363.8400 644.3700Q363.2100 645 362.3100 645L362.3100 645L355.0200 645Q354.0300 645 353.4450 644.3700Q352.8600 643.7400 352.8600 642.8400L352.8600 642.8400L352.8600 639.3300Q351.6900 640.9500 349.7100 642.4800Q347.7300 644.0100 344.8950 644.9550Q342.0600 645.9000 338.1900 645.9000ZM341.2500 637.3500L341.2500 637.3500Q344.4000 637.3500 346.9650 636Q349.5300 634.6500 351.0150 631.8150Q352.5000 628.9800 352.5000 624.6600L352.5000 624.6600L352.5000 622.7700L343.5000 624.2100Q338.1900 625.0200 335.5800 626.8200Q332.9700 628.6200 332.9700 631.2300L332.9700 631.2300Q332.9700 633.2100 334.1850 634.6050Q335.4000 636 337.2900 636.6750Q339.1800 637.3500 341.2500 637.3500ZM385.9800 645L378.1500 645Q377.2500 645 376.6200 644.3700Q375.9900 643.7400 375.9900 642.8400L375.9900 642.8400L375.9900 600.4500Q375.9900 599.4600 376.6200 598.8300Q377.2500 598.2000 378.1500 598.2000L378.1500 598.2000L385.4400 598.2000Q386.3400 598.2000 387.0150 598.8300Q387.6900 599.4600 387.6900 600.4500L387.6900 600.4500L387.6900 604.1400Q389.7600 601.2600 393.0450 599.7300Q396.3300 598.2000 400.6500 598.2000L400.6500 598.2000L404.3400 598.2000Q405.3300 598.2000 405.9150 598.8300Q406.5000 599.4600 406.5000 600.3600L406.5000 600.3600L406.5000 606.8400Q406.5000 607.7400 405.9150 608.3700Q405.3300 609 404.3400 609L404.3400 609L397.3200 609Q393.0000 609 390.6150 611.3850Q388.2300 613.7700 388.2300 618.0900L388.2300 618.0900L388.2300 642.8400Q388.2300 643.7400 387.6000 644.3700Q386.9700 645 385.9800 645L385.9800 645ZM429.0900 662.1000L421.9800 662.1000Q421.2600 662.1000 420.7200 661.5600Q420.1800 661.0200 420.1800 660.3000L420.1800 660.3000Q420.1800 659.9400 420.2250 659.6250Q420.2700 659.3100 420.5400 658.8600L420.5400 658.8600L427.5600 642.2100L410.2800 601.4400Q409.9200 600.5400 409.9200 600.1800L409.9200 600.1800Q410.0100 599.3700 410.5500 598.7850Q411.0900 598.2000 411.9000 598.2000L411.9000 598.2000L419.1900 598.2000Q420.2700 598.2000 420.8100 598.7400Q421.3500 599.2800 421.6200 599.9100L421.6200 599.9100L433.5900 629.3400L445.9200 599.9100Q446.1900 599.1900 446.7300 598.6950Q447.2700 598.2000 448.3500 598.2000L448.3500 598.2000L455.5500 598.2000Q456.2700 598.2000 456.8550 598.7400Q457.4400 599.2800 457.4400 600L457.4400 600Q457.4400 600.5400 457.0800 601.4400L457.0800 601.4400L431.6100 660.3900Q431.2500 661.1100 430.7100 661.6050Q430.1700 662.1000 429.0900 662.1000L429.0900 662.1000Z" id="title"/><path d="M1396.4200 642.2000L1396.4200 642.2000Q1381.0200 642.2000 1369.8000 638.4600Q1358.5800 634.7200 1351.2100 628.6700Q1343.8400 622.6200 1340.1000 615.4700Q1336.3600 608.3200 1336.1400 601.2800L1336.1400 601.2800Q1336.1400 599.3000 1337.5700 598.0900Q1339 596.8800 1340.9800 596.8800L1340.9800 596.8800L1360.7800 596.8800Q1362.9800 596.8800 1364.5200 597.7600Q1366.0600 598.6400 1367.1600 601.2800L1367.1600 601.2800Q1369.1400 607.2200 1373.6500 610.7400Q1378.1600 614.2600 1384.1000 615.6900Q1390.0400 617.1200 1396.6400 617.1200L1396.6400 617.1200Q1409.8400 617.1200 1417.6500 610.8500Q1425.4600 604.5800 1425.4600 592.9200L1425.4600 592.9200Q1425.4600 581.2600 1418.2000 576.0900Q1410.9400 570.9200 1397.9600 570.9200L1397.9600 570.9200L1375.3000 570.9200Q1372.8800 570.9200 1371.3400 569.4900Q1369.8000 568.0600 1369.8000 565.6400L1369.8000 565.6400L1369.8000 556.4000Q1369.8000 554.2000 1370.7900 552.5500Q1371.7800 550.9000 1372.8800 549.8000L1372.8800 549.8000L1412.2600 511.3000L1349.3400 511.3000Q1346.9200 511.3000 1345.4900 509.7600Q1344.0600 508.2200 1344.0600 506.0200L1344.0600 506.0200L1344.0600 491.5000Q1344.0600 489.0800 1345.4900 487.5400Q1346.9200 486 1349.3400 486L1349.3400 486L1443.7200 486Q1446.1400 486 1447.6800 487.5400Q1449.2200 489.0800 1449.2200 491.5000L1449.2200 491.5000L1449.2200 504.7000Q1449.2200 506.6800 1448.3400 508.2200Q1447.4600 509.7600 1446.3600 510.8600L1446.3600 510.8600L1408.3000 550.0200L1410.9400 550.2400Q1424.3600 551.3400 1434.8100 556.2900Q1445.2600 561.2400 1451.0900 570.7000Q1456.9200 580.1600 1456.9200 594.4600L1456.9200 594.4600Q1456.9200 609.4200 1449.1100 620.0900Q1441.3000 630.7600 1427.6600 636.4800Q1414.0200 642.2000 1396.4200 642.2000ZM1535.0200 642.2000L1535.0200 642.2000Q1519.6200 642.2000 1508.4000 638.4600Q1497.1800 634.7200 1489.8100 628.6700Q1482.4400 622.6200 1478.7000 615.4700Q1474.9600 608.3200 1474.7400 601.2800L1474.7400 601.2800Q1474.7400 599.3000 1476.1700 598.0900Q1477.6000 596.8800 1479.5800 596.8800L1479.5800 596.8800L1499.3800 596.8800Q1501.5800 596.8800 1503.1200 597.7600Q1504.6600 598.6400 1505.7600 601.2800L1505.7600 601.2800Q1507.7400 607.2200 1512.2500 610.7400Q1516.7600 614.2600 1522.7000 615.6900Q1528.6400 617.1200 1535.2400 617.1200L1535.2400 617.1200Q1548.4400 617.1200 1556.2500 610.8500Q1564.0600 604.5800 1564.0600 592.9200L1564.0600 592.9200Q1564.0600 581.2600 1556.8000 576.0900Q1549.5400 570.9200 1536.5600 570.9200L1536.5600 570.9200L1513.9000 570.9200Q1511.4800 570.9200 1509.9400 569.4900Q1508.4000 568.0600 1508.4000 565.6400L1508.4000 565.6400L1508.4000 556.4000Q1508.4000 554.2000 1509.3900 552.5500Q1510.3800 550.9000 1511.4800 549.8000L1511.4800 549.8000L1550.8600 511.3000L1487.9400 511.3000Q1485.5200 511.3000 1484.0900 509.7600Q1482.6600 508.2200 1482.6600 506.0200L1482.6600 506.0200L1482.6600 491.5000Q1482.6600 489.0800 1484.0900 487.5400Q1485.5200 486 1487.9400 486L1487.9400 486L1582.3200 486Q1584.7400 486 1586.2800 487.5400Q1587.8200 489.0800 1587.8200 491.5000L1587.8200 491.5000L1587.8200 504.7000Q1587.8200 506.6800 1586.9400 508.2200Q1586.0600 509.7600 1584.9600 510.8600L1584.9600 510.8600L1546.9000 550.0200L1549.5400 550.2400Q1562.9600 551.3400 1573.4100 556.2900Q1583.8600 561.2400 1589.6900 570.7000Q1595.5200 580.1600 1595.5200 594.4600L1595.5200 594.4600Q1595.5200 609.4200 1587.7100 620.0900Q1579.9000 630.7600 1566.2600 636.4800Q1552.6200 642.2000 1535.0200 642.2000ZM1645.6800 640L1623.6800 640Q1621.4800 640 1619.9400 638.4600Q1618.4000 636.9200 1618.4000 634.7200L1618.4000 634.7200L1618.4000 612.9400Q1618.4000 610.5200 1619.9400 608.9800Q1621.4800 607.4400 1623.6800 607.4400L1623.6800 607.4400L1645.6800 607.4400Q1647.8800 607.4400 1649.4200 608.9800Q1650.9600 610.5200 1650.9600 612.9400L1650.9600 612.9400L1650.9600 634.7200Q1650.9600 636.9200 1649.4200 638.4600Q1647.8800 640 1645.6800 640L1645.6800 640ZM1767.7800 640L1748.6400 640Q1746.4400 640 1744.9000 638.4600Q1743.3600 636.9200 1743.3600 634.7200L1743.3600 634.7200L1743.3600 606.5600L1673.6200 606.5600Q1671.2000 606.5600 1669.7700 605.0200Q1668.3400 603.4800 1668.3400 601.2800L1668.3400 601.2800L1668.3400 586.3200Q1668.3400 585 1668.8900 583.1300Q1669.4400 581.2600 1670.7600 579.7200L1670.7600 579.7200L1735.6600 489.7400Q1738.5200 486 1743.8000 486L1743.8000 486L1767.7800 486Q1769.9800 486 1771.5200 487.5400Q1773.0600 489.0800 1773.0600 491.2800L1773.0600 491.2800L1773.0600 580.6000L1792.6400 580.6000Q1795.2800 580.6000 1796.7100 582.0300Q1798.1400 583.4600 1798.1400 585.8800L1798.1400 585.8800L1798.1400 601.2800Q1798.1400 603.4800 1796.6000 605.0200Q1795.0600 606.5600 1792.8600 606.5600L1792.8600 606.5600L1773.0600 606.5600L1773.0600 634.7200Q1773.0600 636.9200 1771.5200 638.4600Q1769.9800 640 1767.7800 640L1767.7800 640ZM1744.0200 517.9000L1698.9200 581.4800L1744.0200 581.4800L1744.0200 517.9000Z" id="lecture-full-number"/></g></svg>