<svg xmlns="http://www.w3.org/2000/svg" version="1.1" xmlns:xlink="http://www.w3.org/1999/xlink" xmlns:svgjs="http://svgjs.dev/svgjs" viewBox="0 0 1920 1080" id="96b4e861-67d7-4d4c-9c48-7607c2fb155f"><g><rect width="1920" height="1080" fill="#cdcdcd"/></g><g fill="#c6ebd7"><path d="M745.478 668.096L1087.28 1009.97L1200.88 896.347L859.076 554.473L745.478 668.096Z"/><path d="M858.951 554.294L517.152 896.168L630.75 1009.79L972.549 667.917L858.951 554.294Z"/><path d="M289.239 668.391L631.038 1010.27L744.636 896.643L402.837 554.769L289.239 668.391Z"/><path d="M402.706 554L60.907 895.874L174.505 1009.5L516.304 667.623L402.706 554Z"/><path d="M-166 667.682L175.799 1009.56L289.397 895.933L-52.4021 554.059L-166 667.682Z"/></g><g fill="#ffffff" opacity="0.4"><path d="M1134 160C1540.91 160 1872 491.086 1872 898C1872 1304.91 1540.91 1636 1134 1636C727.086 1635.56 396 1304.91 396 898C396 491.086 727.086 160 1134 160ZM1134 1611.31C1527.25 1611.31 1847.31 1291.25 1847.31 898C1847.31 504.753 1527.25 184.247 1134 184.247C740.753 184.247 420.247 504.312 420.247 898C420.247 1291.69 740.312 1611.31 1134 1611.31Z"/><path d="M1134 251.699C1490.22 251.699 1780.3 541.785 1780.3 898C1780.3 1254.22 1490.22 1544.3 1134 1544.3C777.785 1544.3 487.699 1254.22 487.699 898C487.699 541.785 777.344 251.699 1134 251.699ZM1134 1519.61C1476.99 1519.61 1756.05 1240.55 1756.05 897.559C1756.05 554.57 1476.99 275.947 1134 275.947C791.011 275.947 511.946 555.011 511.946 898C511.946 1240.99 791.011 1519.61 1134 1519.61Z"/><path d="M1134 342.957C1439.96 342.957 1688.6 592.043 1688.6 897.559C1688.6 1203.52 1439.52 1452.16 1134 1452.16C828.043 1452.16 579.398 1203.08 579.398 897.559C578.957 592.043 828.043 342.957 1134 342.957ZM1134 1428.35C1426.29 1428.35 1664.35 1190.29 1664.35 898C1664.35 605.71 1426.29 367.645 1134 367.645C841.71 367.645 603.645 605.71 603.645 898C603.645 1190.29 841.269 1428.35 1134 1428.35Z"/><path d="M1134 434.656C1389.26 434.656 1597.34 642.301 1597.34 898C1597.34 1153.7 1389.7 1361.34 1134 1361.34C878.742 1361.34 670.656 1153.7 670.656 898C670.656 642.301 878.301 434.656 1134 434.656ZM1134 1336.66C1376.03 1336.66 1572.66 1139.59 1572.66 898C1572.66 656.408 1375.59 459.344 1134 459.344C891.968 459.344 695.344 656.408 695.344 898C695.344 1139.59 891.968 1336.66 1134 1336.66Z"/><path d="M1134 526.354C1339 526.354 1505.65 693 1505.65 898C1505.65 1103 1339 1269.64 1134 1269.64C929 1269.64 762.355 1103 762.355 898C762.355 693 929 526.354 1134 526.354ZM1134 1244.96C1325.33 1244.96 1481.4 1089.33 1481.4 897.559C1481.4 706.225 1325.77 550.161 1134 550.161C942.667 550.161 786.602 705.785 786.602 897.559C786.602 1089.33 942.226 1244.96 1134 1244.96Z"/><path d="M1134 617.613C1288.3 617.613 1414.39 743.258 1414.39 898C1414.39 1052.74 1288.74 1178.39 1134 1178.39C979.699 1178.39 853.613 1052.74 853.613 898C853.613 743.258 979.258 617.613 1134 617.613ZM1134 1153.7C1275.08 1153.7 1389.7 1039.08 1389.7 898C1389.7 756.925 1275.08 642.301 1134 642.301C992.925 642.301 878.301 756.925 878.301 898C878.301 1039.08 992.925 1153.7 1134 1153.7Z"/><path d="M1134 709.312C1238.04 709.312 1322.69 793.957 1322.69 898C1322.69 1002.04 1238.04 1086.69 1134 1086.69C1029.96 1086.69 945.312 1002.04 945.312 898C945.312 793.957 1029.96 709.312 1134 709.312ZM1134 1062C1224.38 1062 1298.44 988.377 1298.44 897.559C1298.44 807.183 1224.82 733.118 1134 733.118C1043.62 733.118 969.559 806.742 969.559 897.559C969.559 988.377 1043.18 1062 1134 1062Z"/><path d="M1134 800.57C1187.34 800.57 1230.99 844.215 1230.99 897.56C1230.99 950.904 1187.34 994.549 1134 994.549C1080.66 994.549 1037.01 950.904 1037.01 897.56C1036.57 844.215 1080.22 800.57 1134 800.57ZM1134 970.742C1174.12 970.742 1206.74 938.119 1206.74 898C1206.74 857.882 1174.12 825.258 1134 825.258C1093.88 825.258 1061.26 857.882 1061.26 898C1061.26 938.119 1093.88 970.742 1134 970.742Z"/></g><g><path d="M178.635 139.281L184.422 144.246V166.626H215.704L219.958 172.147L215.69 177.397H184.422V198.795L178.635 203.747L173 198.795V144.232L178.635 139.281ZM195.554 195.68H219.406L223.397 200.915L219.143 206.45H195.554L191.7 201.342L195.554 195.68ZM196.382 138H219.129L223.383 143.52L219.129 148.77H196.659L192.115 143.677L196.382 138ZM323.155 148.628L328.251 154.291L323.155 159.968H246.13L241.172 154.291L246.13 148.628H323.155ZM237.043 172.147L241.849 167.893L246.669 172.147V178.393C246.669 188.879 249.417 197.515 261.668 197.515H264.14C275.147 197.515 281.197 189.86 281.197 177.952V172.005L285.879 167.75L290.699 171.862V178.379C290.699 189.007 293.723 196.946 305.56 196.946H307.618C319.178 196.946 321.235 187.869 321.373 177.952V171.578L326.056 167.608L331 171.72V178.094C330.862 191.838 327.285 207.574 308.032 207.574H305.974C294.552 207.574 288.365 202.324 285.892 195.808C283.006 202.466 275.299 208.286 264.844 208.286H262.358C242.553 208.286 237.194 195.964 237.056 178.663V172.147H237.043ZM276.391 274.744L273.642 267.089L280.796 264.969L305.974 276.721V252.491L311.07 248.095L316.291 252.491V281.829L325.641 286.226L328.251 293.311L320.959 296L276.391 274.744ZM321.235 223.011L328.113 226.27L325.917 233.497L264.002 263.119L256.571 260.146L259.596 252.776L321.235 223.011ZM231.905 263.404L237.954 268.512C237.402 286.51 222.403 296 204.669 296H202.874C194.062 296 183.759 292.6 177.157 286.083L177.834 278.855L184.298 278.002C189.118 282.256 195.858 285.229 202.183 285.229H204.117C216.091 285.229 225.303 280.136 226.27 268.085L231.905 263.404ZM226.256 251.638C225.704 239.16 216.629 234.209 204.103 234.209H202.169C194.739 234.209 189.104 237.182 184.284 241.436L177.834 240.583L177.143 233.355C183.745 226.696 192.957 223.58 202.597 223.58H204.517C222.403 223.58 237.402 232.942 237.94 251.211L231.891 256.176L226.256 251.638Z" fill="#000000"/></g><path d="M1171 781L1171 339L1187 339L1187 781L1171 781Z" fill="#000000"/><g fill="#000000" id="info-group"><path d="M181.3200 600.9000L181.3200 600.9000Q172.9500 600.9000 167.1450 597.9750Q161.3400 595.0500 158.2800 589.6050Q155.2200 584.1600 154.8600 576.5100L154.8600 576.5100Q154.7700 572.8200 154.7700 568.5900Q154.7700 564.3600 154.8600 560.4900L154.8600 560.4900Q155.2200 552.9300 158.3250 547.4400Q161.4300 541.9500 167.2350 539.0250Q173.0400 536.1000 181.3200 536.1000L181.3200 536.1000Q187.4400 536.1000 192.3000 537.7200Q197.1600 539.3400 200.5800 542.1750Q204 545.0100 205.8900 548.7900Q207.7800 552.5700 207.8700 556.9800L207.8700 556.9800Q207.9600 557.7900 207.3750 558.3300Q206.7900 558.8700 205.9800 558.8700L205.9800 558.8700L197.4300 558.8700Q196.4400 558.8700 195.8100 558.3750Q195.1800 557.8800 194.9100 556.7100L194.9100 556.7100Q193.4700 550.7700 189.9600 548.6100Q186.4500 546.4500 181.2300 546.4500L181.2300 546.4500Q175.2000 546.4500 171.6000 549.8250Q168 553.2000 167.7300 560.9400L167.7300 560.9400Q167.4600 568.3200 167.7300 576.0600L167.7300 576.0600Q168 583.8000 171.6000 587.1750Q175.2000 590.5500 181.2300 590.5500L181.2300 590.5500Q186.4500 590.5500 190.0050 588.3450Q193.5600 586.1400 194.9100 580.2900L194.9100 580.2900Q195.1800 579.0300 195.8100 578.5800Q196.4400 578.1300 197.4300 578.1300L197.4300 578.1300L205.9800 578.1300Q206.7900 578.1300 207.3750 578.6700Q207.9600 579.2100 207.8700 580.0200L207.8700 580.0200Q207.7800 584.4300 205.8900 588.2100Q204 591.9900 200.5800 594.8250Q197.1600 597.6600 192.3000 599.2800Q187.4400 600.9000 181.3200 600.9000ZM240.4500 600.9000L240.4500 600.9000Q232.0800 600.9000 226.4550 598.4250Q220.8300 595.9500 217.9050 591.9450Q214.9800 587.9400 214.8000 583.5300L214.8000 583.5300Q214.8000 582.7200 215.3400 582.1800Q215.8800 581.6400 216.6900 581.6400L216.6900 581.6400L224.7000 581.6400Q225.8700 581.6400 226.4550 582.1350Q227.0400 582.6300 227.4900 583.3500L227.4900 583.3500Q228.0300 585.0600 229.5600 586.7250Q231.0900 588.3900 233.7450 589.4700Q236.4000 590.5500 240.4500 590.5500L240.4500 590.5500Q246.9300 590.5500 250.1250 588.3900Q253.3200 586.2300 253.3200 582.5400L253.3200 582.5400Q253.3200 579.9300 251.6100 578.3550Q249.9000 576.7800 246.3450 575.4750Q242.7900 574.1700 236.9400 572.7300L236.9400 572.7300Q230.1900 571.1100 225.6450 568.8150Q221.1000 566.5200 218.8050 563.0100Q216.5100 559.5000 216.5100 554.1000L216.5100 554.1000Q216.5100 548.8800 219.3450 544.8300Q222.1800 540.7800 227.4450 538.4400Q232.7100 536.1000 240 536.1000L240 536.1000Q245.8500 536.1000 250.3500 537.6750Q254.8500 539.2500 257.8200 541.8150Q260.7900 544.3800 262.3650 547.3050Q263.9400 550.2300 264.0300 553.0200L264.0300 553.0200Q264.0300 553.7400 263.5350 554.3250Q263.0400 554.9100 262.1400 554.9100L262.1400 554.9100L253.7700 554.9100Q253.0500 554.9100 252.3300 554.5500Q251.6100 554.1900 251.1600 553.2000L251.1600 553.2000Q250.6200 550.4100 247.6500 548.4300Q244.6800 546.4500 240 546.4500L240 546.4500Q235.1400 546.4500 232.1700 548.2500Q229.2000 550.0500 229.2000 553.8300L229.2000 553.8300Q229.2000 556.3500 230.6850 558.0150Q232.1700 559.6800 235.4550 560.9400Q238.7400 562.2000 244.1400 563.6400L244.1400 563.6400Q251.7900 565.3500 256.6500 567.6000Q261.5100 569.8500 263.7600 573.3150Q266.0100 576.7800 266.0100 582.0900L266.0100 582.0900Q266.0100 588.0300 262.8150 592.2150Q259.6200 596.4000 253.8600 598.6500Q248.1000 600.9000 240.4500 600.9000ZM298.2300 600.9000L298.2300 600.9000Q289.8600 600.9000 284.2350 598.4250Q278.6100 595.9500 275.6850 591.9450Q272.7600 587.9400 272.5800 583.5300L272.5800 583.5300Q272.5800 582.7200 273.1200 582.1800Q273.6600 581.6400 274.4700 581.6400L274.4700 581.6400L282.4800 581.6400Q283.6500 581.6400 284.2350 582.1350Q284.8200 582.6300 285.2700 583.3500L285.2700 583.3500Q285.8100 585.0600 287.3400 586.7250Q288.8700 588.3900 291.5250 589.4700Q294.1800 590.5500 298.2300 590.5500L298.2300 590.5500Q304.7100 590.5500 307.9050 588.3900Q311.1000 586.2300 311.1000 582.5400L311.1000 582.5400Q311.1000 579.9300 309.3900 578.3550Q307.6800 576.7800 304.1250 575.4750Q300.5700 574.1700 294.7200 572.7300L294.7200 572.7300Q287.9700 571.1100 283.4250 568.8150Q278.8800 566.5200 276.5850 563.0100Q274.2900 559.5000 274.2900 554.1000L274.2900 554.1000Q274.2900 548.8800 277.1250 544.8300Q279.9600 540.7800 285.2250 538.4400Q290.4900 536.1000 297.7800 536.1000L297.7800 536.1000Q303.6300 536.1000 308.1300 537.6750Q312.6300 539.2500 315.6000 541.8150Q318.5700 544.3800 320.1450 547.3050Q321.7200 550.2300 321.8100 553.0200L321.8100 553.0200Q321.8100 553.7400 321.3150 554.3250Q320.8200 554.9100 319.9200 554.9100L319.9200 554.9100L311.5500 554.9100Q310.8300 554.9100 310.1100 554.5500Q309.3900 554.1900 308.9400 553.2000L308.9400 553.2000Q308.4000 550.4100 305.4300 548.4300Q302.4600 546.4500 297.7800 546.4500L297.7800 546.4500Q292.9200 546.4500 289.9500 548.2500Q286.9800 550.0500 286.9800 553.8300L286.9800 553.8300Q286.9800 556.3500 288.4650 558.0150Q289.9500 559.6800 293.2350 560.9400Q296.5200 562.2000 301.9200 563.6400L301.9200 563.6400Q309.5700 565.3500 314.4300 567.6000Q319.2900 569.8500 321.5400 573.3150Q323.7900 576.7800 323.7900 582.0900L323.7900 582.0900Q323.7900 588.0300 320.5950 592.2150Q317.4000 596.4000 311.6400 598.6500Q305.8800 600.9000 298.2300 600.9000Z" id="title"/><path d="M1475.6800 650L1454.8000 650Q1452.4000 650 1450.7200 648.3200Q1449.0400 646.6400 1449.0400 644.2400L1449.0400 644.2400L1449.0400 613.5200L1372.9600 613.5200Q1370.3200 613.5200 1368.7600 611.8400Q1367.2000 610.1600 1367.2000 607.7600L1367.2000 607.7600L1367.2000 591.4400Q1367.2000 590 1367.8000 587.9600Q1368.4000 585.9200 1369.8400 584.2400L1369.8400 584.2400L1440.6400 486.0800Q1443.7600 482 1449.5200 482L1449.5200 482L1475.6800 482Q1478.0800 482 1479.7600 483.6800Q1481.4400 485.3600 1481.4400 487.7600L1481.4400 487.7600L1481.4400 585.2000L1502.8000 585.2000Q1505.6800 585.2000 1507.2400 586.7600Q1508.8000 588.3200 1508.8000 590.9600L1508.8000 590.9600L1508.8000 607.7600Q1508.8000 610.1600 1507.1200 611.8400Q1505.4400 613.5200 1503.0400 613.5200L1503.0400 613.5200L1481.4400 613.5200L1481.4400 644.2400Q1481.4400 646.6400 1479.7600 648.3200Q1478.0800 650 1475.6800 650L1475.6800 650ZM1449.7600 516.8000L1400.5600 586.1600L1449.7600 586.1600L1449.7600 516.8000ZM1558 650L1534 650Q1531.6000 650 1529.9200 648.3200Q1528.2400 646.6400 1528.2400 644.2400L1528.2400 644.2400L1528.2400 620.4800Q1528.2400 617.8400 1529.9200 616.1600Q1531.6000 614.4800 1534 614.4800L1534 614.4800L1558 614.4800Q1560.4000 614.4800 1562.0800 616.1600Q1563.7600 617.8400 1563.7600 620.4800L1563.7600 620.4800L1563.7600 644.2400Q1563.7600 646.6400 1562.0800 648.3200Q1560.4000 650 1558 650L1558 650ZM1652.8000 652.4000L1652.8000 652.4000Q1632.1600 652.4000 1617.2800 644.6000Q1602.4000 636.8000 1594.2400 623.4800Q1586.0800 610.1600 1586.0800 593.6000L1586.0800 593.6000Q1586.0800 586.1600 1588.0000 579.2000Q1589.9200 572.2400 1593.0400 566Q1596.1600 559.7600 1599.1600 554.8400Q1602.1600 549.9200 1604.5600 547.0400L1604.5600 547.0400L1648.4800 486.8000Q1649.4400 485.6000 1651.3600 483.8000Q1653.2800 482 1656.6400 482L1656.6400 482L1678.9600 482Q1681.1200 482 1682.5600 483.5600Q1684.0000 485.1200 1684.0000 487.2800L1684.0000 487.2800Q1684.0000 488.2400 1683.6400 489.0800Q1683.2800 489.9200 1682.8000 490.4000L1682.8000 490.4000L1649.2000 536.9600Q1651.3600 536.2400 1654.2400 536Q1657.1200 535.7600 1659.5200 535.7600L1659.5200 535.7600Q1671.5200 536 1682.3200 540.4400Q1693.1200 544.8800 1701.2800 552.5600Q1709.4400 560.2400 1714.1200 570.5600Q1718.8000 580.8800 1718.8000 593.1200L1718.8000 593.1200Q1718.8000 608.9600 1710.8800 622.5200Q1702.9600 636.0800 1688.2000 644.2400Q1673.4400 652.4000 1652.8000 652.4000ZM1652.5600 624.8000L1652.5600 624.8000Q1661.2000 624.8000 1668.5200 621.2000Q1675.8400 617.6000 1680.4000 610.6400Q1684.9600 603.6800 1684.9600 593.3600L1684.9600 593.3600Q1684.9600 583.2800 1680.4000 576.3200Q1675.8400 569.3600 1668.5200 565.7600Q1661.2000 562.1600 1652.5600 562.1600L1652.5600 562.1600Q1643.9200 562.1600 1636.6000 565.7600Q1629.2800 569.3600 1624.7200 576.3200Q1620.1600 583.2800 1620.1600 593.3600L1620.1600 593.3600Q1620.1600 603.6800 1624.7200 610.6400Q1629.2800 617.6000 1636.6000 621.2000Q1643.9200 624.8000 1652.5600 624.8000Z" id="lecture-full-number"/></g></svg>