<svg xmlns="http://www.w3.org/2000/svg" version="1.1" xmlns:xlink="http://www.w3.org/1999/xlink" xmlns:svgjs="http://svgjs.dev/svgjs" viewBox="0 0 1920 1080" id="b8fef63a-9b1c-4950-8e3f-758d7dd230b8"><g><rect width="1920" height="1080" fill="#0267c1"/></g><g fill="#d65108"><path d="M865 270L865 2467C258.907 2467 -232 1976.03 -232 1369.87C-232 760.965 258.907 270 865 270Z"/></g><g fill="#ffffff" opacity="0.2"><path d="M1829.66 1149.02C1826.52 1125.1 1822.11 1101.18 1817.7 1077.89L1577.22 1318.37H1660.32L1829.66 1149.02Z"/><path d="M1798.82 998.567C1793.15 977.163 1786.23 955.759 1779.3 934.984L1395.92 1319H1479.02L1798.82 998.567Z"/><path d="M1752.86 863.214C1744.68 843.698 1736.5 824.183 1727.68 805.297L1214.61 1319H1297.71L1752.86 863.214Z"/><path d="M1694.32 739.83C1684.88 722.203 1674.17 704.576 1664.1 686.949L1147.89 1203.8C1152.92 1227.72 1156.7 1251.64 1158.59 1276.19L1694.32 739.83Z"/><path d="M1625.07 627.77C1613.73 611.402 1601.77 595.664 1589.81 579.926L1098.78 1071.59C1108.22 1089.85 1117.03 1109.36 1124.59 1128.88L1625.07 627.77Z"/><path d="M1546.38 525.789C1533.79 510.68 1520.57 496.201 1506.72 482.352L1025.12 964.574C1038.35 979.053 1050.31 994.791 1061.64 1011.16L1546.38 525.789Z"/><path d="M1457.61 433.249C1443.13 420.029 1428.65 406.809 1413.54 394.219L928.802 879.589C945.17 890.92 960.908 902.881 975.387 916.101L1457.61 433.249Z"/><path d="M1358.78 350.148C1343.04 338.187 1326.67 326.855 1310.3 315.523L808.564 817.891C828.709 825.445 847.595 833.629 866.481 843.072L1358.78 350.148Z"/><path d="M1251.12 276.495C1233.5 265.793 1215.87 255.72 1198.24 246.277L659.364 785.787C684.545 787.046 709.097 790.194 733.019 795.23L1251.12 276.495Z"/><path d="M1132.14 214.166C1113.26 205.352 1093.74 197.168 1074.23 188.984L626.627 637.212V720.31L1132.14 214.166Z"/><path d="M1001.83 163.175C980.427 156.25 959.023 149.955 937.619 144.289L626 455.908V539.006L1001.83 163.175Z"/><path d="M857.666 126.035C834.373 121.628 810.451 117.851 786.529 114.074L626.627 274.605V357.703L857.666 126.035Z"/><path d="M626.626 176.396L697.134 105.889C673.841 104.629 650.548 104 626.626 104V176.396Z"/></g><g><path d="M178.635 139.281L184.422 144.246V166.626H215.704L219.958 172.147L215.69 177.397H184.422V198.795L178.635 203.747L173 198.795V144.232L178.635 139.281ZM195.554 195.68H219.406L223.397 200.915L219.143 206.45H195.554L191.7 201.342L195.554 195.68ZM196.382 138H219.129L223.383 143.52L219.129 148.77H196.659L192.115 143.677L196.382 138ZM323.155 148.628L328.251 154.291L323.155 159.968H246.13L241.172 154.291L246.13 148.628H323.155ZM237.043 172.147L241.849 167.893L246.669 172.147V178.393C246.669 188.879 249.417 197.515 261.668 197.515H264.14C275.147 197.515 281.197 189.86 281.197 177.952V172.005L285.879 167.75L290.699 171.862V178.379C290.699 189.007 293.723 196.946 305.56 196.946H307.618C319.178 196.946 321.235 187.869 321.373 177.952V171.578L326.056 167.608L331 171.72V178.094C330.862 191.838 327.285 207.574 308.032 207.574H305.974C294.552 207.574 288.365 202.324 285.892 195.808C283.006 202.466 275.299 208.286 264.844 208.286H262.358C242.553 208.286 237.194 195.964 237.056 178.663V172.147H237.043ZM276.391 274.744L273.642 267.089L280.796 264.969L305.974 276.721V252.491L311.07 248.095L316.291 252.491V281.829L325.641 286.226L328.251 293.311L320.959 296L276.391 274.744ZM321.235 223.011L328.113 226.27L325.917 233.497L264.002 263.119L256.571 260.146L259.596 252.776L321.235 223.011ZM231.905 263.404L237.954 268.512C237.402 286.51 222.403 296 204.669 296H202.874C194.062 296 183.759 292.6 177.157 286.083L177.834 278.855L184.298 278.002C189.118 282.256 195.858 285.229 202.183 285.229H204.117C216.091 285.229 225.303 280.136 226.27 268.085L231.905 263.404ZM226.256 251.638C225.704 239.16 216.629 234.209 204.103 234.209H202.169C194.739 234.209 189.104 237.182 184.284 241.436L177.834 240.583L177.143 233.355C183.745 226.696 192.957 223.58 202.597 223.58H204.517C222.403 223.58 237.402 232.942 237.94 251.211L231.891 256.176L226.256 251.638Z" fill="#ffffff"/></g><path d="M1171 781L1171 339L1187 339L1187 781L1171 781Z" fill="#ffffff"/><g fill="#ffffff" id="info-group"><path d="M167.1000 555L159.1800 555Q158.2800 555 157.6500 554.3700Q157.0200 553.7400 157.0200 552.8400L157.0200 552.8400L157.0200 494.2500Q157.0200 493.2600 157.6500 492.6300Q158.2800 492 159.1800 492L159.1800 492L198.2400 492Q199.2300 492 199.8600 492.6300Q200.4900 493.2600 200.4900 494.2500L200.4900 494.2500L200.4900 500.5500Q200.4900 501.5400 199.8600 502.1250Q199.2300 502.7100 198.2400 502.7100L198.2400 502.7100L169.3500 502.7100L169.3500 519.8100L196.4400 519.8100Q197.4300 519.8100 198.0600 520.4400Q198.6900 521.0700 198.6900 522.0600L198.6900 522.0600L198.6900 528.3600Q198.6900 529.2600 198.0600 529.8900Q197.4300 530.5200 196.4400 530.5200L196.4400 530.5200L169.3500 530.5200L169.3500 552.8400Q169.3500 553.7400 168.7200 554.3700Q168.0900 555 167.1000 555L167.1000 555ZM227.4000 555.9000L227.4000 555.9000Q221.9100 555.9000 217.9050 553.4250Q213.9000 550.9500 211.7400 546.4050Q209.5800 541.8600 209.5800 535.6500L209.5800 535.6500L209.5800 510.3600Q209.5800 509.4600 210.2100 508.8300Q210.8400 508.2000 211.7400 508.2000L211.7400 508.2000L219.6600 508.2000Q220.6500 508.2000 221.2350 508.8300Q221.8200 509.4600 221.8200 510.3600L221.8200 510.3600L221.8200 535.1100Q221.8200 546.2700 231.6300 546.2700L231.6300 546.2700Q236.3100 546.2700 239.0550 543.3000Q241.8000 540.3300 241.8000 535.1100L241.8000 535.1100L241.8000 510.3600Q241.8000 509.4600 242.4300 508.8300Q243.0600 508.2000 243.9600 508.2000L243.9600 508.2000L251.8800 508.2000Q252.7800 508.2000 253.4100 508.8300Q254.0400 509.4600 254.0400 510.3600L254.0400 510.3600L254.0400 552.8400Q254.0400 553.7400 253.4100 554.3700Q252.7800 555 251.8800 555L251.8800 555L244.5900 555Q243.6000 555 243.0150 554.3700Q242.4300 553.7400 242.4300 552.8400L242.4300 552.8400L242.4300 549.1500Q240 552.3000 236.4000 554.1000Q232.8000 555.9000 227.4000 555.9000ZM276 555L268.0800 555Q267.1800 555 266.5500 554.3700Q265.9200 553.7400 265.9200 552.8400L265.9200 552.8400L265.9200 510.3600Q265.9200 509.4600 266.5500 508.8300Q267.1800 508.2000 268.0800 508.2000L268.0800 508.2000L275.4600 508.2000Q276.3600 508.2000 276.9900 508.8300Q277.6200 509.4600 277.6200 510.3600L277.6200 510.3600L277.6200 514.0500Q279.9600 511.1700 283.6050 509.2350Q287.2500 507.3000 292.6500 507.3000L292.6500 507.3000Q298.1400 507.3000 302.1900 509.7750Q306.2400 512.2500 308.4450 516.7500Q310.6500 521.2500 310.6500 527.5500L310.6500 527.5500L310.6500 552.8400Q310.6500 553.7400 310.0200 554.3700Q309.3900 555 308.4900 555L308.4900 555L300.5700 555Q299.6700 555 299.0400 554.3700Q298.4100 553.7400 298.4100 552.8400L298.4100 552.8400L298.4100 528.0900Q298.4100 522.8700 295.8450 519.9000Q293.2800 516.9300 288.4200 516.9300L288.4200 516.9300Q283.7400 516.9300 280.9500 519.9000Q278.1600 522.8700 278.1600 528.0900L278.1600 528.0900L278.1600 552.8400Q278.1600 553.7400 277.5300 554.3700Q276.9000 555 276 555L276 555ZM339.4500 555.9000L339.4500 555.9000Q334.7700 555.9000 331.2150 554.3250Q327.6600 552.7500 325.3200 549.8700Q322.9800 546.9900 321.7200 543.0750Q320.4600 539.1600 320.2800 534.4800L320.2800 534.4800Q320.1900 532.8600 320.1900 531.5550Q320.1900 530.2500 320.2800 528.6300L320.2800 528.6300Q320.4600 524.1300 321.6750 520.2600Q322.8900 516.3900 325.2750 513.4650Q327.6600 510.5400 331.2150 508.9200Q334.7700 507.3000 339.4500 507.3000L339.4500 507.3000Q344.3100 507.3000 347.6850 508.9650Q351.0600 510.6300 353.3100 513.2400L353.3100 513.2400L353.3100 493.2600Q353.3100 492.3600 353.8950 491.7300Q354.4800 491.1000 355.4700 491.1000L355.4700 491.1000L363.1200 491.1000Q364.0200 491.1000 364.6500 491.7300Q365.2800 492.3600 365.2800 493.2600L365.2800 493.2600L365.2800 552.8400Q365.2800 553.7400 364.6500 554.3700Q364.0200 555 363.1200 555L363.1200 555L356.0100 555Q355.0200 555 354.4350 554.3700Q353.8500 553.7400 353.8500 552.8400L353.8500 552.8400L353.8500 549.5100Q351.6000 552.3000 348.1350 554.1000Q344.6700 555.9000 339.4500 555.9000ZM342.7800 546.2700L342.7800 546.2700Q346.5600 546.2700 348.8100 544.5600Q351.0600 542.8500 352.1400 540.1950Q353.2200 537.5400 353.3100 534.7500L353.3100 534.7500Q353.4000 533.1300 353.4000 531.2850Q353.4000 529.4400 353.3100 527.8200L353.3100 527.8200Q353.2200 525.1200 352.0500 522.6450Q350.8800 520.1700 348.6300 518.5500Q346.3800 516.9300 342.7800 516.9300L342.7800 516.9300Q339 516.9300 336.7950 518.5950Q334.5900 520.2600 333.6000 522.9600Q332.6100 525.6600 332.4300 528.9000L332.4300 528.9000Q332.3400 531.6000 332.4300 534.3000L332.4300 534.3000Q332.6100 537.5400 333.6000 540.2400Q334.5900 542.9400 336.7950 544.6050Q339 546.2700 342.7800 546.2700ZM390.8400 555.9000L390.8400 555.9000Q386.1600 555.9000 382.3800 554.0550Q378.6000 552.2100 376.3950 549.1050Q374.1900 546 374.1900 542.1300L374.1900 542.1300Q374.1900 535.8300 379.3200 532.0950Q384.4500 528.3600 392.7300 527.1000L392.7300 527.1000L405.0600 525.3000L405.0600 523.4100Q405.0600 519.6300 403.1700 517.5600Q401.2800 515.4900 396.6900 515.4900L396.6900 515.4900Q393.4500 515.4900 391.4250 516.7950Q389.4000 518.1000 388.4100 520.2600L388.4100 520.2600Q387.6900 521.4300 386.3400 521.4300L386.3400 521.4300L379.2300 521.4300Q378.2400 521.4300 377.7450 520.8900Q377.2500 520.3500 377.2500 519.4500L377.2500 519.4500Q377.3400 518.0100 378.4650 515.9400Q379.5900 513.8700 381.8850 511.9350Q384.1800 510 387.8700 508.6500Q391.5600 507.3000 396.7800 507.3000L396.7800 507.3000Q402.4500 507.3000 406.3650 508.6950Q410.2800 510.0900 412.6200 512.4300Q414.9600 514.7700 416.0400 517.9200Q417.1200 521.0700 417.1200 524.5800L417.1200 524.5800L417.1200 552.8400Q417.1200 553.7400 416.4900 554.3700Q415.8600 555 414.9600 555L414.9600 555L407.6700 555Q406.6800 555 406.0950 554.3700Q405.5100 553.7400 405.5100 552.8400L405.5100 552.8400L405.5100 549.3300Q404.3400 550.9500 402.3600 552.4800Q400.3800 554.0100 397.5450 554.9550Q394.7100 555.9000 390.8400 555.9000ZM393.9000 547.3500L393.9000 547.3500Q397.0500 547.3500 399.6150 546Q402.1800 544.6500 403.6650 541.8150Q405.1500 538.9800 405.1500 534.6600L405.1500 534.6600L405.1500 532.7700L396.1500 534.2100Q390.8400 535.0200 388.2300 536.8200Q385.6200 538.6200 385.6200 541.2300L385.6200 541.2300Q385.6200 543.2100 386.8350 544.6050Q388.0500 546 389.9400 546.6750Q391.8300 547.3500 393.9000 547.3500ZM438.3600 555L430.8000 555Q429.9000 555 429.2700 554.3700Q428.6400 553.7400 428.6400 552.8400L428.6400 552.8400L428.6400 510.3600Q428.6400 509.4600 429.2700 508.8300Q429.9000 508.2000 430.8000 508.2000L430.8000 508.2000L437.8200 508.2000Q438.7200 508.2000 439.3500 508.8300Q439.9800 509.4600 439.9800 510.3600L439.9800 510.3600L439.9800 513.4200Q441.8700 510.9000 445.0650 509.1450Q448.2600 507.3900 452.6700 507.3000L452.6700 507.3000Q462.9300 507.1200 466.9800 515.3100L466.9800 515.3100Q469.0500 511.7100 472.9650 509.5050Q476.8800 507.3000 481.6500 507.3000L481.6500 507.3000Q486.3300 507.3000 490.1550 509.4600Q493.9800 511.6200 496.1850 515.9850Q498.3900 520.3500 498.3900 527.0100L498.3900 527.0100L498.3900 552.8400Q498.3900 553.7400 497.7600 554.3700Q497.1300 555 496.2300 555L496.2300 555L488.8500 555Q487.9500 555 487.3200 554.3700Q486.6900 553.7400 486.6900 552.8400L486.6900 552.8400L486.6900 527.7300Q486.6900 523.6800 485.5200 521.2950Q484.3500 518.9100 482.3700 517.9200Q480.3900 516.9300 477.9600 516.9300L477.9600 516.9300Q475.9800 516.9300 474 517.9200Q472.0200 518.9100 470.7600 521.2950Q469.5000 523.6800 469.5000 527.7300L469.5000 527.7300L469.5000 552.8400Q469.5000 553.7400 468.8700 554.3700Q468.2400 555 467.3400 555L467.3400 555L459.9600 555Q459.0600 555 458.4300 554.3700Q457.8000 553.7400 457.8000 552.8400L457.8000 552.8400L457.8000 527.7300Q457.8000 523.6800 456.5400 521.2950Q455.2800 518.9100 453.3000 517.9200Q451.3200 516.9300 449.0700 516.9300L449.0700 516.9300Q447 516.9300 445.0200 517.9650Q443.0400 519 441.7800 521.3400Q440.5200 523.6800 440.5200 527.7300L440.5200 527.7300L440.5200 552.8400Q440.5200 553.7400 439.8900 554.3700Q439.2600 555 438.3600 555L438.3600 555ZM529.9800 555.9000L529.9800 555.9000Q519.9900 555.9000 514.1400 550.1400Q508.2900 544.3800 507.8400 533.7600L507.8400 533.7600Q507.7500 532.8600 507.7500 531.4650Q507.7500 530.0700 507.8400 529.2600L507.8400 529.2600Q508.2000 522.4200 510.9450 517.5150Q513.6900 512.6100 518.5500 509.9550Q523.4100 507.3000 529.9800 507.3000L529.9800 507.3000Q537.2700 507.3000 542.2200 510.3150Q547.1700 513.3300 549.6900 518.6850Q552.2100 524.0400 552.2100 531.0600L552.2100 531.0600L552.2100 532.9500Q552.2100 533.8500 551.5800 534.4800Q550.9500 535.1100 549.9600 535.1100L549.9600 535.1100L520.0800 535.1100Q520.0800 535.1100 520.0800 535.3800Q520.0800 535.6500 520.0800 535.8300L520.0800 535.8300Q520.1700 538.9800 521.2950 541.6350Q522.4200 544.2900 524.6250 545.9100Q526.8300 547.5300 529.8900 547.5300L529.8900 547.5300Q532.4100 547.5300 534.1200 546.7650Q535.8300 546 536.9100 545.0100Q537.9900 544.0200 538.4400 543.3900L538.4400 543.3900Q539.2500 542.3100 539.7450 542.0850Q540.2400 541.8600 541.2300 541.8600L541.2300 541.8600L548.9700 541.8600Q549.8700 541.8600 550.4550 542.4000Q551.0400 542.9400 550.9500 543.7500L550.9500 543.7500Q550.8600 545.1900 549.4650 547.2600Q548.0700 549.3300 545.4600 551.3100Q542.8500 553.2900 538.9350 554.5950Q535.0200 555.9000 529.9800 555.9000ZM520.0800 527.2800L520.0800 527.5500L539.9700 527.5500L539.9700 527.2800Q539.9700 523.7700 538.8000 521.1150Q537.6300 518.4600 535.3800 516.9750Q533.1300 515.4900 529.9800 515.4900L529.9800 515.4900Q526.8300 515.4900 524.5800 516.9750Q522.3300 518.4600 521.2050 521.1150Q520.0800 523.7700 520.0800 527.2800L520.0800 527.2800ZM571.8300 555L563.9100 555Q563.0100 555 562.3800 554.3700Q561.7500 553.7400 561.7500 552.8400L561.7500 552.8400L561.7500 510.3600Q561.7500 509.4600 562.3800 508.8300Q563.0100 508.2000 563.9100 508.2000L563.9100 508.2000L571.2900 508.2000Q572.1900 508.2000 572.8200 508.8300Q573.4500 509.4600 573.4500 510.3600L573.4500 510.3600L573.4500 514.0500Q575.7900 511.1700 579.4350 509.2350Q583.0800 507.3000 588.4800 507.3000L588.4800 507.3000Q593.9700 507.3000 598.0200 509.7750Q602.0700 512.2500 604.2750 516.7500Q606.4800 521.2500 606.4800 527.5500L606.4800 527.5500L606.4800 552.8400Q606.4800 553.7400 605.8500 554.3700Q605.2200 555 604.3200 555L604.3200 555L596.4000 555Q595.5000 555 594.8700 554.3700Q594.2400 553.7400 594.2400 552.8400L594.2400 552.8400L594.2400 528.0900Q594.2400 522.8700 591.6750 519.9000Q589.1100 516.9300 584.2500 516.9300L584.2500 516.9300Q579.5700 516.9300 576.7800 519.9000Q573.9900 522.8700 573.9900 528.0900L573.9900 528.0900L573.9900 552.8400Q573.9900 553.7400 573.3600 554.3700Q572.7300 555 571.8300 555L571.8300 555ZM646.3500 555L639.0600 555Q633.6600 555 629.9700 553.1100Q626.2800 551.2200 624.4800 547.4850Q622.6800 543.7500 622.6800 538.1700L622.6800 538.1700L622.6800 517.7400L615.5700 517.7400Q614.6700 517.7400 614.0400 517.1100Q613.4100 516.4800 613.4100 515.4900L613.4100 515.4900L613.4100 510.3600Q613.4100 509.4600 614.0400 508.8300Q614.6700 508.2000 615.5700 508.2000L615.5700 508.2000L622.6800 508.2000L622.6800 493.2600Q622.6800 492.3600 623.2650 491.7300Q623.8500 491.1000 624.8400 491.1000L624.8400 491.1000L632.1300 491.1000Q633.0300 491.1000 633.6600 491.7300Q634.2900 492.3600 634.2900 493.2600L634.2900 493.2600L634.2900 508.2000L645.5400 508.2000Q646.4400 508.2000 647.0700 508.8300Q647.7000 509.4600 647.7000 510.3600L647.7000 510.3600L647.7000 515.4900Q647.7000 516.4800 647.0700 517.1100Q646.4400 517.7400 645.5400 517.7400L645.5400 517.7400L634.2900 517.7400L634.2900 537.2700Q634.2900 540.9600 635.5950 543.0300Q636.9000 545.1000 640.1400 545.1000L640.1400 545.1000L646.3500 545.1000Q647.2500 545.1000 647.8800 545.7300Q648.5100 546.3600 648.5100 547.2600L648.5100 547.2600L648.5100 552.8400Q648.5100 553.7400 647.8800 554.3700Q647.2500 555 646.3500 555L646.3500 555ZM677.2200 555.9000L677.2200 555.9000Q670.0200 555.9000 665.1150 553.3800Q660.2100 550.8600 657.6450 546.2700Q655.0800 541.6800 654.7200 535.5600L654.7200 535.5600Q654.6300 533.9400 654.6300 531.6000Q654.6300 529.2600 654.7200 527.6400L654.7200 527.6400Q655.0800 521.4300 657.7350 516.8850Q660.3900 512.3400 665.2950 509.8200Q670.2000 507.3000 677.2200 507.3000L677.2200 507.3000Q684.2400 507.3000 689.1450 509.8200Q694.0500 512.3400 696.7050 516.8850Q699.3600 521.4300 699.7200 527.6400L699.7200 527.6400Q699.8100 529.2600 699.8100 531.6000Q699.8100 533.9400 699.7200 535.5600L699.7200 535.5600Q699.3600 541.6800 696.7950 546.2700Q694.2300 550.8600 689.3250 553.3800Q684.4200 555.9000 677.2200 555.9000ZM677.2200 546.9900L677.2200 546.9900Q681.9900 546.9900 684.6000 543.9750Q687.2100 540.9600 687.4800 535.1100L687.4800 535.1100Q687.5700 533.7600 687.5700 531.6000Q687.5700 529.4400 687.4800 528.0900L687.4800 528.0900Q687.2100 522.2400 684.6000 519.2250Q681.9900 516.2100 677.2200 516.2100L677.2200 516.2100Q672.4500 516.2100 669.8400 519.2250Q667.2300 522.2400 666.9600 528.0900L666.9600 528.0900Q666.8700 529.4400 666.8700 531.6000Q666.8700 533.7600 666.9600 535.1100L666.9600 535.1100Q667.2300 540.9600 669.8400 543.9750Q672.4500 546.9900 677.2200 546.9900ZM727.5300 555.9000L727.5300 555.9000Q722.1300 555.9000 718.3050 554.6400Q714.4800 553.3800 712.0500 551.4900Q709.6200 549.6000 708.4500 547.7100Q707.2800 545.8200 707.1900 544.5600L707.1900 544.5600Q707.1000 543.5700 707.7750 542.9850Q708.4500 542.4000 709.2600 542.4000L709.2600 542.4000L716.3700 542.4000Q716.7300 542.4000 717.0000 542.4900Q717.2700 542.5800 717.7200 543.0300L717.7200 543.0300Q718.8900 544.0200 720.1950 545.1000Q721.5000 546.1800 723.3000 546.9450Q725.1000 547.7100 727.8000 547.7100L727.8000 547.7100Q731.3100 547.7100 733.6950 546.3150Q736.0800 544.9200 736.0800 542.3100L736.0800 542.3100Q736.0800 540.4200 735.0450 539.2500Q734.0100 538.0800 731.2200 537.1350Q728.4300 536.1900 723.3000 535.1100L723.3000 535.1100Q718.2600 533.9400 714.9300 532.1400Q711.6000 530.3400 709.9800 527.6400Q708.3600 524.9400 708.3600 521.3400L708.3600 521.3400Q708.3600 517.8300 710.4750 514.6350Q712.5900 511.4400 716.7750 509.3700Q720.9600 507.3000 727.1700 507.3000L727.1700 507.3000Q732.0300 507.3000 735.6300 508.5150Q739.2300 509.7300 741.6150 511.5300Q744.0000 513.3300 745.2600 515.1750Q746.5200 517.0200 746.6100 518.3700L746.6100 518.3700Q746.7000 519.3600 746.0700 519.9450Q745.4400 520.5300 744.6300 520.5300L744.6300 520.5300L737.9700 520.5300Q737.5200 520.5300 737.1600 520.3500Q736.8000 520.1700 736.4400 519.9000L736.4400 519.9000Q735.4500 519 734.2800 517.9650Q733.1100 516.9300 731.4450 516.2100Q729.7800 515.4900 727.0800 515.4900L727.0800 515.4900Q723.6600 515.4900 721.8600 516.9750Q720.0600 518.4600 720.0600 520.7100L720.0600 520.7100Q720.0600 522.2400 720.9150 523.3650Q721.7700 524.4900 724.3800 525.4800Q726.9900 526.4700 732.3000 527.5500L732.3000 527.5500Q738.3300 528.6300 741.8850 530.7450Q745.4400 532.8600 746.9250 535.6050Q748.4100 538.3500 748.4100 541.6800L748.4100 541.6800Q748.4100 545.7300 746.0250 548.9700Q743.6400 552.2100 739.0050 554.0550Q734.3700 555.9000 727.5300 555.9000ZM795.6600 555.9000L795.6600 555.9000Q790.9800 555.9000 787.4250 554.3250Q783.8700 552.7500 781.5300 549.8700Q779.1900 546.9900 777.9300 543.0750Q776.6700 539.1600 776.4900 534.4800L776.4900 534.4800Q776.4000 532.8600 776.4000 531.5550Q776.4000 530.2500 776.4900 528.6300L776.4900 528.6300Q776.6700 524.1300 777.8850 520.2600Q779.1000 516.3900 781.4850 513.4650Q783.8700 510.5400 787.4250 508.9200Q790.9800 507.3000 795.6600 507.3000L795.6600 507.3000Q800.5200 507.3000 803.8950 508.9650Q807.2700 510.6300 809.5200 513.2400L809.5200 513.2400L809.5200 493.2600Q809.5200 492.3600 810.1050 491.7300Q810.6900 491.1000 811.6800 491.1000L811.6800 491.1000L819.3300 491.1000Q820.2300 491.1000 820.8600 491.7300Q821.4900 492.3600 821.4900 493.2600L821.4900 493.2600L821.4900 552.8400Q821.4900 553.7400 820.8600 554.3700Q820.2300 555 819.3300 555L819.3300 555L812.2200 555Q811.2300 555 810.6450 554.3700Q810.0600 553.7400 810.0600 552.8400L810.0600 552.8400L810.0600 549.5100Q807.8100 552.3000 804.3450 554.1000Q800.8800 555.9000 795.6600 555.9000ZM798.9900 546.2700L798.9900 546.2700Q802.7700 546.2700 805.0200 544.5600Q807.2700 542.8500 808.3500 540.1950Q809.4300 537.5400 809.5200 534.7500L809.5200 534.7500Q809.6100 533.1300 809.6100 531.2850Q809.6100 529.4400 809.5200 527.8200L809.5200 527.8200Q809.4300 525.1200 808.2600 522.6450Q807.0900 520.1700 804.8400 518.5500Q802.5900 516.9300 798.9900 516.9300L798.9900 516.9300Q795.2100 516.9300 793.0050 518.5950Q790.8000 520.2600 789.8100 522.9600Q788.8200 525.6600 788.6400 528.9000L788.6400 528.9000Q788.5500 531.6000 788.6400 534.3000L788.6400 534.3000Q788.8200 537.5400 789.8100 540.2400Q790.8000 542.9400 793.0050 544.6050Q795.2100 546.2700 798.9900 546.2700ZM854.1600 555.9000L854.1600 555.9000Q846.9600 555.9000 842.0550 553.3800Q837.1500 550.8600 834.5850 546.2700Q832.0200 541.6800 831.6600 535.5600L831.6600 535.5600Q831.5700 533.9400 831.5700 531.6000Q831.5700 529.2600 831.6600 527.6400L831.6600 527.6400Q832.0200 521.4300 834.6750 516.8850Q837.3300 512.3400 842.2350 509.8200Q847.1400 507.3000 854.1600 507.3000L854.1600 507.3000Q861.1800 507.3000 866.0850 509.8200Q870.9900 512.3400 873.6450 516.8850Q876.3000 521.4300 876.6600 527.6400L876.6600 527.6400Q876.7500 529.2600 876.7500 531.6000Q876.7500 533.9400 876.6600 535.5600L876.6600 535.5600Q876.3000 541.6800 873.7350 546.2700Q871.1700 550.8600 866.2650 553.3800Q861.3600 555.9000 854.1600 555.9000ZM854.1600 546.9900L854.1600 546.9900Q858.9300 546.9900 861.5400 543.9750Q864.1500 540.9600 864.4200 535.1100L864.4200 535.1100Q864.5100 533.7600 864.5100 531.6000Q864.5100 529.4400 864.4200 528.0900L864.4200 528.0900Q864.1500 522.2400 861.5400 519.2250Q858.9300 516.2100 854.1600 516.2100L854.1600 516.2100Q849.3900 516.2100 846.7800 519.2250Q844.1700 522.2400 843.9000 528.0900L843.9000 528.0900Q843.8100 529.4400 843.8100 531.6000Q843.8100 533.7600 843.9000 535.1100L843.9000 535.1100Q844.1700 540.9600 846.7800 543.9750Q849.3900 546.9900 854.1600 546.9900ZM932.7300 555.9000L932.7300 555.9000Q924.3600 555.9000 918.5550 552.9750Q912.7500 550.0500 909.6900 544.6050Q906.6300 539.1600 906.2700 531.5100L906.2700 531.5100Q906.1800 527.8200 906.1800 523.5900Q906.1800 519.3600 906.2700 515.4900L906.2700 515.4900Q906.6300 507.9300 909.7350 502.4400Q912.8400 496.9500 918.6450 494.0250Q924.4500 491.1000 932.7300 491.1000L932.7300 491.1000Q938.8500 491.1000 943.7100 492.7200Q948.5700 494.3400 951.9900 497.1750Q955.4100 500.0100 957.3000 503.7900Q959.1900 507.5700 959.2800 511.9800L959.2800 511.9800Q959.3700 512.7900 958.7850 513.3300Q958.2000 513.8700 957.3900 513.8700L957.3900 513.8700L948.8400 513.8700Q947.8500 513.8700 947.2200 513.3750Q946.5900 512.8800 946.3200 511.7100L946.3200 511.7100Q944.8800 505.7700 941.3700 503.6100Q937.8600 501.4500 932.6400 501.4500L932.6400 501.4500Q926.6100 501.4500 923.0100 504.8250Q919.4100 508.2000 919.1400 515.9400L919.1400 515.9400Q918.8700 523.3200 919.1400 531.0600L919.1400 531.0600Q919.4100 538.8000 923.0100 542.1750Q926.6100 545.5500 932.6400 545.5500L932.6400 545.5500Q937.8600 545.5500 941.4150 543.3450Q944.9700 541.1400 946.3200 535.2900L946.3200 535.2900Q946.5900 534.0300 947.2200 533.5800Q947.8500 533.1300 948.8400 533.1300L948.8400 533.1300L957.3900 533.1300Q958.2000 533.1300 958.7850 533.6700Q959.3700 534.2100 959.2800 535.0200L959.2800 535.0200Q959.1900 539.4300 957.3000 543.2100Q955.4100 546.9900 951.9900 549.8250Q948.5700 552.6600 943.7100 554.2800Q938.8500 555.9000 932.7300 555.9000ZM991.8600 555.9000L991.8600 555.9000Q983.4900 555.9000 977.8650 553.4250Q972.2400 550.9500 969.3150 546.9450Q966.3900 542.9400 966.2100 538.5300L966.2100 538.5300Q966.2100 537.7200 966.7500 537.1800Q967.2900 536.6400 968.1000 536.6400L968.1000 536.6400L976.1100 536.6400Q977.2800 536.6400 977.8650 537.1350Q978.4500 537.6300 978.9000 538.3500L978.9000 538.3500Q979.4400 540.0600 980.9700 541.7250Q982.5000 543.3900 985.1550 544.4700Q987.8100 545.5500 991.8600 545.5500L991.8600 545.5500Q998.3400 545.5500 1001.5350 543.3900Q1004.7300 541.2300 1004.7300 537.5400L1004.7300 537.5400Q1004.7300 534.9300 1003.0200 533.3550Q1001.3100 531.7800 997.7550 530.4750Q994.2000 529.1700 988.3500 527.7300L988.3500 527.7300Q981.6000 526.1100 977.0550 523.8150Q972.5100 521.5200 970.2150 518.0100Q967.9200 514.5000 967.9200 509.1000L967.9200 509.1000Q967.9200 503.8800 970.7550 499.8300Q973.5900 495.7800 978.8550 493.4400Q984.1200 491.1000 991.4100 491.1000L991.4100 491.1000Q997.2600 491.1000 1001.7600 492.6750Q1006.2600 494.2500 1009.2300 496.8150Q1012.2000 499.3800 1013.7750 502.3050Q1015.3500 505.2300 1015.4400 508.0200L1015.4400 508.0200Q1015.4400 508.7400 1014.9450 509.3250Q1014.4500 509.9100 1013.5500 509.9100L1013.5500 509.9100L1005.1800 509.9100Q1004.4600 509.9100 1003.7400 509.5500Q1003.0200 509.1900 1002.5700 508.2000L1002.5700 508.2000Q1002.0300 505.4100 999.0600 503.4300Q996.0900 501.4500 991.4100 501.4500L991.4100 501.4500Q986.5500 501.4500 983.5800 503.2500Q980.6100 505.0500 980.6100 508.8300L980.6100 508.8300Q980.6100 511.3500 982.0950 513.0150Q983.5800 514.6800 986.8650 515.9400Q990.1500 517.2000 995.5500 518.6400L995.5500 518.6400Q1003.2000 520.3500 1008.0600 522.6000Q1012.9200 524.8500 1015.1700 528.3150Q1017.4200 531.7800 1017.4200 537.0900L1017.4200 537.0900Q1017.4200 543.0300 1014.2250 547.2150Q1011.0300 551.4000 1005.2700 553.6500Q999.5100 555.9000 991.8600 555.9000ZM1049.6400 555.9000L1049.6400 555.9000Q1041.2700 555.9000 1035.6450 553.4250Q1030.0200 550.9500 1027.0950 546.9450Q1024.1700 542.9400 1023.9900 538.5300L1023.9900 538.5300Q1023.9900 537.7200 1024.5300 537.1800Q1025.0700 536.6400 1025.8800 536.6400L1025.8800 536.6400L1033.8900 536.6400Q1035.0600 536.6400 1035.6450 537.1350Q1036.2300 537.6300 1036.6800 538.3500L1036.6800 538.3500Q1037.2200 540.0600 1038.7500 541.7250Q1040.2800 543.3900 1042.9350 544.4700Q1045.5900 545.5500 1049.6400 545.5500L1049.6400 545.5500Q1056.1200 545.5500 1059.3150 543.3900Q1062.5100 541.2300 1062.5100 537.5400L1062.5100 537.5400Q1062.5100 534.9300 1060.8000 533.3550Q1059.0900 531.7800 1055.5350 530.4750Q1051.9800 529.1700 1046.1300 527.7300L1046.1300 527.7300Q1039.3800 526.1100 1034.8350 523.8150Q1030.2900 521.5200 1027.9950 518.0100Q1025.7000 514.5000 1025.7000 509.1000L1025.7000 509.1000Q1025.7000 503.8800 1028.5350 499.8300Q1031.3700 495.7800 1036.6350 493.4400Q1041.9000 491.1000 1049.1900 491.1000L1049.1900 491.1000Q1055.0400 491.1000 1059.5400 492.6750Q1064.0400 494.2500 1067.0100 496.8150Q1069.9800 499.3800 1071.5550 502.3050Q1073.1300 505.2300 1073.2200 508.0200L1073.2200 508.0200Q1073.2200 508.7400 1072.7250 509.3250Q1072.2300 509.9100 1071.3300 509.9100L1071.3300 509.9100L1062.9600 509.9100Q1062.2400 509.9100 1061.5200 509.5500Q1060.8000 509.1900 1060.3500 508.2000L1060.3500 508.2000Q1059.8100 505.4100 1056.8400 503.4300Q1053.8700 501.4500 1049.1900 501.4500L1049.1900 501.4500Q1044.3300 501.4500 1041.3600 503.2500Q1038.3900 505.0500 1038.3900 508.8300L1038.3900 508.8300Q1038.3900 511.3500 1039.8750 513.0150Q1041.3600 514.6800 1044.6450 515.9400Q1047.9300 517.2000 1053.3300 518.6400L1053.3300 518.6400Q1060.9800 520.3500 1065.8400 522.6000Q1070.7000 524.8500 1072.9500 528.3150Q1075.2000 531.7800 1075.2000 537.0900L1075.2000 537.0900Q1075.2000 543.0300 1072.0050 547.2150Q1068.8100 551.4000 1063.0500 553.6500Q1057.2900 555.9000 1049.6400 555.9000ZM167.3700 645L159.1800 645Q158.2800 645 157.6500 644.3700Q157.0200 643.7400 157.0200 642.8400L157.0200 642.8400L157.0200 584.2500Q157.0200 583.2600 157.6500 582.6300Q158.2800 582 159.1800 582L159.1800 582L182.4900 582Q193.3800 582 199.6800 587.0400Q205.9800 592.0800 205.9800 601.7100L205.9800 601.7100Q205.9800 608.3700 202.6950 612.7800Q199.4100 617.1900 193.9200 619.1700L193.9200 619.1700L207.0600 642.1200Q207.3300 642.6600 207.3300 643.1100L207.3300 643.1100Q207.3300 643.9200 206.7450 644.4600Q206.1600 645 205.4400 645L205.4400 645L197.2500 645Q195.7200 645 194.9100 644.1900Q194.1000 643.3800 193.6500 642.5700L193.6500 642.5700L182.0400 621.2400L169.5300 621.2400L169.5300 642.8400Q169.5300 643.7400 168.9450 644.3700Q168.3600 645 167.3700 645L167.3700 645ZM169.5300 591.9900L169.5300 611.0700L182.2200 611.0700Q187.7100 611.0700 190.4100 608.5950Q193.1100 606.1200 193.1100 601.6200L193.1100 601.6200Q193.1100 597.1200 190.4550 594.5550Q187.8000 591.9900 182.2200 591.9900L182.2200 591.9900L169.5300 591.9900ZM236.6700 645.9000L236.6700 645.9000Q226.6800 645.9000 220.8300 640.1400Q214.9800 634.3800 214.5300 623.7600L214.5300 623.7600Q214.4400 622.8600 214.4400 621.4650Q214.4400 620.0700 214.5300 619.2600L214.5300 619.2600Q214.8900 612.4200 217.6350 607.5150Q220.3800 602.6100 225.2400 599.9550Q230.1000 597.3000 236.6700 597.3000L236.6700 597.3000Q243.9600 597.3000 248.9100 600.3150Q253.8600 603.3300 256.3800 608.6850Q258.9000 614.0400 258.9000 621.0600L258.9000 621.0600L258.9000 622.9500Q258.9000 623.8500 258.2700 624.4800Q257.6400 625.1100 256.6500 625.1100L256.6500 625.1100L226.7700 625.1100Q226.7700 625.1100 226.7700 625.3800Q226.7700 625.6500 226.7700 625.8300L226.7700 625.8300Q226.8600 628.9800 227.9850 631.6350Q229.1100 634.2900 231.3150 635.9100Q233.5200 637.5300 236.5800 637.5300L236.5800 637.5300Q239.1000 637.5300 240.8100 636.7650Q242.5200 636 243.6000 635.0100Q244.6800 634.0200 245.1300 633.3900L245.1300 633.3900Q245.9400 632.3100 246.4350 632.0850Q246.9300 631.8600 247.9200 631.8600L247.9200 631.8600L255.6600 631.8600Q256.5600 631.8600 257.1450 632.4000Q257.7300 632.9400 257.6400 633.7500L257.6400 633.7500Q257.5500 635.1900 256.1550 637.2600Q254.7600 639.3300 252.1500 641.3100Q249.5400 643.2900 245.6250 644.5950Q241.7100 645.9000 236.6700 645.9000ZM226.7700 617.2800L226.7700 617.5500L246.6600 617.5500L246.6600 617.2800Q246.6600 613.7700 245.4900 611.1150Q244.3200 608.4600 242.0700 606.9750Q239.8200 605.4900 236.6700 605.4900L236.6700 605.4900Q233.5200 605.4900 231.2700 606.9750Q229.0200 608.4600 227.8950 611.1150Q226.7700 613.7700 226.7700 617.2800L226.7700 617.2800ZM286.1700 645.9000L286.1700 645.9000Q280.7700 645.9000 276.9450 644.6400Q273.1200 643.3800 270.6900 641.4900Q268.2600 639.6000 267.0900 637.7100Q265.9200 635.8200 265.8300 634.5600L265.8300 634.5600Q265.7400 633.5700 266.4150 632.9850Q267.0900 632.4000 267.9000 632.4000L267.9000 632.4000L275.0100 632.4000Q275.3700 632.4000 275.6400 632.4900Q275.9100 632.5800 276.3600 633.0300L276.3600 633.0300Q277.5300 634.0200 278.8350 635.1000Q280.1400 636.1800 281.9400 636.9450Q283.7400 637.7100 286.4400 637.7100L286.4400 637.7100Q289.9500 637.7100 292.3350 636.3150Q294.7200 634.9200 294.7200 632.3100L294.7200 632.3100Q294.7200 630.4200 293.6850 629.2500Q292.6500 628.0800 289.8600 627.1350Q287.0700 626.1900 281.9400 625.1100L281.9400 625.1100Q276.9000 623.9400 273.5700 622.1400Q270.2400 620.3400 268.6200 617.6400Q267 614.9400 267 611.3400L267 611.3400Q267 607.8300 269.1150 604.6350Q271.2300 601.4400 275.4150 599.3700Q279.6000 597.3000 285.8100 597.3000L285.8100 597.3000Q290.6700 597.3000 294.2700 598.5150Q297.8700 599.7300 300.2550 601.5300Q302.6400 603.3300 303.9000 605.1750Q305.1600 607.0200 305.2500 608.3700L305.2500 608.3700Q305.3400 609.3600 304.7100 609.9450Q304.0800 610.5300 303.2700 610.5300L303.2700 610.5300L296.6100 610.5300Q296.1600 610.5300 295.8000 610.3500Q295.4400 610.1700 295.0800 609.9000L295.0800 609.9000Q294.0900 609 292.9200 607.9650Q291.7500 606.9300 290.0850 606.2100Q288.4200 605.4900 285.7200 605.4900L285.7200 605.4900Q282.3000 605.4900 280.5000 606.9750Q278.7000 608.4600 278.7000 610.7100L278.7000 610.7100Q278.7000 612.2400 279.5550 613.3650Q280.4100 614.4900 283.0200 615.4800Q285.6300 616.4700 290.9400 617.5500L290.9400 617.5500Q296.9700 618.6300 300.5250 620.7450Q304.0800 622.8600 305.5650 625.6050Q307.0500 628.3500 307.0500 631.6800L307.0500 631.6800Q307.0500 635.7300 304.6650 638.9700Q302.2800 642.2100 297.6450 644.0550Q293.0100 645.9000 286.1700 645.9000ZM326.2200 662.1000L318.5700 662.1000Q317.6700 662.1000 317.0400 661.4700Q316.4100 660.8400 316.4100 659.9400L316.4100 659.9400L316.4100 600.3600Q316.4100 599.4600 317.0400 598.8300Q317.6700 598.2000 318.5700 598.2000L318.5700 598.2000L325.6800 598.2000Q326.6700 598.2000 327.2550 598.8300Q327.8400 599.4600 327.8400 600.3600L327.8400 600.3600L327.8400 603.9600Q330 601.0800 333.5100 599.1900Q337.0200 597.3000 342.2400 597.3000L342.2400 597.3000Q347.0100 597.3000 350.5200 598.8300Q354.0300 600.3600 356.3700 603.1950Q358.7100 606.0300 359.9700 609.9000Q361.2300 613.7700 361.4100 618.4500L361.4100 618.4500Q361.5000 619.9800 361.5000 621.6000Q361.5000 623.2200 361.4100 624.8400L361.4100 624.8400Q361.3200 629.3400 360.0600 633.1650Q358.8000 636.9900 356.4150 639.8250Q354.0300 642.6600 350.5200 644.2800Q347.0100 645.9000 342.2400 645.9000L342.2400 645.9000Q337.3800 645.9000 333.9600 644.1450Q330.5400 642.3900 328.3800 639.5100L328.3800 639.5100L328.3800 659.9400Q328.3800 660.8400 327.7950 661.4700Q327.2100 662.1000 326.2200 662.1000L326.2200 662.1000ZM338.9100 636.2700L338.9100 636.2700Q342.7800 636.2700 344.9400 634.6050Q347.1000 632.9400 348.0900 630.2400Q349.0800 627.5400 349.2600 624.3000L349.2600 624.3000Q349.3500 621.6000 349.2600 618.9000L349.2600 618.9000Q349.0800 615.6600 348.0900 612.9600Q347.1000 610.2600 344.9400 608.5950Q342.7800 606.9300 338.9100 606.9300L338.9100 606.9300Q335.2200 606.9300 332.9250 608.6400Q330.6300 610.3500 329.5950 613.0050Q328.5600 615.6600 328.3800 618.4500L328.3800 618.4500Q328.2900 620.0700 328.2900 621.8700Q328.2900 623.6700 328.3800 625.3800L328.3800 625.3800Q328.4700 628.0800 329.6400 630.5550Q330.8100 633.0300 333.0600 634.6500Q335.3100 636.2700 338.9100 636.2700ZM392.2800 645.9000L392.2800 645.9000Q385.0800 645.9000 380.1750 643.3800Q375.2700 640.8600 372.7050 636.2700Q370.1400 631.6800 369.7800 625.5600L369.7800 625.5600Q369.6900 623.9400 369.6900 621.6000Q369.6900 619.2600 369.7800 617.6400L369.7800 617.6400Q370.1400 611.4300 372.7950 606.8850Q375.4500 602.3400 380.3550 599.8200Q385.2600 597.3000 392.2800 597.3000L392.2800 597.3000Q399.3000 597.3000 404.2050 599.8200Q409.1100 602.3400 411.7650 606.8850Q414.4200 611.4300 414.7800 617.6400L414.7800 617.6400Q414.8700 619.2600 414.8700 621.6000Q414.8700 623.9400 414.7800 625.5600L414.7800 625.5600Q414.4200 631.6800 411.8550 636.2700Q409.2900 640.8600 404.3850 643.3800Q399.4800 645.9000 392.2800 645.9000ZM392.2800 636.9900L392.2800 636.9900Q397.0500 636.9900 399.6600 633.9750Q402.2700 630.9600 402.5400 625.1100L402.5400 625.1100Q402.6300 623.7600 402.6300 621.6000Q402.6300 619.4400 402.5400 618.0900L402.5400 618.0900Q402.2700 612.2400 399.6600 609.2250Q397.0500 606.2100 392.2800 606.2100L392.2800 606.2100Q387.5100 606.2100 384.9000 609.2250Q382.2900 612.2400 382.0200 618.0900L382.0200 618.0900Q381.9300 619.4400 381.9300 621.6000Q381.9300 623.7600 382.0200 625.1100L382.0200 625.1100Q382.2900 630.9600 384.9000 633.9750Q387.5100 636.9900 392.2800 636.9900ZM434.9400 645L427.0200 645Q426.1200 645 425.4900 644.3700Q424.8600 643.7400 424.8600 642.8400L424.8600 642.8400L424.8600 600.3600Q424.8600 599.4600 425.4900 598.8300Q426.1200 598.2000 427.0200 598.2000L427.0200 598.2000L434.4000 598.2000Q435.3000 598.2000 435.9300 598.8300Q436.5600 599.4600 436.5600 600.3600L436.5600 600.3600L436.5600 604.0500Q438.9000 601.1700 442.5450 599.2350Q446.1900 597.3000 451.5900 597.3000L451.5900 597.3000Q457.0800 597.3000 461.1300 599.7750Q465.1800 602.2500 467.3850 606.7500Q469.5900 611.2500 469.5900 617.5500L469.5900 617.5500L469.5900 642.8400Q469.5900 643.7400 468.9600 644.3700Q468.3300 645 467.4300 645L467.4300 645L459.5100 645Q458.6100 645 457.9800 644.3700Q457.3500 643.7400 457.3500 642.8400L457.3500 642.8400L457.3500 618.0900Q457.3500 612.8700 454.7850 609.9000Q452.2200 606.9300 447.3600 606.9300L447.3600 606.9300Q442.6800 606.9300 439.8900 609.9000Q437.1000 612.8700 437.1000 618.0900L437.1000 618.0900L437.1000 642.8400Q437.1000 643.7400 436.4700 644.3700Q435.8400 645 434.9400 645L434.9400 645ZM498.7500 645.9000L498.7500 645.9000Q493.3500 645.9000 489.5250 644.6400Q485.7000 643.3800 483.2700 641.4900Q480.8400 639.6000 479.6700 637.7100Q478.5000 635.8200 478.4100 634.5600L478.4100 634.5600Q478.3200 633.5700 478.9950 632.9850Q479.6700 632.4000 480.4800 632.4000L480.4800 632.4000L487.5900 632.4000Q487.9500 632.4000 488.2200 632.4900Q488.4900 632.5800 488.9400 633.0300L488.9400 633.0300Q490.1100 634.0200 491.4150 635.1000Q492.7200 636.1800 494.5200 636.9450Q496.3200 637.7100 499.0200 637.7100L499.0200 637.7100Q502.5300 637.7100 504.9150 636.3150Q507.3000 634.9200 507.3000 632.3100L507.3000 632.3100Q507.3000 630.4200 506.2650 629.2500Q505.2300 628.0800 502.4400 627.1350Q499.6500 626.1900 494.5200 625.1100L494.5200 625.1100Q489.4800 623.9400 486.1500 622.1400Q482.8200 620.3400 481.2000 617.6400Q479.5800 614.9400 479.5800 611.3400L479.5800 611.3400Q479.5800 607.8300 481.6950 604.6350Q483.8100 601.4400 487.9950 599.3700Q492.1800 597.3000 498.3900 597.3000L498.3900 597.3000Q503.2500 597.3000 506.8500 598.5150Q510.4500 599.7300 512.8350 601.5300Q515.2200 603.3300 516.4800 605.1750Q517.7400 607.0200 517.8300 608.3700L517.8300 608.3700Q517.9200 609.3600 517.2900 609.9450Q516.6600 610.5300 515.8500 610.5300L515.8500 610.5300L509.1900 610.5300Q508.7400 610.5300 508.3800 610.3500Q508.0200 610.1700 507.6600 609.9000L507.6600 609.9000Q506.6700 609 505.5000 607.9650Q504.3300 606.9300 502.6650 606.2100Q501.0000 605.4900 498.3000 605.4900L498.3000 605.4900Q494.8800 605.4900 493.0800 606.9750Q491.2800 608.4600 491.2800 610.7100L491.2800 610.7100Q491.2800 612.2400 492.1350 613.3650Q492.9900 614.4900 495.6000 615.4800Q498.2100 616.4700 503.5200 617.5500L503.5200 617.5500Q509.5500 618.6300 513.1050 620.7450Q516.6600 622.8600 518.1450 625.6050Q519.6300 628.3500 519.6300 631.6800L519.6300 631.6800Q519.6300 635.7300 517.2450 638.9700Q514.8600 642.2100 510.2250 644.0550Q505.5900 645.9000 498.7500 645.9000ZM538.5300 645L531.0600 645Q530.1600 645 529.5300 644.3700Q528.9000 643.7400 528.9000 642.8400L528.9000 642.8400L528.9000 600.3600Q528.9000 599.4600 529.5300 598.8300Q530.1600 598.2000 531.0600 598.2000L531.0600 598.2000L538.5300 598.2000Q539.5200 598.2000 540.1050 598.8300Q540.6900 599.4600 540.6900 600.3600L540.6900 600.3600L540.6900 642.8400Q540.6900 643.7400 540.1050 644.3700Q539.5200 645 538.5300 645L538.5300 645ZM538.8900 590.4600L530.7000 590.4600Q529.8000 590.4600 529.1700 589.8300Q528.5400 589.2000 528.5400 588.3000L528.5400 588.3000L528.5400 581.8200Q528.5400 580.9200 529.1700 580.2900Q529.8000 579.6600 530.7000 579.6600L530.7000 579.6600L538.8900 579.6600Q539.8800 579.6600 540.5100 580.2900Q541.1400 580.9200 541.1400 581.8200L541.1400 581.8200L541.1400 588.3000Q541.1400 589.2000 540.5100 589.8300Q539.8800 590.4600 538.8900 590.4600L538.8900 590.4600ZM575.8800 645L569.2200 645Q567.7800 645 567.1050 644.3250Q566.4300 643.6500 565.9800 642.7500L565.9800 642.7500L549.1500 600.9900Q548.9700 600.5400 548.9700 600.1800L548.9700 600.1800Q548.9700 599.3700 549.5550 598.7850Q550.1400 598.2000 550.9500 598.2000L550.9500 598.2000L558.2400 598.2000Q559.3200 598.2000 559.8600 598.7850Q560.4000 599.3700 560.5800 599.9100L560.5800 599.9100L572.5500 631.5000L584.5200 599.9100Q584.7000 599.3700 585.2400 598.7850Q585.7800 598.2000 586.8600 598.2000L586.8600 598.2000L594.2400 598.2000Q594.9600 598.2000 595.5450 598.7850Q596.1300 599.3700 596.1300 600.1800L596.1300 600.1800Q596.1300 600.5400 596.0400 600.9900L596.0400 600.9900L579.1200 642.7500Q578.7600 643.6500 578.0400 644.3250Q577.3200 645 575.8800 645L575.8800 645ZM625.0200 645.9000L625.0200 645.9000Q617.8200 645.9000 612.9150 643.3800Q608.0100 640.8600 605.4450 636.2700Q602.8800 631.6800 602.5200 625.5600L602.5200 625.5600Q602.4300 623.9400 602.4300 621.6000Q602.4300 619.2600 602.5200 617.6400L602.5200 617.6400Q602.8800 611.4300 605.5350 606.8850Q608.1900 602.3400 613.0950 599.8200Q618.0000 597.3000 625.0200 597.3000L625.0200 597.3000Q632.0400 597.3000 636.9450 599.8200Q641.8500 602.3400 644.5050 606.8850Q647.1600 611.4300 647.5200 617.6400L647.5200 617.6400Q647.6100 619.2600 647.6100 621.6000Q647.6100 623.9400 647.5200 625.5600L647.5200 625.5600Q647.1600 631.6800 644.5950 636.2700Q642.0300 640.8600 637.1250 643.3800Q632.2200 645.9000 625.0200 645.9000ZM625.0200 636.9900L625.0200 636.9900Q629.7900 636.9900 632.4000 633.9750Q635.0100 630.9600 635.2800 625.1100L635.2800 625.1100Q635.3700 623.7600 635.3700 621.6000Q635.3700 619.4400 635.2800 618.0900L635.2800 618.0900Q635.0100 612.2400 632.4000 609.2250Q629.7900 606.2100 625.0200 606.2100L625.0200 606.2100Q620.2500 606.2100 617.6400 609.2250Q615.0300 612.2400 614.7600 618.0900L614.7600 618.0900Q614.6700 619.4400 614.6700 621.6000Q614.6700 623.7600 614.7600 625.1100L614.7600 625.1100Q615.0300 630.9600 617.6400 633.9750Q620.2500 636.9900 625.0200 636.9900Z" id="title"/><path d="M1408.9600 640L1388.9400 640Q1386.5200 640 1385.0900 638.4600Q1383.6600 636.9200 1383.6600 634.7200L1383.6600 634.7200L1383.6600 520.7600L1350.2200 546.5000Q1348.2400 547.8200 1346.2600 547.4900Q1344.2800 547.1600 1342.7400 545.1800L1342.7400 545.1800L1333.5000 533.3000Q1332.1800 531.3200 1332.5100 529.1200Q1332.8400 526.9200 1334.8200 525.6000L1334.8200 525.6000L1384.1000 487.5400Q1385.4200 486.4400 1386.7400 486.2200Q1388.0600 486 1389.6000 486L1389.6000 486L1408.9600 486Q1411.1600 486 1412.7000 487.5400Q1414.2400 489.0800 1414.2400 491.2800L1414.2400 491.2800L1414.2400 634.7200Q1414.2400 636.9200 1412.7000 638.4600Q1411.1600 640 1408.9600 640L1408.9600 640ZM1510.8200 640L1490.8000 640Q1488.3800 640 1486.9500 638.4600Q1485.5200 636.9200 1485.5200 634.7200L1485.5200 634.7200L1485.5200 520.7600L1452.0800 546.5000Q1450.1000 547.8200 1448.1200 547.4900Q1446.1400 547.1600 1444.6000 545.1800L1444.6000 545.1800L1435.3600 533.3000Q1434.0400 531.3200 1434.3700 529.1200Q1434.7000 526.9200 1436.6800 525.6000L1436.6800 525.6000L1485.9600 487.5400Q1487.2800 486.4400 1488.6000 486.2200Q1489.9200 486 1491.4600 486L1491.4600 486L1510.8200 486Q1513.0200 486 1514.5600 487.5400Q1516.1000 489.0800 1516.1000 491.2800L1516.1000 491.2800L1516.1000 634.7200Q1516.1000 636.9200 1514.5600 638.4600Q1513.0200 640 1510.8200 640L1510.8200 640ZM1572.2000 640L1550.2000 640Q1548.0000 640 1546.4600 638.4600Q1544.9200 636.9200 1544.9200 634.7200L1544.9200 634.7200L1544.9200 612.9400Q1544.9200 610.5200 1546.4600 608.9800Q1548.0000 607.4400 1550.2000 607.4400L1550.2000 607.4400L1572.2000 607.4400Q1574.4000 607.4400 1575.9400 608.9800Q1577.4800 610.5200 1577.4800 612.9400L1577.4800 612.9400L1577.4800 634.7200Q1577.4800 636.9200 1575.9400 638.4600Q1574.4000 640 1572.2000 640L1572.2000 640ZM1636 640L1615.9800 640Q1614 640 1612.6800 638.5700Q1611.3600 637.1400 1611.3600 635.1600L1611.3600 635.1600Q1611.3600 634.2800 1611.8000 633.1800L1611.8000 633.1800L1664.8200 512.1800L1595.7400 512.1800Q1593.3200 512.1800 1591.8900 510.6400Q1590.4600 509.1000 1590.4600 506.9000L1590.4600 506.9000L1590.4600 491.5000Q1590.4600 489.0800 1591.8900 487.5400Q1593.3200 486 1595.7400 486L1595.7400 486L1692.3200 486Q1694.7400 486 1696.1700 487.5400Q1697.6000 489.0800 1697.6000 491.5000L1697.6000 491.5000L1697.6000 505.1400Q1697.6000 508.2200 1697.0500 510.3100Q1696.5000 512.4000 1695.6200 514.6000L1695.6200 514.6000L1643.0400 634.7200Q1642.3800 636.2600 1640.7300 638.1300Q1639.0800 640 1636 640L1636 640Z" id="lecture-full-number"/></g></svg>